<svg width="879" height="540" viewBox="0 0 879 540" fill="none" xmlns="http://www.w3.org/2000/svg">
<path d="M579.833 366.811L665.665 262.957L521.033 253.95L579.833 366.811Z" fill="#F96155"/>
<path fill-rule="evenodd" clip-rule="evenodd" d="M610.193 267.753L611.589 259.511L613.116 259.769L611.721 268.011L610.193 267.753Z" fill="white"/>
<path fill-rule="evenodd" clip-rule="evenodd" d="M641.066 278.642L630.645 271.222L631.576 270.139L641.997 277.559L641.066 278.642Z" fill="white"/>
<path fill-rule="evenodd" clip-rule="evenodd" d="M622.23 299.371L632.778 302.331L632.366 303.662L621.819 300.701L622.23 299.371Z" fill="white"/>
<path fill-rule="evenodd" clip-rule="evenodd" d="M598.127 295.157L609.318 288.828L610.171 290.017L598.98 296.346L598.127 295.157Z" fill="white"/>
<path fill-rule="evenodd" clip-rule="evenodd" d="M575.918 301.674L573.281 291.632L574.784 291.356L577.421 301.398L575.918 301.674Z" fill="white"/>
<path fill-rule="evenodd" clip-rule="evenodd" d="M570.651 269.478L583.877 270.601L583.786 271.989L570.56 270.866L570.651 269.478Z" fill="white"/>
<path fill-rule="evenodd" clip-rule="evenodd" d="M552.877 261.389L551.439 249.998L552.974 249.888L554.413 261.28L552.877 261.389Z" fill="white"/>
<path fill-rule="evenodd" clip-rule="evenodd" d="M534.594 278.915L541.147 277.924L541.454 279.3L534.901 280.291L534.594 278.915Z" fill="white"/>
<path fill-rule="evenodd" clip-rule="evenodd" d="M550.786 311.707L554.411 306.767L555.709 307.565L552.084 312.505L550.786 311.707Z" fill="white"/>
<path fill-rule="evenodd" clip-rule="evenodd" d="M584.331 330.721L572.841 324.094L573.641 322.926L585.131 329.554L584.331 330.721Z" fill="white"/>
<path fill-rule="evenodd" clip-rule="evenodd" d="M610.605 329.123L605.267 321.117L606.584 320.43L611.922 328.436L610.605 329.123Z" fill="white"/>
<path fill-rule="evenodd" clip-rule="evenodd" d="M587.1 357.372L584.599 351.348L586.044 350.9L588.545 356.923L587.1 357.372Z" fill="white"/>
<path d="M187.054 27.9939L201.183 55.3487L234.3 60.4137L209.672 80.9241L214.542 110.758L185.195 96.0774L155.077 109.447L161.569 79.8628L138.093 58.2959L171.453 54.6953L187.054 27.9939Z" fill="#FBC73B"/>
<path d="M287.102 439.512L170.579 491.177C170.579 491.177 150.879 489.569 140.06 472.812C130.098 457.371 136.089 441.94 136.089 441.94L240.723 392.434L219.163 341.307L173.776 377.073C159.157 388.593 136.682 386.415 125.146 372.36L62.8672 303.618C62.8672 303.618 74.5793 300.036 82.6146 283.437C90.0148 268.154 109.995 269.345 109.995 269.345L152.944 319.819L176.27 292.589C188.783 277.899 200.082 264.372 223.253 262.843C248.077 261.207 270.84 275.313 278.478 296.57L311.631 388.862C318.324 408.858 307.954 430.267 287.102 439.512Z" fill="#F96155"/>
<path d="M197.016 479.513C194.537 473.567 194.413 467.029 194.526 460.745C194.645 454.267 195.487 447.617 198.549 441.676C201.012 436.903 204.875 432.552 209.993 429.892C215.451 427.056 221.694 426.898 227.819 427.389C238.627 428.256 250.597 430.893 259.417 423.473C263.74 419.84 266.492 414.965 269.337 410.382C272.777 404.84 276.18 399.284 279.5 393.686C286.973 381.1 294.497 368.208 299.847 354.75C300.048 354.241 299.124 353.884 298.865 354.38C292.643 366.414 286.529 378.421 279.64 390.173C276.195 396.049 272.648 401.874 269.064 407.68C265.934 412.75 263.012 418.385 258.219 422.403C248.273 430.744 234.088 425.508 222.175 425.661C211.149 425.8 202.257 431.518 197.516 440.351C194.408 446.143 193.328 452.659 193.173 459.035C193.003 465.898 193.241 473.285 196.138 479.731C196.354 480.208 197.222 480.013 197.016 479.513Z" fill="#001A39"/>
<path d="M313.196 396.457C302.311 402.449 292.194 410.035 283.56 418.483C275.406 426.462 268.068 436.565 267.893 447.761C267.882 448.345 268.961 448.511 269.065 447.904C270.046 442.047 271.75 436.555 274.941 431.333C277.792 426.662 281.448 422.422 285.466 418.515C293.769 410.433 303.292 403.019 313.589 397.059C314.007 396.814 313.625 396.221 313.196 396.457Z" fill="#001A39"/>
<path d="M149.981 453.354C168.567 456.375 176.721 434.688 178.533 422.065C178.595 421.615 177.815 421.555 177.676 421.963C175.373 428.831 173.472 436.166 169.403 442.408C165.458 448.465 158.543 453.632 150.26 452.446C149.599 452.344 149.305 453.243 149.981 453.354Z" fill="#001A39"/>
<path d="M236.081 381.98C245.17 383.078 253.577 380.539 257.78 372.832C261.886 365.298 261.323 356.266 258.89 348.379C256.055 339.18 250.489 331.209 244.762 323.281C238.998 315.296 233.695 306.023 239.226 296.741C244.617 287.696 255.462 282.181 263.993 275.842C264.654 275.35 263.807 274.451 263.099 274.804C258.71 276.982 254.754 279.985 250.865 282.816C247.39 285.351 243.971 288.006 241.116 291.12C235.513 297.219 233.292 304.568 236.112 312.214C239.246 320.727 246.161 327.683 250.85 335.496C255.968 344.013 259.629 353.546 258.782 363.347C258.384 367.971 256.763 372.842 253.215 376.322C248.79 380.659 242.458 381.461 236.23 380.979C235.595 380.924 235.44 381.901 236.081 381.98Z" fill="#001A39"/>
<path d="M190.375 277.598C196.148 278.353 201.87 279.475 207.302 281.43C212.59 283.33 218.741 286.046 221.643 290.694C228.227 301.241 209.182 307.891 201.152 310.518C190.922 313.869 179.793 315.917 170.338 320.94C162.871 324.912 156.948 331.784 160.929 339.741C163.511 344.908 168.469 349.129 172.187 353.634C176.287 358.597 180.103 363.782 183.651 369.084C184.266 370.001 185.83 369.181 185.247 368.245C182.169 363.328 178.823 358.597 175.115 354.041C171.634 349.755 167.431 345.844 164.255 341.377C160.821 336.543 160.779 331.353 165.081 326.969C168.815 323.16 174.175 320.926 179.318 319.064C189.91 315.231 201.245 313.104 211.444 308.382C219.144 304.814 228.888 297.872 222.681 289.369C219.712 285.3 214.61 282.802 209.755 280.948C203.626 278.608 197.119 277.329 190.519 276.671C189.931 276.606 189.786 277.519 190.375 277.598Z" fill="#001A39"/>
<path d="M137.7 302.015C133.595 305.944 130.419 310.653 128.911 315.894C127.258 321.645 127.522 327.618 128.188 333.471C128.864 339.402 129.99 345.357 129.737 351.34C129.453 358.036 127.031 364.102 122.28 369.292C121.789 369.825 122.579 370.58 123.142 370.066C127.527 366.062 130.486 361.312 131.488 355.733C132.515 350.005 131.797 344.152 130.945 338.448C130.047 332.419 128.988 326.316 129.598 320.217C130.253 313.614 133.517 307.562 138.454 302.687C138.914 302.237 138.175 301.561 137.7 302.015Z" fill="#001A39"/>
<path d="M82.4082 287.89C86.6582 289.697 91.1354 291.597 94.208 294.902C97.8331 298.799 98.618 304.545 99.0363 309.429C99.878 319.323 97.5595 328.786 93.733 338.003C93.4851 338.601 94.554 339.004 94.8845 338.439C100.333 329.036 102.243 317.845 100.859 307.367C100.265 302.867 99.3565 297.979 96.1393 294.332C92.8705 290.624 87.9079 288.553 83.2293 286.634C82.2894 286.245 81.458 287.487 82.4082 287.89Z" fill="#001A39"/>
<path d="M336.09 214.06C328.121 238.32 299.744 252.189 272.71 245.034C245.676 237.884 230.22 212.42 238.193 188.161" fill="#194D87"/>
<path d="M279.755 153.155C271.178 161.714 271.952 174.884 281.49 182.581C289.918 189.384 302.374 189.63 311.07 183.684C312.211 182.901 313.286 182.021 314.282 181.024C322.86 172.47 322.085 159.295 312.547 151.598C307.584 147.594 301.238 145.861 295.072 146.324C289.386 146.755 283.866 149.054 279.755 153.155Z" fill="#FBC73B"/>
<path d="M295.07 146.324C291.481 158.266 295.329 171.552 306.282 180.394C307.8 181.622 309.406 182.716 311.069 183.684C312.21 182.901 313.285 182.021 314.281 181.024C322.859 172.47 322.085 159.295 312.546 151.598C307.583 147.594 301.237 145.861 295.07 146.324Z" fill="#001A39"/>
<path d="M322.528 158.549C327.413 158.549 331.374 154.995 331.374 150.611C331.374 146.227 327.413 142.673 322.528 142.673C317.642 142.673 313.682 146.227 313.682 150.611C313.682 154.995 317.642 158.549 322.528 158.549Z" fill="#001A39"/>
<path d="M356.621 171.663C370.531 171.663 381.807 161.545 381.807 149.063C381.807 136.581 370.531 126.463 356.621 126.463C342.711 126.463 331.436 136.581 331.436 149.063C331.436 161.545 342.711 171.663 356.621 171.663Z" fill="#001A39"/>
<path d="M283.887 158.183C285.305 156.915 285.724 155.228 284.822 154.416C283.92 153.604 282.039 153.974 280.621 155.242C279.202 156.51 278.784 158.197 279.686 159.009C280.588 159.821 282.469 159.451 283.887 158.183Z" fill="#001A39"/>
<path d="M289.138 163.23C290.556 161.962 290.975 160.275 290.073 159.463C289.171 158.651 287.29 159.021 285.872 160.289C284.454 161.557 284.036 163.244 284.938 164.056C285.84 164.868 287.72 164.498 289.138 163.23Z" fill="#001A39"/>
<path fill-rule="evenodd" clip-rule="evenodd" d="M275.389 162.509C275.388 162.509 275.388 162.509 275.928 161.719C276.468 160.929 276.467 160.928 276.467 160.928L276.466 160.928L276.465 160.927L276.465 160.927C276.467 160.928 276.472 160.931 276.48 160.935C276.496 160.943 276.523 160.957 276.56 160.975C276.635 161.01 276.75 161.062 276.897 161.119C277.194 161.234 277.602 161.362 278.061 161.429C278.959 161.559 279.981 161.452 280.85 160.572L282.396 161.8C280.921 163.296 279.095 163.456 277.732 163.259C277.06 163.161 276.484 162.977 276.079 162.821C275.875 162.742 275.71 162.668 275.593 162.612C275.534 162.584 275.487 162.561 275.452 162.543C275.435 162.534 275.421 162.527 275.41 162.521L275.397 162.514L275.392 162.511L275.39 162.51L275.389 162.509ZM276.464 160.927L276.465 160.927C276.464 160.926 276.463 160.926 276.464 160.927Z" fill="#001A39"/>
<path d="M168.683 492.566C175.914 488.847 174.513 474.463 165.555 460.439C156.597 446.414 143.473 438.06 136.243 441.779C129.013 445.498 130.413 459.882 139.371 473.906C148.33 487.931 161.453 496.285 168.683 492.566Z" fill="#001A39"/>
<path d="M96.0485 297.328C109.126 287.992 115.521 275.68 110.333 269.827C105.144 263.974 90.3364 266.798 77.2589 276.134C64.1815 285.47 57.7863 297.783 62.9749 303.635C68.1635 309.488 82.9711 306.664 96.0485 297.328Z" fill="#001A39"/>
<path d="M163.05 468.892L136.822 479.8L144.924 536.929L102.062 471.862L151.798 451.254" fill="#FBC73B"/>
<path fill-rule="evenodd" clip-rule="evenodd" d="M144.057 491.571L128.095 484.662L128.768 483.41L144.73 490.319L144.057 491.571Z" fill="white"/>
<path fill-rule="evenodd" clip-rule="evenodd" d="M145.477 498.921L129.516 492.007L130.189 490.755L146.151 497.669L145.477 498.921Z" fill="white"/>
<path fill-rule="evenodd" clip-rule="evenodd" d="M146.892 506.266L130.931 499.357L131.604 498.104L147.565 505.014L146.892 506.266Z" fill="white"/>
<path d="M81.4426 297.274L67.2878 275.309L4.89551 288.803L72.2609 243.431L99.7441 285.3" fill="#FBC73B"/>
<path fill-rule="evenodd" clip-rule="evenodd" d="M55.042 283.052L60.9448 268.057L62.4056 268.52L56.5028 283.515L55.042 283.052Z" fill="white"/>
<path fill-rule="evenodd" clip-rule="evenodd" d="M47.0566 285.124L52.9602 270.128L54.4212 270.591L48.5176 285.587L47.0566 285.124Z" fill="white"/>
<path fill-rule="evenodd" clip-rule="evenodd" d="M39.0742 287.195L44.9762 272.199L46.4369 272.662L40.5348 287.658L39.0742 287.195Z" fill="white"/>
<path d="M144.035 537.431C146.794 536.011 139.611 520.115 127.993 501.925C116.374 483.735 104.718 470.14 101.959 471.559C99.2004 472.978 106.383 488.874 118.001 507.064C129.62 525.254 141.276 538.85 144.035 537.431Z" fill="#001A39"/>
<path d="M40.7194 269.302C59.4659 256.785 73.2535 244.934 71.5148 242.831C69.7761 240.728 53.1697 249.17 34.4231 261.687C15.6766 274.203 1.88895 286.055 3.6276 288.157C5.36626 290.26 21.9728 281.818 40.7194 269.302Z" fill="#001A39"/>
<path fill-rule="evenodd" clip-rule="evenodd" d="M214.522 327.716L225.232 357.926L222.772 358.628L212.062 328.419L214.522 327.716Z" fill="white"/>
<path fill-rule="evenodd" clip-rule="evenodd" d="M306.549 248.993C306.549 248.992 306.548 248.992 307.49 248.612C308.432 248.232 308.433 248.232 308.433 248.233L308.459 248.285C308.477 248.32 308.503 248.373 308.538 248.443C308.609 248.582 308.714 248.79 308.852 249.061C309.129 249.603 309.537 250.4 310.065 251.417C311.122 253.449 312.656 256.359 314.565 259.865C318.384 266.877 323.702 276.268 329.7 285.791C335.702 295.319 342.369 304.954 348.884 312.466C352.142 316.222 355.343 319.426 358.386 321.816C361.445 324.219 364.262 325.734 366.749 326.227C369.317 326.735 372.88 326.736 377.231 326.282C381.565 325.831 386.607 324.938 392.098 323.705C403.08 321.241 415.791 317.436 428.107 313.158C440.423 308.881 452.32 304.139 461.672 299.809C466.349 297.644 470.376 295.588 473.494 293.751C476.647 291.893 478.766 290.32 479.738 289.134L481.401 290.233C480.192 291.708 477.794 293.435 474.628 295.3C471.428 297.185 467.333 299.274 462.619 301.457C453.189 305.823 441.223 310.591 428.853 314.887C416.485 319.183 403.689 323.015 392.599 325.504C387.055 326.748 381.921 327.66 377.47 328.123C373.036 328.585 369.205 328.611 366.304 328.037C363.319 327.446 360.188 325.695 357.026 323.211C353.848 320.715 350.556 317.412 347.254 313.604C340.648 305.988 333.924 296.263 327.902 286.703C321.877 277.138 316.54 267.711 312.709 260.678C310.794 257.161 309.254 254.241 308.193 252.2C307.663 251.179 307.252 250.378 306.974 249.832C306.834 249.559 306.728 249.349 306.657 249.208C306.621 249.137 306.594 249.083 306.576 249.047L306.549 248.993Z" fill="#001A39"/>
<path fill-rule="evenodd" clip-rule="evenodd" d="M378.365 297.571L337.011 221.99L338.865 221.173L379.786 295.963C379.786 295.963 379.787 295.963 379.787 295.962C380.379 295.735 381.249 295.401 382.362 294.977C384.589 294.13 387.79 292.922 391.689 291.479C399.487 288.595 410.081 284.77 421.262 281.013C432.44 277.256 444.22 273.562 454.386 270.941C459.468 269.631 464.163 268.585 468.186 267.935C472.187 267.289 475.61 267.018 478.11 267.309C487.829 268.441 494.541 273.796 497.99 279.143C499.71 281.809 500.655 284.531 500.719 286.786C500.781 289 499.968 291.084 497.744 291.827L497.024 290.089C498.007 289.761 498.708 288.742 498.654 286.833C498.601 284.966 497.799 282.547 496.202 280.071C493.017 275.133 486.819 270.193 477.844 269.147C475.67 268.894 472.504 269.121 468.553 269.759C464.623 270.394 460.002 271.422 454.956 272.723C444.866 275.324 433.143 278.999 421.986 282.748C410.833 286.496 400.261 290.313 392.476 293.193C388.584 294.633 385.39 295.838 383.169 296.684C382.058 297.106 381.191 297.439 380.602 297.666C380.307 297.779 380.082 297.866 379.931 297.925L379.703 298.013C379.703 298.013 379.702 298.013 379.292 297.163L379.702 298.013L378.365 297.571Z" fill="#001A39"/>
<path d="M655.158 348L593.822 357.438L604.34 412.479L665.676 403.041L655.158 348Z" fill="#194D87"/>
<path d="M815.224 320.236C815.074 333.169 811.284 345.301 804.731 355.858C801.173 361.599 796.793 366.878 791.738 371.558C776.359 385.822 754.732 394.603 730.869 394.385C684.753 393.959 647.758 360.07 648.233 318.693C648.708 277.315 686.478 244.112 732.588 244.543C778.698 244.965 815.699 278.854 815.224 320.236Z" fill="#BACADF"/>
<path d="M686.183 505.918C696.527 505.918 704.913 498.393 704.913 489.11C704.913 479.828 696.527 472.302 686.183 472.302C675.839 472.302 667.453 479.828 667.453 489.11C667.453 498.393 675.839 505.918 686.183 505.918Z" fill="#001A39"/>
<path d="M488.052 300.74C494.187 300.74 499.16 296.278 499.16 290.773C499.16 285.267 494.187 280.805 488.052 280.805C481.918 280.805 476.944 285.267 476.944 290.773C476.944 296.278 481.918 300.74 488.052 300.74Z" fill="#001A39"/>
<path d="M766.691 489.666C777.036 489.666 785.421 482.141 785.421 472.859C785.421 463.576 777.036 456.051 766.691 456.051C756.347 456.051 747.961 463.576 747.961 472.859C747.961 482.141 756.347 489.666 766.691 489.666Z" fill="#001A39"/>
<path d="M766.691 480.38C771.32 480.38 775.072 477.012 775.072 472.858C775.072 468.705 771.32 465.337 766.691 465.337C762.063 465.337 758.311 468.705 758.311 472.858C758.311 477.012 762.063 480.38 766.691 480.38Z" fill="white"/>
<path d="M686.183 496.631C690.812 496.631 694.565 493.264 694.565 489.11C694.565 484.956 690.812 481.589 686.183 481.589C681.554 481.589 677.801 484.956 677.801 489.11C677.801 493.264 681.554 496.631 686.183 496.631Z" fill="white"/>
<path d="M716.513 120C725.245 154.834 700.855 189.427 662.037 197.264C623.218 205.1 584.668 183.213 575.936 148.379L716.513 120Z" fill="#FBC73B"/>
<path fill-rule="evenodd" clip-rule="evenodd" d="M514.224 281.762L635.876 471.226L810.04 436.059L811.514 441.936L632.527 478.077L510.888 288.634L479.191 295.186L477.684 289.316L514.224 281.762Z" fill="#001A39"/>
<path fill-rule="evenodd" clip-rule="evenodd" d="M823.104 258.128L812.621 381.033L600.876 423.784L600.422 421.976L810.678 379.526L820.831 260.487L533.815 318.434L533.361 316.625L823.104 258.128Z" fill="#001A39"/>
<path fill-rule="evenodd" clip-rule="evenodd" d="M576.049 308.957L604.421 422.116L602.406 422.523L574.034 309.364L576.049 308.957Z" fill="#001A39"/>
<path fill-rule="evenodd" clip-rule="evenodd" d="M783.459 267.079L811.83 380.243L809.815 380.65L781.443 267.486L783.459 267.079Z" fill="#001A39"/>
<path fill-rule="evenodd" clip-rule="evenodd" d="M741.976 275.458L770.353 388.616L768.338 389.023L739.961 275.864L741.976 275.458Z" fill="#001A39"/>
<path fill-rule="evenodd" clip-rule="evenodd" d="M617.532 300.583L645.904 413.742L643.888 414.149L615.517 300.99L617.532 300.583Z" fill="#001A39"/>
<path fill-rule="evenodd" clip-rule="evenodd" d="M659.015 292.205L687.387 405.369L685.372 405.776L657 292.612L659.015 292.205Z" fill="#001A39"/>
<path fill-rule="evenodd" clip-rule="evenodd" d="M700.499 283.831L728.869 396.995L726.854 397.402L698.483 284.238L700.499 283.831Z" fill="#001A39"/>
<path d="M652.451 216.022L665.738 250.214L857.179 164.908L843.892 130.717L652.451 216.022Z" fill="#194D87"/>
<path fill-rule="evenodd" clip-rule="evenodd" d="M200.988 60.4855C201.083 60.5534 201.191 60.6377 201.312 60.7413C201.877 61.2242 202.57 61.9888 203.353 62.9819C204.912 64.9576 206.716 67.6874 208.438 70.47C210.157 73.2465 211.779 76.0505 212.972 78.1622C213.568 79.2176 214.056 80.0989 214.396 80.7161C214.565 81.0247 214.698 81.2671 214.787 81.4322C214.832 81.5148 214.867 81.578 214.889 81.6204L214.923 81.6831L214.924 81.6838C214.924 81.684 214.924 81.684 215.854 81.2808L214.924 81.6838L216.885 81.2237L215.854 81.2808C216.885 81.2237 216.885 81.2238 216.885 81.2237L216.881 81.1711L216.871 81.0155C216.862 80.8789 216.849 80.6783 216.833 80.4227C216.801 79.9115 216.757 79.1806 216.71 78.3028C216.616 76.5465 216.508 74.2059 216.454 71.8629C216.399 69.5144 216.398 67.1855 216.514 65.4439C216.534 65.1482 216.557 64.874 216.583 64.623C216.871 65.2478 217.2 66.0223 217.568 66.9193C217.951 67.8563 218.376 68.9248 218.832 70.0753C219.614 72.0433 220.49 74.2515 221.423 76.4535C222.905 79.953 224.566 83.5311 226.303 86.3028C227.17 87.6871 228.078 88.9071 229.02 89.8225C229.943 90.7202 231.01 91.435 232.212 91.5954C234.262 91.8691 236.099 91.2417 237.678 90.2944C239.247 89.3536 240.646 88.0469 241.857 86.8293C242.212 86.4732 242.546 86.129 242.865 85.8017C243.674 84.9691 244.377 84.2457 245.031 83.7114C245.482 83.3432 245.82 83.1427 246.062 83.0595C246.137 83.0336 246.191 83.0224 246.23 83.0195C246.257 83.1624 246.266 83.3986 246.227 83.7488C246.145 84.4891 245.877 85.5214 245.45 86.7808C244.602 89.2857 243.193 92.5052 241.678 95.7045C240.166 98.8972 238.562 102.043 237.335 104.393C236.722 105.568 236.204 106.542 235.839 107.222C235.656 107.563 235.512 107.829 235.414 108.011C235.364 108.101 235.327 108.171 235.301 108.217L235.288 108.241L196.31 163.004L196.644 164.295L234.662 185.023L235.735 183.439L198.619 163.203L237.061 109.195L237.117 109.104L236.19 108.696C237.117 109.104 237.117 109.105 237.117 109.104L237.118 109.103L237.127 109.086L237.157 109.032C237.183 108.984 237.221 108.914 237.271 108.822C237.37 108.638 237.516 108.369 237.7 108.026C238.067 107.341 238.589 106.361 239.206 105.18C240.439 102.818 242.054 99.6501 243.579 96.4293C245.101 93.2151 246.545 89.922 247.427 87.3197C247.865 86.0254 248.18 84.8554 248.283 83.9327C248.333 83.4749 248.339 83.0221 248.249 82.6231C248.16 82.2336 247.944 81.7464 247.409 81.4561C246.711 81.0777 245.972 81.1056 245.323 81.3284C244.719 81.5359 244.153 81.9219 243.64 82.341C242.892 82.9525 242.068 83.8006 241.225 84.6675C240.924 84.9775 240.62 85.2899 240.317 85.5947C239.12 86.7967 237.867 87.9516 236.53 88.7533C235.205 89.5485 233.884 89.9447 232.516 89.7619C232.007 89.6941 231.343 89.3483 230.537 88.5653C229.75 87.7999 228.933 86.719 228.103 85.3945C226.446 82.7488 224.829 79.2778 223.354 75.795C222.425 73.6029 221.568 71.4433 220.794 69.4934C220.335 68.336 219.905 67.2525 219.507 66.28C218.979 64.9921 218.505 63.8929 218.103 63.1143C217.905 62.7306 217.703 62.3832 217.5 62.1219C217.4 61.994 217.268 61.844 217.101 61.7196C216.949 61.6076 216.619 61.406 216.164 61.447C215.502 61.5065 215.18 61.9796 215.064 62.1805C214.918 62.4337 214.821 62.736 214.751 63.0288C214.605 63.628 214.513 64.4307 214.452 65.3333C214.331 67.152 214.334 69.5415 214.389 71.9017C214.429 73.6487 214.499 75.3917 214.571 76.895C213.398 74.8279 211.865 72.1892 210.244 69.57C208.512 66.7721 206.664 63.9711 205.039 61.9108C204.23 60.8859 203.447 60.0062 202.737 59.3992C202.384 59.0974 202.01 58.8286 201.624 58.6492C201.25 58.4749 200.732 58.3245 200.175 58.4647L200.175 58.4648C199.533 58.6269 199.23 59.101 199.097 59.4525C198.962 59.8078 198.921 60.2201 198.919 60.6238C198.917 61.4443 199.081 62.5174 199.34 63.7149C199.861 66.1269 200.816 69.2503 201.847 72.3222C202.174 73.2969 202.51 74.2691 202.843 75.2152C201.792 73.7045 200.698 72.2534 199.688 71.1481C199.076 70.4783 198.456 69.8907 197.861 69.497C197.338 69.151 196.491 68.7268 195.609 69.0435C194.949 69.2801 194.609 69.7911 194.444 70.266C194.281 70.7349 194.241 71.2865 194.264 71.856C194.31 73.0041 194.624 74.4938 195.098 76.1642C196.052 79.5219 197.718 83.8261 199.502 88.0506C201.29 92.2825 203.209 96.4636 204.68 99.5849C205.416 101.146 206.04 102.443 206.481 103.35C206.65 103.698 206.792 103.989 206.903 104.215C206.873 104.244 206.841 104.275 206.809 104.306C206.444 104.659 205.91 105.179 205.231 105.845C203.873 107.179 201.936 109.102 199.615 111.464C194.974 116.188 188.796 122.669 182.655 129.695C176.517 136.718 170.397 144.306 165.883 151.24C163.626 154.706 161.758 158.029 160.491 161.049C159.23 164.056 158.533 166.835 158.699 169.192C158.869 171.602 160.178 174.165 162.19 176.762C164.213 179.372 167.011 182.098 170.297 184.845C176.87 190.339 185.496 196.004 194.06 201.1C202.63 206.201 211.169 210.75 217.586 214.012C220.795 215.644 223.477 216.955 225.369 217.854C226.315 218.303 227.068 218.651 227.593 218.885C227.854 219.002 228.067 219.094 228.222 219.157C228.297 219.187 228.374 219.217 228.443 219.241C228.474 219.251 228.53 219.269 228.595 219.284C228.624 219.291 228.689 219.305 228.772 219.312C228.785 219.313 228.805 219.314 228.827 219.314C228.874 219.315 228.933 219.314 228.973 219.311C229.06 219.3 229.272 219.243 229.392 219.19L228.353 217.588C228.472 217.534 228.682 217.478 228.767 217.467C228.823 217.463 228.92 217.464 228.959 217.466C229.035 217.472 229.091 217.485 229.11 217.489C229.135 217.495 229.153 217.5 229.16 217.502L229.169 217.505C229.169 217.505 229.173 217.507 229.172 217.506L229.17 217.506L229.169 217.505L229.164 217.504C229.159 217.502 229.152 217.499 229.143 217.496C229.125 217.489 229.102 217.48 229.073 217.468C228.952 217.419 228.766 217.339 228.512 217.226C228.009 217.001 227.273 216.661 226.336 216.216C224.462 215.326 221.798 214.023 218.604 212.399C212.216 209.152 203.72 204.625 195.201 199.556C186.676 194.482 178.157 188.882 171.705 183.488C168.479 180.791 165.794 178.166 163.886 175.704C161.968 173.229 160.896 170.997 160.761 169.075C160.621 167.098 161.207 164.605 162.424 161.702C163.636 158.813 165.444 155.589 167.667 152.175C172.112 145.346 178.167 137.834 184.28 130.839C190.39 123.849 196.54 117.397 201.164 112.69C203.476 110.338 205.405 108.422 206.756 107.096C207.431 106.433 207.962 105.917 208.323 105.567C208.504 105.392 208.643 105.258 208.736 105.169L208.841 105.068L208.875 105.035C208.876 105.035 208.876 105.035 208.123 104.4L208.876 105.035L209.066 104.023L208.123 104.4C209.066 104.023 209.067 104.023 209.066 104.023L209.02 103.93C208.99 103.868 208.944 103.776 208.885 103.655C208.767 103.415 208.594 103.061 208.375 102.61C207.937 101.708 207.315 100.417 206.583 98.8627C205.117 95.7535 203.209 91.5957 201.434 87.3936C199.655 83.1841 198.024 78.9593 197.1 75.7065C196.636 74.0717 196.366 72.7358 196.329 71.7896C196.311 71.3411 196.348 71.038 196.405 70.8527C196.463 70.8824 196.539 70.9258 196.635 70.9888C197.024 71.2466 197.517 71.6952 198.091 72.3232C199.228 73.5682 200.527 75.3429 201.766 77.1837C202.999 79.0167 204.152 80.883 204.998 82.2935C205.42 82.9981 205.765 83.5876 206.005 84.0004C206.124 84.2068 206.217 84.369 206.28 84.4793C206.312 84.5344 206.336 84.5765 206.352 84.6048L206.37 84.6365L206.375 84.6461C206.375 84.6462 206.375 84.6466 206.759 84.4725L206.375 84.6466L208.27 83.9164L207.297 84.228C208.27 83.9164 208.27 83.9165 208.27 83.9164L208.268 83.9123L208.243 83.8484C208.225 83.8032 208.198 83.7358 208.163 83.6477C208.094 83.4715 207.993 83.2126 207.864 82.8827C207.608 82.2227 207.244 81.2787 206.816 80.1434C205.96 77.8719 204.849 74.8393 203.825 71.7877C202.798 68.7292 201.869 65.6786 201.367 63.3617C201.115 62.1948 200.983 61.2647 200.985 60.6294C200.985 60.5778 200.986 60.5299 200.988 60.4855ZM196.467 70.7081C196.467 70.7083 196.466 70.7101 196.463 70.713C196.466 70.7094 196.467 70.708 196.467 70.7081ZM246.341 83.0426C246.339 83.0419 246.338 83.0412 246.337 83.0405L246.341 83.0426ZM246.204 82.9235C246.202 82.9201 246.201 82.9183 246.201 82.9182C246.201 82.9181 246.202 82.9197 246.204 82.9235ZM216.909 63.0165C216.909 63.017 216.906 63.023 216.899 63.033C216.905 63.0209 216.909 63.016 216.909 63.0165Z" fill="#001A39"/>
<path fill-rule="evenodd" clip-rule="evenodd" d="M186.485 10.978L186.785 0L188.85 0.0453747L188.551 11.0234L186.485 10.978Z" fill="#001A39"/>
<path fill-rule="evenodd" clip-rule="evenodd" d="M154.496 27.859L146.057 19.9069L147.553 18.6287L155.992 26.5807L154.496 27.859Z" fill="#001A39"/>
<path fill-rule="evenodd" clip-rule="evenodd" d="M218.157 27.9529L227.018 20.3809L228.443 21.7233L219.582 29.2953L218.157 27.9529Z" fill="#001A39"/>
<path d="M853.237 67.4675L878.414 71.5486L869.593 103.148L853.164 114.872L844.416 99.0674L853.237 67.4675Z" fill="#F96155"/>
<path d="M522.274 141.883L545.136 129L563.39 155.094L559.91 172.894L540.529 167.972L522.274 141.883Z" fill="#F96155"/>
<path d="M830.845 427.945L834.558 403.955L800.557 399.715L783.887 409.863L796.838 423.705L830.845 427.945Z" fill="#F96155"/>
<path d="M108.632 154.504L87.7998 139.105L109.629 115.327L129.552 112.672L130.461 130.726L108.632 154.504Z" fill="#F96155"/>
<path fill-rule="evenodd" clip-rule="evenodd" d="M141.09 111.972C137.046 111.835 133.487 111.716 130.299 113.163L129.6 111.922C133.158 110.307 137.103 110.443 141.032 110.578C141.287 110.587 141.541 110.596 141.796 110.604C146.039 110.742 150.357 110.766 154.734 108.824L155.421 110.07C150.662 112.182 145.99 112.132 141.74 111.993C141.522 111.986 141.305 111.979 141.09 111.972Z" fill="#001A39"/>
<path fill-rule="evenodd" clip-rule="evenodd" d="M559.394 179.045C560.051 177.032 559.98 174.935 558.557 172.498L559.93 171.853C561.543 174.617 561.648 177.086 560.881 179.436C560.128 181.739 558.542 183.905 556.865 186.092C556.699 186.308 556.531 186.526 556.363 186.744C553.099 190.982 549.604 195.519 549.876 201.974C550.191 209.49 554.444 213.33 558.605 215.327C560.703 216.334 562.79 216.875 564.355 217.163C565.137 217.307 565.784 217.387 566.233 217.431C566.458 217.454 566.632 217.467 566.749 217.474C566.807 217.478 566.85 217.48 566.878 217.481L566.909 217.483L566.915 217.483L566.916 217.483C566.915 217.483 566.915 217.483 566.886 218.178C566.857 218.872 566.857 218.872 566.856 218.872L566.851 218.872L566.839 218.872C566.828 218.871 566.814 218.87 566.795 218.87C566.759 218.868 566.706 218.865 566.639 218.861C566.504 218.852 566.31 218.838 566.064 218.813C565.574 218.765 564.878 218.679 564.044 218.525C562.377 218.218 560.14 217.64 557.874 216.553C553.308 214.362 548.667 210.113 548.327 202.026C548.036 195.096 551.808 190.207 555.045 186.01C555.228 185.772 555.41 185.537 555.589 185.303C557.281 183.098 558.721 181.104 559.394 179.045Z" fill="#001A39"/>
<path fill-rule="evenodd" clip-rule="evenodd" d="M854.007 114.22L844.626 131.586L843.312 131.03L852.693 113.663L854.007 114.22Z" fill="#001A39"/>
<path d="M783.336 158.426L779.05 182.337L745.157 177.453L732.536 163.366L749.438 153.537L783.336 158.426Z" fill="#F96155"/>
<path fill-rule="evenodd" clip-rule="evenodd" d="M732.686 164.056L711.364 161.757L711.549 160.377L732.871 162.675L732.686 164.056Z" fill="#001A39"/>
<path fill-rule="evenodd" clip-rule="evenodd" d="M755.967 391.252C755.967 391.251 755.966 391.251 756.688 390.998C757.409 390.745 757.409 390.744 757.409 390.744L757.409 390.744C757.409 390.744 757.409 390.744 757.409 390.744L757.411 390.748L757.421 390.771C757.431 390.792 757.446 390.825 757.468 390.87C757.511 390.959 757.579 391.095 757.674 391.272C757.864 391.625 758.162 392.144 758.589 392.788C759.443 394.077 760.81 395.869 762.853 397.852C766.934 401.815 773.724 406.558 784.536 409.584L784.075 410.911C772.986 407.807 765.967 402.925 761.715 398.796C759.591 396.733 758.16 394.861 757.257 393.499C756.806 392.817 756.487 392.263 756.278 391.875C756.174 391.681 756.098 391.529 756.047 391.424C756.021 391.371 756.002 391.33 755.989 391.301C755.982 391.286 755.977 391.275 755.973 391.266L755.969 391.256L755.967 391.253L755.967 391.252ZM757.409 390.744L757.409 390.744L757.409 390.744Z" fill="#001A39"/>
<path d="M551.941 164.14C553.596 164.14 554.937 162.937 554.937 161.452C554.937 159.968 553.596 158.764 551.941 158.764C550.287 158.764 548.946 159.968 548.946 161.452C548.946 162.937 550.287 164.14 551.941 164.14Z" fill="white"/>
<path d="M858.961 102.234C860.333 101.304 860.777 99.5516 859.952 98.3207C859.128 97.0898 857.347 96.8462 855.975 97.7767C854.604 98.7072 854.16 100.46 854.984 101.69C855.808 102.921 857.589 103.165 858.961 102.234Z" fill="white"/>
<path d="M748.782 168.282C750.436 168.282 751.777 167.079 751.777 165.594C751.777 164.11 750.436 162.907 748.782 162.907C747.129 162.907 745.788 164.11 745.788 165.594C745.788 167.079 747.129 168.282 748.782 168.282Z" fill="white"/>
<path d="M798.27 414.372C799.924 414.372 801.265 413.169 801.265 411.684C801.265 410.2 799.924 408.997 798.27 408.997C796.615 408.997 795.274 410.2 795.274 411.684C795.274 413.169 796.615 414.372 798.27 414.372Z" fill="white"/>
<path d="M119.315 126.319C120.97 126.319 122.311 125.116 122.311 123.632C122.311 122.147 120.97 120.944 119.315 120.944C117.661 120.944 116.32 122.147 116.32 123.632C116.32 125.116 117.661 126.319 119.315 126.319Z" fill="white"/>
<path fill-rule="evenodd" clip-rule="evenodd" d="M716.567 149.351C716.568 149.351 716.568 149.351 716.119 149.918C715.67 150.484 715.67 150.484 715.67 150.484L715.669 150.483L715.665 150.481L715.65 150.471C715.642 150.466 715.631 150.459 715.618 150.451C715.609 150.445 715.597 150.438 715.585 150.43C715.527 150.394 715.441 150.34 715.327 150.269C715.1 150.128 714.763 149.922 714.329 149.661C713.46 149.14 712.202 148.403 710.647 147.544C707.534 145.825 703.242 143.619 698.511 141.666C693.774 139.71 688.63 138.022 683.81 137.318C678.978 136.611 674.583 136.909 671.238 138.8C667.958 140.654 666.377 144.053 665.945 148.309C665.513 152.558 666.246 157.524 667.437 162.289C668.626 167.046 670.26 171.558 671.599 174.885C672.268 176.547 672.863 177.911 673.289 178.858C673.502 179.332 673.674 179.701 673.791 179.951C673.85 180.077 673.896 180.172 673.926 180.236C673.942 180.268 673.953 180.292 673.961 180.307L673.972 180.33C673.972 180.33 673.972 180.33 673.262 180.609L673.972 180.33L675.336 183.127L672.757 181.136M672.757 181.136L672.755 181.134L672.747 181.128L672.711 181.101C672.68 181.077 672.633 181.041 672.57 180.994C672.444 180.9 672.258 180.762 672.017 180.588C671.536 180.238 670.836 179.744 669.968 179.165C668.229 178.006 665.825 176.515 663.153 175.18C660.473 173.842 657.559 172.677 654.795 172.145C652.026 171.612 649.509 171.732 647.519 172.836C645.518 173.946 644.101 176.042 643.135 178.704C642.174 181.352 641.696 184.459 641.493 187.448C641.29 190.431 641.362 193.266 641.486 195.358C641.547 196.403 641.622 197.261 641.681 197.856C641.71 198.153 641.736 198.385 641.754 198.542C641.763 198.62 641.77 198.68 641.775 198.719L641.78 198.764L641.782 198.774L641.782 198.777L641.013 198.858C640.243 198.938 640.243 198.938 640.243 198.938L640.243 198.933L640.241 198.92L640.235 198.872C640.23 198.829 640.222 198.766 640.213 198.685C640.194 198.522 640.168 198.283 640.138 197.979C640.077 197.369 640.002 196.495 639.939 195.432C639.813 193.306 639.739 190.415 639.946 187.363C640.154 184.316 640.644 181.079 641.662 178.274C642.675 175.482 644.248 173.016 646.704 171.653C649.17 170.285 652.15 170.214 655.12 170.786C658.095 171.359 661.162 172.594 663.906 173.965C666.657 175.339 669.119 176.867 670.892 178.049C671.075 178.171 671.252 178.29 671.421 178.405C671.053 177.564 670.616 176.534 670.142 175.357C668.79 171.997 667.133 167.426 665.925 162.593C664.72 157.77 663.949 152.641 664.402 148.183C664.853 143.732 666.542 139.811 670.412 137.624C674.216 135.474 679.058 135.214 684.059 135.945C689.072 136.678 694.359 138.421 699.158 140.403C703.963 142.386 708.313 144.622 711.459 146.36C713.033 147.23 714.308 147.976 715.19 148.505C715.631 148.77 715.974 148.981 716.208 149.126C716.325 149.198 716.414 149.254 716.475 149.292C716.505 149.311 716.528 149.326 716.544 149.336L716.561 149.347L716.567 149.351" fill="white"/>
<path fill-rule="evenodd" clip-rule="evenodd" d="M598.894 143.746C598.893 143.745 598.893 143.745 599.649 143.592C600.405 143.439 600.405 143.439 600.405 143.439L600.407 143.449L600.416 143.483C600.424 143.514 600.435 143.559 600.451 143.619C600.483 143.739 600.53 143.917 600.594 144.147C600.721 144.607 600.911 145.273 601.163 146.095C601.668 147.739 602.42 150.005 603.409 152.491C605.401 157.493 608.311 163.273 612.026 166.722C613.875 168.439 615.855 169.516 617.956 169.702C620.036 169.887 622.394 169.214 625.048 167.129C630.408 162.919 636.693 153.169 643.759 134.462L645.227 134.908C638.157 153.624 631.767 163.699 626.069 168.175C623.193 170.434 620.426 171.319 617.803 171.086C615.201 170.855 612.901 169.536 610.912 167.688C606.949 164.009 603.95 157.982 601.95 152.959C600.945 150.433 600.181 148.133 599.669 146.464C599.413 145.629 599.22 144.951 599.09 144.481C599.025 144.246 598.976 144.063 598.943 143.939C598.927 143.876 598.915 143.828 598.906 143.796L598.897 143.758L598.894 143.746Z" fill="white"/>
<path fill-rule="evenodd" clip-rule="evenodd" d="M709.654 165.032C709.654 165.032 709.655 165.032 709.199 165.594L709.125 165.686C708.744 166.157 708.744 166.157 708.744 166.156L708.738 166.153L708.718 166.14C708.701 166.129 708.674 166.112 708.639 166.089C708.568 166.044 708.463 165.977 708.327 165.891C708.054 165.719 707.655 165.472 707.154 165.172C706.153 164.571 704.75 163.76 703.138 162.917C699.889 161.218 695.896 159.447 692.678 158.959C691.066 158.715 689.783 158.814 688.891 159.28C688.049 159.719 687.396 160.574 687.244 162.207C687.09 163.864 687.467 166.244 688.637 169.561C689.803 172.868 691.74 177.059 694.654 182.32L693.266 182.939C690.332 177.64 688.358 173.38 687.16 169.981C685.965 166.592 685.522 164.012 685.7 162.092C685.881 160.149 686.711 158.81 688.112 158.078C689.463 157.373 691.181 157.322 692.936 157.588C696.453 158.121 700.655 160.01 703.918 161.716C705.564 162.576 706.995 163.404 708.016 164.016C708.526 164.323 708.934 164.575 709.216 164.752C709.356 164.841 709.465 164.91 709.539 164.958C709.576 164.981 709.605 165 709.624 165.012L709.646 165.027L709.654 165.032Z" fill="white"/>
<path d="M551.776 253.712C549.085 230.666 567.728 210.026 593.414 207.612C619.095 205.198 642.096 221.927 644.786 244.977L551.776 253.712Z" fill="#BACADF"/>
</svg>
