<svg width="598" height="396" viewBox="0 0 598 396" fill="none" xmlns="http://www.w3.org/2000/svg">
<path d="M387.193 165.829C359.693 174.255 329.481 179.856 297.785 179.856C266.089 179.856 235.876 174.255 208.376 165.829C213.639 121.124 251.661 86.4448 297.785 86.4448C343.908 86.4448 381.927 121.124 387.193 165.829Z" fill="#F96155"/>
<path d="M377.328 263.098C387.516 263.098 395.775 254.839 395.775 244.65C395.775 234.462 387.516 226.203 377.328 226.203C367.139 226.203 358.88 234.462 358.88 244.65C358.88 254.839 367.139 263.098 377.328 263.098Z" fill="#AF687D"/>
<path d="M383.478 243.103C386.478 261.943 373.639 279.652 354.796 282.652C335.952 285.653 318.247 272.814 315.246 253.971" fill="#F96155"/>
<path d="M280.299 346.495L279.981 379.501L216.511 380.196L265.188 363.245L267.051 341.019" fill="#FFF5EB"/>
<path fill-rule="evenodd" clip-rule="evenodd" d="M253.167 362.549L264.075 369.224L263.368 370.379L252.46 363.704L253.167 362.549Z" fill="#411525"/>
<path fill-rule="evenodd" clip-rule="evenodd" d="M246.789 364.235L257.701 370.907L256.995 372.063L246.083 365.391L246.789 364.235Z" fill="#411525"/>
<path fill-rule="evenodd" clip-rule="evenodd" d="M239.854 365.658L250.762 372.333L250.055 373.488L239.147 366.813L239.854 365.658Z" fill="#411525"/>
<path d="M338.639 199.411C329.721 205.457 327.395 217.581 333.44 226.495C338.784 234.375 348.88 237.109 357.309 233.461C358.413 232.98 359.49 232.394 360.523 231.693C369.437 225.651 371.767 213.524 365.722 204.61C362.576 199.97 357.79 197.118 352.66 196.296C347.928 195.54 342.913 196.516 338.639 199.411Z" fill="#FFF5EB"/>
<path d="M352.662 196.295C347.051 206.422 347.203 219.267 354.146 229.505C355.111 230.928 356.171 232.245 357.309 233.461C358.413 232.98 359.49 232.394 360.523 231.693C369.437 225.651 371.767 213.524 365.722 204.61C362.579 199.973 357.79 197.118 352.662 196.295Z" fill="#AF687D"/>
<path d="M376.224 226.2C380.327 226.2 383.654 222.873 383.654 218.769C383.654 214.666 380.327 211.339 376.224 211.339C372.12 211.339 368.793 214.666 368.793 218.769C368.793 222.873 372.12 226.2 376.224 226.2Z" fill="#A14259"/>
<path d="M341.265 204.687C342.801 203.646 343.515 202.019 342.86 201.053C342.205 200.087 340.429 200.148 338.894 201.189C337.358 202.23 336.644 203.857 337.299 204.823C337.954 205.789 339.729 205.728 341.265 204.687Z" fill="#411525"/>
<path d="M345.014 210.626C346.55 209.585 347.264 207.958 346.609 206.992C345.954 206.026 344.179 206.087 342.643 207.128C341.107 208.169 340.393 209.796 341.048 210.762C341.703 211.728 343.479 211.668 345.014 210.626Z" fill="#411525"/>
<path fill-rule="evenodd" clip-rule="evenodd" d="M348.171 204.675L348.919 208.183L347.594 208.466L346.846 204.957L348.171 204.675Z" fill="#411525"/>
<path fill-rule="evenodd" clip-rule="evenodd" d="M341.943 198.117L344.961 199.529L344.386 200.756L341.369 199.344L341.943 198.117Z" fill="#411525"/>
<path fill-rule="evenodd" clip-rule="evenodd" d="M333.703 207.326C333.703 207.326 333.702 207.326 334.158 206.825C334.613 206.323 334.613 206.323 334.613 206.323L334.613 206.323L334.612 206.322L334.612 206.322C334.612 206.322 334.612 206.322 334.613 206.323C334.616 206.325 334.62 206.329 334.627 206.335C334.64 206.346 334.661 206.364 334.691 206.388C334.75 206.435 334.84 206.504 334.956 206.582C335.19 206.741 335.519 206.931 335.905 207.071C336.664 207.347 337.599 207.417 338.535 206.692L339.365 207.763C337.954 208.857 336.493 208.726 335.443 208.345C334.924 208.157 334.495 207.906 334.197 207.704C334.047 207.603 333.928 207.512 333.844 207.445C333.802 207.412 333.769 207.384 333.745 207.364C333.733 207.353 333.724 207.345 333.717 207.339L333.708 207.331L333.705 207.328L333.703 207.327L333.703 207.326Z" fill="#411525"/>
<path d="M375.621 333.09L350.891 248.775C347.86 238.446 338.547 231.222 327.791 230.86C314.444 230.409 303.109 240.546 302.069 253.859L301.368 262.864L292.048 243.57C288.333 235.882 280.645 230.904 272.107 230.663C259.929 230.321 249.623 239.594 248.681 251.742L241.136 348.94H283.191L284.079 328.041L291.319 351.47C295.905 368.769 310.905 378.76 328.539 378.787L340.24 378.804C364.164 378.838 381.652 356.238 375.621 333.09Z" fill="#0046DC"/>
<path fill-rule="evenodd" clip-rule="evenodd" d="M297.731 348.921L301.023 237.137L302.038 237.167L298.746 348.951L297.731 348.921Z" fill="#411525"/>
<path fill-rule="evenodd" clip-rule="evenodd" d="M282.684 348.915L286.017 270.375L287.032 270.418L283.699 348.958L282.684 348.915Z" fill="#411525"/>
<path fill-rule="evenodd" clip-rule="evenodd" d="M337.288 348.841L340.468 270.152L341.483 270.193L338.303 348.882L337.288 348.841Z" fill="#411525"/>
<path d="M334.124 348.774L333.83 379.501L270.36 380.196L319.036 363.245L319.768 348.838" fill="#FFF5EB"/>
<path fill-rule="evenodd" clip-rule="evenodd" d="M307.015 362.549L317.923 369.224L317.216 370.379L306.308 363.704L307.015 362.549Z" fill="#411525"/>
<path fill-rule="evenodd" clip-rule="evenodd" d="M300.637 364.235L311.549 370.907L310.843 372.063L299.931 365.391L300.637 364.235Z" fill="#411525"/>
<path fill-rule="evenodd" clip-rule="evenodd" d="M293.702 365.658L304.61 372.333L303.903 373.488L292.995 366.813L293.702 365.658Z" fill="#411525"/>
<path fill-rule="evenodd" clip-rule="evenodd" d="M338.004 349.265L298.241 349.444L298.236 348.428L337.999 348.249L338.004 349.265Z" fill="#411525"/>
<path fill-rule="evenodd" clip-rule="evenodd" d="M360.36 253.168L361.695 253.398L356.161 285.544L354.898 285.751L354.899 285.751C354.898 285.751 354.898 285.751 354.898 285.751L354.898 285.751L354.896 285.748L354.889 285.735C354.886 285.73 354.882 285.723 354.878 285.714C354.873 285.706 354.867 285.696 354.861 285.684C354.836 285.638 354.798 285.57 354.748 285.48C354.647 285.3 354.497 285.036 354.301 284.7C353.909 284.027 353.333 283.068 352.599 281.925C351.131 279.636 349.037 276.617 346.53 273.687C344.019 270.753 341.116 267.933 338.035 266.018C334.953 264.101 331.759 263.128 328.622 263.758C325.357 264.415 320.521 265.964 316.557 267.56C314.575 268.359 312.836 269.158 311.632 269.852C311.025 270.202 310.587 270.506 310.323 270.751C310.318 270.756 310.314 270.76 310.309 270.764C310.334 270.769 310.361 270.774 310.39 270.779C310.793 270.849 311.386 270.876 312.132 270.86C313.616 270.828 315.569 270.632 317.531 270.381C319.488 270.13 321.433 269.828 322.889 269.588C323.617 269.468 324.223 269.363 324.646 269.289C324.857 269.252 325.023 269.222 325.136 269.202C325.171 269.196 325.201 269.19 325.225 269.186C325.24 269.183 325.253 269.181 325.264 269.179L325.308 269.171C325.308 269.171 325.308 269.171 325.43 269.837C325.751 270.433 325.751 270.434 325.751 270.434L325.75 270.434L325.696 270.463C325.659 270.483 325.605 270.512 325.533 270.551C325.391 270.629 325.182 270.743 324.916 270.889C324.384 271.181 323.625 271.602 322.718 272.116C320.902 273.144 318.496 274.541 316.127 276.021C313.753 277.505 311.437 279.059 309.792 280.4C308.965 281.075 308.338 281.671 307.956 282.159C307.765 282.404 307.659 282.592 307.611 282.724C307.589 282.784 307.584 282.82 307.583 282.836C307.584 282.837 307.584 282.837 307.585 282.838C307.592 282.845 307.611 282.861 307.65 282.882C307.735 282.925 307.883 282.971 308.12 282.996C308.596 283.046 309.274 282.996 310.123 282.848C311.81 282.555 313.983 281.911 316.154 281.171C318.317 280.434 320.448 279.612 322.041 278.972C322.836 278.653 323.496 278.38 323.957 278.187C324.187 278.091 324.368 278.014 324.491 277.962C324.552 277.936 324.599 277.916 324.63 277.902L324.665 277.887L324.677 277.882C324.677 277.882 324.677 277.882 324.946 278.504L324.677 277.882L325.363 279.037L325.133 278.743C325.363 279.037 325.363 279.037 325.363 279.037L325.363 279.037L325.356 279.043L325.332 279.062C325.311 279.078 325.279 279.103 325.238 279.136C325.155 279.201 325.034 279.298 324.88 279.421C324.572 279.669 324.134 280.024 323.613 280.457C322.57 281.324 321.202 282.496 319.892 283.723C318.575 284.957 317.343 286.222 316.555 287.278C316.156 287.812 315.905 288.249 315.796 288.572C315.742 288.731 315.736 288.827 315.74 288.874C315.74 288.883 315.741 288.89 315.742 288.894C315.755 288.901 315.788 288.915 315.854 288.928C315.97 288.95 316.146 288.957 316.391 288.931C316.883 288.879 317.54 288.71 318.327 288.438C319.894 287.896 321.842 286.995 323.759 286.022C325.671 285.051 327.53 284.021 328.913 283.233C329.604 282.839 330.175 282.506 330.573 282.272C330.771 282.155 330.927 282.062 331.033 281.999C331.086 281.968 331.126 281.943 331.153 281.927L331.191 281.904L331.193 281.903C331.193 281.903 331.193 281.903 331.543 282.483C332.171 282.229 332.171 282.229 332.171 282.229L332.184 282.261C332.193 282.282 332.206 282.315 332.224 282.358C332.259 282.444 332.311 282.572 332.381 282.739C332.519 283.072 332.724 283.563 332.989 284.186C333.52 285.434 334.292 287.216 335.257 289.349C337.188 293.617 339.891 299.287 342.977 304.904C346.067 310.528 349.526 316.07 352.968 320.099C354.689 322.115 356.385 323.726 358.005 324.782C359.628 325.84 361.112 326.3 362.443 326.132C363.754 325.967 365.112 325.083 366.497 323.488C367.874 321.903 369.212 319.692 370.493 317.038C373.053 311.732 375.325 304.777 377.22 297.836C379.112 290.903 380.619 284.014 381.653 278.857C382.17 276.279 382.569 274.135 382.838 272.636C382.972 271.886 383.075 271.298 383.143 270.898C383.177 270.698 383.203 270.545 383.221 270.441C383.229 270.39 383.236 270.351 383.24 270.325L383.246 270.287C383.246 270.287 383.246 270.286 383.915 270.396C384.583 270.505 384.583 270.506 384.583 270.506L384.576 270.546C384.572 270.573 384.565 270.613 384.557 270.665C384.539 270.77 384.513 270.925 384.479 271.126C384.409 271.53 384.307 272.122 384.171 272.875C383.901 274.382 383.501 276.535 382.982 279.123C381.944 284.299 380.43 291.22 378.527 298.193C376.625 305.16 374.327 312.209 371.713 317.626C370.407 320.333 369.008 322.664 367.52 324.377C366.04 326.08 364.403 327.251 362.612 327.476C360.842 327.7 359.032 327.068 357.265 325.917C355.494 324.763 353.703 323.046 351.938 320.979C348.407 316.845 344.895 311.208 341.79 305.557C338.681 299.898 335.963 294.194 334.023 289.907C333.053 287.763 332.276 285.972 331.742 284.717C331.526 284.207 331.349 283.786 331.216 283.465C330.816 283.701 330.256 284.027 329.584 284.41C328.19 285.204 326.311 286.246 324.372 287.23C322.439 288.211 320.426 289.146 318.77 289.718C317.946 290.003 317.176 290.21 316.533 290.278C316.211 290.312 315.892 290.314 315.6 290.259C315.307 290.203 314.998 290.08 314.759 289.828C314.276 289.32 314.339 288.653 314.512 288.14C314.689 287.613 315.042 287.04 315.469 286.468C316.331 285.313 317.635 283.981 318.965 282.735C319.691 282.055 320.433 281.393 321.128 280.79C319.768 281.319 318.189 281.909 316.591 282.453C314.404 283.199 312.149 283.871 310.356 284.183C309.465 284.338 308.641 284.413 307.979 284.344C307.359 284.278 306.621 284.054 306.327 283.349C306.17 282.971 306.221 282.586 306.337 282.264C306.453 281.944 306.652 281.627 306.889 281.325C307.364 280.717 308.083 280.046 308.936 279.351C310.649 277.954 313.023 276.364 315.409 274.873C317.635 273.482 319.89 272.166 321.664 271.157C320.461 271.345 319.086 271.548 317.703 271.725C315.73 271.977 313.718 272.181 312.162 272.214C311.388 272.231 310.692 272.207 310.157 272.114C309.893 272.068 309.628 271.999 309.403 271.884C309.185 271.774 308.903 271.568 308.8 271.203C308.705 270.868 308.801 270.564 308.921 270.345C309.04 270.127 309.215 269.931 309.402 269.758C309.777 269.41 310.319 269.046 310.956 268.679C312.24 267.939 314.045 267.112 316.051 266.304C320.063 264.688 324.982 263.108 328.355 262.43C331.955 261.707 335.506 262.849 338.751 264.867C341.997 266.886 345.003 269.819 347.559 272.807C350.119 275.798 352.25 278.871 353.739 281.193C354.302 282.071 354.775 282.843 355.145 283.464L360.36 253.168ZM331.543 282.483L332.171 282.229L331.193 281.903L331.543 282.483ZM325.43 269.837L325.751 270.434L325.308 269.171L325.43 269.837Z" fill="#E4EDFA"/>
<path fill-rule="evenodd" clip-rule="evenodd" d="M246.171 265.622L246.094 266.294L245.807 265.681L246.171 265.622ZM246.088 274.948C246.241 274.918 246.401 274.885 246.569 274.851C247.947 274.57 249.811 274.172 251.69 273.709C253.564 273.247 255.476 272.714 256.941 272.158C257.671 271.882 258.32 271.589 258.805 271.281C259.048 271.127 259.274 270.955 259.451 270.759C259.625 270.566 259.794 270.303 259.827 269.976C259.893 269.322 259.42 268.866 259.042 268.6C258.625 268.307 258.057 268.051 257.43 267.826C256.166 267.372 254.486 266.977 252.832 266.654C251.171 266.33 249.506 266.072 248.259 265.895C247.635 265.807 247.114 265.738 246.749 265.692C246.566 265.669 246.422 265.652 246.324 265.64C246.275 265.634 246.237 265.629 246.211 265.626L246.171 265.622C246.171 265.622 246.171 265.622 246.094 266.294C245.807 265.681 245.807 265.681 245.806 265.681L245.806 265.682L245.803 265.683L245.798 265.685L245.783 265.693C245.77 265.699 245.754 265.707 245.734 265.717C245.694 265.738 245.639 265.767 245.571 265.807C245.433 265.886 245.239 266.005 245 266.173C244.521 266.509 243.858 267.038 243.09 267.83C241.551 269.415 239.596 272.041 237.829 276.25M244.261 273.957C244.238 273.955 244.222 273.955 244.218 273.955C244.218 273.955 244.218 273.955 244.218 273.955C244.233 273.955 244.247 273.956 244.261 273.957ZM246.088 274.948C246.363 275.119 246.666 275.31 246.993 275.518C248.4 276.416 250.251 277.644 252.075 278.965C253.894 280.282 255.708 281.708 257.029 282.999C257.688 283.643 258.249 284.276 258.625 284.865C258.981 285.421 259.272 286.089 259.118 286.738C258.953 287.431 258.39 287.798 257.82 287.976C257.254 288.153 256.549 288.194 255.805 288.164C254.303 288.102 252.405 287.738 250.571 287.292C249.171 286.952 247.787 286.56 246.609 286.204C247.15 286.678 247.729 287.197 248.298 287.73C249.349 288.713 250.391 289.765 251.106 290.676C251.46 291.128 251.763 291.581 251.938 291.997C252.095 292.372 252.248 292.957 251.885 293.448L251.885 293.449C251.714 293.679 251.48 293.813 251.267 293.895C251.051 293.977 250.813 294.022 250.574 294.046C250.098 294.093 249.521 294.066 248.905 293.997C247.667 293.858 246.143 293.535 244.678 293.173C243.207 292.809 241.773 292.4 240.708 292.083C240.175 291.924 239.734 291.787 239.425 291.691C239.271 291.642 239.15 291.604 239.067 291.577C239.026 291.564 238.994 291.554 238.972 291.547L238.939 291.537L238.939 291.536C238.939 291.536 238.939 291.536 239.148 290.892C238.588 291.274 238.588 291.273 238.588 291.273L238.587 291.272L238.586 291.27L238.582 291.265L238.57 291.247C238.561 291.232 238.547 291.211 238.53 291.184C238.496 291.131 238.449 291.054 238.391 290.955C238.275 290.757 238.117 290.47 237.94 290.1C237.586 289.362 237.156 288.294 236.839 286.959C236.204 284.282 236.027 280.538 237.829 276.25M239.148 290.892L238.588 291.274L238.939 291.536L239.148 290.892ZM239.59 290.322C239.657 290.344 239.738 290.369 239.83 290.398C240.134 290.493 240.569 290.627 241.095 290.784C242.148 291.098 243.56 291.501 245.003 291.858C246.451 292.216 247.907 292.522 249.056 292.651C249.634 292.715 250.102 292.731 250.44 292.698C250.571 292.684 250.667 292.665 250.734 292.646C250.725 292.614 250.71 292.573 250.689 292.522C250.584 292.271 250.368 291.931 250.04 291.513C249.391 290.685 248.411 289.69 247.373 288.719C246.34 287.753 245.272 286.83 244.46 286.147C244.055 285.805 243.714 285.525 243.475 285.33C243.356 285.233 243.262 285.157 243.198 285.105C243.166 285.08 243.142 285.06 243.125 285.047L243.102 285.028L243.748 283.859L243.693 284.017C243.748 283.859 243.748 283.859 243.748 283.859L243.748 283.859L243.757 283.862L243.787 283.872C243.813 283.882 243.852 283.895 243.904 283.913C244.007 283.948 244.159 284 244.352 284.065C244.74 284.195 245.294 284.378 245.963 284.588C247.301 285.009 249.087 285.538 250.891 285.976C252.704 286.416 254.496 286.755 255.86 286.81C256.548 286.838 257.07 286.791 257.415 286.683C257.757 286.576 257.791 286.461 257.8 286.424C257.819 286.344 257.802 286.091 257.484 285.595C257.188 285.132 256.71 284.581 256.083 283.968C254.832 282.746 253.082 281.367 251.28 280.062C249.483 278.76 247.656 277.548 246.265 276.66C245.569 276.217 244.985 275.856 244.57 275.607C244.362 275.482 244.2 275.388 244.089 275.325C244.032 275.294 243.995 275.274 243.974 275.263C243.968 275.26 243.965 275.259 243.965 275.259C243.965 275.259 243.968 275.26 243.973 275.263C243.978 275.264 243.994 275.271 244.017 275.279C244.018 275.279 244.018 275.279 244.018 275.279C244.022 275.28 244.036 275.285 244.059 275.291C243.996 275.271 243.847 275.2 243.757 275.131C243.612 274.941 243.553 274.489 243.636 274.281C243.699 274.194 243.816 274.085 243.86 274.056C243.885 274.041 243.928 274.018 243.946 274.011C243.977 273.997 244.004 273.988 244.013 273.985C244.046 273.975 244.079 273.967 244.089 273.965L244.09 273.965C244.122 273.957 244.165 273.948 244.214 273.939C244.313 273.918 244.462 273.889 244.651 273.852L244.66 273.85C245.049 273.774 245.614 273.663 246.298 273.524C247.667 273.244 249.511 272.851 251.366 272.394C253.226 271.935 255.074 271.417 256.461 270.892C257.159 270.627 257.709 270.372 258.08 270.137C258.261 270.022 258.376 269.927 258.441 269.856C258.408 269.821 258.353 269.772 258.262 269.708C257.994 269.519 257.56 269.312 256.972 269.101C255.808 268.682 254.21 268.303 252.573 267.984C250.943 267.666 249.303 267.411 248.069 267.236C247.452 267.149 246.938 267.082 246.579 267.036C246.436 267.018 246.317 267.003 246.227 266.992C246.123 267.053 245.97 267.147 245.777 267.283C245.366 267.571 244.769 268.045 244.062 268.774C242.648 270.23 240.783 272.713 239.078 276.774C237.406 280.753 237.576 284.199 238.157 286.646C238.448 287.872 238.842 288.849 239.162 289.515C239.321 289.848 239.462 290.103 239.56 290.271C239.571 290.289 239.581 290.306 239.59 290.322ZM250.753 292.741C250.753 292.741 250.753 292.739 250.753 292.736C250.753 292.74 250.753 292.741 250.753 292.741ZM244.388 275.286C244.388 275.286 244.389 275.286 244.392 275.285C244.389 275.286 244.388 275.286 244.388 275.286Z" fill="#E4EDFA"/>
<path fill-rule="evenodd" clip-rule="evenodd" d="M298.09 140.928L396.71 223.992V382.038H199.47V223.992L298.09 140.928ZM201.84 225.095V379.667H394.339V225.095L298.09 144.027L201.84 225.095Z" fill="#E4EDFA"/>
<path d="M562.623 54.4579C562.83 63.9711 555.288 71.8485 545.771 72.0551C537.362 72.238 530.229 66.3621 528.546 58.4237C528.326 57.3806 528.198 56.307 528.174 55.203C527.967 45.6932 535.509 37.8124 545.026 37.6058C549.977 37.4974 554.481 39.4888 557.695 42.7603C560.659 45.7846 562.525 49.8994 562.623 54.4579Z" fill="#F96155"/>
<path d="M528.201 57.1772C537.667 62.8296 550.824 67.4828 561.363 61.8643C561.628 61.7221 561.448 61.292 561.16 61.3767C558.36 62.2064 555.684 63.1479 552.748 63.4189C549.889 63.683 547 63.4561 544.193 62.8837C538.571 61.7356 533.599 59.1449 528.418 56.808C528.171 56.6963 527.957 57.0316 528.201 57.1772Z" fill="#411525"/>
<path d="M532.14 43.8915C540.383 48.8699 552.294 53.2895 561.77 49.2933C562.064 49.1679 561.841 48.7548 561.566 48.8056C559.091 49.2797 556.696 49.8419 554.156 49.8927C551.501 49.9435 548.853 49.598 546.272 48.9884C541.352 47.82 536.952 45.5442 532.36 43.5223C532.109 43.414 531.899 43.7459 532.14 43.8915Z" fill="#411525"/>
<path d="M548.623 307.802C524.608 329.263 487.741 327.194 466.279 303.179C444.818 279.164 446.887 242.297 470.902 220.835" fill="#F96155"/>
<path fill-rule="evenodd" clip-rule="evenodd" d="M492.218 288.345C485.456 294.646 478.956 303.496 474.268 310.555L473.422 309.993C478.122 302.916 484.674 293.986 491.525 287.602C494.95 284.411 498.476 281.829 501.908 280.444C505.35 279.056 508.742 278.855 511.823 280.508L511.823 280.508C516.588 283.066 519.527 289.184 521.328 296.554C523.139 303.959 523.839 312.789 524.001 320.986L522.986 321.006C522.823 312.839 522.126 304.095 520.342 296.795C518.548 289.459 515.694 283.739 511.342 281.403C508.607 279.935 505.546 280.072 502.289 281.387C499.021 282.705 495.601 285.193 492.218 288.345Z" fill="#411525"/>
<path fill-rule="evenodd" clip-rule="evenodd" d="M468.95 247.191C467.014 253.195 466.576 258.519 468.497 262.327L468.043 262.556L468.497 262.327C469.679 264.671 471.727 266.164 474.426 267C477.137 267.839 480.483 268.008 484.194 267.699C491.616 267.083 500.351 264.572 508.052 261.94L508.381 262.901C500.665 265.538 491.831 268.084 484.278 268.712C480.502 269.026 477.01 268.864 474.125 267.97C471.229 267.073 468.924 265.43 467.59 262.785C465.481 258.603 466.028 252.944 467.983 246.88C469.947 240.791 473.368 234.175 477.175 227.993L478.04 228.525C474.254 234.674 470.878 241.212 468.95 247.191Z" fill="#411525"/>
<path d="M563.091 154.288L550.399 189.197L585.308 201.89L598 166.981L563.091 154.288Z" fill="#FDC4A0"/>
<path d="M53.2745 34.841L23.6029 57.1875L45.9494 86.859L75.621 64.5125L53.2745 34.841Z" fill="#FDC4A0"/>
<path fill-rule="evenodd" clip-rule="evenodd" d="M37.0005 75.6362C37.2541 67.3813 37.1584 57.0006 35.8301 47.675L36.8359 47.5317C38.1763 56.9413 38.2704 67.3885 38.016 75.6674L37.0005 75.6362Z" fill="#411525"/>
<path fill-rule="evenodd" clip-rule="evenodd" d="M52.1905 57.6391C50.8952 62.5679 50.8055 66.9018 52.4566 70.1733L52.4567 70.1734C53.9343 73.1031 56.7376 74.7723 60.4569 75.5089L60.2595 76.5055C56.352 75.7316 53.2148 73.9328 51.5496 70.6311C49.7327 67.0311 49.8887 62.4004 51.2079 57.3809C52.5304 52.3486 55.0444 46.8406 58.0583 41.4194L58.9463 41.9131C55.9522 47.2988 53.4826 52.723 52.1905 57.6391Z" fill="#411525"/>
<path d="M34.4534 189.014C34.66 198.527 27.1179 206.405 17.6013 206.611C9.1922 206.794 2.05973 200.918 0.376547 192.98C0.156413 191.937 0.0278514 190.863 0.00414467 189.759C-0.202443 180.249 7.33962 172.369 16.8562 172.162C21.8075 172.054 26.3119 174.045 29.5258 177.316C32.4926 180.341 34.3552 184.456 34.4534 189.014Z" fill="#F96155"/>
<path fill-rule="evenodd" clip-rule="evenodd" d="M118.196 112.265C117.414 113.156 117.414 113.156 117.415 113.157L117.424 113.164L117.45 113.188C117.473 113.208 117.507 113.238 117.552 113.277C117.643 113.355 117.776 113.47 117.953 113.62C118.306 113.921 118.831 114.363 119.52 114.932C120.898 116.07 122.937 117.714 125.583 119.748C130.876 123.815 138.605 129.441 148.359 135.687C167.864 148.174 195.494 163.156 227.973 173.099C249.43 179.673 273.018 184.049 297.781 184.049C322.545 184.049 346.133 179.673 367.589 173.099C400.068 163.156 427.698 148.174 447.203 135.687C456.958 129.441 464.686 123.815 469.979 119.748C472.626 117.714 474.664 116.07 476.043 114.932C476.732 114.363 477.256 113.921 477.61 113.62C477.786 113.47 477.92 113.355 478.01 113.277L478.045 113.246C478.073 113.222 478.096 113.202 478.112 113.188L478.139 113.164L478.146 113.158L478.148 113.157C478.149 113.156 478.149 113.156 477.367 112.265L478.149 113.156L479.163 112.265L478.149 111.374L477.367 112.265C478.149 111.374 478.148 111.374 478.147 111.373L478.144 111.37L478.132 111.36L478.086 111.32C478.045 111.284 477.986 111.232 477.906 111.164C477.748 111.028 477.514 110.827 477.204 110.566C476.585 110.044 475.666 109.28 474.463 108.309C472.057 106.368 468.513 103.598 463.952 100.276C454.832 93.6329 441.638 84.7785 425.335 75.9241C392.742 58.2229 347.647 40.481 297.785 40.481C247.922 40.481 202.825 58.2228 170.231 75.9241C153.927 84.7784 140.733 93.6329 131.611 100.276C127.05 103.598 123.506 106.368 121.1 108.309C119.897 109.28 118.978 110.044 118.359 110.566C118.049 110.827 117.814 111.028 117.656 111.164C117.577 111.232 117.517 111.284 117.477 111.319L117.431 111.36L117.415 111.373C117.414 111.374 117.414 111.374 118.196 112.265ZM120.022 112.265C120.302 112.501 120.638 112.782 121.029 113.104C122.388 114.225 124.404 115.852 127.028 117.868C132.275 121.9 139.948 127.486 149.638 133.69C169.022 146.101 196.454 160.97 228.668 170.832C249.944 177.351 273.296 181.679 297.781 181.679C322.267 181.679 345.618 177.351 366.895 170.832C399.108 160.97 426.54 146.101 445.925 133.69C455.615 127.486 463.288 121.9 468.535 117.868C471.158 115.852 473.175 114.225 474.534 113.104C474.924 112.782 475.26 112.501 475.541 112.265C474.938 111.758 474.078 111.045 472.974 110.154C470.596 108.235 467.083 105.489 462.557 102.192C453.503 95.598 440.398 86.8027 424.203 78.0073C391.801 60.4092 347.105 42.8516 297.785 42.8516C248.465 42.8516 203.767 60.4092 171.363 78.0074C155.167 86.8027 142.061 95.598 133.007 102.192C128.48 105.489 124.967 108.235 122.589 110.154C121.484 111.045 120.625 111.758 120.022 112.265ZM117.414 111.374L118.196 112.265L117.414 113.156L116.399 112.265L117.414 111.374Z" fill="#E4EDFA"/>
<path d="M356.432 173.662C338.394 179.189 318.575 182.864 297.785 182.864C276.994 182.864 257.178 179.186 239.137 173.662C242.592 144.34 267.531 121.592 297.785 121.592C328.038 121.592 352.977 144.337 356.432 173.662Z" fill="#FBC73B"/>
<path fill-rule="evenodd" clip-rule="evenodd" d="M110.228 69.2456L143.221 93.1319L141.831 95.0521L108.838 71.1659L110.228 69.2456Z" fill="#E4EDFA"/>
<path fill-rule="evenodd" clip-rule="evenodd" d="M161.04 31.0913L188.147 67.085L186.253 68.5111L159.146 32.5175L161.04 31.0913Z" fill="#E4EDFA"/>
<path fill-rule="evenodd" clip-rule="evenodd" d="M229.449 9.4585L241.899 46.9965L239.648 47.7428L227.199 10.2048L229.449 9.4585Z" fill="#E4EDFA"/>
<path fill-rule="evenodd" clip-rule="evenodd" d="M306.464 0.0473153L305.327 40.7484L303.634 40.7011L304.772 0L306.464 0.0473153Z" fill="#E4EDFA"/>
<path fill-rule="evenodd" clip-rule="evenodd" d="M484.148 68.3073L457.867 97.243L456.112 95.6492L482.393 66.7134L484.148 68.3073Z" fill="#E4EDFA"/>
<path fill-rule="evenodd" clip-rule="evenodd" d="M435.825 35.191L414.062 71.2219L412.032 69.9962L433.796 33.9653L435.825 35.191Z" fill="#E4EDFA"/>
<path fill-rule="evenodd" clip-rule="evenodd" d="M377.894 13.9726L364.357 50.4573L362.135 49.6327L375.671 13.1479L377.894 13.9726Z" fill="#E4EDFA"/>
<path fill-rule="evenodd" clip-rule="evenodd" d="M298.09 144.314L342.169 181.442L340.642 183.256L298.09 147.414L255.538 183.256L254.01 181.442L298.09 144.314Z" fill="#572638"/>
<path d="M95.1832 286.72C90.7399 286.72 86.2696 285.226 82.5273 282.148C73.7524 274.934 72.313 261.753 79.3099 252.711L114.907 206.699C121.904 197.654 134.689 196.17 143.464 203.384C152.239 210.597 153.678 223.778 146.681 232.821L111.084 278.836C107.07 284.021 101.154 286.72 95.1832 286.72Z" fill="#FDC4A0"/>
<path fill-rule="evenodd" clip-rule="evenodd" d="M101.031 246.829C99.4289 241.625 96.9641 237.256 93.2756 234.705L93.8536 233.869C97.8106 236.606 100.369 241.226 102.002 246.53C103.637 251.842 104.363 257.904 104.609 263.609C104.855 269.319 104.62 274.693 104.325 278.638C104.178 280.611 104.015 282.228 103.889 283.353C103.825 283.915 103.771 284.354 103.733 284.654C103.714 284.803 103.699 284.918 103.689 284.995C103.687 285.009 103.685 285.021 103.683 285.032C103.681 285.054 103.678 285.071 103.676 285.084L103.673 285.106L103.673 285.112L103.672 285.114C103.672 285.114 103.672 285.114 103.169 285.043C102.666 284.972 102.666 284.972 102.666 284.972L102.667 284.965L102.67 284.944C102.673 284.926 102.677 284.897 102.682 284.86C102.692 284.785 102.707 284.672 102.725 284.525C102.763 284.231 102.816 283.796 102.879 283.239C103.004 282.125 103.166 280.521 103.312 278.562C103.605 274.643 103.837 269.311 103.593 263.653C103.35 257.992 102.63 252.026 101.031 246.829Z" fill="#411525"/>
<path fill-rule="evenodd" clip-rule="evenodd" d="M117.308 233.652C116.883 237.062 117.17 240.074 118.364 242.513C120.767 247.42 126.694 248.91 134.217 248.38L134.288 249.394C126.719 249.927 120.156 248.484 117.452 242.96L117.452 242.96C116.141 240.282 115.861 237.052 116.299 233.526C116.738 229.998 117.901 226.138 119.52 222.166C122.757 214.224 127.846 205.767 132.744 198.527L133.586 199.096C128.703 206.313 123.659 214.703 120.461 222.55C118.862 226.473 117.732 230.243 117.308 233.652Z" fill="#411525"/>
</svg>
