<svg width="165" height="128" viewBox="0 0 165 128" fill="none" xmlns="http://www.w3.org/2000/svg">
<path fill-rule="evenodd" clip-rule="evenodd" d="M29.1099 58.9218C29.1098 58.9217 29.1097 58.9217 28.9314 59.3908C28.7531 59.86 28.7532 59.86 28.7533 59.8601L28.7541 59.8604L28.8119 59.8823C28.8506 59.8969 28.9081 59.9186 28.9834 59.947C29.1341 60.0037 29.3562 60.087 29.6426 60.1935C30.2153 60.4066 31.045 60.7127 32.0736 61.0853C34.1308 61.8303 36.9847 62.8411 40.1715 63.9045C46.5339 66.0275 54.2616 68.373 59.6203 69.2171C66.573 70.3135 76.6361 70.2417 84.9305 69.9007C89.0841 69.7299 92.8055 69.4911 95.4884 69.295C96.83 69.1969 97.9122 69.1095 98.6594 69.0465C99.0329 69.0151 99.3227 68.9897 99.5193 68.9722C99.6176 68.9635 99.6926 68.9567 99.7431 68.9521L99.8195 68.9451C99.8198 68.945 99.8199 68.945 99.7733 68.4453C99.7267 67.9455 99.7266 67.9455 99.7264 67.9456L99.7256 67.9456L99.6519 67.9524C99.6021 67.957 99.5279 67.9637 99.4303 67.9724C99.2352 67.9897 98.947 68.0149 98.5751 68.0462C97.8313 68.1089 96.7528 68.196 95.4153 68.2938C92.74 68.4894 89.0297 68.7275 84.8893 68.8977C76.5956 69.2387 66.6213 69.3049 59.7766 68.2255C54.5098 67.3958 46.8539 65.076 40.4892 62.9523C37.3125 61.8923 34.4669 60.8843 32.4155 60.1414C31.3898 59.77 30.5629 59.4649 29.9926 59.2527C29.7075 59.1466 29.4865 59.0638 29.337 59.0075C29.2622 58.9793 29.2052 58.9578 29.1671 58.9434L29.1099 58.9218Z" fill="#001A39"/>
<path fill-rule="evenodd" clip-rule="evenodd" d="M33.4519 45.3958L65.6255 52.4071C65.6979 52.4229 65.7722 52.4279 65.8461 52.4219L102.411 49.4812L102.33 48.4807L65.8028 51.4184L33.6656 44.415L33.4519 45.3958Z" fill="#001A39"/>
<path d="M105.003 74.4104L134.706 79.028C142.38 80.22 149.57 74.965 150.762 67.2908C151.954 59.6167 146.699 52.4268 139.025 51.2348L109.322 46.6172C101.648 45.4252 94.4579 50.6802 93.2659 58.3544C92.0739 66.0286 97.3264 73.2184 105.003 74.4104Z" fill="#F96155"/>
<path fill-rule="evenodd" clip-rule="evenodd" d="M22.8604 75.0463L37.1548 26.3486L36.1916 26.0659L21.8973 74.7636L22.8604 75.0463Z" fill="#001A39"/>
<path fill-rule="evenodd" clip-rule="evenodd" d="M25.5861 74.8179L25.9675 23.578L24.9637 23.5706L24.5823 74.8104L25.5861 74.8179Z" fill="#001A39"/>
<path fill-rule="evenodd" clip-rule="evenodd" d="M30.7601 74.5987L16.2073 25.635L15.2451 25.921L29.7979 74.8847L30.7601 74.5987Z" fill="#001A39"/>
<path fill-rule="evenodd" clip-rule="evenodd" d="M18.7236 40.6647L19.0914 41.0062L19.2766 40.5398L18.9574 40.413L18.7236 40.6647ZM19.9892 54.0434C19.9766 54.038 19.9598 54.0306 19.9393 54.021C19.8785 53.9923 19.7851 53.9439 19.6698 53.8701C19.4394 53.7225 19.1211 53.4733 18.7986 53.0756C18.1596 52.2877 17.4702 50.8749 17.4702 48.4144C17.4702 45.925 17.9857 44.1414 18.4896 42.9909C18.7419 42.4149 18.9922 41.9956 19.1754 41.7246C19.2031 41.6837 19.2292 41.6461 19.2536 41.6119C19.3185 41.638 19.3918 41.6676 19.4728 41.7004C19.8344 41.8466 20.3512 42.057 20.972 42.314C22.2139 42.828 23.8699 43.5273 25.5292 44.2694C27.1909 45.0126 28.8459 45.7944 30.0902 46.4736C30.7143 46.8142 31.2202 47.1211 31.5688 47.378C31.6318 47.4245 31.6878 47.468 31.737 47.5083C31.481 47.5247 31.1313 47.5154 30.6972 47.4788C29.6011 47.3864 28.1102 47.1343 26.5957 46.8348C25.0857 46.5362 23.5696 46.194 22.4299 45.9261C21.8604 45.7922 21.3855 45.6771 21.0531 45.5955C20.887 45.5547 20.7565 45.5222 20.6677 45.5C20.6233 45.4889 20.5893 45.4804 20.5664 45.4747L20.5434 45.4689L20.5407 45.4682L20.5323 45.4661C20.5322 45.466 20.5321 45.466 20.4089 45.9525C20.2855 46.4391 20.2856 46.4391 20.2857 46.4391L20.288 46.4397L20.2948 46.4414L20.296 46.4417L20.3275 46.4497C20.3554 46.4569 20.3969 46.4675 20.4512 46.4815C20.5597 46.5094 20.7191 46.5507 20.9221 46.6041C21.3281 46.7107 21.9083 46.8653 22.6044 47.0569C23.997 47.4403 25.8504 47.9711 27.6981 48.5618C29.5496 49.1538 31.3794 49.8009 32.7321 50.4156C33.4116 50.7244 33.9469 51.0146 34.3009 51.2735C34.4786 51.4034 34.5897 51.5106 34.6509 51.5911C34.6527 51.5934 34.6544 51.5957 34.656 51.5979C34.6058 51.6203 34.5292 51.6464 34.4177 51.6706C34.0699 51.7459 33.5401 51.7697 32.8569 51.7412C31.5026 51.6845 29.6899 51.4297 27.8594 51.1102C26.034 50.7916 24.2106 50.4123 22.8422 50.1122C22.1584 49.9623 21.589 49.8323 21.1908 49.7399C20.9917 49.6936 20.8354 49.6568 20.729 49.6316C20.6759 49.619 20.6352 49.6093 20.6079 49.6027L20.5771 49.5953L20.5762 49.5951L20.5694 49.5935L20.5689 49.5933L20.5675 49.593L20.5671 49.5929L20.5664 49.5928C20.5663 49.5927 20.5662 49.5927 20.449 50.0807C20.3311 50.5686 20.3312 50.5686 20.3313 50.5686L20.3319 50.5688L20.3339 50.5693L20.3678 50.5775C20.392 50.5833 20.428 50.5921 20.475 50.6036C20.569 50.6267 20.7073 50.6609 20.8832 50.7051C21.2352 50.7935 21.7381 50.922 22.3407 51.0822C23.5465 51.4028 25.1482 51.8494 26.737 52.3546C28.3306 52.8613 29.892 53.421 31.0265 53.9656C31.5974 54.2396 32.0316 54.4966 32.3055 54.7246C32.4424 54.8387 32.5176 54.9279 32.5536 54.9884C32.5579 54.9956 32.5613 55.0019 32.5641 55.0074C32.5321 55.0344 32.4509 55.087 32.2588 55.1442C31.9367 55.2401 31.4572 55.2981 30.8435 55.3154C29.6254 55.3499 28.0129 55.2221 26.3879 55.0317C24.7681 54.842 23.1568 54.5927 21.949 54.3906C21.3455 54.2896 20.8436 54.2005 20.4929 54.1368C20.3175 54.1049 20.18 54.0793 20.0865 54.0618C20.0594 54.0567 20.036 54.0523 20.0164 54.0486C20.0063 54.0466 19.9972 54.0449 19.9892 54.0434ZM30.1267 52.4823C30.6076 52.6735 31.0577 52.8671 31.4609 53.0606C32.0569 53.3467 32.5789 53.646 32.9479 53.9533C33.1323 54.1069 33.3002 54.2802 33.4161 54.4749C33.5346 54.674 33.6126 54.9209 33.5633 55.192C33.4641 55.7386 32.9496 55.9859 32.5452 56.1063C32.097 56.2397 31.5139 56.3007 30.8719 56.3189C29.5788 56.3554 27.9078 56.2204 26.2711 56.0287C24.6291 55.8364 23.0003 55.5843 21.7834 55.3807C21.1745 55.2788 20.6679 55.1889 20.3133 55.1244C20.1359 55.0921 19.9965 55.0662 19.9013 55.0483C19.8537 55.0394 19.8171 55.0325 19.7923 55.0278L19.7544 55.0205C19.7543 55.0205 19.7542 55.0205 19.8492 54.5276L19.7544 55.0205L19.7194 55.0138L19.6859 55.0022L19.8492 54.5276C19.6859 55.0022 19.6855 55.0021 19.6852 55.002L19.6843 55.0017L19.6824 55.001L19.6779 54.9994C19.6745 54.9982 19.6704 54.9967 19.6657 54.9949C19.6561 54.9914 19.6439 54.9867 19.6291 54.9807C19.5996 54.9688 19.5599 54.9519 19.5115 54.9291C19.4148 54.8835 19.2832 54.8145 19.1284 54.7154C18.8186 54.517 18.4167 54.1983 18.0189 53.7079C17.2175 52.7197 16.4664 51.0759 16.4664 48.4144C16.4664 45.7818 17.0124 43.8613 17.5701 42.5882C17.8485 41.9525 18.129 41.4801 18.3439 41.1623C18.4513 41.0035 18.5422 40.8834 18.6083 40.8008C18.6414 40.7595 18.6682 40.7276 18.6878 40.705C18.6975 40.6937 18.7055 40.6847 18.7115 40.678L18.7191 40.6696L18.7217 40.6667L18.7232 40.6651C18.7234 40.6649 18.7236 40.6647 19.0914 41.0062C19.2766 40.5398 19.2765 40.5397 19.2766 40.5398L19.3153 40.5552C19.3406 40.5653 19.378 40.5802 19.4268 40.5997C19.5244 40.6388 19.6673 40.6962 19.8491 40.7698C20.2128 40.9168 20.7322 41.1283 21.3559 41.3865C22.6028 41.9026 24.2682 42.6058 25.939 43.3531C27.6075 44.0993 29.2914 44.8939 30.5711 45.5925C31.209 45.9407 31.7614 46.273 32.1643 46.57C32.3648 46.7177 32.5435 46.8678 32.6796 47.0171C32.8011 47.1502 32.9559 47.354 32.9816 47.6086C33.0133 47.9215 32.8469 48.1562 32.6454 48.2885C32.473 48.4017 32.2635 48.4533 32.0788 48.4812C31.6974 48.5387 31.1833 48.5271 30.613 48.4791C30.6012 48.4781 30.5894 48.4771 30.5776 48.476C31.5182 48.8153 32.3989 49.1616 33.1475 49.5018C33.8481 49.8202 34.4567 50.1438 34.8935 50.4632C35.1112 50.6225 35.3072 50.7956 35.4502 50.9838C35.5914 51.1696 35.7153 51.4166 35.6959 51.7054C35.6753 52.0115 35.5047 52.2374 35.2979 52.3837C35.1049 52.5202 34.8666 52.6004 34.6303 52.6516C34.1539 52.7548 33.5204 52.7736 32.815 52.7441C32.028 52.7112 31.1054 52.6155 30.1267 52.4823ZM20.449 50.0807L20.3313 50.5686L20.5664 49.5928L20.449 50.0807ZM20.4089 45.9525L20.2857 46.4391L20.5321 45.466L20.4089 45.9525Z" fill="#001A39"/>
<path fill-rule="evenodd" clip-rule="evenodd" d="M149.851 66.6505C154.547 76.8213 158.094 92.7368 159.28 99.4333L159.283 99.4511L159.288 99.4685C160.588 104.627 159.676 107.834 158.125 109.768C156.558 111.721 154.261 112.475 152.617 112.565C152.567 112.567 152.518 112.575 152.468 112.588C147.719 113.823 140.755 114.151 133.918 114.046C127.094 113.942 120.448 113.408 116.364 112.943C116.026 112.904 115.744 113.101 115.613 113.348C112.494 119.266 110.372 122.922 108.982 124.974C108.31 125.967 107.832 126.549 107.514 126.833C107.514 126.82 107.514 126.806 107.513 126.791C107.513 126.594 107.534 126.339 107.576 126.032C107.662 125.418 107.829 124.638 108.049 123.767C108.489 122.027 109.128 119.967 109.707 118.225C109.853 117.784 109.581 117.433 109.298 117.303C109.017 117.174 108.587 117.193 108.336 117.563C105.485 121.773 103.622 124.16 102.497 125.273C102.218 125.549 101.998 125.733 101.831 125.845C101.817 125.854 101.804 125.863 101.792 125.871C101.792 125.848 101.793 125.824 101.794 125.798C101.813 125.42 101.94 124.836 102.172 124.083C102.401 123.341 102.72 122.468 103.103 121.526C103.869 119.643 104.878 117.506 105.891 115.627C106.141 115.162 105.826 114.763 105.604 114.614C105.38 114.463 104.912 114.33 104.567 114.696C101.312 118.144 99.3149 119.947 98.2328 120.616C98.0435 120.734 97.9001 120.805 97.7964 120.844C97.8069 120.721 97.8396 120.552 97.9028 120.331C98.2079 119.267 99.0795 117.491 100.242 115.416C101.396 113.356 102.812 111.045 104.173 108.93C104.535 108.368 104.042 107.654 103.393 107.784C101.507 108.158 99.0815 108.604 97.5417 108.651C97.1585 108.663 96.855 108.649 96.6393 108.612C96.6025 108.605 96.571 108.599 96.5442 108.592C96.6518 108.454 96.8551 108.256 97.2005 107.992C100.577 105.411 107.101 102.121 109.745 101.023C111.09 100.86 114.156 100.419 116.155 99.8847C116.612 99.7625 117.842 99.5592 119.587 99.3071C121.317 99.0573 123.515 98.7645 125.88 98.4616C130.61 97.8559 135.997 97.2108 139.607 96.7907C140.107 96.7326 140.384 96.2255 140.221 95.7828L131.17 71.2569L130.229 71.6045L139.169 95.8312C135.563 96.2517 130.349 96.8773 125.753 97.4659C123.386 97.7691 121.181 98.0627 119.444 98.3136C117.722 98.5623 116.423 98.7739 115.896 98.9149C113.952 99.4346 110.91 99.8724 109.59 100.031C109.523 100.039 109.459 100.055 109.394 100.082C106.732 101.183 100.079 104.528 96.5909 107.194C96.1687 107.517 95.8525 107.815 95.6666 108.094C95.484 108.368 95.3399 108.778 95.608 109.153C95.819 109.448 96.1888 109.552 96.4668 109.601C96.78 109.655 97.1613 109.668 97.5727 109.655C99.0476 109.609 101.229 109.228 103.012 108.881C101.742 110.871 100.444 113.003 99.3666 114.925C98.2082 116.993 97.2794 118.863 96.9379 120.055C96.8518 120.355 96.7942 120.641 96.7891 120.891C96.7844 121.123 96.8225 121.44 97.059 121.668C97.3186 121.919 97.6571 121.917 97.9128 121.857C98.1713 121.798 98.4567 121.658 98.7612 121.47C99.8539 120.794 101.656 119.18 104.38 116.348C103.57 117.936 102.794 119.622 102.173 121.148C101.784 122.108 101.453 123.009 101.213 123.788C100.976 124.557 100.817 125.239 100.791 125.747C100.779 125.993 100.793 126.263 100.896 126.491C100.951 126.614 101.038 126.74 101.175 126.834C101.315 126.93 101.472 126.968 101.624 126.967C101.899 126.964 102.163 126.831 102.389 126.679C102.63 126.518 102.901 126.285 103.204 125.986C104.271 124.93 105.899 122.868 108.247 119.471C107.82 120.823 107.397 122.252 107.076 123.521C106.852 124.407 106.675 125.226 106.582 125.893C106.536 126.226 106.509 126.532 106.51 126.795C106.511 127.045 106.536 127.312 106.635 127.532C106.688 127.648 106.773 127.777 106.912 127.873C107.058 127.974 107.225 128.01 107.386 127.998C107.67 127.975 107.923 127.804 108.125 127.632C108.555 127.266 109.109 126.578 109.814 125.537C111.225 123.453 113.345 119.798 116.426 113.96C120.551 114.424 127.138 114.946 133.902 115.05C140.739 115.154 147.808 114.832 152.697 113.566C154.55 113.459 157.129 112.614 158.908 110.396C160.708 108.151 161.612 104.599 160.265 99.2406C159.073 92.5164 155.511 76.5141 150.763 66.2297L149.851 66.6505Z" fill="#001A39"/>
<path d="M35.0421 32.235L48.8395 24.2271C52.255 22.2446 53.417 17.8704 51.4344 14.4549C49.4519 11.0395 45.0777 9.87753 41.6622 11.8601L40.2318 12.6907L39.4187 11.2879C37.4362 7.87241 33.062 6.71049 29.6466 8.69302C26.2311 10.6756 25.0692 15.0497 27.0517 18.4652L35.0421 32.235Z" fill="#FBC73B"/>
<path d="M17.3598 31.4172L3.56235 23.4092C0.146858 21.4267 -1.01508 17.0526 0.967457 13.6371C2.95 10.2216 7.32414 9.05966 10.7396 11.0422L12.1701 11.8729L12.9831 10.47C14.9657 7.05454 19.3398 5.89261 22.7553 7.87515C26.1708 9.85769 27.3327 14.2318 25.3502 17.6473L17.3598 31.4172Z" fill="#FBC73B"/>
<path d="M25.5083 28.0569L36.7887 16.7765C39.5818 13.9834 39.5818 9.45864 36.7887 6.66552C33.9956 3.8724 29.4709 3.8724 26.6778 6.66552L25.5083 7.83497L24.3615 6.68811C21.5684 3.89499 17.0436 3.89499 14.2505 6.68811C11.4574 9.48123 11.4574 14.0059 14.2505 16.7991L25.5083 28.0569Z" fill="#F96155"/>
<path d="M111.213 18.4421C111.213 18.4421 98.4328 24.1242 95.6599 33.345C92.8871 42.5658 102.705 52.3082 102.705 52.3082L133.386 45.3725L111.213 18.4421Z" fill="#001A39"/>
<path d="M125.898 56.1068L131.843 32.5945C131.843 32.5945 140.214 30.316 139.999 24.6026C139.784 18.8892 133.729 20.1498 133.729 20.1498C133.729 20.1498 132.645 12.1623 124.753 9.90275C116.861 7.64325 110.541 15.9391 109.791 22.4373C108.685 32.0365 111.739 37.4275 121.611 37.2806L117.71 50.0713" fill="#FBC73B"/>
<path fill-rule="evenodd" clip-rule="evenodd" d="M111.19 27.0116L113.648 23.104L112.798 22.5695L110.34 26.4772L111.19 27.0116Z" fill="#001A39"/>
<path d="M127.535 49.6329C119.473 45.2359 130.296 18.1826 130.296 18.1826C120.649 21.3903 111.498 17.0939 111.498 17.0939C111.498 17.0939 116.792 4.16923 131.025 8.89798C145.257 13.6267 146.47 23.6171 146.47 23.6171C146.47 23.6171 161.245 30.6933 158.786 43.3239C156.326 55.9544 141.087 61.4496 141.087 61.4496C141.087 61.4496 133.941 53.1256 127.535 49.6329Z" fill="#001A39"/>
<path d="M111.694 21.8742C111.085 21.8817 110.582 21.1357 110.571 20.2078C110.559 19.28 111.044 18.5219 111.653 18.5145C112.262 18.507 112.765 19.253 112.776 20.1809C112.788 21.1087 112.303 21.8668 111.694 21.8742Z" fill="#001A39"/>
<path d="M116.087 22.9329C115.478 22.9403 114.975 22.1939 114.964 21.266C114.952 20.3382 115.437 19.5801 116.046 19.5727C116.655 19.5652 117.158 20.3112 117.169 21.2391C117.18 22.1669 116.696 22.9254 116.087 22.9329Z" fill="#001A39"/>
</svg>
