<svg width="111" height="168" viewBox="0 0 111 168" fill="none" xmlns="http://www.w3.org/2000/svg">
<path d="M90.0552 122.795L111 126.084L101.519 158.344L100.485 131.057L85.2334 128.657" fill="#FBC73B"/>
<path d="M41.7199 135.724L53.4121 148.921L25.7565 168L42.1166 146.152L34.2878 137.235" fill="#FBC73B"/>
<path d="M94.6825 122.24C94.6825 122.24 98.8369 125.718 96.7625 133.271C94.8067 140.394 88.9467 141.569 88.9467 141.569L56.4729 134.66C53.073 133.789 50.3126 131.311 49.0779 128.022L39.8069 103.317L24.9075 111.895L43.2977 134.777C43.2977 134.777 44.4804 140.091 38.7465 144.437C33.7949 148.19 27.6457 147.06 27.6457 147.06L4.23533 120.749C-1.7841 113.983 -1.07408 103.584 5.80924 97.7038C17.7851 87.474 25.0966 81.5785 34.5271 77.1254C42.7174 73.2588 54.4078 75.3007 60.8832 81.8551C66.2983 87.3385 67.9501 93.6757 68.7139 116.532" fill="#F96155"/>
<path fill-rule="evenodd" clip-rule="evenodd" d="M36.4613 92.2346L42.6346 112.451L41.9255 112.668L35.7521 92.4517L36.4613 92.2346Z" fill="white"/>
<path d="M82.3172 140.03C81.7128 136.575 83.2219 132.768 86.3456 131.023C87.9455 130.129 89.8271 129.902 91.5215 130.674C93.266 131.471 94.8232 132.794 96.1951 134.114C96.4509 134.361 96.8421 133.971 96.5844 133.724C95.0698 132.265 93.279 130.73 91.2861 129.984C89.5565 129.336 87.6526 129.663 86.0657 130.546C82.7121 132.414 81.1381 136.486 81.7833 140.178C81.8463 140.527 82.3784 140.379 82.3172 140.03Z" fill="#FBC73B"/>
<path d="M85.8043 120.202C83.0755 125.748 78.5391 131.473 71.6928 131.012C68.3392 130.786 65.6567 128.713 64.4462 125.59C63.0966 122.11 63.6713 118.305 64.4814 114.77C65.4231 110.666 66.6708 106.623 68.228 102.71C68.3596 102.38 67.8257 102.237 67.696 102.563C66.1387 106.476 64.8911 110.519 63.9493 114.624C63.1058 118.303 62.5293 122.264 63.966 125.874C65.1136 128.757 67.4791 130.879 70.562 131.428C73.5319 131.955 76.6945 131.161 79.1824 129.485C82.4192 127.304 84.5863 123.927 86.2808 120.482C86.4383 120.163 85.9619 119.882 85.8043 120.202Z" fill="#FBC73B"/>
<path d="M49.4431 128.642C51.5639 126.78 54.3669 125.937 57.0977 125.457C60.1546 124.918 63.3803 124.675 66.4169 125.46C68.9567 126.117 71.3871 127.534 72.8942 129.726C74.6461 132.273 74.8797 135.668 75.0132 138.662C75.0299 139.016 75.5805 139.018 75.5656 138.662C75.4285 135.564 75.1689 132.085 73.3707 129.446C71.8468 127.209 69.409 125.718 66.834 124.998C63.6195 124.098 60.1973 124.348 56.9493 124.92C54.1185 125.419 51.2488 126.32 49.052 128.248C48.785 128.486 49.1762 128.876 49.4431 128.642Z" fill="#FBC73B"/>
<path d="M41.4843 107.655C44.1261 105.847 47.0885 104.568 50.2308 103.948C52.4869 103.503 57.6573 102.725 57.4848 106.439C57.4125 107.995 56.6358 109.597 55.9109 110.943C55.1694 112.318 54.2647 113.601 53.2933 114.822C51.2912 117.334 49.0221 119.632 46.5954 121.731C46.3266 121.965 46.7177 122.353 46.9847 122.121C51.0613 118.588 55.3585 114.28 57.3421 109.155C58.0818 107.247 58.6361 104.726 56.4486 103.571C54.4816 102.534 51.8306 103.042 49.7692 103.479C46.6992 104.128 43.7924 105.405 41.2044 107.176C40.9152 107.379 41.1896 107.857 41.4843 107.655Z" fill="#FBC73B"/>
<path d="M66.6447 94.6669C63.9974 96.2503 61.4557 97.7 58.2801 97.7167C55.1879 97.7315 52.1272 96.5547 50.2344 94.032C48.4436 91.643 47.7725 88.6043 47.1589 85.7401C46.4192 82.2875 45.7796 78.7495 45.5776 75.2189C45.5572 74.8662 45.0047 74.8625 45.0251 75.2189C45.1938 78.1518 45.6832 81.0884 46.2375 83.9711C46.7325 86.5439 47.2405 89.1835 48.2564 91.6115C49.1425 93.7294 50.5014 95.6265 52.5072 96.8053C54.5316 97.9933 56.9639 98.4239 59.2868 98.2253C62.1584 97.9803 64.5053 96.5955 66.9246 95.1476C67.2286 94.962 66.9505 94.485 66.6447 94.6669Z" fill="#FBC73B"/>
<path d="M56.2521 78.4174C54.4378 83.9695 50.1902 86.7316 46.4501 87.6393C42.3531 88.6324 37.7522 88.211 34.1058 84.8754C33.9089 84.6953 33.731 85.1723 33.9279 85.3524C36.8403 88.018 40.3052 88.7902 43.635 88.5971C47.0241 88.4004 50.3823 87.1789 53.2508 84.2553C54.6358 82.8427 55.8003 81.0125 56.5569 78.6977C56.66 78.3803 56.3553 78.1019 56.2521 78.4174Z" fill="#FBC73B"/>
<path d="M13.968 91.114C16.5541 92.6436 19.0457 94.5945 19.6389 97.7204C20.1636 100.488 19.131 103.391 17.4291 105.563C13.4656 110.627 6.2208 111.403 0.266259 111.715C-0.0878254 111.733 -0.0896792 112.286 0.266259 112.268C5.55713 111.989 11.3355 111.369 15.6884 108.049C19.1069 105.441 21.4038 100.581 19.8243 96.3375C18.8418 93.6998 16.5801 92.018 14.2442 90.637C13.9402 90.4569 13.6621 90.934 13.968 91.114Z" fill="#FBC73B"/>
<path d="M37.8233 127.61C33.73 126.86 29.1918 127.097 25.7547 129.694C22.3492 132.267 21.033 136.455 21.769 140.585C21.832 140.934 22.3641 140.785 22.301 140.438C21.5799 136.394 22.9832 132.286 26.4091 129.9C29.6756 127.626 33.8838 127.448 37.6787 128.144C38.0253 128.206 38.1736 127.673 37.8233 127.61Z" fill="#FBC73B"/>
<path d="M11.5391 129.141C16.9728 128.337 23.2146 129.05 28.1088 131.662C30.4187 132.894 32.4394 134.637 33.8464 136.861C35.5204 139.505 36.249 142.591 36.6661 145.658C36.7143 146.009 37.2464 145.858 37.1982 145.511C36.7625 142.307 35.9728 139.076 34.1708 136.347C32.723 134.155 30.6967 132.417 28.3887 131.187C23.3555 128.503 16.9765 127.784 11.3927 128.61C11.0423 128.66 11.1906 129.193 11.5391 129.141Z" fill="#FBC73B"/>
<path d="M34.9757 106.098C32.4119 102.558 28.4076 100.458 24.2068 99.5285C20.2859 98.6616 15.7032 98.5187 12.0326 100.38C8.23962 102.304 6.84737 106.449 8.10242 110.428C9.49466 114.848 13.4582 117.581 17.4106 119.556C22.5884 122.143 28.3909 124.488 34.2898 123.888C34.6402 123.853 34.6439 123.3 34.2898 123.335C29.4031 123.832 24.635 122.251 20.2303 120.278C16.365 118.546 12.1104 116.48 9.78202 112.76C7.52774 109.155 7.46471 104.138 11.2132 101.511C14.4759 99.2259 19.0308 99.1925 22.8108 99.8217C27.3045 100.568 31.7667 102.606 34.4974 106.378C34.7051 106.662 35.1834 106.387 34.9757 106.098Z" fill="#FBC73B"/>
<path fill-rule="evenodd" clip-rule="evenodd" d="M98.261 137.938L103.328 133.446L103.819 134.002L98.7526 138.494L98.261 137.938Z" fill="white"/>
<path fill-rule="evenodd" clip-rule="evenodd" d="M98.1254 141.428L103.192 136.936L103.684 137.492L98.617 141.984L98.1254 141.428Z" fill="white"/>
<path fill-rule="evenodd" clip-rule="evenodd" d="M97.7717 145.163L102.838 140.673L103.33 141.229L98.2632 145.719L97.7717 145.163Z" fill="white"/>
<path fill-rule="evenodd" clip-rule="evenodd" d="M36.6526 150.036L43.4062 149.616L43.4521 150.357L36.6986 150.777L36.6526 150.036Z" fill="white"/>
<path fill-rule="evenodd" clip-rule="evenodd" d="M34.4021 152.705L41.1556 152.286L41.2015 153.027L34.448 153.446L34.4021 152.705Z" fill="white"/>
<path fill-rule="evenodd" clip-rule="evenodd" d="M31.8273 155.43L38.5808 155.013L38.6265 155.754L31.873 156.171L31.8273 155.43Z" fill="white"/>
<path fill-rule="evenodd" clip-rule="evenodd" d="M76.6267 65.3091L58.6426 57.7337L58.9301 57.0493L76.9142 64.6247L76.6267 65.3091Z" fill="#001A39"/>
<path fill-rule="evenodd" clip-rule="evenodd" d="M61.9632 71.1417C61.9647 71.1401 61.9662 71.1384 61.9678 71.1367C62.0357 71.0633 62.1493 70.9642 62.314 70.8403C62.6407 70.5947 63.1204 70.2869 63.7111 69.9368C64.8895 69.2385 66.4717 68.394 68.0623 67.5763C69.6514 66.7594 71.2431 65.9723 72.4379 65.3892C73.0353 65.0977 73.5331 64.8573 73.8816 64.6898C74.0558 64.606 74.1927 64.5405 74.286 64.496C74.3326 64.4737 74.3683 64.4567 74.3924 64.4452L74.4285 64.428C74.4286 64.428 74.4286 64.428 74.2697 64.0925C74.1108 63.7571 74.1107 63.7572 74.1106 63.7572L74.0738 63.7747C74.0495 63.7863 74.0136 63.8034 73.9667 63.8258C73.8729 63.8706 73.7355 63.9364 73.5607 64.0204C73.2111 64.1884 72.7119 64.4295 72.1131 64.7217C70.9156 65.3061 69.3189 66.0957 67.7236 66.9158C66.1297 67.7352 64.5315 68.5878 63.3334 69.2979C62.7358 69.652 62.2283 69.9762 61.8687 70.2467C61.6902 70.3809 61.536 70.5109 61.4238 70.6322C61.3678 70.6926 61.3129 70.7609 61.2712 70.8353C61.2318 70.9054 61.1849 71.0147 61.1935 71.1464C61.2031 71.2932 61.2644 71.4229 61.3271 71.5238C61.3925 71.629 61.4784 71.733 61.5737 71.8332C61.7645 72.0339 62.0233 72.251 62.3179 72.4719C62.9092 72.9153 63.6861 73.4042 64.461 73.8478C65.2366 74.2919 66.021 74.6968 66.6309 74.9708C66.9339 75.1069 67.2043 75.2154 67.4131 75.2792C67.5149 75.3103 67.6203 75.3365 67.7154 75.345C67.7621 75.3491 67.8265 75.351 67.8951 75.3365C67.9613 75.3225 68.0785 75.2827 68.1611 75.1644L68.1613 75.1641C68.5232 74.6449 68.4354 74.0561 68.2039 73.5525C67.9732 73.0507 67.5706 72.559 67.1599 72.138C66.7448 71.7125 66.2996 71.3373 65.9605 71.0697C65.7904 70.9355 65.6457 70.8274 65.5431 70.7526C65.4917 70.7151 65.4509 70.6859 65.4225 70.6659C65.4084 70.6559 65.3973 70.6482 65.3897 70.6428L65.3808 70.6367L65.3783 70.6349L65.3773 70.6343C65.3772 70.6342 65.3771 70.6341 65.1673 70.9403C64.9576 71.2464 64.9575 71.2463 64.9575 71.2463L64.9593 71.2476L64.9662 71.2524C64.9726 71.2568 64.9822 71.2635 64.995 71.2726C65.0205 71.2906 65.0583 71.3176 65.1064 71.3527C65.2027 71.4229 65.3398 71.5254 65.5016 71.6529C65.8261 71.909 66.2446 72.2623 66.6294 72.6568C67.0187 73.0558 67.3522 73.4756 67.5303 73.863C67.6642 74.1543 67.6933 74.3844 67.6358 74.5709C67.6337 74.5703 67.6316 74.5697 67.6295 74.569C67.4649 74.5187 67.2275 74.425 66.9344 74.2933C66.3518 74.0316 65.5894 73.6386 64.8291 73.2033C64.068 72.7675 63.3199 72.2956 62.7623 71.8775C62.4825 71.6677 62.2607 71.479 62.1108 71.3213C62.041 71.2479 61.9932 71.1879 61.9632 71.1417ZM61.9175 71.1992C61.9176 71.199 61.9177 71.1988 61.9179 71.1986C61.9167 71.201 61.9164 71.2012 61.9175 71.1992Z" fill="#001A39"/>
<path fill-rule="evenodd" clip-rule="evenodd" d="M64.4023 47.5768C63.7914 47.3535 63.3803 47.2032 63.2526 47.1468L63.552 46.4675C63.6553 46.5132 64.0371 46.6528 64.6599 46.8805C64.7682 46.9201 64.8838 46.9624 65.0064 47.0073C65.8225 47.306 66.9299 47.7133 68.2289 48.2073C70.8262 49.195 74.1922 50.53 77.5319 52.0373C80.8685 53.5431 84.1931 55.2271 86.7008 56.9146C87.9539 57.7579 89.0173 58.6114 89.7774 59.4545C90.5313 60.2905 91.0275 61.161 91.0559 62.035C91.0835 62.8868 90.7399 63.7495 90.1732 64.5892C89.6048 65.4314 88.7918 66.2805 87.8287 67.1147C85.9021 68.7835 83.3271 70.4334 80.7627 71.8878C78.1952 73.3439 75.6235 74.6123 73.6949 75.5162C72.7303 75.9683 71.9257 76.3296 71.362 76.5781C71.0801 76.7023 70.8584 76.7983 70.707 76.8633C70.6886 76.8712 70.6713 76.8787 70.655 76.8856C70.649 76.9149 70.6424 76.9473 70.6352 76.9826C70.5976 77.1665 70.5431 77.429 70.4758 77.744C70.3413 78.3736 70.1549 79.2143 69.9481 80.056C69.7419 80.8953 69.5132 81.7449 69.2935 82.3883C69.1844 82.7078 69.0725 82.9917 68.9607 83.2013C68.9056 83.3046 68.8414 83.4077 68.766 83.4899C68.7012 83.5607 68.5653 83.6853 68.365 83.6853C68.1504 83.6853 68.0162 83.546 67.9529 83.4593C67.8853 83.3668 67.838 83.2553 67.8025 83.1511C67.7299 82.938 67.6735 82.6537 67.6276 82.339C67.5875 82.0639 67.5534 81.7511 67.5244 81.4178C67.4027 82.0749 67.2589 82.7024 67.0904 83.2117C66.9717 83.5708 66.8325 83.8974 66.6644 84.1368C66.5057 84.3629 66.245 84.6138 65.8766 84.5742C65.5066 84.5345 65.3022 84.2269 65.1915 83.9716C65.0724 83.697 64.9963 83.3397 64.9459 82.9516C64.8443 82.1689 64.8349 81.1546 64.8647 80.1635C64.8695 80.0044 64.8753 79.8454 64.8819 79.6875C64.7241 80.1388 64.5577 80.5701 64.392 80.9259C64.2711 81.1857 64.1428 81.4222 64.0096 81.5994C63.9431 81.6878 63.8655 81.7748 63.7757 81.8426C63.6871 81.9094 63.5598 81.9776 63.4023 81.9776C63.145 81.9776 63.0075 81.7864 62.9518 81.6808C62.8911 81.5656 62.8556 81.4265 62.8319 81.2934C62.783 81.02 62.7637 80.65 62.7619 80.2322C62.7584 79.3901 62.8268 78.2764 62.9183 77.1735C63.01 76.0681 63.1257 74.9638 63.2184 74.1364C63.2648 73.7226 63.3054 73.3776 63.3345 73.136C63.349 73.0152 63.3607 72.9203 63.3687 72.8554C63.3727 72.823 63.3758 72.7981 63.3779 72.7812L63.3811 72.7556C63.3811 72.7555 63.3811 72.7555 63.749 72.8021C64.1168 72.8488 64.1168 72.8488 64.1168 72.8489L64.1137 72.8736C64.1116 72.89 64.1086 72.9146 64.1046 72.9466C64.0967 73.0107 64.0851 73.1049 64.0707 73.2249C64.0418 73.4648 64.0014 73.8076 63.9553 74.2192C63.8631 75.0426 63.7482 76.1393 63.6573 77.235C63.5662 78.3332 63.5 79.4205 63.5034 80.2291C63.5047 80.5268 63.5154 80.7766 63.5356 80.9708C63.593 80.8721 63.6547 80.7522 63.72 80.6121C63.944 80.131 64.1784 79.4786 64.393 78.8128C64.6068 78.1499 64.7972 77.4856 64.9343 76.9862C65.0029 76.7368 65.0579 76.529 65.0959 76.3837C65.1148 76.3111 65.1295 76.2542 65.1393 76.2155C65.1419 76.2054 65.1442 76.1966 65.1461 76.1891C65.1479 76.1821 65.1493 76.1762 65.1505 76.1715L65.154 76.1577L65.1542 76.1571L65.5138 76.2473C65.8823 76.2888 65.8823 76.2888 65.8823 76.2888L65.8817 76.2939L65.8799 76.3102C65.8783 76.3247 65.876 76.3463 65.873 76.3746C65.8669 76.4312 65.8582 76.5145 65.8476 76.6207C65.8262 76.8332 65.7972 77.1373 65.7662 77.5028C65.7043 78.2343 65.6353 79.2089 65.6059 80.1859C65.5764 81.1671 65.5875 82.1336 65.6813 82.8559C65.7286 83.2202 65.7939 83.4964 65.8717 83.6758C65.9088 83.7615 65.9389 83.8041 65.9571 83.8243C65.9773 83.809 66.011 83.7765 66.0578 83.7098C66.1636 83.5592 66.2756 83.3137 66.3865 82.9784C66.6061 82.3141 66.7886 81.4001 66.9341 80.4621C67.0789 79.5285 67.1843 78.5887 67.2536 77.881C67.2882 77.5276 67.3138 77.2327 67.3306 77.0265C67.3391 76.9234 67.3453 76.8425 67.3495 76.7875C67.3515 76.76 67.3531 76.739 67.3541 76.725L67.3552 76.7092L67.3556 76.7042C67.3556 76.7042 67.3556 76.7042 67.5112 76.715L67.3556 76.7042L68.0962 76.7301L67.7254 76.73C68.0962 76.7301 68.0962 76.7301 68.0962 76.7301L68.0962 76.7484L68.0963 76.8028C68.0965 76.8506 68.0968 76.9209 68.0974 77.0104C68.0986 77.1895 68.101 77.4455 68.1059 77.7528C68.1157 78.3678 68.1354 79.1865 68.175 80.0041C68.2148 80.8243 68.274 81.6328 68.3614 82.2317C68.3814 82.3691 68.4024 82.4916 68.424 82.5981C68.4768 82.4713 68.533 82.3205 68.5919 82.1481C68.8007 81.5365 69.0232 80.7126 69.2281 79.8786C69.4324 79.0468 69.617 78.2141 69.7507 77.5886C69.8175 77.2761 69.8715 77.0157 69.9087 76.8336C69.9274 76.7425 69.9418 76.671 69.9516 76.6224L69.9627 76.567L69.9663 76.5486L69.9664 76.5484C69.9664 76.5483 69.9664 76.5483 70.3301 76.6204C70.1868 76.2781 70.1868 76.278 70.1869 76.278L70.1902 76.2766L70.201 76.2721C70.2088 76.2688 70.2199 76.2641 70.234 76.2581L70.2443 76.2537C70.2827 76.2374 70.3399 76.213 70.4147 76.181C70.5641 76.1168 70.7837 76.0217 71.0633 75.8985C71.6225 75.652 72.4218 75.2931 73.3805 74.8437C75.2987 73.9447 77.8519 72.6852 80.3973 71.2417C82.9458 69.7963 85.4716 68.1747 87.3436 66.5532C88.2797 65.7423 89.0404 64.9416 89.5588 64.1735C90.0789 63.4028 90.3353 62.6946 90.3147 62.0591C90.2948 61.4452 89.9364 60.7387 89.2271 59.9521C88.5241 59.1725 87.5159 58.3578 86.2872 57.5309C83.8313 55.8782 80.5513 54.2143 77.2272 52.7142C73.9064 51.2155 70.5557 49.8864 67.9656 48.9014C66.6708 48.4091 65.5668 48.0029 64.7518 47.7047C64.6292 47.6598 64.5125 47.6171 64.4023 47.5768ZM70.3301 76.6204L70.1869 76.278L69.9664 76.5484L70.3301 76.6204ZM68.2134 82.9941C68.2133 82.9939 68.215 82.9922 68.2182 82.9895C68.215 82.9929 68.2134 82.9942 68.2134 82.9941ZM65.9345 83.8374C65.9345 83.8372 65.9357 83.8367 65.9381 83.8362C65.9357 83.8373 65.9345 83.8375 65.9345 83.8374ZM65.5138 76.2473L65.8823 76.2888L65.1542 76.1571L65.5138 76.2473Z" fill="#001A39"/>
<path d="M64.4759 44.9213C66.0647 54.9042 59.2703 64.2838 49.3004 65.8746C39.3304 67.4654 29.9629 60.6623 28.3742 50.6794" fill="#FBC73B"/>
<path d="M33.4998 32.1169C33.3904 37.1567 37.3818 41.3314 42.415 41.439C46.8642 41.5356 50.6386 38.4226 51.5284 34.2182C51.6452 33.6669 51.712 33.097 51.725 32.5123C51.8343 27.4726 47.843 23.2979 42.8098 23.1902C40.1904 23.1327 37.8082 24.187 36.1063 25.9226C34.538 27.5209 33.5517 29.7001 33.4998 32.1169Z" fill="#617FA8"/>
<path d="M36.1065 25.9208C38.4479 30.8064 43.3847 34.2275 49.1668 34.3537C49.9695 34.3704 50.7593 34.324 51.5305 34.2182C51.6473 33.6669 51.714 33.097 51.727 32.5123C51.8364 27.4726 47.8451 23.2979 42.8119 23.1902C40.1905 23.1327 37.8065 24.1852 36.1065 25.9208Z" fill="#001A39"/>
<path d="M51.0465 26.4962C52.9652 26.4962 54.5206 24.9387 54.5206 23.0176C54.5206 21.0964 52.9652 19.5389 51.0465 19.5389C49.1278 19.5389 47.5724 21.0964 47.5724 23.0176C47.5724 24.9387 49.1278 26.4962 51.0465 26.4962Z" fill="#001A39"/>
<path d="M49.6953 19.8025C55.1565 19.8025 59.5837 15.3695 59.5837 9.90124C59.5837 4.43293 55.1565 0 49.6953 0C44.2341 0 39.8069 4.43293 39.8069 9.90124C39.8069 15.3695 44.2341 19.8025 49.6953 19.8025Z" fill="#001A39"/>
<path d="M36.0999 32.0081C36.1236 30.9103 35.7362 30.0116 35.2346 30.0008C34.733 29.9899 34.3072 30.871 34.2835 31.9688C34.2598 33.0665 34.6472 33.9652 35.1488 33.9761C35.6504 33.9869 36.0762 33.1058 36.0999 32.0081Z" fill="#001A39"/>
<path d="M39.1126 32.2111C39.1363 31.1133 38.7489 30.2146 38.2473 30.2038C37.7457 30.1929 37.3199 31.074 37.2962 32.1718C37.2725 33.2695 37.6599 34.1682 38.1615 34.1791C38.6631 34.1899 39.0889 33.3088 39.1126 32.2111Z" fill="#001A39"/>
<path fill-rule="evenodd" clip-rule="evenodd" d="M35.1924 36.383C35.1922 36.383 35.1921 36.3831 35.1128 36.0204C35.0335 35.6577 35.0333 35.6578 35.0332 35.6578L35.0329 35.6579L35.0326 35.6579C35.0337 35.6577 35.0361 35.6571 35.0398 35.6562C35.0471 35.6544 35.0593 35.6512 35.0756 35.6465C35.1085 35.6371 35.1576 35.6218 35.2173 35.5994C35.3379 35.5541 35.4953 35.4823 35.6483 35.3762C35.9486 35.168 36.2151 34.8455 36.1938 34.3145L36.9348 34.2848C36.9692 35.1441 36.5099 35.682 36.0705 35.9866C35.8537 36.1369 35.6377 36.2346 35.4775 36.2947C35.3968 36.325 35.3286 36.3464 35.2792 36.3605C35.2545 36.3675 35.2344 36.3728 35.2196 36.3765C35.2122 36.3784 35.2062 36.3798 35.2016 36.3809L35.1957 36.3822L35.1936 36.3827L35.1928 36.3829L35.1924 36.383ZM35.0326 35.6579L35.0325 35.658L35.032 35.6581C35.0319 35.6581 35.0321 35.658 35.0326 35.6579Z" fill="#001A39"/>
<path fill-rule="evenodd" clip-rule="evenodd" d="M16.4415 47.4037C16.5522 47.3221 16.7712 47.1956 17.0194 47.2924L17.0196 47.2925C17.2328 47.3757 17.3281 47.5632 17.3701 47.703C17.413 47.8461 17.4237 48.0103 17.4204 48.1724C17.4136 48.5008 17.3457 48.9251 17.2431 49.3961C17.0787 50.1509 16.8136 51.0765 16.5146 52.0249C16.882 51.356 17.2458 50.7297 17.5715 50.23C17.8122 49.8607 18.0428 49.5439 18.2468 49.3296C18.3467 49.2247 18.4593 49.1236 18.5804 49.0582C18.6961 48.9958 18.906 48.923 19.1176 49.0443C19.3146 49.1572 19.3728 49.3673 19.395 49.4815C19.4217 49.6185 19.4257 49.7791 19.4185 49.9453C19.404 50.2815 19.3396 50.7199 19.2451 51.2138C19.0551 52.2059 18.7318 53.4798 18.3873 54.7311C18.0423 55.9844 17.6739 57.2233 17.392 58.1483C17.3455 58.3006 17.3014 58.4445 17.2601 58.5786C17.6383 58.2945 18.0951 57.9541 18.5561 57.6172C19.1164 57.2077 19.6869 56.8005 20.1307 56.5058C20.3513 56.3593 20.5483 56.2353 20.7002 56.1525C20.7741 56.1122 20.8512 56.0739 20.9216 56.049C20.955 56.0372 21.0064 56.0212 21.0654 56.0161C21.1075 56.0125 21.2579 56.0041 21.3832 56.1245C21.6397 56.371 21.7413 56.7 21.7563 57.0339C21.7712 57.3643 21.7037 57.7277 21.5932 58.0942C21.3718 58.8281 20.9508 59.66 20.5008 60.4298C20.0482 61.204 19.5547 61.9352 19.1753 62.4714C18.9854 62.7399 18.8235 62.9604 18.7089 63.1141C18.7024 63.1229 18.696 63.1314 18.6898 63.1397L25.9625 73.752L29.192 54.1675L29.9236 54.2885L26.544 74.7834L25.8725 74.9329L17.9269 63.3388L17.9399 62.901L17.9425 62.8976L17.951 62.8866C17.9586 62.8766 17.9701 62.8617 17.985 62.842C18.015 62.8027 18.059 62.7445 18.1148 62.6698C18.2263 62.5204 18.3844 62.3049 18.5702 62.0423C18.9423 61.5161 19.4228 60.804 19.8608 60.0547C20.3014 59.301 20.6874 58.5291 20.8833 57.8795C20.9814 57.5543 21.0251 57.281 21.0155 57.0674C21.0116 56.9795 20.999 56.9069 20.98 56.8468C20.8646 56.914 20.716 57.008 20.5406 57.1245C20.1111 57.4098 19.5515 57.809 18.9932 58.217C18.436 58.6242 17.8841 59.0372 17.4712 59.3486C17.2648 59.5043 17.0933 59.6344 16.9735 59.7256C16.9136 59.7712 16.8666 59.8071 16.8346 59.8315L16.7865 59.8683L16.786 59.8687C16.786 59.8687 16.7858 59.8689 16.5605 59.574C16.2074 59.4608 16.2074 59.4607 16.2074 59.4607L16.2162 59.4332C16.2196 59.4225 16.224 59.4088 16.2292 59.3921C16.233 59.3802 16.2373 59.3667 16.242 59.3519C16.2646 59.2805 16.2977 59.1757 16.3396 59.042C16.4234 58.7746 16.5424 58.3921 16.6827 57.9315C16.9636 57.0102 17.3299 55.7783 17.6724 54.5338C18.0156 53.2873 18.3326 52.0363 18.5168 51.074C18.6039 50.6192 18.6588 50.2417 18.675 49.9644C18.5384 50.1281 18.3757 50.3548 18.1924 50.6359C17.7271 51.3498 17.1707 52.3498 16.6325 53.3737C16.0956 54.3952 15.5817 55.4312 15.2017 56.2123C15.0118 56.6028 14.8555 56.9292 14.7468 57.1579C14.6924 57.2723 14.6499 57.3622 14.6211 57.4234C14.6066 57.454 14.5956 57.4775 14.5882 57.4932L14.5773 57.5165L14.5772 57.5168C14.5771 57.5168 14.5771 57.5169 14.2413 57.3595C13.8956 57.2255 13.8956 57.2254 13.8956 57.2254L13.9057 57.1992C13.9124 57.1817 13.9224 57.1557 13.9355 57.1216C13.9615 57.0535 13.9997 56.9535 14.0479 56.8259C14.1445 56.5706 14.2814 56.2054 14.4427 55.7658C14.7655 54.8863 15.1852 53.711 15.5745 52.525C15.9646 51.3364 16.3204 50.1478 16.5186 49.2379C16.6111 48.8135 16.6654 48.4666 16.677 48.2152C16.6697 48.2243 16.6622 48.2338 16.6545 48.2436C16.4518 48.5027 16.2002 48.9066 15.9144 49.4224C15.3456 50.4491 14.673 51.8606 14.0268 53.2931C13.3815 54.7235 12.766 56.1666 12.3117 57.2526C12.0846 57.7955 11.8979 58.2488 11.768 58.5664C11.7031 58.7251 11.6524 58.8499 11.6179 58.9349C11.6007 58.9774 11.5875 59.01 11.5787 59.0319L11.5654 59.0648C11.5654 59.0648 11.5654 59.0649 11.2214 58.9262C10.8585 58.8504 10.8585 58.8504 10.8585 58.8503L10.863 58.8284C10.866 58.8138 10.8705 58.792 10.8764 58.7635C10.8881 58.7065 10.9052 58.6227 10.9267 58.5158C10.9698 58.3021 11.0306 57.9965 11.1014 57.6289C11.243 56.8934 11.4243 55.9117 11.5836 54.9242C11.7434 53.9343 11.8795 52.9483 11.9327 52.2005C11.9492 51.9681 11.9572 51.7652 11.9564 51.596C11.8262 51.8063 11.6748 52.0857 11.5089 52.4241C11.0809 53.2972 10.579 54.5151 10.1223 55.8214C9.66553 57.1279 9.25798 58.5116 9.01488 59.7166C8.89331 60.3193 8.81431 60.8702 8.78942 61.3405C8.7642 61.8169 8.79631 62.1823 8.8766 62.429C9.13657 63.2278 10.8166 66.9323 13.1972 71.4151C15.5731 75.8891 18.6237 81.0944 21.6096 84.8961L21.0268 85.3551C17.9997 81.501 14.9247 76.2495 12.5424 71.7636C10.1649 67.2865 8.45436 63.528 8.17155 62.659C8.04977 62.2848 8.02182 61.8132 8.04892 61.3012C8.07636 60.7829 8.16209 60.1939 8.28803 59.5696C8.53996 58.3207 8.9586 56.9027 9.42237 55.5761C9.88617 54.2494 10.3991 53.003 10.8433 52.0969C11.0643 51.646 11.2742 51.2673 11.4577 51.0033C11.5479 50.8735 11.6437 50.7538 11.7429 50.6668C11.7924 50.6233 11.8569 50.5753 11.9351 50.5427C12.0151 50.5092 12.1319 50.4831 12.2611 50.5228L12.262 50.5231C12.4727 50.5884 12.5648 50.7699 12.6035 50.871C12.6476 50.986 12.6701 51.1196 12.6826 51.2506C12.708 51.5168 12.7 51.8652 12.6723 52.2533C12.6167 53.0351 12.4763 54.0475 12.3157 55.0426C12.2894 55.2057 12.2625 55.3686 12.2352 55.5302C12.5764 54.7335 12.958 53.8584 13.351 52.9874C13.9992 51.5506 14.6818 50.1165 15.266 49.0622C15.5567 48.5375 15.831 48.0921 16.0708 47.7857C16.1889 47.6347 16.3135 47.4979 16.4415 47.4037ZM11.9099 51.1336C11.9081 51.1303 11.9073 51.1284 11.9074 51.1283C11.9074 51.1281 11.9083 51.1298 11.9099 51.1336ZM11.2214 58.9262L10.8585 58.8503L11.5654 59.0648L11.2214 58.9262ZM16.9058 47.9859C16.9057 47.9861 16.9033 47.9876 16.8988 47.9895C16.9036 47.9866 16.9058 47.9856 16.9058 47.9859ZM14.2413 57.3595L13.8956 57.2254L14.5772 57.5168L14.2413 57.3595ZM18.6589 49.5926C18.6591 49.5923 18.6602 49.5948 18.6619 49.6007C18.6597 49.5958 18.6588 49.5928 18.6589 49.5926ZM16.5605 59.574L16.2074 59.4607L16.7858 59.8689L16.5605 59.574ZM21.1707 56.7484C21.1706 56.7484 21.1699 56.7487 21.1687 56.7491C21.1701 56.7485 21.1708 56.7484 21.1707 56.7484ZM39.5828 67.8162C39.1562 70.0615 38.4881 73.0961 37.5869 76.2256L36.8744 76.0199C37.7678 72.9172 38.4309 69.9057 38.8543 67.6774C39.066 66.5632 39.2174 65.6472 39.3076 65.0154C39.3528 64.6986 39.382 64.4576 39.3959 64.3004C39.4031 64.2195 39.4053 64.1712 39.4051 64.1486C39.405 64.1318 39.4036 64.1494 39.4104 64.1801L39.4105 64.1809C39.4127 64.1911 39.4263 64.2548 39.477 64.3194C39.5076 64.3583 39.566 64.4158 39.6598 64.4438C39.7593 64.4736 39.8502 64.4561 39.9142 64.4275L39.6122 63.7494C39.6782 63.7199 39.771 63.7021 39.8723 63.7325C39.9678 63.7611 40.028 63.8198 40.0601 63.8606C40.1148 63.9303 40.1305 64.0018 40.1343 64.0195L40.1345 64.0202C40.1455 64.07 40.1464 64.118 40.1466 64.1425C40.1471 64.2025 40.1422 64.2801 40.1345 64.3661C40.1189 64.5426 40.0876 64.7986 40.0416 65.1205C39.9495 65.7659 39.7961 66.6935 39.5828 67.8162Z" fill="#001A39"/>
<path fill-rule="evenodd" clip-rule="evenodd" d="M35.8074 81.2531C34.6697 84.0196 33.0521 87.3628 31.156 89.5461C30.3458 90.4791 29.3899 90.8725 28.3857 90.8623C27.4001 90.8523 26.4028 90.4543 25.4779 89.8775C23.6295 88.7246 21.9481 86.7803 21.0169 85.3263L21.6411 84.9255C22.5328 86.3178 24.1419 88.1695 25.87 89.2472C26.7333 89.7857 27.5956 90.1117 28.3933 90.1198C29.1725 90.1278 29.9236 89.8337 30.5965 89.0589C32.4081 86.9728 33.9884 83.7263 35.1217 80.9704C35.686 79.5982 36.1353 78.3581 36.4435 77.4612C36.5975 77.0129 36.7162 76.6506 36.7962 76.4009C36.8363 76.276 36.8666 76.1792 36.8869 76.1139C36.897 76.0813 36.9046 76.0565 36.9097 76.04L36.9153 76.0215L36.9167 76.017L36.917 76.016L36.9171 76.0157C36.9171 76.0157 36.9171 76.0157 37.272 76.1231C37.6269 76.2304 37.6269 76.2305 37.6269 76.2306L37.6248 76.2376L37.6187 76.2576C37.6133 76.275 37.6054 76.3008 37.595 76.3344C37.5741 76.4018 37.543 76.5006 37.5023 76.6277C37.4209 76.8819 37.3006 77.2491 37.1447 77.7028C36.833 78.6099 36.3785 79.8642 35.8074 81.2531Z" fill="#001A39"/>
</svg>
