<svg width="606" height="398" viewBox="0 0 606 398" fill="none" xmlns="http://www.w3.org/2000/svg">
<path d="M556.999 286.912L606 294.598L583.82 369.973L581.4 306.217L545.718 300.609" fill="#FBC73B"/>
<path d="M443.916 317.121L471.27 347.958L406.568 392.536L444.844 341.487L426.528 320.651" fill="#FBC73B"/>
<path d="M567.824 285.616C567.824 285.616 577.544 293.743 572.69 311.391C568.115 328.033 554.405 330.779 554.405 330.779L478.431 314.636C470.476 312.601 464.018 306.811 461.13 299.126L439.439 241.402L404.582 261.445L447.606 314.909C447.606 314.909 450.373 327.326 436.959 337.479C425.374 346.249 410.988 343.608 410.988 343.608L356.218 282.133C342.135 266.324 343.796 242.027 359.9 228.287C387.918 204.385 405.024 190.61 427.087 180.205C446.249 171.171 473.599 175.942 488.749 191.256C501.418 204.068 505.282 218.875 507.069 272.279" fill="#F96155"/>
<path fill-rule="evenodd" clip-rule="evenodd" d="M431.612 215.508L446.055 262.744L444.396 263.252L429.953 216.016L431.612 215.508Z" fill="white"/>
<path d="M538.895 327.183C537.481 319.111 541.011 310.216 548.32 306.139C552.063 304.048 556.465 303.519 560.429 305.323C564.51 307.184 568.154 310.276 571.363 313.36C571.962 313.937 572.877 313.026 572.274 312.449C568.73 309.04 564.541 305.454 559.878 303.71C555.832 302.196 551.377 302.96 547.665 305.024C539.819 309.387 536.136 318.903 537.646 327.53C537.793 328.345 539.038 327.998 538.895 327.183Z" fill="#FBC73B"/>
<path d="M547.053 280.854C540.669 293.813 530.056 307.189 514.039 306.113C506.193 305.584 499.917 300.74 497.085 293.444C493.927 285.312 495.272 276.421 497.167 268.163C499.37 258.574 502.289 249.127 505.933 239.984C506.241 239.212 504.991 238.878 504.688 239.642C501.045 248.785 498.126 258.231 495.922 267.82C493.949 276.417 492.6 285.672 495.961 294.108C498.646 300.844 504.18 305.801 511.393 307.085C518.341 308.317 525.74 306.46 531.561 302.544C539.134 297.448 544.204 289.558 548.168 281.509C548.537 280.763 547.422 280.108 547.053 280.854Z" fill="#FBC73B"/>
<path d="M461.983 300.574C466.945 296.224 473.503 294.255 479.892 293.132C487.044 291.874 494.59 291.306 501.695 293.14C507.637 294.676 513.323 297.985 516.849 303.107C520.947 309.058 521.494 316.99 521.806 323.986C521.845 324.815 523.133 324.819 523.099 323.986C522.778 316.747 522.17 308.62 517.963 302.452C514.398 297.226 508.695 293.743 502.67 292.06C495.15 289.957 487.143 290.542 479.545 291.878C472.922 293.045 466.208 295.148 461.068 299.655C460.444 300.21 461.359 301.121 461.983 300.574Z" fill="#FBC73B"/>
<path d="M443.364 251.538C449.545 247.314 456.475 244.326 463.827 242.877C469.105 241.836 481.202 240.019 480.798 248.697C480.629 252.332 478.812 256.075 477.116 259.219C475.381 262.433 473.264 265.43 470.992 268.284C466.308 274.152 460.999 279.522 455.322 284.427C454.693 284.974 455.608 285.88 456.232 285.338C465.77 277.084 475.823 267.018 480.464 255.043C482.195 250.584 483.492 244.694 478.374 241.997C473.772 239.572 467.57 240.76 462.747 241.78C455.564 243.298 448.764 246.282 442.709 250.419C442.033 250.892 442.674 252.011 443.364 251.538Z" fill="#FBC73B"/>
<path d="M502.229 221.191C496.035 224.891 490.089 228.278 482.66 228.317C475.425 228.352 468.264 225.602 463.836 219.708C459.646 214.126 458.076 207.026 456.641 200.334C454.91 192.267 453.414 184 452.941 175.751C452.894 174.927 451.601 174.918 451.649 175.751C452.043 182.603 453.188 189.465 454.485 196.2C455.643 202.212 456.832 208.379 459.208 214.052C461.282 219.001 464.461 223.434 469.154 226.188C473.89 228.963 479.58 229.97 485.015 229.506C491.733 228.933 497.224 225.698 502.884 222.315C503.595 221.881 502.944 220.766 502.229 221.191Z" fill="#FBC73B"/>
<path d="M477.914 183.224C473.67 196.197 463.732 202.65 454.982 204.771C445.397 207.092 434.633 206.107 426.102 198.313C425.641 197.892 425.225 199.007 425.686 199.428C432.499 205.656 440.606 207.46 448.396 207.009C456.325 206.549 464.182 203.696 470.893 196.864C474.133 193.564 476.857 189.287 478.627 183.879C478.869 183.137 478.156 182.487 477.914 183.224Z" fill="#FBC73B"/>
<path d="M378.987 212.89C385.038 216.464 390.867 221.022 392.255 228.326C393.482 234.793 391.067 241.576 387.085 246.65C377.812 258.482 360.863 260.295 346.932 261.024C346.103 261.067 346.099 262.36 346.932 262.316C359.31 261.666 372.829 260.217 383.012 252.458C391.01 246.364 396.384 235.009 392.689 225.095C390.39 218.932 385.099 215.002 379.634 211.775C378.922 211.354 378.272 212.469 378.987 212.89Z" fill="#FBC73B"/>
<path d="M434.799 298.163C425.222 296.411 414.605 296.966 406.564 303.034C398.597 309.045 395.517 318.83 397.239 328.48C397.386 329.296 398.631 328.949 398.484 328.137C396.797 318.687 400.08 309.089 408.095 303.515C415.737 298.202 425.582 297.786 434.461 299.412C435.272 299.556 435.619 298.311 434.799 298.163Z" fill="#FBC73B"/>
<path d="M373.306 301.741C386.018 299.863 400.622 301.528 412.072 307.631C417.476 310.511 422.203 314.583 425.495 319.779C429.412 325.955 431.116 333.168 432.092 340.333C432.205 341.153 433.45 340.801 433.337 339.99C432.318 332.504 430.47 324.953 426.254 318.578C422.867 313.456 418.126 309.396 412.727 306.52C400.951 300.249 386.027 298.57 372.963 300.5C372.144 300.618 372.491 301.862 373.306 301.741Z" fill="#FBC73B"/>
<path d="M428.136 247.899C422.138 239.629 412.77 234.723 402.942 232.55C393.769 230.525 383.047 230.191 374.46 234.541C365.586 239.034 362.328 248.719 365.265 258.018C368.522 268.345 377.795 274.729 387.042 279.344C399.155 285.39 412.731 290.868 426.532 289.467C427.351 289.385 427.36 288.092 426.532 288.174C415.099 289.337 403.944 285.642 393.639 281.031C384.596 276.985 374.642 272.157 369.194 263.466C363.92 255.043 363.773 243.319 372.543 237.182C380.176 231.843 390.832 231.765 399.676 233.235C410.189 234.979 420.629 239.741 427.017 248.554C427.503 249.218 428.622 248.576 428.136 247.899Z" fill="#FBC73B"/>
<path fill-rule="evenodd" clip-rule="evenodd" d="M576.196 322.296L588.05 311.8L589.2 313.099L577.346 323.595L576.196 322.296Z" fill="white"/>
<path fill-rule="evenodd" clip-rule="evenodd" d="M575.88 330.45L587.733 319.954L588.883 321.252L577.03 331.748L575.88 330.45Z" fill="white"/>
<path fill-rule="evenodd" clip-rule="evenodd" d="M575.052 339.176L586.905 328.685L588.055 329.984L576.202 340.475L575.052 339.176Z" fill="white"/>
<path fill-rule="evenodd" clip-rule="evenodd" d="M432.061 350.562L447.861 349.582L447.968 351.313L432.168 352.294L432.061 350.562Z" fill="white"/>
<path fill-rule="evenodd" clip-rule="evenodd" d="M426.795 356.799L442.595 355.819L442.703 357.551L426.902 358.531L426.795 356.799Z" fill="white"/>
<path fill-rule="evenodd" clip-rule="evenodd" d="M420.771 363.166L436.572 362.19L436.679 363.922L420.878 364.898L420.771 363.166Z" fill="white"/>
<path fill-rule="evenodd" clip-rule="evenodd" d="M525.583 152.596L483.508 134.896L484.181 133.297L526.255 150.997L525.583 152.596Z" fill="#001A39"/>
<path fill-rule="evenodd" clip-rule="evenodd" d="M491.276 166.224C491.279 166.22 491.283 166.216 491.287 166.212C491.445 166.041 491.711 165.809 492.097 165.52C492.861 164.946 493.983 164.226 495.365 163.409C498.122 161.777 501.824 159.804 505.545 157.893C509.263 155.985 512.987 154.145 515.782 152.783C517.18 152.102 518.344 151.54 519.16 151.149C519.567 150.953 519.887 150.8 520.106 150.696C520.215 150.644 520.298 150.604 520.355 150.577L520.439 150.537C520.439 150.537 520.439 150.537 520.068 149.753C519.696 148.97 519.696 148.97 519.695 148.97L519.609 149.011C519.553 149.038 519.468 149.078 519.359 149.13C519.139 149.235 518.818 149.388 518.409 149.585C517.591 149.977 516.423 150.54 515.022 151.223C512.221 152.589 508.485 154.434 504.753 156.35C501.024 158.264 497.284 160.257 494.481 161.916C493.083 162.743 491.896 163.501 491.055 164.133C490.637 164.446 490.276 164.75 490.014 165.033C489.883 165.175 489.755 165.334 489.657 165.508C489.565 165.672 489.455 165.927 489.475 166.235C489.498 166.578 489.641 166.881 489.788 167.116C489.941 167.362 490.142 167.605 490.365 167.84C490.811 168.308 491.416 168.816 492.106 169.332C493.489 170.368 495.307 171.51 497.12 172.547C498.934 173.584 500.769 174.53 502.196 175.17C502.905 175.489 503.538 175.742 504.026 175.891C504.265 175.964 504.511 176.025 504.734 176.045C504.843 176.054 504.993 176.059 505.154 176.025C505.309 175.992 505.583 175.899 505.776 175.623L505.777 175.622C506.623 174.409 506.418 173.033 505.876 171.857C505.337 170.684 504.395 169.535 503.434 168.552C502.463 167.557 501.421 166.681 500.628 166.056C500.23 165.742 499.891 165.489 499.651 165.315C499.531 165.227 499.436 165.159 499.369 165.112C499.336 165.089 499.31 165.071 499.292 165.058L499.271 165.044L499.266 165.04L499.263 165.038C499.263 165.038 499.263 165.038 498.772 165.753C498.281 166.468 498.281 166.468 498.281 166.468L498.285 166.471L498.302 166.482C498.316 166.493 498.339 166.508 498.369 166.529C498.429 166.572 498.517 166.635 498.63 166.717C498.855 166.881 499.176 167.12 499.554 167.418C500.313 168.017 501.292 168.842 502.193 169.764C503.103 170.696 503.884 171.677 504.3 172.582C504.614 173.263 504.682 173.8 504.547 174.236C504.542 174.235 504.537 174.233 504.532 174.232C504.147 174.114 503.592 173.895 502.906 173.588C501.543 172.976 499.759 172.058 497.981 171.041C496.2 170.022 494.45 168.92 493.145 167.943C492.491 167.453 491.972 167.012 491.621 166.643C491.458 166.472 491.346 166.332 491.276 166.224ZM491.169 166.358C491.169 166.358 491.17 166.357 491.17 166.357C491.167 166.362 491.166 166.363 491.169 166.358Z" fill="#001A39"/>
<path fill-rule="evenodd" clip-rule="evenodd" d="M496.983 111.164C495.553 110.642 494.592 110.291 494.293 110.159L494.993 108.572C495.235 108.679 496.128 109.005 497.585 109.537C497.839 109.63 498.109 109.729 498.396 109.833C500.305 110.531 502.896 111.483 505.935 112.637C512.012 114.945 519.887 118.064 527.7 121.586C535.506 125.104 543.284 129.039 549.151 132.982C552.083 134.952 554.571 136.947 556.349 138.917C558.113 140.87 559.274 142.904 559.34 144.946C559.405 146.936 558.601 148.952 557.275 150.914C555.945 152.882 554.043 154.866 551.79 156.815C547.283 160.714 541.258 164.569 535.259 167.967C529.252 171.369 523.235 174.333 518.723 176.445C516.466 177.501 514.584 178.346 513.265 178.926C512.606 179.216 512.087 179.441 511.733 179.593C511.69 179.611 511.649 179.628 511.611 179.645C511.597 179.713 511.582 179.789 511.565 179.871C511.477 180.301 511.349 180.914 511.192 181.65C510.877 183.122 510.441 185.086 509.957 187.052C509.475 189.014 508.94 190.998 508.426 192.502C508.171 193.248 507.909 193.912 507.647 194.401C507.518 194.643 507.368 194.884 507.192 195.076C507.04 195.241 506.722 195.532 506.254 195.532C505.751 195.532 505.438 195.207 505.289 195.004C505.131 194.788 505.021 194.528 504.938 194.284C504.768 193.786 504.636 193.122 504.528 192.387C504.435 191.744 504.355 191.013 504.287 190.234C504.002 191.77 503.666 193.236 503.272 194.426C502.994 195.265 502.668 196.028 502.275 196.587C501.904 197.116 501.294 197.702 500.432 197.609C499.566 197.516 499.088 196.798 498.829 196.201C498.55 195.56 498.372 194.725 498.254 193.818C498.017 191.989 497.995 189.619 498.064 187.304C498.076 186.932 498.089 186.56 498.105 186.191C497.736 187.246 497.346 188.254 496.959 189.085C496.676 189.692 496.375 190.245 496.064 190.659C495.908 190.865 495.727 191.068 495.517 191.227C495.309 191.383 495.011 191.542 494.643 191.542C494.041 191.542 493.719 191.095 493.589 190.849C493.447 190.58 493.364 190.255 493.308 189.944C493.194 189.305 493.149 188.44 493.145 187.464C493.137 185.496 493.297 182.894 493.511 180.317C493.725 177.735 493.996 175.154 494.213 173.221C494.321 172.254 494.416 171.448 494.484 170.884C494.518 170.602 494.546 170.38 494.564 170.228C494.574 170.152 494.581 170.094 494.586 170.055L494.594 169.995C494.594 169.995 494.594 169.995 495.454 170.104C496.315 170.213 496.315 170.213 496.315 170.213L496.307 170.27C496.303 170.309 496.295 170.366 496.286 170.441C496.268 170.591 496.241 170.811 496.207 171.091C496.139 171.652 496.045 172.453 495.937 173.415C495.721 175.338 495.452 177.901 495.24 180.461C495.027 183.027 494.872 185.568 494.88 187.457C494.883 188.152 494.908 188.736 494.955 189.19C495.089 188.959 495.234 188.679 495.386 188.352C495.91 187.228 496.459 185.703 496.961 184.148C497.461 182.599 497.906 181.047 498.227 179.88C498.388 179.297 498.517 178.811 498.605 178.472C498.65 178.302 498.684 178.169 498.707 178.079C498.713 178.055 498.718 178.035 498.723 178.017C498.727 178.001 498.73 177.987 498.733 177.976L498.741 177.944L498.742 177.942L499.583 178.153C500.445 178.25 500.445 178.25 500.445 178.25L500.444 178.262L500.44 178.3C500.436 178.334 500.43 178.385 500.423 178.451C500.409 178.583 500.389 178.778 500.364 179.026C500.314 179.522 500.246 180.233 500.174 181.087C500.029 182.796 499.867 185.073 499.798 187.356C499.729 189.649 499.756 191.907 499.975 193.594C500.086 194.446 500.238 195.091 500.42 195.51C500.507 195.71 500.578 195.81 500.62 195.857C500.667 195.821 500.746 195.746 500.856 195.59C501.103 195.238 501.365 194.664 501.625 193.881C502.139 192.329 502.566 190.193 502.906 188.001C503.245 185.82 503.491 183.624 503.653 181.971C503.734 181.145 503.794 180.456 503.834 179.974C503.853 179.733 503.868 179.544 503.878 179.416C503.883 179.351 503.886 179.302 503.888 179.269L503.891 179.232L503.892 179.221C503.892 179.221 503.892 179.221 504.256 179.246L503.892 179.221L505.625 179.281L504.757 179.281C505.625 179.281 505.625 179.281 505.625 179.281L505.625 179.324L505.625 179.451C505.625 179.563 505.626 179.727 505.627 179.936C505.63 180.355 505.636 180.953 505.647 181.671C505.67 183.108 505.717 185.021 505.809 186.931C505.902 188.848 506.041 190.737 506.245 192.136C506.292 192.457 506.341 192.743 506.392 192.992C506.515 192.696 506.647 192.343 506.784 191.941C507.273 190.512 507.793 188.587 508.273 186.638C508.751 184.694 509.183 182.749 509.496 181.287C509.652 180.557 509.778 179.949 509.865 179.523C509.909 179.31 509.943 179.143 509.966 179.03L509.991 178.9L510 178.857L510 178.857C510 178.857 510 178.857 510.851 179.025C510.516 178.225 510.516 178.225 510.516 178.225L510.524 178.222L510.549 178.211C510.567 178.203 510.593 178.193 510.626 178.178L510.65 178.168C510.74 178.13 510.874 178.073 511.049 177.998C511.399 177.848 511.912 177.626 512.566 177.338C513.875 176.762 515.745 175.924 517.988 174.874C522.475 172.773 528.449 169.83 534.404 166.458C540.366 163.08 546.275 159.291 550.655 155.503C552.845 153.608 554.625 151.737 555.838 149.943C557.055 148.142 557.654 146.487 557.606 145.002C557.56 143.568 556.721 141.917 555.062 140.079C553.417 138.258 551.058 136.354 548.184 134.422C542.438 130.56 534.764 126.673 526.987 123.168C519.218 119.666 511.379 116.56 505.319 114.259C502.29 113.109 499.707 112.16 497.8 111.463C497.513 111.358 497.24 111.258 496.983 111.164ZM510.851 179.025L510.516 178.225L510 178.857L510.851 179.025ZM505.899 193.917C505.899 193.917 505.903 193.913 505.91 193.907C505.903 193.914 505.899 193.918 505.899 193.917ZM500.567 195.888C500.567 195.887 500.57 195.886 500.576 195.885C500.57 195.887 500.567 195.888 500.567 195.888ZM499.583 178.153L500.445 178.25L498.742 177.942L499.583 178.153Z" fill="#001A39"/>
<path d="M497.154 104.959C500.871 128.285 484.976 150.2 461.65 153.917C438.325 157.634 416.409 141.739 412.692 118.413" fill="#FBC73B"/>
<path d="M424.685 75.0419C424.429 86.8173 433.767 96.5716 445.542 96.8232C455.952 97.0487 464.782 89.7752 466.864 79.9516C467.137 78.6634 467.293 77.3319 467.324 75.9657C467.579 64.1903 458.242 54.436 446.466 54.1844C440.338 54.05 434.764 56.5135 430.783 60.5687C427.114 64.303 424.806 69.3949 424.685 75.0419Z" fill="#617FA8"/>
<path d="M430.783 60.5644C436.261 71.9799 447.811 79.9733 461.339 80.2682C463.217 80.3072 465.064 80.1988 466.868 79.9516C467.142 78.6634 467.298 77.3319 467.328 75.9657C467.584 64.1903 458.246 54.436 446.471 54.1844C440.338 54.05 434.76 56.5092 430.783 60.5644Z" fill="#001A39"/>
<path d="M465.735 61.9085C470.224 61.9085 473.863 58.2696 473.863 53.7807C473.863 49.2918 470.224 45.6528 465.735 45.6528C461.246 45.6528 457.607 49.2918 457.607 53.7807C457.607 58.2696 461.246 61.9085 465.735 61.9085Z" fill="#001A39"/>
<path d="M462.574 46.2689C475.351 46.2689 485.708 35.9113 485.708 23.1345C485.708 10.3576 475.351 0 462.574 0C449.797 0 439.439 10.3576 439.439 23.1345C439.439 35.9113 449.797 46.2689 462.574 46.2689Z" fill="#001A39"/>
<path d="M430.767 74.7874C430.822 72.2225 429.916 70.1227 428.742 70.0974C427.569 70.072 426.573 72.1307 426.517 74.6956C426.462 77.2605 427.368 79.3604 428.542 79.3857C429.715 79.4111 430.711 77.3523 430.767 74.7874Z" fill="#001A39"/>
<path d="M437.816 75.2616C437.871 72.6966 436.965 70.5968 435.791 70.5715C434.618 70.5461 433.622 72.6048 433.566 75.1697C433.511 77.7347 434.417 79.8345 435.591 79.8599C436.764 79.8852 437.76 77.8265 437.816 75.2616Z" fill="#001A39"/>
<path fill-rule="evenodd" clip-rule="evenodd" d="M428.644 85.0099C428.643 85.01 428.643 85.0101 428.458 84.1627C428.272 83.3153 428.272 83.3154 428.271 83.3155L428.271 83.3156L428.27 83.3158C428.273 83.3152 428.278 83.3138 428.287 83.3117C428.304 83.3074 428.332 83.3 428.371 83.2891C428.448 83.2671 428.562 83.2314 428.702 83.1791C428.984 83.0732 429.353 82.9053 429.711 82.6574C430.413 82.1711 431.037 81.4175 430.987 80.1769L432.72 80.1074C432.801 82.1153 431.726 83.372 430.698 84.0838C430.191 84.435 429.686 84.6631 429.311 84.8036C429.122 84.8743 428.962 84.9243 428.847 84.9573C428.789 84.9738 428.742 84.9861 428.707 84.9948C428.69 84.9991 428.676 85.0025 428.665 85.005L428.652 85.0082L428.647 85.0093L428.645 85.0097L428.644 85.0099ZM428.27 83.3158L428.27 83.3158L428.269 83.3161C428.268 83.3162 428.269 83.3161 428.27 83.3158Z" fill="#001A39"/>
<path fill-rule="evenodd" clip-rule="evenodd" d="M384.775 110.76C385.034 110.569 385.547 110.274 386.127 110.5L386.128 110.5C386.627 110.695 386.849 111.133 386.948 111.459C387.048 111.794 387.073 112.177 387.065 112.556C387.05 113.324 386.891 114.315 386.651 115.416C386.266 117.179 385.646 119.342 384.946 121.558C385.806 119.995 386.657 118.531 387.419 117.364C387.982 116.501 388.522 115.761 388.999 115.26C389.232 115.015 389.496 114.779 389.779 114.626C390.05 114.48 390.541 114.31 391.036 114.593C391.497 114.857 391.633 115.348 391.685 115.615C391.748 115.935 391.757 116.31 391.74 116.699C391.706 117.484 391.556 118.509 391.334 119.663C390.89 121.981 390.133 124.957 389.328 127.881C388.521 130.809 387.659 133.704 386.999 135.865C386.89 136.221 386.787 136.557 386.691 136.871C387.575 136.207 388.644 135.411 389.722 134.624C391.033 133.667 392.368 132.716 393.406 132.027C393.922 131.685 394.383 131.395 394.739 131.202C394.912 131.108 395.092 131.018 395.257 130.96C395.335 130.932 395.455 130.895 395.593 130.883C395.692 130.875 396.043 130.855 396.337 131.137C396.937 131.713 397.174 132.481 397.21 133.261C397.244 134.033 397.086 134.882 396.828 135.739C396.31 137.454 395.325 139.397 394.272 141.196C393.213 143.005 392.059 144.713 391.171 145.966C390.727 146.594 390.348 147.109 390.08 147.468C390.065 147.488 390.05 147.508 390.035 147.528L407.05 172.324L414.606 126.564L416.317 126.847L408.411 174.733L406.84 175.083L388.251 147.993L388.281 146.97L388.287 146.962L388.307 146.936C388.325 146.913 388.351 146.878 388.386 146.832C388.457 146.74 388.56 146.604 388.69 146.43C388.951 146.081 389.321 145.577 389.756 144.963C390.626 143.734 391.75 142.07 392.775 140.32C393.806 138.559 394.709 136.755 395.167 135.237C395.397 134.477 395.499 133.839 395.476 133.34C395.467 133.134 395.438 132.965 395.393 132.824C395.123 132.981 394.776 133.201 394.365 133.473C393.36 134.14 392.051 135.072 390.745 136.026C389.442 136.977 388.15 137.942 387.184 138.67C386.701 139.033 386.3 139.338 386.02 139.551C385.88 139.657 385.77 139.741 385.695 139.798L385.583 139.884L385.581 139.885C385.581 139.885 385.581 139.885 385.054 139.196C384.228 138.932 384.228 138.932 384.228 138.932L384.248 138.867C384.256 138.842 384.266 138.81 384.279 138.771C384.288 138.743 384.298 138.712 384.309 138.677C384.361 138.511 384.439 138.266 384.537 137.953C384.733 137.329 385.011 136.435 385.34 135.359C385.997 133.206 386.854 130.328 387.655 127.42C388.458 124.507 389.2 121.584 389.631 119.336C389.834 118.273 389.963 117.391 390.001 116.743C389.681 117.126 389.3 117.655 388.872 118.312C387.783 119.98 386.481 122.317 385.222 124.709C383.966 127.096 382.764 129.516 381.875 131.342C381.43 132.254 381.065 133.017 380.81 133.551C380.683 133.818 380.584 134.028 380.516 134.171C380.483 134.243 380.457 134.298 380.439 134.335L380.414 134.389L380.414 134.39C380.414 134.39 380.414 134.39 379.628 134.022C378.819 133.709 378.819 133.709 378.819 133.709L378.843 133.648C378.858 133.607 378.882 133.546 378.912 133.466C378.973 133.307 379.063 133.073 379.175 132.775C379.401 132.179 379.722 131.325 380.099 130.298C380.854 128.243 381.836 125.497 382.747 122.726C383.659 119.949 384.492 117.172 384.956 115.046C385.172 114.054 385.299 113.244 385.326 112.656C385.309 112.678 385.292 112.7 385.274 112.723C384.799 113.328 384.211 114.272 383.542 115.477C382.211 117.876 380.638 121.174 379.126 124.521C377.616 127.863 376.176 131.235 375.113 133.772C374.582 135.041 374.145 136.1 373.841 136.842C373.69 137.213 373.571 137.504 373.49 137.703C373.45 137.802 373.419 137.878 373.398 137.93L373.367 138.007C373.367 138.007 373.367 138.007 372.563 137.683C371.713 137.506 371.713 137.506 371.714 137.505L371.724 137.454C371.731 137.42 371.742 137.369 371.755 137.303C371.783 137.169 371.823 136.973 371.873 136.724C371.974 136.225 372.116 135.51 372.282 134.652C372.613 132.933 373.037 130.639 373.41 128.332C373.784 126.019 374.102 123.715 374.227 121.968C374.265 121.425 374.284 120.951 374.282 120.556C373.977 121.047 373.623 121.7 373.235 122.49C372.234 124.53 371.06 127.376 369.991 130.428C368.923 133.481 367.969 136.714 367.4 139.53C367.116 140.938 366.931 142.225 366.873 143.324C366.814 144.437 366.889 145.291 367.077 145.867C367.685 147.734 371.616 156.389 377.185 166.863C382.744 177.317 389.881 189.479 396.866 198.362L395.503 199.434C388.421 190.429 381.227 178.159 375.653 167.678C370.091 157.217 366.089 148.435 365.427 146.405C365.142 145.53 365.077 144.428 365.14 143.232C365.205 142.021 365.405 140.645 365.7 139.186C366.289 136.268 367.269 132.955 368.354 129.855C369.439 126.755 370.639 123.843 371.678 121.726C372.195 120.672 372.686 119.788 373.116 119.171C373.326 118.868 373.551 118.588 373.783 118.384C373.898 118.283 374.049 118.171 374.232 118.094C374.42 118.016 374.693 117.955 374.995 118.048L374.997 118.049C375.49 118.201 375.706 118.625 375.796 118.862C375.899 119.13 375.952 119.442 375.981 119.748C376.041 120.371 376.022 121.184 375.957 122.091C375.827 123.918 375.498 126.284 375.123 128.609C375.061 128.99 374.998 129.37 374.935 129.748C375.733 127.886 376.626 125.842 377.545 123.807C379.061 120.45 380.658 117.099 382.025 114.635C382.705 113.409 383.347 112.369 383.908 111.653C384.184 111.3 384.476 110.98 384.775 110.76ZM374.173 119.475C374.169 119.468 374.167 119.463 374.167 119.463C374.168 119.462 374.17 119.466 374.173 119.475ZM372.563 137.683L371.714 137.505L373.367 138.007L372.563 137.683ZM385.861 112.12C385.861 112.121 385.856 112.124 385.845 112.129C385.856 112.122 385.862 112.12 385.861 112.12ZM379.628 134.022L378.819 133.709L380.414 134.39L379.628 134.022ZM389.963 115.875C389.963 115.874 389.966 115.88 389.97 115.894C389.965 115.882 389.963 115.875 389.963 115.875ZM385.054 139.196L384.228 138.932L385.581 139.885L385.054 139.196ZM395.84 132.594C395.839 132.594 395.838 132.595 395.835 132.596C395.838 132.595 395.84 132.594 395.84 132.594ZM438.916 158.454C437.917 163.701 436.355 170.791 434.246 178.103L432.579 177.623C434.669 170.373 436.221 163.337 437.211 158.13C437.707 155.527 438.061 153.386 438.272 151.91C438.377 151.17 438.446 150.607 438.478 150.24C438.495 150.051 438.5 149.938 438.5 149.885C438.5 149.846 438.496 149.887 438.512 149.959L438.513 149.961C438.518 149.984 438.55 150.133 438.668 150.284C438.74 150.375 438.876 150.509 439.096 150.575C439.329 150.644 439.541 150.603 439.691 150.537L438.984 148.952C439.139 148.883 439.356 148.842 439.593 148.913C439.816 148.98 439.957 149.117 440.032 149.212C440.16 149.375 440.197 149.542 440.206 149.583L440.206 149.585C440.232 149.701 440.234 149.814 440.235 149.871C440.236 150.011 440.224 150.192 440.206 150.393C440.17 150.806 440.097 151.404 439.989 152.156C439.774 153.664 439.415 155.831 438.916 158.454Z" fill="#001A39"/>
<path fill-rule="evenodd" clip-rule="evenodd" d="M430.083 189.85C427.421 196.314 423.637 204.125 419.201 209.226C417.305 211.406 415.069 212.325 412.719 212.302C410.413 212.278 408.08 211.348 405.916 210.001C401.592 207.307 397.658 202.764 395.479 199.367L396.94 198.43C399.026 201.683 402.791 206.01 406.834 208.528C408.853 209.786 410.871 210.548 412.737 210.567C414.56 210.585 416.317 209.898 417.892 208.088C422.13 203.214 425.827 195.628 428.478 189.189C429.799 185.983 430.85 183.085 431.571 180.99C431.931 179.942 432.209 179.096 432.396 178.512C432.49 178.22 432.561 177.994 432.608 177.842C432.632 177.765 432.65 177.708 432.662 177.669L432.675 177.626L432.678 177.615L432.679 177.613L432.679 177.612C432.679 177.612 432.679 177.612 433.509 177.863C434.34 178.114 434.34 178.114 434.34 178.114L434.335 178.131L434.32 178.177C434.308 178.218 434.289 178.278 434.265 178.357C434.216 178.514 434.143 178.745 434.048 179.042C433.858 179.636 433.576 180.494 433.211 181.554C432.482 183.674 431.419 186.604 430.083 189.85Z" fill="#001A39"/>
<path d="M47.454 285.061L6.28125 287.121L19.6614 366.361L29.3854 301.824L57.0912 300.314" fill="#001A39"/>
<path d="M141.419 315.269L109.767 342.294L167.087 397.298L136.865 339.787L158.087 321.497" fill="#001A39"/>
<path d="M153.216 169.718C133.404 160.155 109.155 162.827 96.6119 178.935C85.0013 193.85 79.8054 208.284 105.729 273.047L49.9526 276.144C49.9526 276.144 38.8538 281.305 36.5118 303.073C34.1697 324.841 48.2568 333.368 48.2568 333.368L133.586 328.788C154.687 327.656 169.433 306.959 164.042 286.05L149.079 228.006L185.389 251.027L139.16 309.818C139.16 309.818 136.297 322.963 150.172 333.707C162.155 342.988 177.027 340.191 177.027 340.191L233.671 275.12C248.252 258.37 246.491 232.646 229.819 218.086C200.873 192.818 176.025 180.726 153.216 169.718Z" fill="#194D87"/>
<path d="M112.698 167.355C124.209 173.665 135.703 180.349 148.202 184.539C159.774 188.42 173.731 190.814 185.597 186.711C186.018 186.568 185.845 185.983 185.415 186.057C178.962 187.111 172.777 187.987 166.21 187.414C159.908 186.868 153.711 185.376 147.73 183.342C135.499 179.173 124.63 172.303 112.976 166.882C112.659 166.734 112.386 167.181 112.698 167.355Z" fill="white"/>
<path d="M88.8965 221.785C108.583 227.202 124.682 240.574 143.861 247.318C153.72 250.788 164.281 252.779 174.746 251.634C184.475 250.571 193.526 246.785 202.01 242.062C207.106 239.225 212.055 236.12 217.025 233.071C222.716 229.583 228.497 226.188 234.044 222.479C234.404 222.236 234.088 221.677 233.702 221.889C224.112 227.207 214.935 233.274 205.497 238.856C196.944 243.918 187.931 248.411 178.06 250.159C156.821 253.919 136.432 244.265 118.415 234.146C109.021 228.868 99.592 223.802 89.0396 221.256C88.697 221.174 88.5539 221.694 88.8965 221.785Z" fill="white"/>
<path d="M39.7949 289.649C50.7462 285.182 62.591 282.875 74.4185 282.979C86.9095 283.087 98.7587 286.297 110.053 291.506C120.549 296.346 130.39 302.496 140.959 307.189C151.533 311.886 162.923 315.313 174.581 315.282C187.554 315.247 199.88 310.325 210.718 303.472C211.087 303.238 210.762 302.678 210.376 302.882C199.546 308.668 188.677 313.834 176.156 314.215C163.773 314.597 151.611 310.919 140.43 305.857C129.782 301.039 119.837 294.819 109.164 290.053C98.8411 285.442 88.0155 282.484 76.6825 282.107C64.0136 281.686 51.1886 284.028 39.578 289.146C39.3004 289.272 39.5043 289.767 39.7949 289.649Z" fill="white"/>
<path d="M92.6962 234.728C96.99 226.678 100.364 217.895 101.8 208.861C103.413 198.695 102.498 187.141 97.1027 178.137C96.9119 177.82 96.335 178.028 96.4782 178.401C98.5557 183.697 100.499 188.819 101.167 194.518C101.757 199.545 101.54 204.641 100.685 209.624C99.1889 218.355 95.6715 226.366 92.2148 234.455C92.089 234.767 92.527 235.049 92.6962 234.728Z" fill="white"/>
<path d="M77.3417 331.755C74.3317 322.625 72.0677 313.387 71.2913 303.776C70.914 299.104 70.8446 294.407 71.1178 289.728C71.4041 284.853 72.3669 280.134 73.0175 275.311C73.0739 274.886 72.5057 274.704 72.3626 275.129C70.8663 279.505 70.4239 284.406 70.1289 288.999C69.8037 294.043 69.8948 299.113 70.3415 304.149C71.1742 313.595 73.0826 323.228 76.8429 331.967C76.96 332.249 77.4371 332.05 77.3417 331.755Z" fill="white"/>
<path d="M137.633 328.758C134.124 317.962 132.159 306.716 132.901 295.344C133.634 284.098 136.965 273.311 141.567 263.08C145.83 253.59 151.061 244.569 155.307 235.071C159.449 225.802 162.693 216.048 163.864 205.929C165.217 194.245 163.296 182.391 158.148 171.796C157.983 171.453 157.384 171.696 157.523 172.06C161.565 182.426 163.986 192.77 163.018 203.973C162.06 215.08 158.434 225.837 153.824 235.929C149.599 245.167 144.542 253.998 140.43 263.288C136.249 272.739 133.144 282.641 132.172 292.967C131.023 305.194 132.962 317.403 137.104 328.918C137.221 329.23 137.741 329.096 137.633 328.758Z" fill="white"/>
<path d="M197.017 317.464C193.899 302.722 193.539 287.403 197.633 272.808C201.432 259.263 208.511 247.097 214.643 234.541C218.1 227.463 221.47 219.981 223.131 212.244C223.222 211.815 222.615 211.65 222.476 212.062C219.991 219.322 217.419 226.422 214.075 233.344C211.009 239.698 207.661 245.909 204.612 252.272C198.427 265.179 194.051 278.624 193.704 293.041C193.504 301.308 194.415 309.6 196.492 317.607C196.579 317.954 197.091 317.806 197.017 317.464Z" fill="white"/>
<path fill-rule="evenodd" clip-rule="evenodd" d="M162.412 273.737C164.377 281.953 165.832 288.453 166.171 291.03C167.245 299.225 165.584 309.231 158.735 317.268C151.869 325.326 139.934 331.237 120.799 331.512L120.768 329.343C139.465 329.075 150.73 323.318 157.084 315.862C163.454 308.387 165.033 299.036 164.021 291.313C163.7 288.875 162.28 282.507 160.303 274.242C158.333 266.008 155.83 255.967 153.367 246.236C150.904 236.506 148.482 227.088 146.676 220.103C145.773 216.611 145.024 213.726 144.5 211.715C144.239 210.71 144.033 209.923 143.894 209.387L143.68 208.568C143.68 208.567 143.68 208.567 144.729 208.293C145.778 208.018 145.778 208.019 145.778 208.019L145.992 208.839C146.132 209.376 146.337 210.163 146.599 211.169C147.123 213.181 147.872 216.067 148.775 219.56C150.582 226.547 153.005 235.969 155.469 245.704C157.933 255.439 160.439 265.49 162.412 273.737Z" fill="white"/>
<path fill-rule="evenodd" clip-rule="evenodd" d="M31.6527 317.788L21.083 305.726L22.3878 304.583L32.9575 316.645L31.6527 317.788Z" fill="white"/>
<path fill-rule="evenodd" clip-rule="evenodd" d="M31.032 326.12L20.458 314.059L21.7626 312.915L32.3366 324.977L31.032 326.12Z" fill="white"/>
<path fill-rule="evenodd" clip-rule="evenodd" d="M30.8548 335.089L20.2852 323.027L21.5899 321.884L32.1596 333.946L30.8548 335.089Z" fill="white"/>
<path fill-rule="evenodd" clip-rule="evenodd" d="M147.782 350.467L132.303 347.062L132.675 345.368L148.155 348.772L147.782 350.467Z" fill="white"/>
<path fill-rule="evenodd" clip-rule="evenodd" d="M152.058 357.584L136.579 354.175L136.952 352.48L152.432 355.889L152.058 357.584Z" fill="white"/>
<path fill-rule="evenodd" clip-rule="evenodd" d="M157.063 364.949L141.584 361.544L141.957 359.85L157.436 363.254L157.063 364.949Z" fill="white"/>
<path fill-rule="evenodd" clip-rule="evenodd" d="M271.455 112.932C271.456 112.932 271.456 112.932 271.764 113.742C272.072 114.553 272.072 114.553 272.072 114.553L272.07 114.554L271.97 114.592C271.904 114.617 271.804 114.655 271.674 114.704C271.414 114.802 271.03 114.945 270.535 115.13C269.545 115.498 268.111 116.027 266.333 116.671C262.778 117.958 257.846 119.705 252.338 121.543C241.342 125.212 227.986 129.266 218.725 130.725C206.709 132.62 189.317 132.496 174.982 131.906C167.804 131.611 161.372 131.198 156.735 130.859C154.417 130.69 152.546 130.539 151.255 130.43C150.61 130.376 150.109 130.332 149.769 130.302C149.599 130.286 149.47 130.275 149.382 130.267L149.25 130.255C149.25 130.255 149.249 130.255 149.33 129.391C149.411 128.527 149.411 128.527 149.411 128.527L149.412 128.527L149.54 128.539C149.626 128.547 149.754 128.559 149.923 128.574C150.26 128.604 150.758 128.647 151.401 128.701C152.686 128.81 154.55 128.96 156.862 129.129C161.485 129.467 167.898 129.879 175.054 130.173C189.387 130.762 206.626 130.877 218.455 129.011C227.558 127.577 240.789 123.568 251.789 119.897C257.279 118.065 262.197 116.324 265.743 115.04C267.515 114.398 268.944 113.87 269.93 113.504C270.423 113.32 270.805 113.177 271.063 113.08C271.192 113.031 271.291 112.994 271.357 112.969L271.455 112.932Z" fill="#001A39"/>
<path fill-rule="evenodd" clip-rule="evenodd" d="M263.952 89.5549L208.347 101.672C208.222 101.7 208.094 101.708 207.966 101.698L144.772 96.6156L144.912 94.8864L208.041 99.9635L263.583 87.8599L263.952 89.5549Z" fill="#001A39"/>
<path d="M140.291 139.7L88.9567 147.681C75.6936 149.741 63.2676 140.659 61.2075 127.396C59.1473 114.132 68.2293 101.707 81.4924 99.6464L132.827 91.666C146.09 89.6058 158.516 98.6878 160.576 111.951C162.637 125.214 153.559 137.64 140.291 139.7Z" fill="#F96155"/>
<path fill-rule="evenodd" clip-rule="evenodd" d="M271.464 107.439L281.256 140.799L282.921 140.31L273.228 107.288C272.631 107.346 272.041 107.397 271.464 107.439ZM269.941 102.251C270.471 102.052 271.018 101.854 271.575 101.659L271.248 100.542C270.665 100.637 270.087 100.726 269.518 100.81L269.941 102.251ZM268.035 95.7585C268.57 95.5644 269.118 95.3713 269.674 95.1799L269.285 93.8564C268.654 93.9374 268.064 93.9998 267.531 94.0391L268.035 95.7585ZM266.799 91.5461C267.259 91.2639 267.778 90.9658 268.346 90.656L258.216 56.1475L256.552 56.6361L266.799 91.5461Z" fill="#001A39"/>
<path fill-rule="evenodd" clip-rule="evenodd" d="M277.297 106.944L277.546 140.404L279.281 140.391L279.03 106.715C278.461 106.793 277.881 106.87 277.297 106.944ZM277.246 100.151C277.832 99.9741 278.412 99.8034 278.977 99.6399L278.975 99.2942C278.412 99.409 277.833 99.5249 277.242 99.6403L277.246 100.151ZM277.194 93.1007C277.783 92.9247 278.362 92.7544 278.925 92.591L278.923 92.2807C278.355 92.4031 277.775 92.5256 277.19 92.646L277.194 93.1007ZM277.147 86.88C277.726 86.6209 278.304 86.3647 278.877 86.1134L278.622 51.835L276.887 51.8479L277.147 86.88Z" fill="#001A39"/>
<path fill-rule="evenodd" clip-rule="evenodd" d="M278.482 106.789L268.604 140.026L270.266 140.52L280.371 106.523C279.758 106.613 279.125 106.703 278.482 106.789ZM280.757 99.1354C281.457 98.9408 282.118 98.7611 282.726 98.5988L282.758 98.4906C282.164 98.6217 281.515 98.7626 280.824 98.9092L280.757 99.1354ZM283.047 91.4308C283.81 91.2224 284.476 91.0442 285.014 90.902L285.02 90.8805C284.485 91.0106 283.824 91.1691 283.072 91.3453L283.047 91.4308ZM285.459 83.3151C286.274 82.9785 286.975 82.6924 287.519 82.4717L295.418 55.8976L293.755 55.4033L285.459 83.3151Z" fill="#001A39"/>
<path fill-rule="evenodd" clip-rule="evenodd" d="M289.406 81.3784L288.771 81.9687L288.451 81.1625L289.002 80.9434L289.406 81.3784ZM287.219 104.5C287.241 104.491 287.27 104.478 287.305 104.462C287.411 104.412 287.572 104.329 287.771 104.201C288.169 103.946 288.72 103.515 289.277 102.828C290.381 101.466 291.573 99.0244 291.573 94.772C291.573 90.4697 290.682 87.3871 289.811 85.3988C289.375 84.4032 288.942 83.6786 288.626 83.2103C288.578 83.1395 288.533 83.0746 288.49 83.0155C288.378 83.0606 288.252 83.1117 288.112 83.1684C287.487 83.421 286.593 83.7848 285.521 84.2288C283.374 85.1172 280.512 86.3258 277.645 87.6084C274.773 88.8928 271.912 90.2439 269.762 91.4177C268.683 92.0065 267.809 92.5369 267.207 92.9809C267.098 93.0612 267.001 93.1363 266.916 93.206C267.358 93.2344 267.963 93.2182 268.713 93.155C270.607 92.9954 273.184 92.5596 275.801 92.042C278.411 91.5259 281.031 90.9345 283.001 90.4715C283.985 90.2402 284.806 90.0412 285.38 89.9001C285.668 89.8296 285.893 89.7736 286.047 89.7352C286.123 89.716 286.182 89.7013 286.222 89.6913L286.261 89.6813L286.266 89.6801L286.281 89.6765C286.281 89.6764 286.281 89.6764 286.494 90.5173C286.707 91.3581 286.707 91.3581 286.707 91.3582L286.703 91.3591L286.691 91.3621L286.689 91.3627L286.635 91.3766C286.586 91.3889 286.515 91.4072 286.421 91.4314C286.233 91.4797 285.958 91.5511 285.607 91.6433C284.905 91.8276 283.902 92.0948 282.699 92.4259C280.293 93.0886 277.089 94.0059 273.896 95.0268C270.696 96.0498 267.534 97.1682 265.196 98.2307C264.022 98.7644 263.096 99.2659 262.485 99.7133C262.178 99.9379 261.986 100.123 261.88 100.262C261.877 100.266 261.874 100.27 261.871 100.274C261.958 100.313 262.09 100.358 262.283 100.4C262.884 100.53 263.8 100.571 264.98 100.522C267.321 100.424 270.454 99.9832 273.617 99.4311C276.772 98.8805 279.923 98.2249 282.288 97.7063C283.47 97.4471 284.454 97.2225 285.143 97.0627C285.487 96.9829 285.757 96.9192 285.941 96.8756C286.032 96.8538 286.103 96.837 286.15 96.8257L286.203 96.8129L286.205 96.8126L286.216 96.8097L286.217 96.8095L286.22 96.809L286.22 96.8088L286.222 96.8085C286.222 96.8085 286.222 96.8084 286.424 97.6519C286.628 98.495 286.628 98.4951 286.628 98.4951L286.627 98.4953L286.623 98.4962L286.565 98.5104C286.523 98.5205 286.461 98.5356 286.38 98.5556C286.217 98.5955 285.978 98.6545 285.674 98.7309C285.066 98.8837 284.197 99.1058 283.155 99.3827C281.071 99.9368 278.303 100.709 275.557 101.582C272.803 102.457 270.104 103.425 268.144 104.366C267.157 104.84 266.407 105.284 265.933 105.678C265.697 105.875 265.567 106.029 265.505 106.134C265.497 106.146 265.491 106.157 265.486 106.166C265.542 106.213 265.682 106.304 266.014 106.403C266.571 106.569 267.399 106.669 268.46 106.699C270.565 106.758 273.352 106.537 276.16 106.209C278.96 105.881 281.745 105.45 283.832 105.101C284.875 104.926 285.742 104.772 286.349 104.662C286.652 104.607 286.889 104.563 287.051 104.532C287.098 104.523 287.138 104.516 287.172 104.509C287.19 104.506 287.205 104.503 287.219 104.5ZM269.699 101.802C268.868 102.133 268.09 102.467 267.393 102.802C266.363 103.296 265.461 103.814 264.823 104.345C264.504 104.61 264.214 104.91 264.014 105.246C263.809 105.59 263.674 106.017 263.759 106.486C263.931 107.43 264.82 107.858 265.519 108.066C266.294 108.296 267.301 108.402 268.411 108.433C270.646 108.496 273.534 108.263 276.362 107.932C279.2 107.599 282.015 107.164 284.118 106.812C285.171 106.636 286.046 106.48 286.659 106.369C286.966 106.313 287.206 106.268 287.371 106.237C287.453 106.222 287.517 106.21 287.559 106.202L287.625 106.189C287.625 106.189 287.625 106.189 287.461 105.337L287.625 106.189L287.685 106.178L287.743 106.158L287.461 105.337C287.743 106.158 287.744 106.157 287.745 106.157L287.746 106.157L287.749 106.155L287.757 106.153C287.763 106.151 287.77 106.148 287.778 106.145C287.795 106.139 287.816 106.131 287.841 106.12C287.893 106.1 287.961 106.071 288.045 106.031C288.212 105.952 288.439 105.833 288.707 105.662C289.242 105.319 289.937 104.768 290.624 103.921C292.009 102.213 293.308 99.3718 293.308 94.772C293.308 90.2221 292.364 86.9031 291.4 84.7028C290.919 83.604 290.434 82.7876 290.063 82.2385C289.877 81.964 289.72 81.7563 289.606 81.6136C289.549 81.5423 289.502 81.4872 289.468 81.4481C289.452 81.4285 289.438 81.4129 289.427 81.4013L289.414 81.3869L289.41 81.3819L289.407 81.3792C289.407 81.3788 289.406 81.3784 288.771 81.9687C288.451 81.1625 288.451 81.1624 288.451 81.1625L288.384 81.1891C288.34 81.2066 288.275 81.2324 288.191 81.2662C288.023 81.3337 287.775 81.4329 287.461 81.56C286.833 81.8141 285.935 82.1797 284.857 82.6258C282.702 83.5178 279.824 84.7332 276.936 86.0247C274.053 87.3144 271.142 88.6876 268.931 89.8949C267.828 90.4967 266.874 91.071 266.177 91.5843C265.831 91.8397 265.522 92.099 265.287 92.357C265.077 92.5872 264.809 92.9394 264.765 93.3793C264.71 93.9201 264.998 94.3257 265.346 94.5544C265.644 94.7501 266.006 94.8392 266.325 94.8874C266.984 94.9869 267.873 94.9668 268.858 94.8837C268.879 94.882 268.899 94.8803 268.92 94.8785C267.294 95.4648 265.772 96.0633 264.478 96.6513C263.267 97.2016 262.215 97.7608 261.461 98.3129C261.084 98.5881 260.746 98.8874 260.498 99.2127C260.254 99.5338 260.04 99.9605 260.074 100.46C260.109 100.989 260.404 101.379 260.762 101.632C261.095 101.868 261.507 102.007 261.915 102.095C262.739 102.273 263.834 102.306 265.053 102.255C266.413 102.198 268.007 102.033 269.699 101.802ZM286.424 97.6519L286.628 98.4951L286.222 96.8085L286.424 97.6519ZM286.494 90.5173L286.707 91.3582L286.281 89.6764L286.494 90.5173Z" fill="#001A39"/>
<path fill-rule="evenodd" clip-rule="evenodd" d="M65.3525 107.769C47.073 114.149 23.0345 128.857 13.2886 135.427L13.2628 135.444L13.2358 135.46C5.2629 140.04 2.37322 145.025 1.83333 149.276C1.288 153.569 3.11018 157.329 4.97319 159.479C5.02978 159.545 5.07942 159.614 5.123 159.692C9.29235 167.077 17.2503 176.125 25.592 184.496C33.9179 192.85 42.5629 200.468 48.0468 204.985C48.5003 205.358 48.5954 205.945 48.4448 206.404C44.8375 217.389 42.8418 224.417 41.9613 228.609C41.5351 230.637 41.3867 231.93 41.415 232.666C41.432 232.651 41.4495 232.634 41.4676 232.617C41.7141 232.38 42.0055 232.048 42.3361 231.626C42.9963 230.782 43.7642 229.638 44.5826 228.318C46.2169 225.681 48.0092 222.413 49.4793 219.602C49.8509 218.891 50.6134 218.807 51.1162 219.003C51.613 219.196 52.1067 219.754 51.9476 220.511C50.1406 229.111 49.4115 234.292 49.3793 237.026C49.3713 237.705 49.4072 238.199 49.469 238.541C49.4741 238.57 49.4793 238.596 49.4845 238.621C49.5122 238.594 49.5415 238.564 49.5723 238.531C50.0189 238.053 50.5919 237.193 51.2482 236.002C51.8959 234.826 52.5967 233.38 53.3072 231.773C54.7282 228.56 56.1716 224.74 57.2907 221.223C57.5673 220.354 58.4423 220.266 58.8949 220.363C59.3503 220.461 60.0771 220.882 60.0374 221.749C59.6628 229.937 59.8208 234.584 60.288 236.733C60.3698 237.109 60.4539 237.372 60.5289 237.549C60.6692 237.388 60.8408 237.144 61.0388 236.8C61.9948 235.143 63.1546 231.927 64.337 227.989C65.5106 224.081 66.6822 219.547 67.6759 215.314C67.9398 214.189 69.418 213.945 70.0379 214.907C71.8373 217.701 74.1966 221.25 75.987 223.221C76.4325 223.711 76.8143 224.072 77.1202 224.294C77.1723 224.332 77.2184 224.364 77.2586 224.389C77.3011 224.09 77.3033 223.599 77.2165 222.852C76.3682 215.557 72.62 203.498 70.8093 198.894C69.3956 197.026 66.2619 192.687 64.5252 189.56C64.1284 188.846 62.9034 187.073 61.1203 184.601C59.3535 182.152 57.0764 179.068 54.6122 175.765C49.6843 169.16 44.0158 161.691 40.2017 156.701C39.6738 156.01 39.9703 155.056 40.7167 154.727L82.0657 136.516L82.7649 138.104L41.9204 156.092C45.7285 161.078 51.2141 168.31 56.0027 174.728C58.4691 178.034 60.7525 181.126 62.5273 183.587C64.2859 186.024 65.5836 187.893 66.0417 188.718C67.7303 191.757 70.8405 196.064 72.2286 197.894C72.2986 197.986 72.3556 198.086 72.4001 198.198C74.2295 202.829 78.0635 215.116 78.9398 222.652C79.0458 223.564 79.0558 224.315 78.9319 224.881C78.8102 225.438 78.4738 226.109 77.686 226.226C77.0663 226.318 76.4926 225.984 76.0985 225.697C75.6543 225.373 75.1812 224.914 74.7029 224.387C72.9879 222.5 70.8417 219.33 69.1308 216.699C68.1839 220.667 67.0939 224.841 65.9986 228.488C64.8206 232.411 63.6118 235.812 62.5417 237.667C62.272 238.135 61.9858 238.55 61.6806 238.857C61.3978 239.142 60.9581 239.475 60.3906 239.455C59.7678 239.433 59.3639 239.01 59.1303 238.621C58.8942 238.228 58.7242 237.706 58.5927 237.102C58.121 234.931 57.962 230.753 58.2095 223.968C57.2092 226.881 56.0458 229.87 54.8939 232.475C54.1703 234.111 53.4472 235.606 52.7677 236.839C52.0969 238.057 51.4395 239.074 50.8392 239.716C50.5487 240.027 50.1953 240.334 49.7886 240.48C49.571 240.558 49.3086 240.601 49.0276 240.544C48.7399 240.485 48.5037 240.336 48.324 240.146C47.9971 239.801 47.8454 239.313 47.7617 238.85C47.6726 238.356 47.6359 237.741 47.6446 237.006C47.6752 234.409 48.2819 229.911 49.6834 222.912C48.517 225.067 47.2492 227.309 46.0571 229.232C45.2251 230.574 44.4191 231.779 43.7026 232.695C43.3448 233.152 42.997 233.553 42.6688 233.868C42.3576 234.167 41.9947 234.457 41.6025 234.597C41.3952 234.671 41.1322 234.721 40.8465 234.664C40.5449 234.603 40.2992 234.439 40.1213 234.223C39.8085 233.845 39.7169 233.324 39.6881 232.866C39.6271 231.893 39.8168 230.378 40.2635 228.252C41.1576 223.995 43.1538 216.971 46.7088 206.13C41.1775 201.56 32.6164 194.002 24.3632 185.72C16.0219 177.35 7.93189 168.179 3.63367 160.582C1.5409 158.151 -0.50682 153.931 0.112295 149.057C0.738986 144.123 4.06856 138.733 12.3446 133.971C22.1325 127.376 46.2972 112.583 64.7808 106.131L65.3525 107.769ZM77.1958 224.649C77.1957 224.649 77.1968 224.647 77.1992 224.643C77.1971 224.647 77.1959 224.649 77.1958 224.649ZM60.6665 237.798C60.6665 237.798 60.6655 237.797 60.6635 237.795C60.6656 237.797 60.6666 237.798 60.6665 237.798Z" fill="#001A39"/>
<path d="M261.204 66.8097L237.358 52.9698C231.455 49.5434 229.447 41.9837 232.873 36.0808C236.3 30.1779 243.859 28.1698 249.762 31.5962L252.234 33.0318L253.64 30.6073C257.066 24.7044 264.626 22.6963 270.528 26.1227C276.431 29.549 278.439 37.1087 275.013 43.0116L261.204 66.8097Z" fill="#FBC73B"/>
<path d="M291.763 65.3961L315.609 51.5562C321.511 48.1298 323.52 40.5701 320.093 34.6673C316.667 28.7644 309.107 26.7562 303.204 30.1826L300.732 31.6182L299.327 29.1937C295.9 23.2909 288.341 21.2827 282.438 24.7091C276.535 28.1355 274.527 35.6952 277.953 41.598L291.763 65.3961Z" fill="#FBC73B"/>
<path d="M277.68 59.5886L258.185 40.093C253.358 35.2657 253.358 27.4458 258.185 22.6185C263.012 17.7912 270.832 17.7912 275.659 22.6185L277.68 24.6396L279.663 22.6575C284.49 17.8303 292.31 17.8303 297.137 22.6575C301.964 27.4848 301.964 35.3047 297.137 40.132L277.68 59.5886Z" fill="#F96155"/>
<path d="M129.559 42.9714C129.559 42.9714 151.647 52.7915 156.439 68.7276C161.231 84.6636 144.264 101.501 144.264 101.501L91.2377 89.5145L129.559 42.9714Z" fill="#001A39"/>
<path d="M104.18 108.067L93.9044 67.431C93.9044 67.431 79.4385 63.4932 79.8097 53.6189C80.181 43.7446 90.6455 45.9233 90.6455 45.9233C90.6455 45.9233 92.5185 32.1185 106.158 28.2135C119.798 24.3085 130.721 38.646 132.016 49.8766C133.928 66.4666 128.65 75.7837 111.588 75.53L118.331 97.6357" fill="#FBC73B"/>
<path fill-rule="evenodd" clip-rule="evenodd" d="M129.599 57.7823L125.351 51.0288L126.819 50.105L131.067 56.8586L129.599 57.7823Z" fill="#001A39"/>
<path d="M101.35 96.8777C115.284 89.2785 96.578 42.523 96.578 42.523C113.251 48.0669 129.066 40.6415 129.066 40.6415C129.066 40.6415 119.916 18.3042 95.3187 26.4768C70.7215 34.6493 68.6244 51.9155 68.6244 51.9155C68.6244 51.9155 43.0908 64.1449 47.3406 85.974C51.5905 107.803 77.9276 117.3 77.9276 117.3C77.9276 117.3 90.2791 102.914 101.35 96.8777Z" fill="#001A39"/>
<path d="M128.728 48.9036C129.78 48.9165 130.65 47.6272 130.669 46.0236C130.689 44.4201 129.851 43.1099 128.799 43.097C127.746 43.0842 126.877 44.3734 126.857 45.977C126.837 47.5806 127.675 48.8907 128.728 48.9036Z" fill="#001A39"/>
<path d="M121.136 50.7329C122.189 50.7458 123.057 49.4558 123.077 47.8522C123.097 46.2487 122.26 44.9385 121.207 44.9257C120.154 44.9128 119.285 46.2021 119.265 47.8056C119.246 49.4092 120.083 50.7201 121.136 50.7329Z" fill="#001A39"/>
</svg>
