<svg width="690" height="540" viewBox="0 0 690 540" fill="none" xmlns="http://www.w3.org/2000/svg">
<path fill-rule="evenodd" clip-rule="evenodd" d="M534.152 289.386L553.044 306.596L545.313 363.052L594.829 334.849L646.132 359.651L634.607 303.842L674.046 262.715L617.413 256.427L590.48 206.209L570.658 250.049C569.696 254.791 568.078 261.281 565.644 269.896C575.952 252.307 591.56 228.96 571.534 276.277C569.653 279.467 567.018 286.977 571.534 291.493C581.351 298.037 592.297 308.279 557.545 296.892C553.38 295.527 548.845 294.081 544.006 292.538C540.845 291.53 537.555 290.481 534.152 289.386ZM557.244 259.886L556.218 260.071C555.87 261.388 555.495 262.78 555.091 264.251C555.783 262.821 556.505 261.355 557.244 259.886ZM545.991 261.911C545.931 262.027 545.872 262.143 545.812 262.258C545.463 262.935 545.119 263.601 544.783 264.251L541.328 262.75L545.991 261.911Z" fill="#FBC73B"/>
<path d="M638.921 47.712C604.862 40.8795 571.706 62.9574 564.878 97.0266C558.051 131.091 580.134 164.237 614.198 171.065C631.824 174.599 649.204 170.392 662.82 160.787C667.297 157.636 671.366 153.9 674.9 149.664C681.399 141.875 686.106 132.401 688.241 121.755C695.069 87.6908 672.986 54.5396 638.921 47.712ZM657.814 115.654C656.734 121.048 654.349 125.849 651.055 129.795C649.264 131.945 647.202 133.84 644.934 135.435C638.033 140.304 629.227 142.434 620.294 140.643C603.031 137.182 591.845 120.386 595.305 103.123C598.766 85.86 615.562 74.6738 632.825 78.1342C650.088 81.5946 661.274 98.3912 657.814 115.654Z" fill="#BACADF"/>
<path d="M579.25 149.979C585.675 143.966 593.45 141.963 602.094 142.14C611.95 142.341 620.913 146.121 630.199 148.982C644.522 153.4 663.783 153.856 672.735 139.425C676.216 133.815 677.516 126.541 674.905 120.322C672.318 114.157 666.512 110.584 660.445 108.444C653.411 105.965 645.872 105.086 638.98 102.181C631.328 98.9558 624.623 93.316 620.481 86.081C613.683 74.2027 614.031 54.7458 626.847 46.9512C627.47 46.5733 626.916 45.6211 626.278 45.9745C615.145 52.0903 612.72 65.5885 615.106 77.1969C618.012 91.3281 629.807 101.675 643.236 105.729C650.28 107.855 657.873 108.797 664.45 112.243C671.597 115.988 675.607 123.11 673.948 131.189C672.22 139.588 665.839 145.792 657.794 148.344C648.998 151.137 639.785 149.861 631.112 147.318C621.094 144.383 611.547 140.496 600.94 140.618C592.36 140.721 584.772 143.195 578.583 149.296C578.141 149.743 578.803 150.396 579.25 149.979Z" fill="white"/>
<path d="M645.705 49.0472C641.945 58.0787 644.291 67.3359 651.428 73.9426C655.389 77.6092 660.573 79.5726 665.658 81.1187C671.828 82.9937 678.341 85.3105 684.751 86.1056C685.355 86.1793 685.61 85.1926 685.065 84.9472C675.2 80.5198 663.252 80.4954 654.28 74.0163C651.031 71.6701 648.194 68.3127 646.495 64.6756C644.178 59.7083 644.483 54.2943 646.22 49.1945C646.333 48.8558 645.833 48.738 645.705 49.0472Z" fill="white"/>
<path d="M594.746 163.854C608.666 158.445 626.42 161.327 637.773 171.006C638.234 171.399 639.03 170.893 638.661 170.319C634.583 163.933 625.507 161.651 618.561 160.36C610.266 158.818 602.109 159.55 594.397 163.025C593.936 163.241 594.265 164.041 594.746 163.854Z" fill="white"/>
<path d="M585.685 61.8531C587.079 74.2468 587.683 86.8222 584.586 99.0244C583.064 105.023 580.811 110.834 577.743 116.214C574.774 121.421 570.896 125.716 567.274 130.428C566.906 130.904 567.622 131.587 568.098 131.253C572.796 127.955 576.413 122.472 579.255 117.583C582.446 112.1 584.807 106.107 586.358 99.9619C589.524 87.4062 589.106 74.345 586.495 61.7452C586.407 61.2936 585.631 61.3819 585.685 61.8531Z" fill="white"/>
<path d="M577.763 234.276C579.908 235.586 582.819 235.939 585.234 236.578C588.041 237.324 590.859 238.04 593.676 238.752C599.002 240.092 604.411 241.839 609.898 242.281C610.404 242.32 610.394 241.638 610.007 241.476C604.833 239.302 599.09 238.354 593.637 237.068C590.962 236.435 588.287 235.817 585.607 235.218C583.133 234.663 580.429 233.637 577.886 233.814C577.646 233.829 577.542 234.143 577.763 234.276Z" fill="white"/>
<path d="M541.892 268.831C543.708 269.744 545.79 270.117 547.753 270.598C550.61 271.295 553.466 271.982 556.318 272.684C563.867 274.549 571.446 276.301 579.005 278.127C595.139 282.024 611.307 285.828 627.485 289.549C633.306 290.889 639.118 292.263 645.013 293.274C645.523 293.363 645.739 292.646 645.229 292.484C632.943 288.567 620.142 286.074 607.591 283.158C591.448 279.408 575.299 275.712 559.145 272.001C555.739 271.221 552.328 270.45 548.926 269.665C546.678 269.145 544.337 268.394 542.02 268.369C541.784 268.364 541.671 268.718 541.892 268.831Z" fill="white"/>
<path d="M551.788 311.293C554.88 312.932 558.851 313.389 562.233 314.243C565.88 315.166 569.527 316.074 573.174 316.997C580.62 318.891 588.085 320.717 595.546 322.563C610.419 326.234 625.335 330.593 640.458 333.101C640.968 333.185 641.184 332.478 640.674 332.311C626.106 327.574 610.86 324.58 595.978 320.992C588.664 319.23 581.351 317.458 574.028 315.735C570.204 314.837 566.385 313.929 562.566 313.031C559.18 312.235 555.41 310.797 551.915 310.827C551.675 310.832 551.567 311.175 551.788 311.293Z" fill="white"/>
<path d="M596.94 218.892C592.832 233.843 589.16 248.927 585.41 263.986C579.491 287.782 573.424 311.553 567.794 335.418C566.538 340.744 565.139 346.982 563.926 351.895C563.715 352.744 565.031 353.108 565.242 352.259C568.82 337.725 572.909 322.033 576.565 307.111C582.401 283.29 588.243 259.47 594.005 235.63C595.335 230.137 596.548 224.63 597.745 219.118C597.863 218.588 597.083 218.367 596.94 218.892Z" fill="white"/>
<path d="M627.485 257.438C623.421 271.133 620.427 285.195 616.971 299.061C615.244 306.002 613.491 312.933 611.734 319.863C609.992 326.765 607.891 333.685 606.629 340.69C606.477 341.548 607.655 341.892 607.945 341.053C610.232 334.323 611.714 327.231 613.457 320.339C615.209 313.409 616.922 306.463 618.63 299.518C622.037 285.642 625.797 271.731 628.295 257.659C628.383 257.139 627.637 256.913 627.485 257.438Z" fill="white"/>
<path d="M450.611 469.898L438.527 495.388L483.021 540L407.682 510.741L430.457 461.731" fill="#FBC73B"/>
<path fill-rule="evenodd" clip-rule="evenodd" d="M451.781 500.965L435.416 505.171L435.05 503.745L451.414 499.539L451.781 500.965Z" fill="white"/>
<path fill-rule="evenodd" clip-rule="evenodd" d="M457.783 506.463L441.414 510.664L441.048 509.238L457.417 505.036L457.783 506.463Z" fill="white"/>
<path fill-rule="evenodd" clip-rule="evenodd" d="M463.781 511.959L447.412 516.161L447.046 514.735L463.415 510.533L463.781 511.959Z" fill="white"/>
<path d="M285.9 445.238L298.608 470.492L255.212 515.934L329.82 485.262L305.852 436.693" fill="#FBC73B"/>
<path fill-rule="evenodd" clip-rule="evenodd" d="M285.829 474.89L302.297 478.783L301.958 480.216L285.49 476.323L285.829 474.89Z" fill="white"/>
<path fill-rule="evenodd" clip-rule="evenodd" d="M279.963 480.5L296.431 484.393L296.092 485.826L279.625 481.934L279.963 480.5Z" fill="white"/>
<path fill-rule="evenodd" clip-rule="evenodd" d="M274.102 486.106L290.565 489.998L290.226 491.431L273.764 487.539L274.102 486.106Z" fill="white"/>
<path d="M280.726 458.697L233.174 375.76C222.503 357.147 224.667 333.322 238.49 317.335L286.98 261.242C305.582 239.724 332.112 227.929 359.644 228.94C388.132 229.985 414.716 244.622 432.003 268.791L480.793 336.984C490.516 350.57 493.417 368.314 488.572 384.536L456.962 490.352L401.969 465.014L427.213 374.695L354.323 297.132L294.146 353.996L333.084 432.825L280.726 458.697Z" fill="#001A39"/>
<path d="M372.121 316.177C380.637 311.185 392.186 307.293 401.655 311.882C409.39 315.632 414.323 323.275 419.168 330.038C429.162 343.988 441.83 357.25 459.819 359.165C469.494 360.195 480.96 358.021 488.514 351.522C489.226 350.909 488.317 349.858 487.547 350.266C483.119 352.602 478.928 354.929 474.014 356.146C469.155 357.349 464.075 357.614 459.108 356.995C449.497 355.793 441.025 351.08 433.977 344.587C427.473 338.594 422.462 331.422 417.21 324.369C412.807 318.454 407.741 312.397 400.619 309.767C390.955 306.198 380.048 310.434 371.728 315.519C371.311 315.77 371.694 316.427 372.121 316.177Z" fill="white"/>
<path d="M440.343 280.94C435.155 291.085 431.542 304.407 438.949 314.503C442.282 319.048 447.352 321.718 452.54 323.623C459.078 326.023 466.308 328.06 473.313 327.839C473.941 327.82 474.088 326.902 473.465 326.73C462.784 323.805 449.104 323.108 441.32 314.111C433.309 304.853 436.706 291.458 441.59 281.661C441.997 280.841 440.765 280.11 440.343 280.94Z" fill="white"/>
<path d="M412.723 425.752C418.564 430.67 420.395 438.691 420.204 446.029C419.983 454.658 416.1 462.138 412.473 469.771C412.178 470.389 413.008 471.194 413.504 470.566C423.065 458.432 427.296 435.706 413.268 425.05C412.866 424.741 412.335 425.428 412.723 425.752Z" fill="white"/>
<path d="M258.614 420.706C269.113 419.563 279.637 420.407 289.522 424.289C299.241 428.108 307.713 434.666 314.722 442.333C315.247 442.907 316.023 442.077 315.561 441.493C302.103 424.451 279.931 415.734 258.462 419.563C257.824 419.68 257.961 420.78 258.614 420.706Z" fill="white"/>
<path d="M303.707 373.782C297.454 379.672 292.428 388.694 296.237 397.332C298.004 401.338 301.558 403.968 305.479 405.677C310.211 407.738 315.831 409.289 321.034 408.951C321.756 408.907 321.991 407.812 321.211 407.63C313.549 405.834 302.795 405.009 298.407 397.337C293.827 389.327 298.681 380.33 304.527 374.607C305.067 374.076 304.252 373.266 303.707 373.782Z" fill="white"/>
<path d="M319.233 237.25C326.001 240.646 333.143 243.375 340.339 245.722C347.294 247.989 354.573 249.796 361.941 249.535C371.085 249.211 385.182 245.628 386.591 234.604C386.689 233.838 385.54 233.627 385.197 234.226C383.945 236.425 383.027 238.619 381.201 240.455C379.518 242.148 377.486 243.444 375.316 244.421C370.241 246.703 364.311 247.562 358.79 247.381C345.228 246.944 332.127 241.024 319.566 236.459C319.105 236.292 318.796 237.029 319.233 237.25Z" fill="white"/>
<path d="M267.022 284.444C273.246 287.615 280.093 289.642 286.921 291.026C293.277 292.317 300.046 293.387 306.544 292.837C312.007 292.376 317.377 290.417 320.745 285.882C324.259 281.145 323.135 276.61 321.79 271.344C320.921 267.952 320.902 264.516 324.72 263.024C328.063 261.718 332.225 261.959 335.686 262.587C342.813 263.888 349.223 267.432 355.555 270.769C361.327 273.813 367.266 276.816 373.755 277.955C379.665 278.996 385.742 278.598 391.548 277.15C398.39 275.442 404.879 272.335 410.75 268.462C415.702 265.198 419.879 261.306 421.43 255.396C421.72 254.297 420.105 253.87 419.742 254.93C417.833 260.565 413.533 264.094 408.664 267.191C403.314 270.593 397.512 273.312 391.362 274.902C384.986 276.551 378.286 276.934 371.851 275.364C365.47 273.808 359.683 270.588 353.91 267.559C348.31 264.619 342.508 261.757 336.23 260.604C331.69 259.769 325.093 259.205 321.329 262.548C317.367 266.062 319.665 271.285 320.661 275.565C322.153 282 318.079 287.472 312.057 289.583C304.974 292.067 296.418 290.79 289.198 289.583C281.693 288.326 274.547 286.074 267.341 283.693C266.899 283.556 266.61 284.233 267.022 284.444Z" fill="white"/>
<path d="M422.648 392.076C431.591 387.187 440.343 381.842 450.635 380.354C455.701 379.623 461.041 380.153 465.307 383.196C469.857 386.441 471.418 391.614 470.024 396.959C468.669 402.157 465.493 406.84 462.867 411.464C460.163 416.225 457.453 420.981 454.744 425.737C450.316 433.517 445.629 442.274 446.674 451.541C447.681 460.44 454.543 468.465 462.308 472.51C463.01 472.878 463.535 471.92 462.916 471.469C454.852 465.544 447.671 457.598 448.486 446.907C449.31 436.079 456.457 426.135 461.655 416.956C464.354 412.19 467.324 407.488 469.656 402.526C471.56 398.471 472.983 393.867 471.732 389.405C469.449 381.243 460.339 377.954 452.638 378.548C447.097 378.975 441.668 380.796 436.578 382.946C431.454 385.11 426.344 387.751 422.182 391.487C421.858 391.776 422.28 392.277 422.648 392.076Z" fill="white"/>
<path d="M242.559 394.913C249.396 397.863 260.018 399.728 265.098 392.64C268.239 388.261 267.351 382.686 265.486 377.983C263.199 372.211 259.758 366.959 257.309 361.251C252.498 350.045 250.083 335.668 258.275 325.336C264.362 317.659 274.836 314.93 284.256 315.583C297.135 316.476 308.13 324.055 317.657 332.163C318.271 332.684 319.091 331.884 318.546 331.275C305.553 316.825 282.523 306.934 264.19 317.546C255.173 322.764 250.692 332.492 250.82 342.726C250.893 348.818 252.469 354.772 254.746 360.392C257.043 366.066 260.239 371.259 262.781 376.805C265.623 382.995 267.022 391.756 259.237 394.868C254.128 396.91 248.002 395.624 243.064 393.705C242.377 393.445 241.876 394.618 242.559 394.913Z" fill="white"/>
<path d="M392.972 137.781C398.69 167.492 379.238 196.211 349.527 201.929C319.817 207.647 291.098 188.195 285.379 158.485" fill="#001A39"/>
<path d="M61.8706 165.126C25.784 162.623 -1.44282 131.341 1.05556 95.2549C3.55884 59.1683 34.84 31.9415 70.9266 34.4398" fill="#F96155"/>
<path d="M305.548 103.957C305.661 118.093 317.21 129.456 331.346 129.338C343.843 129.235 354.17 120.199 356.32 108.34C356.6 106.784 356.742 105.184 356.728 103.545C356.615 89.4135 345.065 78.0457 330.929 78.1635C323.576 78.2224 316.975 81.3736 312.346 86.3802C308.08 90.9941 305.494 97.1836 305.548 103.957Z" fill="#FBC73B"/>
<path d="M312.346 86.3752C319.321 99.8734 333.462 109.047 349.694 108.919C351.947 108.9 354.161 108.704 356.316 108.34C356.595 106.784 356.738 105.184 356.723 103.545C356.61 89.4135 345.061 78.0457 330.925 78.1635C323.577 78.2175 316.975 81.3736 312.346 86.3752Z" fill="#001A39"/>
<path d="M341.649 79.6854C347.036 79.6854 351.402 75.3189 351.402 69.9325C351.402 64.5461 347.036 60.1794 341.649 60.1794C336.263 60.1794 331.896 64.5461 331.896 69.9325C331.896 75.3189 336.263 79.6854 341.649 79.6854Z" fill="#001A39"/>
<path d="M328.809 62.501C344.139 62.501 356.566 50.0739 356.566 34.7441C356.566 19.4143 344.139 6.98706 328.809 6.98706C313.479 6.98706 301.052 19.4143 301.052 34.7441C301.052 50.0739 313.479 62.501 328.809 62.501Z" fill="#001A39"/>
<path d="M319.8 112.483C319.902 110.279 318.844 108.439 317.435 108.374C316.027 108.308 314.803 110.042 314.701 112.246C314.598 114.45 315.657 116.29 317.065 116.356C318.473 116.421 319.697 114.687 319.8 112.483Z" fill="#001A39"/>
<path d="M328.255 113.156C328.358 110.952 327.299 109.112 325.891 109.046C324.483 108.981 323.258 110.715 323.156 112.919C323.054 115.123 324.112 116.963 325.52 117.029C326.928 117.094 328.153 115.36 328.255 113.156Z" fill="#001A39"/>
<path fill-rule="evenodd" clip-rule="evenodd" d="M316.505 122.552C316.505 122.552 316.504 122.552 316.317 121.588C316.131 120.625 316.13 120.625 316.13 120.625L316.129 120.625L316.128 120.625L316.127 120.625C316.127 120.625 316.127 120.625 316.129 120.625C316.133 120.624 316.14 120.623 316.15 120.62C316.171 120.616 316.207 120.607 316.254 120.595C316.348 120.571 316.488 120.531 316.659 120.471C317.005 120.351 317.456 120.159 317.898 119.868C318.767 119.298 319.552 118.396 319.528 116.882L321.491 116.85C321.53 119.234 320.219 120.693 318.976 121.509C318.362 121.912 317.754 122.169 317.303 122.326C317.076 122.405 316.885 122.46 316.747 122.496C316.677 122.513 316.621 122.527 316.58 122.536C316.56 122.541 316.543 122.544 316.53 122.547L316.514 122.55L316.508 122.551L316.506 122.552L316.505 122.552Z" fill="#001A39"/>
<path fill-rule="evenodd" clip-rule="evenodd" d="M142.767 51.0814L144.505 50.5684L200.284 119.229L266.207 150.145L265.373 151.923L199.247 120.912L198.902 120.642L144.465 53.6329L140.291 92.0778C140.327 92.1549 140.371 92.25 140.423 92.3621C140.583 92.7092 140.821 93.2206 141.13 93.8762C141.746 95.1875 142.645 97.0754 143.77 99.3793C146.022 103.988 149.18 110.258 152.809 116.906C156.439 123.556 160.533 130.571 164.654 136.676C168.79 142.801 172.903 147.934 176.563 150.883C180.246 153.85 187.119 157.64 195.449 161.677C203.751 165.701 213.415 169.932 222.617 173.786C231.817 177.639 240.546 181.113 246.976 183.623C250.191 184.878 252.83 185.893 254.665 186.593C255.583 186.943 256.3 187.215 256.787 187.399C257.03 187.491 257.216 187.561 257.341 187.608L257.527 187.678L257.53 187.678C257.53 187.679 257.53 187.679 257.186 188.598C256.841 189.517 256.841 189.517 256.841 189.517L256.838 189.516L256.65 189.445C256.524 189.398 256.337 189.328 256.093 189.235C255.604 189.05 254.885 188.778 253.965 188.427C252.126 187.725 249.482 186.709 246.262 185.452C239.822 182.938 231.077 179.458 221.858 175.597C212.641 171.736 202.94 167.49 194.592 163.444C186.272 159.411 179.209 155.536 175.331 152.412C171.432 149.27 167.183 143.931 163.027 137.775C158.858 131.599 154.731 124.525 151.086 117.846C147.439 111.165 144.267 104.868 142.006 100.241C140.876 97.9275 139.973 96.0308 139.353 94.7119C139.043 94.0525 138.803 93.5374 138.641 93.1868C138.56 93.0116 138.498 92.8774 138.456 92.7868L138.409 92.6841L138.393 92.6493C138.393 92.6489 138.393 92.6486 139.286 92.2412L138.393 92.6486L138.31 92.1352L142.767 51.0814Z" fill="#001A39"/>
<path fill-rule="evenodd" clip-rule="evenodd" d="M205.825 239.064L260.449 190.919L261.747 192.392L206.954 240.686L206.569 240.895L122.297 264.435L132.097 284.134C132.171 284.132 132.253 284.13 132.34 284.127C132.909 284.112 133.745 284.088 134.815 284.055C136.956 283.988 140.034 283.882 143.782 283.726C151.279 283.416 161.451 282.908 172.159 282.119C182.869 281.33 194.101 280.261 203.72 278.828C213.388 277.388 221.277 275.6 225.409 273.434C229.598 271.239 235.813 266.446 242.835 260.415C249.834 254.405 257.565 247.227 264.767 240.323C271.968 233.42 278.632 226.798 283.497 221.901C285.929 219.453 287.911 217.436 289.285 216.032C289.972 215.33 290.507 214.781 290.869 214.407C291.051 214.221 291.189 214.078 291.282 213.982L291.421 213.839L291.422 213.837C291.423 213.837 291.423 213.837 292.129 214.519C292.835 215.201 292.834 215.201 292.834 215.202L292.692 215.348C292.599 215.445 292.459 215.588 292.277 215.776C291.913 216.15 291.377 216.701 290.689 217.405C289.312 218.812 287.326 220.832 284.89 223.285C280.018 228.189 273.341 234.823 266.126 241.74C258.912 248.656 251.152 255.861 244.114 261.905C237.1 267.929 230.732 272.862 226.321 275.173C221.854 277.515 213.647 279.335 204.009 280.77C194.321 282.213 183.035 283.287 172.303 284.078C161.568 284.868 151.374 285.377 143.863 285.688C140.108 285.844 137.023 285.95 134.877 286.017C133.803 286.051 132.964 286.074 132.394 286.09C132.108 286.098 131.89 286.103 131.743 286.107L131.52 286.113C131.52 286.113 131.519 286.113 131.496 285.131L131.519 286.113L130.617 285.568L120.01 264.246L120.625 262.864L205.825 239.064Z" fill="#001A39"/>
<path d="M68.8799 2.11787C103.892 -6.97249 139.649 14.0404 148.74 49.052C157.83 84.0637 136.817 119.821 101.805 128.912" fill="#F96155"/>
<path d="M69.3414 47.9035C52.7461 51.3393 36.1313 54.7016 19.6096 58.5007C17.445 59.0014 14.5098 59.8848 12.7182 60.2775C11.8789 60.464 12.2323 61.7501 13.0716 61.5636C18.9126 60.2776 26.0592 59.021 32.2978 57.6368C42.4532 55.379 52.5842 53.0181 62.7151 50.6522C65.027 50.1123 67.3389 49.5723 69.6507 49.0324C70.3919 48.8606 70.0777 47.7513 69.3414 47.9035Z" fill="white"/>
<path d="M5.01167 74.5463C15.7169 76.0139 26.6773 76.22 37.4512 76.8581C43.837 77.236 50.2229 77.6828 56.6087 78.0558C60.2066 78.2669 63.8634 78.046 67.4465 78.2963C68.0453 78.3405 68.0404 77.4078 67.4465 77.3637C64.3198 77.1428 60.5845 76.4164 57.2616 76.171C50.8266 75.6948 44.3819 75.3168 37.9371 75.0076C27.0503 74.4873 16.0163 73.4959 5.10981 73.81C4.71223 73.8198 4.57482 74.4874 5.01167 74.5463Z" fill="white"/>
<path d="M65.2626 114.844C46.753 113.229 28.2335 111.644 9.69447 110.407C7.07339 110.23 4.41311 110.343 1.79693 110.152C1.12448 110.103 1.12939 111.148 1.79693 111.197C8.54107 111.703 16.1588 112.636 23.2024 113.141C34.585 113.956 45.9725 114.79 57.3649 115.497C59.9958 115.659 62.6317 115.826 65.2626 115.988C66.0087 116.042 65.9939 114.908 65.2626 114.844Z" fill="white"/>
<path d="M19.0496 145.404C24.1936 144.707 29.2788 143.406 34.3541 142.321C42.556 140.574 50.7824 138.856 58.9352 136.903C60.2851 136.579 61.6447 136.299 62.9847 135.945C63.4313 135.828 64.5211 135.44 64.5211 135.44C65.4733 135.229 65.0708 133.761 64.1185 133.977C64.3394 133.928 63.1172 134.061 62.8571 134.105C61.7428 134.296 60.6335 134.586 59.5291 134.817C55.9607 135.567 52.4071 136.382 48.8534 137.197C40.676 139.067 32.4986 140.932 24.3409 142.876C22.4658 143.323 20.6007 143.779 18.7601 144.363C18.0778 144.579 18.3771 145.497 19.0496 145.404Z" fill="white"/>
<path d="M104.51 2.38782C102.767 2.30928 100.912 3.05537 99.2429 3.50203C95.434 4.52298 91.6398 5.58807 87.8407 6.65319C84.0465 7.71831 80.2473 8.79334 76.4727 9.937C75.2604 10.3051 74.0579 10.7125 72.8455 11.1002C72.4921 11.2131 72.1191 11.3014 71.7804 11.4438C71.5792 11.5272 70.8429 11.8365 71.5006 11.65C70.6318 11.9004 71.0048 13.2551 71.8736 13.0047C71.1914 13.2011 71.9914 13.0686 72.2123 13.0293C72.5755 12.9655 72.9387 12.8477 73.297 12.7544C74.5241 12.4354 75.761 12.1457 76.9832 11.8119C80.7872 10.7713 84.5716 9.667 88.356 8.54788C92.1403 7.42877 95.9198 6.3146 99.6895 5.15131C101.339 4.64084 103.312 4.28742 104.745 3.29592C105.143 3.01614 105.005 2.41236 104.51 2.38782Z" fill="white"/>
<path d="M140.901 30.4393C127.143 33.782 113.35 36.987 99.5819 40.2757C93.0979 41.8267 86.663 43.687 80.1888 45.2037C79.3544 45.4001 79.7078 46.6861 80.5422 46.4898C86.5452 45.0811 93.7458 43.6772 100.092 42.1311C113.846 38.7884 127.54 35.2298 141.21 31.5682C141.941 31.3767 141.632 30.2626 140.901 30.4393Z" fill="white"/>
<path d="M88.6015 80.2204C95.3505 81.4083 102.252 81.8942 109.055 82.6746C115.451 83.406 121.851 84.1226 128.247 84.8638C132.88 85.3988 137.504 85.924 142.142 86.3609C143.841 86.5179 145.971 86.4737 147.497 86.6651C148.091 86.7387 148.086 85.8062 147.497 85.7326C145.858 85.5264 143.733 84.9473 141.936 84.6773C137.504 84.0147 133.062 83.4699 128.6 82.9692C122.376 82.2673 116.152 81.6047 109.919 81.0107C102.89 80.3432 95.7678 79.4744 88.6997 79.4793C88.2923 79.4842 88.1744 80.1419 88.6015 80.2204Z" fill="white"/>
<path d="M121.35 119.674C117.615 119.178 113.885 118.732 110.14 118.329C107.602 118.059 105.069 117.75 102.527 117.554C101.442 117.47 99.6994 117.627 98.9288 117.549C98.2563 117.485 98.2612 118.53 98.9288 118.594C99.6601 118.663 101.295 119.144 102.34 119.267C104.932 119.576 107.538 119.767 110.14 119.988C113.875 120.312 117.61 120.587 121.35 120.818C122.106 120.872 122.062 119.767 121.35 119.674Z" fill="white"/>
<path d="M149.858 81.6096C149.858 81.6096 134.039 56.1546 136.189 52.7531C138.339 49.3565 154.222 67.709 154.222 67.709" fill="white"/>
<path fill-rule="evenodd" clip-rule="evenodd" d="M137.005 53.3155C137.059 53.3147 137.159 53.3227 137.319 53.3668C137.795 53.4982 138.481 53.8584 139.353 54.4636C141.073 55.6567 143.211 57.5834 145.323 59.6577C147.426 61.7224 149.465 63.8961 150.982 65.5564C151.739 66.3859 152.364 67.0858 152.8 67.5779C153.018 67.8239 153.188 68.0178 153.304 68.15C153.362 68.2161 153.406 68.2668 153.436 68.3008L153.469 68.3391L153.479 68.3508L153.479 68.3513C153.48 68.3514 153.48 68.3514 154.222 67.709C154.964 67.0666 154.964 67.0664 154.964 67.0662L154.917 67.0121C154.886 66.9768 154.841 66.9248 154.782 66.8574C154.664 66.7224 154.491 66.5254 154.27 66.2762C153.829 65.7779 153.197 65.0705 152.431 64.2325C150.902 62.5579 148.836 60.3558 146.699 58.2569C144.572 56.1676 142.336 54.1431 140.473 52.8504C139.553 52.2127 138.646 51.6964 137.842 51.4743C137.436 51.3622 136.981 51.3033 136.532 51.4031C136.048 51.5107 135.636 51.7904 135.359 52.2281L135.359 52.2286C135.084 52.6623 135.009 53.1726 135.006 53.6319C135.003 54.1055 135.078 54.6318 135.2 55.1824C135.445 56.2847 135.911 57.6182 136.51 59.071C137.711 61.9846 139.506 65.5217 141.354 68.9253C143.206 72.3348 145.123 75.6347 146.576 78.0806C147.303 79.304 147.914 80.3148 148.344 81.0202C148.559 81.3729 148.729 81.6493 148.845 81.8377C148.903 81.932 148.948 82.0042 148.978 82.053L149.024 82.1274C149.024 82.1276 149.024 82.1278 149.858 81.6096C150.692 81.0914 150.692 81.0914 150.692 81.0912L150.648 81.0199C150.618 80.9722 150.574 80.9011 150.517 80.8081C150.402 80.622 150.234 80.3482 150.021 79.9982C149.594 79.2982 148.986 78.2938 148.264 77.0777C146.818 74.6445 144.915 71.368 143.08 67.9885C141.242 64.6032 139.486 61.1388 138.325 58.3229C137.743 56.911 137.326 55.6977 137.117 54.7569C137.012 54.2859 136.968 53.9166 136.969 53.6436C136.97 53.466 136.991 53.3648 137.005 53.3155Z" fill="#001A39"/>
<path d="M522.555 64.8818L478.896 103.956L407.684 122.632L408.182 124.531L479.623 105.795L480.029 105.577L524.266 65.9848L522.555 64.8818Z" fill="#001A39"/>
<path d="M550.795 83.0802L549.14 82.0142C548.116 83.3887 546.729 85.2373 545.057 87.4314C541.307 92.3522 536.13 99.0086 530.417 105.954C524.701 112.9 518.459 120.125 512.577 126.188C506.673 132.274 501.21 137.106 497.05 139.352C492.854 141.617 485.328 144.122 476.306 146.61C467.314 149.091 456.926 151.531 447.065 153.684C437.206 155.836 427.883 157.698 421.024 159.022C417.595 159.684 414.782 160.211 412.827 160.573C411.85 160.754 411.087 160.894 410.569 160.988C410.309 161.035 410.111 161.071 409.978 161.095L409.78 161.131L409.778 161.131C409.778 161.131 409.777 161.131 409.95 162.097C410.123 163.064 410.124 163.064 410.124 163.064L410.126 163.063L410.327 163.027C410.461 163.003 410.66 162.967 410.92 162.92C411.44 162.825 412.205 162.685 413.185 162.504C415.144 162.141 417.962 161.613 421.396 160.95C428.265 159.623 437.604 157.758 447.483 155.602C457.361 153.446 467.788 150.997 476.829 148.503C485.84 146.017 493.566 143.463 497.982 141.08C502.433 138.677 508.077 133.647 513.987 127.555C519.92 121.438 526.201 114.168 531.933 107.201C537.666 100.232 542.859 93.555 546.619 88.6213C548.339 86.3635 549.759 84.4702 550.795 83.0802Z" fill="#001A39"/>
<path fill-rule="evenodd" clip-rule="evenodd" d="M483.156 39.4923L496.45 18.8623L536.714 44.8089C533.35 50.5757 527.049 61.8818 526.11 67.1731L483.156 39.4923ZM529.293 69.2239L532.381 71.2141C534.127 67.0785 537.837 61.5742 541.196 56.9992C537.262 61.8122 532.466 67.2201 529.293 69.2239ZM553.453 55.596C549.733 60.7323 542.724 70.0224 537.56 74.5515L542.384 77.6603C543.193 72.5721 549.909 61.4944 553.604 55.6934L553.453 55.596ZM561.757 60.9471C558.195 65.8465 549.974 76.7554 545.395 79.6004L604.068 117.411L617.363 96.7808L561.757 60.9471Z" fill="#194D87"/>
<path fill-rule="evenodd" clip-rule="evenodd" d="M537.983 40.7547C537.983 40.7544 537.983 40.7542 538.82 41.2672C539.657 41.7802 539.657 41.7802 539.657 41.7803L539.612 41.8535C539.582 41.9026 539.538 41.9757 539.48 42.0714C539.364 42.2627 539.194 42.5442 538.979 42.9037C538.548 43.6226 537.937 44.653 537.216 45.8971C535.773 48.3866 533.891 51.7257 532.131 55.1341C530.367 58.5515 528.744 62.002 527.802 64.7246C527.328 66.0942 527.048 67.2177 526.986 68.0336C526.956 68.4414 526.985 68.714 527.033 68.8798C527.056 68.9579 527.079 68.9976 527.09 69.0138C527.095 69.0217 527.099 69.0248 527.099 69.0253C527.104 69.0282 527.357 69.1472 528.169 68.7368C528.908 68.3636 529.835 67.6862 530.904 66.7505C533.032 64.8889 535.545 62.1662 537.965 59.3357C538.804 58.3546 539.629 57.3643 540.42 56.3975C541.746 54.5924 543.016 52.9333 544.09 51.5597C545.005 50.3881 545.779 49.4226 546.325 48.7495C546.598 48.4129 546.814 48.1494 546.962 47.9696C547.035 47.8797 547.092 47.8108 547.131 47.7641L547.175 47.711L547.19 47.6928C547.19 47.6925 547.191 47.6924 547.945 48.3206C548.737 48.9007 548.737 48.9009 548.736 48.9011L548.685 48.9712C548.651 49.017 548.601 49.0846 548.536 49.1725C548.406 49.3484 548.215 49.6054 547.971 49.9314C547.482 50.5833 546.781 51.5113 545.927 52.6173C544.821 54.0491 543.459 55.7815 541.972 57.6006C541.058 58.8463 540.118 60.1603 539.2 61.4956C536.949 64.7702 534.856 68.1349 533.582 70.9208C532.943 72.3191 532.537 73.5151 532.399 74.4497C532.257 75.4154 532.431 75.8676 532.625 76.0682C532.713 76.1597 532.951 76.3326 533.761 75.9997C534.551 75.6747 535.573 74.974 536.775 73.9332C539.161 71.8678 542.002 68.6925 544.75 65.3397C547.49 61.9971 550.106 58.518 552.038 55.8717C553.004 54.5493 553.798 53.4365 554.35 52.6547C554.626 52.2638 554.842 51.9558 554.988 51.7459C555.061 51.6409 555.117 51.5604 555.155 51.5064L555.197 51.4454L555.21 51.4256C555.211 51.4254 555.211 51.4254 556.019 51.9823C556.834 52.5299 556.834 52.53 556.834 52.5301L556.787 52.5994C556.756 52.6459 556.71 52.7153 556.649 52.8061C556.529 52.9878 556.352 53.2552 556.127 53.5969C555.679 54.2805 555.041 55.2613 554.287 56.4484C552.778 58.8237 550.805 62.0189 548.943 65.3076C547.076 68.6047 545.34 71.9612 544.29 74.6681C543.763 76.0278 543.43 77.1698 543.323 78.0321C543.206 78.9697 543.394 79.241 543.44 79.2822C543.44 79.2824 543.441 79.2827 543.441 79.283C543.446 79.2883 543.467 79.3104 543.571 79.3077C543.706 79.3043 543.933 79.2553 544.269 79.0998C544.943 78.7876 545.816 78.1594 546.846 77.2455C548.891 75.4322 551.329 72.699 553.689 69.828C556.042 66.966 558.289 64.003 559.949 61.7528C560.779 60.6283 561.461 59.6834 561.936 59.02C562.173 58.6883 562.358 58.4271 562.484 58.2492C562.547 58.1602 562.595 58.092 562.627 58.0462L562.663 57.9946L562.674 57.9786L562.675 57.9779C562.675 57.9778 562.675 57.9778 563.48 58.5399C564.285 59.1021 564.285 59.1023 564.284 59.1025L564.284 59.1035L564.234 59.1746C564.201 59.2218 564.152 59.2914 564.088 59.3819C563.96 59.5628 563.773 59.8272 563.533 60.1622C563.054 60.8322 562.366 61.7852 561.529 62.9186C559.857 65.1841 557.588 68.1768 555.205 71.0748C552.83 73.9638 550.313 76.7949 548.149 78.7144C547.075 79.667 546.031 80.4473 545.094 80.8813C544.211 81.2904 543.037 81.5549 542.132 80.7462C541.302 80.0045 541.247 78.8126 541.374 77.7891C541.511 76.6903 541.911 75.3732 542.46 73.9581C543.21 72.0241 544.279 69.8063 545.478 67.5407C542.954 70.5684 540.339 73.4448 538.06 75.4176C536.81 76.4993 535.596 77.3679 534.507 77.8156C533.437 78.2553 532.151 78.4042 531.212 77.4319C530.379 76.5686 530.284 75.3344 530.457 74.1636C530.634 72.9616 531.126 71.5709 531.797 70.1044C532.208 69.2059 532.695 68.2578 533.239 67.2801C532.885 67.6139 532.537 67.9309 532.197 68.2282C531.084 69.202 530.012 70.0055 529.055 70.489C528.172 70.9353 527.035 71.2863 526.077 70.7015C525.072 70.0883 524.955 68.8628 525.029 67.886C525.109 66.8165 525.454 65.5038 525.946 64.0824C526.936 61.2227 528.612 57.6711 530.387 54.2333C532.167 50.7865 534.065 47.4174 535.518 44.9124C536.244 43.6592 536.86 42.6209 537.294 41.8953C537.511 41.5325 537.683 41.2479 537.801 41.0536C537.86 40.9565 537.905 40.882 537.936 40.8316L537.983 40.7547ZM556.019 51.9823L556.834 52.5301L555.21 51.4256L556.019 51.9823ZM547.945 48.3206L548.736 48.9011L547.191 47.6924L547.945 48.3206Z" fill="#001A39"/>
<path d="M169.419 299.542L37.8197 215.049L26.4961 369.742L169.419 299.542Z" fill="#194D87"/>
<path d="M30.6382 311.975C36.6706 313.939 42.9632 314.95 49.1772 316.153C55.7005 317.419 62.1992 318.779 68.6733 320.276C74.9954 321.738 81.2732 323.353 87.5314 325.061C90.7366 325.935 93.927 326.863 97.1077 327.83C100.406 328.831 103.729 330.181 107.15 330.662C107.808 330.755 108.343 329.862 107.641 329.493C104.799 327.991 101.574 327.226 98.5115 326.308C95.4781 325.4 92.4398 324.531 89.3966 323.667C82.8537 321.807 76.2617 320.123 69.6403 318.572C63.171 317.056 56.6674 315.676 50.1343 314.484C43.7239 313.31 37.2498 312.51 30.8787 311.116C30.3142 310.989 30.0884 311.794 30.6382 311.975Z" fill="white"/>
<path d="M142.035 312.957C133.406 300.136 119.392 290.565 105.914 283.448C92.0326 276.119 76.9541 271.088 61.5515 268.138C57.3941 267.343 53.217 266.666 49.0154 266.145C44.0531 265.532 38.8305 264.899 33.8779 265.88C33.1416 266.028 33.3577 267.098 34.0497 267.137C38.2661 267.373 42.4775 267.319 46.6889 267.746C50.8266 268.168 54.9497 268.781 59.0433 269.518C66.3322 270.828 73.5477 272.644 80.601 274.902C94.963 279.501 108.692 286.137 120.973 294.919C128.379 300.215 135.678 306.164 141.264 313.408C141.603 313.85 142.363 313.448 142.035 312.957Z" fill="white"/>
<path d="M102.723 256.609C92.666 266.72 82.5695 276.527 74.5442 288.41C66.6613 300.082 61.0853 313.252 59.8877 327.383C59.225 335.197 59.1073 344.798 62.8524 351.935C63.2058 352.607 64.163 352.121 64.0206 351.444C63.0193 346.575 61.7922 341.912 61.5419 336.915C61.3014 332.154 61.5517 327.383 62.3027 322.671C63.7016 313.89 66.7889 305.506 71.0543 297.721C79.5016 282.304 92.0132 270.416 103.357 257.237C103.725 256.81 103.136 256.196 102.723 256.609Z" fill="white"/>
<path d="M35.4143 251.317C40.5043 248.093 45.3145 244.451 50.3849 241.196C52.8686 239.601 55.3914 238.075 57.9438 236.592C60.3587 235.193 63.2842 234.153 65.3261 232.239C65.8218 231.777 65.2966 231.051 64.7027 231.168C61.9736 231.728 59.4164 233.652 57.0162 235.007C54.3215 236.533 51.6709 238.138 49.0597 239.807C44.0629 243.013 39.1005 246.419 34.8694 250.616C34.5209 250.969 34.9775 251.592 35.4143 251.317Z" fill="white"/>
<path d="M136.037 274.034C136.037 274.034 106.243 270.75 104.903 266.96C103.563 263.171 127.805 262.018 127.805 262.018" fill="white"/>
<path fill-rule="evenodd" clip-rule="evenodd" d="M105.849 266.666C105.882 266.623 105.95 266.549 106.084 266.45C106.482 266.157 107.189 265.84 108.204 265.528C110.205 264.913 113.041 264.421 115.977 264.042C118.899 263.664 121.869 263.403 124.111 263.236C125.231 263.153 126.168 263.094 126.824 263.055C127.152 263.035 127.41 263.021 127.585 263.012C127.673 263.007 127.74 263.004 127.785 263.002L127.852 262.998C127.852 262.998 127.852 262.998 127.805 262.018C127.758 261.037 127.758 261.037 127.758 261.037L127.74 261.038L127.686 261.041C127.64 261.043 127.571 261.047 127.481 261.051C127.302 261.061 127.04 261.075 126.708 261.095C126.044 261.134 125.097 261.194 123.965 261.278C121.704 261.446 118.696 261.711 115.725 262.095C112.768 262.477 109.795 262.985 107.627 263.651C106.558 263.98 105.591 264.375 104.919 264.87C104.58 265.12 104.253 265.442 104.054 265.856C103.839 266.302 103.804 266.799 103.977 267.288C104.148 267.772 104.503 268.147 104.862 268.433C105.232 268.727 105.692 268.994 106.2 269.238C107.218 269.726 108.554 270.183 110.066 270.609C113.098 271.464 116.989 272.237 120.807 272.886C124.632 273.536 128.412 274.067 131.233 274.435C132.644 274.619 133.817 274.762 134.638 274.86C135.048 274.909 135.37 274.946 135.59 274.971C135.7 274.984 135.784 274.993 135.841 275L135.928 275.009C135.929 275.009 135.929 275.009 136.036 274.034C136.144 273.058 136.144 273.058 136.144 273.058L136.06 273.049C136.005 273.042 135.922 273.033 135.813 273.021C135.596 272.996 135.277 272.959 134.869 272.91C134.055 272.814 132.89 272.671 131.487 272.488C128.68 272.122 124.928 271.595 121.136 270.95C117.339 270.305 113.53 269.546 110.599 268.72C109.129 268.305 107.918 267.884 107.05 267.467C106.615 267.259 106.297 267.066 106.084 266.896C105.946 266.786 105.879 266.708 105.849 266.666Z" fill="#001A39"/>
<path d="M134.756 118.599C134.976 118.599 134.976 118.256 134.756 118.256C134.535 118.256 134.535 118.599 134.756 118.599Z" fill="white"/>
<path fill-rule="evenodd" clip-rule="evenodd" d="M409.651 180.078L410.935 178.593L472.422 231.751L544.332 262.985C544.532 262.598 544.734 262.206 544.939 261.81C546.862 258.082 548.961 254.013 550.937 250.396C553.253 246.158 555.459 242.426 557.046 240.614C557.443 240.162 557.859 239.759 558.282 239.509C558.684 239.272 559.396 239.013 560.06 239.489C560.599 239.876 560.763 240.544 560.83 241.049C560.907 241.622 560.899 242.353 560.825 243.233C560.62 245.655 559.864 249.597 558.414 255.457C559.645 253.108 560.89 250.821 562.094 248.726C563.407 246.444 564.679 244.379 565.836 242.709C566.977 241.061 568.057 239.722 568.994 238.96C569.446 238.592 569.998 238.245 570.602 238.189C570.931 238.159 571.276 238.215 571.594 238.397C571.905 238.575 572.126 238.834 572.282 239.108C572.578 239.627 572.705 240.316 572.749 241.073C572.795 241.856 572.756 242.831 572.636 244.003C572.246 247.796 570.962 253.972 568.496 263.228C569.989 260.794 571.495 258.413 572.911 256.276C574.217 254.305 575.453 252.533 576.538 251.113C577.604 249.717 578.578 248.59 579.356 247.976C579.557 247.817 579.771 247.672 579.992 247.564C580.205 247.46 580.492 247.358 580.818 247.369C581.185 247.382 581.532 247.538 581.785 247.831C582.01 248.091 582.108 248.397 582.154 248.647C582.245 249.138 582.2 249.758 582.087 250.447C581.969 251.161 581.76 252.046 581.456 253.113C580.246 257.367 577.445 264.83 572.438 276.659L572.413 276.719L572.38 276.775C571.493 278.279 570.421 280.824 570.11 283.501C569.804 286.142 570.25 288.77 572.162 290.732C574.611 292.368 577.145 294.244 579.039 295.974C579.993 296.846 580.818 297.71 581.386 298.512C581.67 298.913 581.911 299.327 582.065 299.741C582.219 300.152 582.31 300.623 582.216 301.104C582.003 302.202 581.022 302.696 580.006 302.879C578.964 303.067 577.516 303.018 575.631 302.744C571.837 302.193 565.939 300.676 557.24 297.825C553.085 296.463 548.558 295.02 543.725 293.479C523.327 286.975 497.472 278.731 471.143 267.578C438.575 253.783 405.186 235.501 380.391 210.458L381.786 209.077C406.32 233.855 439.439 252.017 471.908 265.771C498.145 276.884 523.892 285.094 544.288 291.597C549.133 293.142 553.675 294.591 557.851 295.959C566.527 298.802 572.293 300.275 575.913 300.801C577.736 301.066 578.933 301.078 579.657 300.947C580.016 300.883 580.191 300.794 580.263 300.743C580.276 300.733 580.285 300.726 580.29 300.721C580.292 300.693 580.292 300.604 580.226 300.428C580.15 300.226 580.009 299.965 579.784 299.647C579.333 299.01 578.624 298.254 577.715 297.423C575.903 295.768 573.423 293.932 570.99 292.309L570.909 292.255L570.84 292.187C568.293 289.64 567.811 286.284 568.16 283.275C568.504 280.304 569.667 277.528 570.655 275.835C575.646 264.04 578.396 256.695 579.568 252.576C579.86 251.547 580.048 250.74 580.15 250.127C580.166 250.029 580.179 249.938 580.191 249.854C579.652 250.37 578.945 251.196 578.098 252.305C577.051 253.676 575.841 255.409 574.547 257.361C571.961 261.264 569.063 266.004 566.491 270.392L564.699 269.629C568.43 256.424 570.222 248.286 570.683 243.802C570.797 242.686 570.826 241.826 570.789 241.187C570.76 240.686 570.693 240.379 570.632 240.207C570.53 240.262 570.397 240.35 570.233 240.483C569.527 241.058 568.579 242.196 567.449 243.827C566.336 245.434 565.095 247.448 563.796 249.705C561.2 254.219 558.402 259.66 555.975 264.678L554.144 263.991C557.19 252.888 558.589 246.367 558.869 243.067C558.927 242.38 558.933 241.869 558.905 241.504C558.794 241.611 558.667 241.744 558.523 241.908C557.105 243.527 555 247.055 552.66 251.338C550.696 254.932 548.61 258.976 546.686 262.705C546.337 263.382 545.993 264.05 545.655 264.702L545.234 265.517L471.365 233.432L409.651 180.078ZM580.88 249.317C580.88 249.317 580.878 249.318 580.875 249.319C580.879 249.317 580.881 249.317 580.88 249.317Z" fill="#001A39"/>
</svg>
