<svg width="230" height="262" viewBox="0 0 230 262" fill="none" xmlns="http://www.w3.org/2000/svg">
<path d="M22.3711 211.967L0 218.55L10.1334 262L13.7472 224.508L30.4191 219.525" fill="#F96155"/>
<path fill-rule="evenodd" clip-rule="evenodd" d="M16.7619 233.508L9.31124 227.847L9.82414 227.016L17.2748 232.677L16.7619 233.508Z" fill="white"/>
<path fill-rule="evenodd" clip-rule="evenodd" d="M16.4601 238.597L9.00976 232.936L9.52306 232.106L16.9734 237.767L16.4601 238.597Z" fill="white"/>
<path fill-rule="evenodd" clip-rule="evenodd" d="M16.0545 243.716L8.68356 237.939L9.32347 237.169L16.6944 242.946L16.0545 243.716Z" fill="white"/>
<path d="M56.5732 195.867L51.1972 188.393C42.7143 176.594 47.653 159.932 61.0822 155.046C67.492 152.714 74.3053 151.695 81.1309 152.051L121.349 154.136C131.175 154.645 138.937 162.929 138.955 172.928L139.067 234.154L106.121 232.75L106.803 181.892L89.6182 181.17L96.1715 191.165C103.285 201.628 98.4128 216.004 86.5211 219.642L30.6621 236.739C30.6621 236.739 24.3955 233.71 21.3865 223.121C18.0717 211.462 21.8422 207.103 21.8422 207.103L56.5732 195.867Z" fill="#153B67"/>
<path fill-rule="evenodd" clip-rule="evenodd" d="M92.1169 184.942L80.076 168.461L80.6586 167.972L92.6995 184.454L92.1169 184.942Z" fill="white"/>
<path d="M139.193 233.147C139.279 230.161 131.932 227.518 122.784 227.243C113.636 226.969 106.15 229.166 106.064 232.152C105.978 235.138 113.325 237.781 122.473 238.056C131.621 238.33 139.107 236.133 139.193 233.147Z" fill="#001A39"/>
<path d="M109.104 230.488L104.52 253.408L147.773 246.851L116.98 241.306L119.219 229.798" fill="#F96155"/>
<path d="M152.197 248.115C151.939 245.93 140.977 245.419 127.713 246.974C114.449 248.529 103.905 251.56 104.163 253.745C104.421 255.93 115.383 256.44 128.647 254.886C141.911 253.331 152.455 250.299 152.197 248.115Z" fill="#001A39"/>
<path fill-rule="evenodd" clip-rule="evenodd" d="M127.542 239.792L120.69 244.084L120.159 243.345L127.011 239.052L127.542 239.792Z" fill="white"/>
<path fill-rule="evenodd" clip-rule="evenodd" d="M132.626 240.1L124.281 244.792L123.688 244.069L132.033 239.377L132.626 240.1Z" fill="white"/>
<path fill-rule="evenodd" clip-rule="evenodd" d="M31.7396 230.668L34.3235 223.795L34.9843 224.117L32.4004 230.99L31.7396 230.668Z" fill="white"/>
<path fill-rule="evenodd" clip-rule="evenodd" d="M27.8921 218.838L24.2613 215.207L24.7909 214.659L28.4217 218.289L27.8921 218.838Z" fill="white"/>
<path fill-rule="evenodd" clip-rule="evenodd" d="M40.8537 214.92L41.8383 208.425L42.5174 208.69L41.5329 215.186L40.8537 214.92Z" fill="white"/>
<path fill-rule="evenodd" clip-rule="evenodd" d="M49.8341 223.543L45.6105 225.783L45.3048 225.303L49.5283 223.064L49.8341 223.543Z" fill="white"/>
<path fill-rule="evenodd" clip-rule="evenodd" d="M57.2581 215.984L51.5721 211.372L51.9508 210.726L57.6369 215.339L57.2581 215.984Z" fill="white"/>
<path fill-rule="evenodd" clip-rule="evenodd" d="M43.4975 202.97L40.4757 201.073L41.0836 200.277L44.1055 202.175L43.4975 202.97Z" fill="white"/>
<path fill-rule="evenodd" clip-rule="evenodd" d="M55.2054 200.051L55.4251 204.786L54.7954 204.739L54.5758 200.004L55.2054 200.051Z" fill="white"/>
<path fill-rule="evenodd" clip-rule="evenodd" d="M65.805 208.494L65.1796 202.174L65.7853 202.203L66.4106 208.523L65.805 208.494Z" fill="white"/>
<path fill-rule="evenodd" clip-rule="evenodd" d="M67.5755 215.103L66.653 220.148L65.6119 220.215L66.5345 215.17L67.5755 215.103Z" fill="white"/>
<path fill-rule="evenodd" clip-rule="evenodd" d="M95.492 202.407L87.0314 200.621L87.1216 199.639L95.5821 201.424L95.492 202.407Z" fill="white"/>
<path fill-rule="evenodd" clip-rule="evenodd" d="M85.8773 208.751L82.5546 212.55L81.8312 212.313L85.154 208.514L85.8773 208.751Z" fill="white"/>
<path fill-rule="evenodd" clip-rule="evenodd" d="M57.3595 226.739L56.8111 229.462L56.2579 228.848L56.8064 226.124L57.3595 226.739Z" fill="white"/>
<path fill-rule="evenodd" clip-rule="evenodd" d="M73.9746 204.828L75.9927 209.188L75.2572 209.494L73.2391 205.135L73.9746 204.828Z" fill="white"/>
<path fill-rule="evenodd" clip-rule="evenodd" d="M77.5628 197.188L70.9778 196.701L70.905 195.632L77.4901 196.119L77.5628 197.188Z" fill="white"/>
<path fill-rule="evenodd" clip-rule="evenodd" d="M90.6215 153.615L89.1882 152.701L89.5417 152.234L90.975 153.148L90.6215 153.615Z" fill="white"/>
<path fill-rule="evenodd" clip-rule="evenodd" d="M82.0731 185.961L85.7503 189.621L85.2462 190.121L81.5691 186.462L82.0731 185.961Z" fill="white"/>
<path fill-rule="evenodd" clip-rule="evenodd" d="M74.8654 180.112L72.7549 188.456L72.0028 188.088L74.1133 179.744L74.8654 180.112Z" fill="white"/>
<path fill-rule="evenodd" clip-rule="evenodd" d="M51.1009 184.744L50.6725 187.691L50.1268 187.329L50.5552 184.382L51.1009 184.744Z" fill="white"/>
<path fill-rule="evenodd" clip-rule="evenodd" d="M60.1432 178.475L57.3983 170.927L58.2643 170.629L61.0092 178.177L60.1432 178.475Z" fill="white"/>
<path fill-rule="evenodd" clip-rule="evenodd" d="M49.6345 169.6L48.4059 168.473L49.0434 168.088L50.272 169.216L49.6345 169.6Z" fill="white"/>
<path fill-rule="evenodd" clip-rule="evenodd" d="M71.9917 163.179L74.8389 157.842L75.6219 158.066L72.7747 163.404L71.9917 163.179Z" fill="white"/>
<path fill-rule="evenodd" clip-rule="evenodd" d="M87.7341 159.718L86.6653 164.694L85.7167 164.629L86.7854 159.652L87.7341 159.718Z" fill="white"/>
<path fill-rule="evenodd" clip-rule="evenodd" d="M94.1833 171.336L94.1783 176.041L93.7281 175.856L93.7331 171.151L94.1833 171.336Z" fill="white"/>
<path fill-rule="evenodd" clip-rule="evenodd" d="M132.228 157.787L131.797 159.287L130.948 159.23L131.379 157.73L132.228 157.787Z" fill="white"/>
<path fill-rule="evenodd" clip-rule="evenodd" d="M139.736 173.86L135.016 174.402L134.906 173.483L139.626 172.941L139.736 173.86Z" fill="white"/>
<path fill-rule="evenodd" clip-rule="evenodd" d="M135.401 182.057L134.16 187.042L133.365 186.898L134.606 181.913L135.401 182.057Z" fill="white"/>
<path fill-rule="evenodd" clip-rule="evenodd" d="M122.571 188.476L127.502 189.9L127.229 190.568L122.298 189.144L122.571 188.476Z" fill="white"/>
<path fill-rule="evenodd" clip-rule="evenodd" d="M138.26 197.633L139.754 198.29L139.581 198.949L138.087 198.292L138.26 197.633Z" fill="white"/>
<path fill-rule="evenodd" clip-rule="evenodd" d="M127.301 176.715L121.237 178.814L120.899 177.709L126.962 175.611L127.301 176.715Z" fill="white"/>
<path fill-rule="evenodd" clip-rule="evenodd" d="M108.968 220.258L105.963 221.31L105.563 219.994L108.569 218.942L108.968 220.258Z" fill="white"/>
<path fill-rule="evenodd" clip-rule="evenodd" d="M124.005 163.045L127.861 166.372L127.678 167.07L123.822 163.743L124.005 163.045Z" fill="white"/>
<path fill-rule="evenodd" clip-rule="evenodd" d="M113.557 162.768L114.415 170.622L113.958 170.479L113.101 162.625L113.557 162.768Z" fill="white"/>
<path fill-rule="evenodd" clip-rule="evenodd" d="M101.855 175.075L106.028 172.867L106.393 173.35L102.22 175.557L101.855 175.075Z" fill="white"/>
<path fill-rule="evenodd" clip-rule="evenodd" d="M103.339 155.743L108.777 152.094L109.299 153.101L103.861 156.75L103.339 155.743Z" fill="white"/>
<path fill-rule="evenodd" clip-rule="evenodd" d="M90.6731 213.716L95.425 213.271L95.5144 214.089L90.7625 214.534L90.6731 213.716Z" fill="white"/>
<path fill-rule="evenodd" clip-rule="evenodd" d="M115.427 185.379L111.939 181.596L112.668 181.108L116.156 184.891L115.427 185.379Z" fill="white"/>
<path fill-rule="evenodd" clip-rule="evenodd" d="M110.909 211.637L105.867 208.69L106.387 207.838L111.429 210.784L110.909 211.637Z" fill="white"/>
<path fill-rule="evenodd" clip-rule="evenodd" d="M119.018 214.22L119.847 207.574L120.585 207.631L119.756 214.277L119.018 214.22Z" fill="white"/>
<path fill-rule="evenodd" clip-rule="evenodd" d="M132.716 203.129L128.476 205.263L128.132 204.684L132.372 202.55L132.716 203.129Z" fill="white"/>
<path fill-rule="evenodd" clip-rule="evenodd" d="M134.862 220.251L130.891 214.979L131.531 214.464L135.501 219.736L134.862 220.251Z" fill="white"/>
<path fill-rule="evenodd" clip-rule="evenodd" d="M125.756 220.697L121.726 223.768L121.251 222.548L125.282 219.477L125.756 220.697Z" fill="white"/>
<path d="M95.6082 128.168C95.9121 135.508 90.225 141.694 82.9063 141.984L57.2935 142.999C49.9747 143.289 43.7954 137.574 43.4915 130.234C43.1877 122.894 48.8749 116.708 56.1936 116.418L81.8063 115.403C89.125 115.113 95.3044 120.828 95.6082 128.168Z" fill="#F96155"/>
<path fill-rule="evenodd" clip-rule="evenodd" d="M92.572 118.026L192.901 110.758L192.963 110.769L192.868 111.215C192.963 110.769 192.962 110.769 192.963 110.769L192.966 110.77L192.971 110.771C192.976 110.772 192.982 110.773 192.989 110.775C193.003 110.778 193.023 110.782 193.049 110.788C193.099 110.8 193.171 110.818 193.261 110.844C193.442 110.895 193.696 110.976 194.002 111.097C194.615 111.34 195.437 111.748 196.291 112.408C198.007 113.736 199.819 116.066 200.316 120.056C200.815 124.07 199.377 126.766 197.795 128.452C197.009 129.289 196.193 129.873 195.572 130.248C195.262 130.435 194.999 130.572 194.811 130.662C194.718 130.707 194.643 130.74 194.59 130.763C194.564 130.774 194.543 130.783 194.528 130.789C194.521 130.792 194.515 130.795 194.51 130.796L194.505 130.799L194.502 130.8C194.502 130.8 194.502 130.8 194.335 130.378L194.502 130.8L194.435 130.826L91.9621 138.178L91.9045 137.272L194.228 129.931C194.27 129.912 194.332 129.885 194.411 129.847C194.575 129.768 194.811 129.646 195.093 129.476C195.658 129.135 196.402 128.602 197.117 127.841C198.536 126.329 199.859 123.893 199.396 120.175C198.931 116.433 197.249 114.313 195.712 113.124C194.939 112.525 194.195 112.157 193.647 111.94C193.373 111.831 193.149 111.76 192.996 111.717C192.923 111.696 192.866 111.682 192.828 111.673L92.6302 118.932L92.572 118.026Z" fill="#001A39"/>
<path fill-rule="evenodd" clip-rule="evenodd" d="M189.439 95.9153C184.572 56.4686 162.866 23.1974 132.518 2.59628L134.235 0C165.302 21.0891 187.531 55.1576 192.514 95.5475C197.497 135.937 184.2 174.257 159.165 202.054L156.867 199.938C181.322 172.784 194.305 135.362 189.439 95.9153Z" fill="#001A39"/>
<path fill-rule="evenodd" clip-rule="evenodd" d="M205.073 94.5803L84.423 110.059L84.2522 108.565L204.902 93.0868L205.073 94.5803Z" fill="#001A39"/>
<path d="M204.37 101.653L205.749 94.8222C205.886 94.1408 205.684 93.4322 205.207 92.9264L200.433 87.8523C199.235 86.5782 199.982 84.4745 201.7 84.2949L208.537 83.5715C209.217 83.4986 209.819 83.0908 210.143 82.4798L213.383 76.3474C214.196 74.8066 216.406 74.8989 217.119 76.502L219.969 82.8847C220.252 83.5208 220.827 83.9782 221.503 84.1056L228.277 85.3891C229.979 85.7128 230.596 87.8716 229.32 89.043L224.243 93.7104C223.737 94.1767 223.49 94.868 223.587 95.557L224.534 102.483C224.772 104.221 222.945 105.465 221.442 104.586L215.457 101.087C214.859 100.739 214.135 100.709 213.518 101.006L207.329 104.003C205.77 104.757 204.025 103.366 204.37 101.653Z" fill="#FBC73B"/>
<path fill-rule="evenodd" clip-rule="evenodd" d="M132.527 0.457283L135.404 1.75527L86.3161 109.16L159.457 200.676L156.981 202.639L82.6374 109.617L132.527 0.457283Z" fill="#001A39"/>
<path d="M194.746 113.599C194.746 113.599 184.115 115.367 184.157 116.651C184.2 117.936 195.709 118.344 195.709 118.344C195.709 118.344 181.618 119.489 181.771 121.147C181.921 122.804 196.346 123.101 196.346 123.101C196.346 123.101 183.693 123.832 183.79 125.586C183.887 127.341 197.449 127.482 197.449 127.482" fill="white"/>
<path fill-rule="evenodd" clip-rule="evenodd" d="M193.868 113.107C193.868 113.107 193.868 113.107 193.947 113.564C194.026 114.021 194.026 114.021 194.026 114.021L193.997 114.026C193.978 114.029 193.949 114.034 193.912 114.04C193.837 114.052 193.727 114.07 193.587 114.093C193.306 114.14 192.906 114.209 192.425 114.295C191.463 114.468 190.183 114.713 188.907 114.998C187.627 115.285 186.365 115.61 185.432 115.942C184.963 116.11 184.599 116.272 184.361 116.421C184.31 116.453 184.268 116.482 184.235 116.509C184.273 116.531 184.32 116.556 184.377 116.583C184.649 116.71 185.058 116.838 185.579 116.961C186.615 117.205 188.003 117.411 189.403 117.577C190.801 117.742 192.197 117.866 193.245 117.949C193.769 117.99 194.206 118.021 194.511 118.042C194.663 118.052 194.783 118.06 194.864 118.065C194.905 118.067 194.936 118.069 194.957 118.07L194.989 118.072C194.989 118.072 194.989 118.072 194.98 118.534C195.022 118.995 195.022 118.995 195.022 118.995L194.983 118.997C194.958 118.999 194.92 119.002 194.87 119.005C194.77 119.012 194.624 119.023 194.438 119.037C194.066 119.065 193.534 119.107 192.895 119.163C191.619 119.275 189.92 119.442 188.229 119.663C186.534 119.884 184.862 120.157 183.63 120.479C183.011 120.641 182.528 120.809 182.214 120.977C182.089 121.044 182.007 121.102 181.957 121.148C182.024 121.203 182.135 121.271 182.302 121.347C182.662 121.511 183.191 121.669 183.853 121.817C185.169 122.111 186.921 122.347 188.683 122.53C190.441 122.713 192.195 122.842 193.511 122.925C194.168 122.967 194.716 122.997 195.099 123.017C195.29 123.027 195.44 123.034 195.542 123.039C195.594 123.041 195.633 123.043 195.659 123.044L195.698 123.046C195.698 123.046 195.698 123.046 195.696 123.508C195.728 123.969 195.728 123.969 195.728 123.969L195.694 123.971C195.684 123.971 195.672 123.972 195.657 123.972C195.639 123.973 195.617 123.974 195.592 123.975C195.503 123.98 195.371 123.986 195.204 123.994C194.87 124.012 194.392 124.039 193.82 124.076C192.673 124.152 191.148 124.272 189.629 124.449C188.105 124.626 186.605 124.858 185.5 125.155C184.944 125.304 184.516 125.463 184.24 125.625C184.101 125.706 184.024 125.774 183.986 125.822C183.985 125.823 183.984 125.824 183.983 125.825C183.987 125.83 183.992 125.835 183.998 125.841C184.053 125.896 184.154 125.969 184.318 126.051C184.646 126.215 185.134 126.373 185.752 126.519C186.979 126.81 188.618 127.032 190.271 127.199C191.92 127.366 193.566 127.475 194.802 127.543C195.419 127.577 195.933 127.601 196.293 127.616C196.472 127.623 196.614 127.629 196.71 127.632C196.758 127.634 196.794 127.635 196.819 127.636L196.855 127.637C196.855 127.638 196.856 127.638 196.858 128.099C196.86 128.561 196.86 128.561 196.86 128.561L196.821 128.56C196.796 128.559 196.758 128.558 196.71 128.556C196.612 128.552 196.47 128.547 196.289 128.539C195.926 128.524 195.408 128.5 194.787 128.466C193.544 128.398 191.884 128.287 190.219 128.119C188.557 127.951 186.873 127.724 185.59 127.421C184.952 127.269 184.388 127.094 183.97 126.884C183.761 126.78 183.566 126.656 183.413 126.503C183.259 126.349 183.12 126.135 183.1 125.863C183.082 125.599 183.181 125.378 183.313 125.212C183.441 125.05 183.615 124.92 183.8 124.812C184.17 124.595 184.681 124.414 185.259 124.259C186.415 123.948 187.951 123.711 189.474 123.534C189.193 123.507 188.911 123.479 188.628 123.45C186.858 123.266 185.067 123.026 183.702 122.721C183.022 122.569 182.425 122.395 181.983 122.195C181.764 122.095 181.559 121.978 181.398 121.836C181.24 121.697 181.077 121.489 181.048 121.209C181.018 120.922 181.14 120.694 181.28 120.536C181.417 120.381 181.603 120.255 181.801 120.149C182.201 119.935 182.757 119.748 183.395 119.582C184.677 119.246 186.391 118.968 188.094 118.745C188.653 118.672 189.213 118.605 189.758 118.544C189.618 118.528 189.477 118.512 189.337 118.495C187.928 118.329 186.503 118.118 185.419 117.862C184.88 117.735 184.403 117.591 184.05 117.426C183.874 117.344 183.705 117.245 183.57 117.122C183.438 117.001 183.289 116.808 183.275 116.542C183.263 116.292 183.374 116.097 183.484 115.965C183.596 115.832 183.744 115.719 183.899 115.621C184.212 115.425 184.642 115.239 185.129 115.065C186.11 114.716 187.411 114.382 188.699 114.094C189.991 113.805 191.283 113.558 192.251 113.384C192.735 113.297 193.139 113.228 193.422 113.181C193.564 113.157 193.675 113.139 193.751 113.126C193.789 113.12 193.818 113.115 193.838 113.112L193.868 113.107ZM195.696 123.508L195.728 123.969L195.698 123.046L195.696 123.508ZM194.98 118.534L195.022 118.995L194.989 118.072L194.98 118.534Z" fill="#001A39"/>
<path d="M78.2435 93.2431C79.7465 98.3728 76.8158 103.747 71.6947 105.246C67.1683 106.573 62.4443 104.426 60.3723 100.367C60.102 99.835 59.8735 99.2702 59.7005 98.6746C58.1975 93.5449 61.1282 88.1708 66.2492 86.6717C68.9146 85.8914 71.6444 86.3137 73.8636 87.6186C75.9129 88.8251 77.5228 90.7832 78.2435 93.2431Z" fill="#FBC73B"/>
<path d="M75.5642 83.2434C76.1908 85.3814 74.9688 87.619 72.8344 88.244C70.9476 88.7973 68.9794 87.9029 68.1173 86.21C68.0047 85.989 67.9093 85.7527 67.8375 85.5047C67.2109 83.3667 68.4328 81.1291 70.5672 80.5041C71.678 80.18 72.8155 80.3537 73.7408 80.8995C74.5927 81.4008 75.2651 82.2173 75.5642 83.2434Z" fill="#001A39"/>
<path d="M67.3802 83.8029C67.7557 85.0859 67.0234 86.4288 65.7426 86.8033C64.6105 87.1354 63.4319 86.5987 62.9128 85.583C62.8452 85.4486 62.7893 85.3084 62.7442 85.16C62.3687 83.877 63.1011 82.534 64.3819 82.1595C65.0493 81.965 65.7311 82.0692 66.2839 82.3973C66.798 82.6989 67.1997 83.1884 67.3802 83.8029Z" fill="#001A39"/>
<path fill-rule="evenodd" clip-rule="evenodd" d="M77.7119 97.4708C77.7116 97.4709 77.7113 97.4709 77.6987 98.0525C77.6862 98.6341 77.6859 98.6341 77.6856 98.6341L77.6834 98.6342L77.6796 98.6344L77.6693 98.6348C77.6611 98.635 77.6504 98.6353 77.6374 98.6355C77.6113 98.636 77.5758 98.6363 77.532 98.6358C77.4445 98.6349 77.3231 98.6308 77.178 98.6188C76.89 98.5948 76.4959 98.5384 76.0828 98.4054C75.2452 98.1359 74.2943 97.533 74.0672 96.2634L75.3651 96.004C75.502 96.7697 76.0423 97.1261 76.605 97.3072C76.8921 97.3996 77.1755 97.4412 77.3898 97.459C77.4958 97.4678 77.5819 97.4706 77.6391 97.4712C77.6675 97.4715 77.6886 97.4713 77.7011 97.4711C77.7073 97.471 77.7114 97.4708 77.7131 97.4708C77.714 97.4708 77.7134 97.4708 77.7131 97.4708L77.7119 97.4708Z" fill="#001A39"/>
<path d="M76.9792 95.8354C77.8531 95.5795 78.4511 94.9951 78.3149 94.5303C78.1786 94.0654 77.3597 93.8961 76.4858 94.152C75.6118 94.4079 75.0138 94.9922 75.1501 95.4571C75.2863 95.9219 76.1053 96.0914 76.9792 95.8354Z" fill="#001A39"/>
<path d="M72.4924 97.2382C73.3664 96.9823 73.9644 96.398 73.8281 95.9331C73.6919 95.4683 72.873 95.299 71.999 95.5549C71.1251 95.8108 70.5271 96.3951 70.6633 96.8599C70.7996 97.3248 71.6185 97.4941 72.4924 97.2382Z" fill="#001A39"/>
<path d="M62.9349 98.3123C63.5529 100.453 62.6691 102.6 60.9663 103.111C59.46 103.563 57.8154 102.579 57.0273 100.869C56.9229 100.643 56.8351 100.407 56.764 100.16C56.1468 98.0218 57.0297 95.8728 58.7325 95.3618C59.6203 95.0966 60.5532 95.3266 61.3316 95.9094C62.0516 96.4468 62.64 97.2853 62.9349 98.3123Z" fill="#FBC73B"/>
<path d="M73.4253 87.6966C73.4253 87.6966 70.7763 90.6592 64.6059 91.3279L65.7783 96.8135L61.9815 97.0867C61.9815 97.0867 60.1473 94.2592 57.397 96.2577C57.397 96.2577 55.3443 90.2133 58.6715 87.9351C64.4877 83.9531 70.9989 85.0532 73.4253 87.6966Z" fill="#001A39"/>
<path d="M79.3768 106.601C79.3768 106.601 91.9431 103.448 92.385 105.377C92.8288 107.304 80.5888 109.32 80.5888 109.32C80.5888 109.32 92.7672 106.612 93.061 108.311C93.3547 110.01 81.1756 112.716 81.1756 112.716" fill="white"/>
<path fill-rule="evenodd" clip-rule="evenodd" d="M64.8324 162.19L58.5632 162.834L58.6159 162.185L64.885 161.542L64.8324 162.19Z" fill="white"/>
<path fill-rule="evenodd" clip-rule="evenodd" d="M29.7208 95.4316C17.6253 92.7396 11.0854 109.042 21.738 115.327L21.7408 115.328L45.9686 129.858L45.4987 130.631L21.2736 116.103C21.2732 116.103 21.2727 116.102 21.2723 116.102C9.73505 109.293 16.8183 91.635 29.9212 94.5512C29.9212 94.5512 29.9212 94.5512 29.9212 94.5512L79.6118 105.607C79.6235 105.604 79.6362 105.601 79.6498 105.598C79.7424 105.575 79.878 105.543 80.0505 105.502C80.3955 105.42 80.8885 105.306 81.4814 105.176C82.6665 104.916 84.2545 104.59 85.8603 104.331C87.4608 104.072 89.1004 103.875 90.3808 103.88C91.017 103.882 91.5974 103.934 92.0489 104.07C92.4807 104.2 92.9399 104.454 93.0582 104.962C93.1765 105.469 92.8854 105.887 92.5551 106.179C92.2157 106.479 91.7284 106.748 91.1759 106.991C91.0406 107.051 90.8993 107.11 90.7528 107.168C90.9358 107.164 91.1129 107.162 91.2831 107.164C91.8888 107.171 92.4391 107.221 92.8625 107.343C93.2524 107.456 93.7217 107.689 93.8134 108.194C93.9029 108.687 93.5643 109.083 93.2479 109.347C92.9032 109.635 92.415 109.91 91.8578 110.17C90.7366 110.693 89.2256 111.205 87.7247 111.653C86.2192 112.102 84.7051 112.492 83.5687 112.77C83.2087 112.858 82.8863 112.935 82.6137 112.998C82.8379 113.208 83.0731 113.472 83.2519 113.781C83.5111 114.228 83.6661 114.798 83.4551 115.424C83.2808 115.941 82.8775 116.433 82.2127 116.895C82.3312 117.12 82.4622 117.435 82.5099 117.799C82.561 118.189 82.5165 118.64 82.2572 119.083C81.9997 119.524 81.555 119.914 80.8814 120.23C80.8813 120.231 80.8814 120.23 80.8814 120.23C80.609 120.359 80.1932 120.419 79.7265 120.452C79.2384 120.486 78.6235 120.493 77.9064 120.477C76.4708 120.445 74.5929 120.323 72.4335 120.136C68.1128 119.764 62.6373 119.136 57.2604 118.465C51.8824 117.793 46.5984 117.078 42.6593 116.53C40.6896 116.257 39.056 116.025 37.9147 115.861C37.3441 115.78 36.8965 115.715 36.5915 115.671C36.4391 115.649 36.3222 115.632 36.2435 115.62L36.1245 115.603C36.1242 115.603 36.124 115.603 36.1913 115.157C36.2585 114.71 36.2586 114.71 36.2589 114.71L36.3773 114.728C36.4558 114.739 36.5724 114.756 36.7247 114.778C37.0292 114.822 37.4763 114.887 38.0464 114.968C39.1866 115.132 40.819 115.363 42.7873 115.637C46.724 116.184 52.0035 116.899 57.3759 117.57C62.7494 118.241 68.2112 118.867 72.5143 119.238C74.6667 119.423 76.5222 119.544 77.9291 119.575C78.6331 119.591 79.2168 119.584 79.6653 119.552C80.1352 119.519 80.3941 119.463 80.4957 119.415C81.0497 119.155 81.3317 118.874 81.4734 118.631C81.6134 118.392 81.6408 118.149 81.6104 117.918C81.5792 117.68 81.487 117.459 81.3957 117.291C81.3509 117.209 81.3085 117.143 81.2784 117.1C81.2634 117.078 81.2516 117.062 81.2443 117.052C81.2406 117.047 81.2381 117.044 81.2369 117.043C81.2369 117.043 81.2365 117.043 81.2369 117.043L81.5903 116.759C81.2723 117.015 81.2401 117.04 81.2369 117.043L81.3585 116.372C82.1621 115.894 82.4853 115.465 82.5951 115.14C82.7001 114.828 82.6373 114.529 82.4657 114.233C82.2897 113.929 82.0154 113.662 81.7678 113.463C81.6467 113.365 81.5378 113.289 81.46 113.238C81.4212 113.212 81.3906 113.193 81.3704 113.18C81.3603 113.174 81.3529 113.17 81.3485 113.167L81.3443 113.165L81.5712 112.773C81.4754 112.333 81.4755 112.333 81.4755 112.333L81.5092 112.325C81.5317 112.32 81.5654 112.313 81.6094 112.303C81.6973 112.284 81.8267 112.255 81.9913 112.217C82.3206 112.141 82.791 112.032 83.3547 111.894C84.4827 111.618 85.9807 111.232 87.4663 110.789C88.9564 110.344 90.4155 109.848 91.4744 109.354C92.0072 109.105 92.4116 108.869 92.666 108.657C92.8754 108.482 92.9115 108.386 92.9182 108.359C92.901 108.338 92.834 108.275 92.6066 108.209C92.302 108.121 91.8493 108.073 91.2703 108.066C90.1208 108.053 88.6002 108.205 87.068 108.419C86.5047 108.498 85.9426 108.584 85.4002 108.673C84.4749 108.874 83.6019 109.044 82.88 109.177C82.3086 109.283 81.831 109.365 81.496 109.421C81.3284 109.449 81.1965 109.471 81.1063 109.485C81.0611 109.493 81.0264 109.498 81.0029 109.502L80.9761 109.506L80.9673 109.507C80.9672 109.507 80.9666 109.507 80.8982 109.062C80.8023 108.621 80.8024 108.621 80.8025 108.621L80.8382 108.613C80.8615 108.608 80.896 108.601 80.9409 108.591C81.0306 108.572 81.162 108.545 81.3291 108.51C81.6633 108.441 82.1407 108.345 82.7145 108.235C83.4323 108.097 84.3021 107.939 85.232 107.786C85.7562 107.672 86.2964 107.549 86.8344 107.416C88.3238 107.05 89.7726 106.624 90.8106 106.167C91.3336 105.936 91.7194 105.712 91.9535 105.505C92.1965 105.291 92.1791 105.188 92.1745 105.168C92.17 105.149 92.1308 105.038 91.7844 104.934C91.4578 104.836 90.9804 104.785 90.3748 104.782C89.1715 104.778 87.5917 104.964 86.0034 105.221C84.4205 105.477 82.8504 105.799 81.6747 106.057C81.0872 106.186 80.599 106.299 80.258 106.38C80.0875 106.42 79.9538 106.452 79.863 106.474C79.8175 106.485 79.7828 106.494 79.7596 106.5L79.7333 106.506L79.7268 106.508L79.7253 106.508C79.7252 106.508 79.7249 106.508 79.6158 106.071L79.7253 106.508L79.5156 106.511L29.7208 95.4316ZM80.8982 109.062L80.8025 108.621L80.9673 109.507L80.8982 109.062ZM81.3443 113.165C81.3443 113.165 81.3439 113.165 81.3443 113.165V113.165ZM81.3443 113.165L81.4755 112.333L81.5712 112.773" fill="#001A39"/>
</svg>
