<svg width="512" height="640" viewBox="0 0 512 640" fill="none" xmlns="http://www.w3.org/2000/svg">
<path d="M440.42 419.114L512 430.34L479.6 540.447L476.065 447.313L423.941 439.121" fill="#F96155"/>
<path d="M275.232 463.241L315.19 508.287L220.676 573.404L276.588 498.834L249.832 468.398" fill="#F96155"/>
<path d="M456.234 417.22C456.234 417.22 470.432 429.093 463.342 454.873C456.658 479.183 436.631 483.193 436.631 483.193L325.65 459.612C314.031 456.641 304.597 448.182 300.378 436.956L268.693 352.634L217.774 381.911L280.623 460.011C280.623 460.011 284.665 478.15 265.069 492.982C248.147 505.793 227.132 501.934 227.132 501.934L147.126 412.132C126.554 389.039 128.98 353.546 152.504 333.475C193.432 298.559 218.42 278.437 250.649 263.238C278.64 250.04 318.593 257.01 340.723 279.381C359.229 298.096 364.874 319.726 367.484 397.738" fill="#FFA574"/>
<path fill-rule="evenodd" clip-rule="evenodd" d="M257.259 314.807L278.357 383.808L275.934 384.549L254.836 315.548L257.259 314.807Z" fill="#FDC4A0"/>
<path d="M413.975 477.94C411.91 466.149 417.067 453.155 427.742 447.199C433.21 444.146 439.641 443.373 445.432 446.008C451.393 448.726 456.715 453.243 461.404 457.748C462.278 458.591 463.615 457.26 462.734 456.418C457.558 451.438 451.438 446.198 444.627 443.651C438.716 441.44 432.209 442.555 426.786 445.571C415.325 451.945 409.946 465.845 412.15 478.447C412.366 479.638 414.184 479.131 413.975 477.94Z" fill="#A14259"/>
<path d="M425.893 410.263C416.567 429.194 401.064 448.734 377.666 447.163C366.205 446.39 357.038 439.313 352.9 428.656C348.288 416.777 350.252 403.788 353.021 391.725C356.239 377.717 360.503 363.918 365.825 350.562C366.275 349.434 364.45 348.946 364.007 350.062C358.685 363.417 354.421 377.216 351.202 391.225C348.32 403.782 346.349 417.302 351.259 429.625C355.181 439.465 363.265 446.706 373.802 448.582C383.951 450.381 394.76 447.669 403.262 441.948C414.324 434.504 421.73 422.979 427.521 411.22C428.06 410.13 426.431 409.174 425.893 410.263Z" fill="#A14259"/>
<path d="M301.626 439.071C308.874 432.717 318.453 429.84 327.786 428.199C338.233 426.362 349.257 425.532 359.635 428.212C368.315 430.455 376.621 435.289 381.771 442.771C387.759 451.463 388.557 463.051 389.013 473.27C389.07 474.48 390.952 474.487 390.901 473.27C390.432 462.696 389.545 450.824 383.4 441.814C378.192 434.18 369.861 429.093 361.06 426.635C350.074 423.562 338.379 424.417 327.279 426.368C317.604 428.073 307.797 431.145 300.289 437.728C299.377 438.539 300.714 439.869 301.626 439.071Z" fill="#A14259"/>
<path d="M274.427 367.44C283.455 361.269 293.58 356.904 304.318 354.788C312.029 353.268 329.699 350.613 329.11 363.291C328.863 368.6 326.208 374.067 323.731 378.661C321.197 383.356 318.105 387.733 314.785 391.902C307.942 400.474 300.188 408.318 291.894 415.484C290.976 416.282 292.312 417.606 293.225 416.814C307.157 404.757 321.843 390.052 328.622 372.56C331.15 366.047 333.044 357.443 325.568 353.502C318.846 349.96 309.786 351.696 302.741 353.185C292.249 355.403 282.315 359.762 273.47 365.806C272.482 366.496 273.42 368.131 274.427 367.44Z" fill="#A14259"/>
<path d="M360.414 323.11C351.367 328.515 342.681 333.463 331.828 333.52C321.26 333.57 310.8 329.554 304.331 320.944C298.211 312.79 295.918 302.418 293.821 292.642C291.293 280.858 289.107 268.782 288.416 256.732C288.347 255.528 286.459 255.515 286.528 256.732C287.105 266.742 288.777 276.765 290.672 286.604C292.363 295.385 294.099 304.395 297.571 312.682C300.6 319.911 305.244 326.386 312.099 330.409C319.017 334.464 327.33 335.934 335.268 335.256C345.082 334.419 353.103 329.693 361.371 324.751C362.41 324.118 361.46 322.489 360.414 323.11Z" fill="#A14259"/>
<path d="M324.27 267.648C314.576 286.598 291.882 296.025 271.899 299.124C250.01 302.513 225.428 301.075 205.946 289.69C204.894 289.075 203.944 290.704 204.995 291.318C220.556 300.416 239.068 303.052 256.859 302.393C274.966 301.721 292.908 297.552 308.234 287.574C315.634 282.752 321.856 276.505 325.898 268.605C326.449 267.521 324.821 266.571 324.27 267.648Z" fill="#A14259"/>
<path d="M180.388 310.984C189.226 316.204 197.741 322.863 199.768 333.532C201.561 342.978 198.032 352.887 192.216 360.3C178.671 377.584 153.911 380.232 133.561 381.296C132.351 381.36 132.345 383.248 133.561 383.184C151.643 382.234 171.391 380.118 186.267 368.783C197.95 359.882 205.8 343.295 200.402 328.812C197.044 319.809 189.315 314.069 181.332 309.355C180.293 308.741 179.342 310.369 180.388 310.984Z" fill="#A14259"/>
<path d="M261.915 435.549C247.926 432.989 232.416 433.8 220.67 442.663C209.031 451.444 204.533 465.737 207.048 479.834C207.264 481.025 209.082 480.518 208.866 479.333C206.402 465.528 211.198 451.508 222.906 443.367C234.069 435.606 248.451 434.997 261.42 437.373C262.605 437.582 263.112 435.764 261.915 435.549Z" fill="#A14259"/>
<path d="M172.088 440.775C190.658 438.032 211.99 440.465 228.716 449.379C236.61 453.586 243.516 459.535 248.324 467.125C254.045 476.147 256.535 486.683 257.961 497.149C258.126 498.347 259.944 497.833 259.779 496.649C258.29 485.713 255.591 474.683 249.433 465.37C244.485 457.887 237.56 451.957 229.672 447.757C212.471 438.596 190.67 436.144 171.587 438.963C170.39 439.134 170.897 440.952 172.088 440.775Z" fill="#A14259"/>
<path d="M252.183 362.125C243.421 350.043 229.736 342.877 215.379 339.703C201.98 336.744 186.318 336.257 173.773 342.611C160.811 349.175 156.053 363.322 160.342 376.906C165.1 391.991 178.646 401.317 192.153 408.058C209.848 416.889 229.679 424.891 249.839 422.845C251.036 422.725 251.049 420.837 249.839 420.957C233.138 422.655 216.843 417.257 201.789 410.522C188.58 404.611 174.04 397.56 166.082 384.863C158.378 372.559 158.162 355.434 170.973 346.47C182.124 338.671 197.69 338.556 210.609 340.704C225.966 343.251 241.216 350.208 250.548 363.081C251.258 364.051 252.893 363.113 252.183 362.125Z" fill="#A14259"/>
<path fill-rule="evenodd" clip-rule="evenodd" d="M468.464 470.801L485.78 455.469L487.46 457.366L470.144 472.698L468.464 470.801Z" fill="white"/>
<path fill-rule="evenodd" clip-rule="evenodd" d="M468.002 482.713L485.317 467.382L486.997 469.279L469.682 484.61L468.002 482.713Z" fill="white"/>
<path fill-rule="evenodd" clip-rule="evenodd" d="M466.792 495.459L484.107 480.134L485.787 482.031L468.472 497.357L466.792 495.459Z" fill="white"/>
<path fill-rule="evenodd" clip-rule="evenodd" d="M257.914 512.091L280.995 510.66L281.152 513.187L258.071 514.617L257.914 512.091Z" fill="white"/>
<path fill-rule="evenodd" clip-rule="evenodd" d="M250.223 521.199L273.303 519.769L273.46 522.295L250.38 523.725L250.223 521.199Z" fill="white"/>
<path fill-rule="evenodd" clip-rule="evenodd" d="M241.423 530.501L264.504 529.077L264.66 531.603L241.579 533.027L241.423 530.501Z" fill="white"/>
<path fill-rule="evenodd" clip-rule="evenodd" d="M394.528 222.908L333.066 197.053L334.049 194.717L395.511 220.572L394.528 222.908Z" fill="#001A39"/>
<path fill-rule="evenodd" clip-rule="evenodd" d="M344.415 242.815C344.42 242.81 344.425 242.804 344.43 242.798C344.662 242.548 345.051 242.21 345.614 241.787C346.73 240.948 348.369 239.898 350.388 238.703C354.415 236.319 359.823 233.437 365.259 230.646C370.689 227.858 376.129 225.171 380.213 223.181C382.254 222.186 383.955 221.366 385.146 220.794C385.742 220.508 386.21 220.285 386.528 220.133C386.688 220.057 386.81 219.998 386.892 219.959L387.015 219.901C387.016 219.901 387.016 219.9 386.473 218.756C385.93 217.611 385.929 217.611 385.929 217.611L385.803 217.671C385.72 217.71 385.597 217.769 385.437 217.845C385.117 217.998 384.647 218.223 384.05 218.509C382.855 219.083 381.149 219.906 379.102 220.903C375.01 222.898 369.553 225.593 364.101 228.392C358.654 231.188 353.192 234.099 349.097 236.522C347.055 237.731 345.32 238.837 344.091 239.761C343.482 240.219 342.954 240.662 342.571 241.076C342.38 241.283 342.192 241.516 342.05 241.769C341.915 242.009 341.755 242.382 341.784 242.832C341.817 243.332 342.026 243.775 342.241 244.119C342.464 244.479 342.758 244.833 343.084 245.176C343.736 245.861 344.62 246.602 345.627 247.355C347.648 248.869 350.303 250.538 352.951 252.052C355.602 253.567 358.282 254.949 360.367 255.885C361.402 256.349 362.326 256.72 363.04 256.937C363.388 257.043 363.748 257.133 364.073 257.162C364.233 257.176 364.453 257.182 364.687 257.133C364.913 257.085 365.314 256.949 365.596 256.545L365.597 256.544C366.834 254.772 366.534 252.763 365.743 251.044C364.954 249.331 363.578 247.653 362.175 246.216C360.756 244.764 359.234 243.483 358.076 242.57C357.494 242.112 357 241.743 356.649 241.487C356.474 241.359 356.334 241.26 356.237 241.191C356.189 241.157 356.151 241.131 356.125 241.113L356.094 241.092L356.086 241.086L356.082 241.083C356.082 241.083 356.082 241.083 355.365 242.128C354.648 243.173 354.648 243.173 354.648 243.172L354.654 243.177L354.678 243.193C354.699 243.208 354.732 243.231 354.776 243.262C354.863 243.323 354.992 243.416 355.157 243.535C355.486 243.775 355.954 244.125 356.507 244.56C357.616 245.434 359.046 246.64 360.362 247.987C361.692 249.348 362.832 250.781 363.441 252.103C363.898 253.098 363.998 253.883 363.801 254.52C363.794 254.518 363.787 254.515 363.779 254.513C363.217 254.342 362.406 254.022 361.404 253.572C359.413 252.679 356.807 251.338 354.209 249.852C351.608 248.364 349.051 246.754 347.146 245.327C346.189 244.611 345.431 243.966 344.919 243.428C344.68 243.178 344.517 242.973 344.415 242.815ZM344.259 243.012C344.259 243.011 344.259 243.01 344.26 243.01C344.256 243.018 344.255 243.018 344.259 243.012Z" fill="#001A39"/>
<path fill-rule="evenodd" clip-rule="evenodd" d="M352.751 162.386C350.663 161.623 349.258 161.11 348.822 160.918L349.845 158.599C350.198 158.755 351.503 159.232 353.631 160.009C354.001 160.144 354.396 160.288 354.815 160.442C357.604 161.461 361.389 162.851 365.828 164.537C374.705 167.909 386.208 172.465 397.622 177.61C409.025 182.749 420.387 188.497 428.957 194.257C433.24 197.135 436.874 200.048 439.472 202.926C442.048 205.779 443.744 208.75 443.841 211.733C443.935 214.64 442.761 217.585 440.824 220.451C438.882 223.326 436.103 226.224 432.812 229.071C426.228 234.767 417.427 240.398 408.663 245.362C399.889 250.332 391.1 254.661 384.509 257.747C381.212 259.29 378.462 260.523 376.536 261.371C375.572 261.795 374.815 262.122 374.297 262.344C374.234 262.371 374.175 262.397 374.119 262.421C374.099 262.521 374.077 262.631 374.052 262.751C373.923 263.379 373.737 264.275 373.507 265.35C373.047 267.499 372.41 270.369 371.704 273.241C370.999 276.106 370.218 279.006 369.467 281.202C369.094 282.292 368.711 283.261 368.329 283.977C368.141 284.33 367.921 284.681 367.664 284.962C367.442 285.203 366.978 285.629 366.293 285.629C365.56 285.629 365.101 285.153 364.885 284.857C364.654 284.542 364.492 284.161 364.371 283.805C364.123 283.078 363.93 282.108 363.773 281.034C363.636 280.095 363.52 279.027 363.421 277.889C363.005 280.132 362.513 282.274 361.938 284.012C361.532 285.238 361.056 286.353 360.482 287.17C359.939 287.942 359.048 288.798 357.789 288.663C356.525 288.527 355.826 287.478 355.448 286.606C355.041 285.669 354.781 284.449 354.609 283.125C354.261 280.453 354.229 276.991 354.331 273.609C354.347 273.065 354.367 272.523 354.39 271.984C353.85 273.524 353.282 274.996 352.716 276.211C352.302 277.097 351.864 277.905 351.408 278.509C351.181 278.811 350.916 279.108 350.609 279.339C350.307 279.568 349.871 279.8 349.333 279.8C348.454 279.8 347.984 279.148 347.794 278.787C347.586 278.394 347.465 277.919 347.384 277.465C347.217 276.532 347.151 275.269 347.144 273.843C347.132 270.969 347.366 267.167 347.679 263.403C347.992 259.63 348.388 255.861 348.705 253.037C348.863 251.625 349.002 250.447 349.101 249.623C349.151 249.21 349.191 248.886 349.218 248.665C349.232 248.554 349.242 248.469 349.25 248.412L349.261 248.324C349.261 248.324 349.261 248.324 350.518 248.483C351.775 248.642 351.775 248.642 351.775 248.643L351.764 248.727C351.757 248.783 351.747 248.867 351.733 248.976C351.706 249.195 351.667 249.516 351.617 249.926C351.519 250.745 351.381 251.915 351.223 253.32C350.908 256.13 350.515 259.873 350.205 263.613C349.893 267.361 349.667 271.073 349.679 273.832C349.683 274.848 349.72 275.701 349.789 276.364C349.985 276.027 350.196 275.618 350.419 275.14C351.184 273.497 351.985 271.271 352.719 268.998C353.449 266.736 354.1 264.468 354.569 262.764C354.803 261.913 354.991 261.203 355.121 260.708C355.186 260.46 355.236 260.265 355.27 260.133C355.278 260.099 355.286 260.069 355.293 260.043C355.299 260.019 355.304 259.999 355.308 259.983L355.32 259.936L355.32 259.934L356.549 260.242C357.809 260.383 357.809 260.383 357.809 260.383L357.807 260.401L357.8 260.457C357.795 260.506 357.787 260.58 357.777 260.676C357.756 260.87 357.726 261.154 357.69 261.517C357.617 262.242 357.518 263.28 357.412 264.527C357.2 267.024 356.964 270.35 356.864 273.685C356.763 277.034 356.801 280.333 357.122 282.798C357.283 284.041 357.506 284.984 357.772 285.597C357.899 285.889 358.002 286.034 358.064 286.103C358.133 286.051 358.248 285.94 358.408 285.713C358.77 285.198 359.153 284.36 359.532 283.216C360.282 280.949 360.906 277.829 361.403 274.628C361.898 271.441 362.258 268.233 362.495 265.818C362.613 264.612 362.701 263.605 362.758 262.901C362.787 262.55 362.809 262.273 362.823 262.086C362.83 261.992 362.835 261.92 362.839 261.872L362.842 261.818L362.844 261.801C362.844 261.801 362.844 261.801 363.375 261.838L362.844 261.801L365.375 261.89L364.108 261.889C365.375 261.89 365.375 261.89 365.375 261.89L365.375 261.952L365.375 262.138C365.376 262.301 365.377 262.541 365.379 262.846C365.383 263.458 365.391 264.332 365.408 265.38C365.441 267.48 365.509 270.274 365.644 273.064C365.78 275.864 365.982 278.623 366.281 280.667C366.349 281.137 366.421 281.555 366.495 281.918C366.675 281.485 366.867 280.971 367.069 280.382C367.782 278.295 368.543 275.483 369.243 272.636C369.941 269.797 370.572 266.955 371.029 264.82C371.257 263.753 371.442 262.865 371.569 262.243C371.633 261.932 371.682 261.688 371.716 261.522L371.754 261.333L371.766 261.27L371.766 261.27C371.766 261.269 371.766 261.269 373.009 261.515C372.519 260.347 372.52 260.347 372.52 260.347L372.531 260.342L372.568 260.326C372.595 260.315 372.633 260.299 372.681 260.279L372.716 260.264C372.847 260.208 373.043 260.125 373.298 260.015C373.809 259.796 374.559 259.472 375.515 259.051C377.426 258.21 380.158 256.985 383.434 255.451C389.99 252.383 398.716 248.084 407.414 243.157C416.124 238.224 424.756 232.689 431.154 227.155C434.353 224.387 436.953 221.654 438.724 219.032C440.502 216.402 441.378 213.985 441.308 211.815C441.24 209.72 440.015 207.309 437.591 204.624C435.188 201.963 431.743 199.182 427.544 196.36C419.15 190.719 407.941 185.04 396.581 179.92C385.231 174.805 373.78 170.268 364.928 166.907C360.504 165.226 356.73 163.84 353.945 162.822C353.526 162.669 353.127 162.523 352.751 162.386ZM373.009 261.515L372.52 260.347L371.766 261.27L373.009 261.515ZM365.775 283.27C365.775 283.269 365.781 283.263 365.792 283.254C365.781 283.265 365.775 283.27 365.775 283.27ZM357.987 286.148C357.987 286.147 357.991 286.146 357.999 286.144C357.991 286.148 357.987 286.148 357.987 286.148ZM356.549 260.242L357.809 260.383L355.32 259.934L356.549 260.242Z" fill="#001A39"/>
<path d="M353.002 153.322C358.431 187.396 335.211 219.41 301.138 224.84C267.066 230.27 235.052 207.049 229.622 172.975" fill="#A14259"/>
<path d="M247.14 109.619C246.766 126.82 260.407 141.069 277.608 141.436C292.814 141.766 305.713 131.141 308.754 116.791C309.153 114.909 309.381 112.964 309.425 110.969C309.799 93.7675 296.159 79.5189 278.958 79.1514C270.005 78.955 261.864 82.5536 256.048 88.4773C250.688 93.9322 247.317 101.37 247.14 109.619Z" fill="#FFEDDC"/>
<path d="M256.048 88.471C264.049 105.146 280.921 116.822 300.682 117.253C303.425 117.31 306.124 117.152 308.76 116.791C309.159 114.909 309.387 112.964 309.431 110.968C309.805 93.7675 296.165 79.5189 278.964 79.1515C270.005 78.9551 261.857 82.5473 256.048 88.471Z" fill="#001A39"/>
<path d="M307.107 90.4346C313.664 90.4346 318.979 85.119 318.979 78.562C318.979 72.005 313.664 66.6895 307.107 66.6895C300.549 66.6895 295.234 72.005 295.234 78.562C295.234 85.119 300.549 90.4346 307.107 90.4346Z" fill="#001A39"/>
<path d="M302.488 67.5879C321.152 67.5879 336.282 52.4577 336.282 33.7937C336.282 15.1297 321.152 -0.000488281 302.488 -0.000488281C283.824 -0.000488281 268.693 15.1297 268.693 33.7937C268.693 52.4577 283.824 67.5879 302.488 67.5879Z" fill="#001A39"/>
<path d="M256.024 109.248C256.105 105.501 254.781 102.434 253.067 102.397C251.353 102.36 249.898 105.367 249.817 109.114C249.736 112.86 251.06 115.927 252.774 115.965C254.488 116.002 255.943 112.994 256.024 109.248Z" fill="#001A39"/>
<path d="M266.322 109.941C266.403 106.194 265.079 103.126 263.365 103.089C261.65 103.052 260.195 106.06 260.114 109.806C260.033 113.553 261.357 116.621 263.071 116.658C264.786 116.695 266.241 113.687 266.322 109.941Z" fill="#001A39"/>
<path fill-rule="evenodd" clip-rule="evenodd" d="M252.924 123.542C252.923 123.542 252.923 123.542 252.652 122.305C252.381 121.068 252.38 121.068 252.38 121.068L252.379 121.069L252.378 121.069C252.382 121.068 252.39 121.066 252.402 121.063C252.427 121.057 252.469 121.046 252.525 121.03C252.637 120.998 252.805 120.946 253.009 120.869C253.421 120.715 253.959 120.47 254.482 120.108C255.508 119.398 256.419 118.297 256.347 116.486L258.879 116.385C258.996 119.316 257.427 121.151 255.925 122.19C255.184 122.703 254.446 123.036 253.898 123.241C253.623 123.344 253.389 123.417 253.221 123.465C253.136 123.49 253.067 123.508 253.017 123.52C252.992 123.526 252.971 123.531 252.955 123.535L252.935 123.54L252.928 123.541L252.925 123.542L252.924 123.542ZM252.378 121.069L252.377 121.069L252.376 121.069C252.375 121.069 252.376 121.069 252.378 121.069Z" fill="#001A39"/>
<path fill-rule="evenodd" clip-rule="evenodd" d="M81.6351 193.433C81.6349 193.433 81.6348 193.433 81.1845 194.617C80.7343 195.802 80.7345 195.802 80.7349 195.802L80.8535 195.847C80.9317 195.877 81.0478 195.92 81.1999 195.978C81.5042 196.092 81.9527 196.26 82.5309 196.475C83.6871 196.906 85.3618 197.524 87.4382 198.276C91.5905 199.779 97.3511 201.82 103.784 203.966C116.621 208.25 132.232 212.989 143.068 214.696C157.124 216.912 177.451 216.766 194.188 216.078C202.572 215.733 210.084 215.251 215.499 214.855C218.207 214.657 220.392 214.481 221.9 214.354C222.654 214.29 223.239 214.239 223.636 214.204C223.835 214.186 223.986 214.172 224.089 214.163L224.243 214.149C224.244 214.149 224.244 214.149 224.126 212.887C224.009 211.625 224.009 211.625 224.008 211.625L223.858 211.639C223.758 211.648 223.608 211.662 223.412 211.679C223.019 211.714 222.437 211.765 221.687 211.828C220.187 211.955 218.012 212.131 215.314 212.328C209.918 212.722 202.435 213.203 194.084 213.546C177.349 214.234 157.246 214.366 143.462 212.192C132.859 210.522 117.429 205.848 104.586 201.562C98.1786 199.424 92.439 197.391 88.3011 195.893C86.2324 195.144 84.5646 194.528 83.4146 194.1C82.8395 193.886 82.394 193.719 82.0925 193.606C81.9417 193.549 81.827 193.506 81.7501 193.477L81.6351 193.433Z" fill="#001A39"/>
<path fill-rule="evenodd" clip-rule="evenodd" d="M90.2522 166.63L155.428 180.832L229.469 174.878L229.266 172.352L155.6 178.276L90.7918 164.154L90.2522 166.63Z" fill="#001A39"/>
<path fill-rule="evenodd" clip-rule="evenodd" d="M69.1795 226.279L98.022 128.017L95.5903 127.304L66.7478 225.565L69.1795 226.279Z" fill="#001A39"/>
<path fill-rule="evenodd" clip-rule="evenodd" d="M74.6891 225.748L75.4587 122.358L72.9246 122.34L72.155 225.729L74.6891 225.748Z" fill="#001A39"/>
<path fill-rule="evenodd" clip-rule="evenodd" d="M85.1187 225.23L55.7547 126.433L53.3254 127.155L82.6894 225.952L85.1187 225.23Z" fill="#001A39"/>
<path d="M61.33 157.522C61.33 157.522 88.0661 168.14 88.3497 170.946C88.6333 173.751 63.9885 167.502 63.9885 167.502C63.9885 167.502 94.0868 175.123 93.8235 179.043C93.5602 182.962 64.0694 175.832 64.0694 175.832C64.0694 175.832 90.2334 182.116 89.5346 185.965C88.8358 189.813 62.8592 184.805 62.8592 184.805C62.8592 184.805 57.0461 182.805 57.0461 172.47C57.0461 162.135 61.33 157.522 61.33 157.522Z" fill="#FDC4A0"/>
<path fill-rule="evenodd" clip-rule="evenodd" d="M60.4017 156.66L61.3302 157.522L61.7979 156.345L60.9919 156.024L60.4017 156.66ZM62.8594 184.805C62.4471 186.003 62.4461 186.002 62.4452 186.002L62.4431 186.001L62.4386 186L62.4279 185.996C62.4238 185.995 62.4195 185.993 62.4147 185.991C62.4102 185.99 62.4053 185.988 62.4001 185.986C62.3788 185.978 62.352 185.968 62.3201 185.955C62.2562 185.929 62.1717 185.893 62.0696 185.845C61.8654 185.749 61.59 185.604 61.2677 185.398C60.6225 184.985 59.7903 184.324 58.9687 183.311C57.3104 181.266 55.7792 177.891 55.7792 172.47C55.7792 167.122 56.8888 163.212 58.0276 160.612C58.5961 159.314 59.1697 158.348 59.6112 157.695C59.8319 157.368 60.0195 157.12 60.1569 156.949C60.2256 156.863 60.2818 156.796 60.3233 156.748C60.3441 156.724 60.3612 156.705 60.3743 156.69L60.391 156.671L60.3971 156.665L60.3996 156.662L60.4007 156.661C60.4012 156.66 60.4017 156.66 61.3302 157.522C61.7979 156.345 61.7976 156.344 61.7979 156.345L61.8763 156.376C61.9274 156.396 62.0031 156.426 62.1016 156.466C62.2987 156.545 62.5874 156.661 62.9546 156.809C63.6889 157.106 64.7376 157.533 65.9967 158.054C68.514 159.096 71.8767 160.516 75.251 162.025C78.6193 163.532 82.0244 165.138 84.6155 166.553C85.9061 167.257 87.0323 167.934 87.8592 168.543C88.2701 168.846 88.6455 169.16 88.936 169.479C89.1895 169.757 89.55 170.22 89.6105 170.818C89.6859 171.564 89.2858 172.122 88.8186 172.428C88.4248 172.687 87.9587 172.798 87.5736 172.856C87.165 172.918 86.6882 172.941 86.1657 172.936C87.4773 173.434 88.706 173.936 89.7973 174.432C91.2163 175.077 92.4629 175.739 93.3652 176.398C93.8147 176.727 94.2316 177.093 94.5409 177.5C94.8456 177.901 95.1327 178.459 95.0879 179.127C95.0401 179.838 94.6421 180.358 94.178 180.686C93.7488 180.99 93.2301 181.161 92.7378 181.268C91.744 181.483 90.4395 181.52 89.0105 181.46C87.9216 181.415 86.7061 181.31 85.4153 181.163C85.7559 181.313 86.0844 181.464 86.3989 181.615C87.6079 182.196 88.6834 182.81 89.452 183.45C89.8363 183.77 90.1985 184.141 90.4527 184.568C90.7134 185.006 90.8948 185.567 90.7814 186.191C90.5528 187.45 89.3752 187.988 88.5494 188.234C87.613 188.512 86.4102 188.636 85.1077 188.673C82.4796 188.747 79.0931 188.473 75.7876 188.086C72.4688 187.697 69.1777 187.188 66.72 186.777C65.4901 186.571 64.4668 186.389 63.7502 186.259C63.3919 186.194 63.1101 186.141 62.9175 186.105C62.8212 186.087 62.7472 186.073 62.697 186.064L62.621 186.049L62.62 186.049C62.6197 186.049 62.6195 186.049 62.8594 184.805ZM64.3875 174.605L64.3721 174.602L64.371 174.601L64.3684 174.601L64.366 174.6C64.3657 174.6 64.3655 174.6 64.0696 175.832C63.7718 177.064 63.772 177.064 63.7723 177.064L63.7735 177.064L63.7745 177.064L63.7777 177.065L63.8458 177.082C63.8943 177.093 63.9667 177.111 64.0614 177.134C64.2507 177.181 64.5292 177.249 64.8838 177.338C65.5931 177.517 66.6067 177.776 67.8212 178.099C70.2521 178.745 73.4796 179.645 76.6802 180.662C79.8928 181.684 83.0296 182.809 85.3022 183.9C86.4479 184.45 87.3018 184.957 87.8302 185.398C87.9694 185.514 88.0709 185.612 88.1434 185.693C88.0658 185.726 87.9625 185.764 87.8263 185.805C87.2084 185.989 86.2671 186.105 85.036 186.14C82.5971 186.209 79.3584 185.953 76.0824 185.569C72.8197 185.187 69.573 184.685 67.1383 184.277C65.9219 184.074 64.9104 183.894 64.2036 183.766C63.8503 183.701 63.5733 183.65 63.385 183.615C63.3172 183.602 63.261 183.591 63.2168 183.583C63.198 183.575 63.1755 183.564 63.1496 183.552C63.0359 183.499 62.8571 183.406 62.6344 183.264C62.1897 182.979 61.5686 182.493 60.937 181.715C59.6888 180.176 58.3134 177.383 58.3134 172.47C58.3134 167.483 59.3458 163.919 60.3489 161.629C60.8514 160.482 61.3488 159.649 61.7105 159.114C61.7239 159.094 61.7372 159.075 61.7502 159.056C61.8301 159.088 61.915 159.122 62.0046 159.159C62.7335 159.453 63.7757 159.878 65.0275 160.396C67.5321 161.433 70.8712 162.843 74.2163 164.339C77.5675 165.837 80.8996 167.411 83.4013 168.777C84.5103 169.382 85.427 169.931 86.101 170.401C85.7202 170.395 85.2756 170.371 84.7694 170.328C82.5725 170.143 79.5756 169.637 76.5214 169.033C73.4787 168.431 70.4229 167.742 68.1248 167.201C66.9766 166.932 66.0191 166.699 65.3493 166.535C65.0143 166.453 64.7514 166.387 64.5725 166.343C64.483 166.32 64.4146 166.303 64.3686 166.292L64.3227 166.28L64.3169 166.278L64.3057 166.276L64.304 166.275L64.3002 166.274C64.2999 166.274 64.2996 166.274 63.9886 167.502C63.6772 168.731 63.6773 168.731 63.6776 168.731L63.6786 168.731L63.6822 168.732L63.6961 168.735L63.6982 168.736L63.7615 168.752C63.8176 168.766 63.9012 168.788 64.0105 168.816C64.229 168.872 64.5503 168.956 64.9595 169.063C65.7779 169.278 66.9477 169.59 68.351 169.976C71.1592 170.749 74.8954 171.819 78.619 173.01C82.3524 174.203 86.0332 175.505 88.7487 176.739C90.1143 177.36 91.176 177.937 91.8692 178.444C92.0377 178.567 92.1721 178.678 92.2777 178.774C92.2534 178.78 92.2279 178.785 92.2013 178.791C91.5319 178.936 90.4892 178.986 89.1164 178.928C86.4009 178.814 82.7569 178.303 79.0657 177.659C75.3874 177.017 71.7121 176.252 68.953 175.647C67.5744 175.345 66.4265 175.083 65.6238 174.896C65.2225 174.803 64.9076 174.729 64.6934 174.678C64.6243 174.662 64.5657 174.648 64.518 174.637C64.4918 174.63 64.4689 174.625 64.4494 174.62L64.3875 174.605ZM63.9886 167.502L63.6776 168.731L64.3002 166.274L63.9886 167.502ZM87.1527 171.298C87.1529 171.298 87.1514 171.295 87.1476 171.29C87.1506 171.295 87.1525 171.298 87.1527 171.298ZM62.2631 158.38C62.2636 158.379 62.263 158.38 62.2615 158.381L62.2631 158.38ZM88.3587 185.571C88.3584 185.57 88.3561 185.573 88.3524 185.577C88.357 185.573 88.3589 185.571 88.3587 185.571ZM64.0696 175.832L63.7723 177.064L64.366 174.6L64.0696 175.832ZM62.8594 184.805L62.4471 186.003L62.5317 186.032L62.62 186.049L62.8594 184.805Z" fill="#001A39"/>
<path fill-rule="evenodd" clip-rule="evenodd" d="M77.8634 122.858L58.9214 139.473V78.3022L71.6986 91.0303C69.6152 93.0961 68.3258 95.9557 68.3258 99.1152C68.3258 105.415 73.4528 110.523 79.7773 110.523C82.9491 110.523 85.8197 109.238 87.8935 107.163L103.271 122.481L77.8634 122.858ZM84.6545 103.936L74.9376 94.2569C73.6832 95.4969 72.9064 97.2157 72.9064 99.1152C72.9064 102.895 75.9826 105.96 79.7773 105.96C81.6842 105.96 83.4096 105.186 84.6545 103.936Z" fill="#FFEDDC"/>
<path d="M70.6768 118.719C70.6768 120.659 69.0978 122.231 67.1501 122.231C65.2024 122.231 63.6234 120.659 63.6234 118.719C63.6234 116.779 65.2024 115.207 67.1501 115.207C69.0978 115.207 70.6768 116.779 70.6768 118.719Z" fill="#FFEDDC"/>
<path d="M68.3256 99.1145C68.3256 95.9547 69.615 93.095 71.6984 91.0291L74.9373 94.2558C73.6829 95.4959 72.9062 97.2148 72.9062 99.1145C72.9062 102.895 75.9824 105.959 79.7772 105.959C81.684 105.959 83.4095 105.186 84.6543 103.936L87.8933 107.163C85.8195 109.238 82.9489 110.523 79.7772 110.523C73.4526 110.523 68.3256 105.415 68.3256 99.1145Z" fill="#001A39"/>
<path d="M70.6768 118.719C70.6768 120.659 69.0978 122.231 67.1501 122.231C65.2024 122.231 63.6234 120.659 63.6234 118.719C63.6234 116.779 65.2024 115.207 67.1501 115.207C69.0978 115.207 70.6768 116.779 70.6768 118.719Z" fill="#001A39"/>
<path fill-rule="evenodd" clip-rule="evenodd" d="M131.977 108.411L152.929 122.407L93.8417 138.24L102.829 122.604C105.364 124.081 108.46 124.587 111.512 123.769C117.597 122.138 121.204 115.864 119.567 109.755C118.746 106.691 116.762 104.251 114.221 102.785L125.037 83.967L131.977 108.411ZM111.942 106.749L105.107 118.64C106.63 119.531 108.491 119.836 110.326 119.344C113.977 118.366 116.141 114.601 115.159 110.936C114.666 109.094 113.472 107.628 111.942 106.749Z" fill="#AF687D"/>
<path d="M129.841 116.424C131.715 115.922 133.643 117.04 134.147 118.921C134.651 120.802 133.54 122.734 131.666 123.236C129.792 123.738 127.864 122.621 127.36 120.739C126.856 118.858 127.967 116.926 129.841 116.424Z" fill="#AF687D"/>
<path d="M111.512 123.769C108.46 124.587 105.364 124.082 102.829 122.604L105.108 118.64C106.63 119.531 108.491 119.836 110.326 119.345C113.977 118.366 116.141 114.602 115.159 110.936C114.666 109.094 113.472 107.628 111.942 106.749L114.221 102.785C116.762 104.251 118.746 106.691 119.567 109.755C121.204 115.864 117.597 122.139 111.512 123.769Z" fill="#001A39"/>
<path d="M129.841 116.424C131.715 115.922 133.643 117.04 134.147 118.921C134.651 120.802 133.54 122.734 131.666 123.236C129.792 123.738 127.864 122.621 127.36 120.739C126.856 118.858 127.967 116.926 129.841 116.424Z" fill="#001A39"/>
<path fill-rule="evenodd" clip-rule="evenodd" d="M30.3535 114.091L36.6977 89.706L71.0461 140.323L53.3264 136.966C53.8903 134.086 53.3516 130.996 51.5775 128.382C48.0398 123.168 40.9295 121.821 35.6962 125.372C33.0716 127.153 31.4176 129.828 30.8669 132.71L9.5413 128.669L30.3535 114.091ZM35.3589 133.561L48.8345 136.114C49.1762 134.384 48.8538 132.526 47.7872 130.954C45.6646 127.826 41.3984 127.017 38.2584 129.148C36.6805 130.219 35.6873 131.828 35.3589 133.561Z" fill="#F96155"/>
<path d="M38.6269 113.48C37.5383 111.876 37.9618 109.689 39.5729 108.595C41.184 107.502 43.3726 107.916 44.4613 109.521C45.55 111.125 45.1264 113.312 43.5153 114.405C41.9042 115.498 39.7156 115.084 38.6269 113.48Z" fill="#F96155"/>
<path d="M51.5775 128.381C53.3516 130.996 53.8903 134.086 53.3264 136.965L48.8346 136.114C49.1762 134.384 48.8538 132.525 47.7872 130.953C45.6646 127.826 41.3984 127.017 38.2584 129.148C36.6805 130.219 35.6873 131.828 35.3589 133.561L30.8669 132.71C31.4176 129.828 33.0716 127.153 35.6962 125.372C40.9295 121.821 48.0398 123.168 51.5775 128.381Z" fill="#001A39"/>
<path d="M38.6269 113.48C37.5383 111.876 37.9618 109.689 39.5729 108.595C41.184 107.502 43.3726 107.916 44.4613 109.521C45.55 111.125 45.1264 113.312 43.5153 114.405C41.9042 115.498 39.7156 115.084 38.6269 113.48Z" fill="#001A39"/>
<rect x="70.0001" y="576" width="415" height="64" rx="16" fill="#AF687D"/>
<rect x="59.0001" y="578" width="397" height="55" rx="14" fill="white" stroke="#742A40" stroke-width="4"/>
<path d="M88.4041 603.324C88.4041 603.996 88.2421 604.626 87.9181 605.214C87.6061 605.802 87.1081 606.276 86.4241 606.636C85.7521 606.996 84.9001 607.176 83.8681 607.176H81.7621V612H79.2421V599.436H83.8681C84.8401 599.436 85.6681 599.604 86.3521 599.94C87.0361 600.276 87.5461 600.738 87.8821 601.326C88.2301 601.914 88.4041 602.58 88.4041 603.324ZM83.7601 605.142C84.4561 605.142 84.9721 604.986 85.3081 604.674C85.6441 604.35 85.8121 603.9 85.8121 603.324C85.8121 602.1 85.1281 601.488 83.7601 601.488H81.7621V605.142H83.7601ZM99.6073 602.028V612H97.0693V610.74C96.7453 611.172 96.3193 611.514 95.7913 611.766C95.2753 612.006 94.7113 612.126 94.0993 612.126C93.3193 612.126 92.6293 611.964 92.0293 611.64C91.4293 611.304 90.9553 610.818 90.6073 610.182C90.2713 609.534 90.1033 608.766 90.1033 607.878V602.028H92.6233V607.518C92.6233 608.31 92.8213 608.922 93.2173 609.354C93.6133 609.774 94.1533 609.984 94.8373 609.984C95.5333 609.984 96.0793 609.774 96.4753 609.354C96.8713 608.922 97.0693 608.31 97.0693 607.518V602.028H99.6073ZM105.028 604.098V608.922C105.028 609.258 105.106 609.504 105.262 609.66C105.43 609.804 105.706 609.876 106.09 609.876H107.26V612H105.676C103.552 612 102.49 610.968 102.49 608.904V604.098H101.302V602.028H102.49V599.562H105.028V602.028H107.26V604.098H105.028ZM122.901 602.028L116.727 616.716H114.045L116.205 611.748L112.209 602.028H115.035L117.609 608.994L120.219 602.028H122.901ZM128.688 612.162C127.728 612.162 126.864 611.952 126.096 611.532C125.328 611.1 124.722 610.494 124.278 609.714C123.846 608.934 123.63 608.034 123.63 607.014C123.63 605.994 123.852 605.094 124.296 604.314C124.752 603.534 125.37 602.934 126.15 602.514C126.93 602.082 127.8 601.866 128.76 601.866C129.72 601.866 130.59 602.082 131.37 602.514C132.15 602.934 132.762 603.534 133.206 604.314C133.662 605.094 133.89 605.994 133.89 607.014C133.89 608.034 133.656 608.934 133.188 609.714C132.732 610.494 132.108 611.1 131.316 611.532C130.536 611.952 129.66 612.162 128.688 612.162ZM128.688 609.966C129.144 609.966 129.57 609.858 129.966 609.642C130.374 609.414 130.698 609.078 130.938 608.634C131.178 608.19 131.298 607.65 131.298 607.014C131.298 606.066 131.046 605.34 130.542 604.836C130.05 604.32 129.444 604.062 128.724 604.062C128.004 604.062 127.398 604.32 126.906 604.836C126.426 605.34 126.186 606.066 126.186 607.014C126.186 607.962 126.42 608.694 126.888 609.21C127.368 609.714 127.968 609.966 128.688 609.966ZM145.152 602.028V612H142.614V610.74C142.29 611.172 141.864 611.514 141.336 611.766C140.82 612.006 140.256 612.126 139.644 612.126C138.864 612.126 138.174 611.964 137.574 611.64C136.974 611.304 136.5 610.818 136.152 610.182C135.816 609.534 135.648 608.766 135.648 607.878V602.028H138.168V607.518C138.168 608.31 138.366 608.922 138.762 609.354C139.158 609.774 139.698 609.984 140.382 609.984C141.078 609.984 141.624 609.774 142.02 609.354C142.416 608.922 142.614 608.31 142.614 607.518V602.028H145.152ZM150.159 603.576C150.483 603.048 150.903 602.634 151.419 602.334C151.947 602.034 152.547 601.884 153.219 601.884V604.53H152.553C151.761 604.53 151.161 604.716 150.753 605.088C150.357 605.46 150.159 606.108 150.159 607.032V612H147.639V602.028H150.159V603.576ZM158.557 607.014C158.557 605.982 158.767 605.082 159.187 604.314C159.607 603.534 160.189 602.934 160.933 602.514C161.677 602.082 162.529 601.866 163.489 601.866C164.725 601.866 165.745 602.178 166.549 602.802C167.365 603.414 167.911 604.278 168.187 605.394H165.469C165.325 604.962 165.079 604.626 164.731 604.386C164.395 604.134 163.975 604.008 163.471 604.008C162.751 604.008 162.181 604.272 161.761 604.8C161.341 605.316 161.131 606.054 161.131 607.014C161.131 607.962 161.341 608.7 161.761 609.228C162.181 609.744 162.751 610.002 163.471 610.002C164.491 610.002 165.157 609.546 165.469 608.634H168.187C167.911 609.714 167.365 610.572 166.549 611.208C165.733 611.844 164.713 612.162 163.489 612.162C162.529 612.162 161.677 611.952 160.933 611.532C160.189 611.1 159.607 610.5 159.187 609.732C158.767 608.952 158.557 608.046 158.557 607.014ZM179.447 602.028V612H176.909V610.74C176.585 611.172 176.159 611.514 175.631 611.766C175.115 612.006 174.551 612.126 173.939 612.126C173.159 612.126 172.469 611.964 171.869 611.64C171.269 611.304 170.795 610.818 170.447 610.182C170.111 609.534 169.943 608.766 169.943 607.878V602.028H172.463V607.518C172.463 608.31 172.661 608.922 173.057 609.354C173.453 609.774 173.993 609.984 174.677 609.984C175.373 609.984 175.919 609.774 176.315 609.354C176.711 608.922 176.909 608.31 176.909 607.518V602.028H179.447ZM185.75 612.162C184.934 612.162 184.202 612.018 183.554 611.73C182.906 611.43 182.39 611.028 182.006 610.524C181.634 610.02 181.43 609.462 181.394 608.85H183.932C183.98 609.234 184.166 609.552 184.49 609.804C184.826 610.056 185.24 610.182 185.732 610.182C186.212 610.182 186.584 610.086 186.848 609.894C187.124 609.702 187.262 609.456 187.262 609.156C187.262 608.832 187.094 608.592 186.758 608.436C186.434 608.268 185.912 608.088 185.192 607.896C184.448 607.716 183.836 607.53 183.356 607.338C182.888 607.146 182.48 606.852 182.132 606.456C181.796 606.06 181.628 605.526 181.628 604.854C181.628 604.302 181.784 603.798 182.096 603.342C182.42 602.886 182.876 602.526 183.464 602.262C184.064 601.998 184.766 601.866 185.57 601.866C186.758 601.866 187.706 602.166 188.414 602.766C189.122 603.354 189.512 604.152 189.584 605.16H187.172C187.136 604.764 186.968 604.452 186.668 604.224C186.38 603.984 185.99 603.864 185.498 603.864C185.042 603.864 184.688 603.948 184.436 604.116C184.196 604.284 184.076 604.518 184.076 604.818C184.076 605.154 184.244 605.412 184.58 605.592C184.916 605.76 185.438 605.934 186.146 606.114C186.866 606.294 187.46 606.48 187.928 606.672C188.396 606.864 188.798 607.164 189.134 607.572C189.482 607.968 189.662 608.496 189.674 609.156C189.674 609.732 189.512 610.248 189.188 610.704C188.876 611.16 188.42 611.52 187.82 611.784C187.232 612.036 186.542 612.162 185.75 612.162ZM194.676 604.098V608.922C194.676 609.258 194.754 609.504 194.91 609.66C195.078 609.804 195.354 609.876 195.738 609.876H196.908V612H195.324C193.2 612 192.138 610.968 192.138 608.904V604.098H190.95V602.028H192.138V599.562H194.676V602.028H196.908V604.098H194.676ZM203.149 612.162C202.189 612.162 201.325 611.952 200.557 611.532C199.789 611.1 199.183 610.494 198.739 609.714C198.307 608.934 198.091 608.034 198.091 607.014C198.091 605.994 198.313 605.094 198.757 604.314C199.213 603.534 199.831 602.934 200.611 602.514C201.391 602.082 202.261 601.866 203.221 601.866C204.181 601.866 205.051 602.082 205.831 602.514C206.611 602.934 207.223 603.534 207.667 604.314C208.123 605.094 208.351 605.994 208.351 607.014C208.351 608.034 208.117 608.934 207.649 609.714C207.193 610.494 206.569 611.1 205.777 611.532C204.997 611.952 204.121 612.162 203.149 612.162ZM203.149 609.966C203.605 609.966 204.031 609.858 204.427 609.642C204.835 609.414 205.159 609.078 205.399 608.634C205.639 608.19 205.759 607.65 205.759 607.014C205.759 606.066 205.507 605.34 205.003 604.836C204.511 604.32 203.905 604.062 203.185 604.062C202.465 604.062 201.859 604.32 201.367 604.836C200.887 605.34 200.647 606.066 200.647 607.014C200.647 607.962 200.881 608.694 201.349 609.21C201.829 609.714 202.429 609.966 203.149 609.966ZM222.583 601.884C223.807 601.884 224.791 602.262 225.535 603.018C226.291 603.762 226.669 604.806 226.669 606.15V612H224.149V606.492C224.149 605.712 223.951 605.118 223.555 604.71C223.159 604.29 222.619 604.08 221.935 604.08C221.251 604.08 220.705 604.29 220.297 604.71C219.901 605.118 219.703 605.712 219.703 606.492V612H217.183V606.492C217.183 605.712 216.985 605.118 216.589 604.71C216.193 604.29 215.653 604.08 214.969 604.08C214.273 604.08 213.721 604.29 213.313 604.71C212.917 605.118 212.719 605.712 212.719 606.492V612H210.199V602.028H212.719V603.234C213.043 602.814 213.457 602.484 213.961 602.244C214.477 602.004 215.041 601.884 215.653 601.884C216.433 601.884 217.129 602.052 217.741 602.388C218.353 602.712 218.827 603.18 219.163 603.792C219.487 603.216 219.955 602.754 220.567 602.406C221.191 602.058 221.863 601.884 222.583 601.884ZM238.33 606.798C238.33 607.158 238.306 607.482 238.258 607.77H230.968C231.028 608.49 231.28 609.054 231.724 609.462C232.168 609.87 232.714 610.074 233.362 610.074C234.298 610.074 234.964 609.672 235.36 608.868H238.078C237.79 609.828 237.238 610.62 236.422 611.244C235.606 611.856 234.604 612.162 233.416 612.162C232.456 612.162 231.592 611.952 230.824 611.532C230.068 611.1 229.474 610.494 229.042 609.714C228.622 608.934 228.412 608.034 228.412 607.014C228.412 605.982 228.622 605.076 229.042 604.296C229.462 603.516 230.05 602.916 230.806 602.496C231.562 602.076 232.432 601.866 233.416 601.866C234.364 601.866 235.21 602.07 235.954 602.478C236.71 602.886 237.292 603.468 237.7 604.224C238.12 604.968 238.33 605.826 238.33 606.798ZM235.72 606.078C235.708 605.43 235.474 604.914 235.018 604.53C234.562 604.134 234.004 603.936 233.344 603.936C232.72 603.936 232.192 604.128 231.76 604.512C231.34 604.884 231.082 605.406 230.986 606.078H235.72ZM242.69 603.576C243.014 603.048 243.434 602.634 243.95 602.334C244.478 602.034 245.078 601.884 245.75 601.884V604.53H245.084C244.292 604.53 243.692 604.716 243.284 605.088C242.888 605.46 242.69 606.108 242.69 607.032V612H240.17V602.028H242.69V603.576ZM251.263 612.162C250.447 612.162 249.715 612.018 249.067 611.73C248.419 611.43 247.903 611.028 247.519 610.524C247.147 610.02 246.943 609.462 246.907 608.85H249.445C249.493 609.234 249.679 609.552 250.003 609.804C250.339 610.056 250.753 610.182 251.245 610.182C251.725 610.182 252.097 610.086 252.361 609.894C252.637 609.702 252.775 609.456 252.775 609.156C252.775 608.832 252.607 608.592 252.271 608.436C251.947 608.268 251.425 608.088 250.705 607.896C249.961 607.716 249.349 607.53 248.869 607.338C248.401 607.146 247.993 606.852 247.645 606.456C247.309 606.06 247.141 605.526 247.141 604.854C247.141 604.302 247.297 603.798 247.609 603.342C247.933 602.886 248.389 602.526 248.977 602.262C249.577 601.998 250.279 601.866 251.083 601.866C252.271 601.866 253.219 602.166 253.927 602.766C254.635 603.354 255.025 604.152 255.097 605.16H252.685C252.649 604.764 252.481 604.452 252.181 604.224C251.893 603.984 251.503 603.864 251.011 603.864C250.555 603.864 250.201 603.948 249.949 604.116C249.709 604.284 249.589 604.518 249.589 604.818C249.589 605.154 249.757 605.412 250.093 605.592C250.429 605.76 250.951 605.934 251.659 606.114C252.379 606.294 252.973 606.48 253.441 606.672C253.909 606.864 254.311 607.164 254.647 607.572C254.995 607.968 255.175 608.496 255.187 609.156C255.187 609.732 255.025 610.248 254.701 610.704C254.389 611.16 253.933 611.52 253.333 611.784C252.745 612.036 252.055 612.162 251.263 612.162ZM260.861 606.978C261.041 605.97 261.395 605.076 261.923 604.296C262.463 603.516 263.117 602.916 263.885 602.496C264.653 602.076 265.463 601.866 266.315 601.866C267.059 601.866 267.683 602.016 268.187 602.316C268.703 602.616 269.081 602.994 269.321 603.45L269.573 602.028H272.111L270.347 612H267.809L268.079 610.542C267.683 611.01 267.167 611.4 266.531 611.712C265.907 612.012 265.223 612.162 264.479 612.162C263.747 612.162 263.099 612 262.535 611.676C261.971 611.34 261.533 610.872 261.221 610.272C260.909 609.66 260.753 608.952 260.753 608.148C260.753 607.776 260.789 607.386 260.861 606.978ZM268.691 607.014C268.739 606.702 268.763 606.474 268.763 606.33C268.763 605.622 268.553 605.07 268.133 604.674C267.725 604.278 267.209 604.08 266.585 604.08C266.117 604.08 265.661 604.194 265.217 604.422C264.785 604.65 264.407 604.986 264.083 605.43C263.759 605.862 263.543 606.378 263.435 606.978C263.399 607.206 263.381 607.422 263.381 607.626C263.381 608.346 263.585 608.916 263.993 609.336C264.401 609.744 264.917 609.948 265.541 609.948C266.009 609.948 266.465 609.834 266.909 609.606C267.353 609.366 267.731 609.024 268.043 608.58C268.367 608.136 268.583 607.614 268.691 607.014ZM280.116 601.884C281.148 601.884 281.958 602.166 282.546 602.73C283.146 603.282 283.446 604.074 283.446 605.106C283.446 605.49 283.416 605.838 283.356 606.15L282.312 612H279.81L280.782 606.492C280.818 606.276 280.836 606.066 280.836 605.862C280.836 605.262 280.674 604.806 280.35 604.494C280.038 604.182 279.588 604.026 279 604.026C278.328 604.026 277.752 604.23 277.272 604.638C276.804 605.034 276.492 605.61 276.336 606.366L275.346 612H272.808L274.572 602.028H277.11L276.894 603.252C277.302 602.832 277.788 602.502 278.352 602.262C278.916 602.01 279.504 601.884 280.116 601.884ZM284.96 606.978C285.14 605.97 285.494 605.076 286.022 604.296C286.562 603.516 287.216 602.916 287.984 602.496C288.764 602.076 289.58 601.866 290.432 601.866C291.08 601.866 291.674 602.01 292.214 602.298C292.754 602.574 293.156 602.946 293.42 603.414L294.266 598.68H296.804L294.446 612H291.908L292.178 610.524C291.782 611.016 291.272 611.412 290.648 611.712C290.036 612.012 289.358 612.162 288.614 612.162C287.882 612.162 287.228 612 286.652 611.676C286.088 611.34 285.644 610.872 285.32 610.272C285.008 609.66 284.852 608.952 284.852 608.148C284.852 607.776 284.888 607.386 284.96 606.978ZM292.79 607.014C292.838 606.702 292.862 606.474 292.862 606.33C292.862 605.622 292.652 605.07 292.232 604.674C291.824 604.278 291.308 604.08 290.684 604.08C290.216 604.08 289.76 604.194 289.316 604.422C288.884 604.65 288.506 604.986 288.182 605.43C287.858 605.862 287.642 606.378 287.534 606.978C287.498 607.206 287.48 607.422 287.48 607.626C287.48 608.346 287.684 608.916 288.092 609.336C288.5 609.744 289.016 609.948 289.64 609.948C290.108 609.948 290.564 609.834 291.008 609.606C291.452 609.366 291.83 609.024 292.142 608.58C292.466 608.136 292.682 607.614 292.79 607.014ZM311.673 602.028L305.499 616.716H302.817L304.977 611.748L300.981 602.028H303.807L306.381 608.994L308.991 602.028H311.673ZM317.459 612.162C316.499 612.162 315.635 611.952 314.867 611.532C314.099 611.1 313.493 610.494 313.049 609.714C312.617 608.934 312.401 608.034 312.401 607.014C312.401 605.994 312.623 605.094 313.067 604.314C313.523 603.534 314.141 602.934 314.921 602.514C315.701 602.082 316.571 601.866 317.531 601.866C318.491 601.866 319.361 602.082 320.141 602.514C320.921 602.934 321.533 603.534 321.977 604.314C322.433 605.094 322.661 605.994 322.661 607.014C322.661 608.034 322.427 608.934 321.959 609.714C321.503 610.494 320.879 611.1 320.087 611.532C319.307 611.952 318.431 612.162 317.459 612.162ZM317.459 609.966C317.915 609.966 318.341 609.858 318.737 609.642C319.145 609.414 319.469 609.078 319.709 608.634C319.949 608.19 320.069 607.65 320.069 607.014C320.069 606.066 319.817 605.34 319.313 604.836C318.821 604.32 318.215 604.062 317.495 604.062C316.775 604.062 316.169 604.32 315.677 604.836C315.197 605.34 314.957 606.066 314.957 607.014C314.957 607.962 315.191 608.694 315.659 609.21C316.139 609.714 316.739 609.966 317.459 609.966ZM333.924 602.028V612H331.386V610.74C331.062 611.172 330.636 611.514 330.108 611.766C329.592 612.006 329.028 612.126 328.416 612.126C327.636 612.126 326.946 611.964 326.346 611.64C325.746 611.304 325.272 610.818 324.924 610.182C324.588 609.534 324.42 608.766 324.42 607.878V602.028H326.94V607.518C326.94 608.31 327.138 608.922 327.534 609.354C327.93 609.774 328.47 609.984 329.154 609.984C329.85 609.984 330.396 609.774 330.792 609.354C331.188 608.922 331.386 608.31 331.386 607.518V602.028H333.924ZM338.93 603.576C339.254 603.048 339.674 602.634 340.19 602.334C340.718 602.034 341.318 601.884 341.99 601.884V604.53H341.324C340.532 604.53 339.932 604.716 339.524 605.088C339.128 605.46 338.93 606.108 338.93 607.032V612H336.41V602.028H338.93V603.576ZM350.91 604.098V608.922C350.91 609.258 350.988 609.504 351.144 609.66C351.312 609.804 351.588 609.876 351.972 609.876H353.142V612H351.558C349.434 612 348.372 610.968 348.372 608.904V604.098H347.184V602.028H348.372V599.562H350.91V602.028H353.142V604.098H350.91ZM364.225 606.798C364.225 607.158 364.201 607.482 364.153 607.77H356.863C356.923 608.49 357.175 609.054 357.619 609.462C358.063 609.87 358.609 610.074 359.257 610.074C360.193 610.074 360.859 609.672 361.255 608.868H363.973C363.685 609.828 363.133 610.62 362.317 611.244C361.501 611.856 360.499 612.162 359.311 612.162C358.351 612.162 357.487 611.952 356.719 611.532C355.963 611.1 355.369 610.494 354.937 609.714C354.517 608.934 354.307 608.034 354.307 607.014C354.307 605.982 354.517 605.076 354.937 604.296C355.357 603.516 355.945 602.916 356.701 602.496C357.457 602.076 358.327 601.866 359.311 601.866C360.259 601.866 361.105 602.07 361.849 602.478C362.605 602.886 363.187 603.468 363.595 604.224C364.015 604.968 364.225 605.826 364.225 606.798ZM361.615 606.078C361.603 605.43 361.369 604.914 360.913 604.53C360.457 604.134 359.899 603.936 359.239 603.936C358.615 603.936 358.087 604.128 357.655 604.512C357.235 604.884 356.977 605.406 356.881 606.078H361.615ZM365.416 606.978C365.416 605.97 365.614 605.076 366.01 604.296C366.418 603.516 366.964 602.916 367.648 602.496C368.344 602.076 369.118 601.866 369.97 601.866C370.714 601.866 371.362 602.016 371.914 602.316C372.478 602.616 372.928 602.994 373.264 603.45V602.028H375.802V612H373.264V610.542C372.94 611.01 372.49 611.4 371.914 611.712C371.35 612.012 370.696 612.162 369.952 612.162C369.112 612.162 368.344 611.946 367.648 611.514C366.964 611.082 366.418 610.476 366.01 609.696C365.614 608.904 365.416 607.998 365.416 606.978ZM373.264 607.014C373.264 606.402 373.144 605.88 372.904 605.448C372.664 605.004 372.34 604.668 371.932 604.44C371.524 604.2 371.086 604.08 370.618 604.08C370.15 604.08 369.718 604.194 369.322 604.422C368.926 604.65 368.602 604.986 368.35 605.43C368.11 605.862 367.99 606.378 367.99 606.978C367.99 607.578 368.11 608.106 368.35 608.562C368.602 609.006 368.926 609.348 369.322 609.588C369.73 609.828 370.162 609.948 370.618 609.948C371.086 609.948 371.524 609.834 371.932 609.606C372.34 609.366 372.664 609.03 372.904 608.598C373.144 608.154 373.264 607.626 373.264 607.014ZM390.648 601.884C391.872 601.884 392.856 602.262 393.6 603.018C394.356 603.762 394.734 604.806 394.734 606.15V612H392.214V606.492C392.214 605.712 392.016 605.118 391.62 604.71C391.224 604.29 390.684 604.08 390 604.08C389.316 604.08 388.77 604.29 388.362 604.71C387.966 605.118 387.768 605.712 387.768 606.492V612H385.248V606.492C385.248 605.712 385.05 605.118 384.654 604.71C384.258 604.29 383.718 604.08 383.034 604.08C382.338 604.08 381.786 604.29 381.378 604.71C380.982 605.118 380.784 605.712 380.784 606.492V612H378.264V602.028H380.784V603.234C381.108 602.814 381.522 602.484 382.026 602.244C382.542 602.004 383.106 601.884 383.718 601.884C384.498 601.884 385.194 602.052 385.806 602.388C386.418 602.712 386.892 603.18 387.228 603.792C387.552 603.216 388.02 602.754 388.632 602.406C389.256 602.058 389.928 601.884 390.648 601.884ZM405.986 604.098H404.24V612H401.684V604.098H400.55V602.028H401.684V601.524C401.684 600.3 402.032 599.4 402.728 598.824C403.424 598.248 404.474 597.978 405.878 598.014V600.138C405.266 600.126 404.84 600.228 404.6 600.444C404.36 600.66 404.24 601.05 404.24 601.614V602.028H405.986V604.098ZM408.897 600.84C408.453 600.84 408.081 600.702 407.781 600.426C407.493 600.138 407.349 599.784 407.349 599.364C407.349 598.944 407.493 598.596 407.781 598.32C408.081 598.032 408.453 597.888 408.897 597.888C409.341 597.888 409.707 598.032 409.995 598.32C410.295 598.596 410.445 598.944 410.445 599.364C410.445 599.784 410.295 600.138 409.995 600.426C409.707 600.702 409.341 600.84 408.897 600.84ZM410.139 602.028V612H407.619V602.028H410.139ZM415.149 603.576C415.473 603.048 415.893 602.634 416.409 602.334C416.937 602.034 417.537 601.884 418.209 601.884V604.53H417.543C416.751 604.53 416.151 604.716 415.743 605.088C415.347 605.46 415.149 606.108 415.149 607.032V612H412.629V602.028H415.149V603.576ZM423.722 612.162C422.906 612.162 422.174 612.018 421.526 611.73C420.878 611.43 420.362 611.028 419.978 610.524C419.606 610.02 419.402 609.462 419.366 608.85H421.904C421.952 609.234 422.138 609.552 422.462 609.804C422.798 610.056 423.212 610.182 423.704 610.182C424.184 610.182 424.556 610.086 424.82 609.894C425.096 609.702 425.234 609.456 425.234 609.156C425.234 608.832 425.066 608.592 424.73 608.436C424.406 608.268 423.884 608.088 423.164 607.896C422.42 607.716 421.808 607.53 421.328 607.338C420.86 607.146 420.452 606.852 420.104 606.456C419.768 606.06 419.6 605.526 419.6 604.854C419.6 604.302 419.756 603.798 420.068 603.342C420.392 602.886 420.848 602.526 421.436 602.262C422.036 601.998 422.738 601.866 423.542 601.866C424.73 601.866 425.678 602.166 426.386 602.766C427.094 603.354 427.484 604.152 427.556 605.16H425.144C425.108 604.764 424.94 604.452 424.64 604.224C424.352 603.984 423.962 603.864 423.47 603.864C423.014 603.864 422.66 603.948 422.408 604.116C422.168 604.284 422.048 604.518 422.048 604.818C422.048 605.154 422.216 605.412 422.552 605.592C422.888 605.76 423.41 605.934 424.118 606.114C424.838 606.294 425.432 606.48 425.9 606.672C426.368 606.864 426.77 607.164 427.106 607.572C427.454 607.968 427.634 608.496 427.646 609.156C427.646 609.732 427.484 610.248 427.16 610.704C426.848 611.16 426.392 611.52 425.792 611.784C425.204 612.036 424.514 612.162 423.722 612.162ZM432.649 604.098V608.922C432.649 609.258 432.727 609.504 432.883 609.66C433.051 609.804 433.327 609.876 433.711 609.876H434.881V612H433.297C431.173 612 430.111 610.968 430.111 608.904V604.098H428.923V602.028H430.111V599.562H432.649V602.028H434.881V604.098H432.649Z" fill="#001A39"/>
</svg>
