<svg width="1051" height="540" viewBox="0 0 1051 540" fill="none" xmlns="http://www.w3.org/2000/svg">
<path d="M99.3732 400.96L91.8068 421.8L61.0971 506.36L52.9755 528.718L0.380859 509.573V364.923L26.6491 374.494L99.3732 400.96Z" fill="#F96155"/>
<path fill-rule="evenodd" clip-rule="evenodd" d="M69.0001 417.802C75.9155 416.663 84.8645 416.818 93.4024 417.757L92.2067 420.72C83.8108 419.797 76.0297 419.685 69.4876 420.763C62.9439 421.84 57.6594 424.105 54.2312 427.919C45.5627 437.568 44.6614 451.502 47.3191 465.723C49.9755 479.937 56.1799 494.392 61.6594 505.029L60.4024 508.257C54.8615 497.5 47.1029 480.897 44.3701 466.274C41.655 451.746 42.3856 436.615 51.9998 425.914C56.0645 421.392 62.1102 418.937 69.0001 417.802Z" fill="white"/>
<path fill-rule="evenodd" clip-rule="evenodd" d="M20.0364 436.148C23.8048 414.598 24.9823 389.961 25.3335 374.458L27.9766 374.518C27.6245 390.06 26.4438 414.856 22.6405 436.605C20.7401 447.473 18.1732 457.651 14.6917 465.552C11.2409 473.383 6.73884 479.324 0.763034 481.128L0 478.594C4.80273 477.144 8.88627 472.169 12.2728 464.483C15.6287 456.868 18.151 446.93 20.0364 436.148Z" fill="white"/>
<path d="M1050.48 381.798V520.418L970.276 534.218L947.169 399.573L1050.48 381.798Z" fill="#FBC73B"/>
<path d="M854.606 398.768C843.502 400.208 833.054 389.987 833.054 389.987C833.054 389.987 840.568 377.436 851.661 375.997C862.754 374.557 873.213 384.778 873.213 384.778C873.213 384.778 865.694 397.334 854.606 398.768Z" fill="#FBC73B"/>
<path d="M353.664 450.854C344.784 459.035 334.368 465.368 323.022 469.484C311.675 473.6 299.624 475.416 287.57 474.828C275.516 474.239 263.699 471.258 252.806 466.056C241.913 460.855 232.162 453.538 224.12 444.53C216.077 435.522 209.903 425.003 205.958 413.586C202.012 402.168 200.373 390.079 201.137 378.021C201.9 365.964 205.05 354.178 210.404 343.351C215.757 332.523 223.208 322.868 232.322 314.949L353.664 450.854Z" fill="#FBC73B"/>
<path d="M484.811 535.044C485.371 533.884 453.699 385.683 453.699 385.683L599.602 431.401L484.811 535.044Z" fill="#194D87"/>
<path d="M456.77 400.424C466.111 399.98 475.439 401.533 484.133 404.982C492.064 408.158 499.403 412.678 507.149 416.309C522.166 423.344 539.652 426.478 554.689 417.627C555.081 417.4 554.821 416.69 554.372 416.865C550.327 418.453 546.441 420.163 542.153 421.057C537.752 421.955 533.237 422.15 528.775 421.634C519.787 420.639 511.29 417.135 503.284 413.07C496.231 409.486 489.32 405.569 481.844 402.896C473.824 399.999 465.262 398.923 456.776 399.747C456.353 399.794 456.332 400.44 456.776 400.424H456.77Z" fill="white"/>
<path d="M466.167 445.063C475.6 446.413 484.219 450.034 492.636 454.379C500.176 458.275 507.605 462.388 515.737 464.966C524.129 467.613 533.043 468.555 541.646 466.448C549.736 464.468 556.906 460.149 563.991 455.925C573.894 450.023 584.126 444.428 593.67 437.954C593.766 437.9 593.838 437.809 593.867 437.702C593.897 437.594 593.883 437.48 593.828 437.383C593.774 437.286 593.683 437.215 593.576 437.185C593.469 437.155 593.354 437.169 593.257 437.224C584.58 441.744 576.269 447.107 567.877 452.125C560.475 456.555 553.072 461.483 544.84 464.236C526.185 470.471 509.075 461.52 492.8 453.215C484.383 448.922 475.743 445.339 466.262 444.407C465.876 444.407 465.786 445.021 466.162 445.074L466.167 445.063Z" fill="white"/>
<path d="M475.711 490.393C482.83 492.495 489.735 495.267 496.332 498.672C502.513 501.848 508.694 505.791 515.43 507.67C515.527 507.696 515.631 507.686 515.721 507.642C515.811 507.597 515.882 507.522 515.921 507.429C515.961 507.337 515.965 507.233 515.934 507.137C515.903 507.042 515.839 506.96 515.753 506.908C509.128 503.536 502.386 500.339 495.734 497.005C489.479 493.871 482.849 490.764 475.875 489.732C475.452 489.673 475.261 490.261 475.689 490.377L475.711 490.393Z" fill="white"/>
<path d="M471.116 466.539C477.911 454.518 484.525 441.507 484.462 427.369C484.404 413.961 477.123 400.992 469.519 390.316C469.459 390.231 469.369 390.172 469.268 390.15C469.166 390.129 469.06 390.145 468.97 390.198C468.88 390.25 468.813 390.334 468.782 390.433C468.75 390.532 468.757 390.639 468.8 390.734C471.634 396.556 475.399 401.85 478.228 407.672C481.237 413.85 483.203 420.445 483.256 427.358C483.367 441.597 476.383 453.734 470.535 466.216C470.36 466.597 470.899 466.931 471.116 466.549V466.539Z" fill="white"/>
<path d="M507.292 514.951C505.542 504.502 505.796 493.916 509.127 483.8C512.062 474.886 516.937 466.862 521.05 458.456C524.995 450.421 528.157 441.819 528.797 432.821C529.388 423.717 527.141 414.654 522.367 406.884C522.082 406.418 521.442 406.825 521.648 407.302C523.541 411.663 525.529 415.909 526.602 420.572C527.774 425.805 527.953 431.211 527.131 436.51C525.698 446.123 521.59 454.936 517.154 463.506C513.045 471.419 508.852 479.386 506.727 488.098C504.627 496.994 504.602 506.255 506.653 515.163C506.748 515.586 507.366 515.401 507.298 514.983L507.292 514.951Z" fill="white"/>
<path d="M557.095 470.221C561.251 462.678 565.508 455.019 568.728 447.01C571.699 439.599 574.206 430.945 573.032 422.867C572.963 422.386 572.239 422.534 572.217 422.979C571.816 431.596 570.488 439.531 567.221 447.566C564.101 455.246 559.58 462.276 556.503 469.967C556.36 470.316 556.931 470.544 557.111 470.221H557.095Z" fill="white"/>
<path d="M568.093 540C568.175 539.99 568.25 539.95 568.304 539.888C568.359 539.826 568.389 539.747 568.389 539.664C568.389 539.581 568.359 539.502 568.304 539.44C568.25 539.378 568.175 539.338 568.093 539.328C568.011 539.338 567.936 539.378 567.882 539.44C567.827 539.502 567.797 539.581 567.797 539.664C567.797 539.747 567.827 539.826 567.882 539.888C567.936 539.95 568.011 539.99 568.093 540Z" fill="white"/>
<path fill-rule="evenodd" clip-rule="evenodd" d="M842.223 365.863C842.223 365.863 842.223 365.863 843.254 366.098C844.285 366.333 844.285 366.333 844.285 366.334L844.285 366.335L844.284 366.34L844.28 366.357C844.276 366.372 844.272 366.392 844.265 366.419C844.252 366.473 844.233 366.552 844.208 366.654C844.157 366.858 844.08 367.157 843.975 367.541C843.764 368.31 843.441 369.42 842.984 370.803C842.072 373.569 840.628 377.426 838.498 381.81C834.242 390.57 827.222 401.482 816.181 409.972L814.893 408.293C825.59 400.067 832.428 389.461 836.596 380.883C838.678 376.599 840.088 372.831 840.976 370.139C841.42 368.794 841.733 367.718 841.935 366.982C842.036 366.614 842.109 366.33 842.156 366.141C842.18 366.046 842.197 365.975 842.208 365.929C842.213 365.905 842.217 365.888 842.22 365.877L842.223 365.865L842.223 365.863Z" fill="#001A39"/>
<path d="M723.371 475.721C687.76 427.124 728.452 354.341 778.113 356.427C820.465 358.205 819.17 405.373 819.17 405.373C819.17 405.373 865.34 418.681 855.225 459.762C843.582 507.057 760.965 527.023 723.371 475.721Z" fill="#F96155"/>
<path fill-rule="evenodd" clip-rule="evenodd" d="M582.253 117.481C582.146 117.27 582.019 117.022 581.873 116.738C581.353 115.731 580.589 114.282 579.608 112.509C577.647 108.965 574.821 104.123 571.356 98.9361C564.45 88.5969 554.923 76.7505 544.592 71.167L543.839 72.5643C553.801 77.9484 563.146 89.501 570.037 99.8188C573.471 104.96 576.275 109.762 578.22 113.278C579.193 115.036 579.95 116.472 580.464 117.467C580.72 117.964 580.916 118.352 581.048 118.614C581.068 118.656 581.087 118.694 581.105 118.729C581.143 118.805 581.173 118.866 581.196 118.912L581.233 118.987L581.242 119.006L581.245 119.011C581.245 119.011 581.245 119.011 581.958 118.663L581.245 119.011L581.658 119.86L582.422 119.307L581.958 118.663C582.422 119.307 582.422 119.307 582.422 119.307L582.424 119.306L582.429 119.302L582.45 119.287C582.457 119.282 582.465 119.276 582.475 119.269C582.491 119.257 582.512 119.243 582.536 119.225C582.612 119.171 582.726 119.089 582.877 118.983C583.177 118.771 583.622 118.46 584.197 118.066C585.347 117.277 587.016 116.156 589.088 114.828C593.235 112.173 598.993 108.697 605.442 105.409C611.894 102.119 619.016 99.0287 625.896 97.1337C632.748 95.2461 639.274 94.5686 644.633 95.9815C644.688 96.013 644.768 96.0589 644.872 96.1183C645.086 96.2413 645.4 96.4223 645.799 96.6539C646.597 97.1171 647.735 97.7825 649.093 98.5906C651.811 100.207 655.407 102.393 658.928 104.673C662.456 106.957 665.885 109.32 668.281 111.293C669.485 112.286 670.389 113.147 670.916 113.827C671.175 114.162 671.305 114.406 671.356 114.563C671.352 114.564 671.348 114.565 671.344 114.566C671.171 114.599 670.906 114.614 670.534 114.594C669.794 114.555 668.782 114.391 667.566 114.124C665.144 113.593 662.042 112.685 658.967 111.705C655.898 110.725 652.875 109.68 650.619 108.879C649.491 108.479 648.556 108.139 647.903 107.901C647.576 107.781 647.32 107.687 647.146 107.622C647.059 107.59 646.992 107.565 646.947 107.549L646.881 107.524L646.88 107.524C646.88 107.524 646.88 107.524 646.602 108.267L646.88 107.524L646.269 108.988L646.602 108.267C646.269 108.988 646.268 108.988 646.269 108.988L646.339 109.021C646.386 109.043 646.456 109.075 646.548 109.118C646.731 109.204 646.999 109.33 647.341 109.492C648.024 109.816 649 110.282 650.169 110.85C652.508 111.986 655.617 113.529 658.701 115.158C661.79 116.79 664.835 118.499 667.055 119.968C668.17 120.706 669.047 121.362 669.614 121.903C669.829 122.108 669.982 122.279 670.084 122.417C669.936 122.434 669.741 122.442 669.49 122.436C668.667 122.413 667.483 122.236 666.026 121.933C663.126 121.328 659.305 120.256 655.484 119.089C651.667 117.923 647.871 116.669 645.028 115.706C643.607 115.224 642.424 114.816 641.597 114.528C641.184 114.383 640.86 114.27 640.639 114.192C640.528 114.153 640.444 114.123 640.387 114.103L640.302 114.073L640.301 114.072C640.301 114.072 640.301 114.072 640.035 114.821L640.301 114.072L639.678 115.529L640.035 114.821C639.678 115.529 639.678 115.529 639.678 115.529L639.693 115.537L639.799 115.591C639.833 115.608 639.873 115.628 639.919 115.652C640.078 115.733 640.31 115.852 640.605 116.005C641.195 116.31 642.036 116.749 643.038 117.282C645.044 118.35 647.69 119.795 650.264 121.309C652.845 122.827 655.324 124.397 657.008 125.716C657.86 126.383 658.456 126.945 658.769 127.372C658.837 127.465 658.883 127.539 658.913 127.597C658.875 127.606 658.826 127.617 658.767 127.626C658.52 127.666 658.172 127.679 657.717 127.654C656.81 127.605 655.599 127.417 654.169 127.118C651.316 126.524 647.704 125.517 644.142 124.434C640.584 123.352 637.095 122.198 634.494 121.315C633.194 120.874 632.117 120.5 631.365 120.237C630.989 120.105 630.694 120.001 630.493 119.93C630.393 119.895 630.316 119.867 630.265 119.849L630.189 119.822L630.188 119.821C630.188 119.821 630.188 119.821 630.163 119.891L630.188 119.821L629.743 119.662L629.392 119.977L629.92 120.569C629.392 119.977 629.392 119.977 629.392 119.977L629.364 120.002L629.279 120.077C629.204 120.144 629.092 120.243 628.944 120.373C628.65 120.632 628.215 121.013 627.656 121.496C626.537 122.463 624.92 123.843 622.93 125.488C618.949 128.78 613.478 133.135 607.517 137.391C601.551 141.65 595.114 145.796 589.198 148.682C586.24 150.125 583.431 151.244 580.888 151.907C578.339 152.573 576.11 152.766 574.289 152.412C572.879 152.138 571.237 151.359 569.419 150.144C567.609 148.934 565.671 147.324 563.672 145.44C559.675 141.673 555.487 136.861 551.673 132.105C547.862 127.352 544.437 122.673 541.964 119.181C540.728 117.435 539.73 115.987 539.042 114.975C538.698 114.47 538.431 114.074 538.251 113.804C538.161 113.669 538.092 113.566 538.046 113.497L537.994 113.419L537.978 113.395L537.977 113.393C537.977 113.393 537.977 113.393 537.315 113.831C536.653 114.268 536.654 114.268 536.654 114.269L536.672 114.296L536.725 114.376C536.772 114.447 536.842 114.552 536.933 114.688C537.116 114.961 537.385 115.36 537.731 115.87C538.424 116.888 539.427 118.344 540.67 120.099C543.155 123.608 546.599 128.314 550.436 133.099C554.271 137.88 558.51 142.757 562.585 146.597C564.622 148.517 566.631 150.19 568.538 151.464C570.437 152.734 572.282 153.639 573.986 153.971C576.13 154.388 578.619 154.141 581.289 153.444C583.966 152.745 586.878 151.581 589.893 150.11C595.923 147.168 602.441 142.966 608.438 138.684C614.439 134.399 619.941 130.019 623.94 126.712C625.94 125.059 627.566 123.672 628.692 122.698C629.256 122.211 629.694 121.828 629.992 121.566C630.029 121.533 630.063 121.503 630.096 121.474C630.288 121.542 630.538 121.63 630.841 121.736C631.597 122 632.679 122.376 633.985 122.819C636.595 123.705 640.101 124.864 643.681 125.953C647.255 127.04 650.922 128.064 653.845 128.673C655.304 128.977 656.606 129.184 657.631 129.24C658.143 129.267 658.616 129.259 659.019 129.194C659.398 129.133 659.84 129.004 660.159 128.685C660.506 128.338 660.608 127.892 660.534 127.465C660.468 127.084 660.268 126.733 660.047 126.432C659.6 125.823 658.862 125.151 657.986 124.465C656.214 123.078 653.66 121.464 651.068 119.939C650.318 119.498 649.562 119.063 648.818 118.642C650.771 119.281 652.892 119.958 655.021 120.608C658.852 121.778 662.729 122.868 665.703 123.487C667.182 123.796 668.479 123.997 669.447 124.023C669.924 124.036 670.383 124.009 670.761 123.898C671.122 123.793 671.625 123.541 671.773 122.955C671.895 122.475 671.714 122.033 671.527 121.723C671.33 121.396 671.04 121.069 670.707 120.752C670.038 120.115 669.069 119.397 667.93 118.643C665.642 117.13 662.542 115.392 659.441 113.754C659.066 113.555 658.69 113.358 658.315 113.163C658.372 113.181 658.429 113.199 658.486 113.218C661.573 114.202 664.731 115.128 667.227 115.675C668.47 115.948 669.582 116.134 670.451 116.18C670.883 116.202 671.292 116.193 671.643 116.125C671.969 116.062 672.395 115.922 672.673 115.554C673.021 115.093 673.011 114.558 672.878 114.116C672.749 113.69 672.485 113.263 672.169 112.854C671.531 112.03 670.517 111.079 669.289 110.067C666.82 108.034 663.328 105.631 659.79 103.34C656.245 101.045 652.631 98.8479 649.903 97.2255C648.539 96.414 647.397 95.7457 646.595 95.2802C646.193 95.0474 645.878 94.8652 645.662 94.7411C645.554 94.6791 645.471 94.6316 645.415 94.5996L645.331 94.5515L645.33 94.5509C645.329 94.5507 645.329 94.5507 644.937 95.2407L645.33 94.5509L645.241 94.5003L645.143 94.4739C639.367 92.9197 632.481 93.6728 625.475 95.6027C618.454 97.5367 611.226 100.677 604.722 103.994C598.214 107.312 592.41 110.816 588.234 113.491C586.145 114.828 584.462 115.959 583.3 116.756C582.882 117.043 582.531 117.287 582.253 117.481ZM670.375 122.354C670.379 122.352 670.381 122.351 670.381 122.351C670.381 122.351 670.379 122.352 670.375 122.354ZM671.378 114.667C671.378 114.667 671.378 114.665 671.378 114.662C671.378 114.666 671.378 114.667 671.378 114.667Z" fill="#001A39"/>
<path fill-rule="evenodd" clip-rule="evenodd" d="M635.208 98.7158L637.912 112.08L636.793 111.913C634.279 111.537 631.885 110.591 629.793 109.146C627.7 107.7 625.966 105.795 624.723 103.576L626.107 102.799C627.232 104.807 628.801 106.531 630.693 107.838C632.271 108.928 634.038 109.704 635.899 110.129L633.653 99.0311L635.208 98.7158Z" fill="#001A39"/>
<path d="M369.047 234.602L319.133 220.035L303.201 317.945L340.764 246.698L374.397 256.358" fill="#194D87"/>
<path fill-rule="evenodd" clip-rule="evenodd" d="M337.071 266.26L329.325 247.839L331.274 247.018L339.021 265.438L337.071 266.26Z" fill="white"/>
<path fill-rule="evenodd" clip-rule="evenodd" d="M332.979 275.718L325.233 257.293L327.182 256.471L334.928 274.897L332.979 275.718Z" fill="white"/>
<path fill-rule="evenodd" clip-rule="evenodd" d="M341.22 278.936L334.912 259.97L336.919 259.302L343.226 278.267L341.22 278.936Z" fill="white"/>
<path d="M537.019 29.3139C537.295 34.2638 535.716 39.1386 532.591 42.9849C529.467 46.8312 525.022 49.3725 520.125 50.1117C515.228 50.851 510.232 49.7351 506.113 46.9823C501.995 44.2294 499.05 40.0376 497.855 35.2265C497.559 34.0107 497.373 32.7706 497.3 31.5212C497.126 28.8939 497.474 26.2582 498.324 23.7665C499.175 21.2748 500.51 18.9766 502.253 17.005C503.997 15.0334 506.113 13.4275 508.481 12.2802C510.848 11.133 513.419 10.4671 516.045 10.3211C518.671 10.1752 521.3 10.5521 523.78 11.43C526.26 12.3079 528.541 13.6695 530.491 15.4358C532.442 17.2021 534.023 19.3382 535.144 21.7203C536.264 24.1025 536.902 26.6835 537.019 29.3139Z" fill="#FBC73B"/>
<path d="M534.121 7.81233C534.24 9.87028 533.587 11.8985 532.289 13.4992C530.992 15.0999 529.144 16.1577 527.108 16.4652C525.072 16.7726 522.995 16.3076 521.283 15.1612C519.572 14.0149 518.35 12.2699 517.857 10.2684C517.733 9.76301 517.656 9.24747 517.624 8.72806C517.503 6.53804 518.256 4.38947 519.717 2.75502C521.178 1.12058 523.228 0.13413 525.416 0.0126962C527.603 -0.108738 529.749 0.644786 531.382 2.1075C533.015 3.57022 534 5.6223 534.121 7.81233Z" fill="#001A39"/>
<path d="M520.321 6.25055C520.394 7.50546 519.996 8.74233 519.205 9.71841C518.413 10.6945 517.286 11.3393 516.045 11.5262C514.803 11.7132 513.536 11.4288 512.493 10.7289C511.45 10.029 510.706 8.96411 510.407 7.74325C510.332 7.43574 510.285 7.12223 510.264 6.80634C510.245 5.5031 510.732 4.24315 511.621 3.29107C512.51 2.33899 513.733 1.76883 515.033 1.70033C516.333 1.63183 517.609 2.0703 518.593 2.92368C519.577 3.77707 520.193 4.97897 520.311 6.27701L520.321 6.25055Z" fill="#001A39"/>
<path fill-rule="evenodd" clip-rule="evenodd" d="M531.711 37.7234C531.711 37.7233 531.711 37.7232 531.484 38.7573C531.257 39.7913 531.257 39.7912 531.256 39.7911L531.255 39.7909L531.253 39.7904L531.247 39.789L531.231 39.7853C531.218 39.7823 531.201 39.7782 531.181 39.7731C531.14 39.7629 531.084 39.7483 531.016 39.7288C530.881 39.69 530.693 39.6311 530.471 39.5478C530.031 39.3827 529.438 39.1143 528.842 38.7013C527.634 37.8639 526.368 36.3825 526.467 34.0178L528.58 34.1065C528.52 35.5318 529.234 36.3979 530.046 36.9606C530.46 37.2476 530.887 37.4425 531.214 37.5654C531.376 37.6262 531.509 37.6677 531.598 37.6931C531.642 37.7058 531.675 37.7144 531.695 37.7193C531.704 37.7217 531.711 37.7232 531.713 37.7239C531.715 37.7242 531.715 37.7243 531.715 37.7242L531.713 37.7239L531.712 37.7236L531.711 37.7234Z" fill="#001A39"/>
<path d="M530.938 35.0705C532.128 35.0044 533.007 33.4174 532.902 31.526C532.797 29.6345 531.748 28.1549 530.558 28.221C529.368 28.2872 528.489 29.8741 528.594 31.7656C528.699 33.657 529.748 35.1367 530.938 35.0705Z" fill="#001A39"/>
<path d="M523.799 35.7007C524.988 35.6345 525.868 34.0475 525.763 32.1561C525.658 30.2647 524.608 28.785 523.419 28.8511C522.229 28.9173 521.35 30.5043 521.455 32.3957C521.56 34.2871 522.609 35.7668 523.799 35.7007Z" fill="#001A39"/>
<path d="M504.517 31.1241C504.621 32.9239 504.05 34.6977 502.915 36.0977C501.78 37.4977 500.164 38.423 498.384 38.692C496.603 38.961 494.786 38.5545 493.29 37.552C491.793 36.5496 490.724 35.0235 490.293 33.2732C490.186 32.832 490.118 32.382 490.092 31.9287C489.986 30.0138 490.643 28.135 491.92 26.7055C493.198 25.2761 494.99 24.4131 496.903 24.3064C498.815 24.1997 500.692 24.858 502.12 26.1366C503.548 27.4152 504.41 29.2092 504.517 31.1241Z" fill="#FBC73B"/>
<path d="M529.929 15.5204C529.929 15.5204 523.135 20.4061 510.244 18.7863L510.027 30.8179L502.165 29.5317C502.165 29.5317 499.769 22.7245 493.223 25.5564C493.223 25.5564 491.907 11.9316 499.769 8.79794C513.506 3.3247 526.238 8.81382 529.929 15.5204Z" fill="#001A39"/>
<path d="M504.131 143.339C512.31 143.867 520.281 146.142 527.51 150.009C534.738 153.876 541.056 159.247 546.04 165.761L667.932 325.126L621.809 372.802L501.503 204.529L485.112 269.695C482.635 279.528 476.509 288.048 467.98 293.52C459.451 298.992 449.16 301.006 439.201 299.152L357.266 283.896C357.266 283.896 346.982 277.502 348.843 250.898C350.704 224.294 363.933 222.315 363.933 222.315L431.613 234.637L445.038 185.558C448.526 172.785 456.311 161.609 467.077 153.917C477.843 146.225 490.931 142.489 504.131 143.339Z" fill="#FBC73B"/>
<path d="M368.962 285.901C365.895 277.898 363.716 268.714 366.424 260.303C367.587 256.661 369.993 252.702 373.794 251.384C378.024 249.917 381.773 252.686 384.602 255.523C396.499 267.438 405.752 281.523 415.698 295.016C415.749 295.093 415.827 295.148 415.917 295.169C416.007 295.189 416.101 295.175 416.181 295.128C416.26 295.081 416.318 295.005 416.344 294.917C416.369 294.828 416.359 294.733 416.316 294.651C411.494 285.859 405.308 277.712 399.053 269.921C396.034 266.141 392.861 262.457 389.63 258.842C386.812 255.703 383.878 251.96 379.854 250.309C373.075 247.541 367.471 253.215 365.377 259.223C362.278 268.105 364.615 277.876 368.221 286.219C368.406 286.637 369.126 286.34 368.962 285.912V285.901Z" fill="#F96155"/>
<path d="M394.104 227.884C396.632 238.031 402.564 246.585 409.882 253.927C417.2 261.269 425.491 267.605 435.262 271.014C443.516 273.899 453.668 274.02 458.337 265.308C463.005 256.595 461.16 245.363 458.273 236.465C456.313 230.689 453.836 225.103 450.871 219.775C447.851 214.175 444.526 208.447 440.38 203.609C439.968 203.128 439.164 203.752 439.503 204.287C444.954 212.756 450.432 220.982 454.403 230.298C458.199 239.201 461.012 249.534 458.886 259.22C457.871 263.852 455.465 268.304 450.923 270.225C446.382 272.147 441.073 271.284 436.489 269.823C427.5 266.949 419.569 261.317 412.653 254.97C404.547 247.506 397.504 238.534 394.532 227.757C394.51 227.705 394.47 227.662 394.419 227.638C394.367 227.613 394.309 227.608 394.254 227.624C394.2 227.639 394.152 227.674 394.122 227.722C394.091 227.77 394.079 227.828 394.088 227.884H394.104Z" fill="#F96155"/>
<path d="M457.337 298.318C454.508 289.177 451.87 279.839 451.669 270.2C451.484 261.324 453.673 252.558 457.327 244.507C460.557 237.393 464.798 229.638 471.349 225.075C479.809 219.184 488.111 223.519 495.016 229.527C495.402 229.866 495.957 229.331 495.587 228.955C491.019 224.34 485.181 219.957 478.323 220.708C472.364 221.37 467.621 225.509 464.047 230.062C455.164 241.405 449.713 256.745 450.395 271.19C450.839 280.581 453.678 289.648 456.528 298.535C456.692 299.065 457.485 298.832 457.327 298.318H457.337Z" fill="#F96155"/>
<path d="M354.66 229.837C358.234 232.547 363.162 235.48 367.773 233.707C371.31 232.346 373.589 227.603 373.927 224.015C373.913 223.913 373.868 223.817 373.8 223.74C373.731 223.663 373.642 223.607 373.543 223.58C373.443 223.553 373.338 223.556 373.24 223.588C373.142 223.62 373.056 223.68 372.992 223.76C371.585 226.936 370.39 231.499 366.647 232.653C362.66 233.881 358.261 231.309 355.062 229.16C354.639 228.879 354.279 229.541 354.67 229.837H354.66Z" fill="#F96155"/>
<path d="M451.103 171.003C454.952 176.423 459.885 182.278 466.05 185.104C471.396 187.555 476.863 186.459 481.384 182.849C486.635 178.646 490.008 172.347 492.567 166.25C495.704 158.872 498.083 151.195 499.668 143.335C499.683 143.242 499.663 143.147 499.612 143.069C499.562 142.99 499.484 142.932 499.393 142.907C499.303 142.882 499.207 142.892 499.123 142.933C499.039 142.975 498.973 143.047 498.938 143.134C494.423 155.361 492.123 169.489 483.076 179.44C478.518 184.421 472.173 187.057 465.828 183.839C460.102 180.954 455.597 175.518 451.595 170.643C451.383 170.384 450.934 170.728 451.129 171.003H451.103Z" fill="#F96155"/>
<path d="M553.104 174.917C548.499 172.889 543.835 171 538.828 170.38C534.27 169.819 527.952 169.549 523.907 172.148C514.849 177.971 523.378 191.596 527.608 197.625C533.831 206.486 542.085 213.912 550.545 220.587C559.318 227.46 568.653 233.581 578.452 238.886C589.435 244.878 601.109 250.367 613.271 253.463C613.345 253.475 613.421 253.459 613.484 253.419C613.548 253.378 613.594 253.315 613.614 253.243C613.635 253.17 613.627 253.093 613.594 253.025C613.561 252.957 613.504 252.904 613.434 252.876C594.31 246.058 576.152 237.499 559.534 225.721C551.352 219.994 543.739 213.494 536.798 206.311C533.314 202.725 530.165 198.827 527.391 194.666C524.568 190.346 521.173 184.942 521.348 179.596C521.601 171.709 530.141 171.079 536.242 171.254C542.034 171.46 547.737 172.739 553.062 175.028C553.115 175.054 553.157 174.954 553.099 174.927L553.104 174.917Z" fill="#F96155"/>
<path d="M518.624 228.775C522.479 223.211 527.042 218.174 532.197 213.79C535.079 211.361 538.421 209.291 542.175 208.56C546.812 207.661 551.084 209.577 554.458 212.7C566.423 223.784 567.544 242.649 565.413 257.756C564.049 267.432 561.395 276.812 559.597 286.377C559.586 286.501 559.618 286.625 559.689 286.727C559.76 286.83 559.864 286.904 559.984 286.937C560.104 286.97 560.232 286.959 560.345 286.907C560.458 286.855 560.549 286.765 560.602 286.652C563.885 277.463 565.63 267.395 566.947 257.751C568.041 249.779 568.263 241.961 566.661 234.032C564.969 225.621 561.332 216.484 554.606 210.831C548.377 205.596 540.784 205.887 534.175 210.392C527.661 214.833 521.908 221.603 517.969 228.389C517.933 228.472 517.929 228.565 517.958 228.651C517.986 228.737 518.045 228.809 518.123 228.855C518.201 228.9 518.292 228.916 518.381 228.898C518.469 228.881 518.549 228.831 518.603 228.76L518.624 228.775Z" fill="#F96155"/>
<path d="M583.74 320.004C594.996 318.444 606.053 315.685 616.723 311.773C626.864 308.136 637.64 303.267 646.069 296.465C646.492 296.121 645.952 295.544 645.54 295.755C640.617 298.143 635.922 300.99 631.031 303.457C625.929 306.03 620.689 308.263 615.396 310.418C605.18 314.525 594.539 317.484 583.671 319.242C583.243 319.31 583.338 320.078 583.782 320.02L583.74 320.004Z" fill="#F96155"/>
<path d="M625.478 269.226C619.72 269.511 613.899 269.94 608.299 271.401C602.906 272.846 597.699 274.918 592.786 277.573C588.153 280.12 583.793 283.135 579.774 286.572C575.591 290.065 571.446 293.876 568.4 298.434C568.104 298.873 568.744 299.323 569.109 298.963C576.813 291.807 584.178 284.671 593.309 279.33C603.044 273.608 614.285 270.888 625.473 269.998C626.002 269.956 626.002 269.173 625.473 269.199L625.478 269.226Z" fill="#F96155"/>
<path d="M600.734 343.001C609.585 336.935 619.97 333.034 630.751 332.658C641.823 332.272 651.409 335.94 660.837 341.387C661.365 341.683 661.995 340.926 661.497 340.529C653.133 333.812 641.754 330.779 631.158 331.123C619.917 331.488 609.337 335.68 600.295 342.239C599.851 342.562 600.295 343.298 600.734 342.99V343.001Z" fill="#F96155"/>
<path d="M652.539 356.758C665.313 343.423 672.149 329.234 667.807 325.066C663.465 320.897 649.59 328.329 636.816 341.664C624.042 354.999 617.207 369.188 621.549 373.356C625.89 377.525 639.765 370.093 652.539 356.758Z" fill="#001A39"/>
<path d="M630.735 364.642L656.987 401.695L705.394 327.521L656.506 366.913L643.24 348.408" fill="#194D87"/>
<path fill-rule="evenodd" clip-rule="evenodd" d="M667.641 347.964L665.14 365.114L663.047 364.808L665.548 347.658L667.641 347.964Z" fill="white"/>
<path fill-rule="evenodd" clip-rule="evenodd" d="M675.049 342.797L672.548 359.953L670.455 359.647L672.956 342.491L675.049 342.797Z" fill="white"/>
<path fill-rule="evenodd" clip-rule="evenodd" d="M682.673 336.82L680.172 353.975L678.079 353.67L680.58 336.514L682.673 336.82Z" fill="white"/>
<path fill-rule="evenodd" clip-rule="evenodd" d="M508.463 172.361L502.282 204.682L500.724 204.383L506.905 172.062L508.463 172.361Z" fill="white"/>
<path d="M692.527 367.483C708.131 345.502 717.852 325.601 714.241 323.032C710.63 320.463 695.054 336.199 679.451 358.18C663.847 380.16 654.125 400.061 657.736 402.63C661.347 405.199 676.924 389.463 692.527 367.483Z" fill="#001A39"/>
<path d="M560.507 98.3166C559.838 101.814 558.488 105.145 556.534 108.12C554.579 111.095 552.058 113.655 549.115 115.655C546.172 117.654 542.864 119.054 539.381 119.774C535.898 120.493 532.307 120.519 528.813 119.85L477.398 109.999C473.904 109.33 470.577 107.978 467.605 106.021C464.633 104.065 462.076 101.541 460.079 98.5949C458.081 95.6487 456.683 92.3374 455.964 88.8502C455.245 85.363 455.219 81.7681 455.888 78.2709C456.557 74.7737 457.907 71.4425 459.861 68.4676C461.816 65.4927 464.337 62.9323 467.28 60.9328C470.223 58.9332 473.53 57.5336 477.014 56.8138C480.497 56.0941 484.088 56.0683 487.582 56.7379L538.997 66.5887C542.491 67.2579 545.818 68.6094 548.79 70.5661C551.761 72.5228 554.319 75.0463 556.316 77.9926C558.314 80.9388 559.712 84.2501 560.431 87.7373C561.15 91.2245 561.176 94.8194 560.507 98.3166Z" fill="#001A39"/>
<path fill-rule="evenodd" clip-rule="evenodd" d="M428.292 80.4331C421.019 83.3806 415.03 86.5021 411.781 89.5922C409.013 92.2257 406.554 96.7476 404.428 102.158C402.311 107.545 400.56 113.719 399.167 119.568C397.774 125.415 396.741 130.92 396.057 134.965C395.715 136.987 395.46 138.643 395.291 139.792C395.206 140.367 395.143 140.815 395.101 141.119C395.08 141.271 395.064 141.387 395.054 141.465L395.042 141.552L395.038 141.58C395.038 141.581 395.038 141.581 394.252 141.478C394.283 142.272 394.283 142.272 394.283 142.272L394.283 142.272L394.279 142.272L394.212 142.274C394.182 142.276 394.142 142.277 394.093 142.28C394.066 142.281 394.035 142.282 394.002 142.284C393.818 142.292 393.547 142.304 393.201 142.321C392.511 142.355 391.524 142.407 390.341 142.478C387.973 142.622 384.82 142.846 381.677 143.167C378.525 143.488 375.411 143.904 373.107 144.428C371.947 144.691 371.04 144.971 370.445 145.258C370.151 145.4 369.979 145.523 369.891 145.61C369.899 145.619 369.907 145.629 369.918 145.64C370.002 145.731 370.155 145.852 370.41 145.991C370.919 146.269 371.684 146.542 372.663 146.799C374.609 147.31 377.218 147.713 379.856 148.022C382.487 148.33 385.115 148.542 387.089 148.677C388.075 148.744 388.896 148.792 389.47 148.823C389.757 148.839 389.982 148.85 390.135 148.857C390.212 148.861 390.27 148.864 390.31 148.866L390.365 148.868L390.368 148.868L390.368 148.868C390.368 148.868 390.368 148.868 390.334 149.662C390.381 150.454 390.38 150.454 390.38 150.454L390.38 150.454L390.376 150.454L390.31 150.458C390.262 150.461 390.192 150.466 390.1 150.472C389.916 150.483 389.647 150.501 389.304 150.524C388.618 150.57 387.639 150.64 386.469 150.732C384.129 150.918 381.027 151.195 377.977 151.562C374.918 151.929 371.943 152.384 369.84 152.919C368.775 153.19 368.003 153.465 367.559 153.724C367.5 153.759 367.453 153.789 367.415 153.816C367.446 153.839 367.483 153.864 367.527 153.891C367.718 154.008 367.993 154.132 368.361 154.258C369.096 154.509 370.101 154.731 371.307 154.923C373.713 155.307 376.8 155.553 379.865 155.71C382.924 155.867 385.938 155.934 388.189 155.961C389.314 155.975 390.248 155.979 390.899 155.979C391.225 155.979 391.481 155.979 391.654 155.978C391.711 155.978 391.76 155.977 391.799 155.977C391.819 155.977 391.837 155.977 391.852 155.977L391.918 155.977L391.919 155.976C391.919 155.976 391.919 155.976 391.925 156.77C392.004 157.56 392.004 157.561 392.004 157.561L392.004 157.561L392.001 157.561L391.99 157.562L391.947 157.566C391.909 157.57 391.852 157.576 391.777 157.584C391.629 157.599 391.41 157.623 391.132 157.653C390.576 157.714 389.782 157.804 388.833 157.92C386.934 158.151 384.42 158.486 381.946 158.898C379.464 159.311 377.059 159.797 375.362 160.327C374.502 160.595 373.892 160.855 373.548 161.085C373.541 161.09 373.535 161.094 373.529 161.098C373.54 161.104 373.551 161.11 373.562 161.116C373.789 161.239 374.122 161.377 374.568 161.523C375.456 161.814 376.685 162.107 378.161 162.395C381.104 162.969 384.929 163.504 388.733 163.962C392.533 164.42 396.297 164.8 399.111 165.065C400.518 165.198 401.687 165.301 402.505 165.372C402.913 165.408 403.234 165.435 403.452 165.453C403.561 165.462 403.645 165.469 403.701 165.474L403.78 165.48L403.782 165.48C405.231 165.592 406.781 164.972 408.43 163.629C410.076 162.288 411.744 160.286 413.396 157.799C416.698 152.829 419.842 146.07 422.57 139.235C425.295 132.408 427.591 125.544 429.206 120.383C430.014 117.804 430.651 115.652 431.085 114.145C431.303 113.392 431.47 112.8 431.582 112.397C431.638 112.196 431.681 112.041 431.709 111.938L431.741 111.821L431.751 111.784L431.752 111.782C431.752 111.782 431.752 111.782 432.517 111.989L431.752 111.782L431.869 111.35L477.501 98.2207L477.939 99.7469L433.164 112.629C433.148 112.689 433.129 112.754 433.11 112.824C432.996 113.231 432.828 113.828 432.609 114.586C432.172 116.102 431.531 118.266 430.72 120.858C429.097 126.041 426.788 132.947 424.043 139.824C421.301 146.692 418.11 153.571 414.717 158.679C413.021 161.231 411.251 163.378 409.431 164.861C407.614 166.341 405.671 167.218 403.661 167.064L403.658 167.063L403.722 166.272C403.658 167.063 403.658 167.063 403.658 167.063L403.656 167.063L403.522 167.052C403.47 167.048 403.402 167.042 403.32 167.035C403.1 167.017 402.778 166.99 402.368 166.954C401.547 166.883 400.374 166.779 398.963 166.646C396.14 166.38 392.362 165.999 388.544 165.539C384.729 165.08 380.858 164.539 377.857 163.954C376.36 163.662 375.055 163.354 374.074 163.032C373.585 162.872 373.151 162.699 372.805 162.511C372.493 162.342 372.111 162.086 371.919 161.694C371.721 161.29 371.751 160.864 371.947 160.501C372.118 160.183 372.398 159.945 372.666 159.766C373.208 159.402 373.999 159.089 374.89 158.811C376.636 158.266 379.026 157.78 381.437 157.373C380.89 157.35 380.338 157.324 379.784 157.296C376.702 157.138 373.548 156.888 371.058 156.492C369.816 156.294 368.709 156.055 367.849 155.761C367.419 155.614 367.026 155.446 366.7 155.246C366.384 155.053 366.066 154.792 365.875 154.431C365.646 153.995 365.673 153.526 365.91 153.127C366.113 152.786 366.442 152.538 366.759 152.353C367.405 151.975 368.358 151.657 369.449 151.38C371.657 150.818 374.717 150.354 377.788 149.985C378.676 149.878 379.568 149.779 380.445 149.687C380.187 149.659 379.93 149.63 379.672 149.599C377.014 149.288 374.317 148.875 372.26 148.335C371.238 148.066 370.327 147.755 369.65 147.385C369.311 147.2 368.994 146.981 368.75 146.715C368.502 146.445 368.299 146.092 368.275 145.661C368.249 145.168 368.485 144.775 368.758 144.499C369.025 144.228 369.379 144.01 369.757 143.828C370.516 143.462 371.562 143.15 372.756 142.879C375.157 142.333 378.35 141.91 381.516 141.587C384.689 141.263 387.865 141.038 390.245 140.893C391.436 140.821 392.428 140.769 393.124 140.735C393.284 140.727 393.428 140.72 393.555 140.714C393.597 140.42 393.652 140.032 393.721 139.561C393.892 138.401 394.149 136.734 394.493 134.7C395.181 130.632 396.22 125.09 397.624 119.2C399.026 113.313 400.797 107.06 402.952 101.577C405.097 96.1167 407.659 91.3232 410.689 88.4411C414.174 85.1263 420.413 81.9131 427.696 78.9612C435.009 75.9973 443.479 73.2567 451.512 70.9213C459.547 68.5852 467.159 66.6507 472.761 65.3004C475.562 64.6251 477.862 64.0957 479.462 63.735C480.262 63.5547 480.887 63.4165 481.312 63.3233C481.525 63.2767 481.688 63.2414 481.797 63.2177L481.922 63.1909L481.964 63.1819C481.964 63.1818 481.965 63.1817 482.13 63.9583C482.295 64.7348 482.295 64.7349 482.295 64.735L482.254 64.7436L482.132 64.7699C482.024 64.7933 481.862 64.8284 481.651 64.8746C481.229 64.9671 480.607 65.1046 479.81 65.2842C478.217 65.6434 475.925 66.171 473.132 66.8442C467.546 68.1908 459.959 70.119 451.954 72.4463C443.946 74.7743 435.534 77.4977 428.292 80.4331ZM391.925 156.77L392.004 157.561L391.919 155.976L391.925 156.77ZM390.334 149.662L390.38 150.454L390.368 148.868L390.334 149.662ZM394.252 141.478L394.283 142.272L394.952 142.245L395.038 141.58L394.252 141.478Z" fill="#001A39"/>
<path fill-rule="evenodd" clip-rule="evenodd" d="M482.071 60.5049L458.478 66.3169L458.099 64.7749L481.692 58.9629L482.071 60.5049Z" fill="white"/>
<path fill-rule="evenodd" clip-rule="evenodd" d="M479.746 99.5105L464.116 103.856L463.692 102.326L479.321 97.9805L479.746 99.5105Z" fill="white"/>
</svg>
