<svg width="606" height="450" viewBox="0 0 606 450" fill="none" xmlns="http://www.w3.org/2000/svg">
<path fill-rule="evenodd" clip-rule="evenodd" d="M243.818 37.6581C243.682 38.3501 243.578 39.0551 243.51 39.7718C243.379 41.1415 243.384 42.4902 243.501 43.8095C244.426 53.868 252.388 62.1744 262.816 63.1744C274.61 64.3046 285.089 55.6621 286.219 43.8683C286.761 38.213 285.055 32.8561 281.828 28.6881C278.328 24.1714 273.051 21.0537 266.912 20.4655C261.298 19.9274 255.981 21.6055 251.829 24.7837C250.502 27.1964 249.888 29.6005 249.636 31.6501C249.25 34.7519 246.858 37.1899 243.818 37.6581Z" fill="#FBC73B"/>
<path fill-rule="evenodd" clip-rule="evenodd" d="M235.884 38.1854C235.828 38.4594 235.785 38.7391 235.758 39.0238C235.712 39.5196 235.712 40.0112 235.754 40.4902C236.09 44.1456 238.985 47.1622 242.77 47.5235C247.056 47.9353 250.858 44.7967 251.27 40.5112C251.467 38.4608 250.846 36.5112 249.673 34.9986C249.425 34.677 249.152 34.375 248.856 34.0957C247.748 36.1513 245.643 37.5712 243.195 37.7256L235.884 38.1854Z" fill="#FBC73B"/>
<path d="M598.059 0H532.515V65.5444H598.059V0Z" fill="#001A39"/>
<path d="M488 66V0H549.95C568.176 0 583 14.8022 583 33C583 51.1978 568.176 66 549.95 66H488Z" fill="#BACADF"/>
<path d="M421.055 330.787L375 407.85L441.985 447.882L488.04 370.819L421.055 330.787Z" fill="#FFD2A8"/>
<path d="M524.57 223.393H606L565.287 155.135L524.57 223.393Z" fill="#001A39"/>
<path d="M421.131 330.823L488.045 370.818L488.117 294.728L421.131 330.823Z" fill="#FFA574"/>
<path d="M565.287 402.438C585.482 402.438 601.853 386.067 601.853 365.872C601.853 345.677 585.482 329.306 565.287 329.306C545.092 329.306 528.721 345.677 528.721 365.872C528.721 386.067 545.092 402.438 565.287 402.438Z" fill="#001A39"/>
<path d="M469.463 154.428L454.986 221.066L544.404 240.493L558.882 173.855L469.463 154.428Z" fill="#AF687D"/>
<path d="M286.618 20.4913C286.148 25.3903 281.795 28.9784 276.896 28.512C272.564 28.0961 269.257 24.6466 268.871 20.466C268.82 19.9156 268.82 19.3569 268.875 18.7897C269.346 13.8907 273.698 10.3024 278.597 10.7688C281.148 11.0125 283.341 12.3067 284.794 14.1848C286.135 15.9159 286.841 18.1426 286.618 20.4913Z" fill="#001A39"/>
<path d="M272.156 16.5876C271.87 19.5707 269.219 21.7597 266.232 21.474C263.593 21.2219 261.576 19.1212 261.345 16.5751C261.316 16.239 261.316 15.8986 261.349 15.554C261.635 12.5709 264.287 10.3819 267.274 10.6677C268.828 10.8147 270.164 11.6045 271.047 12.7473C271.862 13.8019 272.291 15.1549 272.156 16.5876Z" fill="#001A39"/>
<path fill-rule="evenodd" clip-rule="evenodd" d="M280.395 56.1682C280.395 56.1681 280.394 56.168 280.093 56.9524C279.792 57.7368 279.791 57.7367 279.791 57.7365L279.79 57.7362L279.788 57.7355L279.783 57.7335L279.768 57.7276C279.757 57.7229 279.741 57.7165 279.721 57.7083C279.682 57.692 279.629 57.6689 279.562 57.6385C279.43 57.578 279.247 57.4886 279.032 57.3684C278.605 57.1295 278.037 56.7613 277.492 56.2461C276.389 55.2048 275.344 53.5189 275.806 51.145L277.456 51.466C277.136 53.1088 277.822 54.2464 278.646 55.0243C279.064 55.4187 279.508 55.7092 279.852 55.9014C280.023 55.9968 280.165 56.0661 280.262 56.1104C280.31 56.1325 280.347 56.1483 280.37 56.1579C280.381 56.1626 280.389 56.1659 280.393 56.1675L280.396 56.1687L280.396 56.1684L280.395 56.1682Z" fill="#001A39"/>
<path d="M282.279 48.6181C282.472 46.6086 281.593 44.8802 280.316 44.7576C279.038 44.6351 277.847 46.1648 277.654 48.1744C277.461 50.1839 278.34 51.9123 279.617 52.0349C280.895 52.1574 282.087 50.6277 282.279 48.6181Z" fill="#001A39"/>
<path d="M273.567 47.9789C273.76 45.9694 272.881 44.2409 271.604 44.1184C270.326 43.9958 269.135 45.5256 268.942 47.5351C268.749 49.5446 269.628 51.2727 270.905 51.3952C272.183 51.5178 273.375 49.9884 273.567 47.9789Z" fill="#001A39"/>
<path d="M63.2168 226.578L22.3015 209.15L0 292.828L38.1961 234.414L65.7837 246.019" fill="#001A39"/>
<path fill-rule="evenodd" clip-rule="evenodd" d="M31.6551 255.14L24.1514 241.947L25.6122 241.116L33.116 254.309L31.6551 255.14Z" fill="white"/>
<path fill-rule="evenodd" clip-rule="evenodd" d="M28.3487 261.379L20.8486 248.19L22.3096 247.359L29.8096 260.548L28.3487 261.379Z" fill="white"/>
<path fill-rule="evenodd" clip-rule="evenodd" d="M34.9573 248.896L27.4531 235.703L28.914 234.873L36.4181 248.065L34.9573 248.896Z" fill="white"/>
<path d="M144.088 343.701L103.711 360.062L146.395 433.375L132.236 366.486L159.361 355.356" fill="#001A39"/>
<path fill-rule="evenodd" clip-rule="evenodd" d="M142.099 385.368L127.755 381.465L128.196 379.843L142.54 383.746L142.099 385.368Z" fill="white"/>
<path fill-rule="evenodd" clip-rule="evenodd" d="M144.153 391.977L129.809 388.069L130.251 386.448L144.595 390.355L144.153 391.977Z" fill="white"/>
<path fill-rule="evenodd" clip-rule="evenodd" d="M140.048 378.763L125.704 374.855L126.146 373.234L140.49 377.141L140.048 378.763Z" fill="white"/>
<path d="M197.448 139.433C152.193 147.601 139.307 239.813 139.307 239.813L69.2961 215.179C69.2961 215.179 53.4224 215.494 46.8091 241.712C41.5824 262.426 54.0905 271.32 54.0905 271.32L134.168 298.66C155.34 304.416 175.949 297.673 184.583 277.505C196.545 249.569 209.439 223.666 209.439 223.666L228.762 295.521L143.803 332.252C143.803 332.252 137.143 347.352 145.324 363.238C154.811 381.662 174.591 379.33 174.591 379.33L265.131 339.671C284.467 331.201 295.008 310.143 290.198 289.585C280.874 249.754 264.82 192.482 256.489 171.281C246.439 145.736 219.725 135.408 197.448 139.433Z" fill="#F96155"/>
<path d="M219.754 140.462C220.216 144.164 220.708 147.954 220.057 151.664C219.212 156.458 216.624 160.705 213.217 164.125C206.843 170.52 198.255 174.037 190.566 178.52C183.394 182.701 176.356 188.65 173.356 196.616C170.205 204.982 173.709 212.788 179.058 219.288C182.482 223.447 186.297 227.237 189.427 231.645C192.747 236.321 195.339 241.426 198.007 246.485C198.423 247.27 199.683 246.732 199.44 245.88C196.768 236.645 190.839 228.846 184.511 221.788C178.419 214.99 172.155 207.204 175.621 197.557C178.675 189.053 186.742 183.39 194.284 179.154C201.729 174.974 209.813 171.218 215.569 164.705C218.771 161.084 221.158 156.731 221.826 151.903C222.376 147.912 221.54 144.214 220.876 140.311C220.771 139.685 219.674 139.824 219.754 140.462Z" fill="#001A39"/>
<path d="M257.018 173.533C254.127 179.991 249.674 185.6 246.409 191.865C243.439 197.57 241.913 203.734 242.136 210.188C242.577 222.881 249.619 234.923 260.291 241.796C265.85 245.376 272.635 247.212 279.21 246.09C280.076 245.943 279.824 244.641 279.009 244.611C273.211 244.397 267.715 243.645 262.619 240.687C257.497 237.717 253.069 233.17 249.875 228.208C243.044 217.595 242.153 203.612 247.876 192.327C251.039 186.088 255.224 180.394 257.9 173.903C258.106 173.403 257.241 173.033 257.018 173.533Z" fill="#001A39"/>
<path d="M215.569 243.792C227.027 242.204 238.825 245.766 247.287 253.707C254.619 260.585 260.266 271.43 259.245 281.723C258.64 287.854 254.484 291.828 249.904 295.437C245.745 298.715 241.514 301.904 237.451 305.298C229.603 311.853 221.952 319.386 217.531 328.764C213.061 338.247 211.41 351.453 217.368 360.705C217.851 361.452 219.25 360.986 218.889 360.062C214.67 349.327 215.116 337.718 220.767 327.541C226.187 317.781 234.746 310.29 243.376 303.429C247.649 300.03 252.384 296.916 256.195 292.988C259.984 289.08 261.778 284.274 261.568 278.841C261.186 268.921 256.144 259.195 248.98 252.468C239.943 243.977 227.38 240.632 215.221 242.523C214.376 242.649 214.742 243.905 215.569 243.792Z" fill="#001A39"/>
<path d="M288.034 280.619C277.421 283.119 271.446 294.16 268.85 303.946C266.085 314.378 266.236 326.798 270.518 336.827C270.858 337.625 271.984 337.02 271.841 336.268C270.875 331.168 269.765 326.235 269.471 321.025C269.177 315.84 269.547 310.614 270.732 305.551C272.929 296.156 278.286 284.602 288.32 281.639C288.975 281.45 288.702 280.459 288.034 280.619Z" fill="#001A39"/>
<path d="M195.019 310C199.343 324.289 195.65 340.789 184.44 350.973C179.238 355.7 172.671 358.797 165.722 359.826C157.974 360.978 150.088 359.07 143.075 355.805C142.323 355.457 141.672 356.503 142.416 356.936C153.357 363.33 166.092 364.36 177.545 358.62C188.402 353.175 195.872 342.696 198.137 330.831C199.481 323.777 199.129 316.311 196.381 309.626C196.04 308.815 194.746 309.109 195.019 310Z" fill="#001A39"/>
<path d="M146.122 208.469C152.521 212.708 156.844 219.431 159.891 226.347C162.848 233.053 165.033 240.443 165.453 247.779C165.957 256.535 163.395 264.749 156.412 270.379C149.471 275.976 140.551 278.039 132.055 279.984C124.833 281.635 114.518 282.786 111.173 290.564C110.699 291.673 112.232 292.66 112.841 291.538C114.732 288.064 118.165 286.286 121.807 285.139C126.248 283.74 130.828 282.82 135.357 281.757C143.836 279.766 152.466 277.177 159.134 271.295C172.008 259.934 168.613 240.825 162.546 226.788C159.18 219.002 154.097 211.868 146.677 207.528C146.063 207.167 145.542 208.083 146.122 208.469Z" fill="#001A39"/>
<path d="M120.732 234.242C119.908 240.578 116.404 247.048 111.585 251.241C105.56 256.48 97.77 256.754 90.7996 253.245C84.0435 249.842 78.4053 244.237 73.4222 238.641C68.1408 232.708 63.8718 226.099 59.3761 219.582C59.061 219.129 58.1786 219.397 58.4139 219.99C60.8928 226.225 64.6745 231.847 68.8719 237.048C73.065 242.241 77.7789 247.145 83.0813 251.216C88.077 255.052 94.0979 258.27 100.568 258.14C106.392 258.022 111.728 255.002 115.442 250.611C117.484 248.199 119.215 245.317 120.467 242.414C121.631 239.72 121.656 237.132 121.795 234.246C121.828 233.54 120.816 233.582 120.732 234.242Z" fill="#001A39"/>
<path d="M75.83 278.19C72.2334 272.509 67.5909 267.711 62.465 263.379C60.0659 261.354 57.5531 259.447 54.9481 257.699C52.2885 255.913 49.2805 253.901 46.1125 253.187C45.5033 253.048 44.9106 253.85 45.4568 254.313C47.7761 256.283 50.633 257.682 53.1833 259.338C55.9522 261.136 58.5992 263.098 61.1495 265.195C66.1872 269.329 70.7253 274.022 75.5066 278.442C75.6705 278.593 75.9602 278.396 75.83 278.19Z" fill="#001A39"/>
<path fill-rule="evenodd" clip-rule="evenodd" d="M222.769 198.292L209.555 227.799L208.021 227.113L221.236 197.605L222.769 198.292Z" fill="white"/>
<path fill-rule="evenodd" clip-rule="evenodd" d="M266.839 44.6838L272.288 42.2847L272.965 43.8228L267.516 46.2219L266.839 44.6838Z" fill="#001A39"/>
<path fill-rule="evenodd" clip-rule="evenodd" d="M283.673 38.556L278.568 36.5898L279.172 35.0215L284.277 36.9877L283.673 38.556Z" fill="#001A39"/>
<path d="M409.752 168.882L400.926 209.507L454.995 221.253L469.644 153.825L451.912 151.462C451.912 151.462 445.597 160.101 446.37 162.613C447.049 164.821 450.569 165.531 453.924 166.208C457.279 166.885 460.47 167.529 460.487 169.605C460.521 173.752 447.987 175.512 421.223 171.546C418.583 171.155 414.639 170.22 409.752 168.882Z" fill="#742A40"/>
<path fill-rule="evenodd" clip-rule="evenodd" d="M428.017 146.159L301.483 94.1017L301.962 92.936L428.336 144.927C428.424 144.915 428.543 144.897 428.691 144.876C429.029 144.827 429.515 144.757 430.111 144.674C431.304 144.508 432.936 144.289 434.695 144.076C438.188 143.652 442.257 143.242 444.333 143.342C447.688 143.505 453.724 144.707 459.093 146.032C461.787 146.696 464.332 147.396 466.313 148.02C467.303 148.332 468.16 148.627 468.828 148.892C469.464 149.145 470.014 149.401 470.313 149.653C471.677 150.802 472.379 151.898 472.737 152.737C472.916 153.155 473.007 153.505 473.053 153.76C473.076 153.887 473.088 153.99 473.094 154.066C473.097 154.104 473.099 154.136 473.1 154.159C473.1 154.171 473.1 154.182 473.101 154.19L473.101 154.201L473.101 154.205L473.101 154.207V154.208C473.101 154.209 473.101 154.209 472.47 154.202L473.101 154.209L472.387 154.827L452.203 152.137C452.188 152.158 452.172 152.181 452.156 152.204C451.987 152.442 451.745 152.786 451.458 153.207C450.882 154.05 450.124 155.197 449.392 156.42C448.657 157.646 447.958 158.931 447.492 160.053C447.259 160.615 447.091 161.118 447.004 161.541C446.913 161.977 446.922 162.263 446.973 162.428C447.222 163.241 448.028 163.875 449.372 164.398C450.696 164.912 452.357 165.249 454.05 165.591L454.095 165.6C455.738 165.931 457.423 166.271 458.699 166.8C459.963 167.324 461.106 168.153 461.118 169.6C461.129 171.026 460.044 172.075 458.38 172.794C456.696 173.522 454.213 174.013 450.949 174.247C444.408 174.714 434.532 174.155 421.131 172.17C415.685 171.363 404.825 168.287 391.653 164.153C378.46 160.013 362.895 154.793 348.007 149.674C333.118 144.555 318.903 139.536 308.411 135.797C303.165 133.927 298.849 132.378 295.844 131.295C294.342 130.754 293.168 130.33 292.369 130.041C291.97 129.896 291.664 129.785 291.459 129.711L291.148 129.598C291.147 129.598 291.147 129.598 291.362 129.005C291.577 128.413 291.578 128.413 291.578 128.413L291.888 128.526C292.094 128.6 292.399 128.711 292.798 128.855C293.596 129.144 294.77 129.568 296.272 130.109C299.275 131.191 303.589 132.74 308.834 134.61C319.324 138.348 333.534 143.365 348.417 148.482C363.3 153.6 378.853 158.815 392.03 162.951C405.227 167.092 415.987 170.133 421.316 170.923C434.679 172.903 444.452 173.447 450.86 172.989C454.071 172.76 456.388 172.282 457.88 171.637C459.394 170.983 459.862 170.258 459.857 169.61C459.852 168.981 459.391 168.451 458.217 167.965C457.067 167.488 455.499 167.169 453.8 166.826L453.764 166.819C452.112 166.486 450.35 166.13 448.915 165.573C447.491 165.019 446.196 164.194 445.768 162.799C445.625 162.336 445.662 161.803 445.769 161.285C445.879 160.755 446.078 160.171 446.328 159.57C446.828 158.365 447.563 157.019 448.31 155.772C449.06 154.521 449.833 153.352 450.417 152.496C450.709 152.068 450.955 151.718 451.128 151.474C451.215 151.352 451.283 151.257 451.33 151.192C451.353 151.159 451.371 151.134 451.384 151.117L451.402 151.093L451.403 151.091L451.403 151.091C451.403 151.091 451.403 151.091 451.912 151.463L451.403 151.091L451.995 150.838L471.668 153.459C471.642 153.388 471.612 153.312 471.578 153.232C471.301 152.582 470.721 151.644 469.501 150.617C469.382 150.516 469.022 150.325 468.363 150.064C467.735 149.815 466.91 149.53 465.935 149.222C463.986 148.608 461.467 147.916 458.791 147.255C453.422 145.931 447.493 144.757 444.273 144.601C442.324 144.507 438.37 144.9 434.847 145.327C433.097 145.539 431.473 145.757 430.285 145.923C429.692 146.005 429.207 146.074 428.872 146.123C428.704 146.147 428.574 146.167 428.485 146.18L428.351 146.199C428.351 146.199 428.35 146.2 428.257 145.576L428.35 146.2L428.017 146.159Z" fill="#001A39"/>
<path d="M295.928 111.505C292.05 124.161 278.652 131.274 265.997 127.4L214.595 111.653C201.94 107.774 194.827 94.3756 198.7 81.7205C202.578 69.0653 215.977 61.952 228.632 65.8259L280.034 81.5734C292.689 85.4514 299.807 98.8503 295.928 111.505Z" fill="#001A39"/>
<path d="M491 66C509.225 66 524 51.2254 524 33C524 14.7746 509.225 0 491 0C472.775 0 458 14.7746 458 33C458 51.2254 472.775 66 491 66Z" fill="#194D87"/>
<path fill-rule="evenodd" clip-rule="evenodd" d="M254.022 12.4954C256.329 12.4617 258.363 12.4827 260.116 12.5334L260.217 12.5445C261.051 12.7054 261.686 12.9703 262.109 13.3625C262.562 13.7818 262.724 14.3032 262.672 14.8218C262.624 15.3051 262.396 15.7504 262.144 16.1088C261.887 16.4744 261.572 16.7987 261.278 17.0473L261.159 17.1271C258.559 18.4644 255.847 20.2919 253.976 22.6736C251.555 25.7648 250.591 29.052 250.261 31.7274L250.261 31.728C249.812 35.3376 246.87 38.1254 243.234 38.3547L189.43 41.7393L209.013 63.5434L208.076 64.3857L187.623 41.6131L188.052 40.563L243.155 37.0967C246.182 36.9058 248.635 34.5849 249.01 31.5731M254.022 12.4954C248.802 12.5687 244.963 14.1515 242.423 15.7275C241.154 16.5146 240.211 17.2989 239.582 17.8906C239.267 18.1866 239.031 18.4347 238.871 18.6113C238.864 18.6187 238.858 18.6261 238.851 18.6333C238.684 18.6166 238.453 18.5938 238.164 18.5659C237.502 18.5019 236.532 18.4105 235.296 18.3006C232.824 18.0809 229.29 17.787 225.036 17.4907C216.531 16.898 205.147 16.2949 193.639 16.2541C182.139 16.2134 170.484 16.734 161.451 18.399C156.937 19.2308 153.038 20.3553 150.132 21.8619C147.236 23.3634 145.212 25.3054 144.678 27.8219C143.51 33.3152 145.732 40.2018 149.553 47.331C153.391 54.4925 158.92 62.0356 164.572 68.8991C170.226 75.7664 176.018 81.9719 180.395 86.4594C182.584 88.7036 184.42 90.5192 185.71 91.7742C186.354 92.4018 186.862 92.8892 187.21 93.2201C187.383 93.3855 187.517 93.5118 187.607 93.5969C187.634 93.6226 187.657 93.6446 187.677 93.6628L187.736 93.718L187.742 93.7243L187.744 93.7259C187.744 93.7263 187.745 93.7265 188.175 93.2662C188.606 92.8058 188.605 92.8057 188.605 92.8055L188.572 92.7746C188.55 92.7536 188.516 92.722 188.472 92.6802C188.383 92.5964 188.251 92.4715 188.079 92.3075C187.735 91.9796 187.23 91.4952 186.589 90.871C185.306 89.6225 183.478 87.8147 181.297 85.5793C176.936 81.1077 171.17 74.9294 165.545 68.0979C159.917 61.2628 154.446 53.7925 150.664 46.7355C146.864 39.6461 144.843 33.1093 145.911 28.084C146.331 26.1079 147.955 24.41 150.712 22.981C153.459 21.5573 157.218 20.4608 161.679 19.6385C170.595 17.9951 182.157 17.474 193.635 17.5146C205.105 17.5552 216.459 18.1566 224.949 18.7481C229.193 19.0438 232.719 19.337 235.184 19.5562C236.417 19.6658 237.384 19.7568 238.043 19.8205C238.372 19.8523 238.624 19.8773 238.794 19.8943C238.879 19.9028 238.943 19.9093 238.986 19.9137L239.049 19.9202C239.05 19.9202 239.05 19.9203 239.115 19.2934L239.05 19.9203L239.61 19.683C239.61 19.683 239.61 19.6832 239.61 19.683L239.61 19.6828L239.611 19.6825L239.618 19.6736C239.623 19.6677 239.63 19.6591 239.639 19.6481C239.643 19.6431 239.648 19.6375 239.653 19.6315C239.685 19.5929 239.736 19.5338 239.806 19.4571C239.944 19.3037 240.157 19.08 240.446 18.8088C241.022 18.2664 241.9 17.5356 243.087 16.7986C245.46 15.3265 249.078 13.8254 254.039 13.7558C256.305 13.7226 258.305 13.7427 260.027 13.7918C260.721 13.9312 261.079 14.1263 261.253 14.2868C261.4 14.4239 261.432 14.55 261.418 14.6966C261.399 14.8785 261.301 15.116 261.112 15.3846C260.943 15.6259 260.727 15.8549 260.516 16.0407C257.857 17.4152 254.997 19.333 252.985 21.8957L252.984 21.8962C250.39 25.208 249.361 28.727 249.01 31.5725" fill="#001A39"/>
<path fill-rule="evenodd" clip-rule="evenodd" d="M247.831 35.5273C248.749 36.9967 249.022 38.4358 249.022 38.4358L257.199 41.0829L259.379 28.3059C272.854 32.1209 280.896 28.0201 280.896 28.0201C278.831 22.407 271.597 16.7056 261.858 15.3633C261.63 15.8238 261.234 16.2584 260.871 16.5669C258.232 17.924 255.43 19.802 253.48 22.2851C250.972 25.4867 249.976 28.89 249.636 31.6504C249.45 33.1458 248.797 34.4868 247.831 35.5273Z" fill="#001A39"/>
<path fill-rule="evenodd" clip-rule="evenodd" d="M250.525 12.7832C250.525 12.7831 250.525 12.783 250.678 13.3945C250.831 14.006 250.831 14.0059 250.831 14.0058L250.826 14.0073C250.819 14.0091 250.807 14.0122 250.791 14.0168C250.759 14.026 250.708 14.0411 250.641 14.063C250.507 14.1067 250.305 14.1776 250.052 14.283C249.546 14.4939 248.833 14.8423 248.026 15.3869C246.416 16.4741 244.428 18.3469 242.968 21.4878L241.825 20.9565C243.394 17.5808 245.547 15.5398 247.321 14.3423C248.206 13.7446 248.995 13.3579 249.568 13.1194C249.854 13 250.087 12.9176 250.252 12.8642C250.334 12.8375 250.399 12.818 250.445 12.8048C250.468 12.7982 250.487 12.7932 250.5 12.7896L250.517 12.7853L250.522 12.7839L250.524 12.7834L250.525 12.7832Z" fill="#001A39"/>
<path fill-rule="evenodd" clip-rule="evenodd" d="M258.578 12.4624C258.578 12.4624 258.578 12.4624 258.602 13.0922C258.625 13.722 258.626 13.722 258.626 13.7219L258.624 13.722L258.61 13.7227C258.597 13.7234 258.576 13.7247 258.547 13.7267C258.489 13.7309 258.401 13.7382 258.286 13.7508C258.055 13.7761 257.716 13.8224 257.297 13.9061C256.458 14.0737 255.3 14.3901 254.038 14.9838C251.524 16.1667 248.586 18.4525 246.906 22.9027L245.727 22.4575C247.543 17.6474 250.747 15.1392 253.502 13.8433C254.874 13.1975 256.133 12.8532 257.05 12.67C257.51 12.5783 257.885 12.5267 258.149 12.4978C258.281 12.4834 258.385 12.4747 258.457 12.4695C258.494 12.4669 258.522 12.4652 258.542 12.4641L258.567 12.4629L258.574 12.4625L258.577 12.4624L258.578 12.4624Z" fill="#001A39"/>
</svg>
