<svg width="512" height="336" viewBox="0 0 512 336" fill="none" xmlns="http://www.w3.org/2000/svg">
<path d="M470.599 242.645L512 249.145L493.26 312.891L491.215 258.972L461.068 254.229" fill="#FFEDDC"/>
<path d="M375.057 268.193L398.169 294.273L343.503 331.972L375.842 288.8L360.367 271.179" fill="#FFEDDC"/>
<path d="M479.746 241.549C479.746 241.549 487.958 248.423 483.857 263.348C479.991 277.422 468.408 279.744 468.408 279.744L404.219 266.091C397.498 264.371 392.042 259.474 389.601 252.975L371.276 204.157L341.825 221.107L378.176 266.322C378.176 266.322 380.514 276.824 369.18 285.411C359.392 292.827 347.237 290.594 347.237 290.594L300.963 238.603C289.065 225.233 290.468 204.685 304.074 193.065C327.746 172.851 342.199 161.201 360.839 152.402C377.029 144.761 400.137 148.796 412.936 161.748C423.64 172.583 426.905 185.106 428.415 230.27" fill="#F96155"/>
<path fill-rule="evenodd" clip-rule="evenodd" d="M364.663 182.258L376.865 222.206L375.463 222.635L363.261 182.687L364.663 182.258Z" fill="#FDC4A0"/>
<path d="M455.304 276.703C454.109 269.876 457.092 262.353 463.267 258.905C466.429 257.138 470.149 256.69 473.498 258.216C476.946 259.789 480.024 262.405 482.736 265.013C483.242 265.501 484.015 264.73 483.505 264.242C480.512 261.359 476.972 258.326 473.032 256.851C469.614 255.571 465.85 256.217 462.713 257.963C456.085 261.653 452.973 269.7 454.249 276.996C454.373 277.686 455.425 277.392 455.304 276.703Z" fill="#FBC73B"/>
<path d="M462.197 237.521C456.803 248.481 447.836 259.794 434.303 258.884C427.675 258.436 422.372 254.339 419.979 248.17C417.312 241.292 418.448 233.773 420.049 226.789C421.91 218.679 424.377 210.69 427.455 202.958C427.715 202.305 426.659 202.023 426.403 202.668C423.325 210.4 420.859 218.389 418.997 226.499C417.33 233.769 416.19 241.597 419.03 248.731C421.298 254.427 425.974 258.62 432.068 259.706C437.939 260.747 444.19 259.177 449.108 255.865C455.506 251.555 459.789 244.883 463.139 238.075C463.45 237.444 462.508 236.891 462.197 237.521Z" fill="#FBC73B"/>
<path d="M390.323 254.199C394.515 250.52 400.056 248.855 405.454 247.905C411.496 246.841 417.872 246.361 423.874 247.912C428.895 249.211 433.699 252.01 436.678 256.342C440.141 261.374 440.603 268.083 440.866 273.999C440.899 274.7 441.988 274.704 441.958 273.999C441.687 267.877 441.174 261.004 437.62 255.788C434.608 251.368 429.789 248.422 424.699 246.999C418.345 245.22 411.58 245.715 405.16 246.845C399.565 247.832 393.892 249.611 389.55 253.422C389.022 253.891 389.795 254.662 390.323 254.199Z" fill="#FBC73B"/>
<path d="M374.592 212.729C379.814 209.157 385.669 206.629 391.88 205.404C396.34 204.524 406.56 202.987 406.219 210.327C406.076 213.4 404.541 216.566 403.108 219.225C401.642 221.943 399.854 224.478 397.934 226.891C393.976 231.854 389.491 236.395 384.695 240.544C384.163 241.006 384.936 241.772 385.464 241.314C393.522 234.334 402.016 225.82 405.937 215.693C407.399 211.922 408.495 206.941 404.171 204.66C400.283 202.609 395.043 203.614 390.968 204.476C384.9 205.76 379.154 208.284 374.038 211.783C373.467 212.183 374.009 213.129 374.592 212.729Z" fill="#FBC73B"/>
<path d="M424.325 187.064C419.092 190.193 414.069 193.058 407.791 193.091C401.679 193.12 395.629 190.795 391.888 185.81C388.348 181.089 387.021 175.085 385.809 169.425C384.346 162.602 383.082 155.611 382.683 148.635C382.643 147.938 381.551 147.93 381.591 148.635C381.924 154.43 382.892 160.233 383.987 165.929C384.966 171.013 385.97 176.229 387.978 181.027C389.73 185.212 392.416 188.961 396.38 191.29C400.382 193.637 405.19 194.488 409.781 194.096C415.457 193.612 420.096 190.875 424.879 188.014C425.479 187.647 424.93 186.705 424.325 187.064Z" fill="#FBC73B"/>
<path d="M403.782 154.955C400.196 165.926 391.8 171.384 384.407 173.178C376.309 175.14 367.214 174.307 360.007 167.716C359.618 167.36 359.266 168.303 359.655 168.659C365.412 173.926 372.261 175.452 378.843 175.07C385.542 174.681 392.18 172.268 397.85 166.491C400.588 163.699 402.889 160.083 404.385 155.509C404.589 154.882 403.986 154.331 403.782 154.955Z" fill="#FBC73B"/>
<path d="M320.201 180.044C325.313 183.066 330.238 186.921 331.411 193.098C332.448 198.567 330.406 204.304 327.043 208.595C319.208 218.602 304.888 220.135 293.117 220.751C292.418 220.788 292.414 221.881 293.117 221.844C303.576 221.294 314.998 220.069 323.602 213.507C330.359 208.353 334.899 198.75 331.777 190.365C329.835 185.153 325.364 181.83 320.747 179.101C320.146 178.745 319.596 179.688 320.201 180.044Z" fill="#FBC73B"/>
<path d="M367.355 252.161C359.264 250.679 350.293 251.148 343.499 256.28C336.768 261.364 334.166 269.639 335.621 277.8C335.745 278.489 336.797 278.196 336.673 277.51C335.247 269.517 338.021 261.4 344.793 256.687C351.25 252.194 359.568 251.841 367.069 253.217C367.754 253.338 368.047 252.285 367.355 252.161Z" fill="#FBC73B"/>
<path d="M315.401 255.186C326.141 253.598 338.479 255.006 348.153 260.167C352.719 262.603 356.713 266.047 359.494 270.441C362.803 275.665 364.243 281.765 365.068 287.824C365.163 288.517 366.215 288.22 366.12 287.534C365.259 281.203 363.697 274.817 360.136 269.425C357.274 265.093 353.269 261.66 348.706 259.228C338.758 253.924 326.148 252.505 315.111 254.137C314.419 254.236 314.712 255.289 315.401 255.186Z" fill="#FBC73B"/>
<path d="M361.726 209.652C356.658 202.657 348.743 198.508 340.44 196.671C332.689 194.958 323.631 194.675 316.376 198.354C308.878 202.154 306.126 210.345 308.607 218.209C311.359 226.943 319.193 232.342 327.006 236.245C337.241 241.358 348.71 245.991 360.37 244.806C361.063 244.736 361.07 243.643 360.37 243.713C350.711 244.696 341.286 241.571 332.58 237.672C324.939 234.249 316.529 230.167 311.927 222.816C307.471 215.693 307.346 205.778 314.756 200.588C321.205 196.073 330.209 196.007 337.68 197.25C346.563 198.725 355.383 202.752 360.781 210.206C361.191 210.767 362.137 210.224 361.726 209.652Z" fill="#FBC73B"/>
<path fill-rule="evenodd" clip-rule="evenodd" d="M486.819 272.57L496.834 263.693L497.806 264.792L487.791 273.668L486.819 272.57Z" fill="#A14259"/>
<path fill-rule="evenodd" clip-rule="evenodd" d="M486.552 279.465L496.567 270.589L497.538 271.687L487.523 280.564L486.552 279.465Z" fill="#A14259"/>
<path fill-rule="evenodd" clip-rule="evenodd" d="M485.853 286.846L495.867 277.973L496.839 279.071L486.824 287.944L485.853 286.846Z" fill="#A14259"/>
<path fill-rule="evenodd" clip-rule="evenodd" d="M365.041 296.475L378.39 295.646L378.481 297.11L365.132 297.939L365.041 296.475Z" fill="#A14259"/>
<path fill-rule="evenodd" clip-rule="evenodd" d="M360.592 301.75L373.942 300.921L374.033 302.385L360.683 303.214L360.592 301.75Z" fill="#A14259"/>
<path fill-rule="evenodd" clip-rule="evenodd" d="M355.503 307.134L368.852 306.309L368.943 307.773L355.593 308.599L355.503 307.134Z" fill="#A14259"/>
<path fill-rule="evenodd" clip-rule="evenodd" d="M444.056 129.052L408.508 114.083L409.076 112.731L444.624 127.7L444.056 129.052Z" fill="#001A39"/>
<path fill-rule="evenodd" clip-rule="evenodd" d="M415.071 140.578C415.074 140.575 415.077 140.571 415.08 140.568C415.215 140.423 415.439 140.227 415.765 139.982C416.41 139.497 417.359 138.889 418.526 138.197C420.856 136.817 423.983 135.148 427.127 133.533C430.268 131.918 433.414 130.363 435.776 129.211C436.957 128.635 437.941 128.16 438.63 127.829C438.974 127.663 439.245 127.534 439.429 127.446C439.521 127.402 439.592 127.368 439.639 127.345L439.711 127.311C439.711 127.311 439.711 127.311 439.397 126.648C439.083 125.986 439.083 125.986 439.083 125.986L439.01 126.02C438.962 126.043 438.891 126.077 438.798 126.121C438.613 126.21 438.341 126.34 437.996 126.506C437.305 126.838 436.318 127.314 435.134 127.892C432.767 129.046 429.611 130.607 426.458 132.227C423.307 133.846 420.148 135.531 417.78 136.934C416.598 137.634 415.595 138.275 414.884 138.809C414.532 139.074 414.227 139.331 414.005 139.571C413.894 139.69 413.786 139.825 413.703 139.972C413.626 140.111 413.533 140.327 413.55 140.587C413.569 140.877 413.69 141.133 413.814 141.333C413.943 141.541 414.113 141.746 414.301 141.944C414.679 142.341 415.19 142.77 415.772 143.206C416.941 144.082 418.477 145.048 420.008 145.925C421.542 146.803 423.092 147.603 424.298 148.144C424.897 148.413 425.431 148.628 425.844 148.754C426.045 148.815 426.253 148.867 426.441 148.884C426.534 148.892 426.661 148.895 426.797 148.867C426.927 148.839 427.159 148.76 427.322 148.527L427.323 148.526C428.038 147.5 427.865 146.337 427.407 145.342C426.951 144.35 426.155 143.378 425.343 142.546C424.523 141.706 423.643 140.964 422.973 140.436C422.636 140.17 422.35 139.957 422.147 139.809C422.046 139.735 421.965 139.677 421.909 139.638C421.881 139.618 421.859 139.603 421.844 139.592L421.827 139.58L421.822 139.576L421.82 139.575C421.82 139.575 421.819 139.575 421.405 140.18C420.99 140.785 420.99 140.785 420.99 140.784L420.994 140.787L421.007 140.796C421.02 140.805 421.039 140.819 421.064 140.836C421.114 140.872 421.189 140.925 421.284 140.995C421.475 141.133 421.746 141.336 422.065 141.588C422.707 142.094 423.534 142.792 424.295 143.572C425.064 144.36 425.724 145.19 426.076 145.955C426.34 146.531 426.398 146.985 426.284 147.354C426.28 147.353 426.276 147.351 426.272 147.35C425.946 147.251 425.477 147.066 424.898 146.805C423.746 146.288 422.239 145.512 420.736 144.651C419.232 143.79 417.753 142.858 416.651 142.032C416.098 141.617 415.659 141.244 415.363 140.933C415.225 140.788 415.131 140.669 415.071 140.578ZM414.981 140.691C414.981 140.691 414.981 140.691 414.982 140.69C414.979 140.695 414.979 140.695 414.981 140.691Z" fill="#001A39"/>
<path fill-rule="evenodd" clip-rule="evenodd" d="M419.893 94.0131C418.685 93.5719 417.873 93.2749 417.62 93.1634L418.212 91.8211C418.416 91.9113 419.171 92.1872 420.402 92.6372C420.616 92.7154 420.844 92.7989 421.087 92.8877C422.7 93.4779 424.889 94.2828 427.457 95.2589C432.591 97.2107 439.244 99.8486 445.845 102.827C452.441 105.803 459.012 109.13 463.969 112.465C466.446 114.131 468.548 115.818 470.051 117.484C471.541 119.136 472.522 120.856 472.578 122.583C472.632 124.266 471.953 125.971 470.833 127.63C469.709 129.294 468.102 130.972 466.199 132.621C462.39 135.918 457.301 139.178 452.232 142.052C447.156 144.929 442.073 147.436 438.261 149.222C436.354 150.115 434.764 150.829 433.65 151.32C433.092 151.566 432.654 151.755 432.355 151.884C432.319 151.9 432.284 151.914 432.252 151.928C432.24 151.986 432.227 152.05 432.213 152.12C432.139 152.483 432.031 153.002 431.898 153.624C431.632 154.868 431.264 156.53 430.855 158.193C430.447 159.851 429.995 161.53 429.561 162.801C429.345 163.433 429.124 163.994 428.903 164.408C428.794 164.612 428.667 164.816 428.518 164.978C428.39 165.118 428.122 165.364 427.726 165.364C427.301 165.364 427.036 165.089 426.911 164.918C426.777 164.735 426.684 164.515 426.614 164.309C426.47 163.888 426.359 163.326 426.268 162.704C426.189 162.16 426.121 161.542 426.064 160.884C425.824 162.182 425.539 163.422 425.206 164.429C424.972 165.138 424.696 165.784 424.364 166.257C424.05 166.703 423.535 167.199 422.807 167.121C422.075 167.042 421.672 166.435 421.453 165.93C421.217 165.387 421.067 164.681 420.967 163.914C420.766 162.368 420.748 160.364 420.807 158.405C420.816 158.091 420.828 157.777 420.841 157.465C420.529 158.356 420.2 159.209 419.872 159.912C419.633 160.425 419.38 160.892 419.116 161.243C418.985 161.417 418.832 161.589 418.654 161.723C418.479 161.855 418.227 161.99 417.916 161.99C417.407 161.99 417.136 161.612 417.026 161.403C416.906 161.176 416.835 160.901 416.788 160.638C416.692 160.098 416.654 159.367 416.65 158.541C416.643 156.877 416.779 154.676 416.959 152.497C417.141 150.313 417.369 148.13 417.553 146.496C417.644 145.678 417.725 144.996 417.782 144.519C417.811 144.28 417.834 144.092 417.85 143.964C417.858 143.9 417.864 143.851 417.868 143.818L417.874 143.767C417.874 143.767 417.874 143.767 418.601 143.859C419.328 143.951 419.328 143.951 419.328 143.951L419.322 144C419.318 144.033 419.312 144.081 419.304 144.144C419.289 144.271 419.266 144.457 419.237 144.694C419.18 145.168 419.1 145.846 419.009 146.659C418.827 148.286 418.6 150.453 418.42 152.618C418.24 154.788 418.109 156.937 418.116 158.535C418.118 159.123 418.14 159.617 418.18 160C418.293 159.805 418.415 159.568 418.544 159.292C418.987 158.341 419.45 157.052 419.874 155.736C420.297 154.426 420.673 153.114 420.944 152.127C421.08 151.634 421.189 151.223 421.264 150.936C421.301 150.793 421.33 150.68 421.35 150.604C421.355 150.584 421.359 150.566 421.363 150.552C421.366 150.538 421.369 150.526 421.372 150.517L421.379 150.49L421.379 150.488L422.09 150.667C422.818 150.749 422.818 150.749 422.818 150.749L422.817 150.759L422.813 150.791C422.81 150.82 422.806 150.862 422.8 150.918C422.788 151.03 422.771 151.195 422.749 151.405C422.707 151.824 422.65 152.425 422.589 153.147C422.466 154.593 422.33 156.519 422.272 158.449C422.213 160.388 422.236 162.298 422.421 163.725C422.514 164.445 422.643 164.991 422.797 165.346C422.871 165.515 422.93 165.599 422.966 165.639C423.006 165.609 423.072 165.545 423.165 165.413C423.374 165.115 423.596 164.63 423.815 163.967C424.249 162.655 424.61 160.849 424.897 158.995C425.183 157.15 425.392 155.293 425.529 153.895C425.597 153.196 425.648 152.614 425.681 152.206C425.698 152.003 425.71 151.843 425.718 151.734C425.722 151.68 425.725 151.638 425.727 151.611L425.73 151.579L425.73 151.569C425.73 151.569 425.73 151.569 426.038 151.591L425.73 151.569L427.194 151.621L426.461 151.62C427.194 151.621 427.194 151.621 427.194 151.621L427.194 151.657L427.195 151.764C427.195 151.859 427.195 151.998 427.197 152.175C427.199 152.528 427.204 153.034 427.213 153.642C427.233 154.857 427.272 156.475 427.35 158.09C427.429 159.711 427.546 161.308 427.718 162.492C427.758 162.764 427.8 163.006 427.842 163.216C427.946 162.965 428.058 162.667 428.174 162.327C428.587 161.118 429.027 159.49 429.432 157.842C429.835 156.199 430.2 154.553 430.465 153.317C430.597 152.7 430.703 152.185 430.777 151.825C430.814 151.645 430.842 151.504 430.862 151.408L430.884 151.298L430.891 151.262L430.891 151.262C430.891 151.262 430.891 151.262 431.61 151.404C431.327 150.727 431.327 150.727 431.327 150.727L431.333 150.725L431.355 150.716C431.37 150.709 431.392 150.7 431.42 150.688L431.44 150.679C431.516 150.647 431.629 150.599 431.777 150.536C432.072 150.409 432.506 150.221 433.059 149.977C434.165 149.49 435.744 148.781 437.64 147.893C441.431 146.117 446.478 143.628 451.509 140.775C456.547 137.919 461.539 134.715 465.24 131.511C467.09 129.909 468.594 128.326 469.618 126.808C470.647 125.286 471.153 123.886 471.113 122.63C471.073 121.417 470.365 120.021 468.963 118.467C467.573 116.926 465.58 115.316 463.152 113.683C458.297 110.417 451.814 107.129 445.243 104.165C438.679 101.203 432.056 98.5768 426.936 96.6305C424.377 95.6576 422.194 94.8551 420.584 94.2657C420.341 94.1769 420.11 94.0927 419.893 94.0131ZM431.61 151.404L431.327 150.727L430.891 151.262L431.61 151.404ZM427.426 163.998C427.426 163.998 427.429 163.995 427.435 163.989C427.429 163.996 427.426 163.999 427.426 163.998ZM422.921 165.665C422.921 165.665 422.924 165.663 422.929 165.663C422.924 165.665 422.921 165.665 422.921 165.665ZM422.09 150.667L422.818 150.749L421.379 150.488L422.09 150.667Z" fill="#001A39"/>
<path d="M420.038 88.7656C423.178 108.492 409.748 127.027 390.041 130.17C370.334 133.313 351.818 119.87 348.677 100.144" fill="#62A0E4"/>
<path d="M358.809 63.4638C358.593 73.4224 366.483 81.6717 376.431 81.8845C385.226 82.0752 392.687 75.924 394.446 67.6159C394.677 66.5265 394.808 65.4005 394.834 64.245C395.05 54.2864 387.161 46.0371 377.212 45.8244C372.034 45.7106 367.325 47.7941 363.961 51.2236C360.861 54.3818 358.912 58.688 358.809 63.4638Z" fill="#AF687D"/>
<path d="M363.962 51.22C368.59 60.8742 378.348 67.6343 389.777 67.8837C391.364 67.9167 392.925 67.825 394.449 67.6159C394.68 66.5265 394.812 65.4005 394.838 64.245C395.054 54.2864 387.165 46.0371 377.216 45.8244C372.034 45.7107 367.322 47.7904 363.962 51.22Z" fill="#001A39"/>
<path d="M393.493 52.3569C397.286 52.3569 400.36 49.2794 400.36 45.4831C400.36 41.6868 397.286 38.6093 393.493 38.6093C389.7 38.6093 386.626 41.6868 386.626 45.4831C386.626 49.2794 389.7 52.3569 393.493 52.3569Z" fill="#001A39"/>
<path d="M390.822 39.1302C401.617 39.1302 410.368 30.3706 410.368 19.5651C410.368 8.75959 401.617 0 390.822 0C380.027 0 371.276 8.75959 371.276 19.5651C371.276 30.3706 380.027 39.1302 390.822 39.1302Z" fill="#001A39"/>
<path d="M363.948 63.2486C363.995 61.0794 363.229 59.3036 362.238 59.2821C361.246 59.2607 360.404 61.0018 360.358 63.1709C360.311 65.3401 361.077 67.116 362.068 67.1374C363.06 67.1589 363.901 65.4178 363.948 63.2486Z" fill="#001A39"/>
<path d="M369.904 63.6498C369.951 61.4806 369.185 59.7048 368.193 59.6833C367.202 59.6619 366.36 61.4029 366.313 63.5721C366.267 65.7413 367.032 67.5172 368.024 67.5386C369.015 67.5601 369.857 65.8189 369.904 63.6498Z" fill="#001A39"/>
<path fill-rule="evenodd" clip-rule="evenodd" d="M362.155 71.8938C362.155 71.8938 362.154 71.8939 361.997 71.1773C361.841 70.4607 361.84 70.4607 361.84 70.4608L361.84 70.4609L361.839 70.461C361.841 70.4605 361.846 70.4594 361.853 70.4576C361.868 70.454 361.892 70.4477 361.924 70.4384C361.989 70.4199 362.086 70.3897 362.204 70.3454C362.443 70.2559 362.754 70.1139 363.056 69.9043C363.65 69.4929 364.176 68.8556 364.134 67.8064L365.599 67.7477C365.667 69.4458 364.759 70.5086 363.89 71.1106C363.462 71.4075 363.035 71.6005 362.718 71.7193C362.559 71.7791 362.424 71.8214 362.326 71.8493C362.278 71.8632 362.238 71.8737 362.209 71.881C362.194 71.8846 362.182 71.8875 362.173 71.8896L362.161 71.8923L362.157 71.8932L362.156 71.8936L362.155 71.8938ZM361.839 70.461L361.839 70.4611L361.838 70.4613C361.838 70.4614 361.838 70.4613 361.839 70.461Z" fill="#001A39"/>
<path fill-rule="evenodd" clip-rule="evenodd" d="M325.091 93.6711C325.31 93.5098 325.742 93.2599 326.233 93.4511L326.233 93.4513C326.655 93.6158 326.843 93.9863 326.926 94.2626C327.011 94.5453 327.032 94.8698 327.026 95.1901C327.012 95.8391 326.878 96.6774 326.675 97.6082C326.35 99.0997 325.826 100.929 325.235 102.803C325.961 101.481 326.68 100.243 327.324 99.256C327.8 98.5263 328.256 97.9003 328.659 97.4769C328.856 97.2695 329.079 97.0697 329.319 96.9405C329.547 96.8171 329.962 96.6733 330.38 96.913C330.77 97.1361 330.885 97.5512 330.929 97.7768C330.981 98.0477 330.989 98.365 330.975 98.6934C330.947 99.3576 330.819 100.224 330.632 101.2C330.257 103.16 329.618 105.678 328.937 108.15C328.255 110.627 327.527 113.075 326.969 114.903C326.878 115.204 326.79 115.488 326.709 115.753C327.456 115.192 328.359 114.519 329.27 113.853C330.378 113.044 331.506 112.239 332.383 111.657C332.819 111.368 333.208 111.123 333.509 110.959C333.655 110.879 333.807 110.804 333.946 110.754C334.012 110.731 334.114 110.7 334.23 110.69C334.314 110.682 334.611 110.666 334.859 110.904C335.366 111.391 335.566 112.041 335.596 112.701C335.626 113.354 335.492 114.072 335.274 114.796C334.836 116.246 334.004 117.89 333.114 119.411C332.22 120.941 331.244 122.386 330.495 123.445C330.119 123.976 329.799 124.412 329.572 124.715C329.56 124.733 329.547 124.749 329.535 124.766L343.91 145.736L350.294 107.037L351.74 107.276L345.06 147.774L343.733 148.07L328.027 125.159L328.052 124.294L328.058 124.288L328.074 124.266C328.089 124.246 328.112 124.217 328.142 124.178C328.201 124.1 328.288 123.985 328.398 123.837C328.618 123.542 328.931 123.116 329.298 122.597C330.034 121.558 330.984 120.151 331.849 118.67C332.72 117.181 333.483 115.655 333.871 114.372C334.064 113.729 334.151 113.189 334.132 112.767C334.124 112.593 334.099 112.45 334.062 112.331C333.834 112.464 333.54 112.65 333.193 112.88C332.344 113.443 331.238 114.232 330.135 115.038C329.033 115.843 327.942 116.659 327.126 117.275C326.718 117.582 326.379 117.839 326.142 118.02C326.024 118.11 325.931 118.181 325.868 118.229L325.773 118.301L325.772 118.302C325.772 118.302 325.771 118.303 325.326 117.72C324.628 117.496 324.628 117.496 324.628 117.496L324.645 117.442C324.652 117.421 324.661 117.393 324.671 117.361C324.679 117.337 324.687 117.31 324.696 117.281C324.741 117.14 324.806 116.933 324.889 116.669C325.055 116.14 325.29 115.384 325.568 114.474C326.123 112.654 326.847 110.22 327.524 107.76C328.202 105.297 328.829 102.825 329.193 100.924C329.365 100.025 329.473 99.279 329.506 98.7312C329.235 99.0547 328.914 99.5025 328.552 100.058C327.632 101.469 326.532 103.445 325.468 105.468C324.407 107.487 323.391 109.534 322.64 111.077C322.265 111.849 321.956 112.494 321.741 112.946C321.633 113.172 321.549 113.349 321.492 113.47C321.464 113.531 321.442 113.577 321.427 113.608L321.406 113.654L321.406 113.655C321.405 113.655 321.405 113.655 320.742 113.344C320.058 113.079 320.058 113.079 320.058 113.079L320.078 113.027C320.092 112.993 320.111 112.941 320.137 112.874C320.189 112.739 320.264 112.542 320.359 112.29C320.55 111.785 320.821 111.063 321.14 110.195C321.778 108.457 322.607 106.134 323.377 103.791C324.148 101.442 324.851 99.0934 325.243 97.2956C325.426 96.457 325.533 95.7715 325.556 95.2746C325.542 95.2927 325.527 95.3115 325.512 95.3308C325.111 95.8427 324.614 96.6409 324.049 97.6601C322.924 99.6889 321.595 102.478 320.318 105.309C319.042 108.135 317.826 110.987 316.928 113.133C316.479 114.206 316.11 115.101 315.853 115.729C315.724 116.043 315.624 116.289 315.556 116.457C315.522 116.541 315.496 116.605 315.479 116.649L315.452 116.714C315.452 116.714 315.452 116.714 314.772 116.44C314.055 116.29 314.055 116.29 314.055 116.29L314.064 116.247C314.07 116.218 314.079 116.175 314.09 116.118C314.113 116.006 314.147 115.84 314.19 115.629C314.275 115.207 314.395 114.603 314.535 113.876C314.815 112.423 315.173 110.483 315.488 108.532C315.804 106.576 316.073 104.627 316.178 103.15C316.211 102.69 316.227 102.289 316.225 101.955C315.968 102.371 315.669 102.923 315.341 103.592C314.495 105.317 313.502 107.723 312.6 110.305C311.697 112.886 310.891 115.621 310.411 118.002C310.17 119.193 310.014 120.281 309.965 121.211C309.915 122.152 309.979 122.874 310.137 123.362C310.651 124.94 313.972 132.26 318.678 141.118C323.374 149.959 329.404 160.245 335.306 167.757L334.154 168.664C328.171 161.048 322.092 150.671 317.384 141.807C312.684 132.96 309.303 125.533 308.744 123.816C308.503 123.077 308.448 122.145 308.501 121.133C308.556 120.109 308.725 118.945 308.974 117.711C309.472 115.243 310.3 112.441 311.216 109.82C312.133 107.198 313.147 104.735 314.025 102.945C314.462 102.054 314.877 101.306 315.239 100.784C315.418 100.528 315.607 100.291 315.803 100.119C315.901 100.033 316.029 99.9384 316.183 99.8738C316.341 99.8076 316.572 99.7562 316.827 99.8346L316.829 99.8351C317.246 99.9642 317.428 100.323 317.504 100.523C317.591 100.75 317.636 101.014 317.661 101.273C317.711 101.799 317.695 102.487 317.64 103.254C317.53 104.799 317.253 106.8 316.935 108.766C316.883 109.088 316.83 109.41 316.776 109.729C317.451 108.155 318.205 106.426 318.982 104.705C320.263 101.866 321.612 99.0317 322.767 96.9484C323.342 95.9116 323.884 95.0315 324.358 94.4259C324.591 94.1276 324.838 93.8574 325.091 93.6711ZM316.133 101.041C316.13 101.035 316.128 101.031 316.128 101.031C316.128 101.031 316.13 101.034 316.133 101.041ZM314.772 116.44L314.055 116.29L315.452 116.714L314.772 116.44ZM326.008 94.8215C326.008 94.822 326.003 94.8249 325.995 94.8287C326.004 94.8229 326.008 94.821 326.008 94.8215ZM320.742 113.344L320.058 113.079L321.406 113.655L320.742 113.344ZM329.474 97.9964C329.474 97.9959 329.476 98.0008 329.48 98.0126C329.475 98.0028 329.473 97.9969 329.474 97.9964ZM325.326 117.72L324.628 117.496L325.771 118.303L325.326 117.72ZM334.439 112.137C334.439 112.137 334.437 112.137 334.435 112.138C334.438 112.137 334.439 112.136 334.439 112.137ZM370.833 134.007C369.99 138.443 368.669 144.44 366.888 150.624L365.479 150.217C367.245 144.087 368.556 138.136 369.393 133.732C369.812 131.531 370.111 129.721 370.289 128.472C370.378 127.846 370.436 127.37 370.464 127.059C370.478 126.9 370.482 126.804 370.482 126.759C370.481 126.726 370.479 126.761 370.492 126.822L370.493 126.823C370.497 126.844 370.524 126.969 370.624 127.097C370.684 127.174 370.8 127.287 370.985 127.343C371.182 127.402 371.362 127.367 371.488 127.311L370.891 125.971C371.022 125.912 371.205 125.877 371.405 125.937C371.594 125.994 371.713 126.11 371.776 126.19C371.885 126.328 371.916 126.469 371.923 126.504L371.924 126.506C371.945 126.604 371.947 126.699 371.947 126.748C371.948 126.866 371.939 127.019 371.924 127.189C371.893 127.538 371.831 128.044 371.74 128.68C371.558 129.955 371.255 131.788 370.833 134.007Z" fill="#001A39"/>
<path fill-rule="evenodd" clip-rule="evenodd" d="M363.37 160.558C361.121 166.025 357.924 172.631 354.176 176.945C352.574 178.789 350.685 179.566 348.7 179.546C346.752 179.526 344.78 178.74 342.952 177.6C339.299 175.322 335.975 171.48 334.134 168.607L335.368 167.815C337.131 170.566 340.311 174.225 343.727 176.355C345.434 177.419 347.138 178.063 348.715 178.079C350.255 178.095 351.74 177.513 353.07 175.982C356.651 171.86 359.774 165.445 362.015 159.999C363.13 157.288 364.018 154.837 364.627 153.065C364.932 152.179 365.166 151.463 365.325 150.97C365.404 150.723 365.464 150.532 365.504 150.403C365.524 150.338 365.539 150.289 365.549 150.257L365.56 150.22L365.563 150.211L365.563 150.209L365.563 150.209C365.563 150.209 365.563 150.209 366.265 150.421C366.967 150.633 366.967 150.633 366.967 150.634L366.962 150.647L366.95 150.687C366.94 150.721 366.924 150.772 366.903 150.839C366.862 150.972 366.801 151.167 366.72 151.418C366.559 151.92 366.321 152.646 366.013 153.543C365.397 155.335 364.499 157.814 363.37 160.558Z" fill="#001A39"/>
<path d="M40.0935 241.079L5.3073 242.822L16.612 309.836L24.8276 255.256L48.2358 253.98" fill="#001A39"/>
<path d="M119.483 266.627L92.7403 289.482L141.169 336L115.636 287.362L133.565 271.894" fill="#001A39"/>
<path d="M129.45 143.533C112.711 135.445 92.2236 137.704 81.6261 151.327C71.8165 163.941 67.4265 176.149 89.3287 230.919L42.2044 233.538C42.2044 233.538 32.8272 237.903 30.8484 256.313C28.8696 274.722 40.7716 281.934 40.7716 281.934L112.865 278.06C130.693 277.103 143.151 259.599 138.597 241.916L125.954 192.827L156.633 212.297L117.574 262.016C117.574 262.016 115.155 273.134 126.878 282.22C137.003 290.069 149.568 287.703 149.568 287.703L197.425 232.672C209.745 218.507 208.257 196.752 194.171 184.438C169.715 163.068 148.721 152.842 129.45 143.533Z" fill="#194D87"/>
<path d="M95.2174 141.534C104.943 146.871 114.653 152.523 125.214 156.066C134.991 159.349 146.783 161.374 156.809 157.904C157.164 157.783 157.018 157.288 156.655 157.35C151.202 158.242 145.977 158.982 140.429 158.498C135.105 158.036 129.868 156.774 124.815 155.054C114.481 151.529 105.298 145.719 95.452 141.134C95.1845 141.009 94.9536 141.387 95.2174 141.534Z" fill="white"/>
<path d="M75.1069 187.567C91.7397 192.148 105.342 203.456 121.546 209.16C129.875 212.095 138.798 213.778 147.64 212.81C155.859 211.911 163.507 208.709 170.675 204.715C174.98 202.316 179.161 199.689 183.361 197.111C188.169 194.162 193.053 191.29 197.74 188.154C198.044 187.948 197.777 187.475 197.45 187.655C189.348 192.152 181.595 197.283 173.621 202.004C166.395 206.285 158.78 210.085 150.44 211.563C132.495 214.743 115.269 206.578 100.047 198.021C92.1098 193.557 84.1434 189.272 75.2279 187.119C74.9384 187.049 74.8174 187.49 75.1069 187.567Z" fill="white"/>
<path d="M33.6224 244.96C42.875 241.182 52.8825 239.231 62.8753 239.319C73.4288 239.411 83.44 242.125 92.9821 246.53C101.85 250.624 110.165 255.825 119.095 259.794C128.029 263.766 137.651 266.664 147.501 266.638C158.461 266.609 168.876 262.446 178.033 256.65C178.344 256.452 178.07 255.979 177.744 256.151C168.593 261.045 159.41 265.413 148.831 265.736C138.369 266.059 128.094 262.948 118.648 258.668C109.652 254.593 101.249 249.333 92.2309 245.301C83.5096 241.402 74.3633 238.901 64.7882 238.582C54.0844 238.226 43.2488 240.207 33.4392 244.535C33.2046 244.641 33.3769 245.059 33.6224 244.96Z" fill="white"/>
<path d="M78.3172 198.512C81.945 191.705 84.7959 184.277 86.0088 176.637C87.372 168.039 86.5988 158.267 82.0402 150.652C81.879 150.385 81.3916 150.561 81.5126 150.876C83.2678 155.355 84.9095 159.687 85.4738 164.506C85.9722 168.758 85.7889 173.068 85.0671 177.282C83.8028 184.666 80.831 191.441 77.9105 198.281C77.8042 198.546 78.1743 198.784 78.3172 198.512Z" fill="white"/>
<path d="M65.3449 280.569C62.8018 272.848 60.889 265.035 60.2331 256.907C59.9143 252.957 59.8557 248.984 60.0865 245.026C60.3284 240.904 61.1419 236.913 61.6915 232.834C61.7392 232.474 61.2591 232.32 61.1382 232.68C59.874 236.381 59.5002 240.526 59.251 244.41C58.9762 248.676 59.0532 252.964 59.4306 257.222C60.1342 265.211 61.7465 273.358 64.9235 280.749C65.0225 280.987 65.4255 280.819 65.3449 280.569Z" fill="white"/>
<path d="M116.284 278.035C113.319 268.905 111.66 259.394 112.286 249.776C112.905 240.265 115.72 231.143 119.608 222.49C123.21 214.464 127.629 206.835 131.216 198.802C134.716 190.964 137.457 182.714 138.446 174.157C139.59 164.275 137.966 154.251 133.617 145.29C133.477 145 132.972 145.205 133.089 145.513C136.504 154.28 138.549 163.028 137.732 172.503C136.922 181.896 133.858 190.993 129.963 199.528C126.394 207.341 122.121 214.809 118.648 222.666C115.115 230.659 112.491 239.033 111.671 247.766C110.699 258.106 112.337 268.432 115.837 278.17C115.936 278.434 116.376 278.321 116.284 278.035Z" fill="white"/>
<path d="M166.457 268.483C163.822 256.016 163.518 243.06 166.977 230.717C170.187 219.262 176.168 208.973 181.349 198.355C184.27 192.368 187.117 186.041 188.52 179.497C188.597 179.134 188.084 178.995 187.967 179.343C185.867 185.484 183.694 191.488 180.869 197.342C178.278 202.716 175.45 207.968 172.873 213.349C167.648 224.265 163.951 235.636 163.657 247.829C163.489 254.82 164.258 261.833 166.014 268.604C166.087 268.898 166.519 268.773 166.457 268.483Z" fill="white"/>
<path fill-rule="evenodd" clip-rule="evenodd" d="M137.219 231.503C138.88 238.451 140.109 243.948 140.395 246.128C141.302 253.058 139.899 261.52 134.112 268.318C128.311 275.132 118.228 280.132 102.061 280.363L102.034 278.53C117.832 278.303 127.349 273.434 132.718 267.128C138.1 260.807 139.434 252.898 138.578 246.367C138.308 244.305 137.108 238.919 135.437 231.93C133.773 224.967 131.658 216.475 129.577 208.245C127.496 200.016 125.45 192.051 123.924 186.144C123.161 183.19 122.528 180.751 122.086 179.05C121.865 178.2 121.691 177.534 121.573 177.081L121.393 176.388C121.392 176.388 121.392 176.388 122.279 176.156C123.165 175.924 123.165 175.924 123.165 175.924L123.346 176.618C123.464 177.072 123.638 177.738 123.859 178.588C124.301 180.29 124.935 182.73 125.698 185.685C127.224 191.594 129.271 199.562 131.353 207.795C133.435 216.028 135.552 224.529 137.219 231.503Z" fill="#FDC4A0"/>
<path fill-rule="evenodd" clip-rule="evenodd" d="M26.7426 268.757L17.8125 258.557L18.9148 257.59L27.845 267.79L26.7426 268.757Z" fill="white"/>
<path fill-rule="evenodd" clip-rule="evenodd" d="M26.2188 275.804L17.285 265.603L18.3872 264.636L27.321 274.837L26.2188 275.804Z" fill="white"/>
<path fill-rule="evenodd" clip-rule="evenodd" d="M26.0684 283.389L17.1383 273.188L18.2406 272.222L27.1708 282.422L26.0684 283.389Z" fill="white"/>
<path fill-rule="evenodd" clip-rule="evenodd" d="M124.859 296.394L111.781 293.515L112.095 292.082L125.174 294.961L124.859 296.394Z" fill="white"/>
<path fill-rule="evenodd" clip-rule="evenodd" d="M128.472 302.413L115.394 299.53L115.709 298.097L128.787 300.98L128.472 302.413Z" fill="white"/>
<path fill-rule="evenodd" clip-rule="evenodd" d="M132.701 308.642L119.623 305.762L119.937 304.329L133.016 307.209L132.701 308.642Z" fill="white"/>
<path fill-rule="evenodd" clip-rule="evenodd" d="M229.349 95.5077C229.349 95.5076 229.349 95.5076 229.609 96.1933C229.87 96.8791 229.87 96.8791 229.869 96.8792L229.868 96.8796L229.784 96.9117C229.727 96.9331 229.643 96.9648 229.533 97.0062C229.313 97.0891 228.989 97.2108 228.571 97.3665C227.735 97.678 226.523 98.1254 225.021 98.6699C222.017 99.7588 217.85 101.236 213.197 102.791C203.906 105.894 192.623 109.322 184.798 110.556C174.646 112.158 159.952 112.053 147.84 111.555C141.775 111.305 136.341 110.956 132.424 110.669C130.465 110.526 128.884 110.398 127.793 110.306C127.248 110.26 126.825 110.223 126.538 110.198C126.394 110.185 126.285 110.175 126.211 110.168L126.099 110.158C126.099 110.158 126.099 110.158 126.167 109.428C126.235 108.697 126.235 108.697 126.235 108.697L126.237 108.697L126.344 108.707C126.417 108.714 126.525 108.724 126.668 108.736C126.953 108.762 127.373 108.798 127.916 108.844C129.003 108.936 130.577 109.063 132.53 109.206C136.437 109.492 141.855 109.84 147.9 110.089C160.011 110.587 174.575 110.684 184.57 109.106C192.26 107.894 203.439 104.503 212.733 101.399C217.372 99.8495 221.527 98.3763 224.522 97.2904C226.02 96.7475 227.227 96.3016 228.06 95.9914C228.476 95.8364 228.799 95.7153 229.017 95.633C229.126 95.5919 229.21 95.5605 229.265 95.5394L229.349 95.5077Z" fill="#001A39"/>
<path fill-rule="evenodd" clip-rule="evenodd" d="M223.009 75.7378L176.029 85.9856C175.923 86.0087 175.815 86.016 175.707 86.0073L122.316 81.7091L122.433 80.2466L175.77 84.5405L222.697 74.3042L223.009 75.7378Z" fill="#001A39"/>
<path d="M118.53 118.146L75.1585 124.895C63.9527 126.638 53.4542 118.957 51.7136 107.74C49.973 96.5233 57.6463 86.0145 68.852 84.2722L112.224 77.5231C123.43 75.7808 133.928 83.4616 135.669 94.6783C137.409 105.895 129.74 116.404 118.53 118.146Z" fill="#F96155"/>
<path fill-rule="evenodd" clip-rule="evenodd" d="M238.474 119.076L217.602 47.8981L219.008 47.4848L239.881 118.662L238.474 119.076Z" fill="#001A39"/>
<path fill-rule="evenodd" clip-rule="evenodd" d="M234.494 118.742L233.937 43.8485L235.403 43.8376L235.96 118.731L234.494 118.742Z" fill="#001A39"/>
<path fill-rule="evenodd" clip-rule="evenodd" d="M226.939 118.421L248.189 46.8551L249.594 47.2731L228.344 118.839L226.939 118.421Z" fill="#001A39"/>
<path d="M243.978 69.3216C243.978 69.3216 224.63 77.0134 224.425 79.0455C224.219 81.0776 242.054 76.5513 242.054 76.5513C242.054 76.5513 220.273 82.0716 220.463 84.9106C220.654 87.7497 241.995 82.5851 241.995 82.5851C241.995 82.5851 223.061 87.1371 223.567 89.9248C224.073 92.7125 242.871 89.0848 242.871 89.0848C242.871 89.0848 247.078 87.636 247.078 80.1496C247.078 72.6632 243.978 69.3216 243.978 69.3216Z" fill="#FDC4A0"/>
<path fill-rule="evenodd" clip-rule="evenodd" d="M244.515 68.8227L243.978 69.3219L243.707 68.6401L244.174 68.4548L244.515 68.8227ZM242.667 88.3773C242.685 88.3695 242.71 88.3587 242.74 88.3446C242.829 88.3027 242.965 88.2319 243.133 88.124C243.47 87.9083 243.934 87.544 244.405 86.9628C245.338 85.8112 246.345 83.7462 246.345 80.1499C246.345 76.5114 245.592 73.9044 244.857 72.2228C244.488 71.3808 244.123 70.768 243.855 70.3719C243.815 70.3121 243.777 70.2572 243.741 70.2072C243.646 70.2454 243.539 70.2886 243.421 70.3365C242.893 70.5502 242.138 70.8578 241.232 71.2333C239.418 71.9847 237 73.0068 234.577 74.0915C232.151 75.1778 229.734 76.3203 227.917 77.3131C227.006 77.811 226.267 78.2596 225.758 78.6351C225.666 78.703 225.585 78.7665 225.513 78.8254C225.887 78.8494 226.397 78.8358 227.031 78.7823C228.632 78.6473 230.809 78.2788 233.02 77.841C235.225 77.4046 237.439 76.9044 239.103 76.5129C239.935 76.3172 240.628 76.149 241.113 76.0296C241.356 75.97 241.546 75.9226 241.676 75.8902C241.741 75.8739 241.791 75.8615 241.824 75.8531L241.858 75.8446L241.862 75.8436L241.874 75.8405C241.874 75.8404 241.874 75.8404 242.054 76.5515C242.234 77.2626 242.234 77.2627 242.234 77.2627L242.231 77.2635L242.221 77.2661L242.219 77.2665L242.173 77.2783C242.132 77.2887 242.072 77.3042 241.992 77.3246C241.834 77.3655 241.601 77.4259 241.305 77.5038C240.712 77.6597 239.865 77.8857 238.848 78.1657C236.815 78.7261 234.108 79.502 231.41 80.3654C228.707 81.2305 226.035 82.1763 224.06 83.0749C223.068 83.5263 222.286 83.9504 221.769 84.3287C221.51 84.5187 221.347 84.6753 221.258 84.793C221.255 84.7964 221.253 84.7997 221.251 84.803C221.324 84.8356 221.436 84.8738 221.598 84.9091C222.106 85.0193 222.88 85.0541 223.877 85.0123C225.855 84.9295 228.502 84.5571 231.175 84.0901C233.84 83.6245 236.503 83.07 238.501 82.6314C239.499 82.4122 240.331 82.2223 240.912 82.0872C241.203 82.0196 241.431 81.9658 241.587 81.9289C241.664 81.9105 241.724 81.8963 241.763 81.8867L241.808 81.8759L241.81 81.8756L241.82 81.8732L241.82 81.873L241.822 81.8725L241.823 81.8724L241.824 81.8722C241.824 81.8721 241.824 81.8721 241.995 82.5854C242.168 83.2984 242.168 83.2985 242.167 83.2985L242.166 83.2987L242.164 83.2994L242.114 83.3114C242.079 83.32 242.026 83.3328 241.958 83.3497C241.82 83.3834 241.618 83.4333 241.361 83.4979C240.847 83.6272 240.113 83.815 239.233 84.0492C237.472 84.5178 235.134 85.1706 232.814 85.909C230.487 86.6496 228.207 87.4676 226.55 88.2635C225.717 88.6641 225.083 89.0397 224.683 89.373C224.483 89.5397 224.373 89.6701 224.32 89.7585C224.314 89.7691 224.309 89.7783 224.305 89.7863C224.352 89.8257 224.47 89.9027 224.751 89.9862C225.221 90.1264 225.921 90.2112 226.817 90.2366C228.596 90.2869 230.951 90.1001 233.324 89.8218C235.689 89.5445 238.042 89.1802 239.805 88.8848C240.686 88.7372 241.419 88.607 241.931 88.5138C242.187 88.4672 242.388 88.4298 242.525 88.4041C242.564 88.3967 242.599 88.3903 242.627 88.3849C242.642 88.3821 242.655 88.3795 242.667 88.3773ZM227.864 86.0956C227.162 86.375 226.505 86.658 225.916 86.9408C225.046 87.359 224.284 87.7964 223.745 88.2456C223.475 88.4702 223.23 88.7234 223.061 89.008C222.888 89.299 222.774 89.6599 222.846 90.0561C222.991 90.8551 223.742 91.2165 224.333 91.3924C224.987 91.5875 225.839 91.6766 226.776 91.7032C228.664 91.7567 231.104 91.5593 233.494 91.2791C235.892 90.998 238.27 90.6296 240.047 90.3319C240.936 90.183 241.676 90.0516 242.194 89.9573C242.453 89.9102 242.656 89.8723 242.795 89.8462C242.865 89.8331 242.918 89.823 242.954 89.8161L243.01 89.8055C243.01 89.8055 243.01 89.8054 242.871 89.0851L243.01 89.8055L243.061 89.7956L243.11 89.7788L242.871 89.0851C243.11 89.7788 243.11 89.7786 243.111 89.7784L243.112 89.778L243.115 89.777L243.121 89.7747C243.126 89.7729 243.132 89.7707 243.139 89.7681C243.153 89.7629 243.171 89.7561 243.193 89.7473C243.236 89.7299 243.294 89.7052 243.364 89.6719C243.506 89.6053 243.698 89.5044 243.924 89.3595C244.376 89.0696 244.963 88.6038 245.544 87.887C246.714 86.4426 247.811 84.0399 247.811 80.1499C247.811 76.302 247.013 73.495 246.199 71.6342C245.793 70.705 245.383 70.0145 245.069 69.5501C244.913 69.3179 244.78 69.1423 244.683 69.0217C244.635 68.9613 244.596 68.9147 244.567 68.8816C244.553 68.8651 244.541 68.8519 244.533 68.8421L244.521 68.8299L244.518 68.8257L244.515 68.8233C244.515 68.823 244.515 68.8227 243.978 69.3219C243.707 68.6401 243.708 68.64 243.707 68.6401L243.651 68.6626C243.614 68.6774 243.559 68.6992 243.488 68.7278C243.346 68.7849 243.137 68.8688 242.871 68.9763C242.34 69.1912 241.582 69.5004 240.671 69.8777C238.85 70.6321 236.419 71.6599 233.979 72.7521C231.543 73.8428 229.084 75.0042 227.215 76.0252C226.284 76.5342 225.477 77.0199 224.889 77.454C224.596 77.67 224.335 77.8892 224.136 78.1075C223.959 78.3021 223.733 78.6 223.695 78.972C223.649 79.4294 223.892 79.7724 224.186 79.9658C224.438 80.1313 224.744 80.2067 225.014 80.2474C225.571 80.3315 226.321 80.3146 227.154 80.2444C227.171 80.2429 227.189 80.2414 227.206 80.2399C225.832 80.7358 224.546 81.2419 223.453 81.7392C222.43 82.2046 221.542 82.6776 220.904 83.1445C220.586 83.3772 220.3 83.6303 220.091 83.9054C219.885 84.177 219.704 84.5379 219.732 84.9601C219.762 85.4074 220.011 85.7376 220.313 85.9515C220.595 86.151 220.943 86.2682 221.288 86.3431C221.984 86.4939 222.909 86.5214 223.939 86.4782C225.088 86.4301 226.435 86.2903 227.864 86.0956ZM241.995 82.5854L242.167 83.2985L241.824 81.8722L241.995 82.5854ZM242.054 76.5515L242.234 77.2627L241.874 75.8404L242.054 76.5515Z" fill="#001A39"/>
<path fill-rule="evenodd" clip-rule="evenodd" d="M55.2153 91.1416C39.7713 96.5378 19.4615 108.977 11.2273 114.533L11.2055 114.547L11.1827 114.56C4.44654 118.434 2.00509 122.65 1.54896 126.244C1.08821 129.875 2.62774 133.056 4.20177 134.874C4.24959 134.929 4.29152 134.988 4.32834 135.053C7.85097 141.3 14.5745 148.952 21.6223 156.03C28.6567 163.096 35.9607 169.538 40.594 173.358C40.9771 173.674 41.0575 174.171 40.9303 174.559C37.8825 183.849 36.1964 189.792 35.4525 193.337C35.0924 195.053 34.967 196.146 34.9909 196.769C35.0052 196.756 35.0201 196.742 35.0353 196.727C35.2436 196.527 35.4898 196.247 35.7691 195.889C36.3269 195.175 36.9757 194.208 37.6672 193.091C39.048 190.862 40.5623 188.098 41.8043 185.72C42.1183 185.119 42.7625 185.048 43.1873 185.214C43.6071 185.377 44.0242 185.849 43.8897 186.489C42.363 193.762 41.747 198.144 41.7198 200.456C41.7131 201.03 41.7434 201.448 41.7956 201.738C41.7999 201.762 41.8043 201.784 41.8087 201.805C41.8321 201.782 41.8569 201.757 41.8828 201.729C42.2602 201.325 42.7443 200.597 43.2988 199.59C43.846 198.596 44.4381 197.373 45.0385 196.014C46.239 193.296 47.4585 190.065 48.404 187.092C48.6377 186.356 49.377 186.282 49.7594 186.364C50.1441 186.447 50.7582 186.803 50.7246 187.536C50.4082 194.461 50.5417 198.391 50.9364 200.208C51.0055 200.526 51.0766 200.749 51.1399 200.899C51.2585 200.762 51.4034 200.556 51.5708 200.265C52.3785 198.864 53.3584 196.144 54.3573 192.814C55.3489 189.508 56.3387 185.674 57.1783 182.094C57.4013 181.143 58.6502 180.936 59.1739 181.75C60.6942 184.113 62.6876 187.114 64.2002 188.781C64.5766 189.196 64.8992 189.5 65.1576 189.689C65.2017 189.721 65.2406 189.747 65.2746 189.769C65.3105 189.516 65.3124 189.101 65.239 188.469C64.5223 182.299 61.3555 172.101 59.8257 168.207C58.6313 166.628 55.9837 162.958 54.5163 160.314C54.1811 159.71 53.1461 158.21 51.6396 156.12C50.1469 154.049 48.223 151.44 46.141 148.647C41.9775 143.061 37.1883 136.745 33.9658 132.524C33.5198 131.94 33.7703 131.133 34.4009 130.855L69.336 115.454L69.9268 116.796L35.4179 132.01C38.6353 136.226 43.27 142.342 47.3158 147.77C49.3996 150.565 51.3289 153.181 52.8284 155.262C54.3141 157.323 55.4105 158.904 55.7976 159.601C57.2243 162.172 59.8521 165.814 61.0248 167.362C61.084 167.44 61.1322 167.524 61.1697 167.619C62.7154 171.535 65.9546 181.926 66.695 188.3C66.7846 189.071 66.793 189.706 66.6884 190.185C66.5855 190.656 66.3013 191.224 65.6357 191.323C65.1121 191.4 64.6274 191.117 64.2944 190.875C63.9192 190.601 63.5194 190.213 63.1153 189.767C61.6664 188.171 59.8531 185.491 58.4075 183.265C57.6075 186.621 56.6866 190.151 55.7612 193.236C54.7659 196.553 53.7446 199.429 52.8405 200.998C52.6127 201.394 52.3709 201.745 52.113 202.005C51.8741 202.245 51.5025 202.527 51.0231 202.51C50.4968 202.492 50.1557 202.134 49.9583 201.805C49.7588 201.473 49.6152 201.031 49.5041 200.52C49.1055 198.684 48.9712 195.151 49.1803 189.413C48.3352 191.876 47.3523 194.404 46.379 196.607C45.7677 197.991 45.1567 199.255 44.5826 200.298C44.0159 201.328 43.4605 202.188 42.9532 202.731C42.7078 202.994 42.4092 203.253 42.0656 203.377C41.8818 203.444 41.6601 203.48 41.4227 203.431C41.1796 203.382 40.98 203.255 40.8282 203.095C40.552 202.803 40.4238 202.39 40.3531 201.998C40.2779 201.581 40.2469 201.06 40.2542 200.439C40.28 198.243 40.7926 194.439 41.9767 188.52C40.9913 190.343 39.9201 192.238 38.913 193.865C38.21 195 37.529 196.018 36.9236 196.793C36.6213 197.18 36.3275 197.519 36.0502 197.786C35.7873 198.038 35.4806 198.283 35.1493 198.402C34.9742 198.465 34.752 198.507 34.5105 198.458C34.2557 198.407 34.0481 198.268 33.8978 198.086C33.6336 197.765 33.5562 197.326 33.5319 196.938C33.4803 196.115 33.6406 194.834 34.018 193.036C34.7734 189.436 36.46 183.495 39.4636 174.327C34.7902 170.462 27.557 164.07 20.5841 157.066C13.5366 149.988 6.70153 142.232 3.07003 135.807C1.30189 133.75 -0.428204 130.182 0.0948761 126.06C0.624358 121.887 3.43746 117.328 10.4297 113.301C18.6994 107.724 39.1158 95.2128 54.7323 89.7564L55.2153 91.1416ZM65.2216 189.989C65.2215 189.989 65.2223 189.987 65.2244 189.983C65.2227 189.987 65.2217 189.989 65.2216 189.989ZM51.2562 201.109C51.2562 201.109 51.2553 201.108 51.2537 201.107C51.2554 201.108 51.2562 201.109 51.2562 201.109Z" fill="#001A39"/>
<path d="M220.687 56.5019L200.54 44.7973C195.552 41.8996 193.856 35.5063 196.751 30.5141C199.646 25.522 206.033 23.8237 211.02 26.7214L213.109 27.9355L214.296 25.8851C217.191 20.893 223.578 19.1947 228.565 22.0924C233.552 24.9901 235.249 31.3834 232.354 36.3756L220.687 56.5019Z" fill="#FFEDDC"/>
<path d="M246.506 55.3062L266.653 43.6016C271.64 40.7039 273.337 34.3106 270.442 29.3184C267.547 24.3263 261.16 22.628 256.173 25.5257L254.084 26.7398L252.897 24.6894C250.002 19.6973 243.615 17.999 238.628 20.8967C233.64 23.7944 231.944 30.1877 234.839 35.1799L246.506 55.3062Z" fill="#FFEDDC"/>
<path d="M234.608 50.3948L218.136 33.9071C214.058 29.8246 214.058 23.2112 218.136 19.1287C222.215 15.0462 228.822 15.0462 232.9 19.1287L234.608 20.838L236.282 19.1617C240.361 15.0792 246.968 15.0792 251.046 19.1617C255.125 23.2442 255.125 29.8576 251.046 33.9401L234.608 50.3948Z" fill="#F96155"/>
<path d="M109.463 36.3416C109.463 36.3416 128.124 44.6466 132.173 58.1239C136.222 71.6012 121.887 85.841 121.887 85.841L77.0858 75.7037L109.463 36.3416Z" fill="#001A39"/>
<path d="M88.0198 91.3932L79.3382 57.0271C79.3382 57.0271 67.1162 53.6969 67.4298 45.3461C67.7434 36.9952 76.5848 38.8378 76.5848 38.8378C76.5848 38.8378 78.1673 27.163 89.6914 23.8604C101.216 20.5579 110.444 32.6833 111.538 42.1812C113.154 56.2116 108.694 64.0911 94.2791 63.8765L99.9759 82.5716" fill="#FFD2A8"/>
<path fill-rule="evenodd" clip-rule="evenodd" d="M109.496 48.8671L105.907 43.1555L107.148 42.3743L110.737 48.0859L109.496 48.8671Z" fill="#001A39"/>
<path d="M85.6292 81.9308C97.4017 75.5041 81.5977 35.9624 81.5977 35.9624C95.6842 40.6509 109.046 34.3711 109.046 34.3711C109.046 34.3711 101.316 15.4802 80.5338 22.3918C59.7519 29.3035 57.9801 43.9057 57.9801 43.9057C57.9801 43.9057 36.4072 54.2483 39.9978 72.7094C43.5885 91.1706 65.8403 99.2023 65.8403 99.2023C65.8403 99.2023 76.2758 87.0359 85.6292 81.9308Z" fill="#001A39"/>
<path d="M108.76 41.3582C109.65 41.3691 110.384 40.2787 110.401 38.9226C110.417 37.5664 109.71 36.4584 108.82 36.4475C107.931 36.4367 107.196 37.527 107.18 38.8832C107.163 40.2393 107.871 41.3473 108.76 41.3582Z" fill="#001A39"/>
<path d="M102.346 42.9056C103.235 42.9164 103.969 41.8255 103.986 40.4693C104.003 39.1132 103.295 38.0051 102.406 37.9943C101.517 37.9834 100.782 39.0737 100.766 40.4299C100.749 41.786 101.457 42.8947 102.346 42.9056Z" fill="#001A39"/>
</svg>
