<svg width="606" height="468" viewBox="0 0 606 468" fill="none" xmlns="http://www.w3.org/2000/svg">
<path d="M545.299 246.041L591.079 248.381L577.193 319.922L569.588 261.419L547.538 256.929" fill="#F96155"/>
<path d="M435.129 299.906L452.435 333.823L379.941 341.381L430.295 321.9L418.745 299.02" fill="#F96155"/>
<path fill-rule="evenodd" clip-rule="evenodd" d="M510.336 148.129C498.051 132.473 479.013 131.532 456.058 142.502C429.667 155.115 410.272 190.342 401.081 210.154C397.115 218.702 395.74 228.22 397.122 237.545L408.218 312.313C408.218 312.313 416.481 317.669 432.874 312.871C447.796 308.503 449.381 299.281 449.381 299.281L442.374 229.604L467.655 189.241L471.688 169.706L473.556 170.091L468.164 196.208L464.056 227.622C462.141 242.256 471.521 256 485.859 259.566L547.303 274.851C547.303 274.851 559.017 270.779 564.066 255.666C569.242 240.167 558.886 232.315 558.886 232.315L510.175 221.363C519.368 188.355 520.463 161.038 510.336 148.129Z" fill="#FFA574"/>
<path d="M480.91 104.795L440.506 121.637C430.066 125.991 418.069 121.063 413.712 110.631C409.351 100.201 414.281 88.2174 424.721 83.8674L465.125 67.0249C475.565 62.6712 487.562 67.5994 491.92 78.0308C496.28 88.4613 491.35 100.445 480.91 104.795Z" fill="#032349"/>
<path fill-rule="evenodd" clip-rule="evenodd" d="M383.695 66.1335C382.907 64.7842 382.307 63.6376 381.877 62.6745C381.266 61.3071 380.946 60.1998 381.011 59.3746C381.045 58.9372 381.193 58.5068 381.536 58.1882C381.877 57.8723 382.307 57.7624 382.709 57.7513C383.473 57.7302 384.411 58.057 385.381 58.5202C387.369 59.4692 389.977 61.2367 392.654 63.2567C395.342 65.2855 398.14 67.6006 400.516 69.6742L400.572 69.7228L400.617 69.7811C407.565 78.7291 420.679 100.518 426.861 111.131L455.478 79.3888L456.612 80.4091L426.593 113.707L426.067 112.801C420.133 102.572 406.546 79.9253 399.457 70.7735C397.113 68.73 394.367 66.4592 391.735 64.4729C389.07 62.462 386.564 60.7742 384.723 59.8955C383.779 59.4448 383.125 59.2647 382.751 59.2751C382.636 59.2782 382.588 59.2985 382.575 59.306C382.565 59.3208 382.541 59.3712 382.532 59.493C382.5 59.9077 382.67 60.7102 383.27 62.054C383.855 63.364 384.8 65.0868 386.182 67.2952L387.439 69.3036L385.246 68.4042C381.763 66.9762 377.865 65.483 374.429 64.336C370.954 63.1761 368.06 62.4089 366.53 62.3639C366.291 62.3569 366.118 62.3693 365.999 62.3884C366.021 62.4302 366.049 62.4806 366.087 62.5402C366.254 62.8033 366.545 63.1556 367 63.6077C368.83 65.4273 372.878 68.445 380.094 73.0915L379.437 74.4543C376.368 73.4213 368.666 71.5378 362.409 72.2082C361.635 72.2912 361.109 72.4055 360.775 72.5273C360.671 72.5653 360.596 72.5997 360.545 72.6277C360.646 72.7544 360.833 72.9265 361.127 73.1355C362.471 74.0887 365.14 75.1766 367.258 75.8963L378.05 78.6903L377.834 80.1898C374.54 80.0845 371.048 80.104 368.274 80.3391C366.883 80.4569 365.701 80.6268 364.823 80.8525C364.383 80.9656 364.045 81.0864 363.804 81.2081C363.623 81.2996 363.533 81.3734 363.492 81.4147C363.533 81.4925 363.647 81.6448 363.922 81.8643C364.528 82.3483 365.663 82.962 367.509 83.706C371.179 85.1845 377.418 87.0843 387.179 89.4987L387.559 89.5928L387.704 89.9569C391.545 99.5999 402.345 122.786 414.809 138.44C415.976 139.7 418.038 141.435 420.41 142.539C422.8 143.651 425.375 144.068 427.678 142.917C432.796 140.358 439.014 135.88 441.5 133.946C450.487 126.218 471.637 106.825 484.518 90.9447L485.704 91.9046C472.728 107.901 451.479 127.378 442.482 135.113L442.468 135.125L442.453 135.137C439.95 137.086 433.625 141.649 428.361 144.28C425.469 145.726 422.365 145.13 419.766 143.921C417.163 142.71 414.936 140.827 413.668 139.453L413.65 139.433L413.632 139.411C401.18 123.78 390.418 100.795 386.432 90.8841C376.874 88.5107 370.664 86.6204 366.939 85.1196C365.063 84.3641 363.756 83.6835 362.969 83.0547C362.579 82.7427 362.25 82.3927 362.078 81.9917C361.886 81.5448 361.907 81.0704 362.162 80.6534C362.387 80.2849 362.752 80.0308 363.115 79.8476C363.49 79.6582 363.944 79.5044 364.442 79.3763C365.44 79.1197 366.719 78.941 368.144 78.8202C369.258 78.7258 370.477 78.6655 371.748 78.6333L366.821 77.3578L366.794 77.3488C364.672 76.6293 361.794 75.4777 360.244 74.3782C359.855 74.1023 359.492 73.7902 359.252 73.4447C359.01 73.0947 358.81 72.5725 359.069 72.0224C359.297 71.5394 359.781 71.2665 360.252 71.095C360.753 70.9128 361.417 70.7814 362.246 70.6925C366.582 70.228 371.513 70.9216 375.274 71.7523C370.467 68.5309 367.488 66.2434 365.924 64.688C365.431 64.1981 365.052 63.7552 364.799 63.3568C364.561 62.9827 364.356 62.5278 364.417 62.0541C364.489 61.4857 364.893 61.1564 365.299 61.0022C365.673 60.8597 366.124 60.827 366.574 60.8403C368.367 60.8929 371.472 61.742 374.912 62.8902C377.7 63.8208 380.779 64.9732 383.695 66.1335ZM382.579 59.3009C382.579 59.301 382.578 59.3021 382.576 59.304C382.578 59.3017 382.579 59.3008 382.579 59.3009Z" fill="white"/>
<path d="M420.555 289.769C422.529 289.317 424.526 290.549 425.009 292.515C425.247 293.481 425.093 294.482 424.581 295.334C424.068 296.186 423.247 296.785 422.28 297.022L422.221 297.036C420.247 297.488 418.249 296.256 417.766 294.29C417.273 292.296 418.498 290.271 420.495 289.783L420.555 289.769ZM420.299 288.655C420.273 288.661 420.247 288.666 420.221 288.672C417.605 289.314 416.008 291.952 416.652 294.565C417.289 297.152 419.885 298.743 422.473 298.151C422.499 298.145 422.525 298.139 422.551 298.133C425.166 297.491 426.764 294.854 426.12 292.241C425.483 289.653 422.886 288.062 420.299 288.655Z" fill="#001A39"/>
<path d="M408.343 231.1C410.317 230.648 412.314 231.88 412.797 233.845C413.291 235.84 412.065 237.864 410.068 238.353L410.009 238.366C408.034 238.818 406.037 237.587 405.554 235.621C405.317 234.655 405.47 233.654 405.983 232.801C406.495 231.949 407.316 231.35 408.283 231.113L408.343 231.1ZM408.087 229.985C408.061 229.991 408.035 229.997 408.009 230.003C405.393 230.645 403.796 233.282 404.44 235.896C405.077 238.483 407.673 240.074 410.261 239.482C410.287 239.476 410.313 239.47 410.339 239.464C412.954 238.822 414.552 236.184 413.908 233.571C413.271 230.984 410.674 229.393 408.087 229.985Z" fill="#001A39"/>
<path d="M433.992 206.873C435.966 206.421 437.964 207.653 438.447 209.618C438.94 211.613 437.715 213.637 435.718 214.126L435.658 214.139C433.684 214.591 431.687 213.36 431.204 211.394C430.966 210.428 431.12 209.427 431.632 208.574C432.144 207.722 432.966 207.123 433.933 206.886L433.992 206.873ZM433.736 205.758C433.71 205.764 433.684 205.77 433.658 205.776C431.043 206.418 429.445 209.055 430.089 211.669C430.727 214.256 433.323 215.847 435.91 215.255C435.936 215.249 435.962 215.243 435.989 215.237C438.604 214.595 440.201 211.958 439.558 209.344C438.924 206.756 436.327 205.165 433.736 205.758Z" fill="#001A39"/>
<path fill-rule="evenodd" clip-rule="evenodd" d="M407.171 205.748C408.152 203.588 407.191 201.041 405.027 200.059L405.5 199.018C408.238 200.26 409.456 203.485 408.213 206.221C406.97 208.956 403.742 210.172 401.003 208.929L401.476 207.888C403.638 208.869 406.188 207.91 407.171 205.748Z" fill="#001A39"/>
<path d="M452.402 151.68C454.377 151.228 456.374 152.46 456.857 154.426C457.094 155.392 456.941 156.393 456.428 157.246C455.916 158.098 455.095 158.697 454.128 158.934L454.068 158.947C452.094 159.399 450.097 158.167 449.614 156.202C449.12 154.207 450.346 152.183 452.343 151.694L452.402 151.68ZM452.146 150.566C452.12 150.572 452.094 150.578 452.068 150.584C449.453 151.226 447.856 153.863 448.499 156.476C449.137 159.064 451.733 160.655 454.321 160.063C454.347 160.057 454.373 160.051 454.399 160.045C457.014 159.403 458.611 156.765 457.968 154.152C457.334 151.564 454.738 149.973 452.146 150.566Z" fill="#001A39"/>
<path fill-rule="evenodd" clip-rule="evenodd" d="M425.566 175.798C425.197 174.313 424.098 173.198 422.739 172.746L423.101 171.661C424.818 172.232 426.21 173.643 426.677 175.524L426.677 175.525C427.396 178.445 425.611 181.392 422.689 182.109L422.552 181.554L422.689 182.109C422.689 182.109 422.689 182.109 422.689 182.109C420.564 182.63 418.421 181.827 417.137 180.231L418.029 179.515C419.045 180.778 420.739 181.41 422.415 180.999L422.415 180.999C424.724 180.432 426.134 178.105 425.566 175.798ZM425.566 175.798C425.566 175.798 425.566 175.799 425.566 175.799L426.121 175.661L425.566 175.798C425.566 175.798 425.566 175.798 425.566 175.798Z" fill="#001A39"/>
<path d="M451.209 181.68C453.183 181.228 455.18 182.46 455.663 184.426C455.901 185.392 455.747 186.393 455.235 187.245C454.723 188.098 453.901 188.696 452.934 188.933L452.875 188.947C450.901 189.399 448.903 188.167 448.421 186.201C448.183 185.235 448.336 184.234 448.849 183.382C449.361 182.529 450.183 181.931 451.149 181.694L451.209 181.68ZM450.953 180.566C450.927 180.572 450.901 180.578 450.875 180.584C448.26 181.225 446.662 183.863 447.306 186.476C447.943 189.063 450.54 190.654 453.127 190.062C453.153 190.056 453.179 190.05 453.205 190.044C455.821 189.402 457.418 186.765 456.774 184.152C456.137 181.564 453.541 179.973 450.953 180.566Z" fill="#001A39"/>
<path d="M488.639 184.974C490.613 184.522 492.61 185.754 493.093 187.72C493.331 188.686 493.177 189.687 492.665 190.539C492.152 191.392 491.331 191.99 490.364 192.227L490.304 192.241C488.33 192.693 486.333 191.461 485.85 189.495C485.357 187.501 486.582 185.476 488.579 184.988L488.639 184.974ZM488.383 183.86C488.357 183.866 488.331 183.872 488.305 183.877C485.689 184.519 484.092 187.157 484.735 189.77C485.373 192.357 487.969 193.949 490.557 193.356C490.583 193.35 490.609 193.344 490.635 193.338C493.25 192.696 494.848 190.059 494.204 187.446C493.567 184.859 490.97 183.267 488.383 183.86Z" fill="#001A39"/>
<path d="M483.966 221.769C485.94 221.317 487.937 222.549 488.42 224.514C488.914 226.509 487.688 228.533 485.691 229.022L485.632 229.035C483.657 229.487 481.661 228.256 481.178 226.29C480.94 225.324 481.093 224.323 481.606 223.47C482.118 222.618 482.939 222.019 483.906 221.782L483.966 221.769ZM483.71 220.654C483.684 220.66 483.658 220.666 483.632 220.672C481.016 221.314 479.419 223.951 480.063 226.565C480.7 229.152 483.296 230.743 485.884 230.151C485.91 230.145 485.936 230.139 485.962 230.133C488.578 229.491 490.175 226.854 489.531 224.24C488.894 221.653 486.297 220.062 483.71 220.654Z" fill="#001A39"/>
<path fill-rule="evenodd" clip-rule="evenodd" d="M561.743 235.564C559.563 236.516 558.567 239.046 559.515 241.223C560.469 243.401 563.002 244.397 565.181 243.45L565.638 244.498C562.878 245.698 559.672 244.435 558.467 241.681L558.466 241.68C557.264 238.923 558.528 235.72 561.285 234.517L561.743 235.564Z" fill="#001A39"/>
<path fill-rule="evenodd" clip-rule="evenodd" d="M470.12 247.768C469.751 247.86 469.402 247.999 469.081 248.173L468.535 247.168C468.938 246.949 469.377 246.775 469.845 246.659L469.846 246.658C472.768 245.941 475.719 247.725 476.438 250.644C476.804 252.126 476.52 253.615 475.774 254.816L474.802 254.212C475.393 253.261 475.616 252.086 475.327 250.918L475.327 250.917C474.759 248.611 472.429 247.202 470.12 247.768Z" fill="#001A39"/>
<path d="M487.692 149.38C489.666 148.928 491.663 150.16 492.146 152.126C492.64 154.12 491.415 156.145 489.417 156.633L489.358 156.647C487.384 157.099 485.387 155.867 484.904 153.901C484.666 152.935 484.82 151.934 485.332 151.082C485.845 150.229 486.666 149.631 487.633 149.394L487.692 149.38ZM487.432 148.266C487.406 148.272 487.38 148.278 487.354 148.284C484.739 148.926 483.142 151.564 483.785 154.177C484.423 156.764 487.019 158.355 489.607 157.763C489.633 157.757 489.659 157.751 489.685 157.745C492.3 157.103 493.897 154.466 493.254 151.852C492.62 149.264 490.024 147.673 487.432 148.266Z" fill="#001A39"/>
<path fill-rule="evenodd" clip-rule="evenodd" d="M512.705 198.222C513.574 198.01 514.44 198.074 515.216 198.361L512.705 198.222ZM512.705 198.222C510.397 198.789 508.987 201.116 509.555 203.423C510.036 205.369 511.77 206.677 513.688 206.697L513.677 207.84C511.248 207.815 509.053 206.16 508.444 203.697L508.443 203.696C507.725 200.776 509.51 197.829 512.432 197.112L512.432 197.112C513.527 196.844 514.627 196.924 515.614 197.289L515.216 198.361" fill="#001A39"/>
<path fill-rule="evenodd" clip-rule="evenodd" d="M516.771 266.489C516.203 264.183 513.873 262.774 511.564 263.341L511.563 263.341C510.353 263.635 509.387 264.418 508.829 265.429L507.826 264.877C508.534 263.597 509.758 262.603 511.291 262.23C514.213 261.513 517.163 263.296 517.882 266.215C517.984 266.619 518.032 267.023 518.041 267.419L516.897 267.443C516.89 267.124 516.851 266.805 516.772 266.492L516.771 266.489L516.771 266.489Z" fill="#001A39"/>
<path fill-rule="evenodd" clip-rule="evenodd" d="M513.581 166.288C513.061 164.175 514.204 162.038 516.177 161.262L513.581 166.288ZM513.581 166.288C514.032 168.117 515.59 169.382 517.369 169.544L517.265 170.683C515.014 170.477 513.041 168.877 512.47 166.561L512.47 166.561C511.811 163.885 513.259 161.182 515.758 160.199L516.177 161.262" fill="#001A39"/>
<path d="M428.004 259.692C429.978 259.24 431.975 260.471 432.458 262.437C432.952 264.432 431.726 266.456 429.729 266.945L429.67 266.958C427.696 267.41 425.698 266.178 425.215 264.213C424.978 263.247 425.131 262.246 425.644 261.393C426.156 260.541 426.977 259.942 427.944 259.705L428.004 259.692ZM427.748 258.577C427.722 258.583 427.696 258.589 427.67 258.595C425.054 259.237 423.457 261.874 424.101 264.487C424.738 267.075 427.335 268.666 429.922 268.074C429.948 268.068 429.974 268.062 430 268.056C432.616 267.414 434.213 264.776 433.569 262.163C432.936 259.575 430.339 257.984 427.748 258.577Z" fill="#001A39"/>
<path fill-rule="evenodd" clip-rule="evenodd" d="M443.688 241.634C441.326 241.875 439.607 243.987 439.849 246.347C440.09 248.707 442.205 250.424 444.568 250.184L444.684 251.321C441.694 251.626 439.016 249.452 438.71 246.463C438.404 243.476 440.579 240.802 443.571 240.497L443.688 241.634Z" fill="#001A39"/>
<path fill-rule="evenodd" clip-rule="evenodd" d="M406.45 271.087C406.114 268.739 403.933 267.106 401.581 267.441L401.419 266.309C404.396 265.885 407.158 267.952 407.583 270.926C408.008 273.9 405.94 276.658 402.963 277.082L402.801 275.95C405.151 275.616 406.786 273.437 406.45 271.087Z" fill="#001A39"/>
<path d="M506.866 239.068C508.84 238.616 510.838 239.848 511.321 241.814C511.814 243.808 510.589 245.833 508.592 246.321L508.532 246.335C506.558 246.787 504.561 245.555 504.078 243.589C503.84 242.623 503.994 241.622 504.506 240.77C505.019 239.917 505.84 239.319 506.807 239.082L506.866 239.068ZM506.61 237.954C506.584 237.96 506.558 237.966 506.532 237.972C503.917 238.613 502.32 241.251 502.963 243.864C503.601 246.451 506.197 248.043 508.784 247.45C508.811 247.444 508.837 247.438 508.863 247.432C511.478 246.791 513.075 244.153 512.432 241.54C511.794 238.953 509.198 237.361 506.61 237.954Z" fill="#001A39"/>
<path d="M533.718 231.402C535.692 230.95 537.689 232.182 538.172 234.147C538.665 236.142 537.44 238.166 535.443 238.655L535.384 238.669C533.409 239.121 531.412 237.889 530.929 235.923C530.692 234.957 530.845 233.956 531.358 233.103C531.87 232.251 532.691 231.652 533.658 231.415L533.718 231.402ZM533.458 230.288C533.432 230.294 533.406 230.3 533.38 230.306C530.764 230.948 529.167 233.585 529.811 236.199C530.448 238.786 533.045 240.377 535.632 239.785C535.658 239.779 535.684 239.773 535.71 239.767C538.326 239.125 539.923 236.488 539.279 233.874C538.645 231.286 536.049 229.695 533.458 230.288Z" fill="#001A39"/>
<path fill-rule="evenodd" clip-rule="evenodd" d="M551.873 264.095C549.546 264.566 548.039 266.833 548.512 269.162L548.512 269.162C548.818 270.672 549.882 271.836 551.229 272.34L550.828 273.411C549.127 272.775 547.778 271.302 547.391 269.389M547.39 269.388C546.792 266.441 548.7 263.571 551.646 262.975C554.596 262.378 557.47 264.284 558.067 267.228L556.946 267.454C556.474 265.13 554.204 263.624 551.873 264.095L551.873 264.095" fill="#001A39"/>
<path fill-rule="evenodd" clip-rule="evenodd" d="M446.893 275.965C444.537 276.245 442.851 278.381 443.13 280.74C443.412 283.094 445.55 284.778 447.911 284.5L448.046 285.635C445.058 285.987 442.351 283.855 441.994 280.875L441.994 280.874C441.64 277.889 443.774 275.185 446.757 274.829L446.893 275.965Z" fill="#001A39"/>
<path fill-rule="evenodd" clip-rule="evenodd" d="M441.075 309.407C440.145 307.222 437.618 306.206 435.43 307.135C433.243 308.064 432.226 310.588 433.157 312.774L432.104 313.221C430.926 310.455 432.212 307.259 434.982 306.083C437.75 304.907 440.95 306.192 442.128 308.96L441.075 309.407Z" fill="#001A39"/>
<path fill-rule="evenodd" clip-rule="evenodd" d="M566.392 276.709L576.271 265.93L577.397 266.96L567.517 277.738L566.392 276.709Z" fill="#001A39"/>
<path fill-rule="evenodd" clip-rule="evenodd" d="M566.884 284.227L576.768 273.452L577.893 274.482L568.009 285.257L566.884 284.227Z" fill="#001A39"/>
<path fill-rule="evenodd" clip-rule="evenodd" d="M566.967 292.321L576.847 281.546L577.973 282.576L568.092 293.351L566.967 292.321Z" fill="#001A39"/>
<path fill-rule="evenodd" clip-rule="evenodd" d="M413.349 323.641L427.713 326.436L427.422 327.932L413.058 325.137L413.349 323.641Z" fill="#001A39"/>
<path fill-rule="evenodd" clip-rule="evenodd" d="M407.189 327.989L421.553 330.783L421.262 332.279L406.898 329.485L407.189 327.989Z" fill="#001A39"/>
<path d="M419.022 52.9048C421.47 61.99 430.822 67.3669 439.912 64.9255C447.947 62.7648 453.089 55.2143 452.481 47.2172C452.4 46.1682 452.224 45.1137 451.939 44.0607C449.493 34.9792 440.14 29.5986 431.046 32.0408C426.317 33.3115 422.591 36.448 420.449 40.4457C418.474 44.1314 417.846 48.5526 419.022 52.9048Z" fill="#FDC4A0"/>
<path d="M415.616 34.662C416.632 38.437 420.519 40.6709 424.293 39.6542C427.632 38.7564 429.765 35.6211 429.514 32.2966C429.481 31.8624 429.407 31.4218 429.287 30.984C428.272 27.2128 424.384 24.9752 420.61 25.9919C418.645 26.52 417.098 27.8245 416.207 29.483C415.386 31.0199 415.126 32.8544 415.616 34.662Z" fill="#AF687D"/>
<path d="M426.43 29.6985C427.048 31.9968 429.416 33.3586 431.716 32.7419C433.751 32.1939 435.05 30.2856 434.898 28.2599C434.876 27.9951 434.834 27.7271 434.762 27.4622C434.144 25.164 431.776 23.8021 429.476 24.4189C428.277 24.7402 427.337 25.5342 426.794 26.5459C426.292 27.4781 426.134 28.5973 426.43 29.6985Z" fill="#AF687D"/>
<path d="M421.441 53.4561C422.426 53.1915 422.908 51.8057 422.519 50.3607C422.129 48.9157 421.015 47.9588 420.031 48.2233C419.046 48.4879 418.564 49.8738 418.953 51.3187C419.343 52.7637 420.456 53.7206 421.441 53.4561Z" fill="#001A39"/>
<path d="M427.414 52.0448C428.398 51.7803 428.881 50.3944 428.491 48.9494C428.102 47.5044 426.988 46.5475 426.004 46.8121C425.019 47.0766 424.536 48.4625 424.926 49.9075C425.315 51.3525 426.429 52.3094 427.414 52.0448Z" fill="#001A39"/>
<path d="M445.963 45.6627C446.854 48.9619 450.25 50.9172 453.552 50.028C456.471 49.2422 458.338 46.5 458.117 43.5948C458.088 43.2143 458.024 42.8304 457.92 42.4475C457.029 39.1483 453.633 37.193 450.331 38.0822C448.612 38.5421 447.259 39.685 446.48 41.134C445.767 42.478 445.537 44.0829 445.963 45.6627Z" fill="#FDC4A0"/>
<path d="M421.097 39.798C421.097 39.798 427.939 41.9495 437.994 37.1797L441.396 46.8951L447.45 43.7413C447.45 43.7413 447.575 37.5739 453.66 38.1158C453.66 38.1158 451.076 26.696 443.84 26.2572C431.195 25.4932 422.303 33.3634 421.097 39.798Z" fill="#AF687D"/>
<path fill-rule="evenodd" clip-rule="evenodd" d="M423.554 52.347C423.554 52.3473 423.554 52.3476 424.305 52.4813C425.057 52.6149 425.056 52.6153 425.056 52.6156L425.056 52.6164L425.056 52.6181L425.055 52.6223L425.053 52.6338C425.051 52.6428 425.049 52.6545 425.046 52.6688C425.04 52.6973 425.032 52.7361 425.02 52.7836C424.997 52.8784 424.962 53.0092 424.91 53.1642C424.809 53.4716 424.64 53.8878 424.372 54.3099C423.828 55.1662 422.839 56.0831 421.203 56.0807L421.205 54.5564C422.164 54.5578 422.726 54.0561 423.084 53.4928C423.267 53.2051 423.387 52.9113 423.461 52.6861C423.498 52.5747 423.522 52.4836 423.537 52.4231C423.545 52.3929 423.549 52.3706 423.552 52.3575C423.553 52.351 423.554 52.3468 423.555 52.3451C423.555 52.3442 423.555 52.344 423.555 52.3444L423.555 52.3455L423.554 52.3464L423.554 52.347Z" fill="#001A39"/>
<path fill-rule="evenodd" clip-rule="evenodd" d="M334.6 73.16C334.51 70.1781 334.771 68.1456 335.185 66.7953C335.423 66.0205 335.72 65.4368 336.06 65.0267C336.353 64.6738 336.718 64.403 337.134 64.3181C337.536 64.1547 337.958 64.2728 338.265 64.4427C338.631 64.6452 339.004 64.9998 339.391 65.4972C340.171 66.4996 341.145 68.269 342.301 71.2392C344.528 76.9597 348.491 80.5025 350.117 81.5211L350.15 81.542L387.147 110.406L393.807 110.005L393.899 111.527L386.663 111.962L349.273 82.791C347.378 81.5906 343.222 77.8091 340.879 71.7914C339.744 68.8743 338.833 67.2634 338.186 66.4321C337.899 66.0631 337.691 65.8828 337.57 65.8033L337.444 65.8125C337.424 65.8212 337.351 65.8601 337.236 65.9989C337.063 66.2071 336.844 66.5905 336.644 67.2419C336.245 68.5455 335.965 70.7876 336.186 74.4451L336.271 75.8403L335.051 75.1553C332.197 73.5528 328.99 71.8617 326.14 70.5356C324.715 69.8724 323.388 69.3044 322.245 68.885C321.089 68.4607 320.169 68.2068 319.54 68.1408C319.334 68.1192 319.19 68.1214 319.095 68.1317C319.108 68.1802 319.129 68.2442 319.163 68.3263C319.27 68.5842 319.471 68.937 319.804 69.3992C321.145 71.264 324.263 74.4339 329.944 79.3924L329.085 80.6392C327.449 79.7702 324.556 78.4441 321.236 77.3158C317.909 76.185 314.205 75.2707 310.931 75.1885C310.115 75.1681 309.536 75.215 309.144 75.2993C308.86 75.3604 308.726 75.43 308.671 75.4668C308.673 75.4727 308.675 75.4795 308.677 75.4871C308.721 75.6176 308.848 75.8307 309.109 76.122C309.623 76.6951 310.47 77.3682 311.464 78.0441C312.443 78.7105 313.522 79.352 314.472 79.8691L326.42 85.9226L325.946 87.3535C322.582 86.7772 318.992 86.2926 316.101 86.1197C314.653 86.0331 313.406 86.0265 312.462 86.1186C311.989 86.1647 311.616 86.2334 311.341 86.3182C311.149 86.3777 311.04 86.4346 310.983 86.4722C311.021 86.5537 311.115 86.702 311.328 86.9203C311.87 87.4745 312.934 88.2312 314.708 89.2161C318.232 91.173 324.323 93.9061 333.943 97.6424L334.099 97.7029L354.981 119.252C357.775 121.95 362.345 126.052 366.978 129.592C369.297 131.365 371.619 132.987 373.734 134.221C375.867 135.465 377.718 136.271 379.111 136.483C386.708 137.634 393.648 137.596 405.887 134.988L406.206 136.479C393.82 139.118 386.693 139.174 378.882 137.99C377.193 137.733 375.136 136.803 372.965 135.537C370.775 134.26 368.398 132.597 366.051 130.803C361.356 127.215 356.736 123.067 353.912 120.339L353.903 120.33L333.235 99.0026C323.692 95.2923 317.567 92.5475 313.967 90.5484C312.169 89.5499 310.941 88.7057 310.236 87.9851C309.888 87.6289 309.603 87.2381 309.488 86.8125C309.359 86.3285 309.468 85.8572 309.799 85.4911C310.087 85.1722 310.495 84.9842 310.89 84.8622C311.299 84.7355 311.784 84.6531 312.313 84.6015C313.373 84.4981 314.711 84.5096 316.192 84.5981C317.805 84.6946 319.62 84.8847 321.485 85.1314L313.762 81.2183L313.752 81.213C312.765 80.6761 311.637 80.0064 310.605 79.3038C309.583 78.6085 308.612 77.8523 307.972 77.1386C307.657 76.7865 307.373 76.3918 307.232 75.9753C307.08 75.5284 307.08 74.9928 307.449 74.5356C307.774 74.1331 308.285 73.9247 308.823 73.8091C309.38 73.6892 310.093 73.6427 310.969 73.6647C314.465 73.7524 318.336 74.7201 321.727 75.8727C322.935 76.2832 324.088 76.7194 325.15 77.1519C321.763 74.0374 319.659 71.8103 318.564 70.2884C318.197 69.7779 317.922 69.3178 317.753 68.9082C317.59 68.516 317.482 68.067 317.595 67.6338C317.726 67.1331 318.099 66.8384 318.504 66.7055C318.872 66.5847 319.294 66.5823 319.699 66.6248C320.522 66.7112 321.587 67.0198 322.771 67.4542C323.968 67.8935 325.337 68.4803 326.784 69.1539C329.284 70.3172 332.043 71.751 334.6 73.16Z" fill="white"/>
<path d="M36.1818 370.317L0 372.694L12.8681 442.121L20.5249 385.292L44.8687 383.581" fill="white"/>
<path fill-rule="evenodd" clip-rule="evenodd" d="M22.7386 399.285L13.2734 388.837L14.405 387.814L23.8701 398.263L22.7386 399.285Z" fill="#F96155"/>
<path fill-rule="evenodd" clip-rule="evenodd" d="M22.3069 406.608L12.8457 396.16L13.9775 395.137L23.4387 405.586L22.3069 406.608Z" fill="#F96155"/>
<path fill-rule="evenodd" clip-rule="evenodd" d="M22.2757 414.492L12.8145 404.044L13.9462 403.022L23.4075 413.47L22.2757 414.492Z" fill="#F96155"/>
<path d="M126.918 395.9L99.4531 420.081L150.628 467.601L123.248 417.501L141.663 401.143" fill="white"/>
<path fill-rule="evenodd" clip-rule="evenodd" d="M132.998 426.73L119.336 423.952L119.64 422.459L133.302 425.237L132.998 426.73Z" fill="#F96155"/>
<path fill-rule="evenodd" clip-rule="evenodd" d="M136.859 432.922L123.198 430.144L123.502 428.651L137.164 431.428L136.859 432.922Z" fill="#F96155"/>
<path fill-rule="evenodd" clip-rule="evenodd" d="M141.36 439.323L127.702 436.545L128.007 435.052L141.664 437.83L141.36 439.323Z" fill="#F96155"/>
<path fill-rule="evenodd" clip-rule="evenodd" d="M77.9457 269.096C87.4795 253.892 111.388 250.6 128.945 258.724C149.157 268.079 169.835 279.841 195.644 301.641C210.507 314.2 215.455 332.864 199.821 351.688L150.908 409.633C150.908 409.633 137.865 412.297 127.198 404.31C124.752 402.479 122.94 400.665 121.606 398.932C127.253 396.618 131.465 393.421 134.5 389.747C140.413 382.592 141.735 373.778 140.676 366.593C140.494 365.359 140.003 363.101 139.294 360.134L163.933 328.985L126.655 312.311C125.829 309.296 125.061 306.503 124.385 304.053C123.542 300.997 122.842 298.473 122.354 296.712C122.11 295.832 121.918 295.143 121.788 294.674L121.588 293.956C121.588 293.956 121.588 293.956 120.669 294.211C119.75 294.467 119.75 294.467 119.75 294.467L119.95 295.184C120.08 295.653 120.272 296.342 120.516 297.221C121.004 298.981 121.703 301.504 122.546 304.559C124.231 310.67 126.492 318.91 128.794 327.423C131.095 335.937 133.436 344.723 135.283 351.928C136.3 355.897 137.162 359.366 137.784 362.042C138.296 364.242 138.647 365.906 138.789 366.87C139.787 373.643 138.528 381.88 133.029 388.535C130.152 392.016 126.081 395.106 120.488 397.328C115.416 399.344 109.093 400.646 101.275 400.882L101.279 401.005L37.5674 405.43C37.5674 405.43 28.1138 401.833 26.6526 383.242C25.1457 364.068 37.2699 360.261 37.2699 360.261L92.9008 355.57C66.6151 301.637 67.317 286.041 77.9457 269.096Z" fill="#032349"/>
<path fill-rule="evenodd" clip-rule="evenodd" d="M236.741 146.872C237.333 146.806 238.02 146.932 238.433 147.57C238.686 147.959 238.631 148.387 238.545 148.674C238.456 148.975 238.289 149.282 238.096 149.577C237.705 150.173 237.096 150.882 236.366 151.647C234.899 153.186 232.829 155.072 230.711 156.948C229.83 157.729 228.942 158.507 228.081 159.26C226.861 160.33 225.695 161.35 224.684 162.262C223.824 163.036 223.09 163.719 222.541 164.271C222.267 164.548 222.046 164.784 221.882 164.978C221.709 165.183 221.633 165.302 221.61 165.348L221.61 165.348C218.313 172.173 213.103 182.617 207.265 192.339C204.346 197.2 201.263 201.892 198.176 205.867C195.097 209.832 191.983 213.126 188.992 215.15C187.51 216.152 185.369 217.081 182.806 217.944C180.231 218.811 177.184 219.627 173.859 220.389C167.209 221.914 159.405 223.233 151.964 224.314C144.52 225.395 137.427 226.239 132.197 226.814C129.581 227.101 127.43 227.32 125.933 227.468C125.184 227.542 124.599 227.598 124.201 227.636C124.001 227.654 123.849 227.668 123.746 227.678L123.591 227.692C123.59 227.692 123.59 227.692 123.521 226.933C123.453 226.174 123.453 226.174 123.453 226.174L123.455 226.174L123.606 226.16C123.708 226.151 123.859 226.137 124.057 226.118C124.454 226.081 125.037 226.025 125.783 225.951C127.275 225.804 129.421 225.585 132.03 225.299C137.249 224.726 144.323 223.883 151.744 222.805C159.167 221.727 166.925 220.415 173.518 218.903C176.814 218.148 179.809 217.345 182.318 216.499C184.839 215.651 186.825 214.774 188.136 213.888C190.929 211.998 193.927 208.852 196.971 204.933C200.007 201.023 203.055 196.386 205.956 191.555C211.758 181.893 216.944 171.499 220.236 164.686C220.345 164.46 220.525 164.221 220.716 163.995C220.917 163.758 221.169 163.489 221.458 163.198C222.037 162.615 222.796 161.909 223.662 161.13C224.677 160.215 225.86 159.179 227.09 158.101C227.95 157.348 228.833 156.575 229.699 155.808C231.817 153.931 233.843 152.083 235.261 150.596C235.974 149.848 236.506 149.22 236.819 148.742C236.917 148.592 236.984 148.472 237.027 148.38C236.996 148.38 236.958 148.382 236.912 148.387C236.614 148.421 236.173 148.572 235.597 148.868C234.461 149.452 233.047 150.464 231.642 151.584C230.247 152.697 228.895 153.887 227.89 154.801C227.389 155.257 226.975 155.643 226.687 155.915C226.543 156.051 226.43 156.159 226.354 156.232C226.316 156.268 226.287 156.296 226.267 156.315L226.246 156.336L226.239 156.342C226.239 156.342 226.239 156.342 225.707 155.796C225.175 155.249 225.176 155.249 225.176 155.249L225.176 155.248L225.178 155.247L225.184 155.241L225.207 155.218C225.228 155.198 225.258 155.169 225.298 155.132C225.376 155.056 225.492 154.946 225.639 154.808C225.932 154.53 226.353 154.137 226.863 153.674C227.881 152.747 229.259 151.534 230.69 150.393C232.112 149.259 233.623 148.168 234.899 147.513C235.529 147.189 236.166 146.937 236.741 146.872ZM237.151 148.396C237.151 148.397 237.152 148.398 237.153 148.399L237.152 148.398C237.151 148.396 237.152 148.396 237.152 148.396C237.152 148.396 237.151 148.396 237.151 148.396ZM237.092 148.204C237.092 148.2 237.092 148.197 237.093 148.197C237.093 148.197 237.092 148.199 237.092 148.204Z" fill="white"/>
<path d="M206.14 164.023C225.33 164.023 240.887 148.484 240.887 129.317C240.887 110.15 225.33 94.6115 206.14 94.6115C186.95 94.6115 171.393 110.15 171.393 129.317C171.393 148.484 186.95 164.023 206.14 164.023Z" fill="#F96155"/>
<path d="M45.1319 404.942C44.8152 399.303 43.9797 392.837 40.9925 387.914C38.1007 383.147 32.0348 380.853 26.709 382.186C25.9994 382.362 26.3008 383.459 27.0104 383.28C32.4163 381.931 38.2457 384.678 40.6645 389.701C42.9077 394.349 43.7089 399.844 43.995 404.942C44.037 405.67 45.1738 405.674 45.1319 404.942Z" fill="white"/>
<path d="M37.6382 360.211C37.7489 370.904 46.7218 380.235 55.2904 385.425C61.2839 389.057 68.2006 391.651 75.3157 391.053C81.9691 390.493 87.6305 386.869 90.3735 380.696C91.9911 377.054 92.552 372.973 92.285 369.01C91.9798 364.445 90.3621 360.211 88.8475 355.94C88.6072 355.258 87.5086 355.551 87.7527 356.241C90.2134 363.183 92.4146 370.042 90.343 377.423C88.4011 384.339 83.0144 389.083 75.8497 389.864C69.1505 390.592 62.6382 388.336 56.8965 385.052C51.7005 382.08 46.9965 378.105 43.5668 373.178C40.9421 369.406 38.8209 364.883 38.7751 360.208C38.7637 359.48 37.6306 359.48 37.6382 360.211Z" fill="white"/>
<path d="M121.874 397.067C121.92 390.654 119.402 384.79 115.374 379.874C111.475 375.115 106.385 370.729 100.625 368.416C94.8793 366.111 88.5119 366.263 82.7703 368.511C76.1054 371.122 71.062 376.178 66.7434 381.73C61.3184 388.703 56.5877 396.248 52.3911 404.013C52.044 404.657 53.0244 405.229 53.3715 404.585C56.7364 398.363 60.4561 392.342 64.5611 386.577C68.5554 380.964 72.9581 375.256 78.9515 371.651C84.2735 368.447 90.7591 366.976 96.8822 368.42C102.979 369.857 108.068 373.808 112.356 378.213C117.358 383.349 120.791 389.781 120.738 397.075C120.734 397.799 121.867 397.799 121.874 397.067Z" fill="white"/>
<path d="M73.31 308.191C79.2042 309.864 85.5295 310.089 91.2597 307.665C96.6236 305.398 100.225 300.986 102.419 295.693C105.013 289.436 106.173 282.478 107.294 275.836C108.485 268.795 109.808 261.391 108.58 254.269C108.458 253.553 107.363 253.854 107.485 254.57C108.675 261.471 107.352 268.711 106.199 275.532C105.2 281.438 104.124 287.489 102.163 293.166C100.271 298.65 97.1043 303.577 91.7518 306.202C86.0789 308.984 79.5629 308.789 73.6114 307.097C72.9094 306.899 72.608 307.993 73.31 308.191Z" fill="white"/>
<path d="M79.6438 266.601C89.2005 276.946 103.308 280.532 116.966 280.932C129.315 281.29 142.474 278.954 152.225 270.899C152.79 270.434 151.981 269.634 151.424 270.099C141.913 277.952 128.987 280.151 116.966 279.8C103.598 279.411 89.807 275.932 80.4487 265.8C79.9528 265.259 79.1517 266.063 79.6438 266.601Z" fill="white"/>
<path d="M172.008 283.057C167.201 285.245 163.58 288.914 162.031 294.016C160.589 298.772 160.982 304.053 162.71 308.683C166.766 319.558 177.669 325.971 187.657 330.631C191.022 332.201 194.452 333.641 197.927 334.948C201.231 336.187 204.592 337.421 208.174 337.253C208.903 337.219 208.907 336.084 208.174 336.118C205.168 336.259 202.349 335.36 199.56 334.346C196.607 333.272 193.689 332.098 190.812 330.825C185.822 328.619 180.882 326.18 176.38 323.082C167.941 317.275 161.139 308.309 162.447 297.56C163.206 291.33 166.899 286.624 172.584 284.037C173.248 283.736 172.672 282.756 172.008 283.057Z" fill="white"/>
<path d="M179.137 375.636C170.11 376.459 160.775 378.692 153.263 383.977C144.691 390.009 140.822 399.44 139.346 409.53C139.243 410.243 140.334 410.552 140.441 409.831C141.898 399.859 145.686 390.493 154.282 384.648C161.557 379.698 170.476 377.557 179.137 376.768C179.858 376.703 179.865 375.568 179.137 375.636Z" fill="white"/>
<path d="M151.425 323.753C158.601 318.708 167.433 316.349 176.15 316.212C183.425 316.098 192.211 317.706 196.564 324.191C201.291 331.233 198.533 340.694 193.268 346.6C187.614 352.941 179.412 356.687 171.717 359.926C162.038 364.003 151.367 366.925 140.899 364.33C140.189 364.155 139.888 365.249 140.598 365.424C150.479 367.874 160.569 365.569 169.84 361.907C178.252 358.584 187.397 354.595 193.657 347.85C198.914 342.188 202.028 333.531 198.865 326.066C195.759 318.735 187.656 315.823 180.259 315.206C170.115 314.36 159.215 316.89 150.853 322.77C150.257 323.189 150.822 324.172 151.425 323.753Z" fill="white"/>
<path d="M109.259 317.261C114.912 316.48 120.648 316.718 126.209 317.908L126.547 319.147C120.306 317.735 113.823 317.542 107.504 318.686C103.247 319.456 93.5411 321.254 94.0256 327.294C94.2736 330.384 97.2493 333.12 99.4009 335.097C101.606 337.125 104.059 338.862 106.619 340.413C115.424 345.744 125.251 349.524 135.291 351.959C135.397 352.375 135.502 352.786 135.605 353.191C129.555 351.741 123.633 349.797 117.904 347.356C111.704 344.711 105.494 341.625 100.256 337.334C96.7114 334.431 90.6456 329.008 93.7358 323.918C96.6314 319.151 104.284 317.947 109.259 317.261Z" fill="white"/>
<path d="M124.99 197.094C128.58 217.529 114.907 237.004 94.4432 240.594C73.9831 244.179 54.4844 230.523 50.8906 210.083" fill="#FFA574"/>
<path d="M98.8588 171.48C99.9079 181.776 92.4037 190.97 82.0955 192.018C72.9814 192.944 64.7293 187.194 62.2152 178.735C61.8871 177.626 61.6545 176.472 61.5325 175.275C60.4833 164.983 67.9875 155.785 78.2957 154.737C83.6597 154.192 88.7221 155.956 92.4952 159.229C95.9745 162.247 98.3552 166.542 98.8588 171.48Z" fill="white"/>
<path d="M92.4915 159.229C88.4895 169.609 78.9213 177.42 67.0833 178.624C65.439 178.792 63.8138 178.823 62.2115 178.735C61.8834 177.626 61.6506 176.472 61.5285 175.275C60.4794 164.983 67.9836 155.785 78.2918 154.737C83.6596 154.192 88.7184 155.956 92.4915 159.229Z" fill="#234977"/>
<path d="M61.3702 162.876C65.3187 162.876 68.5195 159.679 68.5195 155.735C68.5195 151.791 65.3187 148.594 61.3702 148.594C57.4217 148.594 54.2207 151.791 54.2207 155.735C54.2207 159.679 57.4217 162.876 61.3702 162.876Z" fill="#617FA8"/>
<path d="M61.9941 149.002C73.2328 149.002 82.3435 139.903 82.3435 128.677C82.3435 117.452 73.2328 108.352 61.9941 108.352C50.7554 108.352 41.6445 117.452 41.6445 128.677C41.6445 139.903 50.7554 149.002 61.9941 149.002Z" fill="#234977"/>
<path d="M95.9305 174.677C96.9576 174.572 97.6574 173.184 97.4935 171.576C97.3295 169.968 96.364 168.749 95.3369 168.854C94.3097 168.958 93.6099 170.346 93.7739 171.954C93.9378 173.562 94.9033 174.781 95.9305 174.677Z" fill="#001A39"/>
<path d="M89.769 175.507C90.7962 175.403 91.4959 174.014 91.332 172.406C91.1681 170.798 90.2026 169.58 89.1754 169.684C88.1483 169.789 87.4483 171.177 87.6122 172.785C87.7762 174.393 88.7419 175.612 89.769 175.507Z" fill="#001A39"/>
<path fill-rule="evenodd" clip-rule="evenodd" d="M96.2628 178.597C96.2625 178.597 96.2622 178.597 96.1587 179.352C96.0552 180.107 96.0548 180.107 96.0545 180.107L96.0537 180.107L96.0519 180.106L96.0476 180.106L96.0354 180.104C96.0257 180.102 96.0131 180.1 95.9976 180.098C95.9668 180.093 95.9246 180.085 95.8727 180.075C95.7691 180.054 95.6256 180.021 95.4551 179.973C95.1166 179.876 94.6576 179.711 94.1883 179.439C93.2372 178.888 92.2066 177.863 92.1382 176.1L93.6631 176.041C93.7053 177.129 94.3037 177.744 94.954 178.121C95.2854 178.313 95.6201 178.434 95.8752 178.507C96.0015 178.543 96.1048 178.567 96.1737 178.581C96.2081 178.587 96.2337 178.592 96.249 178.594C96.2566 178.596 96.2617 178.597 96.2639 178.597L96.2634 178.597L96.2628 178.597ZM96.2639 178.597C96.2648 178.597 96.2653 178.597 96.2653 178.597L96.2652 178.597L96.2643 178.597L96.2639 178.597Z" fill="#001A39"/>
<path fill-rule="evenodd" clip-rule="evenodd" d="M185.277 126.68C185.575 126.624 185.923 126.615 186.258 126.755L186.258 126.755C186.671 126.929 186.852 127.29 186.913 127.592C186.97 127.872 186.943 128.17 186.894 128.434C186.796 128.972 186.555 129.64 186.245 130.358C185.619 131.808 184.628 133.65 183.598 135.443C183.037 136.418 182.461 137.386 181.92 138.279C183.199 137.222 184.695 136.026 186.236 134.879C188.345 133.31 190.569 131.809 192.447 130.892C193.381 130.437 194.281 130.099 195.068 129.993C195.846 129.888 196.7 129.991 197.263 130.672C197.534 131 197.614 131.391 197.601 131.749C197.589 132.098 197.49 132.458 197.353 132.804C197.079 133.497 196.589 134.295 195.987 135.133C194.775 136.818 192.993 138.82 191.174 140.726C190.117 141.834 189.04 142.916 188.045 143.894C188.545 143.636 189.061 143.375 189.582 143.121C191.344 142.262 193.198 141.456 194.74 141.011C195.507 140.79 196.244 140.644 196.876 140.645C197.483 140.646 198.186 140.785 198.624 141.355L198.624 141.356C198.93 141.756 198.907 142.227 198.826 142.57C198.742 142.922 198.564 143.293 198.347 143.656C197.91 144.39 197.209 145.272 196.357 146.226C194.646 148.144 192.219 150.478 189.758 152.725C187.294 154.977 184.778 157.158 182.88 158.776C181.931 159.585 181.135 160.253 180.576 160.72C180.297 160.953 180.077 161.136 179.927 161.261C179.897 161.285 179.87 161.307 179.846 161.327C179.82 161.392 179.787 161.474 179.747 161.573C179.634 161.852 179.467 162.262 179.249 162.788C178.812 163.84 178.173 165.356 177.358 167.216C175.73 170.934 173.401 176.027 170.599 181.526C165.015 192.485 157.488 205.191 149.831 211.752C148.464 212.923 146.324 214.104 143.688 215.275C141.037 216.452 137.83 217.642 134.286 218.818C127.198 221.171 118.722 223.478 110.579 225.507C102.433 227.537 94.6099 229.292 88.8235 230.539C85.9301 231.163 83.5454 231.66 81.8837 232.001C81.0528 232.172 80.4027 232.303 79.9601 232.392C79.7388 232.437 79.5693 232.471 79.4551 232.493L79.2844 232.527L79.2823 232.528C79.2818 232.528 79.2815 232.528 79.1336 231.78C78.9857 231.033 78.9859 231.032 78.9863 231.032L78.9883 231.032L79.1568 230.999C79.2701 230.976 79.4386 230.942 79.6589 230.898C80.0997 230.809 80.7478 230.678 81.5765 230.508C83.2339 230.168 85.6137 229.672 88.5016 229.049C94.2779 227.804 102.085 226.053 110.209 224.028C118.337 222.003 126.77 219.706 133.805 217.372C137.323 216.205 140.48 215.031 143.068 213.882C145.671 212.726 147.644 211.617 148.837 210.595C156.239 204.253 163.649 191.804 169.239 180.835C172.024 175.369 174.34 170.304 175.96 166.605C176.77 164.756 177.406 163.249 177.839 162.205C178.055 161.683 178.221 161.277 178.332 161.001C178.388 160.864 178.43 160.759 178.458 160.688L178.49 160.609L178.498 160.59L178.5 160.585L178.5 160.584C178.5 160.583 178.5 160.583 179.21 160.864C178.725 160.276 178.725 160.275 178.725 160.275L178.726 160.275L178.728 160.273L178.739 160.264L178.783 160.228C178.802 160.211 178.827 160.191 178.857 160.166C178.885 160.143 178.917 160.117 178.952 160.087C179.101 159.964 179.32 159.783 179.597 159.551C180.153 159.087 180.945 158.422 181.89 157.616C183.78 156.005 186.281 153.836 188.728 151.601C191.18 149.361 193.56 147.07 195.218 145.212C196.051 144.278 196.674 143.484 197.036 142.877C197.211 142.583 197.301 142.372 197.337 142.236C197.263 142.205 197.124 142.17 196.873 142.169C196.451 142.169 195.874 142.271 195.163 142.476C193.75 142.883 191.992 143.642 190.252 144.491C188.519 145.336 186.838 146.253 185.587 146.961C184.962 147.314 184.446 147.615 184.087 147.826C183.907 147.932 183.767 148.016 183.672 148.073C183.624 148.101 183.588 148.123 183.564 148.138L183.53 148.158L183.528 148.159L183.528 148.159C183.528 148.159 183.528 148.159 183.477 148.075L183.528 148.159L182.618 146.944L183.132 147.508C182.618 146.944 182.618 146.944 182.618 146.944L182.619 146.944L182.621 146.942L182.661 146.905C182.69 146.879 182.733 146.84 182.789 146.788C182.901 146.686 183.065 146.535 183.273 146.342C183.69 145.955 184.284 145.4 184.991 144.727C186.405 143.38 188.268 141.562 190.069 139.674C191.876 137.781 193.599 135.841 194.747 134.244C195.325 133.44 195.729 132.762 195.933 132.244C196.036 131.985 196.072 131.806 196.076 131.696C196.077 131.661 196.075 131.64 196.073 131.628C195.993 131.543 195.798 131.432 195.273 131.503C194.725 131.577 193.996 131.833 193.117 132.262C191.37 133.114 189.237 134.546 187.147 136.102C185.066 137.651 183.059 139.298 181.57 140.56C180.827 141.191 180.214 141.724 179.787 142.099C179.574 142.286 179.407 142.435 179.294 142.535C179.238 142.586 179.195 142.625 179.166 142.65L179.133 142.68L179.123 142.689L179.123 142.689C179.123 142.689 179.123 142.689 178.611 142.124C177.971 141.708 177.971 141.708 177.971 141.708L177.972 141.708L177.973 141.706L177.997 141.669C178.014 141.643 178.039 141.605 178.071 141.554C178.137 141.452 178.233 141.303 178.355 141.113C178.599 140.732 178.945 140.187 179.356 139.531C180.178 138.217 181.254 136.461 182.274 134.684C183.299 132.902 184.254 131.122 184.844 129.755C185.124 129.104 185.304 128.588 185.38 128.227C185.281 128.26 185.164 128.308 185.027 128.373C184.559 128.599 183.969 128.987 183.285 129.511C181.924 130.555 180.305 132.051 178.74 133.598C177.179 135.141 175.689 136.717 174.588 137.908C174.038 138.504 173.586 139.002 173.271 139.352C173.114 139.526 172.991 139.664 172.908 139.757C172.866 139.804 172.835 139.84 172.813 139.864L172.79 139.891L172.784 139.897L172.782 139.899L172.782 139.899C172.782 139.899 172.782 139.899 172.209 139.396L172.782 139.899L171.464 139.558L171.463 139.553L171.459 139.536C171.456 139.521 171.451 139.498 171.444 139.468C171.43 139.408 171.41 139.32 171.383 139.207C171.33 138.98 171.252 138.656 171.152 138.268C170.952 137.49 170.667 136.461 170.324 135.447C169.978 134.423 169.587 133.455 169.185 132.775C168.982 132.432 168.802 132.207 168.658 132.084C168.597 132.032 168.559 132.01 168.54 132.002C168.447 132.023 168.326 132.088 168.175 132.293C168.001 132.527 167.829 132.894 167.661 133.417C167.331 134.45 167.086 135.868 166.792 137.564L166.776 137.655C166.188 141.059 165.422 145.427 163.326 148.995C161.887 151.445 154.934 161.95 148.365 171.808C145.075 176.745 141.874 181.53 139.496 185.081C138.307 186.856 137.324 188.323 136.638 189.346C136.294 189.858 136.026 190.259 135.843 190.531L135.563 190.948C135.562 190.949 135.562 190.949 134.929 190.524L135.562 190.949L135.096 191.268L74.3681 204.89L74.0337 203.403L134.464 189.847L134.575 189.683C134.758 189.41 135.027 189.01 135.37 188.498C136.056 187.475 137.039 186.009 138.228 184.234C140.606 180.683 143.805 175.899 147.094 170.964C153.682 161.077 160.599 150.625 162.01 148.224C163.942 144.933 164.676 140.845 165.273 137.395L165.303 137.221C165.584 135.597 165.844 134.088 166.208 132.953C166.397 132.363 166.63 131.816 166.947 131.387C167.273 130.947 167.719 130.591 168.317 130.493L168.318 130.493C168.866 130.404 169.326 130.648 169.652 130.928C169.978 131.207 170.258 131.592 170.499 131.999C170.983 132.818 171.415 133.907 171.77 134.96C172.117 135.987 172.405 137.02 172.61 137.809C172.857 137.537 173.145 137.222 173.467 136.875C174.576 135.674 176.083 134.08 177.666 132.515C179.245 130.954 180.918 129.404 182.356 128.302C183.072 127.753 183.758 127.293 184.364 127.001C184.667 126.855 184.976 126.738 185.277 126.68ZM168.525 131.997C168.525 131.997 168.527 131.997 168.531 131.999C168.527 131.998 168.525 131.997 168.525 131.997ZM178.611 142.124L177.971 141.708L179.123 142.689L178.611 142.124ZM196.072 131.619C196.071 131.617 196.07 131.616 196.07 131.615C196.07 131.615 196.071 131.616 196.072 131.619ZM196.087 131.643C196.087 131.643 196.087 131.643 196.087 131.643L196.087 131.643ZM197.353 142.142C197.353 142.142 197.353 142.144 197.353 142.148C197.353 142.144 197.353 142.142 197.353 142.142ZM179.21 160.864L178.725 160.275L178.5 160.584L179.21 160.864Z" fill="white"/>
<path fill-rule="evenodd" clip-rule="evenodd" d="M79.2812 232.527C79.281 232.527 79.2809 232.527 79.133 231.78C78.9852 231.032 78.9852 231.032 78.9854 231.032L79.0478 231.02C79.0896 231.011 79.1521 230.999 79.2345 230.983C79.3992 230.95 79.6436 230.901 79.9617 230.837C80.598 230.708 81.5293 230.518 82.7082 230.274C85.0661 229.786 88.4143 229.078 92.3744 228.204C100.296 226.454 110.659 224.037 120.439 221.362L120.842 222.832C111.028 225.516 100.638 227.94 92.7039 229.692C88.7362 230.568 85.3814 231.277 83.0182 231.767C81.8365 232.011 80.9027 232.202 80.2641 232.33C79.9448 232.395 79.6992 232.444 79.5334 232.477C79.4505 232.494 79.3875 232.506 79.3452 232.515L79.2812 232.527Z" fill="#001A39"/>
<path fill-rule="evenodd" clip-rule="evenodd" d="M176.948 193.04L199.253 163.137L200.477 164.047L177.926 194.279L177.272 194.585L167.967 194.063L168.052 192.541L176.948 193.04Z" fill="white"/>
<path fill-rule="evenodd" clip-rule="evenodd" d="M200.91 107.886C203.357 102.513 207.337 97.2904 210.256 94.1184L211.099 94.892C208.232 98.0072 204.333 103.13 201.952 108.359C199.546 113.641 198.803 118.759 201.761 122.136C204.761 125.56 209.737 126.074 214.94 125.192C220.114 124.315 225.316 122.086 228.52 120.298L229.249 121.15C227.779 123.025 225.719 126.163 224.333 129.459C223.641 131.106 223.125 132.773 222.927 134.33C222.729 135.888 222.854 137.298 223.403 138.463C224.477 140.741 227.091 141.616 230.202 141.674C233.277 141.731 236.604 140.977 238.725 140.261L239.092 141.344C236.889 142.088 233.426 142.877 230.181 142.817C226.971 142.757 223.736 141.854 222.368 138.95C221.696 137.524 221.577 135.876 221.791 134.186C222.007 132.494 222.561 130.722 223.278 129.016C224.298 126.591 225.664 124.26 226.913 122.419C223.694 123.976 219.416 125.593 215.132 126.319C209.824 127.219 204.309 126.78 200.9 122.888C197.449 118.949 198.486 113.207 200.91 107.886Z" fill="#001A39"/>
<path fill-rule="evenodd" clip-rule="evenodd" d="M193.186 161.654C193.186 161.653 193.186 161.653 192.712 161.333C192.239 161.012 192.239 161.012 192.239 161.011L192.24 161.01L192.243 161.006L192.252 160.993C192.259 160.982 192.27 160.966 192.285 160.946C192.313 160.905 192.355 160.846 192.41 160.771C192.521 160.62 192.683 160.403 192.897 160.135C193.324 159.597 193.955 158.851 194.776 158.009C196.415 156.326 198.822 154.247 201.885 152.684C204.952 151.119 208.683 150.068 212.953 150.461C217.223 150.854 221.985 152.687 227.117 156.814L226.399 157.704C221.412 153.694 216.858 151.968 212.848 151.599C208.836 151.23 205.321 152.214 202.406 153.702C199.487 155.191 197.178 157.182 195.596 158.806C194.806 159.617 194.2 160.334 193.793 160.845C193.59 161.101 193.436 161.306 193.335 161.445C193.284 161.515 193.246 161.568 193.221 161.603C193.209 161.621 193.199 161.634 193.194 161.643L193.187 161.652L193.186 161.653L193.186 161.654Z" fill="#001A39"/>
<path fill-rule="evenodd" clip-rule="evenodd" d="M174.468 115.648C174.468 115.648 174.468 115.648 174.451 115.077C174.433 114.506 174.433 114.506 174.433 114.506L174.433 114.506L174.435 114.506L174.442 114.506C174.449 114.505 174.46 114.505 174.475 114.504C174.505 114.503 174.551 114.501 174.612 114.497C174.732 114.49 174.912 114.477 175.14 114.456C175.596 114.414 176.247 114.336 177.018 114.198C178.564 113.919 180.574 113.397 182.465 112.425C184.356 111.453 186.101 110.048 187.171 108.015C188.236 105.99 188.667 103.277 187.814 99.618L188.929 99.359C189.831 103.233 189.4 106.236 188.184 108.546C186.972 110.849 185.017 112.399 182.989 113.441C180.962 114.483 178.833 115.032 177.221 115.323C176.413 115.468 175.729 115.549 175.246 115.594C175.004 115.617 174.812 115.63 174.679 115.638C174.613 115.642 174.561 115.645 174.526 115.646C174.508 115.647 174.494 115.648 174.484 115.648L174.473 115.648L174.469 115.648L174.468 115.648Z" fill="#001A39"/>
<path fill-rule="evenodd" clip-rule="evenodd" d="M218.785 96.8973C218.786 96.897 218.786 96.8968 219.283 97.1804C219.779 97.4639 219.779 97.4639 219.779 97.4639L219.779 97.4642L219.778 97.4663L219.773 97.476C219.768 97.4849 219.76 97.4985 219.75 97.5166C219.73 97.553 219.699 97.6075 219.661 97.6786C219.584 97.8209 219.473 98.0296 219.34 98.2919C219.074 98.817 218.721 99.5546 218.373 100.404C217.667 102.124 217.016 104.221 217.083 105.931C217.116 106.776 217.322 107.474 217.732 107.988C218.134 108.491 218.783 108.884 219.842 109.027C222.013 109.32 225.739 108.537 231.845 105.708L232.327 106.745C226.202 109.582 222.212 110.501 219.689 110.16C218.401 109.986 217.459 109.479 216.837 108.7C216.225 107.933 215.978 106.969 215.939 105.975C215.863 104.007 216.597 101.717 217.314 99.9708C217.676 99.0868 218.043 98.3209 218.319 97.7759C218.457 97.5031 218.573 97.285 218.654 97.1343C218.695 97.0589 218.728 97.0004 218.75 96.9603C218.761 96.9403 218.77 96.9248 218.776 96.9142L218.783 96.9018L218.785 96.8973Z" fill="#001A39"/>
</svg>
