<svg width="540" height="357" viewBox="0 0 540 357" fill="none" xmlns="http://www.w3.org/2000/svg">
<path d="M349.639 149.851C324.806 157.466 297.524 162.528 268.902 162.528C240.281 162.528 212.998 157.466 188.166 149.851C192.918 109.454 227.253 78.1162 268.902 78.1162C310.552 78.1162 344.884 109.454 349.639 149.851Z" fill="#F96155"/>
<path d="M340.731 237.748C349.931 237.748 357.389 230.285 357.389 221.079C357.389 211.872 349.931 204.409 340.731 204.409C331.531 204.409 324.073 211.872 324.073 221.079C324.073 230.285 331.531 237.748 340.731 237.748Z" fill="#001A39"/>
<path d="M346.284 219.68C348.994 236.705 337.4 252.708 320.384 255.419C303.368 258.131 287.38 246.529 284.671 229.501" fill="#F96155"/>
<path d="M253.113 313.11L252.826 342.937L195.512 343.564L239.468 328.247L241.15 308.162" fill="#FBC73B"/>
<path fill-rule="evenodd" clip-rule="evenodd" d="M228.612 327.618L238.463 333.65L237.824 334.694L227.974 328.662L228.612 327.618Z" fill="white"/>
<path fill-rule="evenodd" clip-rule="evenodd" d="M222.853 329.142L232.707 335.17L232.069 336.215L222.215 330.186L222.853 329.142Z" fill="white"/>
<path fill-rule="evenodd" clip-rule="evenodd" d="M216.59 330.427L226.441 336.459L225.802 337.503L215.952 331.471L216.59 330.427Z" fill="white"/>
<path d="M305.794 180.198C297.742 185.661 295.641 196.617 301.1 204.672C305.926 211.794 315.042 214.263 322.654 210.967C323.651 210.533 324.623 210.003 325.556 209.37C333.605 203.91 335.71 192.951 330.251 184.896C327.41 180.703 323.088 178.126 318.455 177.383C314.183 176.7 309.653 177.582 305.794 180.198Z" fill="#FBC73B"/>
<path d="M318.458 177.382C313.39 186.533 313.528 198.141 319.797 207.392C320.669 208.678 321.626 209.868 322.653 210.967C323.65 210.532 324.623 210.003 325.556 209.369C333.605 203.91 335.709 192.951 330.25 184.896C327.412 180.706 323.088 178.126 318.458 177.382Z" fill="#001A39"/>
<path d="M339.734 204.406C343.439 204.406 346.443 201.399 346.443 197.691C346.443 193.983 343.439 190.977 339.734 190.977C336.028 190.977 333.024 193.983 333.024 197.691C333.024 201.399 336.028 204.406 339.734 204.406Z" fill="#001A39"/>
<path d="M308.166 184.966C309.553 184.025 310.197 182.554 309.606 181.682C309.015 180.809 307.411 180.864 306.024 181.804C304.638 182.745 303.993 184.215 304.584 185.088C305.175 185.961 306.779 185.906 308.166 184.966Z" fill="#001A39"/>
<path d="M311.551 190.333C312.938 189.392 313.583 187.922 312.992 187.049C312.4 186.176 310.797 186.231 309.41 187.172C308.023 188.112 307.378 189.583 307.97 190.456C308.561 191.329 310.165 191.274 311.551 190.333Z" fill="#001A39"/>
<path fill-rule="evenodd" clip-rule="evenodd" d="M314.402 184.955L315.077 188.125L313.881 188.38L313.205 185.21L314.402 184.955Z" fill="#001A39"/>
<path fill-rule="evenodd" clip-rule="evenodd" d="M308.778 179.029L311.503 180.305L310.984 181.414L308.259 180.138L308.778 179.029Z" fill="#001A39"/>
<path fill-rule="evenodd" clip-rule="evenodd" d="M301.337 187.351C301.337 187.35 301.337 187.35 301.748 186.897C302.159 186.444 302.159 186.444 302.159 186.444L302.159 186.444L302.158 186.443L302.158 186.443C302.158 186.443 302.158 186.443 302.159 186.444C302.161 186.446 302.165 186.449 302.171 186.455C302.183 186.465 302.203 186.481 302.229 186.503C302.283 186.545 302.364 186.607 302.469 186.678C302.68 186.821 302.977 186.994 303.325 187.12C304.011 187.369 304.856 187.433 305.701 186.778L306.45 187.745C305.175 188.733 303.856 188.615 302.908 188.271C302.44 188.101 302.052 187.874 301.783 187.692C301.648 187.601 301.54 187.519 301.465 187.458C301.427 187.428 301.397 187.403 301.375 187.384C301.365 187.375 301.356 187.368 301.35 187.362L301.341 187.355L301.339 187.352L301.338 187.351L301.337 187.351Z" fill="#001A39"/>
<path d="M339.189 300.998L316.858 224.806C314.121 215.472 305.711 208.944 295.998 208.617C283.946 208.21 273.71 217.37 272.771 229.4L272.138 237.538L263.722 220.103C260.367 213.156 253.425 208.657 245.715 208.439C234.718 208.13 225.412 216.51 224.561 227.487L217.748 315.32H255.725L256.526 296.435L263.064 317.606C267.205 333.239 280.75 342.267 296.674 342.291L307.24 342.307C328.843 342.337 344.636 321.915 339.189 300.998Z" fill="#194D87"/>
<path fill-rule="evenodd" clip-rule="evenodd" d="M268.854 315.303L271.827 214.29L272.744 214.317L269.771 315.33L268.854 315.303Z" fill="white"/>
<path fill-rule="evenodd" clip-rule="evenodd" d="M255.267 315.297L258.276 244.324L259.192 244.363L256.183 315.336L255.267 315.297Z" fill="white"/>
<path fill-rule="evenodd" clip-rule="evenodd" d="M304.574 315.231L307.446 244.123L308.362 244.16L305.491 315.268L304.574 315.231Z" fill="white"/>
<path d="M301.717 315.17L301.451 342.937L244.138 343.564L288.093 328.247L288.754 315.228" fill="#FBC73B"/>
<path fill-rule="evenodd" clip-rule="evenodd" d="M277.238 327.618L287.088 333.65L286.45 334.694L276.599 328.662L277.238 327.618Z" fill="white"/>
<path fill-rule="evenodd" clip-rule="evenodd" d="M271.479 329.142L281.332 335.17L280.694 336.215L270.84 330.186L271.479 329.142Z" fill="white"/>
<path fill-rule="evenodd" clip-rule="evenodd" d="M265.216 330.427L275.066 336.459L274.428 337.503L264.577 331.471L265.216 330.427Z" fill="white"/>
<path fill-rule="evenodd" clip-rule="evenodd" d="M305.221 315.614L269.315 315.776L269.31 314.858L305.217 314.696L305.221 315.614Z" fill="white"/>
<path fill-rule="evenodd" clip-rule="evenodd" d="M325.409 228.776L326.614 228.984L321.617 258.033L320.476 258.22L320.477 258.219C320.476 258.22 320.476 258.22 320.476 258.22L320.476 258.219L320.475 258.217L320.468 258.205C320.466 258.2 320.462 258.194 320.458 258.186C320.454 258.179 320.449 258.169 320.443 258.159C320.42 258.118 320.386 258.056 320.341 257.974C320.25 257.812 320.114 257.573 319.937 257.27C319.583 256.662 319.063 255.795 318.4 254.762C317.075 252.694 315.184 249.966 312.92 247.318C310.652 244.666 308.031 242.119 305.249 240.388C302.466 238.656 299.582 237.776 296.749 238.346C293.8 238.939 289.434 240.339 285.854 241.782C284.064 242.503 282.494 243.226 281.407 243.853C280.859 244.169 280.463 244.444 280.225 244.665C280.221 244.669 280.216 244.673 280.212 244.677C280.235 244.681 280.259 244.686 280.285 244.69C280.649 244.754 281.184 244.778 281.859 244.763C283.198 244.735 284.962 244.557 286.734 244.33C288.501 244.104 290.257 243.831 291.572 243.614C292.23 243.505 292.776 243.411 293.158 243.344C293.349 243.31 293.499 243.283 293.601 243.265C293.633 243.259 293.66 243.254 293.682 243.25C293.695 243.248 293.707 243.246 293.717 243.244L293.756 243.237C293.756 243.237 293.756 243.237 293.867 243.839C294.156 244.378 294.156 244.378 294.156 244.378L294.156 244.378L294.107 244.405C294.074 244.423 294.024 244.449 293.96 244.484C293.831 244.554 293.643 244.657 293.403 244.789C292.922 245.054 292.237 245.434 291.418 245.898C289.778 246.827 287.605 248.09 285.466 249.427C283.322 250.768 281.231 252.172 279.745 253.385C278.998 253.994 278.432 254.533 278.088 254.974C277.915 255.195 277.819 255.365 277.776 255.484C277.756 255.539 277.752 255.571 277.751 255.586C277.751 255.586 277.752 255.587 277.752 255.587C277.759 255.594 277.775 255.608 277.811 255.627C277.888 255.666 278.022 255.708 278.236 255.73C278.665 255.776 279.278 255.73 280.045 255.597C281.567 255.331 283.53 254.75 285.49 254.081C287.443 253.415 289.368 252.672 290.806 252.094C291.525 251.806 292.121 251.559 292.537 251.384C292.745 251.297 292.907 251.228 293.018 251.181C293.074 251.157 293.116 251.139 293.144 251.127L293.176 251.113L293.186 251.109C293.186 251.109 293.187 251.109 293.429 251.67L293.186 251.109L293.806 252.153L293.598 251.887C293.806 252.153 293.806 252.152 293.806 252.153L293.806 252.153L293.799 252.158L293.778 252.175C293.759 252.19 293.73 252.212 293.693 252.242C293.618 252.301 293.509 252.388 293.37 252.5C293.092 252.723 292.696 253.045 292.226 253.436C291.284 254.219 290.048 255.278 288.865 256.387C287.676 257.502 286.564 258.645 285.852 259.6C285.492 260.082 285.265 260.477 285.167 260.769C285.119 260.913 285.113 261 285.116 261.042C285.117 261.05 285.118 261.056 285.118 261.059C285.13 261.066 285.16 261.079 285.219 261.09C285.324 261.11 285.483 261.116 285.705 261.093C286.149 261.046 286.742 260.893 287.453 260.648C288.867 260.158 290.626 259.344 292.358 258.464C294.084 257.587 295.763 256.657 297.012 255.944C297.635 255.588 298.151 255.287 298.51 255.076C298.69 254.97 298.831 254.886 298.926 254.829C298.974 254.801 299.01 254.779 299.034 254.764L299.069 254.744L299.071 254.742C299.071 254.742 299.071 254.742 299.387 255.266C299.954 255.037 299.954 255.037 299.954 255.037L299.966 255.066C299.974 255.085 299.985 255.115 300.001 255.153C300.033 255.231 300.081 255.347 300.143 255.497C300.268 255.799 300.453 256.242 300.692 256.806C301.172 257.933 301.869 259.543 302.741 261.471C304.485 265.328 306.925 270.451 309.712 275.527C312.502 280.61 315.626 285.617 318.734 289.259C320.288 291.08 321.819 292.536 323.282 293.49C324.748 294.446 326.088 294.862 327.29 294.71C328.473 294.561 329.7 293.762 330.951 292.321C332.194 290.888 333.402 288.89 334.559 286.492C336.87 281.697 338.923 275.412 340.633 269.141C342.342 262.875 343.703 256.65 344.637 251.99C345.104 249.66 345.463 247.723 345.706 246.368C345.828 245.691 345.92 245.159 345.982 244.798C346.013 244.617 346.036 244.478 346.052 244.385C346.06 244.339 346.066 244.303 346.07 244.28L346.075 244.245C346.075 244.245 346.075 244.245 346.679 244.344C347.282 244.443 347.282 244.443 347.282 244.444L347.276 244.48C347.272 244.504 347.266 244.54 347.259 244.587C347.243 244.682 347.219 244.822 347.188 245.004C347.126 245.369 347.033 245.904 346.91 246.584C346.666 247.946 346.305 249.892 345.836 252.23C344.899 256.907 343.532 263.161 341.813 269.463C340.096 275.758 338.021 282.128 335.661 287.024C334.481 289.47 333.218 291.576 331.874 293.124C330.537 294.663 329.059 295.721 327.443 295.925C325.844 296.127 324.209 295.556 322.614 294.515C321.015 293.472 319.397 291.921 317.803 290.054C314.615 286.318 311.444 281.224 308.64 276.117C305.832 271.004 303.378 265.849 301.626 261.976C300.75 260.038 300.049 258.42 299.567 257.285C299.371 256.825 299.212 256.444 299.091 256.154C298.73 256.367 298.224 256.662 297.618 257.008C296.359 257.726 294.662 258.667 292.911 259.556C291.166 260.442 289.348 261.287 287.852 261.805C287.108 262.062 286.413 262.249 285.833 262.31C285.542 262.341 285.254 262.343 284.99 262.293C284.725 262.242 284.447 262.131 284.231 261.904C283.794 261.445 283.852 260.842 284.008 260.378C284.168 259.902 284.486 259.385 284.872 258.868C285.65 257.823 286.828 256.62 288.029 255.494C288.684 254.879 289.354 254.281 289.981 253.736C288.754 254.215 287.328 254.747 285.884 255.24C283.91 255.913 281.874 256.52 280.254 256.803C279.45 256.943 278.706 257.011 278.108 256.948C277.548 256.889 276.881 256.686 276.616 256.049C276.474 255.708 276.52 255.359 276.625 255.068C276.73 254.779 276.91 254.493 277.124 254.22C277.553 253.671 278.202 253.064 278.972 252.436C280.519 251.173 282.663 249.737 284.818 248.389C286.828 247.132 288.864 245.943 290.465 245.032C289.379 245.202 288.138 245.385 286.889 245.545C285.107 245.773 283.291 245.957 281.885 245.987C281.187 246.002 280.558 245.98 280.075 245.896C279.836 245.855 279.597 245.792 279.394 245.689C279.197 245.589 278.943 245.403 278.849 245.073C278.764 244.771 278.85 244.496 278.959 244.298C279.066 244.101 279.224 243.924 279.393 243.768C279.732 243.453 280.221 243.124 280.796 242.792C281.956 242.123 283.586 241.376 285.397 240.646C289.021 239.186 293.462 237.758 296.508 237.146C299.759 236.492 302.965 237.525 305.895 239.348C308.826 241.172 311.541 243.823 313.849 246.522C316.161 249.226 318.085 252.003 319.43 254.101C319.939 254.894 320.365 255.592 320.699 256.153L325.409 228.776ZM299.387 255.266L299.954 255.037L299.071 254.742L299.387 255.266ZM293.867 243.839L294.156 244.378L293.756 243.237L293.867 243.839Z" fill="#001A39"/>
<path fill-rule="evenodd" clip-rule="evenodd" d="M222.295 240.029L222.225 240.637L221.966 240.083L222.295 240.029ZM222.22 248.457C222.358 248.43 222.503 248.4 222.654 248.369C223.899 248.115 225.582 247.756 227.279 247.338C228.971 246.92 230.697 246.438 232.021 245.936C232.679 245.687 233.266 245.422 233.704 245.144C233.923 245.005 234.127 244.848 234.287 244.671C234.444 244.497 234.597 244.26 234.627 243.964C234.686 243.373 234.259 242.961 233.918 242.721C233.541 242.456 233.028 242.225 232.462 242.021C231.321 241.611 229.804 241.254 228.31 240.962C226.81 240.669 225.307 240.436 224.18 240.276C223.617 240.197 223.146 240.135 222.817 240.093C222.652 240.072 222.522 240.056 222.433 240.046C222.389 240.04 222.354 240.036 222.331 240.033L222.295 240.029C222.295 240.029 222.295 240.029 222.225 240.637C221.966 240.083 221.966 240.083 221.966 240.083L221.965 240.084L221.963 240.084L221.958 240.087L221.944 240.094C221.933 240.099 221.919 240.106 221.901 240.116C221.865 240.134 221.815 240.161 221.753 240.197C221.628 240.268 221.453 240.376 221.237 240.528C220.805 240.831 220.206 241.31 219.512 242.025C218.123 243.457 216.357 245.831 214.762 249.633M220.57 247.561C220.549 247.56 220.535 247.56 220.532 247.56C220.531 247.56 220.531 247.56 220.531 247.56C220.545 247.56 220.558 247.56 220.57 247.561ZM222.22 248.457C222.468 248.611 222.742 248.784 223.037 248.972C224.308 249.783 225.979 250.893 227.626 252.087C229.269 253.277 230.906 254.565 232.1 255.733C232.695 256.314 233.201 256.887 233.541 257.419C233.862 257.921 234.125 258.524 233.986 259.111C233.837 259.737 233.329 260.069 232.814 260.23C232.303 260.39 231.667 260.427 230.994 260.4C229.638 260.344 227.924 260.015 226.268 259.612C225.004 259.305 223.754 258.95 222.69 258.629C223.179 259.057 223.702 259.526 224.216 260.008C225.165 260.896 226.105 261.846 226.751 262.67C227.071 263.078 227.344 263.487 227.502 263.864C227.644 264.202 227.782 264.731 227.455 265.175L227.454 265.175C227.301 265.383 227.089 265.505 226.896 265.578C226.702 265.653 226.486 265.693 226.271 265.715C225.841 265.758 225.32 265.733 224.764 265.671C223.646 265.545 222.269 265.253 220.946 264.926C219.618 264.597 218.323 264.228 217.362 263.941C216.881 263.797 216.482 263.674 216.203 263.587C216.064 263.543 215.955 263.508 215.88 263.484C215.843 263.472 215.814 263.463 215.794 263.457L215.765 263.447L215.764 263.447C215.764 263.447 215.764 263.447 215.953 262.865C215.448 263.21 215.448 263.21 215.447 263.209L215.447 263.209L215.446 263.207L215.442 263.202L215.431 263.186C215.423 263.172 215.41 263.153 215.395 263.129C215.364 263.081 215.322 263.012 215.269 262.922C215.165 262.743 215.022 262.483 214.862 262.15C214.543 261.483 214.154 260.517 213.868 259.311C213.294 256.892 213.135 253.508 214.762 249.633M215.953 262.865L215.448 263.21L215.764 263.447L215.953 262.865ZM216.353 262.35C216.413 262.369 216.485 262.392 216.569 262.419C216.843 262.504 217.236 262.626 217.711 262.768C218.662 263.051 219.937 263.415 221.24 263.737C222.548 264.061 223.863 264.338 224.9 264.454C225.422 264.513 225.845 264.527 226.149 264.497C226.268 264.485 226.355 264.467 226.416 264.45C226.407 264.421 226.394 264.384 226.375 264.338C226.28 264.111 226.085 263.804 225.789 263.426C225.202 262.678 224.317 261.779 223.38 260.901C222.448 260.028 221.483 259.194 220.75 258.577C220.384 258.268 220.076 258.015 219.861 257.839C219.753 257.751 219.668 257.682 219.61 257.636C219.582 257.613 219.56 257.595 219.545 257.583L219.523 257.566L220.107 256.509L220.057 256.652C220.107 256.509 220.107 256.509 220.107 256.509L220.107 256.51L220.115 256.512L220.142 256.522C220.166 256.53 220.201 256.542 220.248 256.558C220.341 256.59 220.478 256.637 220.653 256.696C221.002 256.813 221.503 256.978 222.107 257.168C223.315 257.548 224.928 258.027 226.557 258.422C228.194 258.82 229.813 259.126 231.044 259.176C231.665 259.202 232.136 259.159 232.449 259.062C232.757 258.965 232.788 258.86 232.796 258.828C232.813 258.755 232.797 258.527 232.511 258.079C232.243 257.66 231.812 257.162 231.245 256.608C230.116 255.504 228.535 254.257 226.908 253.078C225.286 251.902 223.636 250.806 222.38 250.005C221.752 249.604 221.224 249.278 220.849 249.053C220.661 248.94 220.515 248.854 220.414 248.798C220.363 248.77 220.33 248.751 220.311 248.742C220.306 248.739 220.303 248.738 220.303 248.738C220.303 248.738 220.306 248.739 220.31 248.741C220.314 248.743 220.329 248.749 220.35 248.756C220.35 248.756 220.351 248.756 220.351 248.756C220.354 248.757 220.367 248.762 220.388 248.767C220.331 248.749 220.197 248.685 220.115 248.622C219.984 248.45 219.931 248.042 220.006 247.855C220.063 247.776 220.169 247.677 220.208 247.651C220.231 247.637 220.27 247.617 220.285 247.61C220.314 247.598 220.338 247.59 220.346 247.587C220.376 247.578 220.406 247.571 220.415 247.569L220.416 247.569C220.444 247.562 220.484 247.554 220.528 247.545C220.617 247.527 220.752 247.5 220.922 247.467L220.931 247.465C221.281 247.396 221.792 247.296 222.41 247.17C223.646 246.918 225.311 246.562 226.986 246.149C228.665 245.735 230.334 245.267 231.587 244.792C232.217 244.553 232.714 244.322 233.049 244.11C233.212 244.006 233.316 243.92 233.375 243.855C233.345 243.824 233.296 243.78 233.213 243.722C232.971 243.551 232.579 243.364 232.048 243.173C230.997 242.795 229.554 242.453 228.076 242.164C226.604 241.876 225.123 241.647 224.009 241.489C223.452 241.41 222.988 241.349 222.663 241.308C222.534 241.291 222.427 241.278 222.345 241.268C222.252 241.323 222.114 241.408 221.939 241.53C221.568 241.791 221.029 242.219 220.39 242.878C219.113 244.194 217.43 246.437 215.89 250.108C214.38 253.703 214.534 256.817 215.058 259.028C215.321 260.136 215.677 261.018 215.965 261.621C216.109 261.921 216.236 262.152 216.325 262.304C216.335 262.32 216.344 262.336 216.353 262.35ZM226.432 264.536C226.432 264.536 226.432 264.534 226.433 264.531C226.433 264.535 226.432 264.536 226.432 264.536ZM220.685 248.763C220.685 248.763 220.686 248.762 220.688 248.762C220.686 248.763 220.685 248.763 220.685 248.763Z" fill="#001A39"/>
<path fill-rule="evenodd" clip-rule="evenodd" d="M269.178 127.35L358.233 202.411V345.229H180.123V202.411L269.178 127.35ZM182.264 203.407V343.087H356.092V203.407L269.178 130.151L182.264 203.407Z" fill="#001A39"/>
<path d="M508.054 49.2108C508.241 57.8074 501.43 64.9258 492.837 65.1125C485.243 65.2777 478.802 59.968 477.282 52.7945C477.084 51.8519 476.968 50.8817 476.946 49.884C476.76 41.2905 483.57 34.169 492.164 33.9823C496.635 33.8844 500.702 35.6839 503.605 38.6402C506.28 41.3731 507.965 45.0915 508.054 49.2108Z" fill="#F96155"/>
<path d="M476.971 51.6683C485.519 56.7761 497.4 60.981 506.917 55.9038C507.155 55.7753 506.993 55.3866 506.733 55.4631C504.204 56.2129 501.788 57.0637 499.137 57.3086C496.555 57.5473 493.947 57.3422 491.412 56.825C486.335 55.7875 481.846 53.4464 477.167 51.3347C476.943 51.2337 476.751 51.5367 476.971 51.6683Z" fill="white"/>
<path d="M480.528 39.6625C487.971 44.1612 498.727 48.155 507.284 44.5438C507.55 44.4305 507.348 44.0572 507.1 44.1031C504.865 44.5315 502.703 45.0396 500.409 45.0855C498.011 45.1314 495.62 44.8192 493.29 44.2683C488.846 43.2125 484.873 41.1559 480.726 39.3289C480.5 39.2309 480.31 39.5309 480.528 39.6625Z" fill="white"/>
<path d="M76.7035 325.428L38.8888 290.984L24.503 339.322L76.7035 325.428Z" fill="#F96155"/>
<path d="M30.9222 317.946C37.7114 317.037 44.2805 317.395 50.6966 319.95C56.4461 322.243 61.645 326.139 67.5932 327.892C67.8501 327.969 68.0244 327.577 67.7797 327.451C64.8805 325.982 61.9202 324.633 59.0302 323.13C56.2075 321.661 53.3664 320.214 50.3847 319.087C44.1826 316.743 37.3629 316.082 30.8734 317.566C30.6624 317.612 30.702 317.973 30.9222 317.946Z" fill="white"/>
<path d="M46.2772 333.526C44.4545 328.106 43.4393 322.518 43.9408 316.786C44.1977 313.842 44.8827 310.971 45.8858 308.195C46.8613 305.496 48.2467 302.989 49.3079 300.333C49.4119 300.07 49.0082 299.929 48.8675 300.149C42.6594 309.829 41.1028 323.111 45.9225 333.679C46.0143 333.875 46.3475 333.734 46.2772 333.526Z" fill="white"/>
<path d="M495.412 278.146C473.726 297.539 440.435 295.669 421.055 273.968C401.675 252.267 403.543 218.952 425.229 199.558" fill="#F96155"/>
<path fill-rule="evenodd" clip-rule="evenodd" d="M444.478 260.563C438.371 266.258 432.502 274.255 428.269 280.634L427.505 280.126C431.749 273.73 437.666 265.661 443.852 259.892C446.944 257.008 450.129 254.675 453.228 253.424C456.336 252.169 459.399 251.988 462.181 253.481L462.181 253.481C466.484 255.793 469.138 261.322 470.765 267.981C472.4 274.673 473.031 282.652 473.179 290.06L472.261 290.078C472.115 282.698 471.485 274.796 469.874 268.199C468.254 261.57 465.677 256.401 461.747 254.29C459.277 252.964 456.513 253.087 453.572 254.275C450.621 255.467 447.532 257.715 444.478 260.563Z" fill="white"/>
<path fill-rule="evenodd" clip-rule="evenodd" d="M423.467 223.375C421.719 228.8 421.323 233.611 423.058 237.052L422.648 237.259L423.058 237.052C424.125 239.17 425.975 240.519 428.412 241.275C430.859 242.033 433.881 242.186 437.232 241.907C443.934 241.349 451.822 239.081 458.776 236.702L459.073 237.571C452.106 239.954 444.128 242.255 437.308 242.822C433.898 243.105 430.745 242.959 428.14 242.151C425.524 241.341 423.443 239.856 422.238 237.466C420.334 233.687 420.828 228.573 422.594 223.093C424.367 217.591 427.456 211.613 430.894 206.026L431.675 206.507C428.256 212.063 425.208 217.971 423.467 223.375Z" fill="white"/>
<path d="M508.477 139.423L497.016 170.968L528.539 182.438L540 150.892L508.477 139.423Z" fill="#FBC73B"/>
<path d="M48.1074 31.4843L21.3137 51.6777L41.4928 78.4904L68.2865 58.2969L48.1074 31.4843Z" fill="#FBC73B"/>
<path fill-rule="evenodd" clip-rule="evenodd" d="M33.4118 68.3488C33.6408 60.8892 33.5544 51.5087 32.3549 43.0816L33.2632 42.9521C34.4735 51.4551 34.5585 60.8958 34.3288 68.377L33.4118 68.3488Z" fill="white"/>
<path fill-rule="evenodd" clip-rule="evenodd" d="M47.1285 52.0856C45.9588 56.5396 45.8778 60.4559 47.3688 63.4122L47.3688 63.4123C48.7031 66.0597 51.2346 67.5681 54.5931 68.2337L54.4149 69.1343C50.8863 68.435 48.0535 66.8095 46.5497 63.8259C44.9091 60.5727 45.0499 56.3882 46.2412 51.8523C47.4355 47.3049 49.7056 42.3276 52.4272 37.4287L53.229 37.8748C50.5253 42.7416 48.2952 47.6432 47.1285 52.0856Z" fill="white"/>
<path d="M525.162 341.094C525.349 349.691 518.538 356.81 509.945 356.996C502.351 357.161 495.91 351.852 494.391 344.678C494.192 343.736 494.076 342.766 494.054 341.768C493.868 333.174 500.678 326.053 509.272 325.866C513.743 325.768 517.81 327.568 520.713 330.524C523.389 333.257 525.07 336.972 525.162 341.094Z" fill="#FBC73B"/>
<path d="M31.1117 170.803C31.2983 179.4 24.4877 186.518 15.8942 186.705C8.30065 186.87 1.85996 181.56 0.340026 174.387C0.141243 173.444 0.0251501 172.474 0.00374268 171.476C-0.182808 162.883 6.62775 155.761 15.2213 155.575C19.6924 155.477 23.7599 157.276 26.6621 160.232C29.3411 162.965 31.0231 166.684 31.1117 170.803Z" fill="#F96155"/>
<path fill-rule="evenodd" clip-rule="evenodd" d="M106.732 101.448C106.026 102.253 106.026 102.254 106.027 102.254L106.035 102.261L106.059 102.282C106.08 102.3 106.11 102.327 106.151 102.362C106.233 102.433 106.353 102.537 106.513 102.673C106.832 102.945 107.305 103.345 107.928 103.859C109.172 104.887 111.013 106.373 113.403 108.21C118.183 111.886 125.161 116.97 133.97 122.613C151.583 133.898 176.534 147.436 205.862 156.421C225.238 162.362 246.538 166.316 268.9 166.316C291.261 166.316 312.561 162.362 331.937 156.421C361.266 147.436 386.216 133.898 403.829 122.613C412.638 116.97 419.616 111.886 424.396 108.21C426.786 106.373 428.627 104.887 429.871 103.859C430.494 103.345 430.967 102.945 431.286 102.673C431.446 102.537 431.567 102.433 431.648 102.362L431.68 102.335C431.705 102.313 431.725 102.295 431.74 102.282L431.764 102.261L431.771 102.256L431.772 102.254C431.773 102.254 431.773 102.253 431.067 101.448L431.773 102.253L432.689 101.448L431.773 100.644L431.067 101.448C431.773 100.644 431.773 100.643 431.772 100.642L431.769 100.64L431.758 100.63L431.716 100.594C431.68 100.562 431.626 100.515 431.554 100.454C431.412 100.331 431.2 100.149 430.92 99.9132C430.361 99.4411 429.531 98.7509 428.445 97.8736C426.272 96.1191 423.072 93.6162 418.954 90.6144C410.718 84.6114 398.804 76.6101 384.082 68.6088C354.65 52.6131 313.929 36.5806 268.903 36.5806C223.876 36.5806 183.153 52.6131 153.72 68.6088C138.998 76.6101 127.083 84.6114 118.846 90.6143C114.728 93.6161 111.527 96.1191 109.355 97.8736C108.268 98.7509 107.439 99.4411 106.879 99.9131C106.6 100.149 106.387 100.331 106.245 100.454C106.173 100.515 106.119 100.562 106.083 100.594L106.041 100.63L106.027 100.642C106.026 100.643 106.026 100.644 106.732 101.448ZM108.381 101.448C108.634 101.662 108.938 101.915 109.29 102.206C110.517 103.22 112.338 104.69 114.707 106.512C119.446 110.155 126.374 115.203 135.124 120.809C152.629 132.024 177.4 145.461 206.489 154.373C225.702 160.263 246.789 164.174 268.9 164.174C291.01 164.174 312.097 160.263 331.31 154.373C360.399 145.461 385.17 132.024 402.675 120.809C411.425 115.203 418.354 110.155 423.092 106.512C425.461 104.69 427.282 103.22 428.509 102.206C428.861 101.915 429.165 101.662 429.418 101.448C428.874 100.99 428.097 100.346 427.1 99.5407C424.953 97.8064 421.781 95.3252 417.693 92.346C409.518 86.3871 397.684 78.4392 383.06 70.4913C353.8 54.5887 313.439 38.7228 268.903 38.7228C224.366 38.7228 184.004 54.5887 154.742 70.4913C140.118 78.4393 128.283 86.3871 120.107 92.346C116.019 95.3252 112.847 97.8064 110.699 99.5408C109.702 100.346 108.925 100.99 108.381 101.448ZM106.026 100.644L106.732 101.448L106.026 102.253L105.11 101.448L106.026 100.644Z" fill="#001A39"/>
<path d="M321.861 156.93C305.573 161.924 287.677 165.245 268.902 165.245C250.128 165.245 232.235 161.921 215.943 156.93C219.063 130.433 241.583 109.876 268.902 109.876C296.221 109.876 318.742 130.43 321.861 156.93Z" fill="#001A39"/>
<path fill-rule="evenodd" clip-rule="evenodd" d="M99.5367 62.5742L129.33 84.1591L128.074 85.8943L98.2814 64.3095L99.5367 62.5742Z" fill="#001A39"/>
<path fill-rule="evenodd" clip-rule="evenodd" d="M145.42 28.0957L169.898 60.6214L168.188 61.9102L143.71 29.3845L145.42 28.0957Z" fill="#001A39"/>
<path fill-rule="evenodd" clip-rule="evenodd" d="M207.195 8.54688L218.437 42.4681L216.405 43.1425L205.163 9.22123L207.195 8.54688Z" fill="#001A39"/>
<path fill-rule="evenodd" clip-rule="evenodd" d="M276.74 0.0427565L275.713 36.8224L274.184 36.7796L275.212 0L276.74 0.0427565Z" fill="#001A39"/>
<path fill-rule="evenodd" clip-rule="evenodd" d="M437.19 61.726L413.458 87.8738L411.874 86.4335L435.606 60.2856L437.19 61.726Z" fill="#001A39"/>
<path fill-rule="evenodd" clip-rule="evenodd" d="M393.554 31.8005L373.902 64.3598L372.069 63.2522L391.722 30.6929L393.554 31.8005Z" fill="#001A39"/>
<path fill-rule="evenodd" clip-rule="evenodd" d="M341.242 12.626L329.018 45.5955L327.011 44.8503L339.235 11.8809L341.242 12.626Z" fill="#001A39"/>
<path fill-rule="evenodd" clip-rule="evenodd" d="M269.178 130.41L308.982 163.961L307.603 165.599L269.178 133.211L230.753 165.599L229.374 163.961L269.178 130.41Z" fill="white"/>
<path d="M85.9514 259.095C81.939 259.095 77.9023 257.745 74.523 254.963C66.5992 248.445 65.2994 236.534 71.6177 228.362L103.762 186.784C110.081 178.61 121.625 177.269 129.549 183.788C137.473 190.307 138.773 202.218 132.455 210.389L100.31 251.97C96.6858 256.656 91.343 259.095 85.9514 259.095Z" fill="#FBC73B"/>
<path fill-rule="evenodd" clip-rule="evenodd" d="M91.2317 223.048C89.7853 218.345 87.5595 214.397 84.2288 212.092L84.7507 211.336C88.3239 213.81 90.6343 217.984 92.1085 222.778C93.5849 227.578 94.2405 233.055 94.4625 238.211C94.6847 243.371 94.4733 248.227 94.2068 251.792C94.0735 253.575 93.9263 255.036 93.8124 256.052C93.7554 256.561 93.7067 256.958 93.6721 257.228C93.6549 257.363 93.6412 257.467 93.6317 257.537C93.6301 257.549 93.6286 257.56 93.6272 257.57C93.6246 257.589 93.6225 257.605 93.6209 257.616L93.6181 257.637L93.6173 257.642L93.6171 257.644C93.6171 257.644 93.617 257.644 93.1628 257.58C92.7086 257.516 92.7086 257.516 92.7086 257.515L92.7094 257.51L92.7121 257.491C92.7144 257.474 92.7179 257.448 92.7225 257.414C92.7317 257.346 92.7451 257.245 92.7621 257.112C92.796 256.846 92.8442 256.453 92.9006 255.95C93.0135 254.943 93.1596 253.493 93.2919 251.723C93.5567 248.182 93.7661 243.363 93.5459 238.251C93.3256 233.135 92.676 227.744 91.2317 223.048Z" fill="white"/>
<path fill-rule="evenodd" clip-rule="evenodd" d="M105.93 211.14C105.547 214.222 105.806 216.944 106.884 219.148C109.054 223.582 114.406 224.928 121.199 224.449L121.263 225.365C114.429 225.847 108.502 224.543 106.06 219.552L106.06 219.552C104.877 217.132 104.623 214.213 105.019 211.027C105.416 207.839 106.466 204.35 107.928 200.761C110.851 193.584 115.446 185.942 119.869 179.399L120.629 179.914C116.22 186.436 111.665 194.017 108.777 201.108C107.333 204.653 106.313 208.06 105.93 211.14Z" fill="white"/>
</svg>
