<svg width="818" height="540" viewBox="0 0 818 540" fill="none" xmlns="http://www.w3.org/2000/svg">
<path d="M529.621 226.666C492.032 238.183 450.736 245.84 407.412 245.84C364.087 245.84 322.791 238.183 285.202 226.666C292.396 165.561 344.367 118.159 407.412 118.159C470.456 118.159 522.423 165.561 529.621 226.666Z" fill="#F96155"/>
<path d="M516.137 359.62C530.063 359.62 541.352 348.331 541.352 334.405C541.352 320.479 530.063 309.19 516.137 309.19C502.211 309.19 490.922 320.479 490.922 334.405C490.922 348.331 502.211 359.62 516.137 359.62Z" fill="#001A39"/>
<path d="M524.544 332.289C528.645 358.041 511.096 382.247 485.339 386.348C459.583 390.45 435.382 372.901 431.28 347.144" fill="#F96155"/>
<path d="M383.512 473.612L383.077 518.728L296.322 519.677L362.857 496.508L365.403 466.127" fill="#FBC73B"/>
<path fill-rule="evenodd" clip-rule="evenodd" d="M346.425 495.557L361.336 504.681L360.369 506.26L345.459 497.136L346.425 495.557Z" fill="white"/>
<path fill-rule="evenodd" clip-rule="evenodd" d="M337.708 497.862L352.623 506.981L351.658 508.561L336.742 499.441L337.708 497.862Z" fill="white"/>
<path fill-rule="evenodd" clip-rule="evenodd" d="M328.228 499.806L343.139 508.93L342.172 510.509L327.262 501.385L328.228 499.806Z" fill="white"/>
<path d="M463.254 272.569C451.066 280.832 447.886 297.404 456.149 309.588C463.453 320.36 477.253 324.096 488.775 319.11C490.284 318.453 491.756 317.652 493.168 316.694C505.352 308.435 508.537 291.858 500.274 279.675C495.973 273.333 489.432 269.435 482.419 268.31C475.952 267.278 469.096 268.611 463.254 272.569Z" fill="#FBC73B"/>
<path d="M482.422 268.31C474.752 282.151 474.96 299.709 484.45 313.703C485.769 315.647 487.218 317.448 488.773 319.11C490.282 318.453 491.755 317.652 493.167 316.693C505.35 308.435 508.536 291.858 500.273 279.674C495.977 273.337 489.431 269.434 482.422 268.31Z" fill="#001A39"/>
<path d="M514.627 309.185C520.236 309.185 524.783 304.638 524.783 299.029C524.783 293.42 520.236 288.872 514.627 288.872C509.018 288.872 504.471 293.42 504.471 299.029C504.471 304.638 509.018 309.185 514.627 309.185Z" fill="#001A39"/>
<path d="M466.844 279.78C468.943 278.357 469.919 276.132 469.024 274.812C468.129 273.492 465.702 273.575 463.603 274.998C461.503 276.421 460.527 278.645 461.422 279.965C462.318 281.286 464.745 281.203 466.844 279.78Z" fill="#001A39"/>
<path d="M471.969 287.899C474.068 286.476 475.044 284.252 474.149 282.931C473.254 281.611 470.827 281.694 468.728 283.117C466.628 284.54 465.652 286.764 466.547 288.084C467.443 289.405 469.87 289.322 471.969 287.899Z" fill="#001A39"/>
<path fill-rule="evenodd" clip-rule="evenodd" d="M476.283 279.764L477.306 284.559L475.495 284.946L474.472 280.15L476.283 279.764Z" fill="#001A39"/>
<path fill-rule="evenodd" clip-rule="evenodd" d="M467.77 270.8L471.895 272.73L471.11 274.407L466.985 272.477L467.77 270.8Z" fill="#001A39"/>
<path fill-rule="evenodd" clip-rule="evenodd" d="M456.508 283.388C456.508 283.387 456.507 283.387 457.13 282.702C457.752 282.017 457.752 282.016 457.752 282.016L457.751 282.016L457.751 282.015L457.75 282.014C457.75 282.014 457.751 282.015 457.752 282.016C457.755 282.019 457.761 282.024 457.77 282.032C457.788 282.047 457.818 282.072 457.858 282.105C457.939 282.169 458.062 282.263 458.221 282.371C458.541 282.587 458.99 282.848 459.517 283.039C460.555 283.415 461.834 283.512 463.113 282.521L464.247 283.984C462.318 285.479 460.321 285.3 458.886 284.78C458.177 284.523 457.59 284.18 457.183 283.904C456.979 283.766 456.815 283.642 456.701 283.55C456.644 283.504 456.598 283.466 456.566 283.438C456.55 283.425 456.537 283.413 456.527 283.404L456.514 283.394L456.51 283.39L456.509 283.388L456.508 283.388Z" fill="#001A39"/>
<path d="M513.804 455.29L480.002 340.043C475.859 325.924 463.129 316.05 448.426 315.555C430.183 314.939 414.689 328.794 413.268 346.992L412.31 359.3L399.57 332.928C394.492 322.42 383.984 315.615 372.314 315.286C355.668 314.819 341.581 327.494 340.294 344.098L329.98 476.955H387.465L388.678 448.388L398.575 480.413C404.843 504.058 425.346 517.714 449.449 517.751L465.443 517.774C498.143 517.821 522.048 486.93 513.804 455.29Z" fill="#194D87"/>
<path fill-rule="evenodd" clip-rule="evenodd" d="M407.338 476.929L411.838 324.135L413.226 324.176L408.726 476.97L407.338 476.929Z" fill="white"/>
<path fill-rule="evenodd" clip-rule="evenodd" d="M386.771 476.921L391.326 369.566L392.714 369.625L388.159 476.979L386.771 476.921Z" fill="white"/>
<path fill-rule="evenodd" clip-rule="evenodd" d="M461.407 476.82L465.754 369.262L467.141 369.318L462.795 476.876L461.407 476.82Z" fill="white"/>
<path d="M457.083 476.728L456.681 518.728L369.926 519.677L436.46 496.508L437.46 476.816" fill="#FBC73B"/>
<path fill-rule="evenodd" clip-rule="evenodd" d="M420.029 495.557L434.939 504.681L433.973 506.26L419.062 497.136L420.029 495.557Z" fill="white"/>
<path fill-rule="evenodd" clip-rule="evenodd" d="M411.312 497.862L426.227 506.981L425.261 508.561L410.346 499.441L411.312 497.862Z" fill="white"/>
<path fill-rule="evenodd" clip-rule="evenodd" d="M401.832 499.806L416.742 508.93L415.776 510.509L400.865 501.385L401.832 499.806Z" fill="white"/>
<path fill-rule="evenodd" clip-rule="evenodd" d="M462.386 477.399L408.036 477.644L408.029 476.255L462.38 476.01L462.386 477.399Z" fill="white"/>
<path fill-rule="evenodd" clip-rule="evenodd" d="M492.944 346.047L494.769 346.361L487.205 390.301L485.478 390.584L485.479 390.584C485.478 390.584 485.478 390.584 485.478 390.584L485.478 390.584L485.476 390.58L485.466 390.563C485.462 390.555 485.457 390.545 485.451 390.534C485.444 390.522 485.437 390.508 485.428 390.492C485.393 390.43 485.342 390.336 485.273 390.213C485.135 389.968 484.93 389.607 484.662 389.147C484.126 388.228 483.339 386.917 482.336 385.354C480.329 382.225 477.467 378.1 474.04 374.095C470.608 370.083 466.64 366.23 462.429 363.611C458.217 360.992 453.851 359.662 449.562 360.523C445.099 361.42 438.49 363.538 433.072 365.72C430.362 366.811 427.986 367.904 426.34 368.853C425.51 369.331 424.911 369.747 424.55 370.081C424.544 370.087 424.538 370.093 424.531 370.099C424.566 370.106 424.602 370.113 424.641 370.12C425.193 370.216 426.003 370.252 427.023 370.23C429.051 370.186 431.721 369.919 434.403 369.575C437.078 369.233 439.736 368.819 441.727 368.491C442.722 368.327 443.549 368.184 444.127 368.083C444.416 368.032 444.643 367.991 444.797 367.964C444.845 367.955 444.886 367.948 444.92 367.942C444.94 367.938 444.958 367.935 444.973 367.932L445.032 367.921C445.032 367.921 445.032 367.921 445.2 368.832C445.638 369.647 445.638 369.647 445.638 369.647L445.637 369.648L445.563 369.688C445.513 369.715 445.438 369.755 445.341 369.808C445.146 369.914 444.861 370.069 444.497 370.269C443.77 370.669 442.733 371.245 441.493 371.947C439.011 373.352 435.722 375.262 432.484 377.285C429.239 379.313 426.073 381.436 423.824 383.271C422.694 384.192 421.837 385.007 421.315 385.674C421.053 386.009 420.909 386.266 420.843 386.446C420.814 386.529 420.807 386.577 420.805 386.6C420.806 386.601 420.807 386.601 420.807 386.602C420.817 386.612 420.843 386.634 420.897 386.662C421.012 386.722 421.216 386.785 421.539 386.819C422.19 386.887 423.117 386.819 424.278 386.617C426.582 386.215 429.553 385.335 432.52 384.324C435.477 383.316 438.39 382.192 440.567 381.319C441.654 380.882 442.557 380.509 443.186 380.245C443.501 380.113 443.748 380.009 443.915 379.937C443.999 379.901 444.063 379.874 444.106 379.856L444.155 379.835L444.17 379.828C444.17 379.828 444.17 379.828 444.538 380.678L444.17 379.828L445.108 381.407L444.793 381.005C445.108 381.407 445.108 381.407 445.108 381.407L445.108 381.407L445.098 381.415L445.065 381.441C445.036 381.463 444.993 381.497 444.937 381.542C444.824 381.631 444.658 381.763 444.448 381.932C444.027 382.27 443.427 382.756 442.716 383.348C441.29 384.533 439.42 386.134 437.629 387.812C435.829 389.498 434.146 391.228 433.068 392.672C432.524 393.401 432.18 393.998 432.031 394.44C431.958 394.658 431.949 394.789 431.954 394.853C431.955 394.865 431.956 394.874 431.958 394.88C431.976 394.89 432.021 394.909 432.11 394.926C432.269 394.957 432.509 394.966 432.845 394.93C433.518 394.86 434.415 394.629 435.491 394.257C437.632 393.517 440.295 392.284 442.916 390.954C445.529 389.628 448.07 388.22 449.96 387.142C450.904 386.604 451.685 386.149 452.229 385.828C452.501 385.668 452.713 385.542 452.858 385.456C452.93 385.413 452.985 385.38 453.022 385.357L453.074 385.326L453.077 385.324C453.077 385.324 453.077 385.324 453.555 386.117C454.414 385.77 454.414 385.77 454.414 385.77L454.431 385.813C454.443 385.843 454.462 385.887 454.486 385.946C454.534 386.063 454.606 386.238 454.7 386.466C454.889 386.923 455.169 387.593 455.532 388.446C456.257 390.151 457.312 392.586 458.632 395.502C461.272 401.336 464.965 409.086 469.184 416.764C473.408 424.451 478.136 432.026 482.84 437.534C485.193 440.289 487.51 442.491 489.725 443.934C491.944 445.38 493.973 446.01 495.791 445.78C497.583 445.555 499.439 444.345 501.333 442.166C503.215 439.999 505.044 436.977 506.795 433.349C510.293 426.097 513.4 416.589 515.989 407.103C518.576 397.626 520.636 388.21 522.049 381.161C522.756 377.637 523.301 374.706 523.669 372.658C523.852 371.633 523.992 370.829 524.086 370.282C524.133 370.008 524.168 369.799 524.192 369.658C524.203 369.588 524.212 369.534 524.218 369.499L524.227 369.447C524.227 369.446 524.227 369.446 525.14 369.596C526.054 369.745 526.054 369.746 526.054 369.746L526.045 369.801C526.039 369.838 526.03 369.892 526.018 369.964C525.994 370.107 525.958 370.318 525.911 370.594C525.817 371.146 525.676 371.955 525.491 372.985C525.121 375.044 524.574 377.987 523.865 381.525C522.447 388.599 520.377 398.059 517.776 407.591C515.176 417.113 512.035 426.749 508.462 434.153C506.677 437.854 504.765 441.039 502.731 443.38C500.707 445.709 498.47 447.309 496.023 447.617C493.603 447.923 491.129 447.06 488.713 445.485C486.293 443.908 483.845 441.561 481.432 438.736C476.606 433.085 471.806 425.381 467.561 417.656C463.312 409.921 459.596 402.125 456.945 396.265C455.619 393.335 454.558 390.886 453.828 389.17C453.532 388.474 453.29 387.899 453.108 387.46C452.561 387.781 451.796 388.227 450.877 388.751C448.972 389.837 446.403 391.261 443.754 392.605C441.112 393.946 438.359 395.224 436.096 396.007C434.97 396.396 433.918 396.679 433.039 396.772C432.599 396.818 432.163 396.821 431.763 396.745C431.363 396.669 430.941 396.501 430.614 396.157C429.953 395.462 430.04 394.551 430.276 393.849C430.518 393.13 431 392.347 431.584 391.564C432.763 389.985 434.545 388.165 436.363 386.461C437.355 385.532 438.369 384.627 439.319 383.803C437.46 384.526 435.303 385.332 433.117 386.077C430.128 387.096 427.046 388.014 424.595 388.441C423.378 388.653 422.251 388.756 421.346 388.66C420.499 388.571 419.489 388.265 419.088 387.301C418.873 386.784 418.943 386.257 419.102 385.817C419.26 385.38 419.533 384.948 419.856 384.534C420.505 383.704 421.489 382.786 422.654 381.835C424.996 379.926 428.241 377.753 431.503 375.715C434.545 373.814 437.627 372.015 440.051 370.636C438.407 370.893 436.528 371.17 434.638 371.412C431.94 371.757 429.191 372.036 427.063 372.081C426.006 372.104 425.054 372.071 424.324 371.944C423.962 371.881 423.6 371.786 423.292 371.63C422.994 371.479 422.609 371.198 422.468 370.699C422.339 370.241 422.47 369.825 422.634 369.526C422.796 369.229 423.036 368.961 423.291 368.724C423.804 368.248 424.545 367.75 425.415 367.248C427.17 366.237 429.638 365.107 432.38 364.002C437.864 361.794 444.587 359.634 449.197 358.707C454.118 357.719 458.971 359.281 463.407 362.039C467.844 364.798 471.953 368.808 475.447 372.891C478.946 376.98 481.858 381.18 483.894 384.354C484.664 385.554 485.31 386.609 485.816 387.458L492.944 346.047ZM453.555 386.117L454.414 385.77L453.077 385.324L453.555 386.117ZM445.2 368.832L445.638 369.647L445.032 367.921L445.2 368.832Z" fill="#001A39"/>
<path fill-rule="evenodd" clip-rule="evenodd" d="M336.864 363.07L336.758 363.99L336.366 363.151L336.864 363.07ZM336.75 375.818C336.959 375.776 337.178 375.732 337.407 375.685C339.291 375.301 341.838 374.758 344.407 374.124C346.969 373.493 349.582 372.764 351.585 372.005C352.582 371.627 353.469 371.227 354.133 370.806C354.464 370.596 354.773 370.359 355.015 370.091C355.254 369.828 355.484 369.469 355.529 369.022C355.619 368.128 354.973 367.505 354.457 367.141C353.887 366.74 353.11 366.391 352.253 366.083C350.525 365.462 348.229 364.923 345.968 364.481C343.698 364.038 341.422 363.685 339.717 363.444C338.864 363.323 338.152 363.23 337.653 363.166C337.403 363.135 337.207 363.111 337.072 363.095C337.005 363.086 336.953 363.08 336.918 363.076L336.864 363.07C336.864 363.07 336.864 363.07 336.758 363.99C336.366 363.151 336.366 363.151 336.365 363.151L336.364 363.152L336.361 363.153L336.353 363.157L336.332 363.167C336.316 363.175 336.294 363.186 336.266 363.2C336.212 363.229 336.137 363.269 336.043 363.323C335.854 363.432 335.59 363.595 335.262 363.824C334.607 364.283 333.702 365.006 332.651 366.089C330.549 368.255 327.876 371.845 325.461 377.597M334.253 374.463C334.221 374.461 334.2 374.461 334.194 374.461C334.194 374.461 334.194 374.461 334.193 374.461C334.214 374.461 334.234 374.461 334.253 374.463ZM336.75 375.818C337.125 376.051 337.54 376.312 337.987 376.597C339.911 377.824 342.44 379.502 344.933 381.308C347.419 383.109 349.899 385.057 351.705 386.823C352.606 387.703 353.372 388.569 353.887 389.373C354.373 390.133 354.771 391.046 354.56 391.933C354.334 392.88 353.565 393.381 352.786 393.625C352.012 393.867 351.049 393.923 350.031 393.882C347.978 393.798 345.384 393.3 342.877 392.691C340.964 392.226 339.072 391.69 337.461 391.204C338.201 391.851 338.993 392.56 339.771 393.289C341.208 394.633 342.631 396.07 343.609 397.317C344.093 397.934 344.507 398.552 344.746 399.122C344.961 399.634 345.169 400.433 344.674 401.105L344.673 401.106C344.44 401.42 344.12 401.604 343.829 401.715C343.534 401.828 343.208 401.889 342.882 401.922C342.231 401.987 341.442 401.949 340.601 401.855C338.908 401.666 336.825 401.224 334.822 400.728C332.812 400.231 330.852 399.672 329.396 399.238C328.668 399.021 328.064 398.835 327.643 398.703C327.432 398.637 327.266 398.584 327.153 398.548C327.096 398.53 327.053 398.516 327.023 398.507L326.979 398.492L326.978 398.492C326.978 398.492 326.978 398.492 327.264 397.611C326.499 398.133 326.499 398.132 326.498 398.132L326.498 398.131L326.496 398.128L326.491 398.121L326.474 398.096C326.461 398.076 326.442 398.047 326.419 398.011C326.373 397.938 326.308 397.833 326.229 397.698C326.071 397.427 325.855 397.034 325.613 396.529C325.129 395.52 324.541 394.06 324.107 392.235C323.239 388.577 322.998 383.458 325.461 377.597M327.264 397.611L326.499 398.133L326.978 398.492L327.264 397.611ZM327.869 396.833C327.96 396.862 328.07 396.896 328.196 396.936C328.611 397.066 329.206 397.25 329.925 397.464C331.364 397.893 333.294 398.443 335.266 398.931C337.246 399.421 339.236 399.839 340.807 400.015C341.597 400.103 342.236 400.125 342.698 400.079C342.877 400.061 343.009 400.035 343.101 400.008C343.088 399.964 343.068 399.909 343.039 399.839C342.895 399.497 342.6 399.031 342.152 398.459C341.264 397.328 339.925 395.969 338.506 394.641C337.095 393.32 335.635 392.058 334.525 391.125C333.971 390.658 333.505 390.275 333.179 390.009C333.016 389.876 332.887 389.772 332.8 389.701C332.756 389.666 332.723 389.639 332.701 389.622L332.668 389.595L333.551 387.998L333.476 388.213C333.551 387.998 333.551 387.998 333.551 387.998L333.552 387.998L333.564 388.002L333.605 388.016C333.64 388.029 333.694 388.047 333.764 388.072C333.905 388.12 334.113 388.191 334.377 388.279C334.907 388.457 335.665 388.707 336.579 388.994C338.407 389.569 340.849 390.293 343.314 390.891C345.793 391.493 348.243 391.956 350.107 392.032C351.047 392.07 351.76 392.006 352.233 391.858C352.7 391.712 352.746 391.554 352.758 391.504C352.784 391.395 352.761 391.049 352.327 390.371C351.922 389.738 351.269 388.985 350.411 388.147C348.702 386.477 346.309 384.591 343.847 382.808C341.391 381.029 338.893 379.371 336.992 378.159C336.041 377.552 335.242 377.059 334.675 376.719C334.391 376.548 334.169 376.419 334.017 376.334C333.94 376.29 333.889 376.263 333.86 376.248C333.852 376.245 333.849 376.243 333.849 376.243C333.849 376.243 333.853 376.245 333.86 376.248C333.866 376.25 333.888 376.26 333.92 376.27C333.92 376.27 333.92 376.27 333.921 376.27C333.925 376.272 333.945 376.279 333.976 376.286C333.891 376.259 333.687 376.162 333.564 376.067C333.366 375.808 333.286 375.19 333.398 374.907C333.485 374.787 333.645 374.638 333.704 374.598C333.739 374.577 333.798 374.547 333.822 374.537C333.865 374.518 333.901 374.506 333.913 374.502C333.959 374.487 334.004 374.477 334.018 374.474L334.019 374.474C334.062 374.464 334.122 374.452 334.188 374.438C334.324 374.411 334.528 374.371 334.786 374.32L334.798 374.317C335.329 374.213 336.101 374.062 337.037 373.871C338.909 373.489 341.429 372.952 343.964 372.327C346.506 371.7 349.032 370.992 350.929 370.273C351.882 369.912 352.634 369.564 353.141 369.242C353.389 369.085 353.545 368.954 353.635 368.857C353.59 368.81 353.515 368.743 353.391 368.655C353.023 368.396 352.43 368.114 351.627 367.826C350.035 367.253 347.851 366.736 345.613 366.299C343.386 365.864 341.145 365.516 339.458 365.277C338.615 365.158 337.912 365.066 337.421 365.003C337.225 364.979 337.064 364.959 336.94 364.944C336.798 365.026 336.589 365.155 336.325 365.34C335.763 365.734 334.947 366.382 333.98 367.378C332.047 369.369 329.499 372.762 327.169 378.314C324.883 383.753 325.115 388.462 325.909 391.807C326.307 393.483 326.846 394.818 327.283 395.729C327.501 396.184 327.693 396.532 327.827 396.763C327.842 396.787 327.856 396.811 327.869 396.833ZM343.126 400.139C343.126 400.139 343.126 400.136 343.126 400.131C343.127 400.137 343.126 400.139 343.126 400.139ZM334.426 376.28C334.426 376.28 334.428 376.28 334.431 376.279C334.428 376.28 334.426 376.28 334.426 376.28Z" fill="#001A39"/>
<path fill-rule="evenodd" clip-rule="evenodd" d="M407.829 192.63L542.63 306.168V522.195H273.028V306.168L407.829 192.63ZM276.269 307.675V518.955H539.39V307.675L407.829 196.867L276.269 307.675Z" fill="#001A39"/>
<path d="M769.411 74.4366C769.693 87.4399 759.384 98.2073 746.376 98.4896C734.882 98.7396 725.133 90.7081 722.832 79.8573C722.531 78.4316 722.355 76.9641 722.323 75.455C722.041 62.4564 732.35 51.6844 745.358 51.402C752.125 51.2539 758.282 53.9758 762.675 58.4475C766.726 62.5814 769.276 68.2058 769.411 74.4366Z" fill="#F96155"/>
<path d="M722.361 78.1539C735.299 85.8799 753.284 92.2403 767.69 84.5606C768.051 84.3661 767.805 83.7783 767.412 83.894C763.584 85.0281 759.926 86.315 755.913 86.6854C752.006 87.0464 748.057 86.7363 744.22 85.9539C736.535 84.3847 729.74 80.8434 722.657 77.6493C722.319 77.4965 722.028 77.9548 722.361 78.1539Z" fill="white"/>
<path d="M727.744 59.9938C739.012 66.7986 755.293 72.8396 768.245 67.3772C768.648 67.206 768.342 66.6412 767.967 66.7107C764.583 67.3588 761.31 68.1272 757.838 68.1966C754.209 68.266 750.589 67.7938 747.062 66.9605C740.336 65.3635 734.323 62.2528 728.045 59.4892C727.703 59.341 727.416 59.7947 727.744 59.9938Z" fill="white"/>
<path d="M116.485 492.244L59.2452 440.144L37.4697 513.261L116.485 492.244Z" fill="#F96155"/>
<path d="M47.1866 480.927C57.4633 479.552 67.4068 480.093 77.1188 483.959C85.8215 487.426 93.6911 493.319 102.695 495.971C103.084 496.087 103.347 495.494 102.977 495.305C98.5887 493.083 94.1077 491.041 89.7332 488.768C85.4605 486.546 81.16 484.357 76.6466 482.653C67.2587 479.107 56.9358 478.107 47.1127 480.352C46.7933 480.422 46.8533 480.968 47.1866 480.927Z" fill="white"/>
<path d="M70.4283 504.493C67.6693 496.295 66.1326 487.842 66.8918 479.172C67.2806 474.719 68.3175 470.376 69.8358 466.178C71.3125 462.095 73.4095 458.304 75.0158 454.286C75.1732 453.887 74.5622 453.674 74.3493 454.008C64.9521 468.65 62.5959 488.74 69.8914 504.725C70.0303 505.021 70.5347 504.808 70.4283 504.493Z" fill="white"/>
<path d="M750.275 420.724C717.45 450.059 667.057 447.231 637.722 414.406C608.387 381.58 611.215 331.187 644.041 301.853" fill="#F96155"/>
<path fill-rule="evenodd" clip-rule="evenodd" d="M673.176 394.129C663.933 402.743 655.049 414.839 648.641 424.488L647.484 423.72C653.909 414.046 662.865 401.84 672.23 393.113C676.91 388.752 681.73 385.224 686.422 383.33C691.126 381.432 695.763 381.158 699.974 383.417L699.974 383.417C706.487 386.914 710.504 395.277 712.967 405.35C715.441 415.472 716.398 427.541 716.62 438.746L715.232 438.773C715.01 427.61 714.057 415.658 711.618 405.68C709.166 395.652 705.265 387.834 699.317 384.641C695.577 382.635 691.395 382.821 686.942 384.618C682.476 386.42 677.8 389.821 673.176 394.129Z" fill="white"/>
<path fill-rule="evenodd" clip-rule="evenodd" d="M641.373 337.878C638.727 346.084 638.127 353.361 640.753 358.566L640.133 358.879L640.753 358.566C642.369 361.77 645.168 363.81 648.857 364.953C652.562 366.101 657.136 366.331 662.209 365.91C672.353 365.066 684.294 361.635 694.819 358.037L695.269 359.351C684.722 362.956 672.647 366.436 662.324 367.294C657.162 367.723 652.389 367.501 648.446 366.28C644.487 365.053 641.337 362.807 639.513 359.192C636.63 353.476 637.378 345.741 640.051 337.452C642.734 329.129 647.411 320.086 652.615 311.636L653.797 312.364C648.622 320.768 644.008 329.704 641.373 337.878Z" fill="white"/>
<path d="M770.051 210.891L752.702 258.607L800.418 275.956L817.767 228.24L770.051 210.891Z" fill="#FBC73B"/>
<path d="M73.1987 47.6232L32.6416 78.168L63.1863 118.725L103.743 88.1802L73.1987 47.6232Z" fill="#FBC73B"/>
<path fill-rule="evenodd" clip-rule="evenodd" d="M50.9543 103.384C51.301 92.101 51.1702 77.9119 49.3545 65.1651L50.7294 64.9692C52.5614 77.8309 52.6901 92.1109 52.3424 103.427L50.9543 103.384Z" fill="white"/>
<path fill-rule="evenodd" clip-rule="evenodd" d="M71.7175 78.7851C69.9469 85.5222 69.8244 91.446 72.0812 95.9178L72.0813 95.9179C74.101 99.9224 77.9328 102.204 83.0165 103.211L82.7467 104.573C77.4057 103.515 73.1176 101.056 70.8414 96.5435C68.358 91.6227 68.5712 85.2932 70.3744 78.4321C72.1822 71.5538 75.6184 64.025 79.738 56.615L80.9518 57.2898C76.8592 64.6513 73.4836 72.0655 71.7175 78.7851Z" fill="white"/>
<path d="M795.307 515.941C795.589 528.944 785.28 539.712 772.273 539.994C760.778 540.244 751.029 532.213 748.729 521.362C748.428 519.936 748.252 518.469 748.22 516.96C747.937 503.961 758.246 493.189 771.254 492.907C778.022 492.759 784.179 495.48 788.572 499.952C792.622 504.086 795.168 509.706 795.307 515.941Z" fill="#FBC73B"/>
<path d="M47.4731 258.357C47.7555 271.36 37.4465 282.128 24.4386 282.41C12.9444 282.66 3.19526 274.629 0.894573 263.778C0.593679 262.352 0.417952 260.885 0.385548 259.376C0.10317 246.377 10.4122 235.605 23.4201 235.323C30.1879 235.175 36.3447 237.896 40.7378 242.368C44.7929 246.502 47.3388 252.126 47.4731 258.357Z" fill="#F96155"/>
<path fill-rule="evenodd" clip-rule="evenodd" d="M161.938 153.451C160.869 154.669 160.869 154.669 160.87 154.67L160.882 154.681L160.919 154.712C160.95 154.74 160.997 154.781 161.059 154.834C161.182 154.941 161.365 155.098 161.606 155.304C162.089 155.715 162.806 156.32 163.748 157.097C165.632 158.652 168.418 160.9 172.036 163.68C179.27 169.239 189.834 176.929 203.168 185.465C229.828 202.535 267.595 223.012 311.989 236.603C341.318 245.589 373.559 251.571 407.408 251.571C441.256 251.571 473.497 245.589 502.826 236.603C547.22 223.012 584.987 202.535 611.648 185.465C624.981 176.929 635.545 169.239 642.78 163.68C646.397 160.9 649.183 158.652 651.067 157.097C652.01 156.32 652.726 155.715 653.209 155.304C653.45 155.098 653.633 154.941 653.756 154.834L653.804 154.792C653.843 154.759 653.874 154.732 653.896 154.712L653.933 154.681L653.942 154.672L653.945 154.67C653.946 154.669 653.946 154.669 652.877 153.451L653.946 154.669L655.333 153.451L653.946 152.234L652.877 153.451C653.946 152.234 653.945 152.233 653.944 152.232L653.94 152.228L653.923 152.214L653.86 152.159C653.805 152.111 653.723 152.04 653.615 151.947C653.399 151.761 653.078 151.486 652.654 151.129C651.808 150.415 650.552 149.371 648.908 148.044C645.619 145.39 640.776 141.604 634.542 137.064C622.075 127.984 604.041 115.881 581.756 103.778C537.207 79.5829 475.567 55.332 407.412 55.332C339.257 55.332 277.615 79.5828 233.063 103.778C210.778 115.881 192.743 127.984 180.275 137.064C174.041 141.604 169.197 145.39 165.908 148.044C164.263 149.371 163.007 150.415 162.161 151.129C161.738 151.486 161.416 151.761 161.2 151.947C161.092 152.04 161.01 152.111 160.955 152.159L160.892 152.214L160.871 152.232C160.87 152.233 160.869 152.234 161.938 153.451ZM164.434 153.452C164.817 153.774 165.277 154.157 165.81 154.598C167.668 156.131 170.424 158.355 174.01 161.11C181.182 166.621 191.67 174.257 204.915 182.737C231.411 199.701 268.907 220.025 312.938 233.505C342.02 242.415 373.939 248.33 407.408 248.33C440.876 248.33 472.795 242.415 501.877 233.505C545.908 220.025 583.404 199.701 609.9 182.737C623.145 174.257 633.633 166.621 640.805 161.11C644.391 158.355 647.148 156.131 649.005 154.598C649.539 154.157 649.998 153.774 650.382 153.451C649.557 152.758 648.382 151.784 646.873 150.566C643.622 147.942 638.821 144.189 632.634 139.683C620.259 130.67 602.346 118.648 580.21 106.626C535.919 82.5712 474.826 58.5724 407.412 58.5724C339.998 58.5724 278.903 82.5712 234.61 106.626C212.473 118.648 194.559 130.67 182.183 139.683C175.995 144.189 171.194 147.943 167.943 150.566C166.433 151.784 165.258 152.758 164.434 153.452ZM160.869 152.234L161.938 153.451L160.869 154.669L159.482 153.451L160.869 152.234Z" fill="#001A39"/>
<path d="M487.575 237.373C462.92 244.928 435.83 249.951 407.412 249.951C378.994 249.951 351.908 244.923 327.249 237.373C331.971 197.294 366.06 166.2 407.412 166.2C448.764 166.2 482.853 197.289 487.575 237.373Z" fill="#001A39"/>
<path fill-rule="evenodd" clip-rule="evenodd" d="M151.047 94.6497L196.144 127.299L194.244 129.924L149.146 97.2744L151.047 94.6497Z" fill="#001A39"/>
<path fill-rule="evenodd" clip-rule="evenodd" d="M220.5 42.4976L257.551 91.6961L254.963 93.6455L217.911 44.4469L220.5 42.4976Z" fill="#001A39"/>
<path fill-rule="evenodd" clip-rule="evenodd" d="M314.006 12.9282L331.023 64.2377L327.947 65.2577L310.931 13.9483L314.006 12.9282Z" fill="#001A39"/>
<path fill-rule="evenodd" clip-rule="evenodd" d="M419.276 0.0646737L417.721 55.6977L415.407 55.633L416.962 0L419.276 0.0646737Z" fill="#001A39"/>
<path fill-rule="evenodd" clip-rule="evenodd" d="M662.145 93.3666L626.223 132.918L623.824 130.739L659.747 91.188L662.145 93.3666Z" fill="#001A39"/>
<path fill-rule="evenodd" clip-rule="evenodd" d="M596.094 48.1011L566.347 97.3506L563.573 95.6752L593.32 46.4258L596.094 48.1011Z" fill="#001A39"/>
<path fill-rule="evenodd" clip-rule="evenodd" d="M516.911 19.0986L498.408 68.9684L495.37 67.8412L513.873 17.9714L516.911 19.0986Z" fill="#001A39"/>
<path fill-rule="evenodd" clip-rule="evenodd" d="M407.829 197.259L468.079 248.008L465.992 250.486L407.829 201.496L349.666 250.486L347.578 248.008L407.829 197.259Z" fill="white"/>
<path d="M130.483 391.908C124.41 391.908 118.299 389.866 113.184 385.659C101.19 375.798 99.2227 357.782 108.787 345.422L157.443 282.531C167.007 270.166 184.482 268.139 196.476 277.999C208.47 287.859 210.438 305.875 200.874 318.235L152.217 381.131C146.732 388.219 138.644 391.908 130.483 391.908Z" fill="#FBC73B"/>
<path fill-rule="evenodd" clip-rule="evenodd" d="M138.475 337.383C136.286 330.27 132.917 324.298 127.875 320.811L128.665 319.668C134.074 323.41 137.571 329.724 139.802 336.974C142.037 344.235 143.03 352.52 143.366 360.319C143.702 368.123 143.382 375.469 142.979 380.861C142.777 383.558 142.554 385.769 142.381 387.306C142.295 388.075 142.221 388.675 142.169 389.084C142.143 389.289 142.122 389.445 142.108 389.551C142.106 389.57 142.103 389.587 142.101 389.602C142.097 389.631 142.094 389.654 142.092 389.672L142.087 389.703L142.086 389.711L142.086 389.713C142.086 389.714 142.086 389.714 141.398 389.617C140.711 389.519 140.711 389.519 140.711 389.519L140.712 389.51L140.716 389.482C140.719 389.456 140.725 389.417 140.732 389.366C140.746 389.263 140.766 389.11 140.792 388.908C140.843 388.506 140.916 387.912 141.001 387.151C141.172 385.628 141.393 383.435 141.594 380.758C141.994 375.401 142.311 368.112 141.978 360.379C141.645 352.641 140.661 344.486 138.475 337.383Z" fill="white"/>
<path fill-rule="evenodd" clip-rule="evenodd" d="M160.723 319.371C160.143 324.033 160.536 328.15 162.168 331.484C165.452 338.191 173.554 340.228 183.836 339.503L183.933 340.888C173.588 341.617 164.617 339.645 160.921 332.095L160.921 332.095C159.129 328.434 158.746 324.019 159.345 319.2C159.945 314.377 161.535 309.1 163.748 303.672C168.173 292.816 175.128 281.257 181.824 271.36L182.974 272.138C176.3 282.003 169.405 293.47 165.034 304.196C162.848 309.559 161.303 314.712 160.723 319.371Z" fill="white"/>
</svg>
