<svg width="512" height="408" viewBox="0 0 512 408" fill="none" xmlns="http://www.w3.org/2000/svg">
<path d="M292.694 110.014C292.694 110.014 281.023 131.415 257.628 135.258C234.232 139.101 207.99 123.88 207.99 123.88C207.99 123.88 223.991 107.511 243.932 101.139C246.475 100.315 249.075 99.6822 251.71 99.2423C262.014 97.554 271.19 99.4443 278.233 102.084C287.184 105.439 292.694 110.014 292.694 110.014Z" fill="#F96155"/>
<path d="M199.318 187.961C199.318 187.961 189.333 218.564 166.298 221.938C143.263 225.311 115.904 200.177 115.904 200.177C115.904 200.177 134.579 168.926 157.614 165.552C161.941 164.946 166.349 165.273 170.536 166.515C181.703 169.705 190.786 178.208 195.602 183.499C196.915 184.923 198.157 186.412 199.318 187.961Z" fill="#F96155"/>
<path d="M512 153.211C512 153.211 467.738 208.303 422.981 208.303C378.225 208.303 349.928 153.211 349.928 153.211C351.795 149.65 353.841 146.184 356.059 142.829C363.385 131.587 377.007 113.946 395.429 104.099C403.693 99.682 412.922 96.8315 422.981 96.8315C467.738 96.8315 512 153.211 512 153.211Z" fill="#F96155"/>
<path d="M424.858 250.832C424.858 250.832 398.714 269.374 377.227 264.823C355.741 260.272 347.063 234.371 347.063 234.371C349.35 231.949 351.84 229.725 354.508 227.725C361.754 222.229 373.532 215.675 386.42 218.08C386.659 218.121 386.9 218.169 387.138 218.219C408.618 222.77 424.858 250.832 424.858 250.832Z" fill="#F96155"/>
<path d="M493.796 235.474C493.796 235.474 482.247 241.585 471.589 240.164C460.93 238.743 455.209 230.326 455.209 230.326C455.844 229.793 456.514 229.309 457.214 228.869C459.751 227.24 464.507 224.818 470.466 224.761C471.526 224.749 472.586 224.815 473.637 224.955C484.284 226.375 493.796 235.474 493.796 235.474Z" fill="#F96155"/>
<path d="M508.721 70.2202C508.721 70.2202 494.001 89.8168 477.279 91.5022C470.501 92.1858 464.438 89.8197 459.623 86.7641C455.251 83.9463 451.38 80.4152 448.175 76.3223C450.492 71.5516 453.595 67.2033 457.353 63.4581C461.442 59.4544 466.883 55.9024 473.61 55.2247C490.329 53.5393 508.721 70.2202 508.721 70.2202Z" fill="#F96155"/>
<path d="M431.421 27.8464C431.421 27.8464 410.167 48.2514 386.096 51.8836C383.511 52.2789 380.902 52.4781 378.288 52.4781C364.886 52.4781 354.148 47.324 348.537 43.9356C347.048 43.0557 345.619 42.0839 344.255 41.0227C344.255 41.0227 356.87 21.5242 380.938 17.8891C405.006 14.2539 431.421 27.8464 431.421 27.8464Z" fill="#F96155"/>
<path d="M487.273 298.066C487.273 298.066 468.857 309.893 453.503 306.609C438.148 303.324 431.68 286.182 431.68 286.182C432.663 285.213 433.705 284.307 434.801 283.469C438.229 280.793 444.196 276.959 451.308 275.886C454.211 275.431 457.175 275.509 460.048 276.115C475.415 279.393 487.273 298.066 487.273 298.066Z" fill="#F96155"/>
<path d="M317.658 33.0922C317.658 33.0922 312.661 41.4654 305.124 47.0624C301.577 49.6989 297.461 51.7232 293.045 51.964C288.435 52.2166 284.072 50.4956 280.308 48.0999C272.812 43.3203 267.69 35.8327 267.69 35.8327C267.69 35.8327 278.167 25.3907 291.97 24.6357C305.773 23.8807 317.658 33.0922 317.658 33.0922Z" fill="#F96155"/>
<path d="M46.5493 225.368C46.5493 225.368 40.8285 240.565 27.9754 242.806C15.1223 245.048 0 233.47 0 233.47C0 233.47 10.2503 217.149 23.1034 214.914C26.0099 214.43 28.9909 214.626 31.8081 215.49C37.1 217.042 41.4569 220.425 44.0179 222.797C44.9113 223.605 45.7571 224.464 46.5493 225.368Z" fill="#F96155"/>
<path d="M223.374 57.8877C223.374 57.8877 221.093 61.9153 216.793 67.9284C205.843 83.2242 181.807 111.361 148.927 118.705C143.397 119.945 137.739 120.545 132.072 120.489C76.5377 119.915 22.2754 55.8071 22.2754 55.8071C22.2754 55.8071 77.7855 -0.569744 133.316 0.00392126C188.847 0.577587 223.374 57.8877 223.374 57.8877Z" fill="#F96155"/>
<path d="M108.042 159.599C108.042 159.599 95.8889 185.283 74.1971 186.647C52.5053 188.011 29.4912 164.536 29.4912 164.536C29.4912 164.536 49.5392 140.944 71.231 139.568C76.243 139.292 81.252 140.139 85.8917 142.044C96.4696 146.256 104.04 154.599 106.851 158.056C107.631 159.016 108.042 159.599 108.042 159.599Z" fill="#F96155"/>
<path d="M167.858 257.392C167.858 257.392 150.982 289.439 113.272 298.021C75.561 306.602 31.3435 285.24 31.3435 285.24C31.3435 285.24 62.9968 251.581 100.704 243C103.087 242.456 105.433 242.04 107.741 241.737C131.303 238.634 150.887 247.2 160.821 252.853C163.266 254.211 165.616 255.727 167.858 257.392Z" fill="#F96155"/>
<path d="M263.977 129.825C253.387 131.554 243.399 124.388 241.665 113.822C240.951 109.461 241.749 104.985 243.929 101.139C246.472 100.315 249.072 99.6822 251.71 99.2423C262.014 97.554 271.189 99.4443 278.232 102.084C282.988 111.693 279.039 123.33 269.411 128.077C267.696 128.924 265.865 129.512 263.977 129.825Z" fill="#001A39"/>
<path d="M179.443 203.066C169.106 204.609 159.472 197.496 157.927 187.179C156.575 178.152 161.882 169.452 170.536 166.506C181.703 169.696 190.786 178.2 195.602 183.49C196.057 193.192 189.071 201.657 179.443 203.066Z" fill="#001A39"/>
<path d="M430.006 140.944C429.983 161.34 413.395 177.852 392.963 177.828C373.299 177.804 357.09 162.431 356.06 142.829C363.385 131.587 377.007 113.946 395.429 104.099C414.881 105.368 430.009 121.487 430.006 140.944Z" fill="#001A39"/>
<path d="M380.158 44.2003C380.306 47.0746 379.657 49.9338 378.287 52.4662C364.886 52.4662 354.148 47.3122 348.537 43.9237C349.118 35.2118 356.661 28.6191 365.39 29.1987C373.415 29.7308 379.767 36.1839 380.158 44.2003Z" fill="#001A39"/>
<path d="M390.244 229.11C390.244 238.975 382.233 246.971 372.349 246.971C362.465 246.971 354.455 238.975 354.455 229.11C354.455 228.646 354.455 228.183 354.508 227.725C361.754 222.229 373.532 215.675 386.42 218.08C388.904 221.221 390.25 225.109 390.244 229.11Z" fill="#001A39"/>
<path d="M470.195 75.1127C470.192 81.1258 465.626 86.1579 459.632 86.7583C455.26 83.9405 451.388 80.4094 448.184 76.3165C450.501 71.5458 453.604 67.1972 457.362 63.4521C457.729 63.4194 458.098 63.4016 458.473 63.4016C464.95 63.4075 470.198 68.6508 470.195 75.1127Z" fill="#001A39"/>
<path d="M381.328 84.1991C381.328 84.1991 373.585 91.098 361.881 92.5574C358.248 92.9913 354.57 92.8159 350.997 92.0401C350.431 91.9212 349.889 91.7905 349.365 91.6538C344.284 90.3251 341.05 88.307 341.05 88.307C341.05 88.307 343.049 85.5576 347.149 83.0282C347.468 82.835 347.804 82.6388 348.15 82.4337C351.304 80.686 354.767 79.5653 358.347 79.1314C370.038 77.6809 381.328 84.1991 381.328 84.1991Z" fill="#F96155"/>
<path d="M471.398 228.733C471.172 232.647 467.809 235.64 463.887 235.414C460.332 235.209 457.476 232.415 457.202 228.869C459.739 227.24 464.495 224.818 470.454 224.761C471.154 225.962 471.484 227.344 471.398 228.733Z" fill="#001A39"/>
<path d="M48.8632 112.139C46.2128 114.404 43.1306 116.104 39.7982 117.139C36.8678 118.078 33.7796 118.426 30.7123 118.164C19.9914 117.225 10.0687 108.742 10.0687 108.742C10.0687 108.742 21.3464 101.938 32.0583 102.877C33.1155 102.969 34.1638 103.139 35.1971 103.379C36.436 103.674 37.651 104.072 38.8244 104.568C41.9721 105.912 44.825 107.856 47.2223 110.293C47.812 110.873 48.3599 111.488 48.8632 112.139Z" fill="#F96155"/>
<path d="M455.462 285.659C454.664 291.33 449.411 295.283 443.729 294.487C438.315 293.729 434.417 288.911 434.81 283.468C438.238 280.793 444.206 276.959 451.317 275.886C454.393 278.136 455.984 281.89 455.462 285.659Z" fill="#001A39"/>
<path d="M305.154 46.2065C305.154 46.5037 305.154 46.783 305.124 47.0654C301.577 49.7019 297.461 51.7261 293.045 51.9669C288.435 52.2196 284.072 50.4986 280.308 48.1028C279.176 41.3021 283.783 34.8727 290.6 33.7432C297.414 32.6137 303.855 37.2121 304.987 44.0158C305.109 44.7441 305.163 45.4781 305.154 46.2152V46.2065Z" fill="#001A39"/>
<path d="M44.0269 222.791C44.3217 227.543 40.7034 231.633 35.9416 231.928C31.1797 232.222 27.082 228.611 26.7872 223.858C26.5668 220.297 28.565 216.968 31.817 215.485C37.1 217.036 41.4569 220.419 44.0269 222.791Z" fill="#001A39"/>
<path d="M216.793 67.9286C205.843 83.2243 181.807 111.361 148.927 118.705C127.581 105.46 121.035 77.4518 134.305 56.1461C147.575 34.8403 175.637 28.3072 196.983 41.552C206.665 47.5591 213.732 56.9726 216.793 67.9286Z" fill="#001A39"/>
<path d="M135.19 278.475C120.076 279.417 107.059 267.95 106.118 252.865C105.883 249.084 106.434 245.295 107.741 241.737C131.303 238.634 150.887 247.2 160.821 252.853C159.97 266.621 148.984 277.604 135.19 278.475Z" fill="#001A39"/>
<path d="M106.845 158.044C105.618 166.263 97.9497 171.934 89.7155 170.709C81.4813 169.485 75.7993 161.831 77.0262 153.612C77.7916 148.491 81.1388 144.119 85.8947 142.044C96.4637 146.244 104.034 154.587 106.845 158.044Z" fill="#001A39"/>
<path d="M323.468 317.784C323.468 317.784 296.407 281.908 287.184 259.933C282.905 249.738 280.451 239.347 277.133 224.369L249.503 252.422L256.868 328H198.231C200.5 325.622 209.845 316.235 220.795 311.087C220.795 311.087 207.204 260.629 208.151 240.91C209.422 214.456 264.617 156.383 290.436 165.526C317.685 175.177 328.632 249.61 328.632 249.61L371.78 328H315.824C317.056 324.947 319.504 320.206 323.468 317.784Z" fill="#001A39"/>
<path d="M314.707 127.699L296.636 154.189C291.788 161.293 280.993 160.249 277.604 152.352L266.311 126.047C263.944 120.521 266.514 114.125 272.05 111.765C273.381 111.197 274.814 110.9 276.261 110.888L305.627 110.703C314.412 110.638 319.665 120.45 314.707 127.699Z" fill="#0046DC"/>
<path d="M286.508 118.907L286.636 99.141C286.636 99.141 279.004 95.1759 280.424 89.7038C281.845 84.2317 287.434 86.7167 287.434 86.7167C287.434 86.7167 290.165 79.2174 298.286 78.6913C306.407 78.1652 310.442 82.8051 311.419 89.2046C313.114 100.318 307.125 103.793 295.153 103.745L294.582 116.758" fill="#FFF5EB"/>
<path d="M283.631 86.2619C283.631 86.2619 281.249 77.6897 292.005 73.8643C302.762 70.0389 305.109 73.7246 309.007 71.0138C312.905 68.3031 318.834 80.7958 306.845 84.3894C294.855 87.983 295.15 87.1417 295.15 87.1417C295.15 87.1417 295.88 92.6969 292.652 92.8426C289.423 92.9882 287.455 87.43 287.455 87.43" fill="#742A40"/>
<path fill-rule="evenodd" clip-rule="evenodd" d="M308.7 92.8196L307.053 88.2677L307.894 87.9654L309.54 92.5174L308.7 92.8196Z" fill="#001A39"/>
<path fill-rule="evenodd" clip-rule="evenodd" d="M304.732 85.4318L300.56 87.8991L300.104 87.133L304.276 84.6657L304.732 85.4318Z" fill="#001A39"/>
<path d="M303.736 89.7607C304.465 89.7607 305.055 89.1716 305.055 88.4451C305.055 87.7187 304.465 87.1298 303.736 87.1298C303.007 87.1298 302.417 87.7187 302.417 88.4451C302.417 89.1716 303.007 89.7607 303.736 89.7607Z" fill="#001A39"/>
<path fill-rule="evenodd" clip-rule="evenodd" d="M306.23 84.1366L311.081 84.217L311.066 85.1083L306.215 85.028L306.23 84.1366Z" fill="#001A39"/>
<path d="M309.12 88.4913C309.849 88.4913 310.439 87.9025 310.439 87.176C310.439 86.4496 309.849 85.8608 309.12 85.8608C308.391 85.8608 307.801 86.4496 307.801 87.176C307.801 87.9025 308.391 88.4913 309.12 88.4913Z" fill="#001A39"/>
<path fill-rule="evenodd" clip-rule="evenodd" d="M329.606 117.362C327.064 116.301 324.906 115.663 323.266 115.532L323.337 114.643C325.118 114.786 327.379 115.466 329.951 116.539C332.53 117.616 335.45 119.101 338.556 120.877C344.769 124.429 351.749 129.161 358.266 134.16C364.783 139.159 370.849 144.436 375.23 149.082C377.42 151.404 379.199 153.579 380.403 155.492C381.593 157.384 382.274 159.101 382.136 160.478C382.003 161.798 381.484 162.854 380.653 163.685C379.83 164.509 378.721 165.093 377.434 165.515C374.869 166.356 371.476 166.592 367.885 166.7C366.853 166.731 365.805 166.751 364.751 166.772C362.109 166.824 359.433 166.877 356.91 167.096C353.588 167.386 350.606 167.961 348.387 169.163C348.411 169.198 348.436 169.235 348.463 169.274C348.688 169.599 349.008 170.065 349.387 170.626C350.145 171.749 351.144 173.256 352.1 174.791C353.055 176.323 353.976 177.895 354.576 179.144C354.874 179.765 355.104 180.33 355.214 180.78C355.268 181.003 355.301 181.23 355.28 181.435C355.26 181.642 355.177 181.895 354.932 182.05C354.564 182.285 354.123 182.173 353.798 182.037C353.442 181.889 353.042 181.636 352.628 181.332C351.797 180.723 350.819 179.842 349.876 178.972C349.684 178.794 349.492 178.617 349.304 178.442C348.56 177.753 347.858 177.102 347.271 176.613C346.99 176.378 346.748 176.191 346.548 176.057C346.683 176.407 346.908 176.879 347.202 177.445C347.59 178.196 348.08 179.08 348.604 180.026C348.923 180.602 349.255 181.2 349.584 181.805C350.446 183.389 351.287 185.013 351.789 186.316C352.039 186.964 352.218 187.564 352.263 188.057C352.305 188.519 352.24 189.08 351.749 189.357C351.488 189.504 351.197 189.49 350.949 189.431C350.697 189.37 350.427 189.246 350.154 189.089C349.604 188.773 348.954 188.271 348.25 187.66C346.839 186.434 345.146 184.709 343.511 182.978C342.605 182.02 341.693 181.033 340.858 180.13C340.204 179.422 339.596 178.765 339.076 178.212C338.878 178.002 338.691 177.805 338.516 177.623C338.566 177.709 338.617 177.796 338.67 177.886C338.974 178.403 339.337 179.006 339.728 179.653C340.236 180.497 340.79 181.416 341.317 182.318C342.261 183.933 343.175 185.587 343.738 186.913C344.018 187.572 344.224 188.18 344.294 188.676C344.358 189.127 344.337 189.713 343.85 190.005C343.576 190.169 343.265 190.132 343.023 190.06C342.769 189.985 342.494 189.842 342.211 189.663C341.641 189.304 340.95 188.739 340.189 188.053C338.664 186.676 336.793 184.746 334.943 182.807C334.573 182.419 334.204 182.031 333.839 181.647C332.369 180.102 330.956 178.617 329.776 177.455C329.038 176.73 328.403 176.142 327.908 175.75C327.659 175.552 327.46 175.415 327.31 175.334C327.257 175.305 327.216 175.287 327.186 175.276C327.183 175.279 327.18 175.283 327.177 175.287C327.138 175.336 327.087 175.424 327.034 175.566C326.927 175.85 326.838 176.265 326.767 176.791C326.625 177.838 326.565 179.214 326.503 180.615L326.503 180.617C326.441 182.004 326.379 183.419 326.229 184.502C326.155 185.041 326.055 185.528 325.91 185.899C325.78 186.23 325.541 186.654 325.078 186.725C324.79 186.769 324.534 186.618 324.368 186.495C324.18 186.356 323.983 186.158 323.782 185.925C323.377 185.455 322.907 184.78 322.405 183.969C321.399 182.345 320.237 180.124 319.192 177.777C318.148 175.432 317.214 172.945 316.672 170.789C316.401 169.711 316.224 168.703 316.184 167.83C316.145 166.967 316.237 166.182 316.552 165.59C317.113 164.537 318.275 163.264 319.934 161.905C321.602 160.538 323.803 159.058 326.478 157.6C331.83 154.681 339.1 151.834 347.847 150.131L348.018 151.006C339.361 152.692 332.178 155.508 326.907 158.382C324.271 159.819 322.118 161.268 320.501 162.594C318.874 163.927 317.819 165.11 317.341 166.008C317.136 166.392 317.04 166.986 317.077 167.789C317.113 168.582 317.275 169.527 317.538 170.572C318.064 172.661 318.976 175.097 320.009 177.415C321.041 179.733 322.184 181.917 323.165 183.501C323.657 184.295 324.099 184.925 324.46 185.344C324.641 185.554 324.789 185.697 324.9 185.779C324.921 185.794 324.938 185.806 324.952 185.815C324.98 185.779 325.025 185.709 325.078 185.574C325.184 185.303 325.272 184.899 325.344 184.38C325.487 183.348 325.548 181.98 325.61 180.577L325.612 180.543C325.673 179.166 325.735 177.759 325.882 176.672C325.956 176.126 326.055 175.631 326.197 175.252C326.269 175.062 326.359 174.879 326.479 174.73C326.6 174.578 326.77 174.44 326.997 174.388C327.147 174.354 327.289 174.377 327.399 174.408C327.513 174.44 327.626 174.491 327.735 174.55C327.952 174.667 328.199 174.841 328.464 175.052C328.997 175.475 329.66 176.09 330.403 176.82C331.595 177.993 333.022 179.493 334.493 181.039C334.857 181.422 335.223 181.808 335.59 182.192C337.443 184.134 339.292 186.04 340.789 187.391C341.539 188.069 342.185 188.592 342.688 188.91C342.942 189.07 343.138 189.164 343.278 189.206C343.339 189.224 343.377 189.229 343.397 189.229C343.401 189.221 343.406 189.207 343.412 189.186C343.429 189.114 343.436 188.99 343.41 188.801C343.356 188.422 343.187 187.9 342.915 187.261C342.377 185.992 341.488 184.38 340.546 182.767C340.009 181.849 339.473 180.961 338.976 180.135C338.587 179.492 338.223 178.887 337.899 178.338C337.54 177.726 337.24 177.197 337.044 176.8C336.948 176.605 336.868 176.425 336.821 176.276C336.798 176.203 336.775 176.115 336.77 176.024C336.766 175.953 336.765 175.759 336.92 175.604C337.138 175.386 337.412 175.478 337.467 175.498C337.559 175.532 337.645 175.586 337.712 175.633C337.853 175.732 338.025 175.882 338.216 176.06C338.602 176.422 339.121 176.959 339.727 177.602C340.274 178.183 340.881 178.84 341.532 179.544C342.351 180.431 343.239 181.391 344.161 182.367C345.794 184.096 347.461 185.793 348.837 186.987C349.527 187.586 350.126 188.044 350.6 188.316C350.837 188.453 351.023 188.531 351.159 188.564C351.264 188.589 351.306 188.58 351.314 188.578C351.322 188.573 351.338 188.559 351.354 188.508C351.376 188.438 351.39 188.32 351.373 188.137C351.34 187.77 351.197 187.262 350.956 186.636C350.476 185.394 349.661 183.816 348.799 182.23C348.478 181.641 348.15 181.05 347.833 180.476C347.303 179.52 346.802 178.615 346.408 177.855C346.093 177.247 345.836 176.709 345.684 176.298C345.609 176.095 345.55 175.896 345.531 175.722C345.521 175.635 345.518 175.528 345.544 175.42C345.57 175.307 345.634 175.169 345.773 175.069C345.98 174.922 346.213 174.942 346.361 174.978C346.516 175.015 346.672 175.09 346.819 175.175C347.114 175.345 347.466 175.613 347.844 175.928C348.451 176.435 349.176 177.107 349.922 177.798C350.108 177.971 350.295 178.144 350.483 178.317C351.43 179.191 352.373 180.038 353.158 180.614C353.552 180.903 353.884 181.107 354.142 181.214C354.263 181.265 354.343 181.284 354.393 181.291C354.391 181.224 354.378 181.126 354.345 180.991C354.258 180.632 354.061 180.135 353.77 179.529C353.193 178.326 352.292 176.787 351.342 175.262C350.393 173.739 349.401 172.242 348.646 171.125C348.269 170.566 347.951 170.103 347.728 169.78C347.616 169.618 347.528 169.492 347.468 169.405C347.438 169.362 347.415 169.329 347.4 169.307L347.377 169.274L347.376 169.274C347.376 169.274 347.376 169.274 347.742 169.018L347.376 169.274L347.51 168.637C349.951 167.161 353.273 166.518 356.832 166.208C359.388 165.985 362.111 165.932 364.765 165.88C365.811 165.859 366.847 165.839 367.858 165.808C371.458 165.7 374.729 165.464 377.155 164.668C378.362 164.272 379.33 163.747 380.02 163.056C380.703 162.373 381.134 161.509 381.247 160.389C381.353 159.328 380.821 157.833 379.646 155.967C378.486 154.122 376.749 151.994 374.58 149.693C370.242 145.093 364.215 139.849 357.722 134.867C351.23 129.887 344.283 125.179 338.112 121.651C335.027 119.886 332.141 118.42 329.606 117.362ZM327.14 175.262C327.139 175.262 327.14 175.262 327.142 175.263C327.14 175.262 327.14 175.262 327.14 175.262ZM346.14 175.843C346.14 175.843 346.141 175.843 346.144 175.843C346.142 175.843 346.14 175.843 346.14 175.843Z" fill="#001A39"/>
<path fill-rule="evenodd" clip-rule="evenodd" d="M316.42 139.023C316.42 139.023 316.42 139.023 316.616 138.623C316.812 138.222 316.812 138.222 316.812 138.222L316.824 138.228L316.856 138.244C316.884 138.258 316.926 138.278 316.981 138.306C317.091 138.36 317.252 138.441 317.46 138.546C317.874 138.757 318.474 139.066 319.213 139.46C320.69 140.247 322.729 141.375 324.973 142.735C329.449 145.449 334.785 149.114 338.095 152.875L337.424 153.464C334.21 149.812 328.974 146.204 324.509 143.497C322.283 142.148 320.259 141.028 318.792 140.247C318.058 139.856 317.464 139.55 317.054 139.341C316.849 139.237 316.69 139.157 316.583 139.104C316.529 139.077 316.488 139.057 316.46 139.043L316.43 139.028L316.42 139.023Z" fill="#001A39"/>
<path fill-rule="evenodd" clip-rule="evenodd" d="M257.303 116.407C259.142 115.372 260.839 114.716 262.283 114.642L262.329 115.533C261.092 115.596 259.54 116.171 257.743 117.184C255.954 118.191 253.965 119.608 251.864 121.305C247.663 124.697 243.054 129.176 238.769 133.648C234.486 138.118 230.537 142.572 227.658 145.909C226.218 147.578 225.047 148.967 224.235 149.938C223.83 150.424 223.514 150.805 223.3 151.065C223.211 151.173 223.139 151.26 223.086 151.325L222.994 151.437L222.975 151.461L222.974 151.462C222.974 151.462 222.974 151.462 222.627 151.181C222.73 151.615 222.73 151.615 222.729 151.615L222.728 151.615L222.634 151.638C222.57 151.653 222.476 151.675 222.353 151.705C222.106 151.763 221.744 151.85 221.282 151.961C220.357 152.184 219.032 152.506 217.431 152.902C214.23 153.694 209.927 154.783 205.517 155.972C201.106 157.16 196.595 158.446 192.976 159.631C191.166 160.224 189.585 160.79 188.355 161.304C187.103 161.826 186.276 162.271 185.914 162.606C185.1 163.362 183.667 165.198 181.984 167.607C180.31 170.003 178.414 172.928 176.678 175.831C174.941 178.735 173.37 181.607 172.342 183.897C171.827 185.044 171.455 186.029 171.264 186.791C171.169 187.173 171.123 187.482 171.121 187.718C171.118 187.963 171.164 188.076 171.193 188.118C171.245 188.191 171.293 188.218 171.342 188.231C171.4 188.247 171.496 188.251 171.647 188.21C171.959 188.124 172.381 187.88 172.895 187.474C173.912 186.67 175.132 185.36 176.32 183.948C177.502 182.543 178.634 181.059 179.47 179.925C179.889 179.359 180.232 178.881 180.472 178.544C180.591 178.376 180.685 178.243 180.748 178.153C180.78 178.108 180.804 178.073 180.82 178.05L180.838 178.023L180.841 178.02L180.841 178.019L180.843 178.017L180.844 178.015L180.844 178.015C180.844 178.015 180.844 178.015 181.212 178.268C181.582 178.517 181.582 178.517 181.582 178.517L181.582 178.517L181.581 178.519L181.579 178.521L181.579 178.522L181.578 178.524L181.577 178.526L181.559 178.552C181.551 178.564 181.54 178.58 181.527 178.599C181.517 178.615 181.504 178.634 181.49 178.655C181.43 178.745 181.341 178.877 181.228 179.047C181.003 179.386 180.682 179.873 180.298 180.462C179.53 181.641 178.513 183.23 177.516 184.871C176.517 186.514 175.544 188.201 174.859 189.579C174.516 190.269 174.252 190.869 174.093 191.341C174.013 191.578 173.963 191.77 173.941 191.918C173.935 191.959 173.932 191.994 173.93 192.024C173.951 192.018 173.976 192.011 174.005 192.002C174.275 191.912 174.674 191.692 175.18 191.347C176.181 190.666 177.472 189.593 178.76 188.451C180.045 187.314 181.311 186.122 182.258 185.213C182.731 184.759 183.123 184.376 183.397 184.107C183.534 183.973 183.642 183.867 183.715 183.794C183.751 183.758 183.779 183.73 183.798 183.712L183.825 183.685L183.826 183.684L183.826 183.684C183.826 183.683 183.826 183.683 184.142 183.999C184.493 184.275 184.493 184.275 184.493 184.275L184.488 184.281L184.475 184.298C184.463 184.313 184.445 184.336 184.422 184.365C184.375 184.425 184.307 184.513 184.22 184.625C184.046 184.85 183.799 185.173 183.506 185.565C182.919 186.35 182.15 187.41 181.417 188.513C180.681 189.621 179.991 190.756 179.555 191.697C179.336 192.169 179.191 192.571 179.131 192.883C179.085 193.12 179.098 193.25 179.116 193.314C179.178 193.306 179.28 193.28 179.431 193.215C179.784 193.063 180.267 192.759 180.863 192.323C182.047 191.456 183.571 190.144 185.2 188.723C185.383 188.564 185.568 188.403 185.753 188.241C187.209 186.97 188.72 185.651 190.104 184.54C191.647 183.299 193.088 182.27 194.14 181.875C195.157 181.494 197.597 180.953 200.714 180.317C202.361 179.98 204.218 179.613 206.178 179.226C207.943 178.877 209.791 178.511 211.647 178.137C215.571 177.344 219.543 176.507 222.882 175.686C226.24 174.861 228.906 174.064 230.255 173.361C230.919 173.015 231.941 172.302 233.24 171.295C234.532 170.294 236.075 169.021 237.773 167.571C241.169 164.672 245.174 161.079 249.006 157.575C252.837 154.071 256.493 150.658 259.191 148.121C260.54 146.853 261.65 145.803 262.422 145.071C262.809 144.705 263.11 144.418 263.316 144.223C263.418 144.125 263.497 144.051 263.549 144L263.628 143.925L263.629 143.925C263.629 143.924 263.629 143.924 263.938 144.247C264.247 144.569 264.247 144.569 264.246 144.569L264.245 144.57L264.166 144.645C264.113 144.696 264.035 144.771 263.932 144.869C263.726 145.064 263.424 145.351 263.038 145.718C262.265 146.451 261.154 147.501 259.804 148.77C257.104 151.309 253.444 154.725 249.609 158.232C245.774 161.739 241.761 165.34 238.354 168.249C236.65 169.703 235.095 170.987 233.788 172C232.488 173.007 231.41 173.765 230.669 174.151C229.209 174.912 226.437 175.731 223.096 176.552C219.737 177.378 215.751 178.218 211.824 179.011C209.958 179.388 208.109 179.753 206.346 180.102C204.392 180.488 202.543 180.853 200.893 181.19C197.742 181.834 195.388 182.36 194.454 182.71C193.556 183.047 192.221 183.983 190.664 185.234C189.296 186.333 187.8 187.639 186.341 188.912C186.156 189.074 185.972 189.235 185.788 189.395C184.166 190.809 182.612 192.149 181.392 193.042C180.785 193.486 180.235 193.84 179.785 194.034C179.563 194.13 179.329 194.202 179.107 194.207C178.869 194.213 178.606 194.138 178.426 193.902C178.166 193.56 178.178 193.105 178.254 192.713C178.334 192.299 178.513 191.822 178.744 191.323C179.209 190.32 179.929 189.139 180.672 188.02C180.726 187.94 180.779 187.86 180.833 187.78C180.355 188.221 179.856 188.673 179.353 189.118C178.061 190.264 176.733 191.369 175.684 192.084C175.165 192.437 174.681 192.717 174.286 192.848C174.093 192.912 173.868 192.959 173.649 192.917C173.392 192.868 173.186 192.701 173.093 192.441C173.018 192.232 173.027 191.997 173.058 191.787C173.09 191.568 173.157 191.32 173.246 191.057C173.424 190.529 173.709 189.887 174.059 189.182C174.577 188.14 175.251 186.934 175.973 185.71C175.102 186.679 174.231 187.555 173.45 188.173C172.91 188.599 172.374 188.935 171.884 189.069C171.633 189.138 171.368 189.161 171.111 189.093C170.844 189.022 170.625 188.861 170.462 188.63C170.277 188.367 170.224 188.035 170.227 187.71C170.23 187.377 170.293 186.993 170.398 186.575C170.607 185.738 171.003 184.698 171.527 183.532C172.575 181.197 174.166 178.291 175.911 175.374C177.658 172.454 179.565 169.511 181.251 167.097C182.927 164.698 184.411 162.783 185.306 161.953C185.8 161.495 186.77 160.999 188.01 160.481C189.272 159.954 190.877 159.38 192.697 158.784C196.339 157.591 200.868 156.3 205.284 155.111C209.702 153.92 214.011 152.83 217.216 152.036C218.819 151.64 220.146 151.318 221.072 151.094C221.535 150.983 221.898 150.896 222.145 150.837C222.239 150.815 222.317 150.796 222.377 150.782C222.432 150.715 222.51 150.62 222.61 150.498C222.825 150.237 223.142 149.854 223.549 149.367C224.363 148.392 225.538 147 226.981 145.327C229.866 141.983 233.826 137.516 238.123 133.031C242.418 128.548 247.058 124.038 251.302 120.611C253.424 118.898 255.456 117.448 257.303 116.407ZM184.142 183.999L184.493 184.275L183.826 183.684L184.142 183.999ZM181.212 178.268L181.582 178.517L180.844 178.015L181.212 178.268ZM222.627 151.181L222.73 151.615L222.974 151.462L222.627 151.181Z" fill="#001A39"/>
<path fill-rule="evenodd" clip-rule="evenodd" d="M172.761 181.315C174.509 177.891 176.982 173.777 179.328 170.204L179.826 170.53C177.487 174.091 175.027 178.186 173.292 181.584C172.424 183.285 171.742 184.802 171.347 185.987C171.149 186.58 171.028 187.078 170.987 187.467C170.945 187.871 170.996 188.096 171.071 188.203L171.071 188.204C171.141 188.303 171.218 188.353 171.303 188.376C171.394 188.4 171.518 188.399 171.686 188.354C172.027 188.26 172.468 188.001 172.986 187.591C174.015 186.778 175.244 185.458 176.433 184.045C177.618 182.636 178.752 181.149 179.59 180.014C180.009 179.446 180.353 178.967 180.593 178.63C180.713 178.462 180.806 178.329 180.87 178.238C180.902 178.193 180.926 178.158 180.942 178.134L180.961 178.108L180.967 178.099C180.967 178.099 180.967 178.099 181.212 178.268C181.459 178.434 181.459 178.434 181.459 178.434L181.435 178.469C181.42 178.492 181.396 178.527 181.366 178.572C181.306 178.662 181.217 178.795 181.104 178.965C180.879 179.304 180.557 179.791 180.173 180.381C179.404 181.561 178.387 183.151 177.388 184.794C176.389 186.438 175.413 188.129 174.726 189.513C174.381 190.205 174.114 190.812 173.951 191.294C173.87 191.535 173.818 191.736 173.794 191.896C173.77 192.059 173.78 192.148 173.793 192.188C173.828 192.194 173.908 192.19 174.052 192.143C174.343 192.046 174.755 191.816 175.264 191.47C176.273 190.784 177.57 189.704 178.859 188.563C180.145 187.423 181.414 186.229 182.361 185.32C182.834 184.866 183.227 184.483 183.502 184.213C183.639 184.078 183.746 183.972 183.82 183.9C183.856 183.863 183.884 183.836 183.903 183.817L183.931 183.789C183.931 183.789 183.932 183.789 184.142 183.999C184.376 184.183 184.376 184.183 184.376 184.183L184.375 184.183L184.371 184.189L184.358 184.206C184.346 184.221 184.328 184.244 184.304 184.274C184.258 184.334 184.189 184.422 184.102 184.534C183.928 184.759 183.68 185.083 183.387 185.476C182.799 186.262 182.028 187.325 181.292 188.431C180.555 189.54 179.86 190.684 179.42 191.635C179.199 192.111 179.048 192.525 178.985 192.855C178.918 193.199 178.96 193.375 179.019 193.452C179.021 193.455 179.021 193.455 179.025 193.457C179.032 193.459 179.051 193.465 179.09 193.464C179.173 193.463 179.304 193.432 179.49 193.352C179.859 193.193 180.354 192.881 180.951 192.443C182.141 191.572 183.67 190.255 185.298 188.835C185.481 188.675 185.666 188.514 185.851 188.353C187.308 187.082 188.816 185.765 190.197 184.655C191.743 183.413 193.166 182.399 194.192 182.014L194.402 182.571C193.478 182.917 192.125 183.869 190.57 185.118C189.2 186.22 187.701 187.528 186.243 188.8C186.058 188.962 185.873 189.123 185.69 189.283C184.066 190.698 182.518 192.033 181.303 192.922C180.699 193.365 180.16 193.71 179.726 193.897C179.511 193.99 179.298 194.054 179.103 194.059C178.898 194.063 178.688 194 178.545 193.812C178.325 193.523 178.326 193.124 178.4 192.742C178.477 192.344 178.65 191.88 178.879 191.385C179.339 190.392 180.054 189.219 180.796 188.103C181.108 187.634 181.425 187.173 181.732 186.738C180.976 187.451 180.12 188.241 179.254 189.007C177.962 190.152 176.641 191.252 175.6 191.961C175.083 192.312 174.613 192.583 174.239 192.707C174.055 192.768 173.858 192.806 173.677 192.771C173.47 192.732 173.308 192.6 173.233 192.391C173.17 192.216 173.175 192.01 173.205 191.809C173.236 191.601 173.299 191.363 173.387 191.104C173.562 190.585 173.843 189.951 174.192 189.248C174.891 187.842 175.877 186.134 176.879 184.486C176.914 184.428 176.949 184.371 176.984 184.314C176.952 184.352 176.92 184.39 176.889 184.427C175.695 185.846 174.435 187.205 173.356 188.057C172.821 188.481 172.303 188.801 171.843 188.927C171.61 188.991 171.372 189.01 171.149 188.95C170.918 188.888 170.727 188.75 170.583 188.544C170.379 188.254 170.349 187.842 170.394 187.405C170.442 186.955 170.578 186.411 170.782 185.799C171.191 184.573 171.888 183.025 172.761 181.315ZM184.142 183.999L184.376 184.183L183.931 183.789L184.142 183.999ZM181.212 178.268L181.459 178.434L180.967 178.099L181.212 178.268Z" fill="white"/>
<path fill-rule="evenodd" clip-rule="evenodd" d="M255.503 117.685C258.077 115.982 260.418 114.886 262.291 114.791L262.321 115.385C260.62 115.471 258.394 116.486 255.831 118.18C253.281 119.867 250.44 122.196 247.518 124.852L247.117 124.412C250.05 121.747 252.916 119.395 255.503 117.685Z" fill="white"/>
<path fill-rule="evenodd" clip-rule="evenodd" d="M192.009 162.709C192.009 162.709 192.009 162.709 192.207 163.109C192.405 163.509 192.405 163.509 192.405 163.509L192.398 163.512L192.379 163.521C192.362 163.53 192.336 163.543 192.302 163.56C192.234 163.594 192.134 163.644 192.007 163.71C191.753 163.84 191.39 164.029 190.956 164.262C190.087 164.73 188.936 165.376 187.803 166.091C186.666 166.809 185.565 167.585 184.785 168.311C184.394 168.676 184.101 169.011 183.923 169.306C183.741 169.607 183.714 169.806 183.741 169.928C183.746 169.947 183.774 170.057 184.135 170.132C184.478 170.204 184.984 170.207 185.626 170.142C186.902 170.013 188.576 169.63 190.259 169.17C191.936 168.711 193.599 168.182 194.844 167.766C195.467 167.558 195.984 167.379 196.345 167.252C196.526 167.188 196.668 167.138 196.764 167.103C196.812 167.086 196.849 167.073 196.874 167.064L196.902 167.054L196.91 167.051L196.91 167.051C196.911 167.051 196.911 167.051 197.064 167.469C197.217 167.888 197.217 167.888 197.217 167.888L197.207 167.892L197.178 167.902C197.153 167.912 197.115 167.925 197.066 167.943C196.968 167.978 196.825 168.029 196.642 168.093C196.277 168.221 195.755 168.402 195.128 168.611C193.874 169.03 192.193 169.566 190.495 170.03C188.802 170.493 187.069 170.892 185.716 171.029C185.045 171.097 184.431 171.105 183.953 171.005C183.49 170.909 182.993 170.672 182.87 170.123C182.769 169.677 182.924 169.233 183.158 168.845C183.397 168.451 183.756 168.05 184.175 167.66C185.016 166.876 186.173 166.065 187.325 165.338C188.482 164.608 189.652 163.951 190.532 163.478C190.972 163.241 191.341 163.049 191.599 162.916C191.729 162.85 191.83 162.799 191.9 162.763C191.935 162.746 191.962 162.732 191.98 162.723L192.001 162.713L192.009 162.709Z" fill="#001A39"/>
<path fill-rule="evenodd" clip-rule="evenodd" d="M361.015 137.257C361.015 137.257 361.014 137.257 361.191 137.018C361.367 136.778 361.367 136.778 361.367 136.778L361.384 136.791L361.435 136.828C361.479 136.861 361.545 136.91 361.63 136.973C361.801 137.101 362.051 137.288 362.368 137.529C363.001 138.012 363.903 138.708 364.976 139.566C367.122 141.282 369.956 143.644 372.703 146.23C375.448 148.813 378.118 151.629 379.928 154.251C380.833 155.562 381.532 156.837 381.914 158.019C382.296 159.201 382.37 160.317 381.986 161.289C381.409 162.749 380.073 163.792 378.463 164.541C376.848 165.291 374.912 165.767 373.06 166.07C371.206 166.374 369.422 166.506 368.103 166.562C367.443 166.59 366.898 166.599 366.518 166.601C366.327 166.602 366.178 166.602 366.077 166.601C366.026 166.6 365.987 166.6 365.96 166.599L365.93 166.599L365.92 166.599L365.919 166.599C365.919 166.599 365.919 166.599 365.926 166.301C365.933 166.004 365.933 166.004 365.933 166.004L365.933 166.004L365.941 166.004L365.97 166.005C365.995 166.005 366.033 166.006 366.082 166.006C366.181 166.007 366.327 166.008 366.514 166.007C366.888 166.005 367.425 165.996 368.077 165.968C369.382 165.912 371.141 165.782 372.964 165.484C374.79 165.185 376.666 164.72 378.211 164.002C379.762 163.281 380.936 162.326 381.432 161.071C381.747 160.274 381.705 159.309 381.347 158.202C380.989 157.096 380.325 155.875 379.438 154.589C377.663 152.018 375.029 149.235 372.294 146.662C369.563 144.091 366.742 141.74 364.604 140.03C363.535 139.176 362.637 138.482 362.006 138.002C361.691 137.762 361.443 137.576 361.274 137.449C361.189 137.386 361.124 137.338 361.08 137.306L361.031 137.269L361.015 137.257Z" fill="white"/>
<path d="M351.72 88.8389C351.723 89.9505 351.476 91.0504 350.997 92.0551C350.431 91.9362 349.889 91.8051 349.365 91.6684C344.284 90.3398 341.05 88.3216 341.05 88.3216C341.05 88.3216 343.049 85.5723 347.149 83.0428C347.468 82.8496 347.804 82.6535 348.15 82.4484C350.374 83.8156 351.726 86.2351 351.72 88.8389Z" fill="#001A39"/>
<path d="M48.8632 112.139C46.2128 114.404 43.1305 116.104 39.7981 117.139C36.1322 114.99 34.9082 110.284 37.0584 106.625C37.5229 105.835 38.1275 105.133 38.8392 104.557C41.987 105.9 44.8399 107.844 47.2372 110.281C47.8209 110.864 48.3659 111.485 48.8632 112.139Z" fill="#001A39"/>
<path d="M178.719 91.7964C183.933 91.7964 188.16 87.5778 188.16 82.374C188.16 77.1702 183.933 72.9517 178.719 72.9517C173.506 72.9517 169.279 77.1702 169.279 82.374C169.279 87.5778 173.506 91.7964 178.719 91.7964Z" fill="white"/>
<path d="M384.532 142.814C388.525 142.814 391.763 139.582 391.763 135.597C391.763 131.611 388.525 128.38 384.532 128.38C380.539 128.38 377.302 131.611 377.302 135.597C377.302 139.582 380.539 142.814 384.532 142.814Z" fill="white"/>
<path d="M370.467 230.023C372.51 230.023 374.166 228.37 374.166 226.331C374.166 224.292 372.51 222.639 370.467 222.639C368.425 222.639 366.769 224.292 366.769 226.331C366.769 228.37 368.425 230.023 370.467 230.023Z" fill="white"/>
<path d="M37.8893 224.715C39.2577 224.715 40.367 223.609 40.367 222.244C40.367 220.88 39.2577 219.774 37.8893 219.774C36.5209 219.774 35.4116 220.88 35.4116 222.244C35.4116 223.609 36.5209 224.715 37.8893 224.715Z" fill="white"/>
<path d="M46.5224 114.259C47.8908 114.259 49.0001 113.153 49.0001 111.789C49.0001 110.424 47.8908 109.318 46.5224 109.318C45.154 109.318 44.0447 110.424 44.0447 111.789C44.0447 113.153 45.154 114.259 46.5224 114.259Z" fill="white"/>
<path d="M98.4022 155.816C100.289 155.816 101.818 154.29 101.818 152.408C101.818 150.525 100.289 148.999 98.4022 148.999C96.5157 148.999 94.9865 150.525 94.9865 152.408C94.9865 154.29 96.5157 155.816 98.4022 155.816Z" fill="white"/>
<path d="M136.86 254.744C139.275 254.744 141.232 252.79 141.232 250.38C141.232 247.971 139.275 246.017 136.86 246.017C134.446 246.017 132.489 247.971 132.489 250.38C132.489 252.79 134.446 254.744 136.86 254.744Z" fill="white"/>
<path d="M361.191 50.5908C363.329 50.5908 365.062 48.8608 365.062 46.7267C365.062 44.5927 363.329 42.8627 361.191 42.8627C359.053 42.8627 357.319 44.5927 357.319 46.7267C357.319 48.8608 359.053 50.5908 361.191 50.5908Z" fill="white"/>
<path d="M292.694 50.4072C294.074 50.4072 295.192 49.292 295.192 47.9162C295.192 46.5404 294.074 45.4252 292.694 45.4252C291.314 45.4252 290.195 46.5404 290.195 47.9162C290.195 49.292 291.314 50.4072 292.694 50.4072Z" fill="white"/>
<path d="M262.306 113.058C264.477 113.058 266.237 111.301 266.237 109.134C266.237 106.967 264.477 105.211 262.306 105.211C260.135 105.211 258.375 106.967 258.375 109.134C258.375 111.301 260.135 113.058 262.306 113.058Z" fill="white"/>
<path d="M343.376 90.6053C344.756 90.6053 345.875 89.49 345.875 88.1142C345.875 86.7383 344.756 85.6228 343.376 85.6228C341.996 85.6228 340.877 86.7383 340.877 88.1142C340.877 89.49 341.996 90.6053 343.376 90.6053Z" fill="white"/>
<path d="M455.078 78.4145C456.81 78.4145 458.214 77.0146 458.214 75.2878C458.214 73.5609 456.81 72.161 455.078 72.161C453.346 72.161 451.942 73.5609 451.942 75.2878C451.942 77.0146 453.346 78.4145 455.078 78.4145Z" fill="white"/>
<path d="M443.595 285.243C444.975 285.243 446.094 284.128 446.094 282.752C446.094 281.376 444.975 280.261 443.595 280.261C442.215 280.261 441.097 281.376 441.097 282.752C441.097 284.128 442.215 285.243 443.595 285.243Z" fill="white"/>
<path d="M462.628 228.708C463.504 228.708 464.215 228 464.215 227.126C464.215 226.252 463.504 225.543 462.628 225.543C461.751 225.543 461.041 226.252 461.041 227.126C461.041 228 461.751 228.708 462.628 228.708Z" fill="white"/>
<rect x="71" y="344" width="383" height="64" rx="16" fill="#AF687D"/>
<rect x="61" y="346" width="366" height="55" rx="14" fill="white" stroke="#742A40" stroke-width="4"/>
<path d="M87.722 380L84.95 375.104H83.762V380H81.242V367.436H85.958C86.93 367.436 87.758 367.61 88.442 367.958C89.126 368.294 89.636 368.756 89.972 369.344C90.32 369.92 90.494 370.568 90.494 371.288C90.494 372.116 90.254 372.866 89.774 373.538C89.294 374.198 88.58 374.654 87.632 374.906L90.638 380H87.722ZM83.762 373.214H85.868C86.552 373.214 87.062 373.052 87.398 372.728C87.734 372.392 87.902 371.93 87.902 371.342C87.902 370.766 87.734 370.322 87.398 370.01C87.062 369.686 86.552 369.524 85.868 369.524H83.762V373.214ZM102.043 374.798C102.043 375.158 102.019 375.482 101.971 375.77H94.6813C94.7413 376.49 94.9933 377.054 95.4373 377.462C95.8813 377.87 96.4273 378.074 97.0753 378.074C98.0113 378.074 98.6773 377.672 99.0733 376.868H101.791C101.503 377.828 100.951 378.62 100.135 379.244C99.3193 379.856 98.3173 380.162 97.1293 380.162C96.1693 380.162 95.3053 379.952 94.5373 379.532C93.7813 379.1 93.1873 378.494 92.7553 377.714C92.3353 376.934 92.1252 376.034 92.1252 375.014C92.1252 373.982 92.3353 373.076 92.7553 372.296C93.1753 371.516 93.7633 370.916 94.5193 370.496C95.2753 370.076 96.1453 369.866 97.1293 369.866C98.0773 369.866 98.9233 370.07 99.6673 370.478C100.423 370.886 101.005 371.468 101.413 372.224C101.833 372.968 102.043 373.826 102.043 374.798ZM99.4333 374.078C99.4213 373.43 99.1873 372.914 98.7313 372.53C98.2753 372.134 97.7173 371.936 97.0573 371.936C96.4333 371.936 95.9053 372.128 95.4733 372.512C95.0533 372.884 94.7953 373.406 94.6993 374.078H99.4333ZM106.403 371.468C106.727 371.012 107.171 370.634 107.735 370.334C108.311 370.022 108.965 369.866 109.697 369.866C110.549 369.866 111.317 370.076 112.001 370.496C112.697 370.916 113.243 371.516 113.639 372.296C114.047 373.064 114.251 373.958 114.251 374.978C114.251 375.998 114.047 376.904 113.639 377.696C113.243 378.476 112.697 379.082 112.001 379.514C111.317 379.946 110.549 380.162 109.697 380.162C108.965 380.162 108.317 380.012 107.753 379.712C107.201 379.412 106.751 379.034 106.403 378.578V384.752H103.883V370.028H106.403V371.468ZM111.677 374.978C111.677 374.378 111.551 373.862 111.299 373.43C111.059 372.986 110.735 372.65 110.327 372.422C109.931 372.194 109.499 372.08 109.031 372.08C108.575 372.08 108.143 372.2 107.735 372.44C107.339 372.668 107.015 373.004 106.763 373.448C106.523 373.892 106.403 374.414 106.403 375.014C106.403 375.614 106.523 376.136 106.763 376.58C107.015 377.024 107.339 377.366 107.735 377.606C108.143 377.834 108.575 377.948 109.031 377.948C109.499 377.948 109.931 377.828 110.327 377.588C110.735 377.348 111.059 377.006 111.299 376.562C111.551 376.118 111.677 375.59 111.677 374.978ZM118.602 366.68V380H116.082V366.68H118.602ZM120.444 374.978C120.444 373.97 120.642 373.076 121.038 372.296C121.446 371.516 121.992 370.916 122.676 370.496C123.372 370.076 124.146 369.866 124.998 369.866C125.742 369.866 126.39 370.016 126.942 370.316C127.506 370.616 127.956 370.994 128.292 371.45V370.028H130.83V380H128.292V378.542C127.968 379.01 127.518 379.4 126.942 379.712C126.378 380.012 125.724 380.162 124.98 380.162C124.14 380.162 123.372 379.946 122.676 379.514C121.992 379.082 121.446 378.476 121.038 377.696C120.642 376.904 120.444 375.998 120.444 374.978ZM128.292 375.014C128.292 374.402 128.172 373.88 127.932 373.448C127.692 373.004 127.368 372.668 126.96 372.44C126.552 372.2 126.114 372.08 125.646 372.08C125.178 372.08 124.746 372.194 124.35 372.422C123.954 372.65 123.63 372.986 123.378 373.43C123.138 373.862 123.018 374.378 123.018 374.978C123.018 375.578 123.138 376.106 123.378 376.562C123.63 377.006 123.954 377.348 124.35 377.588C124.758 377.828 125.19 377.948 125.646 377.948C126.114 377.948 126.552 377.834 126.96 377.606C127.368 377.366 127.692 377.03 127.932 376.598C128.172 376.154 128.292 375.626 128.292 375.014ZM132.643 375.014C132.643 373.982 132.853 373.082 133.273 372.314C133.693 371.534 134.275 370.934 135.019 370.514C135.763 370.082 136.615 369.866 137.575 369.866C138.811 369.866 139.831 370.178 140.635 370.802C141.451 371.414 141.997 372.278 142.273 373.394H139.555C139.411 372.962 139.165 372.626 138.817 372.386C138.481 372.134 138.061 372.008 137.557 372.008C136.837 372.008 136.267 372.272 135.847 372.8C135.427 373.316 135.217 374.054 135.217 375.014C135.217 375.962 135.427 376.7 135.847 377.228C136.267 377.744 136.837 378.002 137.557 378.002C138.577 378.002 139.243 377.546 139.555 376.634H142.273C141.997 377.714 141.451 378.572 140.635 379.208C139.819 379.844 138.799 380.162 137.575 380.162C136.615 380.162 135.763 379.952 135.019 379.532C134.275 379.1 133.693 378.5 133.273 377.732C132.853 376.952 132.643 376.046 132.643 375.014ZM153.389 374.798C153.389 375.158 153.365 375.482 153.317 375.77H146.027C146.087 376.49 146.339 377.054 146.783 377.462C147.227 377.87 147.773 378.074 148.421 378.074C149.357 378.074 150.023 377.672 150.419 376.868H153.137C152.849 377.828 152.297 378.62 151.481 379.244C150.665 379.856 149.663 380.162 148.475 380.162C147.515 380.162 146.651 379.952 145.883 379.532C145.127 379.1 144.533 378.494 144.101 377.714C143.681 376.934 143.471 376.034 143.471 375.014C143.471 373.982 143.681 373.076 144.101 372.296C144.521 371.516 145.109 370.916 145.865 370.496C146.621 370.076 147.491 369.866 148.475 369.866C149.423 369.866 150.269 370.07 151.013 370.478C151.769 370.886 152.351 371.468 152.759 372.224C153.179 372.968 153.389 373.826 153.389 374.798ZM150.779 374.078C150.767 373.43 150.533 372.914 150.077 372.53C149.621 372.134 149.063 371.936 148.403 371.936C147.779 371.936 147.251 372.128 146.819 372.512C146.399 372.884 146.141 373.406 146.045 374.078H150.779ZM169.057 370.028L162.883 384.716H160.201L162.361 379.748L158.365 370.028H161.191L163.765 376.994L166.375 370.028H169.057ZM174.844 380.162C173.884 380.162 173.02 379.952 172.252 379.532C171.484 379.1 170.878 378.494 170.434 377.714C170.002 376.934 169.786 376.034 169.786 375.014C169.786 373.994 170.008 373.094 170.452 372.314C170.908 371.534 171.526 370.934 172.306 370.514C173.086 370.082 173.956 369.866 174.916 369.866C175.876 369.866 176.746 370.082 177.526 370.514C178.306 370.934 178.918 371.534 179.362 372.314C179.818 373.094 180.046 373.994 180.046 375.014C180.046 376.034 179.812 376.934 179.344 377.714C178.888 378.494 178.264 379.1 177.472 379.532C176.692 379.952 175.816 380.162 174.844 380.162ZM174.844 377.966C175.3 377.966 175.726 377.858 176.122 377.642C176.53 377.414 176.854 377.078 177.094 376.634C177.334 376.19 177.454 375.65 177.454 375.014C177.454 374.066 177.202 373.34 176.698 372.836C176.206 372.32 175.6 372.062 174.88 372.062C174.16 372.062 173.554 372.32 173.062 372.836C172.582 373.34 172.342 374.066 172.342 375.014C172.342 375.962 172.576 376.694 173.044 377.21C173.524 377.714 174.124 377.966 174.844 377.966ZM191.308 370.028V380H188.77V378.74C188.446 379.172 188.02 379.514 187.492 379.766C186.976 380.006 186.412 380.126 185.8 380.126C185.02 380.126 184.33 379.964 183.73 379.64C183.13 379.304 182.656 378.818 182.308 378.182C181.972 377.534 181.804 376.766 181.804 375.878V370.028H184.324V375.518C184.324 376.31 184.522 376.922 184.918 377.354C185.314 377.774 185.854 377.984 186.538 377.984C187.234 377.984 187.78 377.774 188.176 377.354C188.572 376.922 188.77 376.31 188.77 375.518V370.028H191.308ZM196.315 371.576C196.639 371.048 197.059 370.634 197.575 370.334C198.103 370.034 198.703 369.884 199.375 369.884V372.53H198.709C197.917 372.53 197.317 372.716 196.909 373.088C196.513 373.46 196.315 374.108 196.315 375.032V380H193.795V370.028H196.315V371.576ZM207.881 371.468C208.205 371.012 208.649 370.634 209.213 370.334C209.789 370.022 210.443 369.866 211.175 369.866C212.027 369.866 212.795 370.076 213.479 370.496C214.175 370.916 214.721 371.516 215.117 372.296C215.525 373.064 215.729 373.958 215.729 374.978C215.729 375.998 215.525 376.904 215.117 377.696C214.721 378.476 214.175 379.082 213.479 379.514C212.795 379.946 212.027 380.162 211.175 380.162C210.443 380.162 209.795 380.012 209.231 379.712C208.679 379.412 208.229 379.034 207.881 378.578V384.752H205.361V370.028H207.881V371.468ZM213.155 374.978C213.155 374.378 213.029 373.862 212.777 373.43C212.537 372.986 212.213 372.65 211.805 372.422C211.409 372.194 210.977 372.08 210.509 372.08C210.053 372.08 209.621 372.2 209.213 372.44C208.817 372.668 208.493 373.004 208.241 373.448C208.001 373.892 207.881 374.414 207.881 375.014C207.881 375.614 208.001 376.136 208.241 376.58C208.493 377.024 208.817 377.366 209.213 377.606C209.621 377.834 210.053 377.948 210.509 377.948C210.977 377.948 211.409 377.828 211.805 377.588C212.213 377.348 212.537 377.006 212.777 376.562C213.029 376.118 213.155 375.59 213.155 374.978ZM220.08 371.576C220.404 371.048 220.824 370.634 221.34 370.334C221.868 370.034 222.468 369.884 223.14 369.884V372.53H222.474C221.682 372.53 221.082 372.716 220.674 373.088C220.278 373.46 220.08 374.108 220.08 375.032V380H217.56V370.028H220.08V371.576ZM226.116 368.84C225.672 368.84 225.3 368.702 225 368.426C224.712 368.138 224.568 367.784 224.568 367.364C224.568 366.944 224.712 366.596 225 366.32C225.3 366.032 225.672 365.888 226.116 365.888C226.56 365.888 226.926 366.032 227.214 366.32C227.514 366.596 227.664 366.944 227.664 367.364C227.664 367.784 227.514 368.138 227.214 368.426C226.926 368.702 226.56 368.84 226.116 368.84ZM227.358 370.028V380H224.838V370.028H227.358ZM234.005 377.678L236.525 370.028H239.207L235.517 380H232.457L228.785 370.028H231.485L234.005 377.678ZM239.975 374.978C239.975 373.97 240.173 373.076 240.569 372.296C240.977 371.516 241.523 370.916 242.207 370.496C242.903 370.076 243.677 369.866 244.529 369.866C245.273 369.866 245.921 370.016 246.473 370.316C247.037 370.616 247.487 370.994 247.823 371.45V370.028H250.361V380H247.823V378.542C247.499 379.01 247.049 379.4 246.473 379.712C245.909 380.012 245.255 380.162 244.511 380.162C243.671 380.162 242.903 379.946 242.207 379.514C241.523 379.082 240.977 378.476 240.569 377.696C240.173 376.904 239.975 375.998 239.975 374.978ZM247.823 375.014C247.823 374.402 247.703 373.88 247.463 373.448C247.223 373.004 246.899 372.668 246.491 372.44C246.083 372.2 245.645 372.08 245.177 372.08C244.709 372.08 244.277 372.194 243.881 372.422C243.485 372.65 243.161 372.986 242.909 373.43C242.669 373.862 242.549 374.378 242.549 374.978C242.549 375.578 242.669 376.106 242.909 376.562C243.161 377.006 243.485 377.348 243.881 377.588C244.289 377.828 244.721 377.948 245.177 377.948C245.645 377.948 246.083 377.834 246.491 377.606C246.899 377.366 247.223 377.03 247.463 376.598C247.703 376.154 247.823 375.626 247.823 375.014ZM252.174 375.014C252.174 373.982 252.384 373.082 252.804 372.314C253.224 371.534 253.806 370.934 254.55 370.514C255.294 370.082 256.146 369.866 257.106 369.866C258.342 369.866 259.362 370.178 260.166 370.802C260.982 371.414 261.528 372.278 261.804 373.394H259.086C258.942 372.962 258.696 372.626 258.348 372.386C258.012 372.134 257.592 372.008 257.088 372.008C256.368 372.008 255.798 372.272 255.378 372.8C254.958 373.316 254.748 374.054 254.748 375.014C254.748 375.962 254.958 376.7 255.378 377.228C255.798 377.744 256.368 378.002 257.088 378.002C258.108 378.002 258.774 377.546 259.086 376.634H261.804C261.528 377.714 260.982 378.572 260.166 379.208C259.35 379.844 258.33 380.162 257.106 380.162C256.146 380.162 255.294 379.952 254.55 379.532C253.806 379.1 253.224 378.5 252.804 377.732C252.384 376.952 252.174 376.046 252.174 375.014ZM273.19 370.028L267.016 384.716H264.334L266.494 379.748L262.498 370.028H265.324L267.898 376.994L270.508 370.028H273.19ZM282.996 377.678L285.516 370.028H288.198L284.508 380H281.448L277.776 370.028H280.476L282.996 377.678ZM290.891 368.84C290.447 368.84 290.075 368.702 289.775 368.426C289.487 368.138 289.343 367.784 289.343 367.364C289.343 366.944 289.487 366.596 289.775 366.32C290.075 366.032 290.447 365.888 290.891 365.888C291.335 365.888 291.701 366.032 291.989 366.32C292.289 366.596 292.439 366.944 292.439 367.364C292.439 367.784 292.289 368.138 291.989 368.426C291.701 368.702 291.335 368.84 290.891 368.84ZM292.133 370.028V380H289.613V370.028H292.133ZM299.051 380.162C298.091 380.162 297.227 379.952 296.459 379.532C295.691 379.1 295.085 378.494 294.641 377.714C294.209 376.934 293.993 376.034 293.993 375.014C293.993 373.994 294.215 373.094 294.659 372.314C295.115 371.534 295.733 370.934 296.513 370.514C297.293 370.082 298.163 369.866 299.123 369.866C300.083 369.866 300.953 370.082 301.733 370.514C302.513 370.934 303.125 371.534 303.569 372.314C304.025 373.094 304.253 373.994 304.253 375.014C304.253 376.034 304.019 376.934 303.551 377.714C303.095 378.494 302.471 379.1 301.679 379.532C300.899 379.952 300.023 380.162 299.051 380.162ZM299.051 377.966C299.507 377.966 299.933 377.858 300.329 377.642C300.737 377.414 301.061 377.078 301.301 376.634C301.541 376.19 301.661 375.65 301.661 375.014C301.661 374.066 301.409 373.34 300.905 372.836C300.413 372.32 299.807 372.062 299.087 372.062C298.367 372.062 297.761 372.32 297.269 372.836C296.789 373.34 296.549 374.066 296.549 375.014C296.549 375.962 296.783 376.694 297.251 377.21C297.731 377.714 298.331 377.966 299.051 377.966ZM308.621 366.68V380H306.101V366.68H308.621ZM310.463 374.978C310.463 373.97 310.661 373.076 311.057 372.296C311.465 371.516 312.011 370.916 312.695 370.496C313.391 370.076 314.165 369.866 315.017 369.866C315.761 369.866 316.409 370.016 316.961 370.316C317.525 370.616 317.975 370.994 318.311 371.45V370.028H320.849V380H318.311V378.542C317.987 379.01 317.537 379.4 316.961 379.712C316.397 380.012 315.743 380.162 314.999 380.162C314.159 380.162 313.391 379.946 312.695 379.514C312.011 379.082 311.465 378.476 311.057 377.696C310.661 376.904 310.463 375.998 310.463 374.978ZM318.311 375.014C318.311 374.402 318.191 373.88 317.951 373.448C317.711 373.004 317.387 372.668 316.979 372.44C316.571 372.2 316.133 372.08 315.665 372.08C315.197 372.08 314.765 372.194 314.369 372.422C313.973 372.65 313.649 372.986 313.397 373.43C313.157 373.862 313.037 374.378 313.037 374.978C313.037 375.578 313.157 376.106 313.397 376.562C313.649 377.006 313.973 377.348 314.369 377.588C314.777 377.828 315.209 377.948 315.665 377.948C316.133 377.948 316.571 377.834 316.979 377.606C317.387 377.366 317.711 377.03 317.951 376.598C318.191 376.154 318.311 375.626 318.311 375.014ZM326.244 372.098V376.922C326.244 377.258 326.322 377.504 326.478 377.66C326.646 377.804 326.922 377.876 327.306 377.876H328.476V380H326.892C324.768 380 323.706 378.968 323.706 376.904V372.098H322.518V370.028H323.706V367.562H326.244V370.028H328.476V372.098H326.244ZM331.567 368.84C331.123 368.84 330.751 368.702 330.451 368.426C330.163 368.138 330.019 367.784 330.019 367.364C330.019 366.944 330.163 366.596 330.451 366.32C330.751 366.032 331.123 365.888 331.567 365.888C332.011 365.888 332.377 366.032 332.665 366.32C332.965 366.596 333.115 366.944 333.115 367.364C333.115 367.784 332.965 368.138 332.665 368.426C332.377 368.702 332.011 368.84 331.567 368.84ZM332.809 370.028V380H330.289V370.028H332.809ZM340.825 369.884C342.013 369.884 342.973 370.262 343.705 371.018C344.437 371.762 344.803 372.806 344.803 374.15V380H342.283V374.492C342.283 373.7 342.085 373.094 341.689 372.674C341.293 372.242 340.753 372.026 340.069 372.026C339.373 372.026 338.821 372.242 338.413 372.674C338.017 373.094 337.819 373.7 337.819 374.492V380H335.299V370.028H337.819V371.27C338.155 370.838 338.581 370.502 339.097 370.262C339.625 370.01 340.201 369.884 340.825 369.884ZM351.105 369.866C351.849 369.866 352.503 370.016 353.067 370.316C353.631 370.604 354.075 370.982 354.399 371.45V370.028H356.937V380.072C356.937 380.996 356.751 381.818 356.379 382.538C356.007 383.27 355.449 383.846 354.705 384.266C353.961 384.698 353.061 384.914 352.005 384.914C350.589 384.914 349.425 384.584 348.513 383.924C347.613 383.264 347.103 382.364 346.983 381.224H349.485C349.617 381.68 349.899 382.04 350.331 382.304C350.775 382.58 351.309 382.718 351.933 382.718C352.665 382.718 353.259 382.496 353.715 382.052C354.171 381.62 354.399 380.96 354.399 380.072V378.524C354.075 378.992 353.625 379.382 353.049 379.694C352.485 380.006 351.837 380.162 351.105 380.162C350.265 380.162 349.497 379.946 348.801 379.514C348.105 379.082 347.553 378.476 347.145 377.696C346.749 376.904 346.551 375.998 346.551 374.978C346.551 373.97 346.749 373.076 347.145 372.296C347.553 371.516 348.099 370.916 348.783 370.496C349.479 370.076 350.253 369.866 351.105 369.866ZM354.399 375.014C354.399 374.402 354.279 373.88 354.039 373.448C353.799 373.004 353.475 372.668 353.067 372.44C352.659 372.2 352.221 372.08 351.753 372.08C351.285 372.08 350.853 372.194 350.457 372.422C350.061 372.65 349.737 372.986 349.485 373.43C349.245 373.862 349.125 374.378 349.125 374.978C349.125 375.578 349.245 376.106 349.485 376.562C349.737 377.006 350.061 377.348 350.457 377.588C350.865 377.828 351.297 377.948 351.753 377.948C352.221 377.948 352.659 377.834 353.067 377.606C353.475 377.366 353.799 377.03 354.039 376.598C354.279 376.154 354.399 375.626 354.399 375.014ZM366.621 372.098V376.922C366.621 377.258 366.699 377.504 366.855 377.66C367.023 377.804 367.299 377.876 367.683 377.876H368.853V380H367.269C365.145 380 364.083 378.968 364.083 376.904V372.098H362.895V370.028H364.083V367.562H366.621V370.028H368.853V372.098H366.621ZM375.094 380.162C374.134 380.162 373.27 379.952 372.502 379.532C371.734 379.1 371.128 378.494 370.684 377.714C370.252 376.934 370.036 376.034 370.036 375.014C370.036 373.994 370.258 373.094 370.702 372.314C371.158 371.534 371.776 370.934 372.556 370.514C373.336 370.082 374.206 369.866 375.166 369.866C376.126 369.866 376.996 370.082 377.776 370.514C378.556 370.934 379.168 371.534 379.612 372.314C380.068 373.094 380.296 373.994 380.296 375.014C380.296 376.034 380.062 376.934 379.594 377.714C379.138 378.494 378.514 379.1 377.722 379.532C376.942 379.952 376.066 380.162 375.094 380.162ZM375.094 377.966C375.55 377.966 375.976 377.858 376.372 377.642C376.78 377.414 377.104 377.078 377.344 376.634C377.584 376.19 377.704 375.65 377.704 375.014C377.704 374.066 377.452 373.34 376.948 372.836C376.456 372.32 375.85 372.062 375.13 372.062C374.41 372.062 373.804 372.32 373.312 372.836C372.832 373.34 372.592 374.066 372.592 375.014C372.592 375.962 372.826 376.694 373.294 377.21C373.774 377.714 374.374 377.966 375.094 377.966ZM386.572 380.162C385.612 380.162 384.748 379.952 383.98 379.532C383.212 379.1 382.606 378.494 382.162 377.714C381.73 376.934 381.514 376.034 381.514 375.014C381.514 373.994 381.736 373.094 382.18 372.314C382.636 371.534 383.254 370.934 384.034 370.514C384.814 370.082 385.684 369.866 386.644 369.866C387.604 369.866 388.474 370.082 389.254 370.514C390.034 370.934 390.646 371.534 391.09 372.314C391.546 373.094 391.774 373.994 391.774 375.014C391.774 376.034 391.54 376.934 391.072 377.714C390.616 378.494 389.992 379.1 389.2 379.532C388.42 379.952 387.544 380.162 386.572 380.162ZM386.572 377.966C387.028 377.966 387.454 377.858 387.85 377.642C388.258 377.414 388.582 377.078 388.822 376.634C389.062 376.19 389.182 375.65 389.182 375.014C389.182 374.066 388.93 373.34 388.426 372.836C387.934 372.32 387.328 372.062 386.608 372.062C385.888 372.062 385.282 372.32 384.79 372.836C384.31 373.34 384.07 374.066 384.07 375.014C384.07 375.962 384.304 376.694 384.772 377.21C385.252 377.714 385.852 377.966 386.572 377.966ZM396.143 366.68V380H393.623V366.68H396.143ZM402.449 380.162C401.633 380.162 400.901 380.018 400.253 379.73C399.605 379.43 399.089 379.028 398.705 378.524C398.333 378.02 398.129 377.462 398.093 376.85H400.631C400.679 377.234 400.865 377.552 401.189 377.804C401.525 378.056 401.939 378.182 402.431 378.182C402.911 378.182 403.283 378.086 403.547 377.894C403.823 377.702 403.961 377.456 403.961 377.156C403.961 376.832 403.793 376.592 403.457 376.436C403.133 376.268 402.611 376.088 401.891 375.896C401.147 375.716 400.535 375.53 400.055 375.338C399.587 375.146 399.179 374.852 398.831 374.456C398.495 374.06 398.327 373.526 398.327 372.854C398.327 372.302 398.483 371.798 398.795 371.342C399.119 370.886 399.575 370.526 400.163 370.262C400.763 369.998 401.465 369.866 402.269 369.866C403.457 369.866 404.405 370.166 405.113 370.766C405.821 371.354 406.211 372.152 406.283 373.16H403.871C403.835 372.764 403.667 372.452 403.367 372.224C403.079 371.984 402.689 371.864 402.197 371.864C401.741 371.864 401.387 371.948 401.135 372.116C400.895 372.284 400.775 372.518 400.775 372.818C400.775 373.154 400.943 373.412 401.279 373.592C401.615 373.76 402.137 373.934 402.845 374.114C403.565 374.294 404.159 374.48 404.627 374.672C405.095 374.864 405.497 375.164 405.833 375.572C406.181 375.968 406.361 376.496 406.373 377.156C406.373 377.732 406.211 378.248 405.887 378.704C405.575 379.16 405.119 379.52 404.519 379.784C403.931 380.036 403.241 380.162 402.449 380.162Z" fill="#001A39"/>
</svg>
