<svg width="545" height="540" viewBox="0 0 545 540" fill="none" xmlns="http://www.w3.org/2000/svg">
<path d="M355.141 110.037H247.609V192.923H355.141V110.037Z" fill="#194D87"/>
<path d="M286.773 176.083C291.032 174.145 293.233 169.821 291.688 166.426C290.143 163.031 285.438 161.85 281.178 163.789C276.918 165.727 274.718 170.05 276.263 173.445C277.808 176.84 282.513 178.021 286.773 176.083Z" fill="white"/>
<path fill-rule="evenodd" clip-rule="evenodd" d="M310.348 124.075C311.394 125.548 311.818 127.056 311.064 128.412C310.267 129.847 308.895 130.926 307.166 131.732C305.437 132.537 303.318 133.084 300.973 133.437C296.283 134.142 290.607 134.082 285.141 133.695C279.67 133.308 274.385 132.591 270.47 131.971C268.987 131.736 267.699 131.515 266.672 131.331C266.945 131.5 267.237 131.682 267.545 131.876C269.457 133.082 271.991 134.758 274.477 136.64C276.958 138.518 279.41 140.616 281.144 142.664C282.011 143.688 282.713 144.717 283.145 145.716C283.577 146.714 283.754 147.718 283.514 148.663C283.335 149.369 282.856 149.973 282.193 150.489C281.531 151.006 280.653 151.462 279.611 151.868C277.526 152.68 274.7 153.323 271.402 153.835C264.799 154.86 256.202 155.37 247.621 155.593L247.596 154.625C256.166 154.402 264.713 153.893 271.253 152.878C274.526 152.37 277.272 151.739 279.259 150.965C280.253 150.578 281.036 150.163 281.597 149.725C282.159 149.287 282.466 148.851 282.574 148.425C282.744 147.756 282.636 146.98 282.255 146.101C281.875 145.221 281.237 144.274 280.404 143.29C278.739 141.322 276.352 139.275 273.892 137.412C271.435 135.553 268.926 133.892 267.028 132.696C266.08 132.098 265.286 131.616 264.729 131.285C264.451 131.119 264.232 130.99 264.083 130.904C264.008 130.86 263.951 130.827 263.913 130.805L263.87 130.78L263.857 130.773L263.856 130.772C263.856 130.772 263.856 130.772 264.096 130.351C264.193 129.877 264.193 129.877 264.194 129.877L264.195 129.877L264.222 129.883L264.308 129.9C264.385 129.915 264.498 129.938 264.647 129.967C264.945 130.026 265.384 130.11 265.944 130.213C267.065 130.421 268.673 130.705 270.622 131.014C274.52 131.631 279.775 132.344 285.209 132.729C290.649 133.114 296.243 133.168 300.829 132.479C303.122 132.134 305.142 131.606 306.757 130.853C308.373 130.101 309.552 129.138 310.217 127.941C310.7 127.073 310.521 125.992 309.558 124.635C308.6 123.285 306.943 121.786 304.765 120.202C300.416 117.039 294.123 113.632 287.605 110.473L288.028 109.601C294.557 112.765 300.914 116.203 305.334 119.418C307.54 121.022 309.298 122.595 310.348 124.075ZM264.096 130.351L264.194 129.877C263.96 129.829 263.726 129.958 263.642 130.181C263.559 130.404 263.649 130.654 263.856 130.772L264.096 130.351Z" fill="white"/>
<path fill-rule="evenodd" clip-rule="evenodd" d="M328.673 150.584C338.502 152.92 349.039 157.009 355.328 159.638L354.954 160.532C348.679 157.909 338.2 153.844 328.449 151.527C323.571 150.368 318.903 149.653 315.048 149.764C311.171 149.876 308.243 150.817 306.677 152.829M328.673 150.584C323.761 149.417 318.999 148.681 315.02 148.796L328.673 150.584ZM315.02 148.796C311.062 148.909 307.753 149.869 305.912 152.234L315.02 148.796ZM305.912 152.234L305.912 152.234L305.912 152.234ZM305.912 152.234C304.268 154.349 303.875 157.188 304.298 160.38L305.912 152.234ZM304.298 160.38C304.722 163.576 305.972 167.194 307.703 170.948L304.298 160.38ZM307.703 170.948C311.167 178.459 316.608 186.618 321.446 193.21L307.703 170.948ZM321.446 193.21L322.228 192.637L321.446 193.21ZM322.228 192.637C317.401 186.061 312.006 177.964 308.583 170.542L322.228 192.637ZM308.583 170.542C306.871 166.83 305.664 163.312 305.259 160.253L308.583 170.542ZM305.259 160.253C304.853 157.19 305.257 154.656 306.677 152.829L305.259 160.253Z" fill="white"/>
<path fill-rule="evenodd" clip-rule="evenodd" d="M323.288 111.964C323.474 111.155 323.834 110.391 324.349 109.737L325.11 110.337C324.687 110.874 324.389 111.503 324.235 112.174C324.103 112.846 324.357 113.533 325.054 114.263C325.758 114.999 326.865 115.72 328.283 116.412C331.114 117.794 335.043 118.992 339.048 119.977C343.047 120.961 347.092 121.724 350.14 122.242C351.664 122.501 352.937 122.698 353.829 122.831C354.275 122.897 354.625 122.947 354.864 122.981C354.984 122.997 355.075 123.01 355.137 123.018L355.206 123.028L355.229 123.031C355.229 123.031 355.229 123.031 355.165 123.511C355.101 123.991 355.101 123.991 355.101 123.991L355.077 123.988L355.006 123.978C354.943 123.97 354.85 123.957 354.73 123.94C354.488 123.907 354.135 123.856 353.687 123.789C352.789 123.656 351.509 123.458 349.978 123.198C346.917 122.677 342.846 121.909 338.817 120.918C334.794 119.929 330.784 118.711 327.858 117.283C326.399 116.571 325.174 115.79 324.354 114.932C323.529 114.07 323.067 113.074 323.286 111.977C323.287 111.973 323.287 111.969 323.288 111.964Z" fill="white"/>
<path d="M47.5691 173.854L22.463 131.752C14.033 117.62 24.2362 99.679 40.7088 99.679H90.8968C107.369 99.679 117.544 117.605 109.118 131.762L84.0122 173.854C75.7856 187.666 55.7957 187.666 47.5691 173.854Z" fill="#B1E4FD"/>
<path fill-rule="evenodd" clip-rule="evenodd" d="M100.236 105.905C100.774 104.775 102.124 104.092 103.851 103.68L104.076 104.622C102.393 105.024 101.446 105.619 101.111 106.321C100.7 107.193 100.784 108.372 101.329 109.817C101.868 111.25 102.828 112.855 104.026 114.508C106.419 117.812 109.699 121.221 112.246 123.691L111.572 124.387C109.012 121.905 105.684 118.449 103.241 115.077C102.02 113.392 101.005 111.707 100.422 110.159C99.8432 108.623 99.6567 107.132 100.236 105.906L100.236 105.905L100.236 105.905Z" fill="white"/>
<path fill-rule="evenodd" clip-rule="evenodd" d="M208.322 86.0552H317.307V170.395H208.322V86.0552ZM209.775 87.5086V168.941H315.854V87.5086H209.775Z" fill="#001A39"/>
<path fill-rule="evenodd" clip-rule="evenodd" d="M247.234 193.546L208.673 170.29L209.424 169.046L247.984 192.301L247.234 193.546Z" fill="#001A39"/>
<path fill-rule="evenodd" clip-rule="evenodd" d="M354.765 193.546L316.205 170.29L316.956 169.046L355.516 192.301L354.765 193.546Z" fill="#001A39"/>
<path fill-rule="evenodd" clip-rule="evenodd" d="M354.765 110.659L316.205 87.4041L316.956 86.1594L355.516 109.415L354.765 110.659Z" fill="#001A39"/>
<path d="M294.333 99.7275L298.296 60.9349C298.296 60.9349 314.081 54.7866 312.467 43.7451C310.854 32.7036 299.386 36.3955 299.386 36.3955C299.386 36.3955 295.646 21.1099 279.861 18.3483C264.077 15.5867 255.186 23.8279 251.911 36.1726C246.223 57.6063 257.207 65.6924 280.646 68.1488L278.989 93.7878" fill="#F96155"/>
<path d="M306.959 36.3227C306.959 36.3227 313.465 20.0148 293.209 10.2233C272.952 0.431802 267.584 7.15648 260.535 1.01803C253.486 -5.12042 239.218 18.1106 261.916 27.6889C284.614 37.2673 284.202 35.5765 284.202 35.5765C284.202 35.5765 281.586 46.3176 287.879 47.2865C294.173 48.2555 299.202 37.7761 299.202 37.7761" fill="#001A39"/>
<path fill-rule="evenodd" clip-rule="evenodd" d="M255.614 55.7702L259.814 47.1899L261.12 47.829L256.919 56.4093L255.614 55.7702Z" fill="#001A39"/>
<path d="M267.71 49.5881C269.144 49.5881 270.307 48.4253 270.307 46.9911C270.307 45.5569 269.144 44.394 267.71 44.394C266.276 44.394 265.113 45.5569 265.113 46.9911C265.113 48.4253 266.276 49.5881 267.71 49.5881Z" fill="#001A39"/>
<path d="M254.842 49.1999C256.276 49.1999 257.439 48.0376 257.439 46.6034C257.439 45.1692 256.276 44.0063 254.842 44.0063C253.408 44.0063 252.245 45.1692 252.245 46.6034C252.245 48.0376 253.408 49.1999 254.842 49.1999Z" fill="#001A39"/>
<path d="M291.673 206.019C314.037 206.019 333.441 219.992 338.445 239.71L403.105 494.371C403.105 494.371 431.205 490.495 440.987 499.817L365.921 540L294.58 274.685L262.221 390.478L260.55 539.981H174.912C174.912 539.981 188.545 521.808 212.27 516.876C212.27 516.876 205.119 416.664 213.598 365.716C218.356 337.131 236.277 277.869 244.658 240.718C249.208 220.539 268.863 206.019 291.673 206.019Z" fill="#001A39"/>
<path d="M495.918 94.0444C469.465 94.0444 448.017 115.493 448.017 141.946C448.017 168.399 469.465 189.847 495.918 189.847C522.371 189.847 543.819 168.399 543.819 141.946C543.819 115.493 522.371 94.0493 495.918 94.0444ZM495.918 162.023C484.828 162.027 475.841 153.04 475.836 141.95C475.831 130.861 484.818 121.868 495.908 121.868C506.998 121.864 515.986 130.851 515.99 141.941V141.946C515.99 153.031 507.008 162.023 495.918 162.023Z" fill="#FBC73B"/>
<path fill-rule="evenodd" clip-rule="evenodd" d="M431.399 42.0706C431.399 42.1569 431.434 42.3112 431.57 42.4323L432.536 41.3462C432.77 41.5549 432.853 41.8304 432.853 42.0693C432.853 42.2851 432.789 42.4812 432.724 42.6324C432.593 42.9373 432.363 43.2708 432.095 43.6071C431.548 44.293 430.699 45.1672 429.669 46.1499C427.601 48.1227 424.714 50.6207 421.822 53.0848C420.961 53.8181 420.1 54.5482 419.259 55.2614C418.391 55.9975 417.544 56.7155 416.741 57.4002C417.249 57.0263 417.775 56.6381 418.316 56.2392C420.325 54.7563 422.535 53.1254 424.752 51.5279C428.452 48.8619 432.226 46.249 435.242 44.4873C436.744 43.6095 438.094 42.9221 439.169 42.551C439.704 42.3666 440.216 42.2437 440.67 42.2359C441.12 42.2281 441.638 42.3349 441.996 42.756C442.359 43.1832 442.372 43.7077 442.267 44.1486C442.164 44.5812 441.929 45.0355 441.632 45.4866C441.034 46.3964 440.059 47.4843 438.865 48.6669C436.467 51.042 433.052 53.9269 429.605 56.7412C427.987 58.0623 426.368 59.363 424.837 60.5928C423.087 61.9993 421.452 63.3132 420.064 64.4592C419.143 65.2206 418.344 65.8969 417.708 66.4654C418.144 66.2523 418.634 66.0024 419.168 65.721C420.894 64.8125 423.031 63.6084 425.29 62.3359C425.97 61.9526 426.662 61.563 427.356 61.1735C430.345 59.4975 433.389 57.8225 435.802 56.6785C437.005 56.1083 438.08 55.6559 438.927 55.404C439.348 55.279 439.749 55.1919 440.101 55.1774C440.42 55.1641 440.88 55.2025 441.215 55.5372C441.463 55.7851 441.516 56.0972 441.496 56.3429C441.477 56.5713 441.395 56.7845 441.308 56.9606C441.132 57.3172 440.833 57.7234 440.47 58.1527C439.734 59.0231 438.601 60.1415 437.219 61.4075C434.448 63.9463 430.594 67.1535 426.696 70.295C422.796 73.4388 418.84 76.5256 415.86 78.8259C414.37 79.9762 413.124 80.9301 412.25 81.5966C411.813 81.9299 411.469 82.1913 411.234 82.3694C411.117 82.4585 411.026 82.5267 410.966 82.5728L410.874 82.6424C410.873 82.6426 410.873 82.6427 410.435 82.0629C409.997 81.483 409.997 81.4829 409.997 81.4828L410.088 81.4139C410.149 81.3682 410.238 81.3003 410.355 81.2115C410.589 81.034 410.932 80.7733 411.368 80.4408C412.241 79.7758 413.485 78.8236 414.972 77.6754C417.947 75.3785 421.894 72.2985 425.784 69.1634C429.677 66.026 433.502 62.8423 436.237 60.3358C437.609 59.0791 438.686 58.0114 439.36 57.2142C439.532 57.0109 439.67 56.8345 439.776 56.6845C439.651 56.7112 439.506 56.7483 439.342 56.7972C438.604 57.0165 437.609 57.4302 436.425 57.9918C434.063 59.1115 431.06 60.7628 428.067 62.4412C427.381 62.8262 426.695 63.2127 426.018 63.5942C423.755 64.8692 421.591 66.088 419.845 67.0071C418.714 67.6028 417.733 68.0861 417.001 68.3789C416.641 68.5227 416.302 68.6373 416.017 68.6862C415.878 68.71 415.7 68.728 415.518 68.6969C415.331 68.6649 415.042 68.5597 414.873 68.2547C414.677 67.9021 414.803 67.5588 414.855 67.4356C414.924 67.2748 415.028 67.1229 415.128 66.9922C415.335 66.7242 415.642 66.4048 416.01 66.053C416.753 65.3425 417.84 64.4114 419.139 63.3387C420.523 62.1948 422.178 60.8652 423.942 59.4478C425.476 58.2151 427.093 56.9161 428.686 55.6154C432.132 52.8012 435.499 49.9552 437.843 47.6342C439.019 46.4687 439.906 45.4672 440.417 44.6884C440.676 44.2952 440.807 44.0053 440.853 43.8117C440.865 43.7619 440.87 43.7266 440.871 43.7028C440.839 43.6952 440.784 43.6876 440.695 43.6891C440.462 43.6931 440.116 43.762 439.643 43.9249C438.706 44.2484 437.455 44.8774 435.975 45.7423C433.024 47.466 429.299 50.0433 425.602 52.7072C423.384 54.3051 421.196 55.9197 419.197 57.3952C417.857 58.3839 416.602 59.31 415.48 60.1267C414.09 61.1378 412.905 61.9802 412.035 62.548C411.603 62.8298 411.229 63.0571 410.938 63.204C410.797 63.2754 410.643 63.3443 410.495 63.3852C410.422 63.4054 410.317 63.4285 410.197 63.4278C410.083 63.4271 409.869 63.404 409.675 63.2419C409.273 62.9077 409.401 62.4415 409.441 62.3244C409.497 62.1642 409.59 62.0211 409.667 61.9158C409.83 61.6908 410.078 61.4193 410.372 61.122C410.969 60.5185 411.858 59.7091 412.927 58.7704C414.435 57.4463 416.332 55.8377 418.331 54.143C419.169 53.4317 420.026 52.7053 420.879 51.9784C423.774 49.5122 426.632 47.0391 428.665 45.0984C429.686 44.1242 430.476 43.3061 430.958 42.7012C431.205 42.3921 431.336 42.1807 431.389 42.0583C431.399 42.0339 431.403 42.0208 431.404 42.0177C431.403 42.0215 431.399 42.0401 431.399 42.0706ZM440.91 43.7165C440.91 43.7166 440.908 43.7158 440.905 43.7138C440.909 43.7154 440.91 43.7164 440.91 43.7165ZM440.871 43.6696C440.869 43.6643 440.868 43.661 440.869 43.6608C440.869 43.6605 440.87 43.6632 440.871 43.6696Z" fill="#001A39"/>
<path fill-rule="evenodd" clip-rule="evenodd" d="M399.075 134.844C399.075 134.844 399.075 134.845 398.362 134.983C397.828 135.477 397.828 135.477 397.828 135.477L397.695 135.334C397.606 135.238 397.475 135.097 397.302 134.912C396.956 134.543 396.447 134.001 395.793 133.311C394.485 131.931 392.598 129.958 390.284 127.59C385.657 122.853 379.326 116.536 372.506 110.211C365.684 103.883 358.387 97.5611 351.826 92.8067C348.545 90.4292 345.463 88.4547 342.728 87.0683C339.976 85.6736 337.646 84.9114 335.849 84.8776L335.876 83.4244C338.005 83.4645 340.572 84.3462 343.385 85.7718C346.214 87.2058 349.365 89.228 352.679 91.6298C359.309 96.4342 366.655 102.802 373.495 109.145C380.337 115.491 386.686 121.827 391.324 126.575C393.643 128.949 395.535 130.927 396.848 132.311C396.953 132.422 397.055 132.53 397.152 132.633C396.905 131.408 396.571 129.775 396.165 127.838C395.234 123.394 393.924 117.349 392.41 110.946C390.896 104.541 389.179 97.7851 387.433 91.9163C385.682 86.0269 383.92 81.0965 382.328 78.2992L383.591 77.5803C385.275 80.5387 387.076 85.6165 388.826 91.502C390.583 97.4081 392.307 104.194 393.824 110.611C395.342 117.03 396.655 123.088 397.588 127.54C398.054 129.766 398.426 131.592 398.681 132.861C398.809 133.496 398.907 133.991 398.974 134.328C398.993 134.428 399.01 134.514 399.024 134.586C399.034 134.635 399.042 134.677 399.049 134.713L399.075 134.842L399.075 134.844ZM398.362 134.983L397.828 135.477L399.075 134.845L398.362 134.983Z" fill="#001A39"/>
<path fill-rule="evenodd" clip-rule="evenodd" d="M430.853 42.335C430.407 42.4255 429.746 42.6447 428.8 43.0706C424.958 44.7994 422.59 46.3383 421.923 46.8574L421.912 46.866L421.9 46.8742C418.462 49.3415 413.17 53.0193 408.467 56.0342C406.117 57.5406 403.902 58.8892 402.133 59.8393C401.251 60.3135 400.463 60.6971 399.818 60.9515C399.495 61.0785 399.193 61.1794 398.921 61.2418C398.665 61.3008 398.37 61.3417 398.091 61.2911C396.622 61.024 395.973 59.882 395.742 58.7953C395.518 57.7397 395.638 56.5876 395.812 55.8358C395.874 55.4486 396.109 54.6624 396.58 53.441C397.075 52.1574 397.851 50.3427 399.02 47.9072C399.593 46.713 399.845 45.9488 399.915 45.4927C399.921 45.4502 399.926 45.4121 399.929 45.378C399.863 45.4002 399.786 45.4312 399.698 45.4727C399.388 45.6184 399.032 45.8505 398.703 46.1034C396.047 48.7661 389.683 55.9554 385.286 63.603C380.928 71.182 382.474 76.1803 383.538 77.5772L382.382 78.4581C380.862 76.4635 379.469 70.8031 384.026 62.8785C388.525 55.054 395.014 47.7363 397.708 45.0431L397.74 45.0111L397.775 44.9834C398.163 44.6816 398.628 44.37 399.079 44.1576C399.304 44.0516 399.55 43.9588 399.798 43.9119C400.037 43.8665 400.348 43.8508 400.651 43.9803C400.988 44.1245 401.211 44.4028 401.314 44.7356C401.408 45.0388 401.403 45.3758 401.352 45.7121C401.249 46.3865 400.92 47.3079 400.33 48.5362C399.174 50.9455 398.415 52.7241 397.937 53.9639C397.449 55.228 397.272 55.8847 397.245 56.0763L397.241 56.1084L397.233 56.1399C397.087 56.7617 396.995 57.701 397.164 58.4931C397.329 59.2677 397.689 59.7407 398.351 59.8611C398.349 59.8607 398.35 59.8607 398.353 59.8607C398.367 59.8608 398.439 59.8614 398.596 59.8254C398.771 59.785 399 59.7113 399.285 59.5991C399.854 59.375 400.584 59.0217 401.445 58.5589C403.165 57.6352 405.343 56.31 407.682 54.8106C412.353 51.817 417.616 48.1595 421.042 45.7012C421.84 45.0835 424.312 43.4962 428.204 41.7451C429.195 41.2989 429.968 41.0316 430.564 40.9106C431.122 40.7973 431.687 40.7776 432.121 41.0428C432.655 41.3692 432.719 41.9267 432.661 42.3062C432.605 42.6708 432.431 43.0196 432.264 43.2825L431.038 42.5022C431.087 42.4251 431.126 42.3533 431.155 42.2899C431.078 42.2962 430.979 42.3094 430.853 42.335Z" fill="#001A39"/>
<path fill-rule="evenodd" clip-rule="evenodd" d="M418.233 77.295C418.233 77.2944 418.233 77.2942 418.943 77.1409C419.653 76.9875 419.653 76.9879 419.654 76.9886L419.666 77.0486C419.675 77.0887 419.688 77.1485 419.705 77.2273C419.738 77.3849 419.788 77.6185 419.852 77.9235C419.98 78.5334 420.166 79.4286 420.398 80.5706C420.862 82.8547 421.51 86.1266 422.247 90.0801C423.721 97.9858 425.553 108.622 426.979 119.534C428.405 130.441 429.43 141.651 429.284 150.695C429.211 155.215 428.845 159.227 428.077 162.402C427.317 165.543 426.126 168.025 424.272 169.277C421.296 171.287 417.558 172.097 413.362 172.028C409.165 171.96 404.463 171.014 399.501 169.462C389.579 166.359 378.507 160.796 368.175 154.779C357.836 148.758 348.206 142.264 341.164 137.276C337.642 134.782 334.765 132.664 332.768 131.168C331.77 130.421 330.991 129.829 330.462 129.423C330.197 129.22 329.995 129.064 329.858 128.959C329.79 128.906 329.738 128.866 329.703 128.839L329.651 128.798C329.651 128.798 329.65 128.798 330.098 128.225C330.545 127.652 330.545 127.652 330.546 127.653L330.596 127.691C330.629 127.718 330.68 127.757 330.748 127.809C330.882 127.913 331.083 128.068 331.345 128.269C331.871 128.672 332.645 129.26 333.639 130.005C335.627 131.494 338.493 133.604 342.004 136.09C349.025 141.063 358.617 147.531 368.906 153.523C379.202 159.519 390.165 165.019 399.935 168.075C404.819 169.603 409.377 170.51 413.386 170.575C417.394 170.64 420.807 169.863 423.459 168.073C424.842 167.138 425.924 165.12 426.664 162.06C427.397 159.034 427.759 155.143 427.831 150.672C427.975 141.734 426.961 130.607 425.538 119.723C424.116 108.845 422.29 98.237 420.818 90.3465C420.082 86.4018 419.436 83.1376 418.973 80.8599C418.742 79.7212 418.557 78.8291 418.429 78.222C418.365 77.9185 418.316 77.6862 418.283 77.53C418.266 77.4519 418.254 77.3928 418.245 77.3533L418.233 77.295Z" fill="#001A39"/>
<path fill-rule="evenodd" clip-rule="evenodd" d="M165.692 33.6248C165.631 33.5607 165.568 33.4955 165.504 33.4292C164.818 32.7191 164.023 31.9293 163.168 31.0806C162.357 30.2745 161.492 29.4153 160.616 28.521C158.857 26.7246 157.115 24.8472 155.966 23.2424C155.395 22.4453 154.935 21.6676 154.708 20.9689C154.486 20.2864 154.426 19.4651 155.011 18.8503L155.011 18.8499C155.347 18.4971 155.79 18.3808 156.207 18.3812C156.613 18.3816 157.049 18.4899 157.484 18.6491C158.358 18.9686 159.416 19.5646 160.576 20.3152C162.82 21.7671 165.605 23.9046 168.457 26.0933C168.565 26.1765 168.674 26.2597 168.782 26.3429C171.763 28.6301 174.803 30.9529 177.434 32.657C178.75 33.5092 179.941 34.1922 180.955 34.6369C181.996 35.0936 182.74 35.248 183.206 35.1818C183.499 35.1398 183.693 35.0012 183.851 34.7327C184.03 34.4296 184.156 33.9608 184.211 33.3098C184.321 32.0076 184.129 30.2871 183.904 28.4868C183.885 28.3371 183.866 28.1867 183.847 28.036C183.644 26.4249 183.436 24.7785 183.479 23.5026C183.502 22.8107 183.6 22.1256 183.882 21.5904C184.028 21.3118 184.235 21.0552 184.521 20.8689C184.811 20.6804 185.142 20.5911 185.493 20.5865C186.235 20.5768 186.974 21.0297 187.623 21.5828C188.304 22.1638 189.029 22.9813 189.762 23.951C191.229 25.8945 192.789 28.537 194.146 31.3679C195.503 34.1993 196.67 37.2489 197.337 40.0116C197.995 42.7341 198.206 45.3271 197.481 47.1486L197.48 47.1498C196.12 50.5496 189.495 64.6132 183.231 77.7871C180.094 84.383 177.042 90.7679 174.774 95.5038C173.64 97.8718 172.702 99.8275 172.048 101.191C171.917 101.465 171.797 101.714 171.689 101.939L204.65 93.828L204.998 95.2394L170.541 103.718L169.712 102.697L170.367 103.012C169.712 102.697 169.712 102.697 169.712 102.697L169.979 102.141C170.154 101.778 170.41 101.244 170.737 100.562C171.392 99.199 172.329 97.2436 173.463 94.876C175.731 90.1408 178.782 83.7572 181.918 77.1629C188.197 63.9584 194.791 49.9576 196.13 46.6111C196.677 45.2374 196.572 43.0309 195.925 40.353C195.287 37.7153 194.161 34.7636 192.835 31.996C191.509 29.228 189.997 26.674 188.602 24.8268C187.903 23.9012 187.25 23.1748 186.68 22.6887C186.077 22.1748 185.692 22.0375 185.512 22.0399C185.402 22.0413 185.346 22.0665 185.313 22.0877C185.277 22.1111 185.225 22.1593 185.168 22.2674C185.043 22.5056 184.953 22.9215 184.931 23.5518C184.892 24.7042 185.085 26.2328 185.293 27.887C185.311 28.0259 185.329 28.1657 185.346 28.3062C185.567 30.0705 185.785 31.9498 185.659 33.4325C185.596 34.174 185.443 34.894 185.104 35.4697C184.745 36.0798 184.185 36.51 183.411 36.6207C182.522 36.7471 181.461 36.4459 180.371 35.9679C179.254 35.478 177.988 34.7475 176.644 33.8769C173.955 32.1352 170.866 29.7745 167.897 27.496C167.799 27.4204 167.7 27.345 167.602 27.2696C164.724 25.0608 161.98 22.9547 159.787 21.5355C158.648 20.7987 157.7 20.2758 156.985 20.0141C156.625 19.8827 156.371 19.8348 156.206 19.8347C156.115 19.8346 156.075 19.848 156.061 19.8548C156.029 19.8904 155.932 20.0316 156.09 20.5194C156.248 21.0047 156.605 21.6382 157.147 22.3962C158.225 23.9014 159.897 25.7092 161.654 27.504C162.486 28.3532 163.353 29.215 164.175 30.0314C165.051 30.9026 165.875 31.722 166.549 32.419C167.211 33.1043 167.774 33.7173 168.15 34.2027C168.334 34.441 168.5 34.6827 168.605 34.908C168.657 35.0198 168.713 35.1655 168.732 35.3292C168.752 35.4967 168.738 35.7463 168.57 35.9762C168.303 36.3416 167.891 36.3222 167.767 36.31C167.597 36.2934 167.429 36.2391 167.291 36.1859C167.003 36.0751 166.644 35.889 166.241 35.659C165.426 35.1936 164.317 34.4802 163.022 33.6181C161.87 32.8517 160.558 31.9588 159.154 31.0039C158.974 30.8818 158.793 30.7587 158.611 30.6347C157.001 29.5399 155.284 28.3749 153.551 27.2265C150.08 24.9257 146.573 22.7081 143.767 21.2634C142.359 20.5384 141.166 20.0285 140.261 19.7915C139.808 19.6726 139.469 19.6339 139.233 19.6497C139.08 19.6599 139.003 19.6901 138.967 19.7117C138.968 19.7316 138.973 19.7613 138.983 19.8034C139.027 19.9863 139.156 20.2665 139.413 20.6519C139.922 21.4143 140.803 22.3998 141.973 23.5508C144.303 25.8427 147.647 28.6647 151.059 31.4661C152.214 32.4148 153.378 33.3616 154.511 34.283C156.709 36.0713 158.79 37.7641 160.465 39.1901C161.732 40.2695 162.789 41.2153 163.498 41.9471C163.847 42.3086 164.141 42.6469 164.331 42.9413C164.424 43.0854 164.52 43.2609 164.569 43.4524C164.618 43.6414 164.65 43.9685 164.429 44.2661C164.254 44.5014 164.012 44.6004 163.823 44.6391C163.638 44.6767 163.455 44.6688 163.299 44.649C162.986 44.6094 162.62 44.499 162.236 44.3561C161.459 44.0662 160.437 43.577 159.272 42.9728C157.484 42.0452 155.289 40.8102 152.999 39.5221C152.3 39.1285 151.591 38.7299 150.883 38.3336C147.842 36.6325 144.801 34.9725 142.399 33.8828C141.193 33.3359 140.183 32.9493 139.432 32.7672C139.054 32.6755 138.782 32.6461 138.604 32.6554C138.58 32.6567 138.56 32.6585 138.543 32.6605C138.545 32.6722 138.548 32.6852 138.551 32.6995C138.594 32.8834 138.716 33.1632 138.955 33.5465C139.427 34.3049 140.246 35.2915 141.332 36.4426C143.496 38.7351 146.612 41.562 149.819 44.3227C153.021 47.0795 156.298 49.7556 158.776 51.7434C160.014 52.7371 161.052 53.5582 161.78 54.1307C162.144 54.4169 162.43 54.641 162.626 54.7934C162.723 54.8696 162.798 54.9279 162.849 54.967L162.92 55.0224L162.924 55.0252L162.925 55.0258C162.925 55.026 162.925 55.026 162.48 55.6006C163.089 55.9961 163.089 55.9963 163.089 55.9969L163.053 56.0526C163.041 56.0704 163.027 56.0924 163.01 56.1185C162.991 56.1477 162.969 56.1821 162.944 56.2214C162.848 56.3707 162.705 56.5925 162.519 56.8825C162.148 57.4623 161.605 58.3142 160.919 59.4018C159.546 61.5769 157.601 64.694 155.311 68.4604C150.732 75.9945 144.777 86.1216 139.272 96.5022C133.763 106.891 128.722 117.501 125.953 126.01C124.566 130.27 123.767 133.951 123.739 136.791C123.712 139.653 124.462 141.439 125.909 142.27C127.56 143.217 130.067 143.787 133.277 144.012C136.469 144.235 140.278 144.112 144.474 143.73C152.866 142.968 162.733 141.181 172.173 139.133C181.61 137.085 190.601 134.78 197.234 132.986C200.55 132.089 203.276 131.32 205.172 130.776C206.12 130.504 206.861 130.288 207.364 130.14C207.616 130.066 207.808 130.009 207.938 129.971L208.084 129.927L208.13 129.913L208.132 129.913C208.132 129.913 208.133 129.912 208.341 130.609C208.55 131.305 208.55 131.305 208.549 131.305L208.547 131.306L208.351 131.364C208.261 131.391 208.14 131.427 207.99 131.471C207.924 131.49 207.852 131.512 207.774 131.534C207.268 131.683 206.524 131.9 205.573 132.173C203.671 132.719 200.937 133.49 197.613 134.389C190.965 136.187 181.949 138.498 172.482 140.553C163.018 142.607 153.084 144.408 144.606 145.178C140.367 145.563 136.474 145.692 133.176 145.462C129.895 145.232 127.123 144.642 125.186 143.53C123.044 142.302 122.257 139.816 122.286 136.777C122.316 133.717 123.168 129.87 124.571 125.56C127.38 116.928 132.47 106.228 137.988 95.8213C143.511 85.4065 149.481 75.2531 154.069 67.7054C156.364 63.931 158.313 60.807 159.689 58.6261C160.378 57.5357 160.922 56.681 161.295 56.0986C161.374 55.9752 161.446 55.864 161.509 55.7654C161.338 55.6313 161.127 55.4663 160.881 55.2732C160.15 54.6982 159.109 53.8741 157.866 52.8771C155.381 50.8834 152.09 48.1959 148.871 45.4242C145.655 42.6562 142.493 39.7895 140.275 37.4404C139.171 36.2708 138.273 35.1997 137.721 34.3155C137.448 33.8775 137.231 33.4398 137.135 33.0289C137.04 32.619 137.04 32.1011 137.404 31.6866C137.716 31.3306 138.156 31.2235 138.527 31.204C138.907 31.1841 139.334 31.2477 139.774 31.3547C140.661 31.5696 141.77 32.0019 142.999 32.5591C145.465 33.6777 148.557 35.367 151.593 37.0652C152.311 37.4671 153.026 37.8694 153.73 38.2653C156.014 39.5502 158.177 40.7675 159.942 41.6826C160.88 42.1693 161.686 42.5603 162.326 42.8279C161.669 42.1656 160.706 41.3051 159.522 40.2966C157.86 38.8809 155.802 37.2067 153.613 35.4259C152.477 34.5021 151.306 33.5495 150.137 32.5895C146.727 29.7902 143.336 26.9304 140.954 24.5869C139.768 23.4202 138.799 22.3497 138.204 21.4586C137.91 21.0173 137.674 20.5714 137.57 20.1465C137.465 19.7122 137.477 19.1859 137.854 18.7646C138.201 18.3779 138.678 18.2302 139.136 18.1994C139.592 18.1689 140.102 18.2469 140.63 18.3855C141.69 18.6634 142.996 19.2317 144.432 19.9712C147.315 21.4555 150.88 23.7121 154.354 26.0151C156.094 27.1686 157.818 28.3379 159.428 29.4328C159.611 29.557 159.792 29.6803 159.972 29.8025C161.376 30.758 162.682 31.6462 163.827 32.4081C164.516 32.8664 165.142 33.2759 165.692 33.6248ZM162.48 55.6006L163.089 55.9961L162.925 55.0258L162.48 55.6006ZM138.535 32.5717C138.536 32.5718 138.535 32.5743 138.534 32.5786C138.535 32.5737 138.535 32.5715 138.535 32.5717ZM138.967 19.678C138.967 19.6782 138.967 19.6812 138.966 19.6863C138.966 19.6803 138.967 19.6778 138.967 19.678ZM156.055 19.8586C156.055 19.8584 156.057 19.857 156.061 19.855C156.058 19.8577 156.056 19.8587 156.055 19.8586Z" fill="#001A39"/>
<path d="M172.426 248.726L193.86 227.288V270.16L172.426 248.726Z" fill="white"/>
<path d="M193.138 229.042V268.406L173.458 248.726L193.143 229.042H193.138ZM194.596 225.534L171.404 248.726L194.596 271.914V225.534Z" fill="#001A39"/>
<path d="M386.642 227.288L408.076 248.726L386.642 270.16V227.288Z" fill="white"/>
<path d="M387.369 229.042L407.049 248.726L387.369 268.406V229.042ZM385.915 225.534V271.914L409.108 248.726L385.915 225.534Z" fill="#001A39"/>
<path d="M135.111 453.999H68.0288L83.5324 347.266L68.0288 295.087L52.5252 347.266L68.0288 453.999H0.941895C0.941895 453.999 6.92539 436.707 19.4397 434.023C19.4397 434.023 2.13861 374.398 3.03006 350.541C3.92152 326.685 29.5654 240.824 29.5654 240.824H106.487C106.487 240.824 132.126 326.69 133.023 350.541C133.919 374.393 116.618 434.023 116.618 434.023C129.127 436.707 135.111 453.999 135.111 453.999Z" fill="#F96155"/>
<path d="M465.308 453.999H544.909C544.909 453.999 535.966 441.18 530.002 440.283L537.027 283.934C538.039 261.328 520.535 242.181 497.933 241.164C497.323 241.135 496.708 241.125 496.097 241.125C473.472 241.12 455.124 259.458 455.124 282.088C455.124 284.273 455.298 286.449 455.642 288.605L479.62 437.899C479.615 437.899 467.987 444.755 465.308 453.999Z" fill="#B1E4FD"/>
<path fill-rule="evenodd" clip-rule="evenodd" d="M502.705 281.353L507.177 453.98L505.724 454.018L501.252 281.39L502.705 281.353Z" fill="white"/>
<path fill-rule="evenodd" clip-rule="evenodd" d="M509.71 165.079C509.833 162.075 509.971 158.841 510.177 155.559L511.144 155.619C510.939 158.89 510.802 162.114 510.678 165.119C510.669 165.341 510.66 165.562 510.651 165.782C510.538 168.532 510.433 171.085 510.293 173.295C510.142 175.676 509.949 177.683 509.654 179.119C509.508 179.834 509.33 180.439 509.102 180.886C508.884 181.313 508.552 181.727 508.037 181.791L508.036 181.791C506.724 181.952 505.369 181.15 504.094 180.089C502.88 179.078 501.618 177.726 500.381 176.4C500.293 176.306 500.206 176.212 500.119 176.118C498.783 174.689 497.483 173.321 496.256 172.387C495.005 171.436 493.977 171.049 493.14 171.3C492.186 171.586 491.212 172.322 490.24 173.432C489.274 174.536 488.342 175.972 487.465 177.595C485.709 180.84 484.201 184.77 483.068 188.122L482.15 187.812C483.29 184.44 484.819 180.45 486.612 177.134C487.509 175.477 488.48 173.972 489.511 172.793C490.538 171.621 491.658 170.732 492.862 170.372C494.184 169.975 495.562 170.642 496.843 171.616C498.147 172.608 499.503 174.04 500.827 175.457C500.91 175.546 500.993 175.635 501.076 175.724C502.328 177.065 503.549 178.375 504.714 179.344C505.982 180.399 507.049 180.936 507.918 180.829L507.977 181.31L507.917 180.83C507.935 180.827 508.06 180.796 508.239 180.446C508.407 180.115 508.564 179.61 508.705 178.925C508.985 177.56 509.175 175.611 509.326 173.234C509.465 171.035 509.57 168.493 509.683 165.739C509.692 165.521 509.701 165.301 509.71 165.079Z" fill="white"/>
<path fill-rule="evenodd" clip-rule="evenodd" d="M531.939 128.309C536.046 131.528 540.362 136.319 544.414 141.482L543.651 142.08C539.617 136.939 535.357 132.219 531.342 129.072C529.334 127.498 527.406 126.333 525.616 125.698C523.828 125.065 522.205 124.969 520.772 125.488L520.772 125.488C518.039 126.475 516.031 129.402 514.568 133.626L513.653 133.309C515.136 129.026 517.274 125.722 520.442 124.577M531.939 128.309C529.886 126.7 527.865 125.468 525.939 124.785L531.939 128.309ZM525.939 124.785C524.01 124.101 522.147 123.96 520.443 124.577L525.939 124.785Z" fill="white"/>
<path fill-rule="evenodd" clip-rule="evenodd" d="M50.2253 105.825C50.5876 107.757 50.5943 109.547 49.9553 110.911L49.9551 110.911C49.3692 112.161 47.9536 112.745 46.3727 113.052C44.7626 113.364 42.7903 113.423 40.851 113.467C40.726 113.47 40.6012 113.473 40.4766 113.476C38.6453 113.516 36.8583 113.556 35.3626 113.778C34.5663 113.896 33.876 114.063 33.3202 114.298C32.7645 114.533 32.3712 114.823 32.1293 115.173C32.1188 115.188 32.0568 115.306 32.2082 115.686C32.3506 116.043 32.6363 116.512 33.0712 117.09C33.937 118.241 35.314 119.725 37.0431 121.47C38.5534 122.995 40.3181 124.706 42.2226 126.552C42.494 126.815 42.7682 127.081 43.0449 127.35C45.2618 129.5 47.6364 131.815 49.9882 134.21C54.6871 138.995 59.3162 144.122 62.4261 148.927C63.9812 151.33 65.1698 153.672 65.7917 155.867C66.414 158.064 66.4779 160.146 65.7363 161.995C64.6366 164.739 61.7577 166.451 58.0019 167.48C54.2263 168.515 49.4349 168.895 44.2965 168.873L44.3006 167.905C49.4043 167.926 54.0943 167.546 57.7459 166.546C61.4173 165.54 63.9114 163.943 64.8369 161.634L64.8369 161.634C65.4737 160.047 65.4449 158.198 64.8594 156.132C64.2737 154.064 63.1394 151.813 61.6126 149.454C58.5586 144.735 53.9873 139.665 49.2968 134.889C46.9539 132.503 44.5866 130.195 42.3703 128.045C42.0938 127.777 41.8197 127.511 41.5482 127.248C39.645 125.403 37.8724 123.685 36.3546 122.152C34.6238 120.405 33.2057 118.881 32.2968 117.672C31.8445 117.071 31.498 116.522 31.3079 116.044C31.1268 115.589 31.0319 115.055 31.3328 114.621C31.7134 114.071 32.283 113.684 32.9432 113.406C33.6033 113.127 34.3821 112.944 35.2203 112.82C36.7791 112.588 38.6251 112.547 40.4359 112.507C40.5672 112.504 40.6982 112.502 40.829 112.499C42.7855 112.454 44.6731 112.394 46.1881 112.1C47.7322 111.801 48.707 111.291 49.0779 110.5C49.587 109.413 49.6228 107.869 49.2729 106.003C48.9257 104.152 48.2131 102.055 47.3114 99.9153L48.2044 99.5391C49.1195 101.711 49.8603 103.878 50.2253 105.825Z" fill="white"/>
<path fill-rule="evenodd" clip-rule="evenodd" d="M459.643 110.836C465.122 118.302 472.255 127.415 478.143 132.904L477.483 133.613C471.521 128.056 464.341 118.875 458.862 111.409L459.643 110.836Z" fill="white"/>
<path fill-rule="evenodd" clip-rule="evenodd" d="M504.812 107.99C505.196 104.514 505.107 99.9379 504.747 94.9905L505.713 94.9202C506.075 99.8855 506.169 104.532 505.775 108.097C505.578 109.877 505.256 111.416 504.769 112.597C504.287 113.77 503.606 114.674 502.64 115.04L502.639 115.04C501.045 115.643 499.047 115.099 497.065 114.11C495.054 113.108 492.923 111.579 490.987 110C489.048 108.419 487.285 106.773 486.009 105.524C485.86 105.378 485.717 105.237 485.581 105.102C485.975 106.17 486.475 107.576 487.012 109.21C488.243 112.953 489.673 117.901 490.451 122.692L489.495 122.848C488.728 118.128 487.316 113.234 486.092 109.512C485.48 107.653 484.917 106.091 484.507 104.993C484.302 104.444 484.135 104.012 484.02 103.718C483.962 103.57 483.917 103.457 483.887 103.381C483.872 103.343 483.86 103.315 483.853 103.296L483.844 103.274L483.841 103.268L484.29 103.085C484.645 102.756 484.645 102.756 484.645 102.756L484.654 102.765L484.68 102.793C484.704 102.818 484.739 102.856 484.785 102.905C484.878 103.002 485.015 103.146 485.191 103.329C485.545 103.694 486.056 104.214 486.687 104.832C487.95 106.068 489.69 107.692 491.6 109.249C493.513 110.809 495.579 112.287 497.498 113.243C499.445 114.214 501.11 114.582 502.296 114.134C502.895 113.907 503.432 113.299 503.874 112.228C504.311 111.167 504.619 109.73 504.812 107.99ZM484.29 103.085L484.645 102.756C484.486 102.584 484.227 102.551 484.03 102.677C483.833 102.802 483.753 103.051 483.841 103.268L484.29 103.085Z" fill="white"/>
<path fill-rule="evenodd" clip-rule="evenodd" d="M458.895 173.325C459.987 155.501 453.719 139.181 449.181 129.916L450.051 129.489C454.621 138.819 460.969 155.318 459.862 173.385L458.895 173.325Z" fill="white"/>
<path fill-rule="evenodd" clip-rule="evenodd" d="M79.7841 137.74C79.1954 138.606 78.9642 139.768 79.4467 141.391C80.4756 144.852 83.2581 149.471 86.3808 153.891C89.4883 158.289 92.8749 162.41 95.0401 164.856L93.9518 165.82C91.7566 163.34 88.3361 159.177 85.1937 154.729C82.0665 150.303 79.1564 145.515 78.0535 141.805C77.4701 139.843 77.7053 138.213 78.5821 136.923C79.4367 135.666 80.8316 134.835 82.3705 134.288C85.4441 133.196 89.4284 133.118 92.1393 133.365L92.1806 133.369L92.2212 133.377C94.3759 133.824 97.8696 134.64 101.363 135.637C104.839 136.628 108.38 137.817 110.59 139.022L109.894 140.298C107.84 139.178 104.437 138.025 100.964 137.034C97.5316 136.055 94.0949 135.252 91.9666 134.809C89.3502 134.575 85.6314 134.672 82.8572 135.658C81.465 136.152 80.3951 136.841 79.7841 137.74Z" fill="white"/>
</svg>
