<svg width="560" height="438" viewBox="0 0 560 438" fill="none" xmlns="http://www.w3.org/2000/svg">
<path d="M38.7743 318.768L2.2921 319.714L0 393.492L20.6567 335.12L47.8764 334.29" fill="#F96155"/>
<path fill-rule="evenodd" clip-rule="evenodd" d="M22.5401 351.176L12.4463 338.828L13.6977 337.71L23.7915 350.059L22.5401 351.176Z" fill="#001A39"/>
<path fill-rule="evenodd" clip-rule="evenodd" d="M20.2479 358.896L10.1582 346.547L11.4098 345.43L21.4995 357.778L20.2479 358.896Z" fill="#001A39"/>
<path fill-rule="evenodd" clip-rule="evenodd" d="M17.4533 366.955L8.30176 353.828L9.63198 352.815L18.7835 365.942L17.4533 366.955Z" fill="#001A39"/>
<path d="M97.6857 308.27L92.5422 294.327C84.4277 272.319 98.7762 248.324 121.26 246.307C131.991 245.344 142.801 246.604 153.068 250.019L213.564 270.126C228.345 275.037 236.797 291.247 232.735 306.894L207.865 402.709L158.182 386.714L180.024 307.448L154.105 299.122L160.014 317.5C166.585 336.845 153.273 357.291 133.646 358.001L41.444 361.347C41.444 361.347 33.1237 353.984 32.8645 336.161C32.5765 316.536 40.1107 311.298 40.1107 311.298L97.6857 308.27Z" fill="#032349"/>
<path fill-rule="evenodd" clip-rule="evenodd" d="M156.398 305.133L144.259 275.238L145.395 274.734L157.534 304.629L156.398 305.133Z" fill="white"/>
<path d="M208.004 402.315C209.348 397.628 199.284 390.334 185.526 386.024C171.768 381.714 159.526 382.02 158.182 386.707C156.838 391.395 166.901 398.688 180.659 402.998C194.417 407.308 206.66 407.002 208.004 402.315Z" fill="#BACADF"/>
<path d="M163.286 386.305L146.958 419.034L215.454 426.617L170.857 405.809L178.959 389.35" fill="#F96155"/>
<path d="M221.636 431.503C222.133 427.937 205.722 422.485 184.979 419.326C164.237 416.166 147.019 416.496 146.522 420.062C146.025 423.627 162.437 429.079 183.179 432.238C203.921 435.398 221.139 435.068 221.636 431.503Z" fill="#572638"/>
<path fill-rule="evenodd" clip-rule="evenodd" d="M187.919 406.852L175.163 411.395L174.632 409.766L187.388 405.223L187.919 406.852Z" fill="#001A39"/>
<path fill-rule="evenodd" clip-rule="evenodd" d="M194.12 410.306L181.359 414.844L180.829 413.215L193.589 408.677L194.12 410.306Z" fill="#001A39"/>
<path fill-rule="evenodd" clip-rule="evenodd" d="M45.9805 352.376L53.4491 342.475L54.4185 343.274L46.9498 353.175L45.9805 352.376Z" fill="white"/>
<path fill-rule="evenodd" clip-rule="evenodd" d="M44.666 333.41L40.4893 325.999L41.5529 325.344L45.7296 332.755L44.666 333.41Z" fill="white"/>
<path fill-rule="evenodd" clip-rule="evenodd" d="M59.1874 320.356L50.8301 319.41L50.963 318.127L59.3203 319.073L59.1874 320.356Z" fill="white"/>
<path fill-rule="evenodd" clip-rule="evenodd" d="M66.5625 331.573L71.3768 322.704L72.4504 323.341L67.6362 332.21L66.5625 331.573Z" fill="white"/>
<path fill-rule="evenodd" clip-rule="evenodd" d="M77.6487 348.448L68.9089 350.908L68.5879 349.662L77.3277 347.202L77.6487 348.448Z" fill="white"/>
<path fill-rule="evenodd" clip-rule="evenodd" d="M90.6879 341.172L83.0879 331.778L84.0305 330.945L91.6305 340.338L90.6879 341.172Z" fill="white"/>
<path fill-rule="evenodd" clip-rule="evenodd" d="M74.9539 313.573L72.0693 310.007L73.0119 309.173L75.8965 312.739L74.9539 313.573Z" fill="white"/>
<path fill-rule="evenodd" clip-rule="evenodd" d="M93.7631 315.112L91.7387 322.768L90.5488 322.425L92.5733 314.769L93.7631 315.112Z" fill="white"/>
<path fill-rule="evenodd" clip-rule="evenodd" d="M107.142 332.009L109.294 322.219L110.497 322.508L108.345 332.298L107.142 332.009Z" fill="white"/>
<path fill-rule="evenodd" clip-rule="evenodd" d="M105.931 343.727L103.397 352.329L102.217 351.949L104.751 343.347L105.931 343.727Z" fill="white"/>
<path fill-rule="evenodd" clip-rule="evenodd" d="M153.144 334.393L142.075 329.386L142.565 328.201L153.634 333.208L153.144 334.393Z" fill="white"/>
<path fill-rule="evenodd" clip-rule="evenodd" d="M135.945 340.584L130.164 346.71L129.285 345.804L135.066 339.678L135.945 340.584Z" fill="white"/>
<path fill-rule="evenodd" clip-rule="evenodd" d="M87.8014 357.276L84.9087 360.338L84.0303 359.432L86.9229 356.369L87.8014 357.276Z" fill="white"/>
<path fill-rule="evenodd" clip-rule="evenodd" d="M120.151 329.268L121.418 337.952L120.198 338.147L118.931 329.463L120.151 329.268Z" fill="white"/>
<path fill-rule="evenodd" clip-rule="evenodd" d="M128.627 318.933L119.195 316.351L119.508 315.103L128.939 317.684L128.627 318.933Z" fill="white"/>
<path fill-rule="evenodd" clip-rule="evenodd" d="M166.221 256.839L163.88 253.94L164.823 253.108L167.164 256.007L166.221 256.839Z" fill="white"/>
<path fill-rule="evenodd" clip-rule="evenodd" d="M141.388 303.41L145.906 311.604L144.836 312.248L140.318 304.055L141.388 303.41Z" fill="white"/>
<path fill-rule="evenodd" clip-rule="evenodd" d="M131.314 292.102L124.578 302.189L123.565 301.45L130.302 291.364L131.314 292.102Z" fill="white"/>
<path fill-rule="evenodd" clip-rule="evenodd" d="M95.1761 288.752L92.4273 292.869L91.415 292.13L94.1638 288.013L95.1761 288.752Z" fill="white"/>
<path fill-rule="evenodd" clip-rule="evenodd" d="M106.576 295.204L114.176 295.286L114.164 296.576L106.563 296.494L106.576 295.204Z" fill="white"/>
<path fill-rule="evenodd" clip-rule="evenodd" d="M129.761 276.431L138.365 276.779L138.317 278.068L129.713 277.72L129.761 276.431Z" fill="white"/>
<path fill-rule="evenodd" clip-rule="evenodd" d="M111.227 282.185L110.289 269.613L111.52 269.512L112.458 282.084L111.227 282.185Z" fill="white"/>
<path fill-rule="evenodd" clip-rule="evenodd" d="M98.0005 263.925L96.5811 260.462L97.7157 259.954L99.1352 263.417L98.0005 263.925Z" fill="white"/>
<path fill-rule="evenodd" clip-rule="evenodd" d="M135.509 263.408L141.356 255.253L142.344 256.027L136.497 264.182L135.509 263.408Z" fill="white"/>
<path fill-rule="evenodd" clip-rule="evenodd" d="M159.04 265.42L156.102 272.745L154.964 272.246L157.902 264.921L159.04 265.42Z" fill="white"/>
<path fill-rule="evenodd" clip-rule="evenodd" d="M171.523 273.549H181.136V274.839H171.523V273.549Z" fill="white"/>
<path fill-rule="evenodd" clip-rule="evenodd" d="M165.885 285.492L162.329 293.69L161.205 293.158L164.76 284.959L165.885 285.492Z" fill="white"/>
<path fill-rule="evenodd" clip-rule="evenodd" d="M228.174 280.065L227.051 282.653L225.927 282.12L227.05 279.532L228.174 280.065Z" fill="white"/>
<path fill-rule="evenodd" clip-rule="evenodd" d="M232.647 307.532L226.281 306.56L226.46 305.283L232.825 306.255L232.647 307.532Z" fill="white"/>
<path fill-rule="evenodd" clip-rule="evenodd" d="M221.851 320.812L218.106 328.473L217.007 327.886L220.751 320.225L221.851 320.812Z" fill="white"/>
<path fill-rule="evenodd" clip-rule="evenodd" d="M201.188 323.812L208.15 328.738L207.458 329.807L200.496 324.881L201.188 323.812Z" fill="white"/>
<path fill-rule="evenodd" clip-rule="evenodd" d="M220.309 344.839L222.918 346.684L222.226 347.752L219.617 345.908L220.309 344.839Z" fill="white"/>
<path fill-rule="evenodd" clip-rule="evenodd" d="M213.213 306.948L203.473 307.46L203.411 306.172L213.151 305.66L213.213 306.948Z" fill="white"/>
<path fill-rule="evenodd" clip-rule="evenodd" d="M177.69 327.845L174.558 328.098L174.463 326.813L177.594 326.559L177.69 327.845Z" fill="white"/>
<path fill-rule="evenodd" clip-rule="evenodd" d="M167.386 368.968L163.086 369.191L163.024 367.903L167.324 367.679L167.386 368.968Z" fill="white"/>
<path fill-rule="evenodd" clip-rule="evenodd" d="M212.535 285.657L219.209 292.044L218.375 292.995L211.701 286.609L212.535 285.657Z" fill="white"/>
<path fill-rule="evenodd" clip-rule="evenodd" d="M198.805 279.969L195.291 291.707L194.113 291.322L197.627 279.584L198.805 279.969Z" fill="white"/>
<path fill-rule="evenodd" clip-rule="evenodd" d="M173.824 294.608L181.095 292.29L181.455 293.524L174.184 295.842L173.824 294.608Z" fill="white"/>
<path fill-rule="evenodd" clip-rule="evenodd" d="M185.86 264.755L194.164 262.376L194.49 263.621L186.187 265.999L185.86 264.755Z" fill="white"/>
<path fill-rule="evenodd" clip-rule="evenodd" d="M142 350.397L149.395 351.648L149.197 352.922L141.803 351.67L142 350.397Z" fill="white"/>
<path fill-rule="evenodd" clip-rule="evenodd" d="M191.246 317.27L187.975 309.175L189.112 308.673L192.383 316.768L191.246 317.27Z" fill="white"/>
<path fill-rule="evenodd" clip-rule="evenodd" d="M182.196 337.563L191.948 337.654L191.937 338.943L182.185 338.853L182.196 337.563Z" fill="white"/>
<path fill-rule="evenodd" clip-rule="evenodd" d="M173.464 355.884L168.436 350.468L169.321 349.569L174.35 354.985L173.464 355.884Z" fill="white"/>
<path fill-rule="evenodd" clip-rule="evenodd" d="M185.883 364.268L190.051 352.762L191.206 353.219L187.037 364.725L185.883 364.268Z" fill="white"/>
<path fill-rule="evenodd" clip-rule="evenodd" d="M211.64 351.183L204.254 353.049L203.964 351.795L211.35 349.929L211.64 351.183Z" fill="white"/>
<path fill-rule="evenodd" clip-rule="evenodd" d="M207.63 378.953L203.89 369.697L205.027 369.195L208.767 378.451L207.63 378.953Z" fill="white"/>
<path fill-rule="evenodd" clip-rule="evenodd" d="M192.884 377.349L184.461 379.216L184.205 377.954L192.628 376.087L192.884 377.349Z" fill="white"/>
<path d="M185.391 218.635C182.836 230.505 171.557 237.963 160.2 235.292L120.455 225.946C109.098 223.276 101.962 211.487 104.518 199.617C107.073 187.746 118.352 180.288 129.709 182.959L169.454 192.305C180.811 194.976 187.946 206.765 185.391 218.635Z" fill="#F96155"/>
<path fill-rule="evenodd" clip-rule="evenodd" d="M185.208 199.51L338.59 230.926L338.677 230.972L338.356 231.645C338.677 230.972 338.678 230.972 338.678 230.972L338.679 230.973L338.682 230.974L338.69 230.978C338.696 230.981 338.704 230.986 338.714 230.991C338.735 231.003 338.763 231.018 338.799 231.039C338.87 231.08 338.97 231.139 339.095 231.219C339.345 231.378 339.694 231.617 340.105 231.943C340.925 232.596 341.995 233.602 343.009 235.027C345.049 237.893 346.83 242.406 345.97 249.015C345.105 255.664 341.865 259.369 338.814 261.392C337.299 262.398 335.84 262.983 334.759 263.317C334.217 263.485 333.768 263.59 333.451 263.654C333.293 263.686 333.167 263.707 333.079 263.721C333.034 263.728 333 263.733 332.975 263.737C332.963 263.738 332.953 263.74 332.945 263.741L332.936 263.742L332.932 263.742C332.932 263.742 332.931 263.742 332.85 262.994L332.931 263.742L332.821 263.755L176.19 231.554L176.468 230.077L332.871 262.232C332.941 262.221 333.045 262.203 333.179 262.176C333.455 262.12 333.859 262.026 334.35 261.874C335.335 261.569 336.665 261.035 338.043 260.121C340.779 258.306 343.742 254.971 344.543 248.812C345.35 242.613 343.681 238.492 341.854 235.926C340.934 234.634 339.967 233.725 339.232 233.141C338.866 232.849 338.558 232.64 338.346 232.505C338.245 232.44 338.166 232.393 338.112 232.362L184.931 200.987L185.208 199.51Z" fill="#001A39"/>
<path fill-rule="evenodd" clip-rule="evenodd" d="M340.899 206.144C349.694 141.335 330 79.176 291.761 33.487L295.477 30.0889C334.622 76.8601 354.793 140.51 345.787 206.869C336.782 273.228 300.473 328.509 250.429 362.057L247.764 357.713C296.649 324.941 332.103 270.954 340.899 206.144Z" fill="#001A39"/>
<path fill-rule="evenodd" clip-rule="evenodd" d="M363.432 211.591L175 183.657L175.347 181.102L363.778 209.036L363.432 211.591Z" fill="#001A39"/>
<path d="M360.939 221.615L365.733 211.702C366.21 210.713 366.194 209.543 365.684 208.571L360.585 198.825C359.306 196.378 361.264 193.458 363.902 193.888L374.403 195.587C375.448 195.754 376.51 195.376 377.238 194.571L384.534 186.494C386.365 184.464 389.628 185.514 390.052 188.266L391.751 199.229C391.92 200.322 392.595 201.259 393.553 201.732L403.158 206.485C405.569 207.681 405.627 211.246 403.252 212.519L393.8 217.594C392.858 218.102 392.212 219.061 392.08 220.157L390.722 231.172C390.381 233.937 387.155 235.094 385.262 233.129L377.724 225.301C376.971 224.523 375.901 224.179 374.86 224.381L364.416 226.437C361.787 226.953 359.738 224.101 360.939 221.615Z" fill="#FBC73B"/>
<path fill-rule="evenodd" clip-rule="evenodd" d="M291.713 30.1494L295.527 33.4269L178.041 182.798L251.357 358.855L246.829 360.915L172.307 181.961L291.713 30.1494Z" fill="#001A39"/>
<path d="M340.347 235.405C340.347 235.405 323.094 233.633 322.625 235.762C322.156 237.891 339.866 243.624 339.866 243.624C339.866 243.624 317.498 239.306 317.045 242.097C316.588 244.884 338.874 251.718 338.874 251.718C338.874 251.718 318.913 247.353 318.333 250.277C317.753 253.202 338.763 259.4 338.763 259.4" fill="#FFEDDC"/>
<path fill-rule="evenodd" clip-rule="evenodd" d="M340.418 234.655C340.418 234.655 340.418 234.655 340.348 235.405C340.278 236.154 340.278 236.154 340.278 236.154L340.23 236.149C340.197 236.145 340.149 236.141 340.087 236.134C339.961 236.122 339.777 236.104 339.541 236.082C339.071 236.038 338.398 235.977 337.589 235.911C335.969 235.779 333.808 235.625 331.635 235.537C329.456 235.448 327.288 235.428 325.647 235.558C324.821 235.623 324.166 235.724 323.721 235.858C323.624 235.887 323.544 235.916 323.479 235.943C323.531 235.993 323.596 236.052 323.676 236.118C324.058 236.432 324.66 236.804 325.445 237.215C327.003 238.033 329.143 238.938 331.321 239.785C333.494 240.631 335.684 241.411 337.333 241.98C338.156 242.264 338.844 242.496 339.325 242.656C339.566 242.736 339.755 242.798 339.883 242.84C339.948 242.862 339.997 242.878 340.03 242.888L340.08 242.904C340.08 242.904 340.08 242.904 339.867 243.623C339.736 244.364 339.736 244.364 339.736 244.364L339.673 244.352C339.631 244.344 339.569 244.332 339.487 244.316C339.324 244.286 339.085 244.241 338.78 244.185C338.17 244.072 337.297 243.915 336.248 243.735C334.149 243.375 331.349 242.924 328.537 242.56C325.72 242.196 322.915 241.922 320.798 241.91C319.733 241.904 318.886 241.965 318.309 242.096C318.079 242.148 317.922 242.206 317.822 242.256C317.906 242.37 318.055 242.524 318.291 242.713C318.799 243.12 319.581 243.59 320.579 244.099C322.568 245.113 325.28 246.217 328.031 247.243C330.777 248.267 333.539 249.206 335.616 249.888C336.654 250.229 337.52 250.506 338.127 250.698C338.43 250.794 338.668 250.868 338.83 250.919C338.911 250.944 338.973 250.963 339.015 250.976L339.077 250.995C339.078 250.995 339.078 250.995 338.875 251.718C338.727 252.454 338.727 252.454 338.727 252.454L338.672 252.442C338.656 252.439 338.636 252.435 338.613 252.43C338.583 252.423 338.547 252.415 338.506 252.407C338.361 252.376 338.148 252.331 337.876 252.274C337.331 252.161 336.553 252.002 335.616 251.821C333.742 251.459 331.24 251.007 328.724 250.646C326.2 250.284 323.691 250.019 321.789 250.021C320.831 250.022 320.075 250.091 319.561 250.228C319.303 250.297 319.15 250.372 319.069 250.43C319.067 250.432 319.065 250.433 319.063 250.435C319.067 250.444 319.073 250.454 319.08 250.465C319.144 250.574 319.275 250.731 319.504 250.929C319.96 251.324 320.676 251.776 321.604 252.264C323.451 253.234 325.988 254.27 328.571 255.225C331.148 256.178 333.746 257.04 335.701 257.665C336.678 257.978 337.493 258.23 338.064 258.405C338.35 258.492 338.574 258.56 338.727 258.605C338.803 258.628 338.861 258.646 338.901 258.657L338.959 258.675L338.959 258.675C338.959 258.675 338.959 258.675 338.764 259.399C338.568 260.124 338.568 260.123 338.568 260.123L338.567 260.123L338.506 260.105C338.466 260.093 338.407 260.076 338.329 260.052C338.175 260.006 337.948 259.938 337.66 259.85C337.084 259.674 336.263 259.419 335.279 259.105C333.313 258.476 330.694 257.607 328.091 256.644C325.494 255.684 322.887 254.623 320.957 253.608C319.998 253.104 319.167 252.592 318.585 252.088C318.295 251.837 318.034 251.56 317.855 251.257C317.674 250.951 317.542 250.558 317.628 250.124C317.712 249.701 317.966 249.397 318.25 249.192C318.526 248.993 318.861 248.862 319.205 248.77C319.893 248.586 320.792 248.516 321.787 248.515C323.778 248.513 326.346 248.787 328.869 249.148C328.43 248.988 327.988 248.826 327.547 248.661C324.783 247.63 322.01 246.503 319.948 245.452C318.922 244.929 318.037 244.407 317.414 243.907C317.104 243.659 316.826 243.39 316.629 243.1C316.435 242.815 316.262 242.422 316.336 241.97C316.411 241.508 316.706 241.202 316.998 241.013C317.286 240.828 317.639 240.708 318.003 240.625C318.736 240.458 319.711 240.399 320.806 240.405C323.011 240.417 325.883 240.7 328.714 241.066C329.644 241.187 330.572 241.316 331.474 241.449C331.256 241.365 331.037 241.281 330.819 241.196C328.628 240.344 326.429 239.416 324.798 238.561C323.988 238.135 323.284 237.71 322.787 237.302C322.541 237.1 322.31 236.875 322.147 236.625C321.987 236.38 321.831 236.015 321.924 235.592C322.011 235.195 322.274 234.936 322.508 234.777C322.745 234.615 323.031 234.499 323.323 234.411C323.91 234.235 324.681 234.125 325.538 234.057C327.264 233.92 329.498 233.944 331.69 234.032C333.889 234.121 336.071 234.277 337.701 234.411C338.517 234.477 339.195 234.538 339.67 234.583C339.908 234.605 340.094 234.623 340.222 234.636C340.285 234.642 340.334 234.647 340.368 234.65L340.418 234.655ZM338.875 251.718L338.727 252.454L339.077 250.995L338.875 251.718ZM339.867 243.623L339.736 244.364L340.08 242.904L339.867 243.623Z" fill="#001A39"/>
<path d="M173.506 155.619C173.703 164.552 166.938 171.963 158.392 172.169C150.837 172.354 144.418 166.845 142.895 159.396C142.698 158.419 142.579 157.409 142.558 156.372C142.36 147.439 149.125 140.029 157.672 139.822C162.12 139.715 166.169 141.577 169.062 144.644C171.732 147.478 173.411 151.336 173.506 155.619Z" fill="#FBC73B"/>
<path d="M171.791 138.08C171.874 141.792 169.063 144.867 165.512 144.953C162.372 145.031 159.706 142.742 159.076 139.646C158.994 139.241 158.945 138.82 158.936 138.39C158.854 134.678 161.665 131.602 165.216 131.516C167.063 131.473 168.746 132.243 169.948 133.521C171.055 134.695 171.754 136.299 171.791 138.08Z" fill="#001A39"/>
<path d="M161.097 136.45C161.147 138.713 159.435 140.588 157.271 140.64C155.357 140.687 153.736 139.293 153.349 137.405C153.3 137.156 153.271 136.902 153.263 136.64C153.213 134.377 154.925 132.502 157.09 132.45C158.217 132.424 159.242 132.893 159.97 133.672C160.649 134.39 161.073 135.367 161.097 136.45Z" fill="#001A39"/>
<path fill-rule="evenodd" clip-rule="evenodd" d="M169.166 162.309C169.165 162.309 169.165 162.309 168.963 163.143C168.76 163.977 168.76 163.977 168.76 163.977L168.757 163.976L168.752 163.975L168.74 163.971C168.73 163.968 168.717 163.965 168.701 163.96C168.67 163.951 168.627 163.937 168.575 163.92C168.47 163.885 168.326 163.832 168.155 163.758C167.817 163.613 167.362 163.379 166.909 163.028C165.991 162.316 165.043 161.079 165.179 159.16L166.821 159.287C166.739 160.444 167.272 161.167 167.89 161.646C168.204 161.89 168.531 162.059 168.783 162.168C168.907 162.221 169.01 162.258 169.078 162.281C169.112 162.293 169.138 162.301 169.153 162.305C169.16 162.307 169.165 162.309 169.167 162.309C169.168 162.31 169.169 162.31 169.168 162.31L169.167 162.309L169.166 162.309L169.166 162.309Z" fill="#001A39"/>
<path d="M169.499 158.73C170.928 158.696 172.072 158.025 172.055 157.232C172.037 156.439 170.864 155.824 169.435 155.859C168.006 155.893 166.862 156.564 166.88 157.357C166.897 158.15 168.07 158.765 169.499 158.73Z" fill="#001A39"/>
<path d="M162.125 159.048C163.554 159.014 164.698 158.343 164.681 157.55C164.663 156.757 163.49 156.142 162.061 156.177C160.632 156.212 159.488 156.882 159.506 157.675C159.523 158.468 160.696 159.083 162.125 159.048Z" fill="#001A39"/>
<path d="M148.179 156.234C148.253 159.481 145.792 162.17 142.69 162.247C139.945 162.316 137.616 160.312 137.061 157.606C136.987 157.249 136.945 156.883 136.937 156.509C136.863 153.266 139.324 150.574 142.426 150.496C144.043 150.457 145.513 151.133 146.562 152.247C147.533 153.275 148.146 154.677 148.179 156.234Z" fill="#FBC73B"/>
<path d="M168.334 144.226C168.334 144.226 162.923 148.019 152.945 146.364L152.476 156.127L146.394 154.875C146.394 154.875 144.703 149.288 139.539 151.413C139.539 151.413 138.86 140.312 145.048 137.977C155.866 133.895 165.635 138.682 168.334 144.226Z" fill="#001A39"/>
<path fill-rule="evenodd" clip-rule="evenodd" d="M97.4356 138.029C79.9991 128.467 63.2724 151.927 77.02 166.659L77.0237 166.663L108.194 200.55L107.155 201.593L75.989 167.71C75.9884 167.71 75.9879 167.709 75.9873 167.708C61.0988 151.75 79.216 126.337 98.1047 136.696C98.1047 136.696 98.1047 136.696 98.1047 136.696L169.738 175.975C169.757 175.976 169.778 175.976 169.8 175.977C169.952 175.98 170.173 175.986 170.454 175.995C171.017 176.012 171.819 176.041 172.782 176.087C174.706 176.179 177.274 176.34 179.842 176.614C182.402 176.888 184.997 177.279 186.958 177.84C187.932 178.118 188.8 178.452 189.437 178.866C190.046 179.262 190.645 179.869 190.617 180.74C190.59 181.609 189.972 182.157 189.346 182.485C188.702 182.822 187.845 183.046 186.898 183.199C186.666 183.237 186.425 183.271 186.176 183.302C186.459 183.373 186.731 183.447 186.991 183.524C187.917 183.796 188.74 184.114 189.339 184.495C189.89 184.845 190.514 185.423 190.447 186.278C190.381 187.111 189.699 187.603 189.106 187.893C188.459 188.207 187.598 188.44 186.636 188.619C184.702 188.979 182.176 189.151 179.691 189.225C177.198 189.299 174.717 189.275 172.86 189.232C172.272 189.218 171.747 189.203 171.302 189.188C171.56 189.623 171.812 190.15 171.959 190.725C172.173 191.558 172.176 192.544 171.595 193.462C171.115 194.221 170.295 194.839 169.086 195.298C169.175 195.711 169.247 196.275 169.17 196.883C169.088 197.534 168.834 198.242 168.255 198.845C167.679 199.443 166.837 199.881 165.674 200.1C165.674 200.1 165.674 200.1 165.674 200.1C165.204 200.189 164.541 200.108 163.812 199.959C163.05 199.803 162.105 199.549 161.012 199.213C158.824 198.542 155.996 197.534 152.762 196.301C146.291 193.836 138.155 190.459 130.188 187.055C122.219 183.651 114.412 180.216 108.599 177.632C105.692 176.341 103.282 175.262 101.6 174.506C100.759 174.127 100.099 173.83 99.6496 173.627C99.425 173.526 99.2528 173.448 99.1368 173.395L98.9616 173.316C98.9611 173.316 98.9608 173.316 99.2473 172.625C99.5338 171.935 99.5341 171.935 99.5345 171.935L99.7089 172.014C99.8246 172.066 99.9964 172.144 100.221 172.245C100.669 172.448 101.328 172.745 102.169 173.123C103.85 173.878 106.257 174.956 109.162 176.247C114.972 178.829 122.772 182.261 130.733 185.662C138.695 189.064 146.81 192.432 153.255 194.887C156.478 196.115 159.273 197.111 161.417 197.769C162.49 198.098 163.388 198.339 164.088 198.482C164.822 198.631 165.242 198.652 165.418 198.619C166.374 198.438 166.922 198.107 167.239 197.778C167.552 197.452 167.694 197.073 167.742 196.686C167.792 196.289 167.742 195.893 167.671 195.583C167.636 195.431 167.598 195.307 167.569 195.224C167.555 195.182 167.544 195.151 167.537 195.133C167.533 195.123 167.53 195.117 167.529 195.114L167.529 195.115C167.529 195.115 167.529 195.115 167.53 195.114L167.53 195.115L168.188 194.809C167.595 195.085 167.536 195.112 167.53 195.114L167.991 194.085C169.42 193.662 170.091 193.11 170.394 192.632C170.683 192.176 170.709 191.666 170.568 191.114C170.423 190.549 170.112 189.999 169.815 189.571C169.669 189.362 169.533 189.192 169.435 189.075C169.386 189.017 169.347 188.973 169.322 188.944C169.309 188.93 169.299 188.92 169.293 188.914L169.288 188.908L169.797 188.375C169.831 187.623 169.831 187.623 169.831 187.623L169.832 187.623L169.834 187.624L169.886 187.626C169.922 187.628 169.977 187.63 170.048 187.633C170.191 187.64 170.401 187.649 170.669 187.659C171.205 187.68 171.972 187.705 172.892 187.727C174.735 187.77 177.19 187.794 179.65 187.721C182.117 187.647 184.558 187.477 186.384 187.137C187.303 186.966 188.02 186.76 188.497 186.528C188.89 186.337 188.985 186.197 189.006 186.157C188.989 186.115 188.912 185.985 188.59 185.781C188.16 185.507 187.486 185.233 186.601 184.973C184.844 184.456 182.45 184.045 180.013 183.728C179.118 183.611 178.22 183.508 177.352 183.416C175.851 183.341 174.443 183.239 173.281 183.142C172.362 183.065 171.596 182.992 171.059 182.938C170.791 182.911 170.58 182.888 170.435 182.873C170.363 182.865 170.308 182.859 170.27 182.855L170.227 182.85L170.213 182.848L170.213 182.848C170.212 182.848 170.212 182.848 170.29 182.1C170.325 181.348 170.325 181.348 170.325 181.348L170.329 181.348L170.383 181.351C170.421 181.353 170.477 181.356 170.549 181.36C170.695 181.368 170.907 181.38 171.178 181.397C171.719 181.43 172.49 181.48 173.415 181.551C174.572 181.639 175.971 181.759 177.459 181.915C178.309 181.957 179.188 181.991 180.067 182.01C182.501 182.062 184.898 182.001 186.677 181.712C187.573 181.567 188.257 181.372 188.701 181.139C189.161 180.898 189.177 180.725 189.178 180.691L189.178 180.69C189.179 180.657 189.165 180.462 188.676 180.144C188.216 179.845 187.505 179.557 186.578 179.292C184.735 178.765 182.236 178.384 179.696 178.112C177.164 177.841 174.625 177.682 172.716 177.591C171.762 177.545 170.967 177.517 170.411 177.499C170.134 177.491 169.915 177.485 169.767 177.481C169.693 177.48 169.636 177.478 169.598 177.478L169.555 177.477L169.545 177.477L169.542 177.476L169.541 177.476C169.541 177.476 169.541 177.476 169.554 176.724L169.541 177.476L169.219 177.39L97.4356 138.029ZM170.29 182.1L170.325 181.348L170.213 182.848L170.29 182.1ZM169.288 188.907L169.288 188.908L169.288 188.907C169.288 188.908 169.288 188.907 169.288 188.907ZM169.288 188.907L169.831 187.623L169.797 188.375" fill="#001A39"/>
<path d="M169.553 176.719C169.553 176.719 190.012 177.093 189.897 180.711C189.785 184.324 170.289 182.096 170.289 182.096C170.289 182.096 189.975 183.072 189.728 186.212C189.481 189.352 169.795 188.371 169.795 188.371" fill="#FFEDDC"/>
<path fill-rule="evenodd" clip-rule="evenodd" d="M169.542 177.364C169.542 177.364 169.542 177.364 169.553 176.719C169.563 176.074 169.564 176.074 169.564 176.074L169.579 176.074L169.624 176.075C169.663 176.076 169.721 176.077 169.797 176.079C169.948 176.083 170.169 176.088 170.45 176.097C171.012 176.114 171.814 176.143 172.776 176.189C174.699 176.281 177.265 176.442 179.831 176.716C182.389 176.99 184.977 177.38 186.929 177.938C187.9 178.216 188.757 178.547 189.381 178.952C189.981 179.342 190.539 179.92 190.513 180.731C190.488 181.541 189.913 182.062 189.299 182.384C188.669 182.713 187.824 182.935 186.881 183.088C186.465 183.156 186.02 183.211 185.554 183.256C186.052 183.372 186.524 183.494 186.962 183.623C187.885 183.894 188.697 184.209 189.284 184.582C189.83 184.929 190.405 185.475 190.343 186.264C190.282 187.035 189.65 187.503 189.061 187.79C188.427 188.099 187.575 188.33 186.617 188.509C184.691 188.867 182.17 189.039 179.687 189.113C177.196 189.187 174.717 189.163 172.861 189.12C171.933 189.098 171.16 189.072 170.619 189.051C170.348 189.041 170.136 189.032 169.99 189.025C169.918 189.022 169.862 189.02 169.824 189.018L169.766 189.015C169.766 189.015 169.766 189.015 169.795 188.371C169.825 187.726 169.825 187.726 169.825 187.726L169.838 187.727L169.88 187.729C169.916 187.73 169.971 187.733 170.043 187.736C170.186 187.743 170.396 187.752 170.664 187.762C171.201 187.782 171.968 187.808 172.889 187.83C174.732 187.872 177.189 187.897 179.651 187.823C182.12 187.75 184.567 187.579 186.401 187.238C187.323 187.067 188.05 186.859 188.54 186.621C189.074 186.36 189.111 186.173 189.113 186.159L189.113 186.158C189.113 186.152 189.117 186.118 189.059 186.038C188.992 185.946 188.863 185.825 188.643 185.684C188.2 185.403 187.515 185.126 186.627 184.865C184.863 184.345 182.463 183.933 180.025 183.616C179.127 183.499 178.228 183.396 177.359 183.304C175.858 183.229 174.45 183.127 173.288 183.03C172.37 182.953 171.604 182.88 171.068 182.826C170.8 182.799 170.589 182.777 170.445 182.761C170.373 182.753 170.317 182.747 170.28 182.743L170.237 182.738L170.222 182.737C170.222 182.737 170.222 182.737 170.289 182.095C170.319 181.451 170.319 181.451 170.319 181.451L170.376 181.454C170.414 181.456 170.47 181.459 170.543 181.463C170.688 181.471 170.9 181.483 171.171 181.499C171.711 181.532 172.482 181.583 173.406 181.653C174.563 181.742 175.962 181.861 177.45 182.017C178.302 182.06 179.183 182.094 180.064 182.113C182.499 182.165 184.903 182.104 186.691 181.813C187.591 181.667 188.287 181.47 188.746 181.23C189.218 180.983 189.277 180.783 189.28 180.689L189.28 180.689C189.283 180.596 189.226 180.371 188.729 180.048C188.257 179.741 187.534 179.449 186.604 179.183C184.752 178.653 182.247 178.272 179.705 178C177.17 177.729 174.629 177.57 172.719 177.478C171.765 177.433 170.97 177.404 170.413 177.387C170.135 177.378 169.917 177.372 169.768 177.369C169.694 177.367 169.637 177.366 169.599 177.365L169.556 177.364L169.542 177.364ZM170.289 182.095L170.319 181.451L170.222 182.737L170.289 182.095Z" fill="#001A39"/>
<path fill-rule="evenodd" clip-rule="evenodd" d="M123.177 257.987L115.001 255.94L115.289 254.686L123.465 256.732L123.177 257.987Z" fill="white"/>
<path d="M540.532 84.8592L494.145 95.6919L504.496 144.235L550.883 133.402L540.532 84.8592Z" fill="#617FA8"/>
<path d="M553.001 359.211C537.929 373.551 514.791 372.167 501.319 356.124C487.848 340.08 489.148 315.45 504.219 301.11L553.001 359.211Z" fill="#62A0E4"/>
<path d="M500.502 126.098C508.406 129.255 516.824 129.378 524.662 125.964C528.089 124.47 531.285 122.492 534.47 120.511C538.507 117.999 542.745 115.649 546.561 112.784C546.862 112.558 546.609 112.093 546.272 112.262C539.101 115.918 532.742 121.179 525.473 124.647C521.715 126.44 517.715 127.615 513.569 127.746C509.147 127.884 504.85 126.893 500.623 125.63C500.333 125.545 500.226 125.991 500.502 126.098Z" fill="white"/>
<path d="M527.383 138.787C523.698 130.404 522.091 120.996 523.445 111.826C524.135 107.145 525.695 102.671 527.61 98.3932C529.386 94.4302 531.672 90.644 533.177 86.5581C533.298 86.2317 532.817 86.0436 532.648 86.324C530.212 90.4674 528.076 94.987 526.197 99.4338C524.414 103.658 523.056 108.059 522.498 112.655C521.427 121.503 522.777 131.207 526.983 139.029C527.129 139.309 527.504 139.067 527.383 138.787Z" fill="white"/>
<path d="M531.983 8.19661C529.52 10.7629 525.042 10.1617 525.042 10.1617C525.042 10.1617 524.56 5.39814 527.024 2.83186C529.487 0.265579 533.964 0.866889 533.964 0.866889C533.964 0.866889 534.448 5.6286 531.983 8.19661Z" fill="#FBC73B"/>
<path fill-rule="evenodd" clip-rule="evenodd" d="M523.004 2.45575C523.004 2.45591 523.004 2.45609 523.832 2.15383C524.659 1.85156 524.659 1.8518 524.66 1.85207L524.66 1.85275L524.661 1.85461L524.664 1.86034L524.674 1.87978C524.683 1.89625 524.696 1.91972 524.711 1.94998C524.742 2.0105 524.787 2.09821 524.841 2.21146C524.951 2.4379 525.102 2.76668 525.274 3.18449C525.619 4.01961 526.048 5.2133 526.392 6.6586C527.08 9.54331 527.44 13.4655 526.078 17.5474L524.33 17.1571C525.594 13.3657 525.268 9.68863 524.613 6.94247C524.286 5.57232 523.88 4.44266 523.557 3.65829C523.395 3.26635 523.254 2.96135 523.155 2.75645C523.106 2.65402 523.067 2.57667 523.041 2.52604C523.028 2.50073 523.018 2.48211 523.012 2.47038L523.005 2.45799L523.004 2.45575Z" fill="#001A39"/>
<path d="M515.857 50.0696C499.548 44.7473 496.336 19.3008 507.894 10.5845C517.753 3.14946 525.491 14.9793 525.491 14.9793C525.491 14.9793 538.172 9.66838 542.886 21.6417C548.313 35.4278 533.074 55.6887 515.857 50.0696Z" fill="#A14259"/>
<path fill-rule="evenodd" clip-rule="evenodd" d="M516.643 348.022C510.187 348.551 503.157 350.835 498.251 352.73L498.007 352.017C502.932 350.114 510.034 347.802 516.588 347.264C523.112 346.73 529.267 347.944 532.052 353.322L532.052 353.322C534.557 358.163 534.374 363.797 533.046 369.123L532.355 368.928C533.659 363.697 533.805 358.288 531.425 353.688C528.863 348.74 523.13 347.49 516.643 348.022Z" fill="white"/>
<path fill-rule="evenodd" clip-rule="evenodd" d="M495.008 312.736C495.008 312.736 495.008 312.735 495.37 312.678C495.732 312.62 495.732 312.62 495.732 312.62L495.732 312.621L495.734 312.628C495.735 312.634 495.737 312.645 495.74 312.66C495.745 312.689 495.754 312.735 495.768 312.795C495.794 312.915 495.838 313.095 495.905 313.326C496.039 313.788 496.267 314.455 496.639 315.261C497.382 316.872 498.701 319.04 501.004 321.243C505.602 325.644 514.164 330.223 530.004 330.726L529.98 331.454C514.002 330.947 505.252 326.32 500.494 321.768C498.118 319.494 496.748 317.248 495.972 315.564C495.583 314.723 495.343 314.022 495.2 313.528C495.128 313.282 495.081 313.087 495.051 312.952C495.036 312.884 495.025 312.832 495.018 312.795C495.015 312.777 495.012 312.763 495.011 312.753L495.009 312.741L495.008 312.737L495.008 312.736Z" fill="white"/>
<path d="M550.628 261.037C544.628 267.266 536.489 270.765 528.003 270.765C521.591 270.765 515.327 268.765 510.024 265.024C504.72 261.284 500.622 255.976 498.259 249.789C495.897 243.601 495.379 236.82 496.774 230.323C498.169 223.827 501.412 217.915 506.082 213.355C511.808 207.762 525.87 197.691 523.736 175.547C549.334 193.262 558.699 206.548 541.655 237.55C545.354 237.55 550.755 233.905 557.867 226.61C559.019 230.034 560 233.714 560 237.55C560 246.359 556.629 254.807 550.628 261.037Z" fill="#F96155"/>
<mask id="mask0_5474_34381" style="mask-type:alpha" maskUnits="userSpaceOnUse" x="496" y="175" width="64" height="97">
<path d="M550.702 261.333C544.749 267.589 536.675 271.103 528.257 271.103C521.896 271.102 515.682 269.094 510.421 265.338C505.16 261.582 501.094 256.252 498.75 250.038C496.406 243.825 495.893 237.015 497.277 230.491C498.661 223.968 501.878 218.031 506.511 213.452C512.191 207.835 526.14 197.722 524.024 175.485C549.418 193.274 558.709 206.616 541.8 237.748C545.47 237.748 550.828 234.088 557.883 226.763C559.026 230.201 559.999 233.896 559.999 237.748C559.999 246.594 556.655 255.078 550.702 261.333Z" fill="#F96155"/>
</mask>
<g mask="url(#mask0_5474_34381)">
<path d="M481.433 302.047C483.576 290.558 494.196 286.165 503.395 282.229C507.252 280.577 511.215 278.654 513.952 275.244C516.796 271.695 517.86 267.076 517.681 262.514C517.479 257.422 515.78 252.637 513.894 247.994C511.776 242.791 509.072 237.415 508.775 231.659C508.287 222.281 515.67 214.432 524.047 212.428C534.759 209.862 545.276 217.823 552.347 225.369C552.787 225.841 553.635 225.207 553.246 224.643C547.962 216.963 538.924 210.757 529.783 209.92C521.273 209.144 512.426 214.432 508.654 222.446C503.766 232.834 510.151 242.964 513.563 252.637C515.442 257.967 516.649 263.981 514.8 269.518C513.05 274.76 508.577 277.667 503.949 279.79C498.86 282.125 493.638 284.018 489.135 287.532C484.611 291.065 481.294 295.823 480.38 301.736C480.259 302.462 481.294 302.784 481.433 302.047Z" fill="#FBC73B"/>
<path d="M533.142 274.226C527.975 265.252 525.502 254.707 527.59 244.312C528.1 241.774 528.892 239.036 531.013 237.469C533.718 235.468 536.334 237.189 538.584 239.044C542.477 242.261 545.64 246.244 548.477 250.479C548.899 251.109 549.765 250.575 549.456 249.88C547.042 244.447 543.057 239.666 538.349 236.256C536.323 234.789 533.993 233.882 531.571 234.819C529.256 235.714 527.667 237.838 526.764 240.165C524.683 245.51 524.687 252.011 525.498 257.629C526.386 263.797 528.624 269.795 532.195 274.806C532.602 275.386 533.516 274.875 533.142 274.226Z" fill="#FBC73B"/>
<path d="M505.058 183.101C507.286 186.461 509.891 189.169 513.509 190.843C516.838 192.383 520.536 192.893 524.133 192.31C527.931 191.691 531.538 189.875 534.378 187.172C537.361 184.33 539.152 180.575 540.697 176.742C542.304 172.76 543.75 168.601 546.495 165.287C548.928 162.349 552.072 160.091 555.522 158.663C562.211 155.898 569.965 156.148 576.185 160.072C580.075 162.53 583.469 165.994 587.894 167.422C591.545 168.601 596.037 167.679 598.529 164.523C599.116 163.778 598.209 162.795 597.509 163.455C590.232 170.275 582.478 161.224 576.225 157.684C570.618 154.508 563.888 153.997 557.779 155.725C551.757 157.43 546.271 161.336 542.965 166.927C538.701 174.127 537.725 183.163 530.294 187.928C521.96 193.274 511.579 190.405 505.767 182.544C505.451 182.118 504.769 182.667 505.058 183.101Z" fill="#FBC73B"/>
</g>
</svg>
