<svg width="512" height="408" viewBox="0 0 512 408" fill="none" xmlns="http://www.w3.org/2000/svg">
<path d="M292.694 110.014C292.694 110.014 281.023 131.415 257.628 135.258C234.232 139.101 207.99 123.88 207.99 123.88C207.99 123.88 223.991 107.511 243.932 101.139C246.475 100.315 249.075 99.6822 251.71 99.2423C262.014 97.554 271.19 99.4443 278.233 102.084C287.184 105.439 292.694 110.014 292.694 110.014Z" fill="#F96155"/>
<path d="M199.318 187.961C199.318 187.961 189.333 218.564 166.298 221.938C143.263 225.311 115.904 200.177 115.904 200.177C115.904 200.177 134.579 168.926 157.614 165.552C161.941 164.946 166.349 165.273 170.536 166.515C181.703 169.705 190.786 178.208 195.602 183.499C196.915 184.923 198.157 186.412 199.318 187.961Z" fill="#F96155"/>
<path d="M512 153.211C512 153.211 467.738 208.303 422.981 208.303C378.225 208.303 349.928 153.211 349.928 153.211C351.795 149.65 353.841 146.184 356.059 142.829C363.385 131.587 377.007 113.946 395.429 104.099C403.693 99.682 412.922 96.8315 422.981 96.8315C467.738 96.8315 512 153.211 512 153.211Z" fill="#F96155"/>
<path d="M424.858 250.832C424.858 250.832 398.714 269.374 377.227 264.823C355.741 260.272 347.063 234.371 347.063 234.371C349.35 231.949 351.84 229.725 354.508 227.725C361.754 222.229 373.532 215.675 386.42 218.08C386.659 218.121 386.9 218.169 387.138 218.219C408.618 222.77 424.858 250.832 424.858 250.832Z" fill="#F96155"/>
<path d="M493.796 235.474C493.796 235.474 482.247 241.585 471.589 240.164C460.93 238.743 455.209 230.326 455.209 230.326C455.844 229.793 456.514 229.309 457.214 228.869C459.751 227.24 464.507 224.818 470.466 224.761C471.526 224.749 472.586 224.815 473.637 224.955C484.284 226.375 493.796 235.474 493.796 235.474Z" fill="#F96155"/>
<path d="M508.721 70.2202C508.721 70.2202 494.001 89.8168 477.279 91.5022C470.501 92.1858 464.438 89.8197 459.623 86.7641C455.251 83.9463 451.38 80.4152 448.175 76.3223C450.492 71.5516 453.595 67.2033 457.353 63.4581C461.442 59.4544 466.883 55.9024 473.61 55.2247C490.329 53.5393 508.721 70.2202 508.721 70.2202Z" fill="#F96155"/>
<path d="M431.421 27.8464C431.421 27.8464 410.167 48.2514 386.096 51.8836C383.511 52.2789 380.902 52.4781 378.288 52.4781C364.886 52.4781 354.148 47.324 348.537 43.9356C347.048 43.0557 345.619 42.0839 344.255 41.0227C344.255 41.0227 356.87 21.5242 380.938 17.8891C405.006 14.2539 431.421 27.8464 431.421 27.8464Z" fill="#F96155"/>
<path d="M487.273 298.066C487.273 298.066 468.857 309.893 453.503 306.609C438.148 303.324 431.68 286.182 431.68 286.182C432.663 285.213 433.705 284.307 434.801 283.469C438.229 280.793 444.196 276.959 451.308 275.886C454.211 275.431 457.175 275.509 460.048 276.115C475.415 279.393 487.273 298.066 487.273 298.066Z" fill="#F96155"/>
<path d="M317.658 33.0922C317.658 33.0922 312.661 41.4654 305.124 47.0624C301.577 49.6989 297.461 51.7232 293.045 51.964C288.435 52.2166 284.072 50.4956 280.308 48.0999C272.812 43.3203 267.69 35.8327 267.69 35.8327C267.69 35.8327 278.167 25.3907 291.97 24.6357C305.773 23.8807 317.658 33.0922 317.658 33.0922Z" fill="#F96155"/>
<path d="M46.5493 225.368C46.5493 225.368 40.8285 240.565 27.9754 242.806C15.1223 245.048 0 233.47 0 233.47C0 233.47 10.2503 217.149 23.1034 214.914C26.0099 214.43 28.9909 214.626 31.8081 215.49C37.1 217.042 41.4569 220.425 44.0179 222.797C44.9113 223.605 45.7571 224.464 46.5493 225.368Z" fill="#F96155"/>
<path d="M223.374 57.8877C223.374 57.8877 221.093 61.9153 216.793 67.9284C205.843 83.2242 181.807 111.361 148.927 118.705C143.397 119.945 137.739 120.545 132.072 120.489C76.5377 119.915 22.2754 55.8071 22.2754 55.8071C22.2754 55.8071 77.7855 -0.569744 133.316 0.00392126C188.847 0.577587 223.374 57.8877 223.374 57.8877Z" fill="#F96155"/>
<path d="M108.042 159.599C108.042 159.599 95.8889 185.283 74.1971 186.647C52.5053 188.011 29.4912 164.536 29.4912 164.536C29.4912 164.536 49.5392 140.944 71.231 139.568C76.243 139.292 81.252 140.139 85.8917 142.044C96.4696 146.256 104.04 154.599 106.851 158.056C107.631 159.016 108.042 159.599 108.042 159.599Z" fill="#F96155"/>
<path d="M167.858 257.392C167.858 257.392 150.982 289.439 113.272 298.021C75.561 306.602 31.3435 285.24 31.3435 285.24C31.3435 285.24 62.9968 251.581 100.704 243C103.087 242.456 105.433 242.04 107.741 241.737C131.303 238.634 150.887 247.2 160.821 252.853C163.266 254.211 165.616 255.727 167.858 257.392Z" fill="#F96155"/>
<path d="M263.977 129.825C253.387 131.554 243.399 124.388 241.665 113.822C240.951 109.461 241.749 104.985 243.929 101.139C246.472 100.315 249.072 99.6822 251.71 99.2423C262.014 97.554 271.189 99.4443 278.232 102.084C282.988 111.693 279.039 123.33 269.411 128.077C267.696 128.924 265.865 129.512 263.977 129.825Z" fill="#001A39"/>
<path d="M179.443 203.066C169.106 204.609 159.472 197.496 157.927 187.179C156.575 178.152 161.882 169.452 170.536 166.506C181.703 169.696 190.786 178.2 195.602 183.49C196.057 193.192 189.071 201.657 179.443 203.066Z" fill="#001A39"/>
<path d="M430.006 140.944C429.983 161.34 413.395 177.852 392.963 177.828C373.299 177.804 357.09 162.431 356.06 142.829C363.385 131.587 377.007 113.946 395.429 104.099C414.881 105.368 430.009 121.487 430.006 140.944Z" fill="#001A39"/>
<path d="M380.158 44.2003C380.306 47.0746 379.657 49.9338 378.287 52.4662C364.886 52.4662 354.148 47.3122 348.537 43.9237C349.118 35.2118 356.661 28.6191 365.39 29.1987C373.415 29.7308 379.767 36.1839 380.158 44.2003Z" fill="#001A39"/>
<path d="M390.244 229.11C390.244 238.975 382.233 246.971 372.349 246.971C362.465 246.971 354.455 238.975 354.455 229.11C354.455 228.646 354.455 228.183 354.508 227.725C361.754 222.229 373.532 215.675 386.42 218.08C388.904 221.221 390.25 225.109 390.244 229.11Z" fill="#001A39"/>
<path d="M470.195 75.1127C470.192 81.1258 465.626 86.1579 459.632 86.7583C455.26 83.9405 451.388 80.4094 448.184 76.3165C450.501 71.5458 453.604 67.1972 457.362 63.4521C457.729 63.4194 458.098 63.4016 458.473 63.4016C464.95 63.4075 470.198 68.6508 470.195 75.1127Z" fill="#001A39"/>
<path d="M381.328 84.1991C381.328 84.1991 373.585 91.098 361.881 92.5574C358.248 92.9913 354.57 92.8159 350.997 92.0401C350.431 91.9212 349.889 91.7905 349.365 91.6538C344.284 90.3251 341.05 88.307 341.05 88.307C341.05 88.307 343.049 85.5576 347.149 83.0282C347.468 82.835 347.804 82.6388 348.15 82.4337C351.304 80.686 354.767 79.5653 358.347 79.1314C370.038 77.6809 381.328 84.1991 381.328 84.1991Z" fill="#F96155"/>
<path d="M471.398 228.733C471.172 232.647 467.809 235.64 463.887 235.414C460.332 235.209 457.476 232.415 457.202 228.869C459.739 227.24 464.495 224.818 470.454 224.761C471.154 225.962 471.484 227.344 471.398 228.733Z" fill="#001A39"/>
<path d="M48.8632 112.139C46.2128 114.404 43.1306 116.104 39.7982 117.139C36.8678 118.078 33.7796 118.426 30.7123 118.164C19.9914 117.225 10.0687 108.742 10.0687 108.742C10.0687 108.742 21.3464 101.938 32.0583 102.877C33.1155 102.969 34.1638 103.139 35.1971 103.379C36.436 103.674 37.651 104.072 38.8244 104.568C41.9721 105.912 44.825 107.856 47.2223 110.293C47.812 110.873 48.3599 111.488 48.8632 112.139Z" fill="#F96155"/>
<path d="M455.462 285.659C454.664 291.33 449.411 295.283 443.729 294.487C438.315 293.729 434.417 288.911 434.81 283.468C438.238 280.793 444.206 276.959 451.317 275.886C454.393 278.136 455.984 281.89 455.462 285.659Z" fill="#001A39"/>
<path d="M305.154 46.2065C305.154 46.5037 305.154 46.783 305.124 47.0654C301.577 49.7019 297.461 51.7261 293.045 51.9669C288.435 52.2196 284.072 50.4986 280.308 48.1028C279.176 41.3021 283.783 34.8727 290.6 33.7432C297.414 32.6137 303.855 37.2121 304.987 44.0159C305.109 44.7441 305.163 45.4781 305.154 46.2152V46.2065Z" fill="#001A39"/>
<path d="M44.0269 222.791C44.3217 227.543 40.7034 231.633 35.9416 231.928C31.1797 232.222 27.082 228.611 26.7872 223.858C26.5668 220.297 28.565 216.968 31.817 215.485C37.1 217.036 41.4569 220.419 44.0269 222.791Z" fill="#001A39"/>
<path d="M216.793 67.9286C205.843 83.2243 181.807 111.361 148.927 118.705C127.581 105.46 121.035 77.4518 134.305 56.1461C147.575 34.8403 175.637 28.3072 196.983 41.552C206.665 47.5591 213.732 56.9726 216.793 67.9286Z" fill="#001A39"/>
<path d="M135.19 278.475C120.076 279.417 107.059 267.95 106.118 252.865C105.883 249.084 106.434 245.295 107.741 241.737C131.303 238.634 150.887 247.2 160.821 252.853C159.97 266.621 148.984 277.604 135.19 278.475Z" fill="#001A39"/>
<path d="M106.845 158.044C105.618 166.263 97.9497 171.934 89.7155 170.709C81.4813 169.485 75.7993 161.831 77.0262 153.612C77.7916 148.491 81.1388 144.119 85.8947 142.044C96.4637 146.244 104.034 154.587 106.845 158.044Z" fill="#001A39"/>
<path d="M323.468 317.784C323.468 317.784 296.407 281.908 287.184 259.933C282.905 249.738 280.451 239.347 277.133 224.369L249.503 252.422L256.868 328H198.231C200.5 325.622 209.845 316.235 220.795 311.087C220.795 311.087 207.204 260.629 208.151 240.91C209.422 214.456 264.617 156.383 290.436 165.526C317.685 175.177 328.632 249.61 328.632 249.61L371.78 328H315.824C317.056 324.947 319.504 320.206 323.468 317.784Z" fill="#001A39"/>
<path d="M314.707 127.699L296.636 154.189C291.788 161.293 280.993 160.249 277.604 152.352L266.311 126.047C263.944 120.521 266.514 114.125 272.05 111.765C273.381 111.197 274.814 110.9 276.261 110.888L305.627 110.703C314.412 110.638 319.665 120.45 314.707 127.699Z" fill="#0046DC"/>
<path d="M286.508 118.907L286.636 99.141C286.636 99.141 279.004 95.1759 280.424 89.7038C281.845 84.2317 287.434 86.7167 287.434 86.7167C287.434 86.7167 290.165 79.2174 298.286 78.6913C306.407 78.1652 310.442 82.8051 311.419 89.2046C313.114 100.318 307.125 103.793 295.153 103.745L294.582 116.758" fill="#FFF5EB"/>
<path d="M283.631 86.2619C283.631 86.2619 281.249 77.6897 292.005 73.8643C302.762 70.0389 305.109 73.7246 309.007 71.0138C312.905 68.3031 318.834 80.7958 306.845 84.3894C294.855 87.983 295.15 87.1417 295.15 87.1417C295.15 87.1417 295.88 92.6969 292.652 92.8426C289.423 92.9882 287.455 87.43 287.455 87.43" fill="#742A40"/>
<path fill-rule="evenodd" clip-rule="evenodd" d="M308.7 92.8196L307.053 88.2677L307.894 87.9654L309.54 92.5174L308.7 92.8196Z" fill="#001A39"/>
<path fill-rule="evenodd" clip-rule="evenodd" d="M304.732 85.4318L300.56 87.8991L300.104 87.133L304.276 84.6657L304.732 85.4318Z" fill="#001A39"/>
<path d="M303.736 89.7607C304.465 89.7607 305.055 89.1716 305.055 88.4451C305.055 87.7187 304.465 87.1298 303.736 87.1298C303.007 87.1298 302.417 87.7187 302.417 88.4451C302.417 89.1716 303.007 89.7607 303.736 89.7607Z" fill="#001A39"/>
<path fill-rule="evenodd" clip-rule="evenodd" d="M306.23 84.1366L311.081 84.217L311.066 85.1083L306.215 85.028L306.23 84.1366Z" fill="#001A39"/>
<path d="M309.12 88.4913C309.849 88.4913 310.439 87.9025 310.439 87.176C310.439 86.4496 309.849 85.8608 309.12 85.8608C308.391 85.8608 307.801 86.4496 307.801 87.176C307.801 87.9025 308.391 88.4913 309.12 88.4913Z" fill="#001A39"/>
<path fill-rule="evenodd" clip-rule="evenodd" d="M329.606 117.362C327.064 116.301 324.906 115.663 323.266 115.532L323.337 114.643C325.118 114.786 327.379 115.466 329.951 116.539C332.53 117.616 335.45 119.101 338.556 120.877C344.769 124.429 351.749 129.161 358.266 134.16C364.783 139.159 370.849 144.436 375.23 149.082C377.42 151.404 379.199 153.579 380.403 155.492C381.593 157.384 382.274 159.101 382.136 160.478C382.003 161.798 381.484 162.854 380.653 163.685C379.83 164.509 378.721 165.093 377.434 165.515C374.869 166.356 371.476 166.592 367.885 166.7C366.853 166.731 365.805 166.751 364.751 166.772C362.109 166.824 359.433 166.877 356.91 167.096C353.588 167.386 350.606 167.961 348.387 169.163C348.411 169.198 348.436 169.235 348.463 169.274C348.688 169.599 349.008 170.065 349.387 170.626C350.145 171.749 351.144 173.256 352.1 174.791C353.055 176.323 353.976 177.895 354.576 179.144C354.874 179.765 355.104 180.33 355.214 180.78C355.268 181.003 355.301 181.23 355.28 181.435C355.26 181.642 355.177 181.895 354.932 182.05C354.564 182.285 354.123 182.173 353.798 182.037C353.442 181.889 353.042 181.636 352.628 181.332C351.797 180.723 350.819 179.842 349.876 178.972C349.684 178.794 349.492 178.617 349.304 178.442C348.56 177.753 347.858 177.102 347.271 176.613C346.99 176.378 346.748 176.191 346.548 176.057C346.683 176.407 346.908 176.879 347.202 177.445C347.59 178.196 348.08 179.08 348.604 180.026C348.923 180.602 349.255 181.2 349.584 181.805C350.446 183.389 351.287 185.013 351.789 186.316C352.039 186.964 352.218 187.564 352.263 188.057C352.305 188.519 352.24 189.08 351.749 189.357C351.488 189.504 351.197 189.49 350.949 189.431C350.697 189.37 350.427 189.246 350.154 189.089C349.604 188.773 348.954 188.271 348.25 187.66C346.839 186.434 345.146 184.709 343.511 182.978C342.605 182.02 341.693 181.033 340.858 180.13C340.204 179.422 339.596 178.765 339.076 178.212C338.878 178.002 338.691 177.805 338.516 177.623C338.566 177.709 338.617 177.796 338.67 177.886C338.974 178.403 339.337 179.006 339.728 179.653C340.236 180.497 340.79 181.416 341.317 182.318C342.261 183.933 343.175 185.587 343.738 186.913C344.018 187.572 344.224 188.18 344.294 188.676C344.358 189.127 344.337 189.713 343.85 190.005C343.576 190.169 343.265 190.132 343.023 190.06C342.769 189.985 342.494 189.842 342.211 189.663C341.641 189.304 340.95 188.739 340.189 188.053C338.664 186.676 336.793 184.746 334.943 182.807C334.573 182.419 334.204 182.031 333.839 181.647C332.369 180.102 330.956 178.617 329.776 177.455C329.038 176.73 328.403 176.142 327.908 175.75C327.659 175.552 327.46 175.415 327.31 175.334C327.257 175.305 327.216 175.287 327.186 175.276C327.183 175.279 327.18 175.283 327.177 175.287C327.138 175.336 327.087 175.424 327.034 175.566C326.927 175.85 326.838 176.265 326.767 176.791C326.625 177.838 326.565 179.214 326.503 180.615L326.503 180.617C326.441 182.004 326.379 183.419 326.229 184.502C326.155 185.041 326.055 185.528 325.91 185.899C325.78 186.23 325.541 186.654 325.078 186.725C324.79 186.769 324.534 186.618 324.368 186.495C324.18 186.356 323.983 186.158 323.782 185.925C323.377 185.455 322.907 184.78 322.405 183.969C321.399 182.345 320.237 180.124 319.192 177.777C318.148 175.432 317.214 172.945 316.672 170.789C316.401 169.711 316.224 168.703 316.184 167.83C316.145 166.967 316.237 166.182 316.552 165.59C317.113 164.537 318.275 163.264 319.934 161.905C321.602 160.538 323.803 159.058 326.478 157.6C331.83 154.681 339.1 151.834 347.847 150.131L348.018 151.006C339.361 152.692 332.178 155.508 326.907 158.382C324.271 159.819 322.118 161.268 320.501 162.594C318.874 163.927 317.819 165.11 317.341 166.008C317.136 166.392 317.04 166.986 317.077 167.789C317.113 168.582 317.275 169.527 317.538 170.572C318.064 172.661 318.976 175.097 320.009 177.415C321.041 179.733 322.184 181.917 323.165 183.501C323.657 184.295 324.099 184.925 324.46 185.344C324.641 185.554 324.789 185.697 324.9 185.779C324.921 185.794 324.938 185.806 324.952 185.815C324.98 185.779 325.025 185.709 325.078 185.574C325.184 185.303 325.272 184.899 325.344 184.38C325.487 183.348 325.548 181.98 325.61 180.577L325.612 180.543C325.673 179.166 325.735 177.759 325.882 176.672C325.956 176.126 326.055 175.631 326.197 175.252C326.269 175.062 326.359 174.879 326.479 174.73C326.6 174.578 326.77 174.44 326.997 174.388C327.147 174.354 327.289 174.377 327.399 174.408C327.513 174.44 327.626 174.491 327.735 174.55C327.952 174.667 328.199 174.841 328.464 175.052C328.997 175.475 329.66 176.09 330.403 176.82C331.595 177.993 333.022 179.493 334.493 181.039C334.857 181.422 335.223 181.808 335.59 182.192C337.443 184.134 339.292 186.04 340.789 187.391C341.539 188.069 342.185 188.592 342.688 188.91C342.942 189.07 343.138 189.164 343.278 189.206C343.339 189.224 343.377 189.229 343.397 189.229C343.401 189.221 343.406 189.207 343.412 189.186C343.429 189.114 343.436 188.99 343.41 188.801C343.356 188.422 343.187 187.9 342.915 187.261C342.377 185.992 341.488 184.38 340.546 182.767C340.009 181.849 339.473 180.961 338.976 180.135C338.587 179.492 338.223 178.887 337.899 178.338C337.54 177.726 337.24 177.197 337.044 176.8C336.948 176.605 336.868 176.425 336.821 176.276C336.798 176.203 336.775 176.115 336.77 176.024C336.766 175.953 336.765 175.759 336.92 175.604C337.138 175.386 337.412 175.478 337.467 175.498C337.559 175.532 337.645 175.586 337.712 175.633C337.853 175.732 338.025 175.882 338.216 176.06C338.602 176.422 339.121 176.959 339.727 177.602C340.274 178.183 340.881 178.84 341.532 179.544C342.351 180.431 343.239 181.391 344.161 182.367C345.794 184.096 347.461 185.793 348.837 186.987C349.527 187.586 350.126 188.044 350.6 188.316C350.837 188.453 351.023 188.531 351.159 188.564C351.264 188.589 351.306 188.58 351.314 188.578C351.322 188.573 351.338 188.559 351.354 188.508C351.376 188.438 351.39 188.32 351.373 188.137C351.34 187.77 351.197 187.262 350.956 186.636C350.476 185.394 349.661 183.816 348.799 182.23C348.478 181.641 348.15 181.05 347.833 180.476C347.303 179.52 346.802 178.615 346.408 177.855C346.093 177.247 345.836 176.709 345.684 176.298C345.609 176.095 345.55 175.896 345.531 175.722C345.521 175.635 345.518 175.528 345.544 175.42C345.57 175.307 345.634 175.169 345.773 175.069C345.98 174.922 346.213 174.942 346.361 174.978C346.516 175.015 346.672 175.09 346.819 175.175C347.114 175.345 347.466 175.613 347.844 175.928C348.451 176.435 349.176 177.107 349.922 177.798C350.108 177.971 350.295 178.144 350.483 178.317C351.43 179.191 352.373 180.038 353.158 180.614C353.552 180.903 353.884 181.107 354.142 181.214C354.263 181.265 354.343 181.284 354.393 181.291C354.391 181.224 354.378 181.126 354.345 180.991C354.258 180.632 354.061 180.135 353.77 179.529C353.193 178.326 352.292 176.787 351.342 175.262C350.393 173.739 349.401 172.242 348.646 171.125C348.269 170.566 347.951 170.103 347.728 169.78C347.616 169.618 347.528 169.492 347.468 169.405C347.438 169.362 347.415 169.329 347.4 169.307L347.377 169.274L347.376 169.274C347.376 169.274 347.376 169.274 347.742 169.018L347.376 169.274L347.51 168.637C349.951 167.161 353.273 166.518 356.832 166.208C359.388 165.985 362.111 165.932 364.765 165.88C365.811 165.859 366.847 165.839 367.858 165.808C371.458 165.7 374.729 165.464 377.155 164.668C378.362 164.272 379.33 163.747 380.02 163.056C380.703 162.373 381.134 161.509 381.247 160.389C381.353 159.328 380.821 157.833 379.646 155.967C378.486 154.122 376.749 151.994 374.58 149.693C370.242 145.093 364.215 139.849 357.722 134.867C351.23 129.887 344.283 125.179 338.112 121.651C335.027 119.886 332.141 118.42 329.606 117.362ZM327.14 175.262C327.139 175.262 327.14 175.262 327.142 175.263C327.14 175.262 327.14 175.262 327.14 175.262ZM346.14 175.843C346.14 175.843 346.141 175.843 346.144 175.843C346.142 175.843 346.14 175.843 346.14 175.843Z" fill="#001A39"/>
<path fill-rule="evenodd" clip-rule="evenodd" d="M316.42 139.023C316.42 139.023 316.42 139.023 316.616 138.623C316.812 138.222 316.812 138.222 316.812 138.222L316.824 138.228L316.856 138.244C316.884 138.258 316.926 138.278 316.981 138.306C317.091 138.36 317.252 138.441 317.46 138.546C317.874 138.757 318.474 139.066 319.213 139.46C320.69 140.247 322.729 141.375 324.973 142.735C329.449 145.449 334.785 149.114 338.095 152.875L337.424 153.464C334.21 149.812 328.974 146.204 324.509 143.497C322.283 142.148 320.259 141.028 318.792 140.247C318.058 139.856 317.464 139.55 317.054 139.341C316.849 139.237 316.69 139.157 316.583 139.104C316.529 139.077 316.488 139.057 316.46 139.043L316.43 139.028L316.42 139.023Z" fill="#001A39"/>
<path fill-rule="evenodd" clip-rule="evenodd" d="M257.303 116.407C259.142 115.372 260.839 114.716 262.283 114.642L262.329 115.533C261.092 115.596 259.54 116.171 257.743 117.184C255.954 118.191 253.965 119.608 251.864 121.305C247.663 124.697 243.054 129.176 238.769 133.648C234.486 138.118 230.537 142.572 227.658 145.909C226.218 147.578 225.047 148.967 224.235 149.938C223.83 150.424 223.514 150.805 223.3 151.065C223.211 151.173 223.139 151.26 223.086 151.325L222.994 151.437L222.975 151.461L222.974 151.462C222.974 151.462 222.974 151.462 222.627 151.181C222.73 151.615 222.73 151.615 222.729 151.615L222.728 151.615L222.634 151.638C222.57 151.653 222.476 151.675 222.353 151.705C222.106 151.763 221.744 151.85 221.282 151.961C220.357 152.184 219.032 152.506 217.431 152.902C214.23 153.694 209.927 154.783 205.517 155.972C201.106 157.16 196.595 158.446 192.976 159.631C191.166 160.224 189.585 160.79 188.355 161.304C187.103 161.826 186.276 162.271 185.914 162.606C185.1 163.362 183.667 165.198 181.984 167.607C180.31 170.003 178.414 172.928 176.678 175.831C174.941 178.735 173.37 181.607 172.342 183.897C171.827 185.044 171.455 186.029 171.264 186.791C171.169 187.173 171.123 187.482 171.121 187.718C171.118 187.963 171.164 188.076 171.193 188.118C171.245 188.191 171.293 188.218 171.342 188.231C171.4 188.247 171.496 188.251 171.647 188.21C171.959 188.124 172.381 187.88 172.895 187.474C173.912 186.67 175.132 185.36 176.32 183.948C177.502 182.543 178.634 181.059 179.47 179.925C179.889 179.359 180.232 178.881 180.472 178.544C180.591 178.376 180.685 178.243 180.748 178.153C180.78 178.108 180.804 178.073 180.82 178.05L180.838 178.023L180.841 178.02L180.841 178.019L180.843 178.017L180.844 178.015L180.844 178.015C180.844 178.015 180.844 178.015 181.212 178.268C181.582 178.517 181.582 178.517 181.582 178.517L181.582 178.517L181.581 178.519L181.579 178.521L181.579 178.522L181.578 178.524L181.577 178.526L181.559 178.552C181.551 178.564 181.54 178.58 181.527 178.599C181.517 178.615 181.504 178.634 181.49 178.655C181.43 178.745 181.341 178.877 181.228 179.047C181.003 179.386 180.682 179.873 180.298 180.462C179.53 181.641 178.513 183.23 177.516 184.871C176.517 186.514 175.544 188.201 174.859 189.579C174.516 190.269 174.252 190.869 174.093 191.341C174.013 191.578 173.963 191.77 173.941 191.918C173.935 191.959 173.932 191.994 173.93 192.024C173.951 192.018 173.976 192.011 174.005 192.002C174.275 191.912 174.674 191.692 175.18 191.347C176.181 190.666 177.472 189.593 178.76 188.451C180.045 187.314 181.311 186.122 182.258 185.213C182.731 184.759 183.123 184.376 183.397 184.107C183.534 183.973 183.642 183.867 183.715 183.794C183.751 183.758 183.779 183.73 183.798 183.712L183.825 183.685L183.826 183.684L183.826 183.684C183.826 183.683 183.826 183.683 184.142 183.999C184.493 184.275 184.493 184.275 184.493 184.275L184.488 184.281L184.475 184.298C184.463 184.313 184.445 184.336 184.422 184.365C184.375 184.425 184.307 184.513 184.22 184.625C184.046 184.85 183.799 185.173 183.506 185.565C182.919 186.35 182.15 187.41 181.417 188.513C180.681 189.62 179.991 190.756 179.555 191.697C179.336 192.169 179.191 192.571 179.131 192.883C179.085 193.12 179.098 193.25 179.116 193.314C179.178 193.306 179.28 193.28 179.431 193.215C179.784 193.063 180.267 192.759 180.863 192.323C182.047 191.456 183.571 190.144 185.2 188.723C185.383 188.564 185.568 188.403 185.753 188.241C187.209 186.97 188.72 185.651 190.104 184.54C191.647 183.299 193.088 182.27 194.14 181.875C195.157 181.494 197.597 180.953 200.714 180.317C202.361 179.98 204.218 179.613 206.178 179.226C207.943 178.877 209.791 178.511 211.647 178.137C215.571 177.344 219.543 176.507 222.882 175.686C226.24 174.861 228.906 174.064 230.255 173.361C230.919 173.015 231.941 172.302 233.24 171.295C234.532 170.294 236.075 169.021 237.773 167.571C241.169 164.672 245.174 161.079 249.006 157.575C252.837 154.071 256.493 150.658 259.191 148.121C260.54 146.853 261.65 145.803 262.422 145.071C262.809 144.705 263.11 144.418 263.316 144.223C263.418 144.125 263.497 144.051 263.549 144L263.628 143.925L263.629 143.925C263.629 143.924 263.629 143.924 263.938 144.247C264.247 144.569 264.247 144.569 264.246 144.569L264.245 144.57L264.166 144.645C264.113 144.696 264.035 144.771 263.932 144.869C263.726 145.064 263.424 145.351 263.038 145.718C262.265 146.451 261.154 147.501 259.804 148.77C257.104 151.309 253.444 154.725 249.609 158.232C245.774 161.739 241.761 165.34 238.354 168.249C236.65 169.703 235.095 170.987 233.788 172C232.488 173.007 231.41 173.765 230.669 174.151C229.209 174.912 226.437 175.731 223.096 176.552C219.737 177.378 215.751 178.218 211.824 179.011C209.958 179.388 208.109 179.753 206.346 180.102C204.392 180.488 202.543 180.853 200.893 181.19C197.742 181.834 195.388 182.36 194.454 182.71C193.556 183.047 192.221 183.983 190.664 185.234C189.296 186.333 187.8 187.639 186.341 188.912C186.156 189.074 185.972 189.235 185.788 189.395C184.166 190.809 182.612 192.149 181.392 193.042C180.785 193.486 180.235 193.84 179.785 194.034C179.563 194.13 179.329 194.202 179.107 194.207C178.869 194.213 178.606 194.138 178.426 193.902C178.166 193.56 178.178 193.105 178.254 192.713C178.334 192.299 178.513 191.822 178.744 191.323C179.209 190.32 179.929 189.139 180.672 188.02C180.726 187.94 180.779 187.86 180.833 187.78C180.355 188.221 179.856 188.673 179.353 189.118C178.061 190.264 176.733 191.369 175.684 192.084C175.165 192.437 174.681 192.717 174.286 192.848C174.093 192.912 173.868 192.959 173.649 192.917C173.392 192.868 173.186 192.701 173.093 192.441C173.018 192.232 173.027 191.997 173.058 191.787C173.09 191.568 173.157 191.32 173.246 191.057C173.424 190.529 173.709 189.887 174.059 189.182C174.577 188.14 175.251 186.934 175.973 185.71C175.102 186.679 174.231 187.555 173.45 188.173C172.91 188.599 172.374 188.935 171.884 189.069C171.633 189.138 171.368 189.161 171.111 189.093C170.844 189.022 170.625 188.861 170.462 188.63C170.277 188.367 170.224 188.035 170.227 187.71C170.23 187.377 170.293 186.993 170.398 186.575C170.607 185.738 171.003 184.698 171.527 183.532C172.575 181.197 174.166 178.291 175.911 175.374C177.658 172.454 179.565 169.511 181.251 167.097C182.927 164.698 184.411 162.783 185.306 161.953C185.8 161.495 186.77 160.999 188.01 160.481C189.272 159.954 190.877 159.38 192.697 158.784C196.339 157.591 200.868 156.3 205.284 155.111C209.702 153.92 214.011 152.83 217.216 152.036C218.819 151.64 220.146 151.318 221.072 151.094C221.535 150.983 221.898 150.896 222.145 150.837C222.239 150.815 222.317 150.796 222.377 150.782C222.432 150.715 222.51 150.62 222.61 150.498C222.825 150.237 223.142 149.854 223.549 149.367C224.363 148.392 225.538 147 226.981 145.327C229.866 141.983 233.826 137.516 238.123 133.031C242.418 128.548 247.058 124.038 251.302 120.611C253.424 118.898 255.456 117.448 257.303 116.407ZM184.142 183.999L184.493 184.275L183.826 183.684L184.142 183.999ZM181.212 178.268L181.582 178.517L180.844 178.015L181.212 178.268ZM222.627 151.181L222.73 151.615L222.974 151.462L222.627 151.181Z" fill="#001A39"/>
<path fill-rule="evenodd" clip-rule="evenodd" d="M172.761 181.315C174.509 177.891 176.982 173.777 179.328 170.204L179.826 170.53C177.487 174.091 175.027 178.186 173.292 181.584C172.424 183.285 171.742 184.802 171.347 185.987C171.149 186.58 171.028 187.078 170.987 187.467C170.945 187.871 170.996 188.096 171.071 188.203L171.071 188.204C171.141 188.303 171.218 188.353 171.303 188.376C171.394 188.4 171.518 188.399 171.686 188.354C172.027 188.26 172.468 188.001 172.986 187.591C174.015 186.778 175.244 185.458 176.433 184.045C177.618 182.636 178.752 181.149 179.59 180.014C180.009 179.446 180.353 178.967 180.593 178.63C180.713 178.462 180.806 178.329 180.87 178.238C180.902 178.193 180.926 178.158 180.942 178.134L180.961 178.108L180.967 178.099C180.967 178.099 180.967 178.099 181.212 178.268C181.459 178.434 181.459 178.434 181.459 178.434L181.435 178.469C181.42 178.492 181.396 178.527 181.366 178.572C181.306 178.662 181.217 178.795 181.104 178.965C180.879 179.304 180.557 179.791 180.173 180.381C179.404 181.561 178.387 183.151 177.388 184.794C176.389 186.438 175.413 188.129 174.726 189.513C174.381 190.205 174.114 190.812 173.951 191.294C173.87 191.535 173.818 191.736 173.794 191.896C173.77 192.059 173.78 192.148 173.793 192.188C173.828 192.194 173.908 192.19 174.052 192.143C174.343 192.046 174.755 191.816 175.264 191.47C176.273 190.784 177.57 189.704 178.859 188.563C180.145 187.423 181.414 186.229 182.361 185.32C182.834 184.866 183.227 184.483 183.502 184.213C183.639 184.078 183.746 183.972 183.82 183.9C183.856 183.863 183.884 183.836 183.903 183.817L183.931 183.789C183.931 183.789 183.932 183.789 184.142 183.999C184.376 184.183 184.376 184.183 184.376 184.183L184.375 184.183L184.371 184.189L184.358 184.206C184.346 184.221 184.328 184.244 184.304 184.274C184.258 184.334 184.189 184.422 184.102 184.534C183.928 184.759 183.68 185.083 183.387 185.476C182.799 186.262 182.028 187.325 181.292 188.431C180.555 189.54 179.86 190.684 179.42 191.635C179.199 192.111 179.048 192.525 178.985 192.855C178.918 193.199 178.96 193.375 179.019 193.452C179.021 193.455 179.021 193.455 179.025 193.457C179.032 193.459 179.051 193.465 179.09 193.464C179.173 193.463 179.304 193.432 179.49 193.352C179.859 193.193 180.354 192.881 180.951 192.443C182.141 191.572 183.67 190.255 185.298 188.835C185.481 188.675 185.666 188.514 185.851 188.353C187.308 187.082 188.816 185.765 190.197 184.655C191.743 183.413 193.166 182.399 194.192 182.014L194.402 182.571C193.478 182.917 192.125 183.869 190.57 185.118C189.2 186.22 187.701 187.528 186.243 188.8C186.058 188.962 185.873 189.123 185.69 189.283C184.066 190.698 182.518 192.033 181.303 192.922C180.699 193.365 180.16 193.71 179.726 193.897C179.511 193.99 179.298 194.054 179.103 194.059C178.898 194.063 178.688 194 178.545 193.812C178.325 193.523 178.326 193.124 178.4 192.742C178.477 192.344 178.65 191.88 178.879 191.385C179.339 190.392 180.054 189.219 180.796 188.103C181.108 187.634 181.425 187.173 181.732 186.738C180.976 187.451 180.12 188.241 179.254 189.007C177.962 190.152 176.641 191.252 175.6 191.961C175.083 192.312 174.613 192.583 174.239 192.707C174.055 192.768 173.858 192.806 173.677 192.771C173.47 192.732 173.308 192.6 173.233 192.391C173.17 192.216 173.175 192.01 173.205 191.809C173.236 191.601 173.299 191.363 173.387 191.104C173.562 190.585 173.843 189.951 174.192 189.248C174.891 187.842 175.877 186.134 176.879 184.486C176.914 184.428 176.949 184.371 176.984 184.314C176.952 184.352 176.92 184.39 176.889 184.427C175.695 185.846 174.435 187.205 173.356 188.057C172.821 188.481 172.303 188.801 171.843 188.927C171.61 188.991 171.372 189.01 171.149 188.95C170.918 188.888 170.727 188.75 170.583 188.544C170.379 188.254 170.349 187.842 170.394 187.405C170.442 186.955 170.578 186.411 170.782 185.799C171.191 184.573 171.888 183.025 172.761 181.315ZM184.142 183.999L184.376 184.183L183.931 183.789L184.142 183.999ZM181.212 178.268L181.459 178.434L180.967 178.099L181.212 178.268Z" fill="white"/>
<path fill-rule="evenodd" clip-rule="evenodd" d="M255.503 117.685C258.077 115.982 260.418 114.886 262.291 114.791L262.321 115.385C260.62 115.471 258.394 116.486 255.831 118.18C253.281 119.867 250.44 122.196 247.518 124.852L247.117 124.412C250.05 121.747 252.916 119.395 255.503 117.685Z" fill="white"/>
<path fill-rule="evenodd" clip-rule="evenodd" d="M192.009 162.709C192.009 162.709 192.009 162.709 192.207 163.109C192.405 163.509 192.405 163.509 192.405 163.509L192.398 163.512L192.379 163.521C192.362 163.53 192.336 163.543 192.302 163.56C192.234 163.594 192.134 163.644 192.007 163.71C191.753 163.84 191.39 164.029 190.956 164.262C190.087 164.73 188.936 165.376 187.803 166.091C186.666 166.809 185.565 167.585 184.785 168.311C184.394 168.676 184.101 169.011 183.923 169.306C183.741 169.607 183.714 169.806 183.741 169.928C183.746 169.947 183.774 170.057 184.135 170.132C184.478 170.204 184.984 170.207 185.626 170.142C186.902 170.013 188.576 169.63 190.259 169.17C191.936 168.711 193.599 168.182 194.844 167.766C195.467 167.558 195.984 167.379 196.345 167.252C196.526 167.188 196.668 167.138 196.764 167.103C196.812 167.086 196.849 167.073 196.874 167.064L196.902 167.054L196.91 167.051L196.91 167.051C196.911 167.051 196.911 167.051 197.064 167.469C197.217 167.888 197.217 167.888 197.217 167.888L197.207 167.892L197.178 167.902C197.153 167.912 197.115 167.925 197.066 167.943C196.968 167.978 196.825 168.029 196.642 168.093C196.277 168.221 195.755 168.402 195.128 168.611C193.874 169.03 192.193 169.566 190.495 170.03C188.802 170.493 187.069 170.892 185.716 171.029C185.045 171.097 184.431 171.105 183.953 171.005C183.49 170.909 182.993 170.672 182.87 170.123C182.769 169.677 182.924 169.233 183.158 168.845C183.397 168.451 183.756 168.05 184.175 167.66C185.016 166.876 186.173 166.065 187.325 165.338C188.482 164.608 189.652 163.951 190.532 163.478C190.972 163.241 191.341 163.049 191.599 162.916C191.729 162.85 191.83 162.799 191.9 162.763C191.935 162.746 191.962 162.732 191.98 162.723L192.001 162.713L192.009 162.709Z" fill="#001A39"/>
<path fill-rule="evenodd" clip-rule="evenodd" d="M361.015 137.257C361.015 137.257 361.014 137.257 361.191 137.018C361.367 136.778 361.367 136.778 361.367 136.778L361.384 136.791L361.435 136.828C361.479 136.861 361.545 136.91 361.63 136.973C361.801 137.101 362.051 137.288 362.368 137.529C363.001 138.012 363.903 138.708 364.976 139.566C367.122 141.282 369.956 143.644 372.703 146.23C375.448 148.813 378.118 151.629 379.928 154.251C380.833 155.562 381.532 156.837 381.914 158.019C382.296 159.201 382.37 160.317 381.986 161.289C381.409 162.749 380.073 163.792 378.463 164.541C376.848 165.291 374.912 165.767 373.06 166.07C371.206 166.374 369.422 166.506 368.103 166.562C367.443 166.59 366.898 166.599 366.518 166.601C366.327 166.602 366.178 166.602 366.077 166.601C366.026 166.6 365.987 166.6 365.96 166.599L365.93 166.599L365.92 166.599L365.919 166.599C365.919 166.599 365.919 166.599 365.926 166.301C365.933 166.004 365.933 166.004 365.933 166.004L365.933 166.004L365.941 166.004L365.97 166.005C365.995 166.005 366.033 166.006 366.082 166.006C366.181 166.007 366.327 166.008 366.514 166.007C366.888 166.005 367.425 165.996 368.077 165.968C369.382 165.912 371.141 165.782 372.964 165.484C374.79 165.185 376.666 164.72 378.211 164.002C379.762 163.281 380.936 162.326 381.432 161.071C381.747 160.274 381.705 159.309 381.347 158.202C380.989 157.096 380.325 155.875 379.438 154.589C377.663 152.018 375.029 149.235 372.294 146.662C369.563 144.091 366.742 141.74 364.604 140.03C363.535 139.176 362.637 138.482 362.006 138.002C361.691 137.762 361.443 137.576 361.274 137.449C361.189 137.386 361.124 137.338 361.08 137.306L361.031 137.269L361.015 137.257Z" fill="white"/>
<path d="M351.72 88.8389C351.723 89.9505 351.476 91.0504 350.997 92.0551C350.431 91.9362 349.889 91.8051 349.365 91.6684C344.284 90.3398 341.05 88.3216 341.05 88.3216C341.05 88.3216 343.049 85.5723 347.149 83.0428C347.468 82.8496 347.804 82.6535 348.15 82.4484C350.374 83.8156 351.726 86.2351 351.72 88.8389Z" fill="#001A39"/>
<path d="M48.8632 112.139C46.2128 114.404 43.1305 116.104 39.7981 117.139C36.1322 114.99 34.9082 110.284 37.0584 106.625C37.5229 105.835 38.1275 105.133 38.8392 104.557C41.987 105.9 44.8399 107.844 47.2372 110.281C47.8209 110.864 48.3659 111.485 48.8632 112.139Z" fill="#001A39"/>
<path d="M178.719 91.7964C183.933 91.7964 188.16 87.5778 188.16 82.374C188.16 77.1702 183.933 72.9517 178.719 72.9517C173.506 72.9517 169.279 77.1702 169.279 82.374C169.279 87.5778 173.506 91.7964 178.719 91.7964Z" fill="white"/>
<path d="M384.532 142.814C388.525 142.814 391.763 139.582 391.763 135.597C391.763 131.611 388.525 128.38 384.532 128.38C380.539 128.38 377.302 131.611 377.302 135.597C377.302 139.582 380.539 142.814 384.532 142.814Z" fill="white"/>
<path d="M370.467 230.023C372.51 230.023 374.166 228.37 374.166 226.331C374.166 224.292 372.51 222.639 370.467 222.639C368.425 222.639 366.769 224.292 366.769 226.331C366.769 228.37 368.425 230.023 370.467 230.023Z" fill="white"/>
<path d="M37.8893 224.715C39.2577 224.715 40.367 223.609 40.367 222.244C40.367 220.88 39.2577 219.774 37.8893 219.774C36.5209 219.774 35.4116 220.88 35.4116 222.244C35.4116 223.609 36.5209 224.715 37.8893 224.715Z" fill="white"/>
<path d="M46.5224 114.259C47.8908 114.259 49.0001 113.153 49.0001 111.789C49.0001 110.424 47.8908 109.318 46.5224 109.318C45.154 109.318 44.0447 110.424 44.0447 111.789C44.0447 113.153 45.154 114.259 46.5224 114.259Z" fill="white"/>
<path d="M98.4022 155.816C100.289 155.816 101.818 154.29 101.818 152.408C101.818 150.525 100.289 148.999 98.4022 148.999C96.5157 148.999 94.9865 150.525 94.9865 152.408C94.9865 154.29 96.5157 155.816 98.4022 155.816Z" fill="white"/>
<path d="M136.86 254.744C139.275 254.744 141.232 252.79 141.232 250.38C141.232 247.971 139.275 246.017 136.86 246.017C134.446 246.017 132.489 247.971 132.489 250.38C132.489 252.79 134.446 254.744 136.86 254.744Z" fill="white"/>
<path d="M361.191 50.5908C363.329 50.5908 365.062 48.8608 365.062 46.7267C365.062 44.5927 363.329 42.8627 361.191 42.8627C359.053 42.8627 357.319 44.5927 357.319 46.7267C357.319 48.8608 359.053 50.5908 361.191 50.5908Z" fill="white"/>
<path d="M292.694 50.4072C294.074 50.4072 295.192 49.292 295.192 47.9162C295.192 46.5404 294.074 45.4252 292.694 45.4252C291.314 45.4252 290.195 46.5404 290.195 47.9162C290.195 49.292 291.314 50.4072 292.694 50.4072Z" fill="white"/>
<path d="M262.306 113.058C264.477 113.058 266.237 111.301 266.237 109.134C266.237 106.967 264.477 105.211 262.306 105.211C260.135 105.211 258.375 106.967 258.375 109.134C258.375 111.301 260.135 113.058 262.306 113.058Z" fill="white"/>
<path d="M343.376 90.6053C344.756 90.6053 345.875 89.49 345.875 88.1142C345.875 86.7383 344.756 85.6228 343.376 85.6228C341.996 85.6228 340.877 86.7383 340.877 88.1142C340.877 89.49 341.996 90.6053 343.376 90.6053Z" fill="white"/>
<path d="M455.078 78.4145C456.81 78.4145 458.214 77.0146 458.214 75.2878C458.214 73.5609 456.81 72.161 455.078 72.161C453.346 72.161 451.942 73.5609 451.942 75.2878C451.942 77.0146 453.346 78.4145 455.078 78.4145Z" fill="white"/>
<path d="M443.595 285.243C444.975 285.243 446.094 284.128 446.094 282.752C446.094 281.376 444.975 280.261 443.595 280.261C442.215 280.261 441.097 281.376 441.097 282.752C441.097 284.128 442.215 285.243 443.595 285.243Z" fill="white"/>
<path d="M462.628 228.708C463.504 228.708 464.215 228 464.215 227.126C464.215 226.252 463.504 225.543 462.628 225.543C461.751 225.543 461.041 226.252 461.041 227.126C461.041 228 461.751 228.708 462.628 228.708Z" fill="white"/>
<rect x="71.3038" y="344" width="392.696" height="64" rx="16" fill="#AF687D"/>
<rect x="61" y="346" width="375.367" height="55" rx="14" fill="white" stroke="#742A40" stroke-width="4"/>
<path d="M88.2536 380L85.4816 375.104H84.2936V380H81.7736V367.436H86.4896C87.4616 367.436 88.2896 367.61 88.9736 367.958C89.6576 368.294 90.1676 368.756 90.5036 369.344C90.8516 369.92 91.0256 370.568 91.0256 371.288C91.0256 372.116 90.7856 372.866 90.3056 373.538C89.8256 374.198 89.1116 374.654 88.1636 374.906L91.1696 380H88.2536ZM84.2936 373.214H86.3996C87.0836 373.214 87.5936 373.052 87.9296 372.728C88.2656 372.392 88.4336 371.93 88.4336 371.342C88.4336 370.766 88.2656 370.322 87.9296 370.01C87.5936 369.686 87.0836 369.524 86.3996 369.524H84.2936V373.214ZM102.575 374.798C102.575 375.158 102.551 375.482 102.503 375.77H95.2129C95.2729 376.49 95.5249 377.054 95.9689 377.462C96.4129 377.87 96.9589 378.074 97.6069 378.074C98.5429 378.074 99.2089 377.672 99.6049 376.868H102.323C102.035 377.828 101.483 378.62 100.667 379.244C99.8509 379.856 98.8489 380.162 97.6609 380.162C96.7009 380.162 95.8369 379.952 95.0689 379.532C94.3129 379.1 93.7189 378.494 93.2869 377.714C92.8669 376.934 92.6569 376.034 92.6569 375.014C92.6569 373.982 92.8669 373.076 93.2869 372.296C93.7069 371.516 94.2949 370.916 95.0509 370.496C95.8069 370.076 96.6769 369.866 97.6609 369.866C98.6089 369.866 99.4549 370.07 100.199 370.478C100.955 370.886 101.537 371.468 101.945 372.224C102.365 372.968 102.575 373.826 102.575 374.798ZM99.9649 374.078C99.9529 373.43 99.7189 372.914 99.2629 372.53C98.8069 372.134 98.2489 371.936 97.5889 371.936C96.9649 371.936 96.4369 372.128 96.0049 372.512C95.5849 372.884 95.3269 373.406 95.2309 374.078H99.9649ZM106.934 371.468C107.258 371.012 107.702 370.634 108.266 370.334C108.842 370.022 109.496 369.866 110.228 369.866C111.08 369.866 111.848 370.076 112.532 370.496C113.228 370.916 113.774 371.516 114.17 372.296C114.578 373.064 114.782 373.958 114.782 374.978C114.782 375.998 114.578 376.904 114.17 377.696C113.774 378.476 113.228 379.082 112.532 379.514C111.848 379.946 111.08 380.162 110.228 380.162C109.496 380.162 108.848 380.012 108.284 379.712C107.732 379.412 107.282 379.034 106.934 378.578V384.752H104.414V370.028H106.934V371.468ZM112.208 374.978C112.208 374.378 112.082 373.862 111.83 373.43C111.59 372.986 111.266 372.65 110.858 372.422C110.462 372.194 110.03 372.08 109.562 372.08C109.106 372.08 108.674 372.2 108.266 372.44C107.87 372.668 107.546 373.004 107.294 373.448C107.054 373.892 106.934 374.414 106.934 375.014C106.934 375.614 107.054 376.136 107.294 376.58C107.546 377.024 107.87 377.366 108.266 377.606C108.674 377.834 109.106 377.948 109.562 377.948C110.03 377.948 110.462 377.828 110.858 377.588C111.266 377.348 111.59 377.006 111.83 376.562C112.082 376.118 112.208 375.59 112.208 374.978ZM119.133 366.68V380H116.613V366.68H119.133ZM120.975 374.978C120.975 373.97 121.173 373.076 121.569 372.296C121.977 371.516 122.523 370.916 123.207 370.496C123.903 370.076 124.677 369.866 125.529 369.866C126.273 369.866 126.921 370.016 127.473 370.316C128.037 370.616 128.487 370.994 128.823 371.45V370.028H131.361V380H128.823V378.542C128.499 379.01 128.049 379.4 127.473 379.712C126.909 380.012 126.255 380.162 125.511 380.162C124.671 380.162 123.903 379.946 123.207 379.514C122.523 379.082 121.977 378.476 121.569 377.696C121.173 376.904 120.975 375.998 120.975 374.978ZM128.823 375.014C128.823 374.402 128.703 373.88 128.463 373.448C128.223 373.004 127.899 372.668 127.491 372.44C127.083 372.2 126.645 372.08 126.177 372.08C125.709 372.08 125.277 372.194 124.881 372.422C124.485 372.65 124.161 372.986 123.909 373.43C123.669 373.862 123.549 374.378 123.549 374.978C123.549 375.578 123.669 376.106 123.909 376.562C124.161 377.006 124.485 377.348 124.881 377.588C125.289 377.828 125.721 377.948 126.177 377.948C126.645 377.948 127.083 377.834 127.491 377.606C127.899 377.366 128.223 377.03 128.463 376.598C128.703 376.154 128.823 375.626 128.823 375.014ZM133.174 375.014C133.174 373.982 133.384 373.082 133.804 372.314C134.224 371.534 134.806 370.934 135.55 370.514C136.294 370.082 137.146 369.866 138.106 369.866C139.342 369.866 140.362 370.178 141.166 370.802C141.982 371.414 142.528 372.278 142.804 373.394H140.086C139.942 372.962 139.696 372.626 139.348 372.386C139.012 372.134 138.592 372.008 138.088 372.008C137.368 372.008 136.798 372.272 136.378 372.8C135.958 373.316 135.748 374.054 135.748 375.014C135.748 375.962 135.958 376.7 136.378 377.228C136.798 377.744 137.368 378.002 138.088 378.002C139.108 378.002 139.774 377.546 140.086 376.634H142.804C142.528 377.714 141.982 378.572 141.166 379.208C140.35 379.844 139.33 380.162 138.106 380.162C137.146 380.162 136.294 379.952 135.55 379.532C134.806 379.1 134.224 378.5 133.804 377.732C133.384 376.952 133.174 376.046 133.174 375.014ZM153.921 374.798C153.921 375.158 153.897 375.482 153.849 375.77H146.559C146.619 376.49 146.871 377.054 147.315 377.462C147.759 377.87 148.305 378.074 148.953 378.074C149.889 378.074 150.555 377.672 150.951 376.868H153.669C153.381 377.828 152.829 378.62 152.013 379.244C151.197 379.856 150.195 380.162 149.007 380.162C148.047 380.162 147.183 379.952 146.415 379.532C145.659 379.1 145.065 378.494 144.633 377.714C144.213 376.934 144.003 376.034 144.003 375.014C144.003 373.982 144.213 373.076 144.633 372.296C145.053 371.516 145.641 370.916 146.397 370.496C147.153 370.076 148.023 369.866 149.007 369.866C149.955 369.866 150.801 370.07 151.545 370.478C152.301 370.886 152.883 371.468 153.291 372.224C153.711 372.968 153.921 373.826 153.921 374.798ZM151.311 374.078C151.299 373.43 151.065 372.914 150.609 372.53C150.153 372.134 149.595 371.936 148.935 371.936C148.311 371.936 147.783 372.128 147.351 372.512C146.931 372.884 146.673 373.406 146.577 374.078H151.311ZM169.589 370.028L163.415 384.716H160.733L162.893 379.748L158.897 370.028H161.723L164.297 376.994L166.907 370.028H169.589ZM175.375 380.162C174.415 380.162 173.551 379.952 172.783 379.532C172.015 379.1 171.409 378.494 170.965 377.714C170.533 376.934 170.317 376.034 170.317 375.014C170.317 373.994 170.539 373.094 170.983 372.314C171.439 371.534 172.057 370.934 172.837 370.514C173.617 370.082 174.487 369.866 175.447 369.866C176.407 369.866 177.277 370.082 178.057 370.514C178.837 370.934 179.449 371.534 179.893 372.314C180.349 373.094 180.577 373.994 180.577 375.014C180.577 376.034 180.343 376.934 179.875 377.714C179.419 378.494 178.795 379.1 178.003 379.532C177.223 379.952 176.347 380.162 175.375 380.162ZM175.375 377.966C175.831 377.966 176.257 377.858 176.653 377.642C177.061 377.414 177.385 377.078 177.625 376.634C177.865 376.19 177.985 375.65 177.985 375.014C177.985 374.066 177.733 373.34 177.229 372.836C176.737 372.32 176.131 372.062 175.411 372.062C174.691 372.062 174.085 372.32 173.593 372.836C173.113 373.34 172.873 374.066 172.873 375.014C172.873 375.962 173.107 376.694 173.575 377.21C174.055 377.714 174.655 377.966 175.375 377.966ZM191.84 370.028V380H189.302V378.74C188.978 379.172 188.552 379.514 188.024 379.766C187.508 380.006 186.944 380.126 186.332 380.126C185.552 380.126 184.862 379.964 184.262 379.64C183.662 379.304 183.188 378.818 182.84 378.182C182.504 377.534 182.336 376.766 182.336 375.878V370.028H184.856V375.518C184.856 376.31 185.054 376.922 185.45 377.354C185.846 377.774 186.386 377.984 187.07 377.984C187.766 377.984 188.312 377.774 188.708 377.354C189.104 376.922 189.302 376.31 189.302 375.518V370.028H191.84ZM196.846 371.576C197.17 371.048 197.59 370.634 198.106 370.334C198.634 370.034 199.234 369.884 199.906 369.884V372.53H199.24C198.448 372.53 197.848 372.716 197.44 373.088C197.044 373.46 196.846 374.108 196.846 375.032V380H194.326V370.028H196.846V371.576ZM208.413 371.468C208.737 371.012 209.181 370.634 209.745 370.334C210.321 370.022 210.975 369.866 211.707 369.866C212.559 369.866 213.327 370.076 214.011 370.496C214.707 370.916 215.253 371.516 215.649 372.296C216.057 373.064 216.261 373.958 216.261 374.978C216.261 375.998 216.057 376.904 215.649 377.696C215.253 378.476 214.707 379.082 214.011 379.514C213.327 379.946 212.559 380.162 211.707 380.162C210.975 380.162 210.327 380.012 209.763 379.712C209.211 379.412 208.761 379.034 208.413 378.578V384.752H205.893V370.028H208.413V371.468ZM213.687 374.978C213.687 374.378 213.561 373.862 213.309 373.43C213.069 372.986 212.745 372.65 212.337 372.422C211.941 372.194 211.509 372.08 211.041 372.08C210.585 372.08 210.153 372.2 209.745 372.44C209.349 372.668 209.025 373.004 208.773 373.448C208.533 373.892 208.413 374.414 208.413 375.014C208.413 375.614 208.533 376.136 208.773 376.58C209.025 377.024 209.349 377.366 209.745 377.606C210.153 377.834 210.585 377.948 211.041 377.948C211.509 377.948 211.941 377.828 212.337 377.588C212.745 377.348 213.069 377.006 213.309 376.562C213.561 376.118 213.687 375.59 213.687 374.978ZM220.612 371.576C220.936 371.048 221.356 370.634 221.872 370.334C222.4 370.034 223 369.884 223.672 369.884V372.53H223.006C222.214 372.53 221.614 372.716 221.206 373.088C220.81 373.46 220.612 374.108 220.612 375.032V380H218.092V370.028H220.612V371.576ZM226.647 368.84C226.203 368.84 225.831 368.702 225.531 368.426C225.243 368.138 225.099 367.784 225.099 367.364C225.099 366.944 225.243 366.596 225.531 366.32C225.831 366.032 226.203 365.888 226.647 365.888C227.091 365.888 227.457 366.032 227.745 366.32C228.045 366.596 228.195 366.944 228.195 367.364C228.195 367.784 228.045 368.138 227.745 368.426C227.457 368.702 227.091 368.84 226.647 368.84ZM227.889 370.028V380H225.369V370.028H227.889ZM234.537 377.678L237.057 370.028H239.739L236.049 380H232.989L229.317 370.028H232.017L234.537 377.678ZM240.506 374.978C240.506 373.97 240.704 373.076 241.1 372.296C241.508 371.516 242.054 370.916 242.738 370.496C243.434 370.076 244.208 369.866 245.06 369.866C245.804 369.866 246.452 370.016 247.004 370.316C247.568 370.616 248.018 370.994 248.354 371.45V370.028H250.892V380H248.354V378.542C248.03 379.01 247.58 379.4 247.004 379.712C246.44 380.012 245.786 380.162 245.042 380.162C244.202 380.162 243.434 379.946 242.738 379.514C242.054 379.082 241.508 378.476 241.1 377.696C240.704 376.904 240.506 375.998 240.506 374.978ZM248.354 375.014C248.354 374.402 248.234 373.88 247.994 373.448C247.754 373.004 247.43 372.668 247.022 372.44C246.614 372.2 246.176 372.08 245.708 372.08C245.24 372.08 244.808 372.194 244.412 372.422C244.016 372.65 243.692 372.986 243.44 373.43C243.2 373.862 243.08 374.378 243.08 374.978C243.08 375.578 243.2 376.106 243.44 376.562C243.692 377.006 244.016 377.348 244.412 377.588C244.82 377.828 245.252 377.948 245.708 377.948C246.176 377.948 246.614 377.834 247.022 377.606C247.43 377.366 247.754 377.03 247.994 376.598C248.234 376.154 248.354 375.626 248.354 375.014ZM252.706 375.014C252.706 373.982 252.916 373.082 253.336 372.314C253.756 371.534 254.338 370.934 255.082 370.514C255.826 370.082 256.678 369.866 257.638 369.866C258.874 369.866 259.894 370.178 260.698 370.802C261.514 371.414 262.06 372.278 262.336 373.394H259.618C259.474 372.962 259.228 372.626 258.88 372.386C258.544 372.134 258.124 372.008 257.62 372.008C256.9 372.008 256.33 372.272 255.91 372.8C255.49 373.316 255.28 374.054 255.28 375.014C255.28 375.962 255.49 376.7 255.91 377.228C256.33 377.744 256.9 378.002 257.62 378.002C258.64 378.002 259.306 377.546 259.618 376.634H262.336C262.06 377.714 261.514 378.572 260.698 379.208C259.882 379.844 258.862 380.162 257.638 380.162C256.678 380.162 255.826 379.952 255.082 379.532C254.338 379.1 253.756 378.5 253.336 377.732C252.916 376.952 252.706 376.046 252.706 375.014ZM273.722 370.028L267.548 384.716H264.866L267.026 379.748L263.03 370.028H265.856L268.43 376.994L271.04 370.028H273.722ZM282.748 372.512V374.636H275.116V372.512H282.748ZM289.732 377.678L292.252 370.028H294.934L291.244 380H288.184L284.512 370.028H287.212L289.732 377.678ZM297.628 368.84C297.184 368.84 296.812 368.702 296.512 368.426C296.224 368.138 296.08 367.784 296.08 367.364C296.08 366.944 296.224 366.596 296.512 366.32C296.812 366.032 297.184 365.888 297.628 365.888C298.072 365.888 298.438 366.032 298.726 366.32C299.026 366.596 299.176 366.944 299.176 367.364C299.176 367.784 299.026 368.138 298.726 368.426C298.438 368.702 298.072 368.84 297.628 368.84ZM298.87 370.028V380H296.35V370.028H298.87ZM305.788 380.162C304.828 380.162 303.964 379.952 303.196 379.532C302.428 379.1 301.822 378.494 301.378 377.714C300.946 376.934 300.73 376.034 300.73 375.014C300.73 373.994 300.952 373.094 301.396 372.314C301.852 371.534 302.47 370.934 303.25 370.514C304.03 370.082 304.9 369.866 305.86 369.866C306.82 369.866 307.69 370.082 308.47 370.514C309.25 370.934 309.862 371.534 310.306 372.314C310.762 373.094 310.99 373.994 310.99 375.014C310.99 376.034 310.756 376.934 310.288 377.714C309.832 378.494 309.208 379.1 308.416 379.532C307.636 379.952 306.76 380.162 305.788 380.162ZM305.788 377.966C306.244 377.966 306.67 377.858 307.066 377.642C307.474 377.414 307.798 377.078 308.038 376.634C308.278 376.19 308.398 375.65 308.398 375.014C308.398 374.066 308.146 373.34 307.642 372.836C307.15 372.32 306.544 372.062 305.824 372.062C305.104 372.062 304.498 372.32 304.006 372.836C303.526 373.34 303.286 374.066 303.286 375.014C303.286 375.962 303.52 376.694 303.988 377.21C304.468 377.714 305.068 377.966 305.788 377.966ZM315.358 366.68V380H312.838V366.68H315.358ZM317.2 374.978C317.2 373.97 317.398 373.076 317.794 372.296C318.202 371.516 318.748 370.916 319.432 370.496C320.128 370.076 320.902 369.866 321.754 369.866C322.498 369.866 323.146 370.016 323.698 370.316C324.262 370.616 324.712 370.994 325.048 371.45V370.028H327.586V380H325.048V378.542C324.724 379.01 324.274 379.4 323.698 379.712C323.134 380.012 322.48 380.162 321.736 380.162C320.896 380.162 320.128 379.946 319.432 379.514C318.748 379.082 318.202 378.476 317.794 377.696C317.398 376.904 317.2 375.998 317.2 374.978ZM325.048 375.014C325.048 374.402 324.928 373.88 324.688 373.448C324.448 373.004 324.124 372.668 323.716 372.44C323.308 372.2 322.87 372.08 322.402 372.08C321.934 372.08 321.502 372.194 321.106 372.422C320.71 372.65 320.386 372.986 320.134 373.43C319.894 373.862 319.774 374.378 319.774 374.978C319.774 375.578 319.894 376.106 320.134 376.562C320.386 377.006 320.71 377.348 321.106 377.588C321.514 377.828 321.946 377.948 322.402 377.948C322.87 377.948 323.308 377.834 323.716 377.606C324.124 377.366 324.448 377.03 324.688 376.598C324.928 376.154 325.048 375.626 325.048 375.014ZM332.981 372.098V376.922C332.981 377.258 333.059 377.504 333.215 377.66C333.383 377.804 333.659 377.876 334.043 377.876H335.213V380H333.629C331.505 380 330.443 378.968 330.443 376.904V372.098H329.255V370.028H330.443V367.562H332.981V370.028H335.213V372.098H332.981ZM338.304 368.84C337.86 368.84 337.488 368.702 337.188 368.426C336.9 368.138 336.756 367.784 336.756 367.364C336.756 366.944 336.9 366.596 337.188 366.32C337.488 366.032 337.86 365.888 338.304 365.888C338.748 365.888 339.114 366.032 339.402 366.32C339.702 366.596 339.852 366.944 339.852 367.364C339.852 367.784 339.702 368.138 339.402 368.426C339.114 368.702 338.748 368.84 338.304 368.84ZM339.546 370.028V380H337.026V370.028H339.546ZM347.561 369.884C348.749 369.884 349.709 370.262 350.441 371.018C351.173 371.762 351.539 372.806 351.539 374.15V380H349.019V374.492C349.019 373.7 348.821 373.094 348.425 372.674C348.029 372.242 347.489 372.026 346.805 372.026C346.109 372.026 345.557 372.242 345.149 372.674C344.753 373.094 344.555 373.7 344.555 374.492V380H342.035V370.028H344.555V371.27C344.891 370.838 345.317 370.502 345.833 370.262C346.361 370.01 346.937 369.884 347.561 369.884ZM357.842 369.866C358.586 369.866 359.24 370.016 359.804 370.316C360.368 370.604 360.812 370.982 361.136 371.45V370.028H363.674V380.072C363.674 380.996 363.488 381.818 363.116 382.538C362.744 383.27 362.186 383.846 361.442 384.266C360.698 384.698 359.798 384.914 358.742 384.914C357.326 384.914 356.162 384.584 355.25 383.924C354.35 383.264 353.84 382.364 353.72 381.224H356.222C356.354 381.68 356.636 382.04 357.068 382.304C357.512 382.58 358.046 382.718 358.67 382.718C359.402 382.718 359.996 382.496 360.452 382.052C360.908 381.62 361.136 380.96 361.136 380.072V378.524C360.812 378.992 360.362 379.382 359.786 379.694C359.222 380.006 358.574 380.162 357.842 380.162C357.002 380.162 356.234 379.946 355.538 379.514C354.842 379.082 354.29 378.476 353.882 377.696C353.486 376.904 353.288 375.998 353.288 374.978C353.288 373.97 353.486 373.076 353.882 372.296C354.29 371.516 354.836 370.916 355.52 370.496C356.216 370.076 356.99 369.866 357.842 369.866ZM361.136 375.014C361.136 374.402 361.016 373.88 360.776 373.448C360.536 373.004 360.212 372.668 359.804 372.44C359.396 372.2 358.958 372.08 358.49 372.08C358.022 372.08 357.59 372.194 357.194 372.422C356.798 372.65 356.474 372.986 356.222 373.43C355.982 373.862 355.862 374.378 355.862 374.978C355.862 375.578 355.982 376.106 356.222 376.562C356.474 377.006 356.798 377.348 357.194 377.588C357.602 377.828 358.034 377.948 358.49 377.948C358.958 377.948 359.396 377.834 359.804 377.606C360.212 377.366 360.536 377.03 360.776 376.598C361.016 376.154 361.136 375.626 361.136 375.014ZM373.358 372.098V376.922C373.358 377.258 373.436 377.504 373.592 377.66C373.76 377.804 374.036 377.876 374.42 377.876H375.59V380H374.006C371.882 380 370.82 378.968 370.82 376.904V372.098H369.632V370.028H370.82V367.562H373.358V370.028H375.59V372.098H373.358ZM381.831 380.162C380.871 380.162 380.007 379.952 379.239 379.532C378.471 379.1 377.865 378.494 377.421 377.714C376.989 376.934 376.773 376.034 376.773 375.014C376.773 373.994 376.995 373.094 377.439 372.314C377.895 371.534 378.513 370.934 379.293 370.514C380.073 370.082 380.943 369.866 381.903 369.866C382.863 369.866 383.733 370.082 384.513 370.514C385.293 370.934 385.905 371.534 386.349 372.314C386.805 373.094 387.033 373.994 387.033 375.014C387.033 376.034 386.799 376.934 386.331 377.714C385.875 378.494 385.251 379.1 384.459 379.532C383.679 379.952 382.803 380.162 381.831 380.162ZM381.831 377.966C382.287 377.966 382.713 377.858 383.109 377.642C383.517 377.414 383.841 377.078 384.081 376.634C384.321 376.19 384.441 375.65 384.441 375.014C384.441 374.066 384.189 373.34 383.685 372.836C383.193 372.32 382.587 372.062 381.867 372.062C381.147 372.062 380.541 372.32 380.049 372.836C379.569 373.34 379.329 374.066 379.329 375.014C379.329 375.962 379.563 376.694 380.031 377.21C380.511 377.714 381.111 377.966 381.831 377.966ZM393.309 380.162C392.349 380.162 391.485 379.952 390.717 379.532C389.949 379.1 389.343 378.494 388.899 377.714C388.467 376.934 388.251 376.034 388.251 375.014C388.251 373.994 388.473 373.094 388.917 372.314C389.373 371.534 389.991 370.934 390.771 370.514C391.551 370.082 392.421 369.866 393.381 369.866C394.341 369.866 395.211 370.082 395.991 370.514C396.771 370.934 397.383 371.534 397.827 372.314C398.283 373.094 398.511 373.994 398.511 375.014C398.511 376.034 398.277 376.934 397.809 377.714C397.353 378.494 396.729 379.1 395.937 379.532C395.157 379.952 394.281 380.162 393.309 380.162ZM393.309 377.966C393.765 377.966 394.191 377.858 394.587 377.642C394.995 377.414 395.319 377.078 395.559 376.634C395.799 376.19 395.919 375.65 395.919 375.014C395.919 374.066 395.667 373.34 395.163 372.836C394.671 372.32 394.065 372.062 393.345 372.062C392.625 372.062 392.019 372.32 391.527 372.836C391.047 373.34 390.807 374.066 390.807 375.014C390.807 375.962 391.041 376.694 391.509 377.21C391.989 377.714 392.589 377.966 393.309 377.966ZM402.88 366.68V380H400.36V366.68H402.88ZM409.185 380.162C408.369 380.162 407.637 380.018 406.989 379.73C406.341 379.43 405.825 379.028 405.441 378.524C405.069 378.02 404.865 377.462 404.829 376.85H407.367C407.415 377.234 407.601 377.552 407.925 377.804C408.261 378.056 408.675 378.182 409.167 378.182C409.647 378.182 410.019 378.086 410.283 377.894C410.559 377.702 410.697 377.456 410.697 377.156C410.697 376.832 410.529 376.592 410.193 376.436C409.869 376.268 409.347 376.088 408.627 375.896C407.883 375.716 407.271 375.53 406.791 375.338C406.323 375.146 405.915 374.852 405.567 374.456C405.231 374.06 405.063 373.526 405.063 372.854C405.063 372.302 405.219 371.798 405.531 371.342C405.855 370.886 406.311 370.526 406.899 370.262C407.499 369.998 408.201 369.866 409.005 369.866C410.193 369.866 411.141 370.166 411.849 370.766C412.557 371.354 412.947 372.152 413.019 373.16H410.607C410.571 372.764 410.403 372.452 410.103 372.224C409.815 371.984 409.425 371.864 408.933 371.864C408.477 371.864 408.123 371.948 407.871 372.116C407.631 372.284 407.511 372.518 407.511 372.818C407.511 373.154 407.679 373.412 408.015 373.592C408.351 373.76 408.873 373.934 409.581 374.114C410.301 374.294 410.895 374.48 411.363 374.672C411.831 374.864 412.233 375.164 412.569 375.572C412.917 375.968 413.097 376.496 413.109 377.156C413.109 377.732 412.947 378.248 412.623 378.704C412.311 379.16 411.855 379.52 411.255 379.784C410.667 380.036 409.977 380.162 409.185 380.162Z" fill="#001A39"/>
</svg>
