<svg width="122" height="128" viewBox="0 0 122 128" fill="none" xmlns="http://www.w3.org/2000/svg">
<path fill-rule="evenodd" clip-rule="evenodd" d="M100.578 37.1868L93.7957 58.3086L93.5466 58.4859L93.0118 57.7367C93.5466 58.4859 93.5462 58.4862 93.5457 58.4866L93.5444 58.4876L93.5401 58.4905L93.5258 58.5006C93.5137 58.5091 93.4965 58.5211 93.4741 58.5366C93.4295 58.5674 93.3645 58.6119 93.2797 58.6686C93.1102 58.782 92.8617 58.9446 92.539 59.146C91.8936 59.5487 90.9506 60.107 89.7484 60.738C87.3451 61.9993 83.8977 63.5551 79.7128 64.7368C71.3412 67.1007 59.976 67.9767 48.1442 61.9533L48.9811 60.3139C60.2823 66.0672 71.1417 65.2448 79.2114 62.9661C83.2472 61.8265 86.5746 60.3249 88.8911 59.1092C90.0486 58.5017 90.9518 57.9666 91.5625 57.5855C91.853 57.4042 92.0772 57.2578 92.231 57.1553L97.2533 41.515C96.9732 41.6379 96.6559 41.774 96.2965 41.9245C93.8445 42.9508 89.4007 44.6576 81.4034 47.397C72.2083 50.5445 63.8772 49.7006 57.8582 48.0765C54.8487 47.2645 52.4108 46.2559 50.7214 45.448C49.8762 45.0439 49.2172 44.6894 48.7663 44.4339C48.5408 44.3062 48.3673 44.2031 48.2484 44.1309C48.1889 44.0948 48.1431 44.0664 48.1113 44.0464C48.0954 44.0364 48.083 44.0286 48.0742 44.023L48.0636 44.0162L48.0603 44.014L48.0591 44.0133C48.0587 44.013 48.0583 44.0128 48.559 43.2404C49.0597 42.4681 49.0594 42.4679 49.0592 42.4678L49.0597 42.4681L49.0651 42.4715C49.0704 42.4749 49.0792 42.4805 49.0914 42.4882C49.116 42.5036 49.1543 42.5274 49.2061 42.5588C49.3097 42.6218 49.4671 42.7153 49.6756 42.8335C50.0928 43.0698 50.7139 43.4042 51.5172 43.7884C53.1245 44.557 55.4565 45.5224 58.3389 46.3001C64.1039 47.8557 72.0457 48.655 80.8057 45.6564C88.7844 42.9233 93.1853 41.2315 95.5842 40.2274C96.7836 39.7253 97.4742 39.3986 97.857 39.203C98.048 39.1053 98.1583 39.0424 98.2143 39.0088C98.2311 38.9986 98.2426 38.9915 98.2494 38.9871L100.578 37.1868Z" fill="#032349"/>
<path d="M4.14256 54.3767L20.3582 77.8456C23.4023 82.2471 29.4389 83.3513 33.8466 80.3114C35.3686 79.2625 36.5553 77.8015 37.274 76.1012L47.1692 52.6324C49.2477 47.7045 46.9296 42.0259 41.9949 39.9503C40.8046 39.4498 39.5257 39.1921 38.2322 39.1921H12.1214C4.30472 39.1921 -0.298304 47.9547 4.14256 54.3767Z" fill="#22558E"/>
<path d="M49.5721 74.4119L66.359 57.1591L88.8655 52.2459L94.7363 26.5101L121.805 83.9806L115.544 108.947L91.7106 111.921L72.6499 128L49.5721 74.4119Z" fill="#F96155"/>
<path d="M115.544 108.947L91.7107 111.921L66.3591 57.159L88.8656 52.2458L115.544 108.947Z" fill="#032349"/>
<path d="M15.8436 41.2604L24.121 22.2372C24.121 22.2372 18.3939 15.2707 22.024 10.571C25.6541 5.87134 30.0176 10.571 30.0176 10.571C30.0176 10.571 35.7446 4.45816 43.7971 7.28826C51.8496 10.1184 52.2108 20.9419 48.9345 26.8965C44.0993 35.6922 37.7273 38.0328 29.45 31.9751L24.519 42.5044" fill="#FBC73B"/>
<path d="M26.5204 8.56515C26.5204 8.56515 27.7513 -0.694381 39.714 0.0416665C51.6766 0.777714 52.4137 5.29337 57.2895 4.2813C62.1652 3.26924 62.7327 17.7621 49.6866 16.29C36.6404 14.818 37.2669 14.1407 37.2669 14.1407C37.2669 14.1407 35.6822 19.801 32.5127 18.6123C29.3433 17.4236 29.734 11.2518 29.734 11.2518" fill="#032349"/>
<path fill-rule="evenodd" clip-rule="evenodd" d="M104.192 39.2736C106.736 41.341 109.058 43.6599 111.128 46.2001L111.132 46.2043L111.135 46.2085C112.065 47.3775 112.546 49.1743 112.776 51.0461C113.011 52.9558 113.002 55.1014 112.835 57.103C112.668 59.1018 112.341 61.0007 111.919 62.4154C111.71 63.1154 111.463 63.7473 111.173 64.2204C111.028 64.4562 110.846 64.696 110.615 64.8821C110.379 65.0728 110.04 65.245 109.624 65.2211C108.774 65.1724 108.404 64.4286 108.257 64.021C108.082 63.5364 107.992 62.9209 107.945 62.2801C107.896 61.615 107.889 60.8492 107.91 60.0407C107.693 60.5798 107.471 61.0842 107.248 61.5281C106.97 62.0803 106.663 62.5957 106.327 62.97C106.042 63.288 105.462 63.8048 104.692 63.6126C104.226 63.4961 103.959 63.1544 103.819 62.8934C103.678 62.6295 103.598 62.3268 103.546 62.0419C103.443 61.4651 103.42 60.7249 103.442 59.9205C103.465 59.0735 103.539 58.0987 103.645 57.0695C103.521 57.3505 103.398 57.618 103.274 57.8684C102.967 58.4938 102.638 59.0649 102.295 59.4774C102.125 59.6824 101.914 59.893 101.661 60.0428C101.398 60.1977 101.027 60.3209 100.607 60.2153C100.115 60.0915 99.8482 59.7063 99.7184 59.4692C99.5728 59.2032 99.4703 58.8867 99.3924 58.5695C99.2345 57.9273 99.1302 57.0817 99.0601 56.1371C98.9191 54.2356 98.9059 51.7667 98.9489 49.339C98.992 46.9052 99.092 44.4884 99.181 42.6817C99.2256 41.7779 99.2675 41.0258 99.2982 40.4992C99.3136 40.236 99.3262 40.0291 99.335 39.8877C99.3394 39.8171 99.3428 39.7628 99.3451 39.7261L99.3487 39.6701C99.3488 39.6699 99.3488 39.6698 100.268 39.7296C101.188 39.7895 101.188 39.7895 101.188 39.7896L101.184 39.843C101.182 39.8787 101.178 39.932 101.174 40.0016C101.165 40.1408 101.153 40.3455 101.138 40.6064C101.107 41.1282 101.066 41.8748 101.021 42.7722C100.933 44.5679 100.834 46.9639 100.791 49.3715C100.749 51.7851 100.763 54.186 100.898 56.0011C100.957 56.8009 101.038 57.4556 101.138 57.9362C101.284 57.7061 101.446 57.4129 101.62 57.0572C102.189 55.9021 102.797 54.2914 103.361 52.6297C103.922 50.9763 104.428 49.3052 104.795 48.0452C104.978 47.4158 105.126 46.8903 105.228 46.5226C105.279 46.3387 105.318 46.1944 105.345 46.0964C105.358 46.0473 105.368 46.0099 105.375 45.9848L105.385 45.9481C105.385 45.9481 105.385 45.9477 105.662 46.0215L105.385 45.9477L107.179 46.3626L106.275 46.1848C107.179 46.3626 107.179 46.3626 107.179 46.3626L107.171 46.4071C107.165 46.437 107.156 46.4816 107.145 46.5399C107.122 46.6566 107.089 46.8283 107.048 47.0472C106.965 47.4851 106.849 48.1118 106.715 48.8655C106.447 50.3739 106.109 52.386 105.828 54.4091C105.546 56.4395 105.325 58.4514 105.284 59.9702C105.27 60.4745 105.277 60.9025 105.304 61.2472C105.396 61.0927 105.496 60.9112 105.601 60.7021C106.101 59.7085 106.622 58.3103 107.101 56.8559C107.576 55.4109 107.997 53.9479 108.299 52.8434C108.45 52.2919 108.571 51.8313 108.654 51.5092C108.696 51.3481 108.728 51.2218 108.75 51.136C108.761 51.0931 108.769 51.0603 108.774 51.0385L108.782 51.0067L110.588 51.3617L110.583 51.3967C110.58 51.4205 110.574 51.4562 110.568 51.5029C110.554 51.5963 110.535 51.7339 110.511 51.9095C110.462 52.2607 110.395 52.7633 110.32 53.367C110.171 54.5759 109.992 56.1839 109.873 57.791C109.753 59.4083 109.697 60.9844 109.783 62.1456C109.8 62.3784 109.822 62.584 109.848 62.7628C109.947 62.5244 110.05 62.2334 110.153 61.8901C110.528 60.6313 110.839 58.8646 110.998 56.9504C111.158 55.0389 111.163 53.024 110.947 51.2702C110.728 49.4817 110.295 48.1138 109.696 47.3571C107.706 44.9161 105.474 42.6877 103.029 40.7007L104.192 39.2736ZM110.056 63.5416C110.056 63.5426 110.051 63.5367 110.043 63.5206C110.052 63.5326 110.057 63.5406 110.056 63.5416ZM104.831 61.8575C104.831 61.8567 104.837 61.8518 104.849 61.8456C104.837 61.8552 104.831 61.8584 104.831 61.8575ZM101.351 58.6126C101.351 58.613 101.348 58.6093 101.343 58.6003C101.349 58.6077 101.352 58.6122 101.351 58.6126Z" fill="#032349"/>
<path fill-rule="evenodd" clip-rule="evenodd" d="M9.1998e-07 54.7859C-5.68958e-05 54.7855 -9.77947e-05 54.7853 0.906846 54.6233C1.81379 54.4613 1.81378 54.4612 1.81379 54.4613L1.81666 54.4772L1.82605 54.5285C1.83448 54.5742 1.84725 54.643 1.86438 54.7334C1.89863 54.9143 1.9503 55.1819 2.01943 55.5262C2.15771 56.2148 2.36582 57.2095 2.64426 58.4295C3.2014 60.8705 4.03887 64.2076 5.16028 67.7949C6.28255 71.3849 7.68382 75.208 9.36471 78.6279C11.052 82.0607 12.989 85.0204 15.1549 86.9438C17.3356 88.8802 20.6991 90.7054 24.6663 92.326C28.6178 93.9402 33.1023 95.3253 37.4718 96.4073C41.8411 97.4892 46.0756 98.2632 49.5228 98.6611C51.2472 98.8602 52.7614 98.9636 53.9897 98.9668C55.2434 98.9701 56.1145 98.8677 56.6031 98.7048C59.0327 97.8949 61.5207 96.424 63.3429 95.0013C64.2545 94.2896 64.9676 93.6147 65.415 93.0696C65.454 93.022 65.4903 92.9763 65.5239 92.9326C65.361 92.9527 65.1762 92.981 64.9699 93.0181C63.9442 93.2024 62.5888 93.5652 61.2149 93.9769C59.8484 94.3863 58.4928 94.8351 57.4769 95.1824C56.9695 95.3558 56.548 95.5035 56.2537 95.6077C56.1066 95.6598 55.9913 95.701 55.9131 95.7291C55.874 95.7431 55.8441 95.7539 55.8242 95.7611L55.795 95.7716L55.0784 94.0789L55.1086 94.1411C55.0784 94.0789 55.0784 94.0789 55.0784 94.0789L55.0788 94.0787L55.0869 94.0748L55.1139 94.0617C55.1236 94.057 55.1352 94.0513 55.1488 94.0447C55.1687 94.035 55.1928 94.0232 55.2209 94.0095C55.3149 93.9635 55.4534 93.8953 55.6298 93.8077C55.9825 93.6325 56.4863 93.3794 57.0887 93.0691C58.2949 92.4476 59.8905 91.5993 61.4586 90.6876C63.0346 89.7713 64.5496 88.8098 65.6124 87.9623C66.1491 87.5344 66.5259 87.1703 66.74 86.8863C66.7751 86.8398 66.8025 86.8001 66.8237 86.7668C66.7963 86.7587 66.763 86.7505 66.7226 86.7425C66.4341 86.6854 65.978 86.6904 65.3485 86.7888C64.1053 86.9832 62.4857 87.4907 60.8404 88.1054C59.2078 88.7153 57.6005 89.4112 56.398 89.9565C55.7976 90.2287 55.3002 90.4625 54.9535 90.6279C54.7802 90.7106 54.6446 90.7761 54.5528 90.8208C54.5069 90.8432 54.4719 90.8603 54.4487 90.8717L54.4226 90.8845L54.415 90.8883L54.4145 90.8879L53.5395 89.2704L53.5411 89.2695L53.5689 89.2531C53.5889 89.2414 53.6188 89.2237 53.6579 89.2006C53.7361 89.1543 53.8514 89.0858 53.9981 88.9979C54.2917 88.822 54.711 88.5684 55.2127 88.2587C56.217 87.6385 57.5462 86.796 58.8539 85.9024C60.1682 85.0042 61.433 84.0732 62.3237 83.2746C62.7612 82.8824 63.0733 82.5529 63.2574 82.2992C63.028 82.259 62.6878 82.2491 62.2298 82.289C61.1925 82.3793 59.8285 82.6969 58.4333 83.0998C57.0504 83.4993 55.6855 83.9681 54.663 84.3385C54.1526 84.5234 53.7296 84.683 53.4348 84.7962C53.2874 84.8528 53.1722 84.8977 53.0943 84.9283C53.0553 84.9436 53.0256 84.9554 53.0059 84.9632L52.984 84.9719L52.9787 84.974L52.9776 84.9745L52.6481 85.1064L29.3175 76.4994L25.5006 63.6926L27.2668 63.1677L30.8207 75.0922L52.6247 83.136C52.6701 83.1185 52.7198 83.0993 52.7736 83.0787C53.0775 82.962 53.5116 82.7982 54.0345 82.6087C55.0786 82.2305 56.4851 81.747 57.9214 81.3322C59.3455 80.9208 60.8488 80.5621 62.0697 80.4558C62.673 80.4033 63.2795 80.405 63.796 80.5332C64.3105 80.6607 64.9236 80.9692 65.1656 81.6662L65.1657 81.6666C65.291 82.0279 65.2385 82.3729 65.1524 82.632C65.0664 82.891 64.9258 83.1309 64.7762 83.3418C64.477 83.7636 64.0417 84.2073 63.5547 84.6439C63.1983 84.9634 62.7942 85.2967 62.3604 85.6352C63.3168 85.3375 64.2438 85.099 65.0635 84.9708C65.7725 84.86 66.4789 84.8184 67.0808 84.9375C67.6935 85.0588 68.3668 85.391 68.6463 86.1514L68.6465 86.152C68.9192 86.8952 68.5211 87.5832 68.2121 87.9931C67.8598 88.4604 67.3423 88.9377 66.7622 89.4003C65.9725 90.03 64.9834 90.697 63.9332 91.3494C64.1802 91.2955 64.4179 91.2476 64.6435 91.2071C65.2014 91.1068 65.7383 91.0411 66.1769 91.056C66.3923 91.0632 66.6465 91.0912 66.8863 91.1821C67.1287 91.2741 67.4721 91.4791 67.6264 91.9024C67.8068 92.3977 67.6587 92.8811 67.5165 93.1975C67.361 93.5436 67.1194 93.8958 66.8401 94.236C66.2771 94.922 65.4519 95.6906 64.4779 96.451C62.529 97.9725 59.8575 99.5599 57.1866 100.45C56.4001 100.712 55.2783 100.81 53.9849 100.807C52.666 100.803 51.079 100.693 49.3112 100.489C45.7742 100.081 41.4615 99.291 37.0283 98.1933C32.5953 97.0956 28.0221 95.685 23.9686 94.0291C19.9306 92.3796 16.3418 90.4601 13.9304 88.3188C11.5045 86.1645 9.44098 82.9593 7.71053 79.4386C5.9737 75.9049 4.54001 71.9858 3.40131 68.3432C2.26175 64.6979 1.41225 61.3121 0.847654 58.8384C0.565229 57.601 0.35378 56.5904 0.212722 55.888C0.142187 55.5368 0.089234 55.2625 0.0537915 55.0754C0.0360698 54.9818 0.0227243 54.91 0.013746 54.8612L0.00355255 54.8055L9.1998e-07 54.7859ZM63.4929 82.3696C63.4926 82.3697 63.4896 82.3681 63.4848 82.3642C63.4908 82.3675 63.4932 82.3694 63.4929 82.3696ZM66.9409 86.8215C66.9399 86.8219 66.9349 86.8186 66.929 86.8101C66.939 86.8169 66.9419 86.8211 66.9409 86.8215ZM65.87 92.3483C65.8702 92.3482 65.8698 92.3511 65.8682 92.3573C65.869 92.3515 65.8698 92.3484 65.87 92.3483Z" fill="#032349"/>
<path fill-rule="evenodd" clip-rule="evenodd" d="M44.8853 29.9341L45.1764 24.8628L46.2802 24.926L45.989 29.9973L44.8853 29.9341Z" fill="#032349"/>
<path d="M42.8537 24.1284C43.6168 24.1284 44.2354 23.5107 44.2354 22.7486C44.2354 21.9865 43.6168 21.3688 42.8537 21.3688C42.0906 21.3688 41.4719 21.9865 41.4719 22.7486C41.4719 23.5107 42.0906 24.1284 42.8537 24.1284Z" fill="#032349"/>
<path d="M48.5585 25.906C49.3216 25.906 49.9403 25.2883 49.9403 24.5262C49.9403 23.7641 49.3216 23.1464 48.5585 23.1464C47.7954 23.1464 47.1768 23.7641 47.1768 24.5262C47.1768 25.2883 47.7954 25.906 48.5585 25.906Z" fill="#032349"/>
</svg>
