<svg width="560" height="433" viewBox="0 0 560 433" fill="none" xmlns="http://www.w3.org/2000/svg">
<path d="M38.7743 315.053L2.2921 315.99L0 388.989L20.6567 331.233L47.8764 330.412" fill="#F96155"/>
<path fill-rule="evenodd" clip-rule="evenodd" d="M22.5392 347.119L12.4453 334.901L13.6967 333.795L23.7905 346.014L22.5392 347.119Z" fill="#001A39"/>
<path fill-rule="evenodd" clip-rule="evenodd" d="M20.2479 354.757L10.1582 342.539L11.4098 341.434L21.4995 353.652L20.2479 354.757Z" fill="#001A39"/>
<path fill-rule="evenodd" clip-rule="evenodd" d="M17.4523 362.732L8.30078 349.744L9.631 348.741L18.7825 361.73L17.4523 362.732Z" fill="#001A39"/>
<path d="M97.6848 304.666L92.5412 290.87C84.4267 269.094 98.7752 245.352 121.259 243.357C131.99 242.403 142.8 243.65 153.067 247.029L213.563 266.924C228.344 271.784 236.796 287.822 232.734 303.304L207.864 398.108L158.181 382.282L180.023 303.853L154.104 295.614L160.013 313.798C166.584 332.939 153.272 353.17 133.645 353.872L41.443 357.183C41.443 357.183 33.1228 349.898 32.8635 332.263C32.5755 312.845 40.1097 307.662 40.1097 307.662L97.6848 304.666Z" fill="#032349"/>
<path fill-rule="evenodd" clip-rule="evenodd" d="M156.397 301.562L144.258 271.982L145.394 271.483L157.533 301.063L156.397 301.562Z" fill="white"/>
<path d="M208.004 397.719C209.348 393.081 199.284 385.865 185.526 381.6C171.768 377.336 159.526 377.638 158.182 382.276C156.838 386.914 166.901 394.13 180.659 398.395C194.417 402.659 206.66 402.357 208.004 397.719Z" fill="#BACADF"/>
<path d="M163.285 381.878L146.957 414.262L215.453 421.765L170.856 401.176L178.958 384.891" fill="#F96155"/>
<path d="M221.635 426.599C222.132 423.071 205.721 417.676 184.978 414.55C164.236 411.424 147.018 411.75 146.521 415.278C146.024 418.806 162.436 424.201 183.178 427.327C203.92 430.453 221.138 430.127 221.635 426.599Z" fill="#572638"/>
<path fill-rule="evenodd" clip-rule="evenodd" d="M187.92 402.208L175.164 406.703L174.633 405.091L187.389 400.596L187.92 402.208Z" fill="#001A39"/>
<path fill-rule="evenodd" clip-rule="evenodd" d="M194.119 405.625L181.358 410.116L180.828 408.504L193.588 404.013L194.119 405.625Z" fill="#001A39"/>
<path fill-rule="evenodd" clip-rule="evenodd" d="M45.9805 348.307L53.4491 338.51L54.4185 339.301L46.9498 349.098L45.9805 348.307Z" fill="white"/>
<path fill-rule="evenodd" clip-rule="evenodd" d="M44.665 329.54L40.4883 322.208L41.5519 321.56L45.7286 328.892L44.665 329.54Z" fill="white"/>
<path fill-rule="evenodd" clip-rule="evenodd" d="M59.1874 316.625L50.8301 315.688L50.963 314.419L59.3203 315.355L59.1874 316.625Z" fill="white"/>
<path fill-rule="evenodd" clip-rule="evenodd" d="M66.5625 327.723L71.3768 318.948L72.4504 319.578L67.6362 328.353L66.5625 327.723Z" fill="white"/>
<path fill-rule="evenodd" clip-rule="evenodd" d="M77.6487 344.42L68.9089 346.855L68.5879 345.622L77.3277 343.187L77.6487 344.42Z" fill="white"/>
<path fill-rule="evenodd" clip-rule="evenodd" d="M90.6879 337.221L83.0879 327.926L84.0305 327.102L91.6305 336.396L90.6879 337.221Z" fill="white"/>
<path fill-rule="evenodd" clip-rule="evenodd" d="M74.9549 309.913L72.0703 306.384L73.0129 305.56L75.8975 309.088L74.9549 309.913Z" fill="white"/>
<path fill-rule="evenodd" clip-rule="evenodd" d="M93.7631 311.436L91.7387 319.012L90.5488 318.671L92.5733 311.096L93.7631 311.436Z" fill="white"/>
<path fill-rule="evenodd" clip-rule="evenodd" d="M107.141 328.154L109.293 318.468L110.496 318.754L108.344 328.44L107.141 328.154Z" fill="white"/>
<path fill-rule="evenodd" clip-rule="evenodd" d="M105.931 339.749L103.397 348.26L102.217 347.884L104.751 339.373L105.931 339.749Z" fill="white"/>
<path fill-rule="evenodd" clip-rule="evenodd" d="M153.143 330.513L142.074 325.559L142.564 324.387L153.633 329.342L153.143 330.513Z" fill="white"/>
<path fill-rule="evenodd" clip-rule="evenodd" d="M135.945 336.64L130.164 342.7L129.285 341.804L135.066 335.743L135.945 336.64Z" fill="white"/>
<path fill-rule="evenodd" clip-rule="evenodd" d="M87.8024 353.155L84.9097 356.185L84.0312 355.288L86.9239 352.258L87.8024 353.155Z" fill="white"/>
<path fill-rule="evenodd" clip-rule="evenodd" d="M120.15 325.443L121.417 334.035L120.197 334.228L118.93 325.635L120.15 325.443Z" fill="white"/>
<path fill-rule="evenodd" clip-rule="evenodd" d="M128.627 315.216L119.195 312.662L119.508 311.427L128.939 313.981L128.627 315.216Z" fill="white"/>
<path fill-rule="evenodd" clip-rule="evenodd" d="M166.22 253.778L163.879 250.909L164.822 250.086L167.164 252.954L166.22 253.778Z" fill="white"/>
<path fill-rule="evenodd" clip-rule="evenodd" d="M141.388 299.857L145.906 307.965L144.836 308.603L140.318 300.495L141.388 299.857Z" fill="white"/>
<path fill-rule="evenodd" clip-rule="evenodd" d="M131.315 288.669L124.579 298.649L123.566 297.918L130.302 287.938L131.315 288.669Z" fill="white"/>
<path fill-rule="evenodd" clip-rule="evenodd" d="M95.1751 285.354L92.4263 289.427L91.4141 288.696L94.1629 284.623L95.1751 285.354Z" fill="white"/>
<path fill-rule="evenodd" clip-rule="evenodd" d="M106.575 291.738L114.175 291.819L114.163 293.095L106.562 293.014L106.575 291.738Z" fill="white"/>
<path fill-rule="evenodd" clip-rule="evenodd" d="M129.761 273.163L138.365 273.507L138.317 274.782L129.713 274.438L129.761 273.163Z" fill="white"/>
<path fill-rule="evenodd" clip-rule="evenodd" d="M111.227 278.856L110.289 266.416L111.52 266.317L112.458 278.757L111.227 278.856Z" fill="white"/>
<path fill-rule="evenodd" clip-rule="evenodd" d="M98.0015 260.789L96.582 257.363L97.7167 256.86L99.1362 260.286L98.0015 260.789Z" fill="white"/>
<path fill-rule="evenodd" clip-rule="evenodd" d="M135.508 260.277L141.355 252.208L142.343 252.974L136.496 261.043L135.508 260.277Z" fill="white"/>
<path fill-rule="evenodd" clip-rule="evenodd" d="M159.041 262.268L156.103 269.515L154.965 269.022L157.903 261.774L159.041 262.268Z" fill="white"/>
<path fill-rule="evenodd" clip-rule="evenodd" d="M171.523 270.311H181.136V271.587H171.523V270.311Z" fill="white"/>
<path fill-rule="evenodd" clip-rule="evenodd" d="M165.885 282.128L162.329 290.24L161.205 289.713L164.76 281.601L165.885 282.128Z" fill="white"/>
<path fill-rule="evenodd" clip-rule="evenodd" d="M228.173 276.758L227.05 279.319L225.926 278.792L227.049 276.231L228.173 276.758Z" fill="white"/>
<path fill-rule="evenodd" clip-rule="evenodd" d="M232.647 303.936L226.281 302.974L226.46 301.711L232.825 302.672L232.647 303.936Z" fill="white"/>
<path fill-rule="evenodd" clip-rule="evenodd" d="M221.852 317.076L218.107 324.656L217.008 324.075L220.752 316.495L221.852 317.076Z" fill="white"/>
<path fill-rule="evenodd" clip-rule="evenodd" d="M201.188 320.044L208.15 324.918L207.458 325.975L200.496 321.102L201.188 320.044Z" fill="white"/>
<path fill-rule="evenodd" clip-rule="evenodd" d="M220.309 340.85L222.918 342.675L222.226 343.732L219.617 341.907L220.309 340.85Z" fill="white"/>
<path fill-rule="evenodd" clip-rule="evenodd" d="M213.212 303.358L203.472 303.864L203.41 302.59L213.15 302.083L213.212 303.358Z" fill="white"/>
<path fill-rule="evenodd" clip-rule="evenodd" d="M177.69 324.034L174.558 324.285L174.463 323.013L177.594 322.762L177.69 324.034Z" fill="white"/>
<path fill-rule="evenodd" clip-rule="evenodd" d="M167.385 364.723L163.085 364.945L163.023 363.67L167.323 363.448L167.385 364.723Z" fill="white"/>
<path fill-rule="evenodd" clip-rule="evenodd" d="M212.535 282.292L219.209 288.611L218.375 289.553L211.701 283.234L212.535 282.292Z" fill="white"/>
<path fill-rule="evenodd" clip-rule="evenodd" d="M198.805 276.664L195.291 288.278L194.113 287.897L197.627 276.282L198.805 276.664Z" fill="white"/>
<path fill-rule="evenodd" clip-rule="evenodd" d="M173.824 291.148L181.095 288.854L181.455 290.076L174.184 292.369L173.824 291.148Z" fill="white"/>
<path fill-rule="evenodd" clip-rule="evenodd" d="M185.861 261.61L194.165 259.257L194.491 260.488L186.188 262.841L185.861 261.61Z" fill="white"/>
<path fill-rule="evenodd" clip-rule="evenodd" d="M142 346.348L149.395 347.587L149.197 348.846L141.803 347.608L142 346.348Z" fill="white"/>
<path fill-rule="evenodd" clip-rule="evenodd" d="M191.246 313.571L187.975 305.561L189.112 305.064L192.383 313.074L191.246 313.571Z" fill="white"/>
<path fill-rule="evenodd" clip-rule="evenodd" d="M182.195 333.65L191.947 333.739L191.936 335.016L182.184 334.927L182.195 333.65Z" fill="white"/>
<path fill-rule="evenodd" clip-rule="evenodd" d="M173.464 351.778L168.436 346.419L169.321 345.53L174.35 350.888L173.464 351.778Z" fill="white"/>
<path fill-rule="evenodd" clip-rule="evenodd" d="M185.883 360.073L190.051 348.688L191.206 349.141L187.037 360.525L185.883 360.073Z" fill="white"/>
<path fill-rule="evenodd" clip-rule="evenodd" d="M211.641 347.126L204.255 348.972L203.965 347.732L211.351 345.885L211.641 347.126Z" fill="white"/>
<path fill-rule="evenodd" clip-rule="evenodd" d="M207.631 374.603L203.891 365.445L205.028 364.948L208.768 374.107L207.631 374.603Z" fill="white"/>
<path fill-rule="evenodd" clip-rule="evenodd" d="M192.884 373.017L184.461 374.863L184.205 373.615L192.628 371.768L192.884 373.017Z" fill="white"/>
<path d="M185.392 215.977C182.837 227.722 171.558 235.101 160.201 232.458L120.455 223.211C109.098 220.568 101.963 208.904 104.519 197.159C107.074 185.414 118.353 178.034 129.71 180.677L169.455 189.924C180.812 192.567 187.947 204.231 185.392 215.977Z" fill="#F96155"/>
<path fill-rule="evenodd" clip-rule="evenodd" d="M185.207 197.053L338.589 228.138L338.676 228.183L338.355 228.849C338.676 228.183 338.677 228.183 338.677 228.183L338.678 228.184L338.681 228.185L338.689 228.189C338.695 228.192 338.703 228.197 338.713 228.202C338.734 228.213 338.762 228.229 338.798 228.249C338.869 228.29 338.969 228.349 339.094 228.428C339.344 228.585 339.693 228.821 340.104 229.144C340.924 229.79 341.994 230.786 343.008 232.195C345.048 235.031 346.829 239.496 345.969 246.035C345.104 252.615 341.864 256.28 338.813 258.283C337.298 259.277 335.839 259.856 334.758 260.187C334.216 260.353 333.767 260.457 333.45 260.52C333.292 260.552 333.166 260.573 333.078 260.587C333.033 260.594 332.999 260.599 332.974 260.602C332.962 260.604 332.952 260.605 332.944 260.606L332.935 260.607L332.931 260.608C332.931 260.608 332.93 260.608 332.849 259.868L332.93 260.608L332.82 260.621L176.189 228.759L176.467 227.297L332.87 259.113C332.94 259.102 333.044 259.084 333.178 259.058C333.454 259.002 333.858 258.909 334.349 258.759C335.334 258.458 336.664 257.929 338.042 257.025C340.778 255.229 343.741 251.929 344.542 245.835C345.349 239.701 343.68 235.624 341.853 233.084C340.933 231.807 339.966 230.907 339.232 230.329C338.865 230.041 338.557 229.833 338.346 229.7C338.244 229.636 338.165 229.589 338.111 229.559L184.93 198.515L185.207 197.053Z" fill="#001A39"/>
<path fill-rule="evenodd" clip-rule="evenodd" d="M363.432 209.006L175 181.367L175.347 178.839L363.778 206.478L363.432 209.006Z" fill="#001A39"/>
<path d="M360.939 218.925L365.733 209.116C366.21 208.137 366.194 206.98 365.684 206.018L360.585 196.375C359.306 193.954 361.264 191.064 363.902 191.49L374.403 193.171C375.448 193.337 376.51 192.962 377.238 192.166L384.534 184.175C386.365 182.166 389.628 183.204 390.052 185.928L391.751 196.775C391.92 197.856 392.595 198.784 393.553 199.252L403.158 203.954C405.569 205.137 405.627 208.665 403.252 209.925L393.8 214.946C392.858 215.448 392.212 216.397 392.08 217.483L390.722 228.381C390.381 231.117 387.155 232.262 385.262 230.317L377.724 222.572C376.971 221.802 375.901 221.461 374.86 221.661L364.416 223.696C361.787 224.206 359.738 221.385 360.939 218.925Z" fill="#FBC73B"/>
<path fill-rule="evenodd" clip-rule="evenodd" d="M291.713 29.4785L295.527 32.7215L178.041 180.517L251.357 354.717L246.829 356.755L172.307 179.689L291.713 29.4785Z" fill="#001A39"/>
<path fill-rule="evenodd" clip-rule="evenodd" d="M291.761 32.7812C330 77.9883 349.694 139.492 340.899 203.617C339.559 213.385 337.601 222.905 335.071 232.139C337.445 232.295 339.407 232.478 340.09 232.544C342.55 223.4 344.464 213.986 345.787 204.335C354.793 138.676 334.622 75.6968 295.477 29.4189L291.761 32.7812ZM337.926 240.06C336.712 239.651 335.042 239.075 333.249 238.419C333.136 238.786 333.023 239.152 332.909 239.517C334.851 239.816 336.589 240.112 337.842 240.333C337.87 240.242 337.898 240.151 337.926 240.06ZM335.455 247.629C335.412 247.753 335.369 247.877 335.326 248.001C333.904 247.732 332.177 247.424 330.374 247.143C330.502 246.779 330.63 246.414 330.757 246.048C332.487 246.652 334.117 247.194 335.455 247.629ZM328.265 252.859C329.871 253.447 331.487 254.002 332.953 254.487C316.367 297.727 287.082 333.574 250.429 357.885L247.764 353.587C283.494 329.887 312.05 294.972 328.265 252.859Z" fill="#001A39"/>
<path fill-rule="evenodd" clip-rule="evenodd" d="M340.418 231.828C340.418 231.828 340.418 231.828 340.348 232.569C340.278 233.31 340.278 233.31 340.278 233.31L340.23 233.305C340.197 233.302 340.149 233.297 340.087 233.291C339.961 233.279 339.777 233.261 339.541 233.239C339.071 233.196 338.398 233.136 337.589 233.07C335.969 232.939 333.808 232.787 331.635 232.7C329.456 232.612 327.288 232.592 325.647 232.721C324.821 232.785 324.166 232.885 323.721 233.018C323.624 233.047 323.544 233.075 323.479 233.101C323.531 233.152 323.596 233.21 323.676 233.275C324.058 233.585 324.66 233.953 325.445 234.361C327.003 235.17 329.143 236.065 331.321 236.904C333.494 237.74 335.684 238.512 337.333 239.075C338.156 239.356 338.844 239.585 339.325 239.744C339.566 239.823 339.755 239.885 339.883 239.926C339.948 239.947 339.997 239.963 340.03 239.974L340.08 239.99C340.08 239.99 340.08 239.99 339.867 240.701C339.736 241.434 339.736 241.434 339.736 241.434L339.673 241.422C339.631 241.414 339.569 241.402 339.487 241.387C339.324 241.356 339.085 241.312 338.78 241.256C338.17 241.145 337.297 240.99 336.248 240.812C334.149 240.455 331.349 240.009 328.537 239.649C325.72 239.289 322.915 239.018 320.798 239.006C319.733 239 318.886 239.06 318.309 239.19C318.079 239.242 317.922 239.298 317.822 239.348C317.906 239.461 318.055 239.613 318.291 239.8C318.799 240.203 319.581 240.668 320.579 241.172C322.568 242.175 325.28 243.268 328.031 244.283C330.777 245.296 333.539 246.225 335.616 246.9C336.654 247.238 337.52 247.512 338.127 247.701C338.43 247.796 338.668 247.87 338.83 247.92C338.911 247.945 338.973 247.964 339.015 247.976L339.077 247.995C339.078 247.995 339.078 247.995 338.875 248.71C338.727 249.439 338.727 249.439 338.727 249.439L338.672 249.427C338.656 249.424 338.636 249.419 338.613 249.414C338.583 249.408 338.547 249.401 338.506 249.392C338.361 249.361 338.148 249.316 337.876 249.261C337.331 249.149 336.553 248.992 335.616 248.813C333.742 248.454 331.24 248.007 328.724 247.65C326.2 247.292 323.691 247.029 321.789 247.031C320.831 247.032 320.075 247.101 319.561 247.236C319.303 247.304 319.15 247.378 319.069 247.436C319.067 247.438 319.065 247.439 319.063 247.441C319.067 247.45 319.073 247.46 319.08 247.471C319.144 247.579 319.275 247.733 319.504 247.93C319.96 248.32 320.676 248.767 321.604 249.25C323.451 250.21 325.988 251.236 328.571 252.181C331.148 253.123 333.746 253.977 335.701 254.595C336.678 254.904 337.493 255.154 338.064 255.327C338.35 255.413 338.574 255.48 338.727 255.525C338.803 255.548 338.861 255.565 338.901 255.577L338.959 255.594L338.959 255.594C338.959 255.594 338.959 255.594 338.764 256.311C338.568 257.027 338.568 257.027 338.568 257.027L338.567 257.027L338.506 257.009C338.466 256.997 338.407 256.98 338.329 256.957C338.175 256.911 337.948 256.843 337.66 256.756C337.084 256.582 336.263 256.33 335.279 256.019C333.313 255.397 330.694 254.537 328.091 253.585C325.494 252.635 322.887 251.584 320.957 250.581C319.998 250.082 319.167 249.575 318.585 249.077C318.295 248.828 318.034 248.554 317.855 248.255C317.674 247.952 317.542 247.562 317.628 247.133C317.712 246.715 317.966 246.414 318.25 246.211C318.526 246.014 318.861 245.884 319.205 245.793C319.893 245.611 320.792 245.543 321.787 245.542C323.778 245.54 326.346 245.81 328.869 246.167C328.43 246.009 327.988 245.849 327.547 245.686C324.783 244.666 322.01 243.551 319.948 242.51C318.922 241.993 318.037 241.477 317.414 240.982C317.104 240.736 316.826 240.47 316.629 240.183C316.435 239.901 316.262 239.512 316.336 239.065C316.411 238.608 316.706 238.305 316.998 238.118C317.286 237.935 317.639 237.817 318.003 237.735C318.736 237.57 319.711 237.51 320.806 237.517C323.011 237.529 325.883 237.809 328.714 238.171C329.644 238.29 330.572 238.418 331.474 238.55C331.256 238.467 331.037 238.384 330.819 238.299C328.628 237.456 326.429 236.539 324.798 235.692C323.988 235.271 323.284 234.85 322.787 234.447C322.541 234.247 322.31 234.024 322.147 233.777C321.987 233.534 321.831 233.173 321.924 232.755C322.011 232.362 322.274 232.105 322.508 231.948C322.745 231.787 323.031 231.673 323.323 231.586C323.91 231.412 324.681 231.303 325.538 231.236C327.264 231.1 329.498 231.124 331.69 231.211C333.889 231.299 336.071 231.454 337.701 231.585C338.517 231.651 339.195 231.712 339.67 231.756C339.908 231.778 340.094 231.796 340.222 231.808C340.285 231.815 340.334 231.819 340.368 231.823L340.418 231.828ZM338.875 248.71L338.727 249.439L339.077 247.995L338.875 248.71ZM339.867 240.701L339.736 241.434L340.08 239.99L339.867 240.701Z" fill="#001A39"/>
<path d="M173.507 153.626C173.704 162.464 166.939 169.797 158.393 170.001C150.838 170.184 144.419 164.733 142.896 157.362C142.699 156.396 142.579 155.396 142.559 154.37C142.361 145.532 149.126 138.199 157.673 137.995C162.121 137.889 166.17 139.731 169.063 142.766C171.733 145.57 173.412 149.387 173.507 153.626Z" fill="#FBC73B"/>
<path d="M171.79 136.271C171.873 139.944 169.062 142.987 165.511 143.072C162.371 143.148 159.705 140.884 159.075 137.82C158.993 137.42 158.944 137.003 158.935 136.577C158.853 132.905 161.664 129.862 165.215 129.777C167.062 129.734 168.745 130.496 169.947 131.76C171.054 132.922 171.753 134.509 171.79 136.271Z" fill="#001A39"/>
<path d="M161.097 134.659C161.147 136.897 159.435 138.753 157.271 138.804C155.357 138.851 153.736 137.472 153.349 135.603C153.3 135.357 153.271 135.106 153.263 134.846C153.213 132.607 154.925 130.752 157.09 130.701C158.217 130.675 159.242 131.139 159.97 131.909C160.649 132.62 161.073 133.586 161.097 134.659Z" fill="#001A39"/>
<path fill-rule="evenodd" clip-rule="evenodd" d="M169.166 160.244C169.165 160.244 169.165 160.244 168.963 161.069C168.76 161.894 168.76 161.894 168.76 161.894L168.757 161.893L168.752 161.892L168.74 161.889C168.73 161.886 168.717 161.882 168.701 161.878C168.67 161.868 168.627 161.855 168.575 161.838C168.47 161.803 168.326 161.751 168.155 161.678C167.817 161.534 167.362 161.303 166.909 160.955C165.991 160.251 165.043 159.027 165.179 157.128L166.821 157.254C166.739 158.399 167.272 159.114 167.89 159.588C168.204 159.829 168.531 159.997 168.783 160.104C168.907 160.157 169.01 160.194 169.078 160.217C169.112 160.228 169.138 160.236 169.153 160.24C169.16 160.242 169.165 160.244 169.167 160.244C169.168 160.245 169.169 160.245 169.168 160.245L169.167 160.244L169.166 160.244L169.166 160.244Z" fill="#001A39"/>
<path d="M169.499 156.704C170.928 156.669 172.072 156.005 172.055 155.221C172.037 154.436 170.864 153.828 169.435 153.862C168.006 153.897 166.862 154.56 166.88 155.345C166.897 156.129 168.07 156.738 169.499 156.704Z" fill="#001A39"/>
<path d="M162.124 157.018C163.553 156.984 164.697 156.32 164.68 155.536C164.662 154.751 163.489 154.143 162.06 154.177C160.631 154.211 159.487 154.875 159.505 155.66C159.522 156.444 160.695 157.053 162.124 157.018Z" fill="#001A39"/>
<path d="M148.179 154.234C148.253 157.447 145.792 160.107 142.69 160.183C139.945 160.251 137.616 158.268 137.061 155.591C136.987 155.238 136.945 154.876 136.937 154.506C136.863 151.297 139.324 148.633 142.426 148.556C144.043 148.518 145.513 149.186 146.562 150.289C147.533 151.306 148.146 152.693 148.179 154.234Z" fill="#FBC73B"/>
<path d="M168.333 142.352C168.333 142.352 162.922 146.105 152.944 144.467L152.475 154.127L146.393 152.889C146.393 152.889 144.702 147.361 139.538 149.463C139.538 149.463 138.859 138.48 145.047 136.169C155.865 132.13 165.634 136.867 168.333 142.352Z" fill="#001A39"/>
<path fill-rule="evenodd" clip-rule="evenodd" d="M97.4346 136.22C79.9981 126.759 63.2714 149.972 77.0191 164.549L77.0227 164.553L108.193 198.082L107.154 199.114L75.9881 165.589C75.9875 165.588 75.9869 165.587 75.9863 165.587C61.0978 149.796 79.2151 124.652 98.1037 134.902C98.1038 134.902 98.1037 134.902 98.1037 134.902L169.737 173.766C169.756 173.767 169.777 173.767 169.799 173.768C169.951 173.771 170.172 173.777 170.453 173.786C171.016 173.803 171.818 173.832 172.781 173.877C174.705 173.968 177.273 174.127 179.841 174.399C182.401 174.67 184.996 175.057 186.957 175.611C187.931 175.887 188.8 176.218 189.436 176.627C190.045 177.018 190.644 177.619 190.616 178.481C190.589 179.341 189.971 179.883 189.345 180.207C188.701 180.541 187.844 180.762 186.897 180.915C186.665 180.952 186.424 180.985 186.175 181.016C186.458 181.086 186.73 181.16 186.99 181.236C187.916 181.505 188.739 181.82 189.338 182.196C189.889 182.543 190.513 183.114 190.446 183.96C190.38 184.785 189.698 185.272 189.105 185.558C188.458 185.87 187.597 186.1 186.636 186.277C184.701 186.633 182.175 186.804 179.69 186.877C177.197 186.95 174.716 186.926 172.859 186.883C172.271 186.87 171.746 186.854 171.301 186.84C171.559 187.271 171.811 187.792 171.958 188.361C172.172 189.185 172.175 190.161 171.594 191.069C171.114 191.82 170.294 192.431 169.085 192.885C169.174 193.294 169.246 193.852 169.169 194.453C169.087 195.097 168.833 195.798 168.254 196.395C167.678 196.987 166.836 197.42 165.673 197.637C165.673 197.637 165.673 197.637 165.673 197.637C165.203 197.725 164.54 197.644 163.811 197.497C163.049 197.343 162.104 197.091 161.011 196.759C158.823 196.096 155.995 195.098 152.761 193.878C146.29 191.439 138.154 188.098 130.187 184.73C122.218 181.361 114.411 177.962 108.598 175.406C105.691 174.128 103.281 173.06 101.599 172.312C100.758 171.938 100.098 171.644 99.6487 171.443C99.424 171.343 99.2519 171.266 99.1359 171.214L98.9606 171.135C98.9601 171.135 98.9599 171.135 99.2464 170.452C99.5329 169.769 99.5331 169.769 99.5335 169.769L99.7079 169.847C99.8236 169.899 99.9954 169.976 100.22 170.076C100.668 170.276 101.327 170.57 102.168 170.944C103.849 171.691 106.256 172.758 109.161 174.036C114.971 176.59 122.771 179.986 130.732 183.351C138.694 186.717 146.809 190.049 153.254 192.479C156.477 193.694 159.272 194.68 161.416 195.33C162.489 195.656 163.387 195.894 164.087 196.035C164.821 196.184 165.242 196.204 165.417 196.171C166.373 195.993 166.921 195.665 167.238 195.339C167.551 195.017 167.693 194.642 167.741 194.259C167.791 193.866 167.741 193.474 167.67 193.168C167.635 193.017 167.597 192.895 167.568 192.812C167.554 192.771 167.543 192.74 167.536 192.722C167.532 192.713 167.529 192.706 167.528 192.703L167.528 192.704C167.528 192.704 167.528 192.704 167.529 192.704L167.529 192.705L168.187 192.402C167.594 192.675 167.535 192.701 167.529 192.704L167.99 191.685C169.419 191.267 170.091 190.72 170.393 190.248C170.682 189.796 170.708 189.292 170.567 188.746C170.422 188.186 170.111 187.642 169.814 187.219C169.668 187.012 169.532 186.844 169.434 186.728C169.385 186.671 169.346 186.627 169.321 186.599C169.308 186.585 169.298 186.574 169.292 186.568L169.287 186.563L169.796 186.036C169.83 185.292 169.83 185.292 169.83 185.292L169.831 185.292L169.833 185.292L169.885 185.294C169.921 185.296 169.976 185.299 170.047 185.302C170.19 185.308 170.401 185.317 170.668 185.327C171.204 185.347 171.971 185.373 172.891 185.394C174.734 185.436 177.189 185.46 179.649 185.388C182.116 185.315 184.557 185.146 186.383 184.81C187.302 184.641 188.019 184.438 188.496 184.208C188.889 184.019 188.984 183.881 189.005 183.841C188.988 183.8 188.911 183.671 188.589 183.469C188.159 183.198 187.485 182.927 186.6 182.669C184.843 182.157 182.449 181.751 180.012 181.437C179.117 181.322 178.219 181.219 177.351 181.129C175.85 181.054 174.442 180.953 173.28 180.858C172.361 180.782 171.595 180.709 171.058 180.656C170.79 180.629 170.579 180.607 170.434 180.591C170.362 180.584 170.307 180.578 170.269 180.573L170.226 180.569L170.212 180.567L170.212 180.567C170.211 180.567 170.211 180.567 170.29 179.827C170.324 179.083 170.324 179.083 170.324 179.083L170.328 179.083L170.382 179.086C170.42 179.088 170.476 179.091 170.548 179.095C170.694 179.102 170.906 179.114 171.177 179.131C171.718 179.163 172.489 179.214 173.414 179.283C174.571 179.371 175.97 179.489 177.458 179.643C178.308 179.685 179.187 179.719 180.066 179.738C182.5 179.789 184.897 179.728 186.676 179.443C187.572 179.299 188.256 179.106 188.7 178.876C189.161 178.637 189.176 178.466 189.177 178.433L189.177 178.432C189.178 178.399 189.164 178.206 188.675 177.892C188.215 177.596 187.504 177.31 186.577 177.048C184.734 176.527 182.235 176.15 179.695 175.881C177.163 175.613 174.624 175.455 172.715 175.365C171.761 175.32 170.966 175.292 170.41 175.275C170.133 175.266 169.914 175.26 169.766 175.257C169.692 175.255 169.635 175.254 169.597 175.253L169.554 175.252L169.544 175.252L169.541 175.252L169.54 175.252C169.54 175.252 169.54 175.252 169.553 174.507L169.54 175.252L169.218 175.167L97.4346 136.22ZM170.29 179.827L170.324 179.083L170.212 180.567L170.29 179.827ZM169.287 186.561L169.287 186.563L169.287 186.562C169.287 186.562 169.287 186.562 169.287 186.561ZM169.287 186.561L169.83 185.292L169.796 186.036" fill="#001A39"/>
<path d="M169.553 174.503C169.553 174.503 190.012 174.873 189.897 178.452C189.785 182.027 170.289 179.823 170.289 179.823C170.289 179.823 189.975 180.789 189.728 183.895C189.481 187.002 169.795 186.032 169.795 186.032" fill="#FFEDDC"/>
<path fill-rule="evenodd" clip-rule="evenodd" d="M169.543 175.141C169.543 175.141 169.543 175.141 169.554 174.503C169.564 173.864 169.565 173.864 169.565 173.864L169.58 173.865L169.625 173.865C169.664 173.866 169.722 173.868 169.798 173.869C169.949 173.873 170.17 173.879 170.451 173.887C171.013 173.905 171.815 173.933 172.777 173.979C174.7 174.07 177.266 174.228 179.832 174.5C182.39 174.771 184.978 175.157 186.93 175.709C187.901 175.984 188.758 176.311 189.382 176.712C189.982 177.098 190.54 177.67 190.514 178.472C190.489 179.274 189.914 179.789 189.3 180.108C188.67 180.434 187.825 180.653 186.882 180.805C186.466 180.872 186.021 180.927 185.555 180.971C186.053 181.085 186.525 181.206 186.963 181.333C187.886 181.602 188.698 181.914 189.285 182.283C189.831 182.626 190.406 183.167 190.344 183.947C190.283 184.71 189.651 185.173 189.062 185.457C188.428 185.763 187.576 185.992 186.618 186.168C184.692 186.522 182.171 186.693 179.687 186.766C177.197 186.84 174.718 186.815 172.862 186.773C171.934 186.751 171.161 186.725 170.62 186.705C170.349 186.695 170.137 186.686 169.991 186.679C169.919 186.676 169.863 186.674 169.825 186.672L169.767 186.669C169.767 186.669 169.767 186.669 169.796 186.031C169.826 185.394 169.826 185.394 169.826 185.394L169.839 185.394L169.881 185.396C169.917 185.398 169.972 185.401 170.044 185.404C170.187 185.41 170.397 185.419 170.665 185.429C171.202 185.449 171.969 185.475 172.89 185.496C174.733 185.539 177.19 185.563 179.652 185.49C182.121 185.417 184.568 185.248 186.402 184.911C187.324 184.741 188.051 184.536 188.541 184.3C189.075 184.042 189.112 183.857 189.114 183.843L189.114 183.842C189.114 183.836 189.118 183.802 189.06 183.724C188.993 183.633 188.864 183.512 188.644 183.373C188.201 183.095 187.516 182.821 186.628 182.562C184.864 182.048 182.464 181.641 180.026 181.327C179.128 181.211 178.229 181.109 177.36 181.019C175.859 180.944 174.451 180.843 173.289 180.747C172.37 180.671 171.605 180.599 171.069 180.545C170.801 180.519 170.59 180.497 170.446 180.481C170.374 180.473 170.318 180.467 170.281 180.463L170.238 180.459L170.223 180.457C170.223 180.457 170.223 180.457 170.29 179.822C170.319 179.185 170.32 179.185 170.32 179.185L170.377 179.188C170.415 179.189 170.471 179.192 170.544 179.196C170.689 179.204 170.901 179.216 171.172 179.233C171.712 179.265 172.483 179.315 173.407 179.385C174.564 179.472 175.963 179.591 177.451 179.745C178.303 179.787 179.184 179.821 180.065 179.839C182.5 179.891 184.904 179.83 186.692 179.543C187.592 179.399 188.288 179.204 188.746 178.966C189.219 178.721 189.278 178.524 189.281 178.431L189.281 178.431C189.284 178.339 189.227 178.116 188.73 177.797C188.258 177.492 187.535 177.204 186.604 176.941C184.753 176.417 182.248 176.039 179.706 175.77C177.171 175.502 174.63 175.344 172.72 175.254C171.766 175.209 170.971 175.181 170.414 175.164C170.136 175.155 169.918 175.149 169.769 175.146C169.695 175.144 169.638 175.143 169.6 175.142L169.557 175.141L169.543 175.141ZM170.29 179.822L170.32 179.185L170.223 180.457L170.29 179.822Z" fill="#001A39"/>
<path fill-rule="evenodd" clip-rule="evenodd" d="M123.176 254.913L115 252.888L115.288 251.647L123.464 253.672L123.176 254.913Z" fill="white"/>
<path d="M540.532 83.6117L494.145 94.3301L504.496 142.361L550.883 131.643L540.532 83.6117Z" fill="#617FA8"/>
<path d="M553.001 355.07C537.929 369.259 514.791 367.89 501.319 352.015C487.848 336.141 489.148 311.771 504.219 297.582L553.001 355.07Z" fill="#62A0E4"/>
<path d="M500.502 124.416C508.406 127.539 516.824 127.661 524.662 124.283C528.089 122.805 531.285 120.848 534.47 118.887C538.507 116.402 542.745 114.077 546.561 111.242C546.862 111.018 546.609 110.559 546.272 110.726C539.101 114.343 532.742 119.548 525.473 122.979C521.715 124.754 517.715 125.917 513.569 126.046C509.147 126.183 504.85 125.202 500.623 123.952C500.333 123.869 500.226 124.309 500.502 124.416Z" fill="white"/>
<path d="M527.384 136.971C523.699 128.676 522.092 119.367 523.446 110.294C524.136 105.662 525.696 101.235 527.611 97.0027C529.387 93.0816 531.673 89.3353 533.178 85.2925C533.299 84.9696 532.818 84.7834 532.649 85.0608C530.213 89.1605 528.077 93.6325 526.198 98.0324C524.415 102.212 523.057 106.566 522.499 111.114C521.428 119.869 522.778 129.47 526.984 137.21C527.13 137.487 527.505 137.248 527.384 136.971Z" fill="white"/>
<path d="M531.983 7.75781C529.52 10.297 525.042 9.70214 525.042 9.70214C525.042 9.70214 524.56 4.98886 527.024 2.44965C529.487 -0.089564 533.964 0.505403 533.964 0.505403C533.964 0.505403 534.448 5.21688 531.983 7.75781Z" fill="#FBC73B"/>
<path fill-rule="evenodd" clip-rule="evenodd" d="M523.004 2.07731C523.004 2.07747 523.004 2.07765 523.832 1.77857C524.659 1.47949 524.659 1.47973 524.66 1.48L524.66 1.48067L524.661 1.48251L524.664 1.48818L524.674 1.50741C524.683 1.52371 524.696 1.54693 524.711 1.57688C524.742 1.63676 524.787 1.72355 524.841 1.83559C524.951 2.05965 525.102 2.38496 525.274 2.79836C525.619 3.62468 526.048 4.80578 526.392 6.23583C527.08 9.09011 527.44 12.9709 526.078 17.0098L524.33 16.6236C525.594 12.8721 525.268 9.2339 524.613 6.5167C524.286 5.16101 523.88 4.04327 523.557 3.26717C523.395 2.87937 523.254 2.57758 523.155 2.37484C523.106 2.27349 523.067 2.19695 523.041 2.14686C523.028 2.12182 523.018 2.10339 523.012 2.09179L523.005 2.07953L523.004 2.07731Z" fill="#001A39"/>
<path d="M515.858 49.1888C499.549 43.9226 496.337 18.7445 507.895 10.1201C517.754 2.76352 525.492 14.4686 525.492 14.4686C525.492 14.4686 538.173 9.21369 542.887 21.0607C548.314 34.7014 533.075 54.7486 515.858 49.1888Z" fill="#A14259"/>
<path fill-rule="evenodd" clip-rule="evenodd" d="M516.644 343.999C510.188 344.522 503.158 346.782 498.252 348.658L498.008 347.951C502.933 346.069 510.035 343.781 516.589 343.249C523.113 342.72 529.268 343.922 532.053 349.243L532.053 349.243C534.558 354.033 534.375 359.608 533.047 364.877L532.356 364.685C533.66 359.508 533.806 354.156 531.426 349.605C528.864 344.71 523.131 343.473 516.644 343.999Z" fill="white"/>
<path fill-rule="evenodd" clip-rule="evenodd" d="M495.008 309.085C495.008 309.085 495.008 309.084 495.37 309.027C495.732 308.97 495.732 308.97 495.732 308.97L495.732 308.971L495.734 308.978C495.735 308.985 495.737 308.995 495.74 309.01C495.745 309.039 495.754 309.084 495.768 309.143C495.794 309.263 495.838 309.441 495.905 309.669C496.039 310.126 496.267 310.786 496.639 311.583C497.382 313.177 498.701 315.322 501.004 317.502C505.602 321.857 514.164 326.388 530.004 326.885L529.98 327.606C514.002 327.104 505.252 322.526 500.494 318.021C498.118 315.772 496.748 313.55 495.972 311.884C495.583 311.051 495.343 310.357 495.2 309.869C495.128 309.625 495.081 309.432 495.051 309.298C495.036 309.232 495.025 309.18 495.018 309.144C495.015 309.126 495.012 309.112 495.011 309.102L495.009 309.09L495.008 309.086L495.008 309.085Z" fill="white"/>
<path d="M550.628 257.931C544.628 264.095 536.489 267.557 528.003 267.557C521.591 267.557 515.327 265.578 510.024 261.877C504.72 258.176 500.622 252.924 498.259 246.802C495.897 240.68 495.379 233.97 496.774 227.542C498.169 221.114 501.412 215.265 506.082 210.753C511.808 205.218 525.87 195.254 523.736 173.343C549.334 190.871 558.699 204.018 541.655 234.692C545.354 234.692 550.755 231.086 557.867 223.868C559.019 227.256 560 230.897 560 234.692C560 243.408 556.629 251.768 550.628 257.931Z" fill="#F96155"/>
<mask id="mask0_5474_34381" style="mask-type:alpha" maskUnits="userSpaceOnUse" x="496" y="173" width="64" height="95">
<path d="M550.701 258.224C544.748 264.413 536.674 267.891 528.256 267.891C521.895 267.89 515.681 265.903 510.42 262.186C505.159 258.47 501.093 253.196 498.749 247.048C496.405 240.9 495.892 234.162 497.276 227.707C498.66 221.252 501.877 215.379 506.51 210.848C512.19 205.29 526.139 195.283 524.023 173.281C549.417 190.883 558.708 204.084 541.799 234.887C545.469 234.887 550.827 231.266 557.882 224.018C559.025 227.42 559.998 231.077 559.998 234.887C559.998 243.64 556.654 252.035 550.701 258.224Z" fill="#F96155"/>
</mask>
<g mask="url(#mask0_5474_34381)">
<path d="M481.432 298.509C483.575 287.14 494.195 282.794 503.394 278.899C507.251 277.265 511.214 275.362 513.951 271.988C516.795 268.477 517.859 263.906 517.68 259.392C517.478 254.354 515.779 249.62 513.893 245.026C511.775 239.878 509.071 234.558 508.774 228.863C508.286 219.584 515.669 211.818 524.046 209.834C534.758 207.296 545.275 215.173 552.346 222.639C552.786 223.106 553.634 222.479 553.245 221.921C547.961 214.322 538.923 208.182 529.782 207.353C521.272 206.586 512.425 211.818 508.653 219.747C503.765 230.025 510.15 240.049 513.562 249.62C515.441 254.893 516.648 260.844 514.799 266.323C513.049 271.509 508.576 274.385 503.948 276.486C498.859 278.797 493.637 280.67 489.134 284.146C484.61 287.642 481.293 292.35 480.379 298.201C480.258 298.919 481.293 299.238 481.432 298.509Z" fill="#FBC73B"/>
<path d="M533.141 270.981C527.974 262.102 525.501 251.668 527.589 241.383C528.099 238.871 528.891 236.162 531.012 234.612C533.717 232.632 536.333 234.334 538.583 236.169C542.476 239.354 545.639 243.294 548.476 247.485C548.898 248.108 549.764 247.58 549.455 246.892C547.041 241.516 543.056 236.785 538.348 233.411C536.322 231.96 533.992 231.063 531.57 231.99C529.255 232.875 527.666 234.976 526.763 237.279C524.682 242.568 524.686 249.001 525.497 254.559C526.385 260.661 528.623 266.596 532.194 271.555C532.601 272.129 533.515 271.623 533.141 270.981Z" fill="#FBC73B"/>
<path d="M505.058 180.817C507.286 184.142 509.891 186.821 513.509 188.477C516.838 190.001 520.536 190.506 524.133 189.929C527.931 189.317 531.538 187.52 534.378 184.845C537.361 182.033 539.152 178.317 540.697 174.525C542.304 170.585 543.75 166.47 546.495 163.191C548.928 160.284 552.072 158.05 555.522 156.637C562.211 153.901 569.965 154.148 576.185 158.031C580.075 160.463 583.469 163.89 587.894 165.304C591.545 166.47 596.037 165.558 598.529 162.435C599.116 161.698 598.209 160.725 597.509 161.379C590.232 168.127 582.478 159.171 576.225 155.668C570.618 152.526 563.888 152.02 557.779 153.73C551.757 155.417 546.271 159.281 542.965 164.814C538.701 171.938 537.725 180.878 530.294 185.593C521.96 190.882 511.579 188.044 505.767 180.266C505.451 179.845 504.769 180.388 505.058 180.817Z" fill="#FBC73B"/>
</g>
</svg>
