<svg width="139" height="128" viewBox="0 0 139 128" fill="none" xmlns="http://www.w3.org/2000/svg">
<path fill-rule="evenodd" clip-rule="evenodd" d="M83.1772 45.5805L82.6688 45.482L83.5948 45.8867C83.7025 45.7397 83.8118 45.5906 83.9223 45.4398C85.0259 43.9334 86.2584 42.2512 87.3889 40.7871C88.5051 39.3416 89.486 38.1569 90.1345 37.5512C90.0987 37.6927 90.0517 37.8567 89.992 38.0453C89.5072 39.5765 88.2758 42.4472 85.9636 47.2157L86.826 47.7747C88.2466 46.0834 89.6189 44.6297 90.6823 43.697C91.2196 43.2258 91.6503 42.9124 91.9528 42.7602C91.9662 42.7534 91.9791 42.7471 91.9915 42.7413C91.9729 42.8839 91.9285 43.0788 91.8474 43.3348C91.6602 43.9251 91.3015 44.7655 90.7271 45.9013C89.5805 48.1687 87.6083 51.5475 84.5411 56.337L84.557 56.9189L84.9772 56.6162C84.557 56.9189 84.5569 56.9187 84.557 56.9189L84.5693 56.936L84.6065 56.9879C84.6394 57.034 84.6884 57.1026 84.7524 57.1926C84.8803 57.3726 85.0679 57.638 85.3063 57.9788C85.7832 58.6604 86.4631 59.6435 87.2744 60.848C88.8973 63.2577 91.044 66.551 93.1416 70.0886C95.2407 73.6287 97.2833 77.4012 98.7036 80.7717C99.4138 82.457 99.9634 84.0303 100.288 85.416C100.615 86.8099 100.704 87.9724 100.531 88.8549C100.364 89.708 99.8014 90.6609 98.8672 91.6896C97.939 92.7117 96.6809 93.7689 95.1924 94.8324C92.216 96.959 88.3749 99.0707 84.5591 100.942C80.7468 102.812 76.9765 104.433 74.1505 105.581C72.7378 106.155 71.5627 106.609 70.7381 106.917C70.3254 107.071 70.0026 107.188 69.7826 107.263C69.6719 107.301 69.5915 107.328 69.5404 107.343C69.528 107.347 69.5184 107.35 69.5114 107.352C69.504 107.354 69.5015 107.355 69.5026 107.354C69.5033 107.354 69.5064 107.353 69.5113 107.352C69.5156 107.352 69.5254 107.35 69.5387 107.348C69.5488 107.347 69.5781 107.343 69.6166 107.345C69.6362 107.346 69.6845 107.352 69.7125 107.358C69.7539 107.37 69.8543 107.414 69.9097 107.452L69.2771 108.272C69.333 108.309 69.4341 108.355 69.4765 108.366C69.5055 108.372 69.555 108.379 69.576 108.38C69.6173 108.381 69.6504 108.378 69.6651 108.376C69.6975 108.372 69.7251 108.366 69.7396 108.362C69.7721 108.355 69.808 108.344 69.8413 108.334C69.9106 108.313 70.0051 108.282 70.12 108.242C70.3514 108.163 70.6832 108.043 71.1002 107.887C71.935 107.576 73.1194 107.118 74.5403 106.54C77.3817 105.386 81.1752 103.755 85.0151 101.872C88.8515 99.9905 92.7507 97.8498 95.7945 95.6751C97.3161 94.588 98.6381 93.4824 99.6339 92.3859C100.624 91.296 101.329 90.1744 101.548 89.0536C101.761 87.9623 101.637 86.6339 101.297 85.1797C100.954 83.7176 100.381 82.0859 99.658 80.3695C98.2113 76.9364 96.1418 73.1178 94.0325 69.5603C91.9216 66.0004 89.7633 62.6895 88.1334 60.2695C87.3183 59.0592 86.6348 58.071 86.1549 57.3851C85.9183 57.0468 85.7311 56.782 85.602 56.6003C88.5689 51.9556 90.5053 48.635 91.6513 46.3687C92.2353 45.2139 92.6227 44.3162 92.8346 43.6478C92.9403 43.3146 93.0086 43.0194 93.0303 42.7669C93.0508 42.5294 93.0378 42.2499 92.8938 42.0149C92.72 41.7313 92.4322 41.6277 92.1644 41.6354C91.929 41.6422 91.6941 41.7309 91.4872 41.835C91.064 42.048 90.5535 42.4324 89.9994 42.9184C89.5254 43.3341 88.9991 43.8425 88.4407 44.4206C89.7918 41.5155 90.597 39.5658 90.9794 38.3579C91.1075 37.9532 91.1939 37.6145 91.2352 37.3414C91.2719 37.0987 91.2921 36.8017 91.1785 36.557C91.1103 36.4102 90.9866 36.268 90.7954 36.1976C90.619 36.1326 90.4521 36.1537 90.3347 36.186C90.1133 36.2469 89.8988 36.3946 89.7168 36.5415C88.9709 37.1434 87.8071 38.5509 86.5692 40.1542C85.7647 41.196 84.9097 42.3465 84.0885 43.4625C84.1996 42.8198 84.3201 42.0935 84.4308 41.3643C84.595 40.2825 84.7397 39.1821 84.799 38.3365C84.8285 37.9175 84.8387 37.5383 84.8142 37.2483C84.8023 37.1071 84.7798 36.954 84.7308 36.819C84.693 36.7149 84.5743 36.4407 84.2584 36.3669C84.0394 36.3157 83.866 36.4045 83.7888 36.453C83.7024 36.5072 83.6328 36.5756 83.5817 36.6317C83.4772 36.7467 83.3699 36.9006 83.2644 37.0674C83.0498 37.4068 82.787 37.8891 82.4925 38.4524C82.2693 38.8793 82.0268 39.3546 81.7679 39.8618C81.3325 40.7151 80.851 41.6588 80.3372 42.6154C79.521 44.1352 78.6491 45.6378 77.8116 46.7585C77.3923 47.3197 76.9954 47.7662 76.6326 48.0691C76.2595 48.3807 75.9843 48.4886 75.8009 48.4919C75.2556 48.5017 74.7557 48.2626 74.2669 47.8346C73.7731 47.4023 73.3311 46.8125 72.9107 46.1968C72.8057 46.043 72.7004 45.8848 72.5955 45.7271C72.2992 45.2821 72.0058 44.8415 71.7306 44.5162C71.5421 44.2933 71.3233 44.0755 71.0723 43.9398C70.8002 43.7927 70.468 43.7334 70.1273 43.8831C69.8569 44.0019 69.7266 44.2411 69.6631 44.4264C69.5979 44.6168 69.5725 44.835 69.5659 45.052C69.5525 45.4901 69.6135 46.0513 69.7168 46.6711C69.9247 47.9187 70.3236 49.5128 70.7583 51.0718C71.194 52.6347 71.6701 54.1781 72.0369 55.3296C72.2203 55.9057 72.3767 56.3844 72.4872 56.7192C72.5424 56.8866 72.5863 57.0181 72.6163 57.1079C72.6313 57.1528 72.6429 57.1873 72.6508 57.2106L72.6626 57.2457L72.6628 57.2461C72.6628 57.2463 72.6628 57.2463 73.1533 57.0802L72.6628 57.2461L72.6844 57.3L85.2501 84.0945L68.8246 91.3574L69.2434 92.3046L86.1532 84.8276L86.4126 84.1341L73.6346 56.8868L73.6323 56.88C73.6246 56.8573 73.6132 56.8234 73.5984 56.7792C73.5688 56.6907 73.5254 56.5605 73.4707 56.3946C73.3611 56.0626 73.2059 55.5874 73.0237 55.0153C72.6591 53.8705 72.1871 52.3402 71.7559 50.7937C71.3237 49.2434 70.9369 47.6923 70.7384 46.5009C70.6384 45.9012 70.5909 45.4193 70.6011 45.0836C70.6037 44.9965 70.6101 44.9275 70.618 44.8741C70.6961 44.926 70.8026 45.0228 70.9399 45.1851C71.1738 45.4616 71.416 45.8252 71.6982 46.249C71.8103 46.4173 71.9287 46.5951 72.0554 46.7807C72.4823 47.406 72.9857 48.0895 73.5847 48.6139C74.1886 49.1426 74.9287 49.5434 75.8195 49.5274C76.3543 49.5178 76.8564 49.2316 77.2964 48.8641C77.7468 48.488 78.199 47.9703 78.6413 47.3785C79.5271 46.1931 80.4287 44.634 81.2496 43.1054C81.7662 42.1437 82.261 41.1742 82.7013 40.3114C82.9584 39.8078 83.1968 39.3405 83.4103 38.9323C83.5382 38.6876 83.6569 38.4646 83.7658 38.266C83.7094 39.0684 83.57 40.1344 83.4068 41.2088C83.244 42.2811 83.0595 43.3496 82.9155 44.1508C82.8435 44.5513 82.7818 44.8844 82.7381 45.1174C82.7162 45.2338 82.6988 45.3252 82.687 45.3873L82.6734 45.4581L82.6688 45.482C82.6688 45.482 82.6688 45.482 83.1772 45.5805ZM70.6506 44.7428C70.6506 44.7427 70.6501 44.7436 70.6492 44.7456C70.6502 44.7439 70.6506 44.7429 70.6506 44.7428Z" fill="#001A39"/>
<path d="M67.3241 105.823L51.6206 123.598C49.6718 125.802 46.3068 126.007 44.1023 124.058C43.6683 123.674 43.3011 123.222 43.0128 122.722L29.7006 99.5254C28.2403 96.9714 29.1231 93.7185 31.6776 92.2552C32.7721 91.6268 34.0575 91.4093 35.2973 91.6428L64.3121 97.0707C67.2019 97.6159 69.1041 100.4 68.5584 103.292C68.3811 104.232 67.9562 105.106 67.3241 105.823Z" fill="#F96155"/>
<path d="M52.0757 99.5486L54.9351 87.9727C54.9351 87.9727 61.2786 87.5493 61.9284 83.4217C62.5782 79.2941 58.0777 79.3282 58.0777 79.3282C58.0777 79.3282 58.4568 73.4439 53.1264 70.6847C47.796 67.9256 41.2762 74.3801 39.8014 78.9305C37.6154 85.6494 40.9508 87.0888 48.0454 88.4088L45.8651 95.9631" fill="#FBC73B"/>
<path d="M60.7924 80.1495C60.7924 80.1495 64.9499 75.0522 58.8039 69.2806C52.658 63.5091 49.9911 65.3087 48.1627 62.3296C46.3343 59.3504 38.6421 66.0478 45.6627 72.014C52.6833 77.9801 52.7517 77.3322 52.7517 77.3322C52.7517 77.3322 50.6114 80.8784 52.7507 81.9293C54.89 82.9802 57.8675 79.8026 57.8675 79.8026" fill="#001A39"/>
<path fill-rule="evenodd" clip-rule="evenodd" d="M41.5719 79.2233L44.0325 76.6306L44.6764 77.2417L42.2159 79.8344L41.5719 79.2233Z" fill="#001A39"/>
<path fill-rule="evenodd" clip-rule="evenodd" d="M47.0561 77.3785C47.4265 77.4331 47.7707 77.1773 47.8252 76.8071C47.8797 76.4369 47.6238 76.0925 47.2535 76.038C46.8833 75.9835 46.5391 76.2394 46.4845 76.6097C46.43 76.9799 46.6858 77.324 47.0561 77.3785ZM48.1179 76.8502C48.0396 77.3822 47.5449 77.7496 47.013 77.6713C46.481 77.5929 46.1134 77.0985 46.1918 76.5666C46.2701 76.0346 46.7647 75.6669 47.2966 75.7452C47.8286 75.8236 48.1963 76.3183 48.1179 76.8502Z" fill="#001A39"/>
<path fill-rule="evenodd" clip-rule="evenodd" d="M43.4462 75.1213C43.8165 75.1758 44.1608 74.9198 44.2154 74.5496C44.2699 74.1793 44.0139 73.835 43.6437 73.7804C43.2734 73.7259 42.9291 73.9819 42.8745 74.3521C42.82 74.7224 43.076 75.0667 43.4462 75.1213ZM44.5081 74.5927C44.4298 75.1246 43.935 75.4923 43.4031 75.414C42.8712 75.3357 42.5034 74.8409 42.5818 74.309C42.6601 73.7771 43.1549 73.4093 43.6868 73.4877C44.2187 73.566 44.5864 74.0608 44.5081 74.5927Z" fill="#001A39"/>
<path fill-rule="evenodd" clip-rule="evenodd" d="M124.363 81.9L134.283 89.6862L132.456 92.0139L122.536 84.2277L124.363 81.9Z" fill="#FBC73B"/>
<path fill-rule="evenodd" clip-rule="evenodd" d="M125.439 69.1401L136.971 68.0174L137.257 70.9626L125.726 72.0853L125.439 69.1401Z" fill="#FBC73B"/>
<path fill-rule="evenodd" clip-rule="evenodd" d="M115.111 88.6318L115.974 98.2504L113.027 98.515L112.163 88.8963L115.111 88.6318Z" fill="#FBC73B"/>
<path fill-rule="evenodd" clip-rule="evenodd" d="M24.5871 27.0958C24.467 27.1396 24.3695 27.2148 24.2967 27.2993C24.1207 27.5038 24.0592 27.7951 24.0284 28.0385C23.9937 28.3126 23.9845 28.662 23.9975 29.0863C24.0363 30.3528 24.2797 32.448 24.7881 35.6113C24.4083 34.903 24.0404 34.2704 23.6976 33.7412C23.297 33.1227 22.9105 32.6137 22.5613 32.2935C22.3906 32.1369 22.1888 31.9876 21.9642 31.9169C21.7086 31.8365 21.4035 31.8577 21.159 32.0833C20.9564 32.2701 20.8677 32.5355 20.8227 32.7696C20.7748 33.0184 20.7601 33.3211 20.771 33.6705C20.7928 34.3714 20.9208 35.3406 21.168 36.6109C21.6531 39.1037 22.6114 42.8263 24.2003 48.1037C24.0265 48.2434 23.7743 48.4471 23.4544 48.7081C22.8058 49.2373 21.8789 50.0018 20.7648 50.9442C18.5372 52.8285 15.5584 55.4259 12.5573 58.276C9.55832 61.124 6.52664 64.2341 4.19917 67.1431C3.03552 68.5975 2.03997 70.0113 1.31183 71.3248C0.58771 72.631 0.106714 73.8755 0.0145736 74.9836C-0.0800608 76.1217 0.292525 77.3929 0.94786 78.7113C1.60719 80.0377 2.5779 81.4617 3.74566 82.9223C6.08167 85.8441 9.24998 88.9663 12.4285 91.8219C15.6099 94.6801 18.8154 97.2834 21.2347 99.1682C22.4446 100.111 23.4592 100.875 24.1776 101.402C24.5364 101.665 24.823 101.871 25.0239 102.01C25.1236 102.08 25.206 102.136 25.2671 102.175C25.2963 102.194 25.328 102.213 25.3573 102.229C25.3702 102.237 25.3951 102.25 25.4252 102.263C25.4389 102.269 25.4697 102.281 25.5099 102.291C25.5304 102.295 25.5798 102.303 25.6092 102.305C25.6532 102.305 25.7629 102.289 25.8269 102.268L25.4417 101.307C25.5051 101.286 25.614 101.27 25.657 101.27C25.6855 101.273 25.7337 101.28 25.7528 101.284C25.7903 101.293 25.8175 101.304 25.8269 101.308C25.8393 101.313 25.8482 101.318 25.8521 101.32C25.8546 101.321 25.8566 101.322 25.8579 101.323L25.86 101.324L25.8602 101.324C25.8602 101.324 25.8577 101.323 25.8522 101.319C25.8459 101.315 25.8375 101.31 25.8266 101.303C25.7816 101.274 25.7115 101.227 25.6153 101.16C25.4243 101.027 25.1454 100.827 24.7903 100.567C24.0808 100.046 23.0741 99.2882 21.8712 98.3511C19.465 96.4766 16.2792 93.8891 13.1206 91.0515C9.9592 88.2112 6.83889 85.1327 4.55459 82.2755C3.4122 80.8467 2.48983 79.4866 1.87529 78.2503C1.25675 77.0059 0.974667 75.9357 1.04669 75.0695C1.12121 74.1733 1.52354 73.079 2.21764 71.8269C2.90772 70.5821 3.86528 69.2182 5.00786 67.7901C7.29286 64.9342 10.2862 61.8611 13.2705 59.027C16.2527 56.1949 19.2156 53.6112 21.4337 51.7349C22.5425 50.797 23.4646 50.0364 24.1092 49.5106C24.4314 49.2476 24.6843 49.0434 24.8564 48.9051C24.9424 48.8359 25.0083 48.7832 25.0525 48.7479L25.1025 48.7081L25.119 48.695C25.1191 48.6949 25.119 48.695 24.7972 48.2893L25.119 48.695L25.2928 48.1394C23.6468 42.6954 22.67 38.907 22.1846 36.413C21.9415 35.1636 21.8254 34.2574 21.8062 33.6383C21.7978 33.3699 21.8083 33.1703 21.8292 33.028C21.8395 33.037 21.8502 33.0466 21.8613 33.0568C22.1109 33.2856 22.4399 33.7046 22.8284 34.3043C23.5974 35.4915 24.5216 37.2642 25.4276 39.2785L26.4097 38.9757C25.5377 34.0581 25.13 31.0237 25.0447 29.3469C25.7339 32.0547 26.9076 34.6548 28.5534 37.0062C28.6563 37.2821 28.7578 37.5548 28.8575 37.8227L28.8577 37.8233C28.9229 37.9985 28.9874 38.1717 29.051 38.3425L29.5109 38.2795C30.4643 39.4613 31.5467 40.5676 32.7562 41.5782C33.1998 41.9489 33.6531 42.3004 34.115 42.6329C34.1753 42.7344 34.2368 42.8314 34.2997 42.9235C34.6229 43.397 35.028 43.8092 35.5399 43.9642C35.8305 44.0522 36.1174 44.0888 36.3981 44.0852C37.4214 44.6562 38.4757 45.1437 39.5517 45.5487C39.405 45.795 39.2556 46.0426 39.1047 46.2899C38.2685 47.6603 37.3973 49.0042 36.7345 50.0063C36.4033 50.5071 36.1245 50.922 35.9286 51.2115C35.8307 51.3563 35.7535 51.4697 35.7009 51.5468C35.6746 51.5853 35.6544 51.6148 35.6408 51.6345L35.6368 51.6405L15.9174 74.3746L15.978 75.1125L30.2104 86.9145L30.8715 86.1173L17.0467 74.6532L36.4383 52.297L36.4739 52.251L36.4742 52.2506L36.4951 52.2201C36.509 52.1998 36.5295 52.1698 36.5562 52.1307C36.6096 52.0525 36.6876 51.9379 36.7864 51.7919C36.984 51.4998 37.2648 51.0819 37.5984 50.5776C38.265 49.5696 39.1437 48.2144 39.9888 46.8294C40.1776 46.52 40.3651 46.2084 40.5486 45.8983M36.0471 51.9577L36.4739 52.251C36.4738 52.2511 36.4738 52.2512 36.0471 51.9577Z" fill="#001A39"/>
<path fill-rule="evenodd" clip-rule="evenodd" d="M117.711 79.9725C119.964 77.2761 119.605 73.2639 116.908 71.0111L69.8974 31.7328C73.2774 22.6505 70.7877 12.0399 62.9273 5.47248C52.957 -2.85785 38.1214 -1.52837 29.7911 8.44195C21.4608 18.4123 22.7902 33.2479 32.7606 41.5782C41.4462 48.8352 53.8241 48.7613 62.377 42.0303L90.243 65.3127L85.1203 71.4438L91.0244 76.3768L96.1471 70.2456L99.3262 72.9018L91.7371 81.985L97.6411 86.9179L105.23 77.8347L108.75 80.7755C111.446 83.0284 115.459 82.6688 117.711 79.9725ZM54.9588 15.0098C50.2558 11.0804 43.2578 11.7076 39.3284 16.4105C35.399 21.1135 36.0262 28.1114 40.7291 32.0408C45.4321 35.9702 52.43 35.3431 56.3594 30.6402C60.2888 25.9372 59.6617 18.9392 54.9588 15.0098Z" fill="#194D87"/>
</svg>
