<svg width="497" height="349" viewBox="0 0 497 349" fill="none" xmlns="http://www.w3.org/2000/svg">
<path d="M269.977 201L309.238 285.467L248.925 313.424L209.663 228.957L269.977 201Z" fill="#FDC4A0"/>
<path fill-rule="evenodd" clip-rule="evenodd" d="M95.8145 38.7388L102.88 60.7421L103.14 60.9269L103.697 60.1464C103.14 60.9269 103.14 60.9272 103.14 60.9275L103.142 60.9285L103.146 60.9317L103.161 60.9421C103.174 60.951 103.192 60.9635 103.215 60.9796C103.262 61.0117 103.329 61.058 103.418 61.1171C103.594 61.2353 103.853 61.4047 104.189 61.6145C104.862 62.034 105.844 62.6156 107.096 63.2729C109.6 64.5869 113.191 66.2076 117.551 67.4386C126.272 69.9012 138.111 70.8137 150.437 64.5389L149.565 62.8311C137.792 68.8245 126.48 67.9678 118.073 65.594C113.869 64.4068 110.403 62.8426 107.989 61.5761C106.784 60.9432 105.843 60.3858 105.207 59.9888C104.904 59.7999 104.67 59.6475 104.51 59.5406L99.2782 43.2476C99.57 43.3757 99.9005 43.5175 100.275 43.6742C102.829 44.7434 107.459 46.5214 115.79 49.3752C125.368 52.654 134.047 51.7749 140.317 50.083C143.453 49.2371 145.992 48.1864 147.752 47.3448C148.633 46.9238 149.319 46.5546 149.789 46.2884C150.024 46.1553 150.204 46.0479 150.328 45.9727C150.39 45.9351 150.438 45.9055 150.471 45.8847C150.488 45.8743 150.501 45.8661 150.51 45.8603L150.521 45.8532L150.524 45.851L150.525 45.8502C150.526 45.8499 150.526 45.8497 150.005 45.0451C149.483 44.2405 149.483 44.2403 149.484 44.2402L149.483 44.2405L149.478 44.2441C149.472 44.2476 149.463 44.2534 149.45 44.2614C149.425 44.2775 149.385 44.3022 149.331 44.335C149.223 44.4006 149.059 44.4981 148.841 44.6212C148.407 44.8674 147.76 45.2157 146.923 45.6159C145.249 46.4166 142.819 47.4223 139.817 48.2325C133.811 49.853 125.538 50.6856 116.412 47.5619C108.101 44.7148 103.516 42.9523 101.017 41.9063C99.7675 41.3833 99.048 41.0429 98.6493 40.8391C98.4503 40.7374 98.3355 40.6719 98.2771 40.6368C98.2596 40.6263 98.2476 40.6188 98.2405 40.6142L95.8145 38.7388Z" fill="#032349"/>
<path d="M182.196 136.233L137.781 172.566L137.013 243.845L81.1953 224.027C81.1953 224.027 88.816 217.629 104.998 222.141C104.998 222.141 94.2484 162.866 99.9265 151.541C105.605 140.216 163.707 79.611 190.17 90.4608C218.096 101.916 215.685 185.582 215.685 185.582L267.81 227.152L260.957 258.532L238.751 280.768C238.751 280.768 240.168 265.05 245.838 254.012C245.838 254.012 187.717 228.793 179.213 205.675C170.709 182.557 161.346 116.887 161.346 116.887" fill="#032349"/>
<path d="M196.275 56.6459L179.382 81.0943C176.211 85.6795 169.923 86.8297 165.331 83.663C163.745 82.5704 162.509 81.0484 161.761 79.2771L151.452 54.8288C149.287 49.6953 151.702 43.7797 156.843 41.6174C158.083 41.096 159.415 40.8276 160.762 40.8276H187.963C196.106 40.8276 200.901 49.9559 196.275 56.6459Z" fill="#22558E"/>
<path d="M148.949 77.5177L131.462 59.5447L108.016 54.4265L101.9 27.6167L73.7015 87.4856L80.2242 113.494L105.052 116.592L124.908 133.342L148.949 77.5177Z" fill="#F96155"/>
<path d="M80.2241 113.494L105.052 116.592L131.462 59.5445L108.016 54.4263L80.2241 113.494Z" fill="#032349"/>
<path d="M137.013 246.256C159.307 260.698 136.441 277.938 145.279 289.52C154.117 301.102 162.29 316.465 149.061 328.668C135.831 340.871 112.85 345.567 96.4639 344.559C62.8251 342.493 34.2387 318.769 30.2229 292.745C26.2071 266.721 39.9091 245.765 72.9874 238.166C106.066 230.568 122.129 236.61 137.013 246.256Z" fill="#FBC73B"/>
<path d="M371.329 316.246C344.323 316.246 322.43 294.384 322.43 267.415C322.43 240.446 344.323 218.583 371.329 218.583C398.335 218.583 420.229 240.446 420.229 267.415C420.229 294.384 398.335 316.246 371.329 316.246Z" fill="#FBC73B"/>
<path d="M371.329 218.004C384.252 217.981 394.806 207.687 395.132 194.787H347.511C347.837 207.691 358.399 217.989 371.329 218.004Z" fill="white"/>
<path fill-rule="evenodd" clip-rule="evenodd" d="M393.502 196.32C392.422 207.643 382.889 216.449 371.329 216.471C359.762 216.456 350.221 207.647 349.141 196.32H393.502ZM395.044 196.32C395.09 195.813 395.119 195.302 395.132 194.787H347.511C347.524 195.302 347.553 195.813 347.599 196.32C348.685 208.498 358.915 217.989 371.329 218.004C383.735 217.982 393.958 208.494 395.044 196.32Z" fill="#411525"/>
<path d="M417.999 331.754H496.199L457.097 248L417.999 331.754Z" fill="#22558E"/>
<path d="M184.085 42.9826L175.462 23.1655C175.462 23.1655 181.429 15.9082 177.647 11.0124C173.865 6.11662 169.32 11.0124 169.32 11.0124C169.32 11.0124 163.354 4.64446 154.965 7.59267C146.577 10.5409 146.2 21.8161 149.613 28.0192C154.65 37.1821 161.288 39.6203 169.911 33.3098L175.048 44.2786" fill="#FBC73B"/>
<path d="M172.963 8.92261C172.963 8.92261 171.681 -0.72336 159.219 0.0434055C146.757 0.810171 145.989 5.51429 140.91 4.45998C135.831 3.40568 135.239 18.5034 148.83 16.9699C162.421 15.4364 161.768 14.7308 161.768 14.7308C161.768 14.7308 163.419 20.6274 166.721 19.3891C170.022 18.1508 169.615 11.7214 169.615 11.7214" fill="#032349"/>
<path fill-rule="evenodd" clip-rule="evenodd" d="M92.0495 40.9126C89.3996 43.0663 86.9806 45.482 84.8239 48.1282L84.8203 48.1326L84.8168 48.137C83.848 49.3547 83.3469 51.2265 83.1073 53.1765C82.8629 55.1659 82.8726 57.4011 83.0464 59.4861C83.2199 61.5684 83.561 63.5465 84.0006 65.0202C84.2181 65.7494 84.4749 66.4078 84.7777 66.9006C84.9286 67.1463 85.1181 67.3961 85.3586 67.5899C85.6049 67.7885 85.9576 67.9679 86.3911 67.9431C87.2766 67.8923 87.6623 67.1175 87.8155 66.6928C87.9977 66.188 88.0914 65.5468 88.1404 64.8793C88.1913 64.1865 88.1985 63.3887 88.1766 62.5464C88.4027 63.1081 88.6341 63.6335 88.8667 64.0959C89.1561 64.6711 89.4762 65.2081 89.8259 65.598C90.1232 65.9293 90.727 66.4676 91.5291 66.2674C92.0149 66.1461 92.2926 65.7901 92.4381 65.5182C92.5853 65.2433 92.6691 64.928 92.7224 64.6312C92.8304 64.0303 92.8539 63.2592 92.8312 62.4213C92.8074 61.5389 92.7301 60.5234 92.6195 59.4512C92.7485 59.744 92.8775 60.0226 93.0057 60.2835C93.3262 60.935 93.6685 61.53 94.0257 61.9596C94.2033 62.1732 94.4225 62.3926 94.6867 62.5486C94.9601 62.71 95.3473 62.8384 95.7847 62.7283C96.2971 62.5994 96.5749 62.1981 96.7102 61.9511C96.8618 61.674 96.9686 61.3443 97.0498 61.0139C97.2142 60.3449 97.3229 59.464 97.3959 58.4799C97.5429 56.4991 97.5565 53.9272 97.5118 51.3981C97.4669 48.8628 97.3627 46.3451 97.2699 44.463C97.2235 43.5215 97.1799 42.7379 97.1479 42.1894C97.1318 41.9152 97.1187 41.6996 97.1096 41.5524C97.105 41.4788 97.1014 41.4223 97.099 41.384L97.0952 41.3257C97.0952 41.3255 97.0952 41.3254 96.1375 41.3877C95.1797 41.4501 95.1797 41.4501 95.1797 41.4502L95.1833 41.5058C95.1857 41.543 95.1892 41.5985 95.1937 41.671C95.2027 41.8161 95.2157 42.0293 95.2315 42.3011C95.2633 42.8447 95.3066 43.6224 95.3527 44.5572C95.4449 46.4279 95.5481 48.9239 95.5925 51.432C95.637 53.9463 95.6219 56.4475 95.4816 58.3383C95.4198 59.1714 95.3358 59.8534 95.2314 60.3541C95.0797 60.1145 94.911 59.8089 94.7287 59.4384C94.1369 58.2351 93.5031 56.5572 92.9156 54.8262C92.3309 53.1038 91.8036 51.3629 91.4217 50.0503C91.231 49.3946 91.077 48.8472 90.9708 48.4641C90.9177 48.2727 90.8766 48.1223 90.8489 48.0202C90.835 47.9691 90.8244 47.93 90.8174 47.9039L90.8071 47.8657C90.8071 47.8657 90.807 47.8653 90.5183 47.9422L90.807 47.8653L88.938 48.2975L89.8796 48.1123C88.938 48.2975 88.9379 48.2975 88.938 48.2975L88.947 48.3439C88.9531 48.375 88.9622 48.4215 88.9739 48.4822C88.9974 48.6038 89.0318 48.7826 89.0748 49.0107C89.161 49.4669 89.2821 50.1197 89.4216 50.9048C89.7008 52.4762 90.0527 54.5723 90.3456 56.6798C90.6396 58.795 90.8696 60.8908 90.9124 62.473C90.9266 62.9984 90.9193 63.4442 90.8919 63.8033C90.7953 63.6423 90.6916 63.4533 90.582 63.2354C90.0614 62.2004 89.5181 60.7438 89.0197 59.2288C88.5246 57.7234 88.0864 56.1994 87.7713 55.0488C87.614 54.4742 87.4878 53.9945 87.4011 53.6589C87.3578 53.4911 87.3243 53.3594 87.3018 53.2701C87.2905 53.2254 87.282 53.1913 87.2763 53.1685L87.2681 53.1354L85.3867 53.5052L85.3921 53.5417C85.3957 53.5665 85.4011 53.6037 85.4081 53.6523C85.4221 53.7496 85.4424 53.893 85.4676 54.0759C85.5181 54.4417 85.5881 54.9653 85.6659 55.5942C85.8217 56.8536 86.008 58.5287 86.1319 60.2029C86.2566 61.8876 86.3147 63.5295 86.226 64.7392C86.2082 64.9817 86.1851 65.1959 86.1581 65.3821C86.0543 65.1339 85.9469 64.8307 85.8403 64.473C85.4491 63.1617 85.1255 61.3212 84.9593 59.3271C84.7934 57.3359 84.7882 55.2369 85.0126 53.4099C85.2415 51.5468 85.6918 50.1218 86.3165 49.3335C88.3896 46.7906 90.7144 44.4692 93.2612 42.3993L92.0495 40.9126ZM85.9407 66.1935C85.941 66.1945 85.946 66.1883 85.955 66.1716C85.945 66.184 85.9405 66.1924 85.9407 66.1935ZM91.384 64.4391C91.3839 64.4382 91.3775 64.4332 91.3651 64.4266C91.3779 64.4367 91.3841 64.44 91.384 64.4391ZM95.009 61.0587C95.0091 61.0591 95.012 61.0553 95.0176 61.0459C95.0117 61.0536 95.0089 61.0583 95.009 61.0587Z" fill="#032349"/>
<path fill-rule="evenodd" clip-rule="evenodd" d="M200.59 57.0725C200.59 57.0721 200.59 57.0719 199.645 56.9031C198.701 56.7344 198.701 56.7343 198.701 56.7344L198.698 56.7509L198.688 56.8043C198.679 56.852 198.666 56.9236 198.648 57.0179C198.612 57.2063 198.558 57.4851 198.486 57.8437C198.342 58.561 198.126 59.5973 197.835 60.8682C197.255 63.4111 196.383 66.8874 195.214 70.6244C194.045 74.3642 192.586 78.3469 190.835 81.9095C189.077 85.4856 187.059 88.5688 184.803 90.5725C182.531 92.5897 179.027 94.4911 174.894 96.1793C170.778 97.861 166.106 99.3038 161.554 100.431C157.003 101.558 152.591 102.364 149 102.779C147.204 102.986 145.627 103.094 144.347 103.097C143.041 103.101 142.134 102.994 141.625 102.824C139.094 101.981 136.502 100.448 134.604 98.9663C133.654 98.2249 132.911 97.5218 132.445 96.954C132.404 96.9043 132.367 96.8568 132.332 96.8112C132.501 96.8322 132.694 96.8617 132.909 96.9003C133.977 97.0924 135.389 97.4703 136.82 97.8991C138.244 98.3256 139.656 98.7932 140.714 99.1549C141.243 99.3356 141.682 99.4894 141.989 99.598C142.142 99.6523 142.262 99.6952 142.343 99.7244C142.384 99.7391 142.415 99.7503 142.436 99.7578L142.467 99.7688L143.213 98.0054L143.182 98.0702C143.213 98.0054 143.213 98.0054 143.213 98.0054L143.213 98.0052L143.204 98.0011L143.176 97.9875C143.166 97.9826 143.154 97.9767 143.14 97.9698C143.119 97.9597 143.094 97.9474 143.065 97.9331C142.967 97.8851 142.822 97.8142 142.639 97.7229C142.271 97.5404 141.746 97.2768 141.119 96.9534C139.862 96.306 138.2 95.4224 136.567 94.4726C134.925 93.518 133.347 92.5163 132.239 91.6335C131.68 91.1878 131.288 90.8085 131.065 90.5126C131.028 90.4641 131 90.4228 130.978 90.3881C131.006 90.3797 131.041 90.3712 131.083 90.3628C131.383 90.3034 131.858 90.3085 132.514 90.411C133.809 90.6135 135.497 91.1422 137.211 91.7826C138.911 92.4179 140.586 93.1429 141.838 93.711C142.464 93.9946 142.982 94.2381 143.343 94.4104C143.524 94.4965 143.665 94.5648 143.761 94.6113C143.808 94.6346 143.845 94.6524 143.869 94.6643L143.896 94.6777L143.904 94.6816L143.905 94.6813L144.816 92.9962L144.815 92.9953L144.785 92.9782C144.765 92.966 144.734 92.9476 144.693 92.9235C144.611 92.8752 144.491 92.8039 144.338 92.7123C144.033 92.5291 143.596 92.265 143.073 91.9423C142.027 91.2962 140.642 90.4185 139.28 89.4877C137.911 88.552 136.593 87.5821 135.665 86.7502C135.21 86.3416 134.884 85.9984 134.693 85.7341C134.932 85.6922 135.286 85.6819 135.763 85.7234C136.844 85.8175 138.265 86.1483 139.718 86.5681C141.159 86.9842 142.581 87.4726 143.646 87.8585C144.177 88.0511 144.618 88.2174 144.925 88.3353C145.079 88.3943 145.199 88.4411 145.28 88.4729C145.321 88.4889 145.351 88.5011 145.372 88.5092L145.395 88.5183L145.4 88.5205L145.402 88.521L145.745 88.6584L170.049 79.6922L174.025 66.351L172.185 65.8041L168.483 78.2263L145.769 86.6059C145.722 86.5875 145.67 86.5676 145.614 86.5461C145.297 86.4245 144.845 86.2539 144.3 86.0565C143.213 85.6625 141.748 85.1588 140.251 84.7267C138.768 84.2982 137.202 83.9245 135.93 83.8138C135.301 83.759 134.67 83.7609 134.132 83.8943C133.596 84.0272 132.957 84.3486 132.705 85.0747L132.705 85.0751C132.574 85.4515 132.629 85.8108 132.719 86.0808C132.808 86.3506 132.955 86.6005 133.11 86.8201C133.422 87.2596 133.876 87.7218 134.383 88.1766C134.754 88.5095 135.175 88.8567 135.627 89.2093C134.631 88.8992 133.665 88.6507 132.811 88.5172C132.073 88.4017 131.337 88.3584 130.71 88.4825C130.071 88.6088 129.37 88.9549 129.079 89.7471L129.079 89.7477C128.795 90.5219 129.209 91.2386 129.531 91.6656C129.898 92.1524 130.437 92.6497 131.042 93.1315C131.864 93.7875 132.895 94.4824 133.989 95.162C133.731 95.1058 133.484 95.056 133.249 95.0137C132.668 94.9093 132.108 94.8409 131.651 94.8563C131.427 94.8639 131.162 94.893 130.912 94.9877C130.66 95.0835 130.302 95.2971 130.141 95.7381C129.953 96.254 130.108 96.7577 130.256 97.0872C130.418 97.4478 130.67 97.8146 130.96 98.1691C131.547 98.8836 132.407 99.6843 133.421 100.476C135.451 102.062 138.234 103.715 141.017 104.643C141.836 104.916 143.005 105.018 144.352 105.014C145.726 105.011 147.379 104.896 149.221 104.683C152.906 104.258 157.398 103.435 162.016 102.292C166.634 101.148 171.398 99.6786 175.621 97.9535C179.828 96.2352 183.566 94.2356 186.078 92.005C188.605 89.7607 190.755 86.4218 192.558 82.7541C194.367 79.0729 195.861 74.9902 197.047 71.1956C198.234 67.3982 199.119 63.8711 199.707 61.2942C200.001 60.0051 200.222 58.9524 200.368 58.2206C200.442 57.8547 200.497 57.569 200.534 57.3741C200.553 57.2766 200.566 57.2018 200.576 57.151L200.586 57.0929L200.59 57.0725ZM134.447 85.8074C134.448 85.8076 134.451 85.8059 134.456 85.8018C134.449 85.8052 134.447 85.8072 134.447 85.8074ZM130.855 90.4451C130.857 90.4456 130.862 90.4421 130.868 90.4332C130.857 90.4403 130.854 90.4447 130.855 90.4451ZM131.971 96.2026C131.971 96.2024 131.971 96.2055 131.973 96.2119C131.972 96.2059 131.971 96.2027 131.971 96.2026Z" fill="#032349"/>
<path fill-rule="evenodd" clip-rule="evenodd" d="M1.53574 286.534H27.8494V337.642H1.53574V286.534ZM7.05719e-05 285V339.176H29.385V285H7.05719e-05Z" fill="#411525"/>
<path fill-rule="evenodd" clip-rule="evenodd" d="M153.832 31.1833L153.528 25.9004L152.378 25.9662L152.682 31.2492L153.832 31.1833Z" fill="#032349"/>
<path d="M155.948 25.1356C155.153 25.1356 154.509 24.492 154.509 23.6982C154.509 22.9043 155.153 22.2607 155.948 22.2607C156.743 22.2607 157.388 22.9043 157.388 23.6982C157.388 24.492 156.743 25.1356 155.948 25.1356Z" fill="#032349"/>
<path d="M150.005 26.9871C149.21 26.9871 148.566 26.3436 148.566 25.5497C148.566 24.7559 149.21 24.1123 150.005 24.1123C150.8 24.1123 151.445 24.7559 151.445 25.5497C151.445 26.3436 150.8 26.9871 150.005 26.9871Z" fill="#032349"/>
<path d="M382.953 300.067C379.931 297.359 379.33 293.106 381.611 290.567C383.893 288.028 388.192 288.165 391.214 290.873C394.236 293.58 394.837 297.834 392.556 300.373C390.274 302.911 385.975 302.775 382.953 300.067Z" fill="white"/>
<path fill-rule="evenodd" clip-rule="evenodd" d="M364.238 252.862C363.676 254.05 363.517 255.281 364.074 256.419C365.475 259.274 368.863 260.708 372.78 261.377C376.748 262.055 381.531 261.995 386.11 261.626C390.698 261.256 395.126 260.573 398.404 259.983C399.014 259.873 399.584 259.766 400.109 259.665C398.567 260.781 396.629 262.253 394.724 263.889C392.642 265.677 390.571 267.684 389.102 269.656C387.668 271.579 386.65 273.673 387.073 275.564C387.404 277.051 388.843 278.099 390.628 278.873C392.468 279.671 394.941 280.292 397.792 280.781C403.505 281.759 410.907 282.228 418.212 282.42L418.252 280.887C410.968 280.696 403.653 280.228 398.052 279.269C395.246 278.789 392.913 278.192 391.239 277.466C389.51 276.716 388.728 275.934 388.572 275.231L388.572 275.23C388.309 274.054 388.927 272.458 390.334 270.571C391.704 268.733 393.677 266.81 395.725 265.052C397.767 263.298 399.855 261.731 401.435 260.601C402.225 260.037 402.886 259.582 403.349 259.27C403.58 259.113 403.762 258.992 403.885 258.911C403.947 258.87 403.994 258.839 404.026 258.819L404.061 258.796L404.07 258.79L404.072 258.788C404.072 258.788 404.072 258.788 404.07 258.785L404.072 258.788C404.385 258.586 404.507 258.188 404.361 257.845C404.215 257.502 403.844 257.313 403.48 257.398L403.655 258.145C403.48 257.398 403.48 257.398 403.48 257.398L403.479 257.398L403.457 257.403L403.386 257.42C403.323 257.434 403.229 257.455 403.105 257.483C402.858 257.538 402.493 257.618 402.027 257.716C401.094 257.912 399.754 258.181 398.131 258.473C394.883 259.058 390.508 259.733 385.986 260.097C381.455 260.462 376.821 260.511 373.038 259.865C369.204 259.21 366.505 257.887 365.454 255.745C365.169 255.164 365.187 254.445 365.627 253.517C366.071 252.578 366.911 251.512 368.109 250.347C370.499 248.023 374.148 245.467 378.312 242.932C386.625 237.87 396.819 232.991 402.624 230.325L401.983 228.932C396.166 231.603 385.905 236.512 377.512 241.623C373.322 244.174 369.554 246.801 367.038 249.248C365.782 250.469 364.796 251.685 364.238 252.862Z" fill="white"/>
<path fill-rule="evenodd" clip-rule="evenodd" d="M349.408 234.343C346.76 232.417 343.461 230.626 340.475 229.177L339.804 230.556C342.757 231.99 345.963 233.734 348.504 235.582C349.775 236.507 350.858 237.442 351.656 238.36C352.461 239.286 352.932 240.142 353.066 240.909C353.157 241.43 352.971 241.998 352.361 242.651C351.743 243.312 350.761 243.977 349.474 244.626C346.908 245.92 343.34 247.05 339.684 247.983C336.039 248.913 332.353 249.635 329.575 250.126C328.187 250.371 327.027 250.557 326.215 250.683C325.809 250.745 325.49 250.792 325.273 250.824C325.165 250.84 325.082 250.852 325.026 250.86L324.963 250.868L324.943 250.871C324.943 250.871 324.943 250.871 325.048 251.631C325.153 252.39 325.153 252.39 325.153 252.39L325.176 252.387L325.241 252.378C325.299 252.37 325.384 252.358 325.495 252.342C325.716 252.309 326.039 252.261 326.449 252.198C327.271 252.071 328.441 251.883 329.842 251.636C332.642 251.142 336.369 250.412 340.064 249.469C343.749 248.529 347.447 247.366 350.166 245.995C351.522 245.311 352.687 244.55 353.484 243.698C354.287 242.838 354.781 241.806 354.579 240.646L354.579 240.646C354.377 239.492 353.712 238.385 352.816 237.355C351.914 236.318 350.732 235.306 349.408 234.343Z" fill="white"/>
<path d="M112.253 315.15C110.984 311.98 114.385 307.643 119.848 305.462C125.312 303.281 130.77 304.082 132.039 307.252C133.307 310.421 129.907 314.759 124.443 316.94C118.979 319.121 113.521 318.319 112.253 315.15Z" fill="#F96155"/>
<path fill-rule="evenodd" clip-rule="evenodd" d="M33.0847 321.745C33.0844 321.746 33.0843 321.746 33.5863 322.028C34.0883 322.31 34.0884 322.309 34.0886 322.309L34.132 322.232C34.1424 322.214 34.1546 322.192 34.1686 322.168C34.2221 322.074 34.3019 321.934 34.4066 321.751C34.6161 321.387 34.9255 320.852 35.3246 320.172C36.1227 318.813 37.2792 316.877 38.7114 314.569C41.5766 309.952 45.542 303.853 49.9474 297.918C54.3572 291.976 59.1887 286.224 63.7841 282.283C66.0825 280.312 68.2975 278.815 70.3499 277.966C72.4007 277.118 74.2387 276.937 75.8322 277.513C77.4495 278.098 78.8227 279.355 79.9891 281.185C81.1565 283.015 82.0946 285.386 82.8493 288.129C84.3588 293.618 85.1058 300.49 85.5488 307.26C85.77 310.641 85.9149 313.988 86.0423 317.114C86.0589 317.523 86.0753 317.927 86.0914 318.328C86.199 320.992 86.2992 323.473 86.4304 325.641C86.5811 328.129 86.7742 330.235 87.0738 331.743C87.2227 332.493 87.4051 333.135 87.642 333.61C87.8661 334.06 88.2236 334.527 88.8 334.598C89.4933 334.684 90.1872 334.508 90.8528 334.192C91.5183 333.877 92.1888 333.406 92.8524 332.854C94.0836 331.83 95.3646 330.461 96.6172 329.122C96.7106 329.022 96.8038 328.922 96.8968 328.823C98.2554 327.373 99.5733 325.992 100.815 325.05C102.084 324.087 103.101 323.718 103.908 323.959C105.449 324.419 107.03 326.063 108.552 328.475C110.052 330.853 111.415 333.848 112.569 336.802C113.72 339.751 114.654 342.637 115.301 344.788C115.624 345.863 115.875 346.753 116.045 347.374C116.13 347.684 116.195 347.927 116.238 348.092C116.26 348.175 116.277 348.238 116.287 348.28L116.3 348.327L116.303 348.342L116.303 348.343C116.304 348.343 116.304 348.343 116.862 348.201C117.42 348.06 117.42 348.06 117.42 348.06L117.416 348.043L117.403 347.993C117.391 347.949 117.375 347.884 117.352 347.8C117.308 347.632 117.242 347.385 117.156 347.071C116.984 346.442 116.73 345.543 116.404 344.458C115.752 342.288 114.808 339.37 113.642 336.384C112.477 333.401 111.083 330.329 109.526 327.862C107.99 325.428 106.215 323.448 104.239 322.857C102.854 322.444 101.423 323.144 100.118 324.134C98.785 325.145 97.4004 326.602 96.0557 328.037C95.9672 328.132 95.8788 328.226 95.7907 328.321C94.5217 329.677 93.2884 330.995 92.1152 331.971C91.49 332.491 90.9032 332.895 90.359 333.153C89.8164 333.41 89.3491 333.506 88.9443 333.457C88.9365 333.454 88.8308 333.414 88.6733 333.098C88.5045 332.759 88.3458 332.236 88.2035 331.519C87.9205 330.094 87.7306 328.057 87.5801 325.572C87.4496 323.417 87.3499 320.948 87.2423 318.283C87.2261 317.882 87.2098 317.477 87.1931 317.068C87.0657 313.94 86.9203 310.581 86.6981 307.185C86.2542 300.4 85.502 293.431 83.9599 287.825C83.1887 285.021 82.2129 282.531 80.9606 280.567C79.7075 278.602 78.1555 277.13 76.2244 276.432C74.2696 275.725 72.12 275.989 69.9093 276.903C67.7001 277.817 65.3796 279.398 63.0337 281.41C58.3406 285.436 53.4487 291.269 49.0221 297.233C44.5912 303.203 40.6074 309.33 37.7324 313.963C36.2946 316.28 35.1333 318.225 34.3311 319.59C33.93 320.273 33.6187 320.811 33.4075 321.179C33.3018 321.363 33.2212 321.505 33.167 321.6C33.1398 321.648 33.1192 321.684 33.1054 321.709L33.0857 321.743L33.0847 321.745Z" fill="#F96155"/>
<path fill-rule="evenodd" clip-rule="evenodd" d="M97.0442 212.343C97.0443 212.342 97.0443 212.342 96.4794 212.231C95.9144 212.119 95.9144 212.12 95.9143 212.12L95.907 212.157L95.8854 212.268C95.8664 212.365 95.8384 212.509 95.8023 212.697C95.73 213.073 95.6252 213.625 95.4947 214.328C95.2337 215.734 94.87 217.745 94.4588 220.168C93.6365 225.013 92.6237 231.508 91.8632 238.101C91.1033 244.688 90.5924 251.397 90.7809 256.662C90.8751 259.291 91.1445 261.593 91.6599 263.35C92.1649 265.071 92.9581 266.445 94.2368 266.929L94.2372 266.929C95.8918 267.554 97.9487 266.987 99.9644 265.984C102.015 264.963 104.184 263.409 106.152 261.807C108.124 260.202 109.915 258.532 111.212 257.265C111.27 257.209 111.326 257.154 111.382 257.099C111.156 257.717 110.901 258.43 110.629 259.22C109.644 262.073 108.423 265.944 107.479 270.004C106.536 274.056 105.863 278.331 105.993 281.982C106.122 285.601 107.049 288.79 109.509 290.421C110.721 291.225 112.268 290.97 113.855 290.211C115.466 289.441 117.295 288.073 119.233 286.329C123.116 282.833 127.558 277.714 131.744 272.461C135.934 267.203 139.884 261.79 142.786 257.693C144.238 255.644 145.427 253.923 146.255 252.715C146.668 252.11 146.991 251.634 147.211 251.308C147.321 251.145 147.405 251.02 147.461 250.936L147.526 250.84L147.547 250.808C147.547 250.807 147.547 250.807 147.068 250.488C146.589 250.17 146.589 250.17 146.588 250.17L146.587 250.172L146.568 250.201L146.504 250.296C146.448 250.38 146.365 250.504 146.256 250.666C146.037 250.989 145.716 251.464 145.304 252.066C144.479 253.27 143.293 254.986 141.846 257.029C138.951 261.116 135.014 266.51 130.842 271.745C126.666 276.985 122.272 282.044 118.462 285.474C116.553 287.193 114.821 288.474 113.358 289.174C111.871 289.884 110.832 289.918 110.147 289.464C108.175 288.156 107.27 285.474 107.144 281.941C107.019 278.439 107.667 274.279 108.601 270.264C109.532 266.256 110.741 262.426 111.717 259.595C112.206 258.181 112.635 257.017 112.942 256.208C113.096 255.804 113.219 255.488 113.303 255.274C113.346 255.167 113.378 255.085 113.4 255.031L113.425 254.969L113.433 254.949C113.433 254.949 113.433 254.949 112.9 254.733L113.433 254.949L114.618 252.037L112.477 254.342L112.52 254.381C112.477 254.342 112.477 254.342 112.477 254.342L112.477 254.342L112.475 254.344L112.469 254.351L112.442 254.379C112.419 254.404 112.383 254.442 112.336 254.492C112.242 254.591 112.103 254.736 111.924 254.921C111.566 255.291 111.047 255.817 110.407 256.443C109.125 257.695 107.361 259.339 105.424 260.916C103.483 262.495 101.39 263.989 99.4506 264.954C97.4758 265.937 95.8135 266.295 94.6444 265.853C93.9067 265.574 93.2513 264.683 92.7652 263.026C92.2893 261.404 92.0248 259.212 91.9319 256.621C91.7465 251.444 92.2494 244.804 93.0074 238.232C93.7648 231.667 94.774 225.194 95.5943 220.36C96.0044 217.944 96.3671 215.939 96.6272 214.538C96.7572 213.837 96.8616 213.288 96.9334 212.914C96.9693 212.727 96.9971 212.584 97.0159 212.487L97.0372 212.379L97.0442 212.343Z" fill="#F96155"/>
<path fill-rule="evenodd" clip-rule="evenodd" d="M150.41 285.336C150.41 285.336 150.41 285.336 149.873 285.178C149.337 285.02 149.337 285.021 149.336 285.021L149.336 285.022L149.333 285.026L149.323 285.041C149.314 285.054 149.301 285.073 149.284 285.098C149.251 285.148 149.202 285.222 149.14 285.319C149.016 285.513 148.838 285.798 148.622 286.168C148.188 286.907 147.598 287.985 146.969 289.341C145.711 292.054 144.295 295.889 143.66 300.376C142.391 309.351 144.248 320.965 156.796 331.435L157.723 330.962C145.418 320.694 143.581 309.298 144.832 300.447C145.458 296.022 146.855 292.239 148.096 289.564C148.716 288.226 149.296 287.166 149.721 286.442C149.933 286.08 150.107 285.802 150.226 285.615C150.286 285.522 150.333 285.451 150.364 285.404C150.379 285.381 150.391 285.363 150.399 285.352L150.408 285.339L150.409 285.336L150.41 285.336Z" fill="#F96155"/>
<path fill-rule="evenodd" clip-rule="evenodd" d="M72.4422 231.946C72.4422 231.946 72.4421 231.946 71.8818 232.079C71.3215 232.211 71.3215 232.211 71.3215 232.211L71.3219 232.213L71.3237 232.221L71.3312 232.253C71.3379 232.283 71.3479 232.327 71.3607 232.386C71.3864 232.504 71.4234 232.68 71.4679 232.909C71.5571 233.366 71.6763 234.031 71.7956 234.862C72.0341 236.524 72.2717 238.841 72.2681 241.459C72.261 246.714 71.282 253.082 67.4962 257.829C58.6564 268.913 45.6783 271.645 34.8196 271.578C29.3964 271.545 24.5267 270.812 21.0118 270.087C19.2551 269.725 17.8389 269.365 16.8636 269.096C16.3759 268.961 15.9987 268.85 15.7444 268.772C15.6172 268.733 15.5208 268.703 15.4567 268.683C15.4246 268.672 15.4006 268.665 15.3849 268.659L15.3676 268.654L15.3637 268.652L15.3629 268.652C15.3628 268.652 15.3629 268.652 15.3051 268.826L15.1811 269.198C14.9993 269.744 14.9996 269.744 15.0001 269.744L15.0017 269.744L15.0072 269.746L15.0278 269.753C15.0457 269.759 15.0718 269.767 15.1061 269.778C15.1747 269.8 15.2757 269.832 15.4076 269.872C15.6714 269.953 16.0588 270.067 16.5571 270.204C17.5536 270.479 18.9945 270.845 20.7788 271.213C24.3458 271.949 29.2936 272.694 34.8125 272.728C45.8381 272.796 59.2427 270.024 68.3971 258.545C72.424 253.496 73.4126 246.811 73.4199 241.46C73.4235 238.775 73.18 236.401 72.9357 234.699C72.8134 233.847 72.6908 233.162 72.5984 232.689C72.5522 232.452 72.5135 232.268 72.4862 232.142C72.4726 232.079 72.4617 232.031 72.4542 231.998L72.4455 231.96L72.4431 231.95L72.4422 231.946Z" fill="#F96155"/>
<path fill-rule="evenodd" clip-rule="evenodd" d="M167.928 162.034L163.206 128.848L162.066 129.01L166.788 162.196L167.928 162.034Z" fill="white"/>
<path fill-rule="evenodd" clip-rule="evenodd" d="M187.915 90.1054C187.915 90.1046 187.916 90.1039 187.134 89.5483C186.352 88.9928 186.352 88.9921 186.352 88.9914L186.353 88.9903L186.354 88.9887C186.355 88.9878 186.355 88.9876 186.355 88.9879L186.349 88.9965C186.341 89.0066 186.326 89.0255 186.304 89.0527C186.261 89.1071 186.187 89.1949 186.08 89.3126C185.865 89.548 185.516 89.9036 184.997 90.3523C183.961 91.2494 182.249 92.5209 179.592 93.9479C174.278 96.8025 165.186 100.28 150.183 102.625L150.48 104.519C165.648 102.149 174.957 98.6145 180.502 95.636C183.274 94.1465 185.105 92.7961 186.255 91.8006C186.83 91.303 187.234 90.8945 187.5 90.6024C187.633 90.4564 187.731 90.3395 187.799 90.2553C187.833 90.2132 187.86 90.1792 187.879 90.1538C187.888 90.1411 187.896 90.1306 187.902 90.1222L187.91 90.1114L187.913 90.1072L187.915 90.1054Z" fill="white"/>
<path fill-rule="evenodd" clip-rule="evenodd" d="M360.273 277.277C363.585 277.617 366.705 278.836 368.523 281.629C369.354 282.904 369.502 284.974 369.007 287.69C368.52 290.368 367.443 293.501 366.048 296.747C363.26 303.235 359.264 310.047 356.433 314.335L357.715 315.179C360.579 310.841 364.625 303.947 367.459 297.352C368.875 294.057 370.002 290.804 370.518 287.964C371.028 285.164 370.977 282.585 369.811 280.793C367.636 277.452 363.974 276.115 360.43 275.752C356.881 275.388 353.314 275.981 351.096 276.643L351.078 276.648L351.062 276.654C348.484 277.554 339.973 280.729 326.454 286.252L327.035 287.672C340.513 282.165 348.989 279.003 351.552 278.107C353.622 277.492 356.975 276.939 360.273 277.277Z" fill="white"/>
</svg>
