<svg width="709" height="540" viewBox="0 0 709 540" fill="none" xmlns="http://www.w3.org/2000/svg">
<path d="M604.97 257.418L653.042 231.212L708.277 320.004L640.092 263.888L604.137 283.289" fill="#F96155"/>
<path fill-rule="evenodd" clip-rule="evenodd" d="M650.012 283.798L652.996 262.06L650.767 261.535L647.783 283.274L650.012 283.798Z" fill="white"/>
<path fill-rule="evenodd" clip-rule="evenodd" d="M658.955 291.73L661.939 269.991L659.709 269.467L656.725 291.206L658.955 291.73Z" fill="white"/>
<path fill-rule="evenodd" clip-rule="evenodd" d="M668.118 299.536L670.778 277.738L668.439 277.524L665.779 299.323L668.118 299.536Z" fill="white"/>
<path d="M521.463 287.484L517.994 266.183C512.515 232.565 476.676 213.153 446.269 227.337C431.755 234.107 418.75 243.722 408.004 255.634L344.667 325.806C329.192 342.949 330.041 369.551 346.594 386.145L447.956 487.762L500.345 430.782L414.86 347.659L442.205 317.955L447.897 345.383C453.437 374.517 485.372 390.252 511.156 376.552L632.285 312.21C632.285 312.21 637.669 296.796 625.104 274.263C611.272 249.449 597.781 248.483 597.781 248.483L521.463 287.484Z" fill="#153B67"/>
<path fill-rule="evenodd" clip-rule="evenodd" d="M444.31 328.349L436.972 281.069L435.194 281.227L442.533 328.506L444.31 328.349Z" fill="white"/>
<path d="M446.077 486.302C440.982 481.498 448.799 464.933 463.537 449.302C478.275 433.671 494.353 424.893 499.448 429.697C504.543 434.501 496.725 451.067 481.987 466.698C467.249 482.329 451.172 491.106 446.077 486.302Z" fill="#001A39"/>
<path d="M491.639 431.984L537.266 462.349L454.556 523.239L496.501 462.971L473.696 447.619" fill="#F96155"/>
<path d="M449.304 532.672C446.109 528.625 463.467 509.594 488.076 490.166C512.684 470.737 535.223 458.268 538.419 462.315C541.614 466.362 524.255 485.393 499.647 504.822C475.038 524.25 452.499 536.719 449.304 532.672Z" fill="#001A39"/>
<path fill-rule="evenodd" clip-rule="evenodd" d="M476.448 477.982L494.947 473.729L494.603 471.623L476.104 475.877L476.448 477.982Z" fill="white"/>
<path fill-rule="evenodd" clip-rule="evenodd" d="M468.516 486.928L490.158 480.858L489.943 478.676L468.3 484.746L468.516 486.928Z" fill="white"/>
<path fill-rule="evenodd" clip-rule="evenodd" d="M620.426 303.94L604.736 296.841L604.172 298.47L619.862 305.569L620.426 303.94Z" fill="white"/>
<path fill-rule="evenodd" clip-rule="evenodd" d="M607.195 277.959L607.204 265.922L605.414 265.891L605.405 277.929L607.195 277.959Z" fill="white"/>
<path fill-rule="evenodd" clip-rule="evenodd" d="M579.171 292.971L566.762 283.844L566.075 285.41L578.483 294.538L579.171 292.971Z" fill="white"/>
<path fill-rule="evenodd" clip-rule="evenodd" d="M578.557 322.154L589.286 318.858L588.999 317.556L578.27 320.853L578.557 322.154Z" fill="white"/>
<path fill-rule="evenodd" clip-rule="evenodd" d="M553.691 321.948L555.484 304.874L553.784 304.432L551.991 321.507L553.691 321.948Z" fill="white"/>
<path fill-rule="evenodd" clip-rule="evenodd" d="M554.96 277.56L556.831 269.403L554.503 269.094L552.632 277.251L554.96 277.56Z" fill="white"/>
<path fill-rule="evenodd" clip-rule="evenodd" d="M530.673 292.145L538.162 300.355L539.13 299.233L531.641 291.024L530.673 292.145Z" fill="white"/>
<path fill-rule="evenodd" clip-rule="evenodd" d="M527.072 323.717L517.628 312.209L516.67 313.262L526.115 324.77L527.072 323.717Z" fill="white"/>
<path fill-rule="evenodd" clip-rule="evenodd" d="M535.094 337.604L544.993 344.431L546.833 342.814L536.934 335.987L535.094 337.604Z" fill="white"/>
<path fill-rule="evenodd" clip-rule="evenodd" d="M467.671 362.881L478.761 345.887L476.981 344.409L465.892 361.403L467.671 362.881Z" fill="white"/>
<path fill-rule="evenodd" clip-rule="evenodd" d="M494.162 357.442L505.982 358.223L506.79 356.631L494.971 355.849L494.162 357.442Z" fill="white"/>
<path fill-rule="evenodd" clip-rule="evenodd" d="M571.359 339.932L576.787 343.535L576.687 341.599L571.258 337.996L571.359 339.932Z" fill="white"/>
<path fill-rule="evenodd" clip-rule="evenodd" d="M507.424 331.197L511.303 341.767L513.033 341.055L509.155 330.485L507.424 331.197Z" fill="white"/>
<path fill-rule="evenodd" clip-rule="evenodd" d="M488.793 324.493L498.921 312.761L497.268 310.869L487.14 322.601L488.793 324.493Z" fill="white"/>
<path fill-rule="evenodd" clip-rule="evenodd" d="M394.835 273.969L395.7 270.078L394.338 269.89L393.473 273.782L394.835 273.969Z" fill="white"/>
<path fill-rule="evenodd" clip-rule="evenodd" d="M462.681 313.375L462.644 325.538L464.311 325.531L464.348 313.368L462.681 313.375Z" fill="white"/>
<path fill-rule="evenodd" clip-rule="evenodd" d="M464.951 291.728L482.296 302.051L482.934 300.193L465.589 289.87L464.951 291.728Z" fill="white"/>
<path fill-rule="evenodd" clip-rule="evenodd" d="M512.102 259.979L517.7 264.149L518.006 262.644L512.408 258.474L512.102 259.979Z" fill="white"/>
<path fill-rule="evenodd" clip-rule="evenodd" d="M486.686 264.593L478.726 247.535L476.794 248.478L484.754 265.536L486.686 264.593Z" fill="white"/>
<path fill-rule="evenodd" clip-rule="evenodd" d="M489.42 232.457L489.592 228.552L487.895 228.973L487.724 232.878L489.42 232.457Z" fill="white"/>
<path fill-rule="evenodd" clip-rule="evenodd" d="M441.639 258.909L428.057 254.79L427.129 256.461L440.711 260.58L441.639 258.909Z" fill="white"/>
<path fill-rule="evenodd" clip-rule="evenodd" d="M409.753 279.29L419.782 285.761L421.249 284.079L411.22 277.608L409.753 279.29Z" fill="white"/>
<path fill-rule="evenodd" clip-rule="evenodd" d="M418.311 309.235L426.123 317.022L426.564 315.968L418.752 308.182L418.311 309.235Z" fill="white"/>
<path fill-rule="evenodd" clip-rule="evenodd" d="M332.654 349.903L335.858 351.673L337.173 350.169L333.969 348.399L332.654 349.903Z" fill="white"/>
<path fill-rule="evenodd" clip-rule="evenodd" d="M346.844 388.985L355.581 382.053L354.24 380.349L345.503 387.28L346.844 388.985Z" fill="white"/>
<path fill-rule="evenodd" clip-rule="evenodd" d="M367.638 395.374L377.967 401.574L379.049 400.017L368.72 393.816L367.638 395.374Z" fill="white"/>
<path fill-rule="evenodd" clip-rule="evenodd" d="M399.593 384.723L393.765 395.262L395.327 395.917L401.155 385.378L399.593 384.723Z" fill="white"/>
<path fill-rule="evenodd" clip-rule="evenodd" d="M388.724 425.92L387.333 429.488L388.713 430.292L390.103 426.725L388.724 425.92Z" fill="white"/>
<path fill-rule="evenodd" clip-rule="evenodd" d="M372.231 373.087L385.782 366.505L384.512 364.114L370.961 370.696L372.231 373.087Z" fill="white"/>
<path fill-rule="evenodd" clip-rule="evenodd" d="M474.897 414.811L481.632 411.568L480.114 408.725L473.378 411.968L474.897 414.811Z" fill="white"/>
<path fill-rule="evenodd" clip-rule="evenodd" d="M355.031 344.971L354.145 356.88L355.608 357.734L356.493 345.825L355.031 344.971Z" fill="white"/>
<path fill-rule="evenodd" clip-rule="evenodd" d="M371.923 327.181L383.526 341.615L384.047 340.62L372.444 326.186L371.923 327.181Z" fill="white"/>
<path fill-rule="evenodd" clip-rule="evenodd" d="M411.772 328.156L401.18 331.422L401.373 332.827L411.965 329.561L411.772 328.156Z" fill="white"/>
<path fill-rule="evenodd" clip-rule="evenodd" d="M377.243 298.591L362.16 301.567L362.963 304.102L378.046 301.126L377.243 298.591Z" fill="white"/>
<path fill-rule="evenodd" clip-rule="evenodd" d="M494.431 373.622L485.801 380.768L487.01 382.272L495.64 375.126L494.431 373.622Z" fill="white"/>
<path fill-rule="evenodd" clip-rule="evenodd" d="M406.321 367.742L405.84 355.688L403.82 356.09L404.3 368.143L406.321 367.742Z" fill="white"/>
<path fill-rule="evenodd" clip-rule="evenodd" d="M457.376 403.747L460.863 390.502L458.584 389.953L455.097 403.198L457.376 403.747Z" fill="white"/>
<path fill-rule="evenodd" clip-rule="evenodd" d="M448.192 421.479L435.792 411.843L434.661 413.164L447.061 422.799L448.192 421.479Z" fill="white"/>
<path fill-rule="evenodd" clip-rule="evenodd" d="M407.046 425.828L417.627 422.329L417.239 420.799L406.658 424.298L407.046 425.828Z" fill="white"/>
<path fill-rule="evenodd" clip-rule="evenodd" d="M431.88 457.754L429.73 442.433L427.814 442.64L429.965 457.962L431.88 457.754Z" fill="white"/>
<path fill-rule="evenodd" clip-rule="evenodd" d="M447.743 443.387L459.531 441.79L458.295 438.981L446.508 440.578L447.743 443.387Z" fill="white"/>
<path d="M344.348 240.085C356.018 252.75 375.722 253.563 388.358 241.902L432.581 201.095C445.217 189.434 446 169.714 434.331 157.05C422.661 144.386 402.956 143.573 390.32 155.233L346.098 196.041C333.462 207.701 332.679 227.421 344.348 240.085Z" fill="#F96155"/>
<path fill-rule="evenodd" clip-rule="evenodd" d="M332.57 218.246L153.884 372.642L153.802 372.764L154.698 373.345C153.802 372.764 153.802 372.764 153.801 372.765L153.8 372.766L153.798 372.77L153.791 372.781C153.785 372.79 153.777 372.802 153.768 372.816C153.749 372.845 153.723 372.886 153.691 372.938C153.626 373.042 153.537 373.191 153.429 373.383C153.214 373.766 152.926 374.322 152.619 375.032C152.006 376.45 151.315 378.49 150.993 380.999C150.345 386.046 151.199 392.913 156.992 400.346C162.821 407.825 169.68 409.906 175.104 410.074C177.798 410.158 180.122 409.771 181.774 409.362C182.602 409.158 183.264 408.947 183.724 408.785C183.955 408.705 184.135 408.636 184.26 408.586C184.323 408.561 184.372 408.541 184.407 408.527C184.424 408.519 184.438 408.513 184.448 408.509L184.461 408.504L184.466 408.501C184.467 408.501 184.468 408.501 184.046 407.525L184.468 408.501L184.622 408.433L367.006 250.62L365.599 249.023L183.48 406.607C183.381 406.647 183.232 406.703 183.038 406.771C182.636 406.912 182.041 407.102 181.29 407.288C179.786 407.66 177.667 408.013 175.217 407.937C170.352 407.785 164.116 405.946 158.718 399.019C153.284 392.047 152.56 385.745 153.141 381.225C153.433 378.95 154.058 377.107 154.607 375.837C154.881 375.203 155.136 374.714 155.318 374.389C155.405 374.234 155.476 374.116 155.524 374.038L333.975 219.844L332.57 218.246Z" fill="#001A39"/>
<path fill-rule="evenodd" clip-rule="evenodd" d="M135.018 342.309C77.6752 268.886 58.542 177.759 74.7767 93.2845L67.6196 91.8311C51.0004 178.306 70.5867 271.623 129.301 346.802C188.014 421.981 273.655 463.404 361.338 467.924L361.645 460.606C275.991 456.191 192.361 415.733 135.018 342.309Z" fill="#001A39"/>
<path fill-rule="evenodd" clip-rule="evenodd" d="M106.838 366.034L332.889 191.528L330.696 188.771L104.645 363.277L106.838 366.034Z" fill="#001A39"/>
<path d="M119.735 376.585L106.117 367.555C104.759 366.654 103.918 365.146 103.872 363.517L103.385 347.191C103.262 343.092 98.5314 340.847 95.3803 343.399L82.8254 353.542C81.5748 354.55 79.8993 354.872 78.3482 354.398L62.795 349.614C58.8893 348.41 55.3727 352.229 56.8463 356.068L62.7006 371.369C63.2848 372.893 63.0893 374.604 62.1777 375.936L53.0549 389.301C50.7663 392.66 53.3214 397.26 57.3828 397.085L73.5564 396.395C75.1699 396.328 76.7269 397.063 77.7093 398.365L87.6221 411.41C90.1117 414.685 95.2076 413.714 96.2464 409.766L100.384 394.039C100.799 392.472 101.952 391.22 103.47 390.688L118.72 385.387C122.559 384.05 123.149 378.85 119.735 376.585Z" fill="#FBC73B"/>
<path fill-rule="evenodd" clip-rule="evenodd" d="M71.2144 89.7557L68.5896 96.6781L328.255 193.181L358.567 466.126L365.934 465.271L335.122 187.835L71.2144 89.7557Z" fill="#001A39"/>
<path d="M155.532 380.409C155.532 380.409 176.122 365.702 178.182 367.9C180.242 370.099 161.804 389.868 161.804 389.868C161.804 389.868 187.105 368.389 189.601 371.39C192.099 374.383 168.636 398.806 168.636 398.806C168.636 398.806 190.861 379.027 193.61 382.094C196.359 385.162 174.07 407.894 174.07 407.894" fill="white"/>
<path fill-rule="evenodd" clip-rule="evenodd" d="M156.176 378.139C156.175 378.139 156.175 378.139 156.803 379.027C157.43 379.915 157.43 379.915 157.43 379.915L157.485 379.875C157.522 379.848 157.577 379.808 157.65 379.756C157.794 379.652 158.007 379.499 158.278 379.306C158.822 378.918 159.601 378.367 160.543 377.713C162.427 376.404 164.958 374.686 167.552 373.042C170.152 371.393 172.788 369.837 174.888 368.841C175.945 368.34 176.819 368.004 177.46 367.857C177.6 367.825 177.718 367.805 177.816 367.793C177.79 367.893 177.753 368.012 177.703 368.152C177.462 368.813 176.994 369.704 176.333 370.773C175.019 372.896 173.056 375.539 171.005 378.137C168.958 380.729 166.844 383.251 165.24 385.127C164.438 386.064 163.765 386.839 163.292 387.379C163.056 387.649 162.87 387.861 162.743 388.004C162.68 388.076 162.631 388.131 162.598 388.168L162.55 388.223C162.549 388.223 162.549 388.223 163.329 388.972C164.024 389.806 164.024 389.806 164.024 389.806L164.092 389.747C164.138 389.707 164.205 389.648 164.294 389.572C164.471 389.418 164.731 389.193 165.064 388.907C165.729 388.336 166.682 387.523 167.835 386.557C170.141 384.625 173.238 382.084 176.413 379.644C179.595 377.199 182.826 374.877 185.406 373.368C186.704 372.608 187.784 372.086 188.583 371.844C188.902 371.747 189.136 371.707 189.294 371.7C189.274 371.902 189.203 372.199 189.052 372.602C188.725 373.471 188.108 374.61 187.255 375.953C185.557 378.625 183.038 381.921 180.416 385.147C177.799 388.367 175.1 391.491 173.053 393.811C172.03 394.971 171.171 395.929 170.568 396.597C170.267 396.931 170.029 397.192 169.867 397.37C169.787 397.459 169.725 397.527 169.683 397.572L169.62 397.64C169.62 397.64 169.62 397.641 170.39 398.401C171.102 399.219 171.102 399.219 171.103 399.219L171.162 399.165C171.179 399.149 171.2 399.13 171.225 399.107C171.256 399.078 171.294 399.043 171.338 399.003C171.493 398.862 171.722 398.655 172.014 398.392C172.597 397.866 173.435 397.118 174.449 396.23C176.479 394.454 179.211 392.122 182.027 389.895C184.851 387.661 187.728 385.556 190.055 384.216C191.226 383.542 192.201 383.095 192.929 382.903C193.293 382.808 193.535 382.793 193.675 382.809C193.679 382.809 193.683 382.81 193.687 382.81C193.688 382.825 193.688 382.841 193.688 382.86C193.688 383.042 193.641 383.33 193.504 383.74C193.232 384.556 192.683 385.627 191.9 386.893C190.344 389.411 187.99 392.499 185.522 395.517C183.06 398.528 180.507 401.441 178.568 403.603C177.599 404.684 176.785 405.576 176.212 406.197C175.926 406.508 175.701 406.751 175.548 406.916C175.471 406.998 175.412 407.061 175.372 407.104L175.314 407.166L175.313 407.167C175.313 407.167 175.313 407.167 176.076 407.935C176.838 408.704 176.838 408.704 176.838 408.703L176.839 408.702L176.9 408.637C176.941 408.594 177.001 408.53 177.079 408.446C177.234 408.279 177.462 408.033 177.75 407.72C178.327 407.093 179.148 406.195 180.123 405.107C182.073 402.933 184.647 399.996 187.135 396.954C189.616 393.919 192.036 390.751 193.663 388.119C194.472 386.811 195.117 385.583 195.465 384.542C195.638 384.023 195.757 383.493 195.758 382.987C195.758 382.476 195.635 381.891 195.216 381.409C194.808 380.939 194.278 380.738 193.782 380.681C193.302 380.627 192.797 380.699 192.311 380.827C191.335 381.083 190.187 381.63 188.969 382.332C186.534 383.734 183.591 385.89 180.767 388.122C181.188 387.612 181.611 387.097 182.032 386.58C184.666 383.339 187.243 379.971 189.004 377.2C189.881 375.821 190.585 374.543 190.986 373.478C191.186 372.948 191.332 372.415 191.364 371.913C191.395 371.42 191.322 370.806 190.905 370.293C190.48 369.767 189.897 369.592 189.404 369.563C188.918 369.534 188.4 369.633 187.895 369.787C186.878 370.096 185.644 370.708 184.309 371.49C181.622 373.062 178.314 375.443 175.117 377.9C174.067 378.707 173.026 379.524 172.019 380.327C172.226 380.068 172.432 379.809 172.638 379.548C174.701 376.935 176.72 374.222 178.095 372C178.778 370.896 179.333 369.866 179.645 369.005C179.8 368.579 179.919 368.134 179.938 367.706C179.957 367.287 179.884 366.719 179.465 366.256C179.072 365.821 178.563 365.682 178.162 365.647C177.755 365.612 177.322 365.67 176.902 365.766C176.056 365.96 175.034 366.366 173.937 366.886C171.728 367.933 169.014 369.54 166.397 371.199C163.773 372.862 161.218 374.597 159.321 375.915C158.372 376.574 157.587 377.129 157.038 377.52C156.764 377.716 156.549 377.87 156.402 377.976C156.328 378.029 156.272 378.069 156.234 378.097L156.176 378.139ZM170.39 398.401L171.103 399.219L169.62 397.64L170.39 398.401ZM163.329 388.972L164.024 389.806L162.55 388.223L163.329 388.972Z" fill="#001A39"/>
<path d="M315.261 153.419C321.273 164.411 335.054 168.452 346.046 162.44C355.764 157.129 360.048 145.736 356.758 135.575C356.325 134.245 355.767 132.93 355.067 131.656C349.055 120.665 335.274 116.623 324.283 122.635C318.562 125.764 314.728 130.992 313.207 136.835C311.805 142.234 312.379 148.148 315.261 153.419Z" fill="#FBC73B"/>
<path d="M303.126 132.408C305.631 136.99 311.372 138.67 315.953 136.164C320.005 133.951 321.79 129.204 320.414 124.969C320.234 124.416 320.001 123.867 319.709 123.337C317.204 118.755 311.463 117.075 306.882 119.581C304.499 120.886 302.898 123.061 302.267 125.5C301.683 127.744 301.921 130.212 303.126 132.408Z" fill="#001A39"/>
<path d="M317.646 119.759C319.151 122.507 322.594 123.517 325.343 122.013C327.774 120.685 328.841 117.841 328.019 115.297C327.908 114.962 327.768 114.637 327.597 114.316C326.093 111.568 322.649 110.558 319.9 112.062C318.469 112.847 317.51 114.151 317.136 115.611C316.782 116.964 316.927 118.441 317.646 119.759Z" fill="#001A39"/>
<path fill-rule="evenodd" clip-rule="evenodd" d="M323.157 159.541C323.157 159.541 323.158 159.54 324.143 160.483C325.129 161.426 325.129 161.425 325.13 161.425L325.133 161.421L325.14 161.416L325.158 161.399C325.172 161.386 325.19 161.369 325.212 161.347C325.256 161.305 325.316 161.246 325.388 161.173C325.531 161.026 325.726 160.818 325.947 160.557C326.386 160.04 326.947 159.293 327.412 158.387C328.356 156.551 328.936 153.975 327.207 151.495L324.621 153.218C325.664 154.714 325.358 156.201 324.723 157.434C324.4 158.063 323.998 158.602 323.672 158.988C323.51 159.178 323.372 159.325 323.278 159.421C323.231 159.469 323.196 159.504 323.175 159.524C323.164 159.534 323.157 159.541 323.154 159.543C323.153 159.545 323.152 159.545 323.153 159.545L323.154 159.543L323.156 159.542L323.157 159.541Z" fill="#001A39"/>
<path d="M321.661 155.617C319.785 156.642 317.822 156.666 317.278 155.67C316.733 154.674 317.812 153.035 319.688 152.009C321.564 150.983 323.526 150.959 324.071 151.955C324.616 152.952 323.537 154.591 321.661 155.617Z" fill="#001A39"/>
<path d="M331.439 150.497C329.563 151.523 327.601 151.547 327.056 150.551C326.511 149.555 327.591 147.916 329.467 146.89C331.343 145.864 333.305 145.84 333.849 146.836C334.394 147.832 333.315 149.471 331.439 150.497Z" fill="#001A39"/>
<path d="M349.094 136.422C351.619 140.994 356.646 143.083 360.322 141.105C363.574 139.355 364.674 134.998 363.146 130.857C362.945 130.31 362.699 129.773 362.408 129.246C359.886 124.679 354.855 122.584 351.18 124.562C349.266 125.596 348.098 127.524 347.771 129.781C347.467 131.866 347.88 134.231 349.094 136.422Z" fill="#FBC73B"/>
<path d="M314.065 136.238C314.065 136.238 323.378 136.751 334.735 127.623L341.886 138.656L348.645 132.81C348.645 132.81 347.002 125.083 354.884 123.831C354.884 123.831 348.268 110.412 338.964 112.157C322.7 115.209 313.71 127.833 314.065 136.238Z" fill="#001A39"/>
<path d="M335.534 177.429C335.534 177.429 309.434 193.051 311.901 196.981C314.36 200.91 338.032 183.945 338.032 183.945C338.032 183.945 313.314 199.661 315.644 202.963C317.974 206.265 342.69 190.544 342.69 190.544" fill="white"/>
<path fill-rule="evenodd" clip-rule="evenodd" d="M451.889 245.394L463.369 236.06L462.205 235.073L450.726 244.407L451.889 245.394Z" fill="white"/>
<path fill-rule="evenodd" clip-rule="evenodd" d="M399.479 76.55C415.103 52.0248 453.003 68.1825 445.735 96.2665L445.733 96.2739L429.593 160.537L431.656 161.038L447.793 96.7821C447.794 96.7809 447.794 96.7797 447.794 96.7785C455.663 66.3596 414.611 48.8562 397.686 75.4239C397.686 75.4239 397.686 75.4239 397.686 75.4239L333.496 176.172C333.472 176.187 333.446 176.203 333.418 176.22C333.227 176.336 332.947 176.507 332.593 176.726C331.885 177.163 330.877 177.792 329.676 178.56C327.276 180.094 324.098 182.189 321.001 184.423C317.914 186.65 314.864 189.044 312.746 191.176C311.693 192.235 310.815 193.284 310.29 194.258C309.789 195.189 309.447 196.371 310.094 197.41C310.739 198.447 311.915 198.656 312.948 198.591C314.009 198.525 315.265 198.163 316.586 197.65C316.91 197.524 317.242 197.387 317.582 197.24C317.27 197.536 316.974 197.828 316.694 198.113C315.699 199.129 314.868 200.125 314.368 201.03C313.908 201.864 313.514 203.028 314.201 204.018C314.87 204.983 316.089 205.077 317.052 204.99C318.102 204.894 319.369 204.54 320.726 204.047C323.456 203.054 326.814 201.395 330.049 199.647C333.295 197.893 336.456 196.028 338.804 194.603C339.548 194.151 340.211 193.744 340.769 193.397C340.745 194.117 340.792 194.944 341.007 195.752C341.318 196.923 342.007 198.125 343.395 198.812C344.542 199.379 346.027 199.524 347.899 199.188C348.074 199.757 348.379 200.495 348.903 201.177C349.465 201.908 350.288 202.582 351.454 202.886C352.611 203.188 353.997 203.098 355.641 202.504C355.641 202.504 355.641 202.504 355.641 202.504C356.306 202.265 357.098 201.676 357.927 200.956C358.794 200.202 359.826 199.194 360.991 197.978C363.323 195.543 366.238 192.225 369.516 188.334C376.074 180.55 384.126 170.426 391.943 160.394C399.761 150.36 407.35 140.409 412.984 132.967C415.802 129.246 418.13 126.152 419.755 123.988C420.567 122.906 421.203 122.057 421.637 121.478C421.853 121.188 422.019 120.966 422.131 120.817L422.3 120.59C422.3 120.59 422.3 120.59 421.448 119.962C420.597 119.334 420.596 119.334 420.596 119.335L420.428 119.56C420.317 119.709 420.151 119.93 419.935 120.22C419.502 120.798 418.867 121.646 418.055 122.727C416.432 124.889 414.105 127.981 411.29 131.699C405.659 139.136 398.077 149.079 390.267 159.103C382.455 169.128 374.423 179.227 367.891 186.979C364.624 190.857 361.742 194.136 359.458 196.521C358.314 197.715 357.333 198.671 356.536 199.363C355.701 200.088 355.177 200.424 354.929 200.514C353.578 201.001 352.643 201.004 352.006 200.837C351.376 200.673 350.928 200.317 350.595 199.882C350.252 199.436 350.038 198.918 349.912 198.488C349.85 198.277 349.811 198.099 349.789 197.976C349.778 197.915 349.771 197.869 349.767 197.841C349.765 197.827 349.764 197.818 349.764 197.813L349.764 197.814C349.764 197.814 349.764 197.814 349.763 197.814L349.764 197.815L348.706 197.929C349.659 197.826 349.753 197.816 349.763 197.814L348.449 196.904C346.322 197.446 345.074 197.271 344.351 196.914C343.661 196.572 343.269 195.972 343.063 195.197C342.851 194.402 342.863 193.503 342.944 192.763C342.984 192.401 343.038 192.093 343.082 191.879C343.104 191.773 343.123 191.69 343.136 191.636C343.142 191.609 343.147 191.589 343.15 191.578L343.153 191.567L342.128 191.295C341.556 190.406 341.556 190.406 341.556 190.406L341.555 190.407L341.552 190.409L341.488 190.45C341.442 190.479 341.374 190.523 341.284 190.579C341.106 190.693 340.843 190.859 340.507 191.07C339.835 191.491 338.871 192.089 337.707 192.796C335.376 194.211 332.248 196.057 329.045 197.787C325.833 199.522 322.586 201.12 320.008 202.058C318.711 202.53 317.648 202.81 316.873 202.881C316.236 202.938 316.016 202.839 315.961 202.806C315.954 202.742 315.961 202.527 316.23 202.041C316.589 201.389 317.261 200.558 318.212 199.586C320.099 197.658 322.877 195.388 325.776 193.2C326.842 192.395 327.919 191.606 328.967 190.853C330.837 189.651 332.569 188.485 333.989 187.508C335.113 186.735 336.043 186.08 336.693 185.617C337.017 185.385 337.272 185.202 337.446 185.076C337.533 185.013 337.6 184.965 337.645 184.932L337.696 184.895L337.713 184.882L337.714 184.882C337.714 184.881 337.715 184.881 337.089 184.029C336.517 183.14 336.517 183.14 336.517 183.141L336.512 183.144L336.445 183.187C336.398 183.217 336.328 183.262 336.238 183.321C336.057 183.438 335.793 183.61 335.459 183.83C334.789 184.27 333.836 184.903 332.701 185.673C331.281 186.636 329.573 187.816 327.776 189.106C326.716 189.787 325.614 190.478 324.501 191.151C321.42 193.015 318.307 194.712 315.825 195.677C314.574 196.163 313.562 196.432 312.83 196.478C312.07 196.525 311.928 196.326 311.903 196.286L311.903 196.285C311.878 196.245 311.76 195.997 312.162 195.25C312.542 194.546 313.25 193.669 314.252 192.661C316.243 190.657 319.177 188.345 322.24 186.136C325.294 183.934 328.435 181.862 330.816 180.34C332.006 179.579 333.004 178.956 333.704 178.524C334.054 178.308 334.329 178.14 334.517 178.026C334.611 177.969 334.683 177.925 334.731 177.896L334.785 177.863L334.798 177.855L334.802 177.853L334.802 177.853C334.803 177.853 334.803 177.853 334.258 176.947L334.802 177.853L335.155 177.51L399.479 76.55ZM337.089 184.029L336.517 183.141L337.714 184.882L337.089 184.029ZM343.152 191.565L343.153 191.567L343.153 191.566C343.153 191.566 343.153 191.566 343.152 191.565ZM343.152 191.565L341.556 190.406L342.128 191.295" fill="#001A39"/>
</svg>
