<svg width="507" height="397" viewBox="0 0 507 397" fill="none" xmlns="http://www.w3.org/2000/svg">
<path fill-rule="evenodd" clip-rule="evenodd" d="M391.994 212.752L405.882 225.405L400.199 266.911L436.598 246.176L474.31 264.41L465.838 223.38L494.83 193.144L453.199 188.521L433.401 151.602L418.829 183.832C418.123 187.318 416.933 192.09 415.144 198.423C422.721 185.492 434.195 168.327 419.474 203.114C418.091 205.46 416.154 210.981 419.474 214.301C426.69 219.112 434.736 226.642 409.191 218.27C406.129 217.267 402.795 216.204 399.238 215.07C396.914 214.328 394.495 213.557 391.994 212.752ZM408.969 191.065L408.214 191.201C407.959 192.168 407.683 193.192 407.386 194.273C407.895 193.222 408.426 192.145 408.969 191.065ZM400.697 192.553C400.653 192.639 400.609 192.723 400.566 192.808C400.309 193.306 400.056 193.795 399.809 194.273L397.27 193.17L400.697 192.553Z" fill="#FBC73B"/>
<path fill-rule="evenodd" clip-rule="evenodd" d="M108.679 36.0623C101.996 10.3223 75.711 -5.12608 49.9741 1.55702L74.1776 94.774C92.088 90.1232 105.015 75.9778 108.969 59.13C106.707 55.4164 98.0774 40.9598 99.4528 38.7834C100.567 37.0227 106.7 43.211 110.221 47.0143C110.131 43.3911 109.629 39.7212 108.679 36.0623Z" fill="#F96155"/>
<path fill-rule="evenodd" clip-rule="evenodd" d="M93.5146 200.721L123.88 220.219L18.8181 271.829L27.142 158.101L82.5553 193.683C79.0017 194.251 76.0366 195.084 76.4544 196.265C77.1074 198.112 86.9517 199.796 93.5146 200.721Z" fill="#234977"/>
<path d="M469.01 35.0771C443.973 30.0539 419.6 46.2853 414.581 71.3325C409.562 96.376 425.795 120.745 450.836 125.764C463.793 128.363 476.569 125.27 486.578 118.208C489.868 115.891 492.86 113.145 495.458 110.031C500.235 104.304 503.695 97.3395 505.264 89.5125C510.283 64.4689 494.05 40.0966 469.01 35.0771ZM482.898 85.027C482.104 88.9929 480.35 92.5221 477.929 95.4234C476.612 97.0039 475.097 98.3969 473.43 99.5696C468.357 103.149 461.884 104.716 455.317 103.398C442.627 100.854 434.404 88.5057 436.948 75.8143C439.492 63.1229 451.839 54.899 464.528 57.443C477.218 59.9871 485.441 72.3356 482.898 85.027Z" fill="#BACADF"/>
<path d="M425.146 110.262C429.869 105.841 435.584 104.369 441.938 104.499C449.183 104.647 455.771 107.425 462.598 109.529C473.127 112.777 487.285 113.112 493.866 102.503C496.424 98.3786 497.381 93.0308 495.461 88.4587C493.56 83.9263 489.291 81.2993 484.831 79.7259C479.661 77.9036 474.119 77.2577 469.053 75.1214C463.428 72.7505 458.499 68.6042 455.454 63.2852C450.457 54.5524 450.713 40.248 460.134 34.5176C460.592 34.2397 460.184 33.5397 459.715 33.7995C451.532 38.2958 449.749 48.2194 451.503 56.7537C453.639 67.1428 462.309 74.7497 472.181 77.7304C477.359 79.2929 482.941 79.9857 487.776 82.519C493.029 85.2723 495.977 90.5084 494.758 96.4481C493.488 102.622 488.797 107.184 482.883 109.06C476.417 111.113 469.645 110.175 463.269 108.306C455.905 106.148 448.887 103.29 441.09 103.38C434.783 103.456 429.205 105.275 424.655 109.76C424.33 110.089 424.817 110.568 425.146 110.262Z" fill="white"/>
<path d="M473.996 36.0586C471.232 42.6984 472.957 49.5041 478.203 54.3613C481.115 57.0569 484.925 58.5004 488.663 59.6371C493.199 61.0156 497.987 62.7188 502.699 63.3034C503.143 63.3575 503.331 62.6321 502.93 62.4517C495.678 59.1968 486.895 59.1788 480.3 54.4155C477.911 52.6906 475.826 50.2223 474.577 47.5483C472.874 43.8964 473.098 39.9162 474.375 36.1668C474.458 35.9178 474.09 35.8312 473.996 36.0586Z" fill="white"/>
<path d="M436.537 120.463C446.769 116.487 459.82 118.605 468.166 125.721C468.505 126.01 469.089 125.638 468.819 125.216C465.82 120.521 459.149 118.843 454.043 117.894C447.946 116.761 441.949 117.299 436.28 119.854C435.941 120.012 436.183 120.6 436.537 120.463Z" fill="white"/>
<path d="M429.876 45.4737C430.901 54.5854 431.345 63.8306 429.068 72.8015C427.949 77.2112 426.293 81.4838 424.038 85.4388C421.855 89.2675 419.005 92.425 416.342 95.8892C416.071 96.2392 416.598 96.7408 416.948 96.4954C420.401 94.0705 423.06 90.0396 425.149 86.4455C427.495 82.4147 429.23 78.0087 430.37 73.4907C432.698 64.26 432.391 54.6576 430.471 45.3943C430.406 45.0623 429.836 45.1273 429.876 45.4737Z" fill="white"/>
<path d="M330.583 345.462L321.7 364.202L354.408 397L299.026 375.489L315.768 339.458" fill="#FBC73B"/>
<path fill-rule="evenodd" clip-rule="evenodd" d="M331.443 368.302L319.414 371.394L319.145 370.346L331.174 367.253L331.443 368.302Z" fill="#F96155"/>
<path fill-rule="evenodd" clip-rule="evenodd" d="M335.856 372.344L323.823 375.433L323.554 374.384L335.587 371.295L335.856 372.344Z" fill="#F96155"/>
<path fill-rule="evenodd" clip-rule="evenodd" d="M340.265 376.385L328.232 379.474L327.963 378.425L339.996 375.336L340.265 376.385Z" fill="#F96155"/>
<path d="M209.505 327.333L218.846 345.899L186.947 379.307L241.791 356.757L224.172 321.05" fill="#FBC73B"/>
<path fill-rule="evenodd" clip-rule="evenodd" d="M209.453 349.132L221.558 351.994L221.309 353.048L209.204 350.186L209.453 349.132Z" fill="#F96155"/>
<path fill-rule="evenodd" clip-rule="evenodd" d="M205.141 353.257L217.246 356.118L216.997 357.172L204.892 354.31L205.141 353.257Z" fill="#F96155"/>
<path fill-rule="evenodd" clip-rule="evenodd" d="M200.833 357.378L212.935 360.239L212.685 361.293L200.584 358.431L200.833 357.378Z" fill="#F96155"/>
<path d="M205.702 337.227L170.746 276.253C162.902 262.569 164.493 245.053 174.654 233.3L210.299 192.061C223.973 176.241 243.475 167.57 263.714 168.313C284.655 169.082 304.197 179.843 316.905 197.611L352.77 247.745C359.917 257.734 362.05 270.779 358.489 282.705L335.252 360.499L294.827 341.872L313.383 275.47L259.802 218.447L215.566 260.253L244.19 318.206L205.702 337.227Z" fill="#742A40"/>
<path d="M272.886 232.449C279.146 228.779 287.636 225.917 294.596 229.291C300.282 232.048 303.909 237.667 307.47 242.639C314.816 252.895 324.129 262.645 337.352 264.053C344.464 264.81 352.893 263.212 358.446 258.434C358.969 257.983 358.301 257.211 357.735 257.51C354.48 259.228 351.399 260.938 347.787 261.833C344.215 262.717 340.481 262.912 336.829 262.458C329.765 261.574 323.537 258.109 318.356 253.335C313.575 248.929 309.891 243.657 306.03 238.471C302.794 234.123 299.07 229.67 293.835 227.736C286.73 225.112 278.713 228.227 272.597 231.965C272.29 232.149 272.572 232.633 272.886 232.449Z" fill="white"/>
<path d="M323.035 206.542C319.221 214.001 316.566 223.795 322.01 231.218C324.46 234.559 328.188 236.523 332.002 237.923C336.808 239.687 342.122 241.185 347.271 241.023C347.733 241.008 347.841 240.333 347.383 240.207C339.532 238.056 329.476 237.544 323.753 230.929C317.865 224.124 320.362 214.276 323.952 207.073C324.251 206.47 323.346 205.933 323.035 206.542Z" fill="white"/>
<path d="M302.732 313.007C307.026 316.622 308.372 322.519 308.231 327.914C308.069 334.257 305.215 339.757 302.548 345.368C302.332 345.823 302.942 346.415 303.306 345.953C310.335 337.032 313.445 320.325 303.133 312.491C302.837 312.263 302.447 312.768 302.732 313.007Z" fill="white"/>
<path d="M189.447 309.297C197.165 308.456 204.901 309.077 212.167 311.931C219.312 314.739 225.539 319.56 230.692 325.197C231.078 325.619 231.648 325.009 231.309 324.579C221.415 312.05 205.117 305.642 189.335 308.456C188.866 308.543 188.967 309.351 189.447 309.297Z" fill="white"/>
<path d="M222.595 274.799C217.998 279.129 214.304 285.762 217.104 292.113C218.402 295.058 221.015 296.992 223.898 298.248C227.376 299.763 231.507 300.904 235.332 300.655C235.862 300.622 236.036 299.817 235.462 299.684C229.83 298.363 221.924 297.757 218.698 292.117C215.332 286.227 218.9 279.613 223.198 275.405C223.595 275.016 222.996 274.42 222.595 274.799Z" fill="white"/>
<path d="M234.008 174.423C238.983 176.92 244.233 178.926 249.523 180.651C254.636 182.318 259.986 183.646 265.402 183.455C272.124 183.217 282.487 180.582 283.522 172.477C283.595 171.915 282.75 171.759 282.498 172.2C281.578 173.816 280.903 175.429 279.561 176.779C278.323 178.024 276.829 178.977 275.234 179.695C271.504 181.373 267.145 182.004 263.086 181.871C253.117 181.549 243.486 177.197 234.253 173.841C233.914 173.719 233.687 174.26 234.008 174.423Z" fill="white"/>
<path d="M195.628 209.119C200.203 211.45 205.237 212.941 210.255 213.958C214.928 214.907 219.904 215.694 224.681 215.29C228.697 214.951 232.644 213.511 235.119 210.176C237.703 206.694 236.876 203.36 235.888 199.488C235.249 196.994 235.235 194.468 238.042 193.371C240.499 192.411 243.559 192.588 246.102 193.05C251.341 194.006 256.054 196.612 260.708 199.066C264.951 201.303 269.317 203.511 274.087 204.349C278.431 205.114 282.898 204.821 287.167 203.757C292.196 202.501 296.966 200.217 301.282 197.37C304.922 194.97 307.993 192.108 309.133 187.764C309.346 186.955 308.159 186.641 307.892 187.421C306.488 191.563 303.328 194.158 299.748 196.435C295.815 198.936 291.551 200.935 287.03 202.104C282.343 203.317 277.417 203.598 272.687 202.443C267.997 201.299 263.743 198.932 259.499 196.706C255.383 194.544 251.118 192.44 246.503 191.592C243.165 190.979 238.316 190.564 235.549 193.021C232.637 195.605 234.325 199.445 235.058 202.591C236.155 207.322 233.16 211.346 228.733 212.897C223.526 214.723 217.237 213.785 211.93 212.897C206.413 211.973 201.159 210.317 195.863 208.567C195.538 208.466 195.325 208.964 195.628 209.119Z" fill="white"/>
<path d="M310.028 288.248C316.602 284.654 323.035 280.724 330.601 279.631C334.325 279.093 338.251 279.483 341.386 281.72C344.731 284.106 345.878 287.909 344.854 291.839C343.858 295.66 341.523 299.103 339.593 302.502C337.605 306.002 335.613 309.499 333.621 312.996C330.367 318.716 326.921 325.153 327.69 331.966C328.429 338.509 333.474 344.409 339.182 347.382C339.698 347.653 340.084 346.949 339.629 346.617C333.701 342.261 328.422 336.419 329.021 328.56C329.627 320.599 334.881 313.288 338.702 306.54C340.686 303.036 342.869 299.579 344.583 295.931C345.983 292.95 347.029 289.565 346.109 286.285C344.431 280.284 337.735 277.866 332.074 278.303C328 278.617 324.009 279.956 320.268 281.536C316.501 283.128 312.745 285.069 309.685 287.815C309.447 288.028 309.757 288.396 310.028 288.248Z" fill="white"/>
<path d="M177.645 290.334C182.671 292.503 190.479 293.874 194.213 288.663C196.523 285.444 195.87 281.345 194.498 277.888C192.817 273.644 190.288 269.783 188.487 265.586C184.951 257.348 183.176 246.778 189.198 239.182C193.672 233.538 201.372 231.532 208.296 232.012C217.764 232.669 225.846 238.24 232.849 244.202C233.3 244.584 233.903 243.996 233.503 243.549C223.952 232.925 207.022 225.654 193.546 233.455C186.918 237.291 183.623 244.443 183.717 251.967C183.771 256.446 184.93 260.823 186.604 264.955C188.292 269.126 190.641 272.944 192.51 277.022C194.599 281.572 195.628 288.013 189.905 290.301C186.149 291.802 181.646 290.857 178.016 289.446C177.511 289.255 177.143 290.117 177.645 290.334Z" fill="white"/>
<path d="M288.213 101.294C292.416 123.137 278.117 144.251 256.277 148.455C234.437 152.659 213.326 138.358 209.122 116.515" fill="#F96155"/>
<path d="M44.8218 121.398C18.2947 119.558 -1.71961 96.5602 0.116934 70.0299C1.95709 43.4996 24.9517 23.4828 51.4788 25.3196" fill="#F96155"/>
<path d="M223.948 76.4277C224.031 86.8204 232.521 95.1742 242.913 95.0876C252.099 95.0118 259.69 88.3684 261.271 79.6501C261.477 78.5062 261.581 77.3298 261.57 76.1245C261.487 65.7354 252.997 57.3779 242.606 57.4645C237.201 57.5078 232.348 59.8245 228.945 63.5053C225.81 66.8974 223.908 71.4478 223.948 76.4277Z" fill="#FBC73B"/>
<path d="M228.945 63.5017C234.072 73.4253 244.468 80.1697 256.4 80.0759C258.056 80.0615 259.683 79.9171 261.267 79.6501C261.473 78.5062 261.577 77.3298 261.567 76.1245C261.484 65.7354 252.994 57.3779 242.602 57.4645C237.201 57.5042 232.348 59.8245 228.945 63.5017Z" fill="#001A39"/>
<path d="M250.486 58.5837C254.446 58.5837 257.656 55.3735 257.656 51.4135C257.656 47.4534 254.446 44.2432 250.486 44.2432C246.527 44.2432 243.317 47.4534 243.317 51.4135C243.317 55.3735 246.527 58.5837 250.486 58.5837Z" fill="#001A39"/>
<path d="M241.047 45.9497C252.316 45.9497 261.451 36.8135 261.451 25.5433C261.451 14.2731 252.316 5.13672 241.047 5.13672C229.778 5.13672 220.643 14.2731 220.643 25.5433C220.643 36.8135 229.778 45.9497 241.047 45.9497Z" fill="#001A39"/>
<path d="M234.424 82.696C234.5 81.0755 233.722 79.7229 232.687 79.6748C231.651 79.6267 230.751 80.9014 230.676 82.5218C230.601 84.1423 231.379 85.495 232.414 85.5431C233.449 85.5912 234.349 84.3165 234.424 82.696Z" fill="#001A39"/>
<path d="M240.64 83.1906C240.715 81.5701 239.937 80.2175 238.902 80.1694C237.867 80.1213 236.967 81.396 236.892 83.0165C236.816 84.637 237.594 85.9897 238.63 86.0378C239.665 86.0858 240.565 84.8111 240.64 83.1906Z" fill="#001A39"/>
<path fill-rule="evenodd" clip-rule="evenodd" d="M232.003 90.0985C232.002 90.0985 232.002 90.0986 231.865 89.3901C231.727 88.6815 231.727 88.6816 231.727 88.6816L231.726 88.6817L231.725 88.6819L231.725 88.682C231.724 88.6821 231.725 88.682 231.726 88.6817C231.729 88.6812 231.734 88.6801 231.742 88.6783C231.757 88.6748 231.783 88.6688 231.818 88.6598C231.887 88.6418 231.99 88.6124 232.116 88.5688C232.37 88.4806 232.702 88.3389 233.027 88.1255C233.666 87.706 234.243 87.0429 234.224 85.9304L235.668 85.9067C235.696 87.6594 234.733 88.7321 233.819 89.3321C233.368 89.6283 232.921 89.8173 232.589 89.9323C232.423 89.9903 232.282 90.0306 232.18 90.057C232.129 90.0702 232.088 90.08 232.058 90.0867C232.043 90.0901 232.03 90.0928 232.021 90.0947L232.009 90.0972L232.005 90.098L232.003 90.0983L232.003 90.0985Z" fill="#001A39"/>
<path d="M50.3135 35.218C38.1143 37.744 25.9008 40.2159 13.7558 43.009C12.1646 43.3771 10.0069 44.0266 8.68995 44.3153C8.07296 44.4524 8.33274 45.3979 8.94973 45.2607C13.2434 44.3153 18.4969 43.3915 23.0828 42.3739C30.5481 40.7139 37.9953 38.9782 45.4425 37.2389C47.1419 36.8419 48.8414 36.445 50.5408 36.048C51.0857 35.9217 50.8547 35.1062 50.3135 35.218Z" fill="white"/>
<path d="M3.02511 54.8053C10.8945 55.8843 18.9514 56.0358 26.8713 56.5049C31.5655 56.7828 36.2597 57.1112 40.9539 57.3855C43.5987 57.5407 46.2868 57.3783 48.9207 57.5623C49.3609 57.5948 49.3573 56.9091 48.9207 56.8766C46.6223 56.7142 43.8765 56.1802 41.4338 55.9998C36.7035 55.6497 31.966 55.3718 27.2285 55.1445C19.2256 54.762 11.1146 54.0331 3.09726 54.264C2.805 54.2712 2.70399 54.762 3.02511 54.8053Z" fill="white"/>
<path d="M47.3152 84.432C33.7089 83.2448 20.0953 82.0792 6.46732 81.1698C4.54057 81.0399 2.58501 81.1229 0.661866 80.9822C0.16755 80.9461 0.171158 81.7148 0.661866 81.7509C5.61946 82.1225 11.2193 82.8082 16.3969 83.1798C24.7642 83.7789 33.1352 84.3923 41.5097 84.9119C43.4436 85.031 45.3812 85.1537 47.3152 85.2728C47.8636 85.3125 47.8528 84.4789 47.3152 84.432Z" fill="white"/>
<path d="M13.3444 106.899C17.1257 106.386 20.8638 105.43 24.5946 104.632C30.6238 103.348 36.671 102.085 42.6642 100.649C43.6564 100.41 44.6559 100.205 45.6409 99.9449C45.9692 99.8583 46.7703 99.5732 46.7703 99.5732C47.4703 99.418 47.1744 98.3391 46.4744 98.4978C46.6368 98.4617 45.7383 98.5592 45.5471 98.5917C44.728 98.7324 43.9126 98.9453 43.1007 99.1149C40.4776 99.667 37.8653 100.266 35.253 100.865C29.2419 102.24 23.2307 103.611 17.234 105.04C15.8557 105.369 14.4846 105.704 13.1315 106.134C12.63 106.292 12.8501 106.967 13.3444 106.899Z" fill="white"/>
<path d="M76.1657 1.75568C74.8848 1.69795 73.5209 2.24646 72.2942 2.57484C69.4942 3.32542 66.7051 4.10846 63.9124 4.89152C61.1233 5.67458 58.3306 6.46493 55.5559 7.30573C54.6647 7.57637 53.7808 7.87584 52.8895 8.16092C52.6298 8.24392 52.3556 8.30885 52.1066 8.4135C51.9587 8.47485 51.4174 8.70225 51.9009 8.56512C51.2623 8.74916 51.5365 9.74513 52.1751 9.56109C51.6736 9.70544 52.2617 9.60802 52.4241 9.57915C52.6911 9.53224 52.9581 9.44562 53.2215 9.37705C54.1235 9.1425 55.0328 8.92953 55.9312 8.68415C58.7275 7.91913 61.5093 7.10723 64.2912 6.28447C67.0731 5.46172 69.8514 4.6426 72.6225 3.78736C73.8348 3.41207 75.2853 3.15224 76.3389 2.42331C76.6311 2.21762 76.5301 1.77373 76.1657 1.75568Z" fill="white"/>
<path d="M102.916 22.3787C92.8027 24.8361 82.6639 27.1924 72.543 29.6102C67.7766 30.7505 63.0464 32.1182 58.2872 33.2332C57.6738 33.3776 57.9336 34.323 58.547 34.1787C62.9598 33.143 68.2529 32.1109 72.9183 30.9742C83.0283 28.5168 93.095 25.9006 103.144 23.2086C103.681 23.0678 103.454 22.2487 102.916 22.3787Z" fill="white"/>
<path d="M64.4716 58.977C69.4328 59.8503 74.506 60.2076 79.5068 60.7813C84.2083 61.319 88.9132 61.8459 93.6146 62.3907C97.0207 62.7841 100.42 63.1702 103.829 63.4914C105.078 63.6069 106.644 63.5743 107.766 63.7151C108.202 63.7692 108.199 63.0836 107.766 63.0295C106.561 62.8779 104.998 62.4521 103.678 62.2537C100.42 61.7665 97.1542 61.366 93.8744 60.9979C89.2993 60.4819 84.7242 59.9947 80.1419 59.5581C74.975 59.0673 69.7396 58.4285 64.5439 58.4321C64.2444 58.4358 64.1577 58.9193 64.4716 58.977Z" fill="white"/>
<path d="M88.5453 87.9827C85.7995 87.6182 83.0573 87.2898 80.3043 86.9939C78.4389 86.7954 76.5771 86.5682 74.708 86.4238C73.9106 86.3625 72.6297 86.4779 72.0632 86.4202C71.5689 86.3733 71.5725 87.1419 72.0632 87.1888C72.6008 87.2393 73.8023 87.593 74.5709 87.6832C76.476 87.9105 78.392 88.0513 80.3043 88.2137C83.0501 88.4518 85.7959 88.6539 88.5453 88.8235C89.101 88.8632 89.0685 88.0512 88.5453 87.9827Z" fill="white"/>
<path d="M388.3 43.3755L351.376 76.4268L299.028 90.1567L299.394 91.5529L351.91 77.7789L352.208 77.6185L386.944 46.5265C387.318 45.5489 387.783 44.4812 388.3 43.3755Z" fill="#001A39"/>
<path d="M402.661 56.5296L404.168 58.7345L404.161 58.7443C403.958 59.0197 403.659 59.4249 403.274 59.9433C402.503 60.98 401.388 62.4693 400.01 64.2779C397.254 67.8957 393.448 72.7894 389.248 77.8951C385.047 83.0024 380.458 88.314 376.135 92.771C371.794 97.2458 367.779 100.798 364.72 102.449C361.636 104.114 356.104 105.956 349.472 107.785C342.862 109.609 335.225 111.403 327.977 112.986C320.729 114.568 313.876 115.937 308.834 116.91C306.313 117.397 304.246 117.785 302.809 118.051C302.09 118.184 301.529 118.286 301.148 118.356C300.958 118.39 300.812 118.417 300.714 118.434L300.569 118.46L300.567 118.461C300.567 118.461 300.567 118.461 300.694 119.171C300.821 119.882 300.821 119.882 300.821 119.882L300.823 119.881L300.97 119.855C301.069 119.837 301.215 119.811 301.407 119.776C301.789 119.706 302.351 119.603 303.072 119.47C304.512 119.203 306.583 118.815 309.108 118.327C314.157 117.353 321.022 115.981 328.284 114.396C335.545 112.811 343.21 111.01 349.856 109.177C356.48 107.349 362.16 105.472 365.406 103.719C368.678 101.953 372.826 98.2547 377.171 93.776C381.532 89.2794 386.149 83.9344 390.363 78.8122C394.577 73.6885 398.395 68.7799 401.158 65.1528C402.54 63.339 403.659 61.8451 404.432 60.8044C404.819 60.284 405.119 59.8768 405.323 59.5996C405.425 59.461 405.503 59.3548 405.556 59.2832L405.634 59.1761L405.635 59.1747C405.635 59.1747 405.635 59.1742 405.052 58.7491L405.635 59.1747L405.648 58.3419L403.692 55.4802C403.342 55.8504 402.997 56.2019 402.661 56.5296Z" fill="#001A39"/>
<path d="M21.8632 229.36C26.2976 230.803 30.9233 231.546 35.4912 232.431C40.2864 233.362 45.0636 234.361 49.8227 235.462C54.47 236.537 59.0848 237.724 63.6852 238.98C66.0413 239.622 68.3866 240.304 70.7247 241.015C73.1494 241.752 75.5921 242.744 78.1069 243.098C78.5904 243.166 78.9837 242.509 78.4677 242.239C76.3786 241.134 74.0081 240.571 71.7566 239.897C69.5268 239.229 67.2933 238.59 65.0563 237.955C60.2466 236.588 55.4009 235.35 50.5335 234.209C45.778 233.094 40.9972 232.08 36.1947 231.203C31.4825 230.341 26.7234 229.753 22.04 228.728C21.6251 228.634 21.4591 229.226 21.8632 229.36Z" fill="white"/>
<path d="M103.75 230.081C97.4069 220.656 87.1056 213.619 77.1976 208.386C66.9938 202.999 55.9096 199.3 44.5872 197.131C41.5311 196.547 38.4606 196.049 35.372 195.666C31.7242 195.215 27.8851 194.75 24.2445 195.471C23.7032 195.58 23.862 196.366 24.3708 196.395C27.4702 196.568 30.566 196.529 33.6618 196.843C36.7034 197.153 39.7342 197.604 42.7434 198.145C48.1015 199.109 53.4056 200.444 58.5905 202.104C69.1479 205.485 79.2399 210.364 88.2675 216.82C93.7122 220.713 99.0774 225.087 103.183 230.413C103.432 230.738 103.992 230.442 103.75 230.081Z" fill="white"/>
<path d="M74.8523 188.655C67.4592 196.089 60.0373 203.299 54.138 212.035C48.3433 220.616 44.2444 230.298 43.364 240.687C42.8769 246.432 42.7903 253.49 45.5433 258.737C45.8031 259.232 46.5068 258.874 46.4021 258.376C45.6661 254.797 44.764 251.369 44.58 247.695C44.4032 244.195 44.5872 240.687 45.1393 237.223C46.1676 230.767 48.4371 224.604 51.5725 218.88C57.7822 207.546 66.9793 198.806 75.3178 189.117C75.5884 188.803 75.1554 188.352 74.8523 188.655Z" fill="white"/>
<path d="M25.374 184.765C29.1157 182.394 32.6516 179.716 36.3789 177.324C38.2046 176.151 40.0591 175.029 41.9354 173.939C43.7106 172.91 45.861 172.146 47.362 170.738C47.7264 170.399 47.3404 169.865 46.9038 169.951C44.8977 170.363 43.0178 171.777 41.2535 172.773C39.2726 173.896 37.3242 175.076 35.4047 176.303C31.7316 178.659 28.0837 181.163 24.9735 184.249C24.7173 184.509 25.0529 184.967 25.374 184.765Z" fill="white"/>
<path fill-rule="evenodd" clip-rule="evenodd" d="M190.796 140.361L150.642 175.757L92.7148 191.94C92.644 191.944 92.5668 191.948 92.4837 191.953C91.9952 191.982 91.2993 192.026 90.4674 192.088C88.805 192.211 86.594 192.406 84.4102 192.688C82.2364 192.969 80.0508 193.342 78.4573 193.832C77.6711 194.074 76.9605 194.364 76.4667 194.728C76.2175 194.912 75.9767 195.149 75.8305 195.453C75.673 195.781 75.6471 196.147 75.774 196.506C75.8999 196.862 76.1604 197.137 76.4244 197.348C76.6967 197.564 77.0348 197.76 77.4084 197.939C78.1564 198.298 79.1385 198.634 80.2501 198.948C82.4792 199.576 85.3392 200.144 88.1461 200.622C90.9576 201.1 93.736 201.49 95.81 201.76C96.8474 201.896 97.7095 202.001 98.3126 202.073C98.6142 202.109 98.851 202.136 99.0127 202.155L99.1975 202.176L99.2614 202.183C99.2616 202.183 99.2618 202.183 99.3408 201.465C99.4199 200.748 99.4198 200.748 99.4197 200.748L99.3584 200.741L99.1766 200.721C99.0169 200.702 98.7823 200.675 98.483 200.639C97.8845 200.568 97.0279 200.463 95.9967 200.329C93.9334 200.06 91.1748 199.672 88.3879 199.199C85.5963 198.724 82.7962 198.166 80.6418 197.558C79.5616 197.254 78.6711 196.944 78.0328 196.638C77.7132 196.485 77.4798 196.343 77.323 196.218C77.2212 196.137 77.1723 196.079 77.1504 196.049C77.1745 196.017 77.2248 195.963 77.3232 195.89C77.6155 195.675 78.1355 195.442 78.8815 195.212C80.3523 194.76 82.4371 194.399 84.5953 194.119C86.7435 193.842 88.9262 193.65 90.5744 193.527C91.3978 193.466 92.0863 193.422 92.5686 193.394C92.8098 193.38 92.9992 193.369 93.1282 193.362L93.275 193.355L93.3242 193.352L93.29 192.632C93.29 192.632 93.2901 192.632 93.2901 192.632L93.6615 193.174L151.189 177.102L151.472 176.949L191.75 141.444L190.796 140.361ZM107.833 209.915L105.727 208.562C111.163 208.332 118.348 207.966 125.894 207.41C133.768 206.83 142.024 206.043 149.095 204.99C156.202 203.931 162.001 202.617 165.039 201.024C168.118 199.411 172.686 195.887 177.848 191.453C182.993 187.034 188.676 181.757 193.97 176.682C199.263 171.607 204.163 166.739 207.739 163.138C209.527 161.338 210.984 159.856 211.993 158.823C212.498 158.307 212.891 157.903 213.158 157.629L213.395 157.385L213.462 157.316L213.563 157.211L213.564 157.21C213.565 157.21 213.565 157.21 214.084 157.711C214.603 158.213 214.602 158.213 214.602 158.213L214.498 158.321C214.429 158.392 214.327 158.497 214.193 158.635C213.925 158.91 213.531 159.315 213.025 159.833C212.013 160.867 210.553 162.353 208.763 164.156C205.181 167.761 200.273 172.639 194.969 177.724C189.666 182.808 183.962 188.105 178.789 192.548C173.632 196.977 168.951 200.604 165.709 202.303C162.425 204.024 156.392 205.362 149.307 206.418C142.186 207.479 133.89 208.268 126.001 208.849C119.348 209.34 112.977 209.682 107.833 209.915Z" fill="#001A39"/>
<path d="M98.3991 87.1925C98.5615 87.1925 98.5615 86.9399 98.3991 86.9399C98.2368 86.9399 98.2368 87.1925 98.3991 87.1925Z" fill="white"/>
<path fill-rule="evenodd" clip-rule="evenodd" d="M419.449 203.156C419.457 203.142 419.466 203.128 419.474 203.114C419.611 202.79 419.746 202.471 419.878 202.155C422.331 202.719 424.783 203.282 427.236 203.846C428.05 200.59 428.864 197.335 429.674 194.079C430.094 192.393 430.512 190.706 430.931 189.02L430.932 189.015L430.933 189.012C432.077 184.4 433.222 179.787 434.393 175.183C432.775 174.773 431.157 174.357 429.544 173.928C429.083 173.807 428.599 173.699 428.105 173.59C426.697 173.277 425.22 172.949 424.052 172.236C423.89 172.138 423.966 171.908 424.143 171.897C425.524 171.801 426.97 172.187 428.365 172.56L428.365 172.56C428.857 172.692 429.344 172.822 429.818 172.929C431.442 173.292 433.063 173.664 434.684 174.045C435.804 169.661 436.952 165.286 438.15 160.927C438.254 160.54 438.828 160.703 438.741 161.093C437.861 165.145 436.97 169.194 435.992 173.232L435.735 174.293C436.65 174.508 437.575 174.711 438.504 174.914C441.643 175.601 444.823 176.298 447.754 177.53C448.039 177.649 448.046 178.15 447.675 178.121C444.548 177.87 441.456 177.041 438.401 176.223L438.401 176.223C437.514 175.985 436.631 175.749 435.75 175.527L435.455 175.452C433.141 185.015 430.811 194.574 428.474 204.13C434.31 205.472 440.145 206.818 445.979 208.174C448.166 208.682 450.363 209.172 452.563 209.664L452.568 209.665C453.444 209.86 454.32 210.056 455.197 210.253C456.871 203.219 458.552 196.178 460.603 189.265C460.715 188.879 461.263 189.045 461.198 189.427C459.94 196.513 458.248 203.543 456.501 210.547C462.272 211.854 468.033 213.24 473.646 215.03C474.022 215.149 473.863 215.676 473.488 215.611C469.532 214.932 465.628 214.031 461.723 213.13C461.349 213.044 460.976 212.958 460.603 212.872C459.127 212.533 457.651 212.192 456.176 211.851C456.014 212.497 455.852 213.144 455.69 213.79L455.69 213.791C455.154 215.929 454.618 218.066 454.094 220.201C452.838 225.307 451.579 230.413 450.291 235.509C450.016 236.595 449.75 237.689 449.485 238.785C456.493 240.403 463.496 242.098 470.298 244.31C470.673 244.433 470.514 244.952 470.139 244.891C463.089 243.721 456.099 242.005 449.14 240.217C448.283 243.76 447.403 247.312 446.239 250.737C446.026 251.354 445.16 251.101 445.272 250.47C445.913 246.912 446.848 243.383 447.787 239.868C447.11 239.693 446.432 239.518 445.755 239.343L445.725 239.335L445.723 239.335L445.723 239.335C442.853 238.592 439.988 237.85 437.125 237.143C435.919 236.845 434.712 236.547 433.506 236.25L433.502 236.249C429.441 235.246 425.381 234.244 421.328 233.216C420.495 236.538 419.648 239.883 418.805 243.212L418.804 243.216C417.45 248.56 416.106 253.865 414.848 258.976C414.693 259.6 413.726 259.333 413.881 258.708C414.448 256.412 415.07 253.721 415.685 251.059C416.038 249.535 416.388 248.02 416.724 246.594C417.803 242.02 418.904 237.451 420.019 232.884C418.899 232.602 417.778 232.32 416.657 232.039L416.656 232.039L416.655 232.038C415.315 231.702 413.976 231.366 412.636 231.027C411.95 230.854 411.231 230.702 410.502 230.549C408.588 230.147 406.604 229.731 404.958 228.858C404.796 228.771 404.875 228.519 405.052 228.515C406.906 228.5 408.865 229.046 410.748 229.571C411.474 229.773 412.189 229.973 412.881 230.135C414.207 230.447 415.534 230.761 416.86 231.075C417.995 231.343 419.13 231.611 420.265 231.879C421.081 228.544 421.904 225.211 422.731 221.879C423.241 221.95 423.694 221.995 424.095 222.017C424.034 222.267 423.972 222.516 423.911 222.766L423.909 222.776L423.172 225.784C422.653 227.901 422.122 230.04 421.585 232.189C426.015 233.233 430.44 234.3 434.864 235.367L434.865 235.367C435.724 235.574 436.583 235.782 437.442 235.989C440.319 236.682 443.214 237.346 446.113 238.01L446.114 238.01C446.795 238.166 447.477 238.323 448.158 238.479C448.454 237.371 448.745 236.265 449.024 235.159C450.316 230.063 451.604 224.968 452.874 219.865C453.563 217.102 454.226 214.329 454.887 211.553C445.983 209.489 437.084 207.391 428.199 205.254C427.115 209.685 426.031 214.115 424.945 218.544C424.605 218.213 424.225 217.871 423.815 217.523C424.674 214.078 425.537 210.633 426.399 207.189L426.958 204.956C426.294 204.796 425.629 204.635 424.965 204.475C423.128 204.031 421.289 203.593 419.449 203.156Z" fill="white"/>
<path fill-rule="evenodd" clip-rule="evenodd" d="M300.474 132.391L301.418 131.299L346.617 170.38L399.478 193.342C399.625 193.058 399.773 192.77 399.923 192.479C401.337 189.738 402.88 186.747 404.333 184.088C406.035 180.972 407.657 178.228 408.824 176.896C409.115 176.563 409.421 176.267 409.732 176.084C410.027 175.909 410.551 175.719 411.039 176.069C411.435 176.353 411.556 176.844 411.605 177.216C411.661 177.637 411.656 178.175 411.601 178.821C411.451 180.602 410.895 183.5 409.829 187.808C410.734 186.081 411.649 184.4 412.534 182.86C413.5 181.182 414.434 179.663 415.285 178.436C416.124 177.224 416.918 176.24 417.606 175.68C417.939 175.409 418.345 175.154 418.789 175.113C419.031 175.091 419.284 175.132 419.518 175.266C419.746 175.396 419.909 175.587 420.024 175.789C420.241 176.17 420.335 176.676 420.367 177.233C420.4 177.809 420.372 178.525 420.283 179.387C419.997 182.175 419.053 186.716 417.24 193.521C418.338 191.732 419.445 189.981 420.486 188.41C421.446 186.961 422.355 185.658 423.152 184.615C423.936 183.588 424.652 182.76 425.224 182.308C425.371 182.192 425.528 182.085 425.691 182.005C425.848 181.929 426.059 181.854 426.298 181.862C426.568 181.871 426.823 181.986 427.009 182.201C427.174 182.393 427.246 182.618 427.28 182.801C427.348 183.162 427.314 183.618 427.231 184.125C427.144 184.65 426.99 185.3 426.767 186.085C425.878 189.213 423.819 194.699 420.138 203.396L420.12 203.44L420.095 203.481C419.443 204.586 418.655 206.457 418.427 208.425C418.202 210.367 418.529 212.299 419.935 213.741C421.735 214.945 423.598 216.323 424.99 217.595C425.692 218.236 426.298 218.872 426.716 219.461C426.925 219.757 427.101 220.061 427.215 220.365C427.328 220.667 427.395 221.013 427.326 221.367C427.169 222.174 426.448 222.538 425.701 222.672C424.936 222.81 423.871 222.774 422.485 222.573C419.696 222.167 415.361 221.052 408.966 218.956C405.912 217.955 402.584 216.894 399.031 215.761C384.037 210.98 365.031 204.919 345.676 196.72C321.736 186.578 297.192 173.136 278.965 154.726L279.99 153.71C298.025 171.927 322.371 185.279 346.239 195.39C365.525 203.561 384.452 209.597 399.445 214.378C403.006 215.514 406.346 216.579 409.415 217.585C415.793 219.675 420.031 220.758 422.693 221.144C424.033 221.339 424.912 221.348 425.445 221.252C425.709 221.204 425.838 221.139 425.89 221.101C425.9 221.094 425.906 221.089 425.91 221.085C425.912 221.065 425.911 220.999 425.863 220.87C425.808 220.721 425.704 220.53 425.538 220.296C425.206 219.828 424.685 219.272 424.017 218.661C422.685 217.444 420.863 216.094 419.073 214.901L419.014 214.862L418.963 214.811C417.091 212.939 416.737 210.472 416.993 208.259C417.246 206.075 418.101 204.034 418.827 202.79C422.496 194.118 424.518 188.718 425.379 185.69C425.594 184.934 425.732 184.34 425.807 183.89C425.819 183.818 425.829 183.751 425.837 183.689C425.441 184.068 424.921 184.676 424.299 185.491C423.529 186.499 422.64 187.773 421.689 189.208C419.787 192.077 417.657 195.562 415.766 198.788L414.449 198.227C417.192 188.519 418.509 182.536 418.848 179.24C418.932 178.419 418.953 177.787 418.926 177.317C418.905 176.948 418.855 176.723 418.811 176.597C418.735 176.637 418.638 176.701 418.518 176.799C417.998 177.222 417.301 178.059 416.471 179.258C415.652 180.44 414.74 181.92 413.786 183.58C411.877 186.898 409.821 190.898 408.036 194.588L406.69 194.082C408.93 185.92 409.958 181.125 410.163 178.699C410.206 178.194 410.21 177.818 410.19 177.55C410.109 177.628 410.015 177.726 409.909 177.847C408.867 179.037 407.319 181.631 405.599 184.78C404.156 187.422 402.622 190.395 401.208 193.137C400.951 193.635 400.698 194.125 400.45 194.605L400.141 195.204L345.84 171.616L300.474 132.391ZM426.344 183.294C426.343 183.294 426.342 183.295 426.34 183.295C426.343 183.294 426.344 183.294 426.344 183.294Z" fill="#001A39"/>
<path fill-rule="evenodd" clip-rule="evenodd" d="M100.053 39.1969C100.093 39.1963 100.167 39.2022 100.284 39.2346C100.634 39.3313 101.138 39.5961 101.779 40.041C103.044 40.9181 104.615 42.3346 106.168 43.8596C107.713 45.3775 109.213 46.9756 110.327 48.1963C110.884 48.8061 111.344 49.3206 111.664 49.6824C111.824 49.8632 111.949 50.0059 112.034 50.1031C112.077 50.1517 112.109 50.1889 112.131 50.2139L112.156 50.242L112.163 50.2506L112.163 50.251C112.163 50.2511 112.163 50.2511 112.709 49.7788C113.255 49.3065 113.255 49.3064 113.255 49.3063L113.22 49.2665C113.197 49.2405 113.164 49.2023 113.121 49.1527C113.034 49.0535 112.907 48.9086 112.745 48.7254C112.42 48.3591 111.955 47.839 111.393 47.2229C110.269 45.9918 108.75 44.3728 107.179 42.8298C105.615 41.2938 103.972 39.8054 102.602 38.855C101.926 38.3861 101.259 38.0066 100.668 37.8433C100.37 37.7608 100.035 37.7175 99.7053 37.7909C99.3498 37.8701 99.0467 38.0757 98.843 38.3975L98.8428 38.3979C98.6412 38.7167 98.5856 39.0919 98.5836 39.4295C98.5815 39.7777 98.6365 40.1647 98.7263 40.5694C98.9062 41.3799 99.2488 42.3602 99.689 43.4283C100.572 45.5703 101.892 48.1707 103.25 50.673C104.611 53.1796 106.02 55.6056 107.089 57.4038C107.623 58.3033 108.073 59.0464 108.389 59.565C108.547 59.8243 108.671 60.0275 108.757 60.166C108.799 60.2353 108.832 60.2884 108.854 60.3243L108.888 60.379C108.888 60.3792 108.888 60.3793 109.501 59.9983C110.114 59.6174 110.114 59.6173 110.114 59.6172L110.082 59.5648C110.06 59.5297 110.028 59.4775 109.986 59.4091C109.901 59.2723 109.778 59.0709 109.621 58.8136C109.307 58.299 108.861 57.5606 108.329 56.6665C107.267 54.8777 105.867 52.4689 104.519 49.9843C103.167 47.4955 101.877 44.9485 101.023 42.8782C100.596 41.8403 100.289 40.9483 100.135 40.2566C100.058 39.9103 100.026 39.6388 100.027 39.4381C100.028 39.3075 100.043 39.2332 100.053 39.1969Z" fill="#001A39"/>
<path fill-rule="evenodd" clip-rule="evenodd" d="M103.067 48.8011L103.067 48.8012C103.462 49.5509 103.868 50.3036 104.276 51.0445L104.276 51.0445C103.868 50.3035 103.462 49.5509 103.067 48.8011ZM103.729 73.696C103.603 73.4372 103.48 73.1855 103.362 72.9413C103.661 72.4421 103.952 71.9375 104.233 71.4277C104.476 71.9332 104.741 72.4797 105.026 73.0624C106.681 76.4505 109.003 81.06 111.67 85.9474C114.338 90.8364 117.348 95.9942 120.378 100.483C123.417 104.986 126.441 108.759 129.131 110.927C131.839 113.108 136.891 115.895 143.014 118.863C149.117 121.821 156.221 124.931 162.985 127.765C169.748 130.598 176.165 133.152 180.892 134.997C183.255 135.92 185.195 136.666 186.544 137.18C187.219 137.438 187.746 137.638 188.104 137.773C188.283 137.84 188.419 137.892 188.511 137.927L188.648 137.978L188.65 137.979C188.65 137.979 188.65 137.979 188.644 137.995C188.629 138.036 188.577 138.175 188.397 138.655C188.144 139.33 188.144 139.33 188.143 139.33L188.142 139.33L188.003 139.278C187.911 139.243 187.773 139.191 187.593 139.123C187.234 138.987 186.706 138.787 186.03 138.529C184.678 138.013 182.734 137.266 180.367 136.342C175.633 134.493 169.205 131.935 162.428 129.096C155.652 126.258 148.521 123.136 142.385 120.162C136.268 117.197 131.077 114.348 128.226 112.051C125.359 109.741 122.236 105.816 119.181 101.29C116.117 96.7501 113.083 91.5491 110.403 86.6389C107.722 81.7272 105.391 77.0974 103.729 73.696ZM109.896 42.5088C109.999 43.3711 110.079 44.2321 110.135 45.0911L145.553 88.6942L145.807 88.8925L194.416 111.692L195.029 110.385L146.569 87.6558L109.896 42.5088Z" fill="#001A39"/>
<path d="M364.279 13.8672L354.507 29.0341L386.039 49.3565C386.511 45.6858 391.162 37.2817 393.737 32.8522L364.279 13.8672Z" fill="#234977"/>
<path d="M405.481 41.8349C402.982 45.7618 398.252 53.5968 397.974 57.0486L394.499 54.8089C397.991 51.7457 402.632 45.7199 405.481 41.8349Z" fill="#234977"/>
<path d="M395.483 43.931C393.473 46.814 391.546 49.8918 390.585 52.2865L388.422 50.8921C390.315 49.6965 392.994 46.8521 395.483 43.931Z" fill="#234977"/>
<path d="M400.258 58.5208C403.624 56.4293 409.668 48.4093 412.286 44.8072L453.162 71.1517L443.389 86.3186L400.258 58.5208Z" fill="#234977"/>
<path fill-rule="evenodd" clip-rule="evenodd" d="M394.81 29.9619C394.81 29.9617 394.81 29.9616 395.425 30.3387C396.041 30.7159 396.04 30.7159 396.04 30.716L396.008 30.7698C395.986 30.8059 395.953 30.8596 395.91 30.93C395.825 31.0706 395.7 31.2776 395.542 31.5419C395.226 32.0704 394.777 32.828 394.246 33.7426C393.185 35.5728 391.802 38.0277 390.509 40.5335C389.211 43.0459 388.018 45.5827 387.326 47.5843C386.977 48.5912 386.772 49.4172 386.727 50.017C386.704 50.3168 386.725 50.5173 386.761 50.6391C386.777 50.6966 386.794 50.7257 386.803 50.7376C386.807 50.7434 386.809 50.7457 386.809 50.7461C386.813 50.7482 386.999 50.8357 387.596 50.534C388.139 50.2596 388.82 49.7616 389.607 49.0737C391.171 47.7051 393.018 45.7033 394.797 43.6224C395.414 42.9012 396.02 42.1731 396.601 41.4623C397.576 40.1352 398.51 38.9155 399.299 37.9057C399.972 37.0443 400.541 36.3345 400.942 35.8396C401.143 35.5922 401.301 35.3984 401.41 35.2662C401.464 35.2002 401.506 35.1495 401.535 35.1152L401.567 35.0761L401.578 35.0627C401.578 35.0625 401.578 35.0624 402.133 35.5243C402.715 35.9508 402.715 35.9509 402.715 35.9511L402.677 36.0026C402.652 36.0363 402.616 36.086 402.568 36.1506C402.472 36.2799 402.332 36.4689 402.152 36.7085C401.793 37.1878 401.277 37.8701 400.649 38.6831C399.837 39.7358 398.835 41.0094 397.743 42.3468C397.07 43.2626 396.379 44.2286 395.705 45.2104C394.05 47.6178 392.512 50.0915 391.575 52.1397C391.105 53.1677 390.806 54.0469 390.705 54.734C390.601 55.444 390.729 55.7765 390.871 55.9239C390.936 55.9912 391.111 56.1183 391.706 55.8735C392.287 55.6346 393.038 55.1195 393.922 54.3543C395.676 52.8358 397.764 50.5014 399.785 48.0365C401.799 45.579 403.721 43.0213 405.142 41.0758C405.852 40.1036 406.435 39.2854 406.841 38.7107C407.044 38.4233 407.203 38.1969 407.31 38.0425C407.364 37.9653 407.405 37.9062 407.433 37.8664L407.464 37.8216L407.474 37.807C407.474 37.8069 407.474 37.8069 408.068 38.2163C408.667 38.6189 408.667 38.6189 408.667 38.619L408.633 38.67C408.61 38.7042 408.576 38.7552 408.532 38.822C408.443 38.9555 408.313 39.1521 408.148 39.4034C407.818 39.9059 407.349 40.627 406.795 41.4997C405.686 43.246 404.235 45.5951 402.866 48.0129C401.494 50.4368 400.218 52.9045 399.447 54.8946C399.059 55.8942 398.814 56.7338 398.735 57.3677C398.649 58.0571 398.788 58.2565 398.821 58.2868C398.822 58.2869 398.822 58.2871 398.822 58.2874C398.826 58.2913 398.841 58.3075 398.917 58.3056C399.017 58.303 399.184 58.267 399.431 58.1527C399.926 57.9232 400.568 57.4613 401.326 56.7895C402.828 55.4563 404.62 53.4469 406.355 51.3362C408.085 49.2321 409.737 47.0537 410.957 45.3994C411.567 44.5728 412.069 43.878 412.418 43.3903C412.592 43.1465 412.728 42.9545 412.821 42.8236C412.867 42.7582 412.902 42.7081 412.926 42.6744L412.952 42.6365L412.961 42.6247L412.961 42.6242C412.961 42.6241 412.961 42.6241 413.553 43.0374C414.144 43.4507 414.144 43.4508 414.144 43.451L414.143 43.4517L414.107 43.504C414.082 43.5387 414.046 43.5899 414 43.6564C413.906 43.7894 413.768 43.9838 413.592 44.2301C413.239 44.7227 412.734 45.4232 412.119 46.2565C410.89 47.9221 409.222 50.1223 407.47 52.2529C405.724 54.3768 403.874 56.4582 402.283 57.8694C401.494 58.5697 400.726 59.1434 400.037 59.4625C399.388 59.7632 398.525 59.9577 397.86 59.3631C397.25 58.8178 397.209 57.9416 397.303 57.1891C397.404 56.3813 397.697 55.4129 398.101 54.3726C398.652 52.9507 399.438 51.3202 400.32 49.6546C398.464 51.8806 396.542 53.9953 394.867 55.4456C393.948 56.2409 393.055 56.8794 392.255 57.2086C391.468 57.5319 390.523 57.6413 389.833 56.9265C389.22 56.2918 389.151 55.3845 389.277 54.5237C389.408 53.64 389.77 52.6175 390.263 51.5394C390.565 50.8789 390.923 50.1818 391.323 49.4631C391.062 49.7085 390.807 49.9415 390.557 50.1601C389.739 50.876 388.95 51.4667 388.247 51.8222C387.598 52.1503 386.762 52.4084 386.058 51.9784C385.319 51.5276 385.233 50.6266 385.287 49.9085C385.347 49.1222 385.6 48.1572 385.962 47.1121C386.689 45.0097 387.921 42.3986 389.226 39.8712C390.534 37.3372 391.93 34.8603 392.998 33.0186C393.532 32.0973 393.984 31.3339 394.304 30.8005C394.463 30.5338 394.589 30.3246 394.676 30.1817C394.719 30.1103 394.753 30.0555 394.775 30.0185L394.81 29.9619ZM408.068 38.2163L408.667 38.619L407.474 37.807L408.068 38.2163ZM402.133 35.5243L402.715 35.9511L401.578 35.0624L402.133 35.5243Z" fill="#001A39"/>
</svg>
