<svg width="696" height="540" viewBox="0 0 696 540" fill="none" xmlns="http://www.w3.org/2000/svg">
<path d="M423.406 37.9335L640.329 92.685C680.39 102.796 714.535 128.927 734.763 164.954C760.385 210.591 760.469 266.26 734.983 311.973L698.193 377.963C650.167 464.104 561.096 519.37 462.588 524.15L301.392 531.971C202.41 536.774 111.318 478.137 74.7045 386.05C39.3236 297.063 62.2908 195.48 132.512 130.369L159.452 105.391C230.339 39.6624 329.675 14.2758 423.406 37.9335Z" fill="#FFEDDC"/>
<path fill-rule="evenodd" clip-rule="evenodd" d="M243.818 73.6581C243.682 74.3501 243.578 75.0551 243.51 75.7718C243.379 77.1415 243.384 78.4902 243.501 79.8095C244.426 89.868 252.388 98.1744 262.816 99.1744C274.61 100.305 285.089 91.6621 286.219 79.8683C286.761 74.213 285.055 68.8561 281.828 64.6881C278.328 60.1714 273.051 57.0537 266.912 56.4655C261.298 55.9274 255.981 57.6055 251.829 60.7837C250.502 63.1964 249.888 65.6005 249.636 67.6501C249.25 70.7519 246.858 73.1899 243.818 73.6581Z" fill="#FBC73B"/>
<path fill-rule="evenodd" clip-rule="evenodd" d="M235.884 74.1854C235.828 74.4594 235.785 74.7391 235.758 75.0238C235.712 75.5196 235.712 76.0112 235.754 76.4902C236.09 80.1456 238.985 83.1622 242.77 83.5235C247.056 83.9353 250.858 80.7967 251.27 76.5112C251.467 74.4608 250.846 72.5112 249.673 70.9986C249.425 70.677 249.152 70.375 248.856 70.0957C247.748 72.1513 245.643 73.5712 243.195 73.7256L235.884 74.1854Z" fill="#FBC73B"/>
<path d="M598.059 36H532.515V101.544H598.059V36Z" fill="#001A39"/>
<path d="M488 102V36H549.95C568.176 36 583 50.8022 583 69C583 87.1978 568.176 102 549.95 102H488Z" fill="#BACADF"/>
<path d="M421.055 366.787L375 443.85L441.985 483.882L488.04 406.819L421.055 366.787Z" fill="#FFD2A8"/>
<path d="M524.57 259.393H606L565.287 191.135L524.57 259.393Z" fill="#001A39"/>
<path d="M421.131 366.823L488.045 406.818L488.117 330.728L421.131 366.823Z" fill="#FFA574"/>
<path d="M565.287 438.438C585.482 438.438 601.853 422.067 601.853 401.872C601.853 381.677 585.482 365.306 565.287 365.306C545.092 365.306 528.721 381.677 528.721 401.872C528.721 422.067 545.092 438.438 565.287 438.438Z" fill="#001A39"/>
<path d="M469.463 190.428L454.986 257.066L544.404 276.493L558.882 209.855L469.463 190.428Z" fill="#AF687D"/>
<path d="M415.621 177.868L400.926 245.507L454.995 257.253L469.69 189.615L415.621 177.868Z" fill="#742A40"/>
<path d="M286.618 56.4913C286.148 61.3903 281.795 64.9784 276.896 64.512C272.564 64.0961 269.257 60.6466 268.871 56.4661C268.82 55.9156 268.82 55.3569 268.875 54.7897C269.346 49.8907 273.698 46.3024 278.597 46.7688C281.148 47.0125 283.341 48.3067 284.794 50.1848C286.135 51.9159 286.841 54.1426 286.618 56.4913Z" fill="#001A39"/>
<path d="M272.156 52.5876C271.87 55.5707 269.219 57.7597 266.232 57.474C263.593 57.2219 261.576 55.1212 261.345 52.5751C261.316 52.239 261.316 51.8986 261.349 51.554C261.635 48.5709 264.287 46.3819 267.274 46.6677C268.828 46.8147 270.164 47.6045 271.047 48.7473C271.862 49.8019 272.291 51.1549 272.156 52.5876Z" fill="#001A39"/>
<path fill-rule="evenodd" clip-rule="evenodd" d="M280.395 92.1682C280.395 92.1681 280.394 92.168 280.093 92.9524C279.792 93.7368 279.791 93.7367 279.791 93.7365L279.79 93.7362L279.788 93.7355L279.783 93.7335L279.768 93.7276C279.757 93.7229 279.741 93.7165 279.721 93.7083C279.682 93.692 279.629 93.6689 279.562 93.6385C279.43 93.578 279.247 93.4886 279.032 93.3684C278.605 93.1295 278.037 92.7613 277.492 92.2461C276.389 91.2048 275.344 89.5189 275.806 87.145L277.456 87.466C277.136 89.1088 277.822 90.2464 278.646 91.0243C279.064 91.4187 279.508 91.7092 279.852 91.9014C280.023 91.9968 280.165 92.0661 280.262 92.1104C280.31 92.1325 280.347 92.1483 280.37 92.1579C280.381 92.1626 280.389 92.1659 280.393 92.1675L280.396 92.1687L280.396 92.1684L280.395 92.1682Z" fill="#001A39"/>
<path d="M282.279 84.6181C282.472 82.6086 281.593 80.8802 280.316 80.7576C279.038 80.6351 277.847 82.1648 277.654 84.1744C277.461 86.1839 278.34 87.9123 279.617 88.0349C280.895 88.1574 282.087 86.6277 282.279 84.6181Z" fill="#001A39"/>
<path d="M273.567 83.9789C273.76 81.9694 272.881 80.2409 271.604 80.1184C270.326 79.9958 269.135 81.5256 268.942 83.5351C268.749 85.5446 269.628 87.2727 270.905 87.3952C272.183 87.5178 273.375 85.9884 273.567 83.9789Z" fill="#001A39"/>
<path d="M63.2168 262.578L22.3015 245.15L0 328.828L38.1961 270.414L65.7837 282.019" fill="#001A39"/>
<path fill-rule="evenodd" clip-rule="evenodd" d="M31.6551 291.14L24.1514 277.947L25.6122 277.116L33.116 290.309L31.6551 291.14Z" fill="white"/>
<path fill-rule="evenodd" clip-rule="evenodd" d="M28.3487 297.379L20.8486 284.19L22.3096 283.359L29.8096 296.548L28.3487 297.379Z" fill="white"/>
<path fill-rule="evenodd" clip-rule="evenodd" d="M34.9573 284.896L27.4531 271.703L28.914 270.873L36.4181 284.065L34.9573 284.896Z" fill="white"/>
<path d="M144.088 379.701L103.711 396.062L146.395 469.375L132.236 402.486L159.361 391.356" fill="#001A39"/>
<path fill-rule="evenodd" clip-rule="evenodd" d="M142.099 421.368L127.755 417.465L128.196 415.843L142.54 419.746L142.099 421.368Z" fill="white"/>
<path fill-rule="evenodd" clip-rule="evenodd" d="M144.153 427.977L129.809 424.069L130.251 422.448L144.595 426.355L144.153 427.977Z" fill="white"/>
<path fill-rule="evenodd" clip-rule="evenodd" d="M140.048 414.763L125.704 410.855L126.146 409.234L140.49 413.141L140.048 414.763Z" fill="white"/>
<path d="M197.448 175.433C152.193 183.601 139.307 275.813 139.307 275.813L69.2961 251.179C69.2961 251.179 53.4224 251.494 46.8091 277.712C41.5824 298.426 54.0905 307.32 54.0905 307.32L134.168 334.66C155.34 340.416 175.949 333.673 184.583 313.505C196.545 285.569 209.439 259.666 209.439 259.666L228.762 331.521L143.803 368.252C143.803 368.252 137.143 383.352 145.324 399.238C154.811 417.662 174.591 415.33 174.591 415.33L265.131 375.671C284.467 367.201 295.008 346.143 290.198 325.585C280.874 285.754 264.82 228.482 256.489 207.281C246.439 181.736 219.725 171.408 197.448 175.433Z" fill="#F96155"/>
<path d="M219.754 176.462C220.216 180.164 220.708 183.954 220.057 187.664C219.212 192.458 216.624 196.705 213.217 200.125C206.843 206.52 198.255 210.037 190.566 214.52C183.394 218.701 176.356 224.65 173.356 232.616C170.205 240.982 173.709 248.788 179.058 255.288C182.482 259.447 186.297 263.237 189.427 267.645C192.747 272.321 195.339 277.426 198.007 282.485C198.423 283.27 199.683 282.732 199.44 281.88C196.768 272.645 190.839 264.846 184.511 257.788C178.419 250.99 172.155 243.204 175.621 233.557C178.675 225.053 186.742 219.39 194.284 215.154C201.729 210.974 209.813 207.218 215.569 200.705C218.771 197.084 221.158 192.731 221.826 187.903C222.376 183.912 221.54 180.214 220.876 176.311C220.771 175.685 219.674 175.824 219.754 176.462Z" fill="#001A39"/>
<path d="M257.018 209.533C254.127 215.991 249.674 221.6 246.409 227.865C243.439 233.57 241.913 239.734 242.136 246.188C242.577 258.881 249.619 270.923 260.291 277.796C265.85 281.376 272.635 283.212 279.21 282.09C280.076 281.943 279.824 280.641 279.009 280.611C273.211 280.397 267.715 279.645 262.619 276.687C257.497 273.717 253.069 269.17 249.875 264.208C243.044 253.595 242.153 239.612 247.876 228.327C251.039 222.088 255.224 216.394 257.9 209.903C258.106 209.403 257.241 209.033 257.018 209.533Z" fill="#001A39"/>
<path d="M215.569 279.792C227.027 278.204 238.825 281.766 247.287 289.707C254.619 296.585 260.266 307.43 259.245 317.723C258.64 323.854 254.484 327.828 249.904 331.437C245.745 334.715 241.514 337.904 237.451 341.298C229.603 347.853 221.952 355.386 217.531 364.764C213.061 374.247 211.41 387.453 217.368 396.705C217.851 397.452 219.25 396.986 218.889 396.062C214.67 385.327 215.116 373.718 220.767 363.541C226.187 353.781 234.746 346.29 243.376 339.429C247.649 336.03 252.384 332.916 256.195 328.988C259.984 325.08 261.778 320.274 261.568 314.841C261.186 304.921 256.144 295.195 248.98 288.468C239.943 279.977 227.38 276.632 215.221 278.523C214.376 278.649 214.742 279.905 215.569 279.792Z" fill="#001A39"/>
<path d="M288.034 316.619C277.421 319.119 271.446 330.16 268.85 339.946C266.085 350.378 266.236 362.798 270.518 372.827C270.858 373.625 271.984 373.02 271.841 372.268C270.875 367.168 269.765 362.235 269.471 357.025C269.177 351.84 269.547 346.614 270.732 341.551C272.929 332.156 278.286 320.602 288.32 317.639C288.975 317.45 288.702 316.459 288.034 316.619Z" fill="#001A39"/>
<path d="M195.019 346C199.343 360.289 195.65 376.789 184.44 386.973C179.238 391.7 172.671 394.797 165.722 395.826C157.974 396.978 150.088 395.07 143.075 391.805C142.323 391.457 141.672 392.503 142.416 392.936C153.357 399.33 166.092 400.36 177.545 394.62C188.402 389.175 195.872 378.696 198.137 366.831C199.481 359.777 199.129 352.311 196.381 345.626C196.04 344.815 194.746 345.109 195.019 346Z" fill="#001A39"/>
<path d="M146.122 244.469C152.521 248.708 156.844 255.431 159.891 262.347C162.848 269.053 165.033 276.443 165.453 283.779C165.957 292.535 163.395 300.749 156.412 306.379C149.471 311.976 140.551 314.039 132.055 315.984C124.833 317.635 114.518 318.786 111.173 326.564C110.699 327.673 112.232 328.66 112.841 327.538C114.732 324.064 118.165 322.286 121.807 321.139C126.248 319.74 130.828 318.82 135.357 317.757C143.836 315.766 152.466 313.177 159.134 307.295C172.008 295.934 168.613 276.825 162.546 262.788C159.18 255.002 154.097 247.868 146.677 243.528C146.063 243.167 145.542 244.083 146.122 244.469Z" fill="#001A39"/>
<path d="M120.732 270.242C119.908 276.578 116.404 283.048 111.585 287.241C105.56 292.48 97.77 292.754 90.7996 289.245C84.0435 285.842 78.4053 280.237 73.4222 274.641C68.1408 268.708 63.8718 262.099 59.3761 255.582C59.061 255.129 58.1786 255.397 58.4139 255.99C60.8928 262.225 64.6745 267.847 68.8719 273.048C73.065 278.241 77.7789 283.145 83.0813 287.216C88.077 291.052 94.0979 294.27 100.568 294.14C106.392 294.022 111.728 291.002 115.442 286.611C117.484 284.199 119.215 281.317 120.467 278.414C121.631 275.72 121.656 273.132 121.795 270.246C121.828 269.54 120.816 269.582 120.732 270.242Z" fill="#001A39"/>
<path d="M75.83 314.19C72.2334 308.509 67.5909 303.711 62.465 299.379C60.0659 297.354 57.5531 295.447 54.9481 293.699C52.2885 291.913 49.2805 289.901 46.1125 289.187C45.5033 289.048 44.9106 289.85 45.4568 290.313C47.7761 292.283 50.633 293.682 53.1833 295.338C55.9522 297.136 58.5992 299.098 61.1495 301.195C66.1872 305.329 70.7253 310.022 75.5066 314.442C75.6705 314.593 75.9602 314.396 75.83 314.19Z" fill="#001A39"/>
<path fill-rule="evenodd" clip-rule="evenodd" d="M222.769 234.292L209.555 263.799L208.021 263.113L221.236 233.605L222.769 234.292Z" fill="white"/>
<path fill-rule="evenodd" clip-rule="evenodd" d="M266.839 80.6838L272.288 78.2847L272.965 79.8228L267.516 82.2219L266.839 80.6838Z" fill="#001A39"/>
<path fill-rule="evenodd" clip-rule="evenodd" d="M283.673 74.556L278.568 72.5898L279.172 71.0215L284.277 72.9877L283.673 74.556Z" fill="#001A39"/>
<path d="M301.723 129.519L428.257 181.576C428.257 181.576 440.278 179.778 444.303 179.971C450.878 180.29 468.231 184.723 469.907 186.135C472.491 188.311 472.47 190.202 472.47 190.202L451.912 187.462C451.912 187.462 445.597 196.101 446.37 198.613C447.727 203.029 460.454 201.454 460.487 205.605C460.521 209.752 447.987 211.512 421.223 207.546C399.674 204.353 291.362 165.005 291.362 165.005" fill="#FFEDDC"/>
<path fill-rule="evenodd" clip-rule="evenodd" d="M428.017 182.159L301.483 130.102L301.962 128.936L428.336 180.927C428.424 180.915 428.543 180.897 428.691 180.876C429.029 180.827 429.515 180.757 430.111 180.674C431.304 180.508 432.936 180.289 434.695 180.076C438.188 179.652 442.257 179.242 444.333 179.342C447.688 179.505 453.724 180.707 459.093 182.032C461.787 182.696 464.332 183.396 466.313 184.02C467.303 184.332 468.16 184.627 468.828 184.892C469.464 185.145 470.014 185.401 470.313 185.653C471.677 186.802 472.379 187.898 472.737 188.737C472.916 189.155 473.007 189.505 473.053 189.76C473.076 189.887 473.088 189.99 473.094 190.066C473.097 190.104 473.099 190.136 473.1 190.159C473.1 190.171 473.1 190.182 473.101 190.19L473.101 190.201L473.101 190.205L473.101 190.207V190.208C473.101 190.209 473.101 190.209 472.47 190.202L473.101 190.209L472.387 190.827L452.203 188.137C452.188 188.158 452.172 188.181 452.156 188.204C451.987 188.442 451.745 188.786 451.458 189.207C450.882 190.05 450.124 191.197 449.392 192.42C448.657 193.646 447.958 194.931 447.492 196.053C447.259 196.615 447.091 197.118 447.004 197.541C446.913 197.977 446.922 198.263 446.973 198.428C447.222 199.241 448.028 199.875 449.372 200.398C450.696 200.912 452.357 201.249 454.05 201.591L454.095 201.6C455.738 201.931 457.423 202.271 458.699 202.8C459.963 203.324 461.106 204.153 461.118 205.6C461.129 207.026 460.044 208.075 458.38 208.794C456.696 209.522 454.213 210.013 450.949 210.247C444.408 210.714 434.532 210.155 421.131 208.17C415.685 207.363 404.825 204.287 391.653 200.153C378.46 196.013 362.895 190.793 348.007 185.674C333.118 180.555 318.903 175.536 308.411 171.797C303.165 169.927 298.849 168.378 295.844 167.295C294.342 166.754 293.168 166.33 292.369 166.041C291.97 165.896 291.664 165.785 291.459 165.711L291.148 165.598C291.147 165.598 291.147 165.598 291.362 165.005C291.577 164.413 291.578 164.413 291.578 164.413L291.888 164.526C292.094 164.6 292.399 164.711 292.798 164.855C293.596 165.144 294.77 165.568 296.272 166.109C299.275 167.191 303.589 168.74 308.834 170.61C319.324 174.348 333.534 179.365 348.417 184.482C363.3 189.6 378.853 194.815 392.03 198.951C405.227 203.092 415.987 206.133 421.316 206.923C434.679 208.903 444.452 209.447 450.86 208.989C454.071 208.76 456.388 208.282 457.88 207.637C459.394 206.983 459.862 206.258 459.857 205.61C459.852 204.981 459.391 204.451 458.217 203.965C457.067 203.488 455.499 203.169 453.8 202.826L453.764 202.819C452.112 202.486 450.35 202.13 448.915 201.573C447.491 201.019 446.196 200.194 445.768 198.799C445.625 198.336 445.662 197.803 445.769 197.285C445.879 196.755 446.078 196.171 446.328 195.57C446.828 194.365 447.563 193.019 448.31 191.772C449.06 190.521 449.833 189.352 450.417 188.496C450.709 188.068 450.955 187.718 451.128 187.474C451.215 187.352 451.283 187.257 451.33 187.192C451.353 187.159 451.371 187.134 451.384 187.117L451.402 187.093L451.403 187.091L451.403 187.091C451.403 187.091 451.403 187.091 451.912 187.463L451.403 187.091L451.995 186.838L471.668 189.459C471.642 189.388 471.612 189.312 471.578 189.232C471.301 188.582 470.721 187.644 469.501 186.617C469.382 186.516 469.022 186.325 468.363 186.064C467.735 185.815 466.91 185.53 465.935 185.222C463.986 184.608 461.467 183.916 458.791 183.255C453.422 181.931 447.493 180.757 444.273 180.601C442.324 180.507 438.37 180.9 434.847 181.327C433.097 181.539 431.473 181.757 430.285 181.923C429.692 182.005 429.207 182.074 428.872 182.123C428.704 182.147 428.574 182.167 428.485 182.18L428.351 182.199C428.351 182.199 428.35 182.2 428.257 181.576L428.35 182.2L428.017 182.159Z" fill="#001A39"/>
<path d="M295.928 147.505C292.05 160.161 278.652 167.274 265.997 163.4L214.595 147.653C201.94 143.774 194.827 130.376 198.7 117.72C202.578 105.065 215.977 97.952 228.632 101.826L280.034 117.573C292.689 121.451 299.807 134.85 295.928 147.505Z" fill="#001A39"/>
<path d="M491 102C509.225 102 524 87.2254 524 69C524 50.7746 509.225 36 491 36C472.775 36 458 50.7746 458 69C458 87.2254 472.775 102 491 102Z" fill="#194D87"/>
<path fill-rule="evenodd" clip-rule="evenodd" d="M254.022 48.4954C256.329 48.4617 258.363 48.4827 260.116 48.5334L260.217 48.5445C261.051 48.7054 261.686 48.9703 262.109 49.3625C262.562 49.7818 262.724 50.3032 262.672 50.8218C262.624 51.3051 262.396 51.7504 262.144 52.1088C261.887 52.4744 261.572 52.7987 261.278 53.0473L261.159 53.1271C258.559 54.4644 255.847 56.2919 253.976 58.6736C251.555 61.7648 250.591 65.052 250.261 67.7274L250.261 67.728C249.812 71.3376 246.87 74.1254 243.234 74.3547L189.43 77.7393L209.013 99.5434L208.076 100.386L187.623 77.6131L188.052 76.563L243.155 73.0967C246.182 72.9058 248.635 70.5849 249.01 67.5731M254.022 48.4954C248.802 48.5687 244.963 50.1515 242.423 51.7275C241.154 52.5146 240.211 53.2989 239.582 53.8906C239.267 54.1866 239.031 54.4347 238.871 54.6113C238.864 54.6187 238.858 54.6261 238.851 54.6333C238.684 54.6166 238.453 54.5938 238.164 54.5659C237.502 54.5019 236.532 54.4105 235.296 54.3006C232.824 54.0809 229.29 53.787 225.036 53.4907C216.531 52.898 205.147 52.2949 193.639 52.2541C182.139 52.2134 170.484 52.734 161.451 54.399C156.937 55.2308 153.038 56.3553 150.132 57.8619C147.236 59.3634 145.212 61.3054 144.678 63.8219C143.51 69.3152 145.732 76.2018 149.553 83.331C153.391 90.4925 158.92 98.0356 164.572 104.899C170.226 111.766 176.018 117.972 180.395 122.459C182.584 124.704 184.42 126.519 185.71 127.774C186.354 128.402 186.862 128.889 187.21 129.22C187.383 129.386 187.517 129.512 187.607 129.597C187.634 129.623 187.657 129.645 187.677 129.663L187.736 129.718L187.742 129.724L187.744 129.726C187.744 129.726 187.745 129.727 188.175 129.266C188.606 128.806 188.605 128.806 188.605 128.805L188.572 128.775C188.55 128.754 188.516 128.722 188.472 128.68C188.383 128.596 188.251 128.472 188.079 128.308C187.735 127.98 187.23 127.495 186.589 126.871C185.306 125.622 183.478 123.815 181.297 121.579C176.936 117.108 171.17 110.929 165.545 104.098C159.917 97.2628 154.446 89.7925 150.664 82.7355C146.864 75.6461 144.843 69.1093 145.911 64.084C146.331 62.1079 147.955 60.41 150.712 58.981C153.459 57.5573 157.218 56.4608 161.679 55.6385C170.595 53.9951 182.157 53.474 193.635 53.5146C205.105 53.5552 216.459 54.1566 224.949 54.7481C229.193 55.0438 232.719 55.337 235.184 55.5562C236.417 55.6658 237.384 55.7568 238.043 55.8205C238.372 55.8523 238.624 55.8773 238.794 55.8943C238.879 55.9028 238.943 55.9093 238.986 55.9137L239.049 55.9202C239.05 55.9202 239.05 55.9203 239.115 55.2934L239.05 55.9203L239.61 55.683C239.61 55.683 239.61 55.6832 239.61 55.683L239.61 55.6828L239.611 55.6825L239.618 55.6736C239.623 55.6677 239.63 55.6591 239.639 55.6481C239.643 55.6431 239.648 55.6375 239.653 55.6315C239.685 55.5929 239.736 55.5338 239.806 55.4571C239.944 55.3037 240.157 55.08 240.446 54.8088C241.022 54.2664 241.9 53.5356 243.087 52.7986C245.46 51.3265 249.078 49.8254 254.039 49.7558C256.305 49.7226 258.305 49.7427 260.027 49.7918C260.721 49.9312 261.079 50.1263 261.253 50.2868C261.4 50.4239 261.432 50.55 261.418 50.6966C261.399 50.8785 261.301 51.116 261.112 51.3846C260.943 51.6259 260.727 51.8549 260.516 52.0407C257.857 53.4152 254.997 55.333 252.985 57.8957L252.984 57.8962C250.39 61.208 249.361 64.727 249.01 67.5725" fill="#001A39"/>
<path fill-rule="evenodd" clip-rule="evenodd" d="M247.831 71.5273C248.749 72.9967 249.022 74.4358 249.022 74.4358L257.199 77.0829L259.379 64.3059C272.854 68.1209 280.896 64.0201 280.896 64.0201C278.831 58.407 271.597 52.7056 261.858 51.3633C261.63 51.8238 261.234 52.2584 260.871 52.5669C258.232 53.924 255.43 55.802 253.48 58.2851C250.972 61.4867 249.976 64.89 249.636 67.6504C249.45 69.1458 248.797 70.4868 247.831 71.5273Z" fill="#001A39"/>
<path d="M250.678 49.3945C250.678 49.3945 245.426 50.7056 242.397 57.2222L250.678 49.3945Z" fill="white"/>
<path fill-rule="evenodd" clip-rule="evenodd" d="M250.525 48.7832C250.525 48.7831 250.525 48.783 250.678 49.3945C250.831 50.006 250.831 50.0059 250.831 50.0058L250.826 50.0073C250.819 50.0091 250.807 50.0122 250.791 50.0168C250.759 50.026 250.708 50.0411 250.641 50.063C250.507 50.1067 250.305 50.1776 250.052 50.283C249.546 50.4939 248.833 50.8423 248.026 51.3869C246.416 52.4741 244.428 54.3469 242.968 57.4878L241.825 56.9565C243.394 53.5808 245.547 51.5398 247.321 50.3423C248.206 49.7446 248.995 49.3579 249.568 49.1194C249.854 49 250.087 48.9176 250.252 48.8642C250.334 48.8375 250.399 48.818 250.445 48.8048C250.468 48.7982 250.487 48.7932 250.5 48.7896L250.517 48.7853L250.522 48.7839L250.524 48.7834L250.525 48.7832Z" fill="#001A39"/>
<path d="M258.602 49.0923C258.602 49.0923 249.813 49.4199 246.317 58.6802L258.602 49.0923Z" fill="white"/>
<path fill-rule="evenodd" clip-rule="evenodd" d="M258.578 48.4624C258.578 48.4624 258.578 48.4624 258.602 49.0922C258.625 49.722 258.626 49.722 258.626 49.7219L258.624 49.722L258.61 49.7227C258.597 49.7234 258.576 49.7247 258.547 49.7267C258.489 49.7309 258.401 49.7382 258.286 49.7508C258.055 49.7761 257.716 49.8224 257.297 49.9061C256.458 50.0737 255.3 50.3901 254.038 50.9838C251.524 52.1667 248.586 54.4525 246.906 58.9027L245.727 58.4575C247.543 53.6474 250.747 51.1392 253.502 49.8433C254.874 49.1975 256.133 48.8532 257.05 48.67C257.51 48.5783 257.885 48.5267 258.149 48.4978C258.281 48.4834 258.385 48.4747 258.457 48.4695C258.494 48.4669 258.522 48.4652 258.542 48.4641L258.567 48.4629L258.574 48.4625L258.577 48.4624L258.578 48.4624Z" fill="#001A39"/>
</svg>
