<svg width="519" height="540" viewBox="0 0 519 540" fill="none" xmlns="http://www.w3.org/2000/svg">
<path fill-rule="evenodd" clip-rule="evenodd" d="M403.556 114.713L402.499 114.508L404.424 115.349C404.647 115.044 404.874 114.734 405.104 114.42C407.398 111.29 409.96 107.793 412.309 104.75C414.629 101.746 416.668 99.2833 418.016 98.0244C417.942 98.3184 417.844 98.6593 417.72 99.0513C416.712 102.234 414.153 108.2 409.347 118.112L411.14 119.273C414.092 115.758 416.944 112.737 419.155 110.798C420.271 109.819 421.167 109.167 421.795 108.851C421.823 108.837 421.85 108.824 421.876 108.812C421.837 109.108 421.745 109.513 421.576 110.045C421.187 111.272 420.442 113.019 419.248 115.38C416.865 120.092 412.765 127.115 406.39 137.07L406.423 138.279L407.297 137.65C406.423 138.279 406.423 138.279 406.423 138.279L406.449 138.315L406.526 138.423C406.595 138.518 406.697 138.661 406.829 138.848C407.095 139.222 407.485 139.774 407.981 140.482C408.972 141.899 410.385 143.942 412.071 146.446C415.445 151.454 419.906 158.299 424.266 165.652C428.629 173.01 432.874 180.851 435.826 187.856C437.303 191.359 438.445 194.629 439.12 197.509C439.799 200.406 439.984 202.823 439.625 204.657C439.279 206.43 438.108 208.411 436.167 210.549C434.237 212.673 431.622 214.87 428.529 217.081C422.342 221.501 414.359 225.89 406.428 229.779C398.504 233.665 390.668 237.035 384.794 239.421C381.858 240.614 379.415 241.559 377.701 242.198C376.844 242.519 376.173 242.76 375.716 242.918C375.485 242.997 375.318 243.052 375.212 243.084C375.186 243.092 375.166 243.098 375.152 243.102C375.136 243.106 375.131 243.107 375.133 243.107C375.135 243.107 375.141 243.105 375.151 243.103C375.161 243.101 375.181 243.098 375.208 243.094C375.23 243.092 375.29 243.085 375.37 243.088C375.411 243.09 375.512 243.103 375.57 243.115C375.656 243.139 375.865 243.232 375.98 243.309L374.665 245.014C374.781 245.092 374.991 245.186 375.079 245.211C375.14 245.223 375.242 245.236 375.286 245.239C375.372 245.242 375.441 245.234 375.471 245.231C375.539 245.222 375.596 245.209 375.626 245.202C375.694 245.187 375.768 245.165 375.837 245.144C375.982 245.1 376.178 245.035 376.417 244.953C376.898 244.787 377.587 244.539 378.454 244.215C380.189 243.568 382.651 242.615 385.604 241.415C391.51 239.017 399.395 235.626 407.376 231.712C415.349 227.802 423.454 223.352 429.78 218.832C432.943 216.573 435.69 214.275 437.76 211.996C439.817 209.73 441.282 207.399 441.738 205.07C442.181 202.802 441.924 200.04 441.216 197.018C440.504 193.979 439.313 190.588 437.81 187.02C434.803 179.885 430.502 171.948 426.118 164.554C421.73 157.155 417.245 150.273 413.857 145.243C412.163 142.728 410.742 140.674 409.745 139.248C409.253 138.545 408.864 137.995 408.595 137.617C414.762 127.963 418.787 121.062 421.169 116.351C422.382 113.951 423.188 112.085 423.628 110.696C423.848 110.003 423.99 109.39 424.035 108.865C424.077 108.371 424.05 107.79 423.751 107.302C423.39 106.712 422.792 106.497 422.235 106.513C421.746 106.527 421.258 106.712 420.828 106.928C419.948 107.371 418.887 108.17 417.735 109.18C416.75 110.044 415.656 111.101 414.495 112.302C417.304 106.264 418.977 102.212 419.772 99.701C420.038 98.8599 420.218 98.1558 420.304 97.5882C420.38 97.0838 420.422 96.4665 420.186 95.9579C420.044 95.6528 419.787 95.3573 419.39 95.2109C419.023 95.0758 418.676 95.1198 418.432 95.1868C417.972 95.3133 417.526 95.6204 417.148 95.9256C415.598 97.1767 413.179 100.102 410.606 103.434C408.934 105.6 407.157 107.991 405.45 110.311C405.681 108.975 405.931 107.465 406.161 105.95C406.502 103.701 406.803 101.414 406.926 99.6566C406.988 98.7856 407.009 97.9974 406.958 97.3947C406.933 97.1013 406.886 96.7831 406.785 96.5025C406.706 96.2862 406.459 95.7161 405.803 95.5628C405.348 95.4564 404.987 95.641 404.827 95.7418C404.647 95.8544 404.503 95.9966 404.396 96.1132C404.179 96.3521 403.956 96.6722 403.737 97.0188C403.291 97.7242 402.745 98.7267 402.132 99.8974C401.668 100.785 401.164 101.773 400.626 102.827C399.722 104.6 398.721 106.562 397.653 108.55C395.956 111.709 394.144 114.832 392.403 117.161C391.532 118.328 390.707 119.256 389.953 119.885C389.177 120.533 388.605 120.757 388.224 120.764C387.091 120.784 386.052 120.287 385.036 119.398C384.01 118.499 383.091 117.273 382.217 115.994C381.999 115.674 381.78 115.345 381.562 115.018C380.946 114.093 380.336 113.177 379.764 112.501C379.372 112.037 378.918 111.585 378.396 111.303C377.83 110.997 377.14 110.874 376.432 111.185C375.87 111.432 375.599 111.929 375.467 112.314C375.332 112.71 375.279 113.163 375.265 113.615C375.237 114.525 375.364 115.691 375.579 116.98C376.011 119.573 376.84 122.886 377.743 126.126C378.649 129.375 379.639 132.583 380.401 134.976C380.782 136.173 381.107 137.168 381.337 137.864C381.452 138.212 381.543 138.486 381.605 138.672C381.636 138.765 381.661 138.837 381.677 138.886L381.701 138.958L381.702 138.959C381.702 138.96 381.702 138.96 382.721 138.614L381.702 138.959L381.747 139.071L407.864 194.762L373.724 209.858L374.595 211.827L409.741 196.286L410.28 194.845L383.722 138.213L383.717 138.198C383.701 138.151 383.677 138.081 383.647 137.989C383.585 137.805 383.495 137.534 383.381 137.189C383.153 136.5 382.831 135.512 382.452 134.323C381.694 131.943 380.713 128.763 379.817 125.548C378.919 122.326 378.115 119.102 377.702 116.626C377.494 115.379 377.395 114.378 377.417 113.68C377.422 113.499 377.435 113.356 377.452 113.245C377.614 113.352 377.835 113.554 378.121 113.891C378.607 114.466 379.11 115.221 379.697 116.102C379.93 116.452 380.176 116.822 380.439 117.208C381.327 118.507 382.373 119.928 383.618 121.018C384.873 122.116 386.411 122.95 388.263 122.916C389.374 122.896 390.418 122.301 391.333 121.538C392.269 120.756 393.209 119.68 394.128 118.45C395.969 115.986 397.843 112.746 399.549 109.569C400.623 107.57 401.651 105.555 402.566 103.761C403.101 102.715 403.596 101.743 404.04 100.895C404.306 100.386 404.553 99.9228 404.779 99.5101C404.662 101.178 404.372 103.393 404.033 105.627C403.694 107.855 403.311 110.076 403.012 111.741C402.862 112.574 402.734 113.266 402.643 113.75C402.597 113.992 402.561 114.182 402.537 114.311L402.508 114.459L402.499 114.508C402.499 114.508 402.499 114.508 403.556 114.713ZM377.52 112.972C377.52 112.971 377.519 112.973 377.517 112.978C377.519 112.974 377.52 112.972 377.52 112.972Z" fill="#001A39"/>
<path d="M401.618 478.855L391.161 501.088L429.664 540L364.47 514.48L384.179 471.731" fill="#001A39"/>
<path fill-rule="evenodd" clip-rule="evenodd" d="M402.836 506.451L388.69 510.141L388.224 508.355L402.37 504.665L402.836 506.451Z" fill="white"/>
<path d="M393.377 513.553L407.523 510.478" stroke="white" stroke-width="3" stroke-miterlimit="10"/>
<path d="M398.912 518.474L413.058 514.784" stroke="white" stroke-width="3" stroke-miterlimit="10"/>
<path d="M263.083 456.869L280.76 473.979L257.856 523.715L310.734 477.185L277.127 444.143" fill="#001A39"/>
<path fill-rule="evenodd" clip-rule="evenodd" d="M271.264 481.018L285.637 479.294L285.857 481.126L271.484 482.85L271.264 481.018Z" fill="white"/>
<path fill-rule="evenodd" clip-rule="evenodd" d="M268.225 487.277L282.598 485.554L282.818 487.386L268.445 489.109L268.225 487.277Z" fill="white"/>
<path fill-rule="evenodd" clip-rule="evenodd" d="M265.186 493.537L279.559 491.813L279.779 493.645L265.405 495.369L265.186 493.537Z" fill="white"/>
<path d="M266.341 473.794L227.853 406.685C219.217 391.625 220.969 372.346 232.156 359.41L271.403 314.022C286.459 296.61 307.932 287.066 330.215 287.885C353.273 288.731 374.789 300.574 388.781 320.13L428.27 375.309C436.14 386.303 438.488 400.66 434.567 413.786L408.982 499.408L364.472 478.906L384.904 405.823L325.908 343.063L277.203 389.075L308.718 452.86L266.341 473.794Z" fill="#FBC73B"/>
<path d="M340.523 358.371C347.412 354.333 356.755 351.184 364.415 354.897C370.672 357.931 374.663 364.113 378.582 369.585C386.666 380.869 396.915 391.598 411.467 393.147C419.294 393.981 428.569 392.222 434.68 386.964C435.256 386.468 434.521 385.618 433.898 385.948C430.316 387.838 426.925 389.72 422.951 390.705C419.02 391.678 414.91 391.892 410.892 391.392C403.117 390.419 396.264 386.607 390.562 381.354C385.3 376.505 381.246 370.704 376.998 364.998C373.436 360.214 369.338 355.314 363.577 353.186C355.759 350.299 346.936 353.726 340.205 357.839C339.868 358.042 340.178 358.574 340.523 358.371Z" fill="#F96155"/>
<path d="M395.712 329.866C391.515 338.073 388.592 348.85 394.584 357.017C397.28 360.694 401.382 362.854 405.579 364.395C410.868 366.337 416.716 367.985 422.383 367.806C422.891 367.79 423.01 367.047 422.506 366.908C413.866 364.542 402.799 363.978 396.502 356.7C390.022 349.211 392.769 338.375 396.72 330.45C397.05 329.787 396.053 329.195 395.712 329.866Z" fill="#F96155"/>
<path d="M373.368 447.013C378.094 450.992 379.575 457.48 379.42 463.416C379.241 470.396 376.1 476.448 373.166 482.622C372.928 483.122 373.599 483.774 374 483.265C381.735 473.45 385.157 455.066 373.809 446.445C373.484 446.195 373.055 446.751 373.368 447.013Z" fill="#F96155"/>
<path d="M248.701 442.931C257.194 442.006 265.707 442.689 273.704 445.83C281.566 448.919 288.419 454.224 294.09 460.426C294.514 460.891 295.142 460.22 294.769 459.747C283.881 445.961 265.945 438.909 248.577 442.006C248.061 442.101 248.173 442.991 248.701 442.931Z" fill="#F96155"/>
<path d="M285.179 404.971C280.121 409.736 276.055 417.034 279.136 424.023C280.565 427.263 283.44 429.391 286.613 430.773C290.441 432.44 294.987 433.695 299.196 433.421C299.78 433.386 299.97 432.5 299.339 432.353C293.141 430.9 284.441 430.233 280.891 424.027C277.187 417.547 281.114 410.268 285.843 405.638C286.279 405.21 285.62 404.554 285.179 404.971Z" fill="#F96155"/>
<path d="M297.739 294.523C303.214 297.27 308.992 299.478 314.813 301.376C320.439 303.211 326.328 304.672 332.288 304.461C339.685 304.199 351.089 301.301 352.229 292.382C352.308 291.763 351.379 291.592 351.101 292.077C350.088 293.856 349.346 295.63 347.869 297.116C346.507 298.485 344.863 299.534 343.108 300.324C339.002 302.17 334.206 302.865 329.739 302.718C318.768 302.365 308.17 297.576 298.009 293.883C297.636 293.748 297.385 294.344 297.739 294.523Z" fill="#F96155"/>
<path d="M255.502 332.701C260.537 335.266 266.076 336.906 271.6 338.026C276.742 339.07 282.217 339.936 287.474 339.491C291.894 339.118 296.238 337.533 298.962 333.864C301.805 330.033 300.895 326.364 299.807 322.103C299.104 319.359 299.089 316.58 302.178 315.373C304.882 314.317 308.249 314.511 311.048 315.019C316.814 316.072 321.999 318.939 327.122 321.639C331.791 324.1 336.596 326.53 341.845 327.452C346.626 328.293 351.541 327.972 356.239 326.801C361.774 325.419 367.023 322.905 371.772 319.772C375.778 317.132 379.158 313.983 380.412 309.202C380.647 308.313 379.34 307.968 379.046 308.825C377.502 313.384 374.023 316.238 370.085 318.744C365.756 321.496 361.063 323.695 356.088 324.982C350.93 326.316 345.51 326.626 340.304 325.355C335.142 324.096 330.461 321.492 325.791 319.042C321.261 316.663 316.568 314.348 311.489 313.415C307.816 312.74 302.48 312.284 299.434 314.988C296.23 317.831 298.088 322.056 298.894 325.518C300.101 330.724 296.805 335.151 291.933 336.858C286.204 338.867 279.283 337.835 273.442 336.858C267.371 335.842 261.589 334.019 255.76 332.093C255.403 331.982 255.169 332.53 255.502 332.701Z" fill="#F96155"/>
<path d="M381.397 419.77C388.632 415.815 395.711 411.491 404.038 410.288C408.136 409.697 412.456 410.125 415.906 412.587C419.587 415.212 420.85 419.397 419.722 423.721C418.626 427.926 416.057 431.714 413.933 435.454C411.745 439.306 409.553 443.154 407.361 447.001C403.78 453.295 399.988 460.378 400.833 467.875C401.647 475.074 407.199 481.566 413.48 484.838C414.048 485.136 414.473 484.361 413.973 483.996C407.449 479.204 401.64 472.775 402.299 464.127C402.966 455.367 408.747 447.323 412.952 439.898C415.136 436.042 417.538 432.238 419.424 428.224C420.965 424.944 422.116 421.22 421.104 417.61C419.257 411.007 411.888 408.347 405.658 408.827C401.175 409.172 396.783 410.646 392.666 412.385C388.52 414.136 384.387 416.272 381.02 419.294C380.758 419.528 381.099 419.933 381.397 419.77Z" fill="#F96155"/>
<path d="M235.713 422.065C241.244 424.452 249.836 425.96 253.946 420.227C256.487 416.685 255.769 412.174 254.26 408.37C252.409 403.701 249.626 399.452 247.645 394.834C243.753 385.769 241.8 374.139 248.427 365.781C253.351 359.57 261.824 357.363 269.444 357.891C279.863 358.614 288.757 364.744 296.464 371.304C296.961 371.725 297.624 371.078 297.183 370.585C286.673 358.896 268.042 350.894 253.212 359.479C245.917 363.7 242.292 371.57 242.395 379.849C242.455 384.776 243.73 389.593 245.572 394.139C247.43 398.729 250.015 402.93 252.072 407.417C254.371 412.424 255.503 419.512 249.205 422.029C245.072 423.681 240.116 422.641 236.122 421.088C235.566 420.878 235.161 421.827 235.713 422.065Z" fill="#F96155"/>
<path d="M370.606 239.925L337.967 276.869C333.916 281.451 326.922 281.876 322.34 277.825C321.438 277.027 320.675 276.088 320.076 275.049L292.407 226.835C289.372 221.527 291.206 214.766 296.516 211.725C298.791 210.418 301.462 209.966 304.039 210.452L364.345 221.733C370.352 222.867 374.305 228.652 373.171 234.665C372.802 236.618 371.919 238.434 370.606 239.925Z" fill="#F96155"/>
<path d="M338.913 226.884L344.856 202.824C344.856 202.824 358.041 201.944 359.391 193.365C360.742 184.786 351.388 184.856 351.388 184.856C351.388 184.856 352.175 172.626 341.096 166.891C330.017 161.157 316.466 174.572 313.401 184.03C308.858 197.995 315.79 200.986 330.536 203.73L326.004 219.431" fill="#FBC73B"/>
<path d="M357.029 186.563C357.029 186.563 365.671 175.969 352.896 163.973C340.122 151.977 334.579 155.717 330.779 149.525C326.979 143.333 310.991 157.254 325.583 169.654C340.175 182.054 340.317 180.708 340.317 180.708C340.317 180.708 335.869 188.078 340.315 190.262C344.762 192.447 350.95 185.842 350.95 185.842" fill="#001A39"/>
<path fill-rule="evenodd" clip-rule="evenodd" d="M317.081 184.638L322.195 179.249L323.533 180.519L318.419 185.908L317.081 184.638Z" fill="#001A39"/>
<path d="M328.39 181.412C329.495 181.575 330.523 180.812 330.686 179.706C330.849 178.6 330.085 177.572 328.979 177.409C327.874 177.246 326.846 178.011 326.683 179.116C326.52 180.222 327.284 181.25 328.39 181.412Z" fill="#001A39"/>
<path fill-rule="evenodd" clip-rule="evenodd" d="M328.479 180.804C329.249 180.917 329.964 180.386 330.078 179.616C330.191 178.847 329.659 178.131 328.89 178.018C328.12 177.904 327.405 178.436 327.291 179.206C327.178 179.975 327.709 180.691 328.479 180.804ZM330.686 179.706C330.523 180.812 329.495 181.575 328.39 181.412C327.284 181.25 326.52 180.222 326.683 179.116C326.846 178.011 327.874 177.246 328.979 177.409C330.085 177.572 330.849 178.6 330.686 179.706Z" fill="#001A39"/>
<path d="M320.887 176.721C321.993 176.884 323.021 176.119 323.184 175.014C323.347 173.908 322.582 172.88 321.477 172.717C320.371 172.554 319.343 173.318 319.18 174.424C319.017 175.53 319.781 176.558 320.887 176.721Z" fill="#001A39"/>
<path fill-rule="evenodd" clip-rule="evenodd" d="M320.977 176.112C321.746 176.226 322.462 175.694 322.575 174.924C322.689 174.155 322.157 173.439 321.387 173.325C320.618 173.212 319.902 173.744 319.788 174.514C319.675 175.283 320.207 175.999 320.977 176.112ZM323.184 175.014C323.021 176.119 321.993 176.884 320.887 176.721C319.781 176.558 319.017 175.53 319.18 174.424C319.343 173.318 320.371 172.554 321.477 172.717C322.582 172.88 323.347 173.908 323.184 175.014Z" fill="#001A39"/>
<path fill-rule="evenodd" clip-rule="evenodd" d="M489.159 190.201L509.777 206.384L505.98 211.222L485.362 195.039L489.159 190.201Z" fill="#FBC73B"/>
<path fill-rule="evenodd" clip-rule="evenodd" d="M491.396 163.681L515.363 161.347L515.959 167.469L491.992 169.802L491.396 163.681Z" fill="#FBC73B"/>
<path fill-rule="evenodd" clip-rule="evenodd" d="M469.928 204.193L471.722 224.185L465.597 224.735L463.802 204.743L469.928 204.193Z" fill="#FBC73B"/>
<path d="M56.418 148.384C60.3125 146.479 64.4723 145.166 68.7557 144.486L68.7918 144.48C83.221 142.184 97.8416 147.27 107.736 158.026C124.045 175.754 122.893 203.346 105.164 219.651L166.813 338.863L141.289 342.861L84.0906 232.154L80.557 225.349C87.9693 218.526 92.0675 207.672 93.4819 197.698C96.4448 176.801 80.2731 151.768 56.418 148.384Z" fill="#B1E4FD"/>
<path d="M53.5175 236.578L54.7683 229.012C32.8581 218.994 23.2176 193.113 33.2359 171.202C37.4263 162.041 44.6584 154.608 53.704 150.172C77.5591 153.556 94.1523 175.636 90.7679 199.486C89.3535 209.461 84.5274 218.64 77.1151 225.463L80.6485 232.269L138.463 343.562L33.0307 360.307L53.5175 236.578Z" fill="#001A39"/>
<path fill-rule="evenodd" clip-rule="evenodd" d="M107.075 220.598L78.0744 226.893L77.6177 224.79L106.619 218.494L107.075 220.598Z" fill="white"/>
<path fill-rule="evenodd" clip-rule="evenodd" d="M281.779 76.2935C281.529 76.3844 281.326 76.5407 281.175 76.7164C280.809 77.1413 280.681 77.7468 280.617 78.2529C280.545 78.8224 280.526 79.5488 280.553 80.4306C280.634 83.0629 281.14 87.4178 282.196 93.9926C281.407 92.5204 280.642 91.2056 279.93 90.1057C279.097 88.82 278.294 87.7622 277.568 87.0966C277.213 86.7712 276.794 86.4607 276.327 86.3139C275.796 86.1468 275.162 86.1909 274.653 86.6596C274.232 87.0479 274.048 87.5996 273.955 88.0861C273.855 88.6034 273.824 89.2325 273.847 89.9587C273.892 91.4153 274.158 93.4299 274.672 96.0701C275.68 101.251 277.672 108.989 280.975 119.957C280.614 120.248 280.089 120.671 279.424 121.214C278.076 122.313 276.15 123.903 273.834 125.861C269.204 129.778 263.013 135.176 256.775 141.1C250.542 147.02 244.241 153.484 239.403 159.53C236.985 162.553 234.915 165.491 233.402 168.221C231.897 170.936 230.897 173.523 230.706 175.826C230.509 178.192 231.283 180.834 232.646 183.574C234.016 186.331 236.033 189.291 238.461 192.326C243.316 198.399 249.901 204.889 256.507 210.824C263.12 216.764 269.782 222.175 274.811 226.093C277.326 228.052 279.434 229.639 280.927 230.735C281.673 231.282 282.269 231.71 282.687 232C282.894 232.144 283.065 232.26 283.192 232.342C283.253 232.381 283.319 232.422 283.379 232.455C283.406 232.47 283.458 232.499 283.521 232.525C283.549 232.537 283.613 232.563 283.697 232.583C283.739 232.592 283.842 232.608 283.903 232.612C283.995 232.613 284.222 232.58 284.355 232.536L283.555 230.538C283.687 230.495 283.913 230.462 284.002 230.462C284.062 230.466 284.162 230.482 284.201 230.49C284.279 230.509 284.336 230.533 284.356 230.541C284.381 230.552 284.4 230.561 284.408 230.565C284.413 230.567 284.417 230.57 284.42 230.571L284.424 230.573L284.425 230.574C284.425 230.574 284.42 230.571 284.408 230.564C284.395 230.556 284.378 230.545 284.355 230.53C284.261 230.47 284.116 230.372 283.916 230.233C283.519 229.957 282.939 229.541 282.201 229C280.726 227.917 278.634 226.342 276.134 224.395C271.133 220.498 264.511 215.12 257.946 209.223C251.375 203.319 244.89 196.921 240.142 190.982C237.768 188.012 235.85 185.185 234.573 182.616C233.288 180.029 232.701 177.805 232.851 176.005C233.006 174.142 233.842 171.868 235.285 169.265C236.719 166.678 238.709 163.843 241.084 160.875C245.833 154.939 252.055 148.552 258.258 142.661C264.456 136.775 270.614 131.404 275.224 127.505C277.529 125.555 279.446 123.975 280.785 122.882C281.455 122.335 281.981 121.911 282.338 121.623C282.517 121.479 282.654 121.37 282.746 121.296L282.85 121.214L282.884 121.186C282.884 121.186 282.884 121.186 282.215 120.343L282.884 121.186L283.245 120.032C279.824 108.716 277.794 100.843 276.785 95.6589C276.28 93.062 276.039 91.1784 275.999 89.8918C275.981 89.3338 276.003 88.9191 276.046 88.6232C276.068 88.642 276.09 88.6619 276.113 88.683C276.632 89.1587 277.316 90.0294 278.123 91.276C279.722 93.7436 281.642 97.4279 283.525 101.615L285.567 100.985C283.755 90.7642 282.907 84.4574 282.73 80.9722C284.162 86.6002 286.602 92.0044 290.022 96.8918C290.236 97.4652 290.447 98.032 290.654 98.5889L290.655 98.59C290.79 98.9542 290.924 99.3143 291.057 99.6691L292.013 99.5383C293.994 101.995 296.244 104.294 298.758 106.394C299.68 107.165 300.622 107.896 301.582 108.587C301.707 108.798 301.835 108.999 301.966 109.191C302.638 110.175 303.48 111.032 304.544 111.354C305.148 111.536 305.744 111.613 306.327 111.605C308.454 112.792 310.645 113.805 312.882 114.647C312.577 115.159 312.266 115.674 311.953 116.187C310.215 119.036 308.404 121.829 307.026 123.912C306.338 124.953 305.759 125.815 305.351 126.417C305.148 126.718 304.987 126.953 304.878 127.114C304.823 127.194 304.782 127.255 304.753 127.296L304.745 127.308L263.759 174.56L263.885 176.094L293.466 200.624L294.84 198.967L266.106 175.139L306.411 128.673L306.485 128.577L306.485 128.577L306.529 128.513C306.558 128.471 306.6 128.409 306.656 128.327C306.767 128.165 306.929 127.927 307.134 127.623C307.545 127.016 308.129 126.147 308.822 125.099C310.208 123.004 312.034 120.187 313.79 117.309C314.183 116.666 314.573 116.018 314.954 115.374M305.598 127.968L306.485 128.577C306.485 128.578 306.485 128.578 305.598 127.968Z" fill="#001A39"/>
<path fill-rule="evenodd" clip-rule="evenodd" d="M475.333 186.195C480.016 180.591 479.268 172.252 473.664 167.569L375.954 85.9312C382.979 67.054 377.804 45.0003 361.467 31.3502C340.744 14.036 309.909 16.7992 292.595 37.5221C275.281 58.245 278.044 89.0802 298.767 106.394C316.819 121.478 342.546 121.324 360.323 107.334L418.241 155.725L407.594 168.469L419.866 178.722L430.513 165.978L437.12 171.499L421.347 190.378L433.618 200.631L449.392 181.752L456.707 187.864C462.312 192.547 470.651 191.799 475.333 186.195ZM344.905 51.1732C335.13 43.0061 320.585 44.3095 312.418 54.0845C304.251 63.8594 305.554 78.4043 315.329 86.5714C325.104 94.7385 339.649 93.4351 347.816 83.6601C355.983 73.8852 354.68 59.3403 344.905 51.1732Z" fill="#194D87"/>
<path fill-rule="evenodd" clip-rule="evenodd" d="M314.954 115.374C316.275 113.14 317.494 110.943 318.366 109.098C318.923 107.917 319.363 106.829 319.584 105.946C319.694 105.508 319.767 105.057 319.744 104.64C319.722 104.233 319.597 103.681 319.124 103.29C318.527 102.798 317.829 102.728 317.202 102.868C316.623 102.998 316.062 103.309 315.559 103.648C314.824 104.143 313.988 104.858 313.143 105.58L313.142 105.581C312.844 105.836 312.544 106.093 312.247 106.341C311.058 107.334 309.84 108.263 308.607 108.848C307.387 109.427 306.252 109.622 305.167 109.293C304.802 109.183 304.313 108.811 303.743 107.977C303.19 107.166 302.649 106.048 302.128 104.688C301.088 101.973 300.195 98.4739 299.424 94.9723C298.938 92.7686 298.51 90.6087 298.122 88.6559L298.122 88.6553C297.892 87.4944 297.676 86.4067 297.472 85.4264C297.202 84.1332 296.949 83.0198 296.712 82.2196C296.596 81.8263 296.469 81.4576 296.324 81.1685C296.254 81.0274 296.154 80.8512 296.012 80.6939C295.885 80.5532 295.588 80.2774 295.121 80.2557C294.448 80.2243 294.055 80.7055 293.921 80.8923C293.746 81.1345 293.614 81.4279 293.511 81.7035C293.297 82.2695 293.103 83.0337 292.925 83.8884C292.564 85.613 292.23 87.8955 291.946 90.1518C291.755 91.6727 291.584 93.1934 291.442 94.5417C290.432 91.8449 289.374 89.0598 288.355 86.5207C286.788 82.6133 285.257 79.1395 284.107 77.5132C283.826 77.1165 283.481 76.6996 283.072 76.4524C282.856 76.3215 282.534 76.1846 282.144 76.2147C282.013 76.2248 281.891 76.2525 281.778 76.2935C282.019 77.8659 282.337 79.4275 282.73 80.9723C282.719 80.7593 282.711 80.5569 282.705 80.3647C282.692 79.9538 282.691 79.5992 282.699 79.296C283.653 80.8746 284.944 83.7992 286.357 87.3222C287.57 90.3438 288.84 93.7196 290.022 96.8918C290.652 97.7922 291.316 98.675 292.012 99.5384L293.138 99.3844C293.138 99.3844 293.138 99.3844 293.138 99.3844L293.142 99.3341L293.155 99.1848C293.166 99.0538 293.183 98.8612 293.206 98.616C293.25 98.1254 293.315 97.4241 293.398 96.5826C293.564 94.8987 293.8 92.6574 294.082 90.4209C294.364 88.1798 294.689 85.9691 295.031 84.3326C295.136 84.7914 295.247 85.3046 295.364 85.8663C295.56 86.8035 295.772 87.873 296.001 89.0257L296.001 89.0258L296.001 89.0262C296.393 91.001 296.833 93.2197 297.322 95.4355C298.098 98.9573 299.018 102.586 300.118 105.458C300.563 106.62 301.048 107.688 301.582 108.587C303.12 109.694 304.705 110.7 306.327 111.605C307.456 111.591 308.537 111.264 309.53 110.793C311.025 110.083 312.419 109.001 313.627 107.993C313.985 107.694 314.322 107.405 314.642 107.132L314.642 107.132C315.447 106.444 316.137 105.854 316.761 105.434C317.128 105.187 317.395 105.054 317.581 104.994C317.567 105.105 317.54 105.247 317.496 105.423C317.327 106.1 316.959 107.036 316.419 108.179C315.54 110.041 314.271 112.314 312.882 114.647C313.568 114.905 314.259 115.148 314.954 115.374ZM317.59 104.713C317.59 104.713 317.591 104.715 317.591 104.719C317.591 104.715 317.59 104.713 317.59 104.713Z" fill="white"/>
</svg>
