<svg width="686" height="540" viewBox="0 0 686 540" fill="none" xmlns="http://www.w3.org/2000/svg">
<path d="M211.02 125.317L70.799 162.89C66.5687 164.023 62.2173 161.51 61.0838 157.28L32.161 49.3391C31.0275 45.1089 33.5397 40.7572 37.77 39.6237L69.8226 31.0352C72.2855 30.3753 74.912 30.9426 76.889 32.5515L85.2564 39.3774C87.2335 40.9864 89.8605 41.5535 92.3234 40.8936L181.958 16.8761C186.188 15.7426 190.539 18.2552 191.673 22.4855L216.624 115.603C217.763 119.832 215.251 124.184 211.02 125.317Z" fill="#001A39"/>
<path d="M71.0156 162.831L210.798 125.377C215.148 124.211 217.731 119.737 216.566 115.387L194.959 34.7487C193.793 30.3987 189.319 27.8151 184.969 28.9807L45.1863 66.4353C40.8363 67.6009 38.2532 72.0755 39.4188 76.4255L61.0257 157.063C62.1913 161.413 66.6655 163.997 71.0156 162.831Z" fill="#194D87"/>
<path d="M174.144 332.585H28.9759C24.5963 332.585 21.0435 329.032 21.0435 324.652V212.903C21.0435 208.524 24.5963 204.971 28.9759 204.971H62.1591C64.709 204.971 67.099 206.198 68.5923 208.264L74.9079 217.023C76.4012 219.089 78.7919 220.317 81.3417 220.317H174.138C178.517 220.317 182.07 223.87 182.07 228.249V324.652C182.076 329.032 178.523 332.585 174.144 332.585Z" fill="#001A39"/>
<path d="M404.594 537.948L264.372 500.376C260.142 499.242 257.63 494.891 258.763 490.661L287.686 382.72C288.82 378.489 293.171 375.977 297.401 377.11L329.454 385.699C331.917 386.359 333.908 388.163 334.816 390.545L338.649 400.64C339.557 403.022 341.548 404.827 344.011 405.487L433.645 429.504C437.876 430.638 440.388 434.989 439.254 439.219L414.303 532.337C413.176 536.569 408.824 539.082 404.594 537.948Z" fill="#001A39"/>
<path d="M29.2001 332.585H173.914C178.417 332.585 182.07 328.931 182.07 324.428V240.945C182.07 236.442 178.417 232.788 173.914 232.788H29.2001C24.6966 232.788 21.0435 236.442 21.0435 240.945V324.428C21.0435 328.931 24.6966 332.585 29.2001 332.585Z" fill="#194D87"/>
<path d="M264.589 500.434L404.372 537.889C408.722 539.054 413.196 536.471 414.361 532.121L435.968 451.483C437.134 447.133 434.551 442.658 430.201 441.493L290.418 404.038C286.068 402.873 281.594 405.456 280.428 409.806L258.822 490.444C257.662 494.796 260.239 499.269 264.589 500.434Z" fill="#194D87"/>
<path d="M376.423 142H309.396C291.228 142 276.502 127.274 276.502 109.107C276.502 90.9392 291.228 76.2129 309.396 76.2129H376.429C394.596 76.2129 409.322 90.9392 409.322 109.107C409.316 127.274 394.59 142 376.423 142Z" fill="#001A39"/>
<path d="M601.832 401.921L541.139 452.427L342.679 241.195L144.007 452.87L83.9863 401.614L283.001 185.294C298.105 168.891 319.294 159.424 341.593 159.129C364.647 158.822 386.746 168.336 402.363 185.294L601.832 401.921Z" fill="#FBC73B"/>
<path d="M579.934 436.669C596.509 422.515 606.411 406.902 602.05 401.795C597.689 396.688 580.718 404.022 564.143 418.175C547.568 432.329 537.666 447.943 542.027 453.049C546.388 458.156 563.359 450.822 579.934 436.669Z" fill="#001A39"/>
<path d="M572.262 418.365L608.88 462.821L685.379 380.578L605.704 424.161L591.078 406.672" fill="#F96155"/>
<path fill-rule="evenodd" clip-rule="evenodd" d="M191.749 334.424C195.952 338.056 198.827 342.895 198.856 349.249C198.896 358.025 192.159 364.677 182.749 369.701C173.281 374.757 160.711 378.388 148.23 380.989C135.73 383.594 123.236 385.183 113.874 386.12C109.192 386.589 105.288 386.896 102.554 387.085C101.187 387.18 100.112 387.245 99.3777 387.287C99.0106 387.308 98.7287 387.323 98.538 387.332C98.4427 387.337 98.3702 387.341 98.3213 387.343L98.2476 387.347C98.2467 387.347 98.2461 387.347 98.1918 386.168C98.1375 384.988 98.1377 384.988 98.1383 384.988L98.1542 384.988L98.2067 384.985C98.2536 384.983 98.324 384.979 98.4172 384.974C98.6036 384.965 98.8811 384.95 99.2437 384.93C99.9689 384.888 101.034 384.824 102.391 384.73C105.105 384.542 108.984 384.237 113.639 383.771C122.953 382.839 135.358 381.26 147.748 378.678C160.156 376.092 172.466 372.515 181.637 367.619C190.867 362.691 196.529 356.647 196.495 349.26C196.47 343.715 193.997 339.486 190.206 336.21C186.384 332.908 181.24 330.594 176 328.987C170.773 327.384 165.535 326.508 161.593 326.034C159.625 325.797 157.987 325.661 156.843 325.585C156.271 325.546 155.823 325.523 155.519 325.509C155.368 325.502 155.252 325.498 155.176 325.495C155.137 325.493 155.109 325.492 155.09 325.492L155.07 325.491L155.064 325.491C155.064 325.491 155.064 325.491 155.096 324.311C155.128 323.131 155.129 323.131 155.129 323.131L155.138 323.131L155.164 323.132C155.186 323.133 155.219 323.134 155.261 323.135C155.345 323.138 155.468 323.143 155.627 323.151C155.946 323.165 156.411 323.189 157 323.229C158.179 323.308 159.86 323.447 161.875 323.69C165.901 324.174 171.287 325.072 176.692 326.73C182.084 328.384 187.578 330.819 191.749 334.424Z" fill="#F96155"/>
<path fill-rule="evenodd" clip-rule="evenodd" d="M214.67 377.321C214.671 377.322 214.671 377.322 214.001 378.294C213.331 379.266 213.331 379.266 213.331 379.266L213.301 379.245C213.28 379.231 213.249 379.209 213.207 379.181C213.123 379.123 212.997 379.038 212.832 378.927C212.501 378.705 212.014 378.379 211.387 377.969C210.134 377.148 208.327 375.987 206.113 374.631C201.683 371.917 195.639 368.429 189.167 365.322C182.683 362.208 175.829 359.505 169.766 358.32C163.64 357.122 158.669 357.541 155.589 360.195C154.084 361.492 153.069 363.428 152.507 365.952C151.944 368.479 151.852 371.523 152.137 374.924C152.709 381.725 154.77 389.737 157.292 397.44C159.81 405.131 162.767 412.452 165.098 417.856C166.262 420.557 167.269 422.775 167.984 424.317C168.341 425.088 168.625 425.69 168.82 426.098C168.917 426.302 168.992 426.458 169.043 426.562C169.068 426.614 169.087 426.654 169.1 426.68L169.118 426.717C169.118 426.718 169.118 426.718 168.058 427.236C166.997 427.754 166.997 427.754 166.997 427.753L166.995 427.751L166.976 427.711C166.963 427.684 166.943 427.643 166.917 427.589C166.865 427.481 166.788 427.322 166.689 427.114C166.491 426.699 166.203 426.089 165.842 425.31C165.119 423.752 164.104 421.514 162.93 418.791C160.583 413.348 157.596 405.956 155.049 398.175C152.505 390.407 150.379 382.193 149.785 375.121C149.488 371.585 149.569 368.281 150.202 365.438C150.836 362.592 152.042 360.135 154.048 358.406C157.993 355.007 163.931 354.774 170.219 356.002C176.57 357.244 183.633 360.045 190.189 363.193C196.757 366.347 202.875 369.878 207.346 372.617C209.583 373.988 211.411 375.162 212.681 375.994C213.317 376.41 213.812 376.741 214.15 376.968C214.319 377.082 214.448 377.17 214.536 377.23C214.58 377.259 214.613 377.282 214.636 377.298L214.662 377.315L214.67 377.321Z" fill="#F96155"/>
<path fill-rule="evenodd" clip-rule="evenodd" d="M308.309 165.703C308.309 165.702 308.31 165.702 309.331 166.294C310.351 166.887 310.352 166.887 310.352 166.887L310.351 166.888L310.349 166.892L310.337 166.912C310.326 166.931 310.31 166.959 310.288 166.997C310.245 167.074 310.18 167.189 310.096 167.342C309.928 167.647 309.682 168.1 309.376 168.687C308.764 169.862 307.912 171.571 306.96 173.695C305.055 177.948 302.754 183.849 301.162 190.459C297.963 203.743 297.702 219.526 308.704 230.747C313.88 236.026 321.301 235.681 330.07 231.572C338.802 227.48 348.422 219.832 357.41 211.374C366.381 202.933 374.649 193.757 380.679 186.685C383.692 183.15 386.144 180.144 387.841 178.024C388.69 176.963 389.35 176.124 389.797 175.551C390.02 175.264 390.191 175.044 390.305 174.896C390.362 174.822 390.405 174.766 390.434 174.729L390.466 174.687L390.474 174.677L390.475 174.674C390.476 174.674 390.476 174.674 391.414 175.39C392.353 176.106 392.353 176.106 392.352 176.107L392.341 176.121L392.307 176.166C392.277 176.205 392.233 176.262 392.174 176.338C392.058 176.489 391.885 176.713 391.658 177.003C391.206 177.584 390.54 178.43 389.685 179.499C387.974 181.636 385.507 184.66 382.476 188.216C376.415 195.325 368.085 204.571 359.028 213.093C349.989 221.599 340.15 229.455 331.071 233.71C322.028 237.947 313.284 238.791 307.019 232.4C295.138 220.284 295.611 203.428 298.867 189.906C300.503 183.114 302.861 177.07 304.806 172.73C305.779 170.557 306.652 168.807 307.282 167.597C307.597 166.991 307.852 166.521 308.029 166.2C308.118 166.04 308.187 165.917 308.234 165.833C308.258 165.791 308.277 165.759 308.289 165.737L308.304 165.712L308.309 165.703Z" fill="#F96155"/>
<path fill-rule="evenodd" clip-rule="evenodd" d="M238.257 353.505C238.257 353.505 238.257 353.505 237.092 353.693C235.926 353.881 235.926 353.881 235.926 353.88L235.926 353.877L235.924 353.867L235.919 353.832C235.914 353.802 235.908 353.758 235.899 353.702C235.882 353.588 235.859 353.422 235.83 353.205C235.773 352.772 235.696 352.137 235.614 351.323C235.451 349.693 235.272 347.342 235.202 344.436C235.062 338.625 235.36 330.581 237.113 321.644C240.62 303.767 249.97 282.245 273.343 267.975L274.573 269.99C251.937 283.81 242.854 304.643 239.43 322.099C237.718 330.828 237.426 338.695 237.562 344.379C237.631 347.219 237.806 349.511 237.963 351.088C238.042 351.876 238.117 352.486 238.171 352.896C238.198 353.101 238.22 353.255 238.235 353.358C238.242 353.409 238.248 353.447 238.252 353.472L238.256 353.499L238.257 353.504L238.257 353.505Z" fill="#F96155"/>
<path fill-rule="evenodd" clip-rule="evenodd" d="M191.864 284.704C191.863 284.704 191.862 284.703 192.47 283.691C193.078 282.679 193.078 282.679 193.078 282.68L193.091 282.687L193.136 282.714C193.175 282.737 193.235 282.773 193.315 282.82C193.474 282.914 193.712 283.052 194.022 283.231C194.644 283.59 195.557 284.108 196.723 284.748C199.054 286.027 202.388 287.787 206.396 289.71C214.422 293.559 225.106 298.038 235.821 300.613C246.581 303.2 257.144 303.81 265.078 300.187C272.86 296.633 278.418 288.851 278.893 273.844L281.252 273.919C280.759 289.545 274.883 298.305 266.058 302.335C257.385 306.295 246.168 305.529 235.269 302.909C224.326 300.279 213.473 295.722 205.375 291.838C201.322 289.894 197.949 288.113 195.587 286.818C194.406 286.17 193.478 285.643 192.843 285.277C192.526 285.094 192.282 284.951 192.117 284.854C192.034 284.806 191.971 284.768 191.929 284.743L191.88 284.714L191.864 284.704Z" fill="#F96155"/>
<path fill-rule="evenodd" clip-rule="evenodd" d="M621.166 409.258L613.132 430.046L610.93 429.195L618.963 408.407L621.166 409.258Z" fill="white"/>
<path fill-rule="evenodd" clip-rule="evenodd" d="M631.772 404.837L623.739 425.625L621.537 424.774L629.57 403.986L631.772 404.837Z" fill="white"/>
<path fill-rule="evenodd" clip-rule="evenodd" d="M642.88 399.46L634.848 420.248L632.646 419.397L640.678 398.609L642.88 399.46Z" fill="white"/>
<path fill-rule="evenodd" clip-rule="evenodd" d="M422.359 235.85C422.37 235.94 422.402 236.204 422.496 236.975C422.639 238.146 422.638 238.146 422.637 238.147L422.633 238.147L422.619 238.149L422.567 238.155C422.522 238.16 422.457 238.167 422.372 238.176C422.201 238.194 421.951 238.22 421.628 238.249C420.982 238.306 420.041 238.379 418.855 238.44C416.483 238.562 413.124 238.638 409.162 238.453C401.252 238.084 390.874 236.675 381.142 232.477C371.393 228.272 362.25 221.249 356.941 209.655C351.638 198.074 350.236 182.099 355.628 160.134L357.92 160.697C352.611 182.329 354.074 197.723 359.087 208.672C364.095 219.607 372.72 226.274 382.077 230.309C391.45 234.352 401.516 235.733 409.272 236.095C413.144 236.275 416.424 236.201 418.734 236.082C419.888 236.023 420.798 235.952 421.418 235.897C421.727 235.869 421.964 235.845 422.122 235.829C422.162 235.824 422.198 235.821 422.228 235.817C422.256 235.814 422.28 235.811 422.299 235.809L422.342 235.804L422.353 235.803C422.353 235.803 422.353 235.803 422.359 235.85Z" fill="#F96155"/>
<path d="M144.238 452.751C148.599 447.644 138.697 432.031 122.122 417.877C105.547 403.724 88.5758 396.39 84.215 401.497C79.8542 406.604 89.7554 422.218 106.33 436.371C122.905 450.525 139.877 457.858 144.238 452.751Z" fill="#001A39"/>
<path d="M113.532 418.129L76.9143 462.579L0.414062 380.342L80.0897 423.919L94.7101 406.436" fill="#F96155"/>
<path fill-rule="evenodd" clip-rule="evenodd" d="M66.8307 408.165L74.864 428.959L72.6617 429.81L64.6284 409.016L66.8307 408.165Z" fill="white"/>
<path fill-rule="evenodd" clip-rule="evenodd" d="M56.2252 403.744L64.2585 424.538L62.0562 425.389L54.0229 404.595L56.2252 403.744Z" fill="white"/>
<path fill-rule="evenodd" clip-rule="evenodd" d="M45.1164 398.367L53.1496 419.161L50.9473 420.012L42.9141 399.218L45.1164 398.367Z" fill="white"/>
<path d="M422.696 340.354H277.528C273.149 340.354 269.596 336.801 269.596 332.421V220.672C269.596 216.293 273.149 212.74 277.528 212.74H310.711C313.261 212.74 315.651 213.967 317.145 216.033L323.46 224.792C324.953 226.858 327.344 228.086 329.894 228.086H422.69C427.07 228.086 430.623 231.639 430.623 236.018V332.421C430.628 336.801 427.075 340.354 422.696 340.354Z" fill="#001A39"/>
<path fill-rule="evenodd" clip-rule="evenodd" d="M407.679 208.702L377.949 256.853L374.434 254.682L404.164 206.531L407.679 208.702Z" fill="white"/>
<path fill-rule="evenodd" clip-rule="evenodd" d="M456.299 149.635C463.319 159.613 468.7 169.149 470.302 176.666C471.105 180.435 470.726 184.943 469.537 189.873C468.344 194.817 466.314 200.273 463.728 205.98C458.556 217.393 451.107 229.918 443.493 241.526C435.875 253.14 428.072 263.867 422.175 271.688C419.226 275.599 416.752 278.786 415.015 280.995C414.147 282.1 413.463 282.96 412.995 283.545C412.761 283.837 412.581 284.061 412.46 284.212C412.399 284.287 412.353 284.344 412.322 284.383L412.287 284.426L412.278 284.437L412.275 284.44C412.275 284.441 412.274 284.441 411.358 283.697L412.274 284.441L411.597 285.276L373.845 260.071L419.532 186.083L393.338 148.525L395.274 147.174L422.355 186.004L377.051 259.373L411.115 282.116C411.127 282.101 411.139 282.086 411.151 282.071C411.615 281.49 412.295 280.635 413.159 279.536C414.888 277.337 417.352 274.163 420.29 270.266C426.167 262.471 433.938 251.788 441.519 240.231C449.104 228.667 456.478 216.258 461.578 205.005C464.128 199.379 466.096 194.07 467.242 189.319C468.392 184.554 468.692 180.439 467.993 177.159C466.499 170.147 461.371 160.947 454.368 150.993C447.392 141.078 438.656 130.552 430.095 120.912C421.538 111.276 413.171 102.544 406.943 96.2192C403.829 93.0575 401.251 90.4987 399.452 88.7309C398.552 87.8471 397.847 87.161 397.368 86.6963C397.128 86.464 396.945 86.287 396.821 86.1682L396.682 86.0342L396.636 85.9904C396.636 85.99 396.636 85.9899 397.452 85.1372C398.269 84.2846 398.269 84.2849 398.27 84.2854L398.317 84.3313L398.459 84.4678C398.584 84.5882 398.769 84.7669 399.011 85.001C399.494 85.4692 400.203 86.159 401.106 87.0468C402.913 88.8225 405.501 91.3905 408.625 94.5626C414.872 100.906 423.268 109.669 431.861 119.345C440.45 129.017 449.251 139.618 456.299 149.635Z" fill="#001A39"/>
<path fill-rule="evenodd" clip-rule="evenodd" d="M234.156 158.241L280.122 135.926L279.091 133.802L230.832 157.231L249.772 189.667L251.811 188.476L234.156 158.241Z" fill="#001A39"/>
<path d="M293.43 215.419C293.79 231.999 280.645 245.728 264.06 246.088C249.404 246.406 236.974 236.166 234.041 222.331C233.657 220.513 233.433 218.642 233.392 216.718C233.031 200.144 246.176 186.409 262.761 186.049C271.391 185.86 279.241 189.331 284.842 195.033C290.012 200.303 293.259 207.469 293.43 215.419Z" fill="#F96155"/>
<path d="M374.859 64.9336C371.748 79.8133 357.17 89.3514 342.29 86.2409C329.134 83.4904 320.156 71.7802 320.398 58.8187C320.433 57.1188 320.622 55.4013 320.982 53.6719C324.093 38.798 338.672 29.2539 353.552 32.3644C361.296 33.9817 367.587 38.7036 371.406 44.9541C374.936 50.7266 376.352 57.8035 374.859 64.9336Z" fill="#FBC73B"/>
<path d="M378.665 35.1859C377.373 41.3656 371.317 45.3261 365.137 44.0394C359.672 42.9003 355.941 38.0308 356.042 32.6479C356.053 31.9396 356.136 31.2255 356.284 30.5113C357.576 24.3316 363.632 20.3711 369.812 21.6578C373.028 22.3307 375.643 24.2902 377.231 26.8872C378.7 29.2836 379.285 32.2229 378.665 35.1859Z" fill="#001A39"/>
<path d="M360.781 28.1619C359.996 31.9276 356.308 34.3416 352.542 33.5566C349.213 32.8601 346.94 29.8971 346.999 26.6154C347.005 26.1846 347.058 25.7478 347.147 25.3111C347.932 21.5454 351.621 19.1314 355.386 19.9164C357.346 20.3237 358.94 21.5218 359.908 23.1036C360.799 24.5674 361.159 26.3617 360.781 28.1619Z" fill="#001A39"/>
<path fill-rule="evenodd" clip-rule="evenodd" d="M364.612 77.4921C364.611 77.492 364.611 77.4919 364.287 78.6271C363.963 79.7622 363.963 79.7621 363.962 79.7619L363.961 79.7616L363.958 79.7608L363.951 79.7588L363.931 79.7528C363.915 79.7479 363.893 79.7413 363.867 79.733C363.815 79.7163 363.742 79.6925 363.653 79.6609C363.475 79.5978 363.228 79.5034 362.937 79.3731C362.359 79.1142 361.584 78.7045 360.82 78.1021C359.274 76.8835 357.721 74.8183 358.043 71.689L360.391 71.9307C360.176 74.0191 361.158 75.3625 362.281 76.248C362.852 76.6977 363.445 77.014 363.902 77.2181C364.128 77.3193 364.315 77.3906 364.441 77.4354C364.504 77.4577 364.552 77.4733 364.581 77.4826C364.596 77.4873 364.606 77.4903 364.611 77.4919L364.614 77.4927L364.612 77.4921Z" fill="#001A39"/>
<path d="M366.855 68.6646C366.871 66.047 365.55 63.9165 363.904 63.9062C362.258 63.8959 360.91 66.0096 360.893 68.6272C360.877 71.2448 362.198 73.3753 363.844 73.3856C365.491 73.396 366.838 71.2822 366.855 68.6646Z" fill="#001A39"/>
<path d="M356.942 68.9297C356.959 66.3121 355.637 64.1816 353.991 64.1713C352.345 64.161 350.997 66.2748 350.981 68.8924C350.964 71.5099 352.286 73.6404 353.932 73.6508C355.578 73.6611 356.926 71.5473 356.942 68.9297Z" fill="#001A39"/>
<path d="M330.768 55.7201C329.64 61.1266 324.346 64.5913 318.939 63.4581C314.164 62.4606 310.901 58.2049 310.989 53.4949C311.001 52.8751 311.072 52.2554 311.202 51.6239C312.329 46.2233 317.624 42.7526 323.03 43.8859C325.84 44.4761 328.129 46.1878 329.516 48.4602C330.797 50.5614 331.311 53.1289 330.768 55.7201Z" fill="#FBC73B"/>
<path d="M370.307 43.9744C370.307 43.9744 359.477 48.0705 342.832 41.2947L338.246 57.2781L328.194 52.7451C328.194 52.7451 327.427 42.8057 317.664 44.2399C317.664 44.2399 320.775 25.5768 332.396 24.2075C352.712 21.8229 367.769 33.6984 370.307 43.9744Z" fill="#001A39"/>
<path fill-rule="evenodd" clip-rule="evenodd" d="M569.212 414.464C569.213 414.465 569.213 414.466 568.082 414.806C566.952 415.146 566.952 415.146 566.952 415.146L566.952 415.145L566.949 415.136L566.938 415.099C566.927 415.066 566.911 415.014 566.889 414.946C566.846 414.808 566.779 414.602 566.688 414.334C566.507 413.797 566.231 413.011 565.855 412.023C565.102 410.046 563.948 407.267 562.351 404.069C559.151 397.665 554.194 389.631 547.149 383.004C540.115 376.388 531.027 371.197 519.52 370.383C508.007 369.569 493.915 373.125 476.86 384.304L475.565 382.33C492.923 370.953 507.522 367.168 519.687 368.028C531.859 368.889 541.436 374.39 548.766 381.285C556.085 388.169 561.191 396.466 564.463 403.014C566.101 406.293 567.285 409.146 568.061 411.182C568.449 412.201 568.735 413.016 568.925 413.579C569.02 413.861 569.091 414.08 569.139 414.229C569.163 414.304 569.181 414.362 569.193 414.402L569.207 414.447L569.211 414.46L569.212 414.464Z" fill="#F96155"/>
<path fill-rule="evenodd" clip-rule="evenodd" d="M514.385 422.341C514.385 422.341 514.385 422.341 513.291 422.785C512.197 423.23 512.197 423.229 512.197 423.228L512.189 423.21L512.167 423.155C512.148 423.107 512.119 423.035 512.082 422.941C512.008 422.754 511.899 422.477 511.759 422.116C511.479 421.395 511.076 420.338 510.582 418.992C509.594 416.299 508.241 412.447 506.775 407.801C503.846 398.515 500.462 386.032 498.664 373.287C496.871 360.571 496.636 347.458 500.122 336.987C501.871 331.734 504.568 327.109 508.506 323.545C512.451 319.975 517.582 317.524 524.104 316.533L524.459 318.868C518.345 319.796 513.656 322.069 510.09 325.296C506.518 328.529 504.013 332.774 502.362 337.732C499.049 347.684 499.225 360.362 501.002 372.958C502.775 385.525 506.119 397.873 509.027 407.091C510.48 411.697 511.821 415.514 512.799 418.178C513.287 419.51 513.685 420.554 513.96 421.263C514.097 421.617 514.204 421.888 514.276 422.07C514.312 422.161 514.34 422.229 514.358 422.275L514.379 422.326L514.385 422.341Z" fill="#F96155"/>
<path fill-rule="evenodd" clip-rule="evenodd" d="M428.451 268.289C428.451 268.289 428.451 268.289 428.811 267.165C429.172 266.041 429.172 266.041 429.173 266.041L429.183 266.044L429.211 266.054C429.235 266.061 429.271 266.073 429.317 266.089C429.411 266.119 429.547 266.165 429.725 266.225C430.08 266.346 430.598 266.525 431.256 266.763C432.572 267.238 434.447 267.945 436.696 268.879C441.189 270.743 447.188 273.516 453.191 277.143C459.186 280.764 465.233 285.268 469.782 290.61C474.335 295.958 477.441 302.215 477.393 309.304C477.297 323.334 467.991 332.673 458.975 338.431C454.451 341.321 449.941 343.349 446.568 344.655C444.879 345.308 443.471 345.783 442.481 346.094C441.986 346.25 441.595 346.366 441.326 346.443C441.192 346.481 441.088 346.51 441.016 346.529C440.993 346.536 440.973 346.541 440.956 346.546C440.948 346.548 440.94 346.55 440.934 346.552L440.911 346.558L440.905 346.559L440.903 346.56C440.902 346.56 440.902 346.56 440.604 345.418C440.306 344.276 440.305 344.276 440.305 344.276L440.325 344.271C440.34 344.267 440.363 344.261 440.394 344.252C440.457 344.235 440.552 344.209 440.677 344.173C440.927 344.101 441.298 343.992 441.772 343.842C442.72 343.544 444.08 343.086 445.716 342.453C448.99 341.186 453.349 339.223 457.704 336.442C466.446 330.859 474.945 322.137 475.032 309.288C475.075 302.94 472.302 297.212 467.984 292.141C463.662 287.065 457.848 282.715 451.97 279.163C446.099 275.616 440.214 272.895 435.791 271.059C433.581 270.142 431.74 269.448 430.455 268.983C429.812 268.751 429.308 268.577 428.966 268.461C428.795 268.403 428.665 268.359 428.578 268.331C428.535 268.316 428.502 268.306 428.481 268.299L428.457 268.291L428.451 268.289Z" fill="#F96155"/>
<path d="M279.884 340.354H423.292C426.332 340.354 429.106 338.613 430.435 335.874L464.084 266.292C466.627 261.027 462.791 254.906 456.942 254.906H313.527C310.487 254.906 307.713 256.647 306.385 259.386L272.736 328.968C270.198 334.239 274.035 340.354 279.884 340.354Z" fill="#194D87"/>
<path fill-rule="evenodd" clip-rule="evenodd" d="M288.064 198.039C288.064 198.039 288.064 198.039 288.79 198.969C289.516 199.9 289.516 199.9 289.516 199.9L289.516 199.901L289.512 199.903L289.495 199.917C289.479 199.929 289.456 199.948 289.424 199.973C289.362 200.023 289.268 200.098 289.15 200.195C288.912 200.389 288.572 200.672 288.168 201.022C287.357 201.725 286.298 202.691 285.289 203.755C284.271 204.828 283.349 205.956 282.772 206.981C282.158 208.073 282.116 208.723 282.253 209.048C282.362 209.309 282.815 209.704 284.105 209.943C285.3 210.164 286.832 210.176 288.398 210.076C289.948 209.977 291.464 209.773 292.597 209.592C293.162 209.502 293.628 209.418 293.952 209.357C294.114 209.326 294.24 209.301 294.325 209.284C294.367 209.276 294.399 209.269 294.42 209.265L294.443 209.26L294.448 209.259L294.449 209.259C294.449 209.259 294.449 209.259 294.692 210.414C294.936 211.569 294.936 211.569 294.935 211.569L294.935 211.57L294.924 211.572L294.896 211.578C294.871 211.583 294.835 211.59 294.788 211.599C294.695 211.618 294.561 211.644 294.389 211.677C294.047 211.741 293.559 211.829 292.969 211.923C291.793 212.111 290.198 212.327 288.548 212.433C286.913 212.537 285.154 212.538 283.676 212.265C282.294 212.009 280.692 211.428 280.076 209.963C279.487 208.561 280.035 207.031 280.715 205.823C281.431 204.55 282.506 203.259 283.576 202.13C284.655 200.992 285.775 199.971 286.621 199.238C287.045 198.87 287.403 198.573 287.656 198.366C287.783 198.263 287.883 198.182 287.953 198.127C287.987 198.099 288.015 198.078 288.033 198.063L288.055 198.046L288.064 198.039Z" fill="#001A39"/>
<path fill-rule="evenodd" clip-rule="evenodd" d="M195.088 128.006C236.562 97.9074 282.468 83.0736 300.31 79.406L300.785 81.7186C283.214 85.3304 237.637 100.046 196.48 129.913C194.789 131.17 192.112 133.323 189.602 135.68C187.055 138.073 184.811 140.555 183.852 142.474C182.918 144.342 182.698 146.566 182.845 148.659C182.991 150.746 183.494 152.591 183.895 153.616L183.91 153.652L183.921 153.689C187.111 163.742 200.538 192.332 228.553 225.29L228.585 225.328L228.614 225.368C228.951 225.84 230.63 227.518 234.055 229.117C235.08 229.595 240.077 231.399 246.069 233.304C252.041 235.202 258.854 237.153 263.489 237.95C264.644 238.149 265.636 238.27 266.43 238.306C266.953 238.329 267.339 238.312 267.608 238.275C267.486 238.106 267.312 237.898 267.07 237.647C265.849 236.384 263.323 234.474 259.007 231.749C254.716 229.041 248.733 225.573 240.665 221.19L241.566 219.021C248.905 221.206 256.994 223.429 263.921 225.031C267.385 225.832 270.544 226.474 273.166 226.879C275.82 227.29 277.819 227.438 279.016 227.308C279.204 227.288 279.351 227.263 279.463 227.238C279.293 227.007 278.996 226.682 278.509 226.256C277.825 225.655 276.851 224.928 275.541 224.061C270.284 220.586 260.028 215.142 242.793 207.055L243.407 204.812C248.772 205.326 254.686 205.714 259.754 205.755C262.289 205.776 264.594 205.709 266.504 205.532C268.445 205.352 269.868 205.067 270.707 204.704C271.034 204.563 271.192 204.443 271.26 204.378C271.205 204.254 271.04 204.001 270.615 203.624C270.167 203.226 269.506 202.757 268.585 202.215C264.871 200.034 257.508 197.016 244.995 192.944L245.726 190.699C258.238 194.771 265.823 197.855 269.781 200.18C270.777 200.765 271.579 201.322 272.183 201.859C272.771 202.381 273.258 202.959 273.492 203.605C273.754 204.327 273.671 205.069 273.229 205.695C272.839 206.249 272.239 206.614 271.644 206.871C270.444 207.39 268.708 207.699 266.722 207.883C264.704 208.07 262.314 208.137 259.735 208.116C256.579 208.091 253.114 207.933 249.661 207.696C263.434 214.287 272.072 218.937 276.843 222.092C278.201 222.99 279.271 223.783 280.066 224.481C280.836 225.156 281.447 225.824 281.76 226.487C281.922 226.833 282.04 227.251 281.989 227.705C281.934 228.187 281.702 228.586 281.381 228.88C280.816 229.396 279.992 229.577 279.271 229.656C277.74 229.822 275.474 229.625 272.805 229.213C270.104 228.795 266.883 228.139 263.389 227.331C259.446 226.419 255.138 225.31 250.809 224.122C254.589 226.277 257.717 228.143 260.267 229.753C264.591 232.483 267.332 234.521 268.767 236.006C269.446 236.708 270.03 237.48 270.148 238.287C270.216 238.755 270.128 239.249 269.816 239.672C269.527 240.064 269.128 240.284 268.777 240.413C268.097 240.662 267.22 240.704 266.325 240.664C265.394 240.623 264.295 240.484 263.089 240.277C258.28 239.45 251.333 237.454 245.353 235.554C239.392 233.659 234.245 231.81 233.057 231.256C229.457 229.576 227.407 227.708 226.725 226.785C198.602 193.69 185.004 164.875 181.682 154.439C181.201 153.197 180.652 151.136 180.49 148.824C180.326 146.495 180.549 143.801 181.74 141.419C182.905 139.088 185.433 136.357 187.986 133.959C190.574 131.528 193.325 129.315 195.077 128.014L195.083 128.01L195.088 128.006Z" fill="#001A39"/>
</svg>
