<svg width="823" height="540" viewBox="0 0 823 540" fill="none" xmlns="http://www.w3.org/2000/svg">
<path d="M52.6431 388.182L0.573242 390.787L17.4947 490.999L29.7923 409.381L64.8309 407.473" fill="#001A39"/>
<path d="M171.478 426.385L131.448 460.563L203.939 530.125L165.719 457.393L192.557 434.262" fill="#001A39"/>
<path d="M186.397 242.312C161.341 230.217 130.674 233.596 114.811 253.968C100.128 272.831 93.5565 291.085 126.341 372.988L55.8027 376.905C55.8027 376.905 41.7664 383.432 38.8044 410.961C35.8425 438.491 53.658 449.275 53.658 449.275L161.571 443.483C188.256 442.051 206.906 415.876 200.088 389.433L181.164 316.026L227.085 345.141L168.62 419.491C168.62 419.491 165 436.116 182.546 449.703C197.702 461.441 216.51 457.903 216.51 457.903L288.145 375.61C306.586 354.427 304.359 321.895 283.274 303.481C246.667 271.525 215.243 256.233 186.397 242.312Z" fill="#F96155"/>
<path d="M135.156 239.323C149.713 247.304 164.249 255.756 180.056 261.055C194.691 265.964 212.342 268.992 227.349 263.803C227.881 263.622 227.662 262.881 227.118 262.974C218.957 264.307 211.135 265.415 202.831 264.691C194.861 264 187.023 262.113 179.459 259.541C163.991 254.27 150.245 245.581 135.507 238.725C135.106 238.538 134.761 239.103 135.156 239.323Z" fill="white"/>
<path d="M105.053 308.16C129.95 315.01 150.31 331.921 174.565 340.45C187.033 344.838 200.389 347.356 213.625 345.908C225.928 344.564 237.375 339.776 248.104 333.802C254.549 330.215 260.807 326.288 267.093 322.432C274.29 318.022 281.601 313.727 288.617 309.037C289.072 308.73 288.671 308.022 288.183 308.291C276.056 315.016 264.449 322.69 252.514 329.749C241.697 336.15 230.299 341.832 217.815 344.043C190.955 348.799 165.169 336.589 142.384 323.792C130.504 317.117 118.579 310.71 105.234 307.49C104.801 307.386 104.62 308.044 105.053 308.16Z" fill="white"/>
<path d="M42.957 393.985C56.8068 388.336 71.7865 385.418 86.7443 385.549C102.541 385.686 117.527 389.745 131.81 396.333C145.084 402.454 157.529 410.232 170.896 416.167C184.269 422.107 198.673 426.441 213.417 426.402C229.823 426.358 245.411 420.133 259.118 411.466C259.585 411.17 259.173 410.463 258.685 410.72C244.989 418.037 231.243 424.57 215.408 425.053C199.748 425.536 184.368 420.884 170.227 414.483C156.761 408.389 144.184 400.523 130.685 394.495C117.631 388.665 103.94 384.924 89.6075 384.447C73.5856 383.915 57.3663 386.877 42.6827 393.349C42.3317 393.508 42.5895 394.133 42.957 393.985Z" fill="white"/>
<path d="M109.858 324.528C115.289 314.348 119.556 303.24 121.371 291.815C123.412 278.958 122.255 264.346 115.431 252.959C115.19 252.558 114.46 252.821 114.641 253.293C117.269 259.99 119.726 266.468 120.571 273.676C121.317 280.033 121.042 286.478 119.962 292.78C118.069 303.822 113.621 313.953 109.249 324.182C109.09 324.577 109.644 324.934 109.858 324.528Z" fill="white"/>
<path d="M90.4407 447.235C86.6341 435.688 83.7709 424.005 82.7891 411.85C82.3119 405.943 82.2241 400.003 82.5697 394.084C82.9317 387.919 84.1494 381.951 84.9721 375.852C85.0434 375.314 84.3249 375.084 84.1439 375.621C82.2515 381.156 81.692 387.354 81.3191 393.163C80.9077 399.542 81.0229 405.954 81.5879 412.322C82.641 424.269 85.0544 436.451 89.81 447.503C89.9581 447.86 90.5614 447.608 90.4407 447.235Z" fill="white"/>
<path d="M166.689 443.444C162.252 429.792 159.767 415.569 160.705 401.187C161.632 386.964 165.844 373.323 171.664 360.384C177.056 348.382 183.671 336.973 189.041 324.961C194.279 313.239 198.382 300.903 199.863 288.107C201.574 273.33 199.144 258.339 192.634 244.939C192.425 244.506 191.668 244.813 191.844 245.274C196.956 258.383 200.016 271.465 198.793 285.633C197.581 299.68 192.996 313.283 187.165 326.047C181.822 337.73 175.427 348.898 170.227 360.647C164.939 372.599 161.012 385.121 159.783 398.181C158.33 413.644 160.782 429.084 166.02 443.647C166.168 444.042 166.826 443.872 166.689 443.444Z" fill="white"/>
<path d="M241.79 429.161C237.847 410.517 237.391 391.144 242.569 372.686C247.374 355.556 256.326 340.171 264.082 324.292C268.453 315.34 272.715 305.878 274.816 296.093C274.931 295.55 274.163 295.341 273.988 295.862C270.845 305.044 267.592 314.023 263.363 322.778C259.485 330.813 255.251 338.668 251.395 346.715C243.573 363.038 238.039 380.042 237.6 398.274C237.348 408.729 238.499 419.216 241.127 429.342C241.236 429.781 241.884 429.594 241.79 429.161Z" fill="white"/>
<path fill-rule="evenodd" clip-rule="evenodd" d="M198.026 373.861C200.511 384.251 202.351 392.471 202.78 395.731C204.138 406.094 202.037 418.749 193.375 428.914C184.692 439.103 169.598 446.58 145.399 446.927L145.359 444.184C169.006 443.845 183.252 436.564 191.288 427.135C199.344 417.682 201.34 405.856 200.06 396.089C199.655 393.005 197.859 384.952 195.358 374.5C192.867 364.087 189.701 351.388 186.586 339.082C183.472 326.776 180.409 314.866 178.125 306.032C176.983 301.615 176.035 297.968 175.373 295.424C175.043 294.153 174.783 293.157 174.606 292.48L174.336 291.444C174.336 291.443 174.335 291.443 175.662 291.096C176.989 290.749 176.989 290.749 176.989 290.75L177.26 291.787C177.437 292.465 177.697 293.461 178.028 294.734C178.69 297.278 179.637 300.927 180.78 305.346C183.065 314.182 186.129 326.097 189.245 338.409C192.361 350.72 195.531 363.432 198.026 373.861Z" fill="white"/>
<path fill-rule="evenodd" clip-rule="evenodd" d="M32.6586 429.571L19.2915 414.317L20.9416 412.871L34.3087 428.125L32.6586 429.571Z" fill="white"/>
<path fill-rule="evenodd" clip-rule="evenodd" d="M31.8746 440.109L18.502 424.855L20.1518 423.408L33.5244 438.662L31.8746 440.109Z" fill="white"/>
<path fill-rule="evenodd" clip-rule="evenodd" d="M31.6494 451.451L18.2822 436.197L19.9323 434.751L33.2995 450.005L31.6494 451.451Z" fill="white"/>
<path fill-rule="evenodd" clip-rule="evenodd" d="M179.524 470.899L159.948 466.593L160.419 464.45L179.995 468.756L179.524 470.899Z" fill="white"/>
<path fill-rule="evenodd" clip-rule="evenodd" d="M184.933 479.9L165.356 475.588L165.828 473.446L185.405 477.757L184.933 479.9Z" fill="white"/>
<path fill-rule="evenodd" clip-rule="evenodd" d="M191.262 489.214L171.686 484.908L172.157 482.765L191.734 487.071L191.262 489.214Z" fill="white"/>
<path fill-rule="evenodd" clip-rule="evenodd" d="M263.407 42.9998C266.823 37.6346 270.449 34.1814 272.8 32.9104L274.881 36.6626C273.441 37.4415 270.296 40.2181 267.076 45.2762C263.903 50.2594 260.76 57.3044 259.184 66.4288C257.589 75.6706 257.534 82.8256 258.086 87.9762C258.646 93.1984 259.812 96.2038 260.501 97.2735L260.517 97.2972L260.531 97.3213C261.34 98.6516 262.608 99.9053 263.942 100.33C264.557 100.525 265.205 100.555 265.924 100.324C266.665 100.085 267.613 99.5242 268.713 98.3236C269.145 97.8528 269.672 96.9835 270.243 95.632C270.8 94.3127 271.343 92.67 271.864 90.7693C272.907 86.969 273.824 82.2914 274.609 77.4238C276.178 67.697 277.191 57.3997 277.641 52.2496L281.958 52.617C281.505 57.8054 280.482 68.2204 278.889 78.0965C278.093 83.0303 277.147 87.8768 276.047 91.8878C275.497 93.8928 274.897 95.7276 274.243 97.2781C273.601 98.7965 272.847 100.189 271.926 101.194C270.454 102.801 268.896 103.866 267.268 104.391C265.616 104.923 264.03 104.852 262.613 104.402C259.897 103.537 257.92 101.331 256.83 99.5456C255.628 97.6659 254.365 93.9155 253.776 88.4266C253.178 82.8421 253.258 75.2914 254.912 65.71C256.587 56.0112 259.944 48.4397 263.407 42.9998Z" fill="#001A39"/>
<path d="M283.604 32.6363C261.937 78.4367 268.794 48.2688 276.747 23.5859L299.507 44.7035C272.359 88.0356 281.135 59.2389 290.734 38.6699C261.392 93.2464 272.835 55.3994 283.604 32.6363Z" fill="white"/>
<path fill-rule="evenodd" clip-rule="evenodd" d="M275.768 20.5006C272.098 19.3923 268.81 19.4693 266.277 21.0783C265.729 21.4266 265.063 22.1107 264.3 23.197C263.548 24.2678 262.75 25.6587 261.916 27.3392C260.248 30.6996 258.477 35.131 256.665 40.2799C253.042 50.5727 249.291 63.6257 245.898 76.4716C242.506 89.3126 239.476 101.926 237.294 111.33C236.203 116.031 235.324 119.93 234.718 122.653C234.415 124.014 234.18 125.081 234.021 125.808C233.975 126.021 233.935 126.204 233.902 126.357C233.878 126.466 233.858 126.559 233.841 126.637L233.78 126.919C233.78 126.92 233.78 126.92 232.707 126.689L233.78 126.92L233.58 127.847L165.684 123.324L165.829 121.135L231.836 125.532C231.849 125.47 231.863 125.406 231.878 125.339C232.038 124.61 232.273 123.54 232.577 122.176C233.184 119.448 234.064 115.543 235.157 110.834C237.342 101.417 240.377 88.7808 243.777 75.9112C247.175 63.0465 250.943 49.9271 254.595 39.5515C256.42 34.3663 258.225 29.8397 259.95 26.3637C260.813 24.626 261.666 23.1292 262.504 21.9359C263.332 20.7581 264.195 19.8017 265.101 19.2265C268.382 17.1414 272.41 17.1944 276.402 18.4003C280.404 19.6091 284.528 22.0174 288.195 24.9014C291.866 27.7887 295.136 31.1986 297.413 34.4695C298.552 36.1049 299.459 37.7295 300.039 39.2572C300.614 40.7722 300.898 42.2727 300.687 43.6222C300.314 46.0138 299.04 48.7457 297.434 51.4323C295.814 54.1414 293.795 56.9022 291.834 59.3696C289.871 61.8399 287.953 64.0328 286.526 65.6073C285.812 66.395 285.221 67.0292 284.807 67.4671C284.644 67.6388 284.509 67.7803 284.405 67.8893C284.383 68.0444 284.354 68.2491 284.319 68.5007C284.23 69.1307 284.098 70.0553 283.927 71.2347C283.585 73.5934 283.086 76.9715 282.456 81.0509C281.196 89.2088 279.415 100.175 277.328 111.403C275.243 122.626 272.848 134.131 270.36 143.359C269.116 147.971 267.843 152.039 266.564 155.228C265.925 156.822 265.277 158.217 264.621 159.357C263.972 160.486 263.281 161.429 262.532 162.065C261.082 163.296 258.5 164.167 255.349 164.828C252.136 165.503 248.12 166 243.616 166.359C234.603 167.078 223.525 167.255 212.778 167.174C202.025 167.092 191.581 166.752 183.826 166.432C179.948 166.272 176.742 166.117 174.504 166.002C173.386 165.945 172.509 165.897 171.912 165.864C171.613 165.848 171.385 165.835 171.23 165.826L171.056 165.816L170.997 165.812C170.996 165.812 170.996 165.812 171.061 164.717C171.125 163.622 171.126 163.622 171.126 163.622L171.129 163.622L171.356 163.635C171.509 163.644 171.736 163.657 172.034 163.674C172.628 163.707 173.501 163.754 174.617 163.811C176.848 163.926 180.047 164.08 183.917 164.24C191.657 164.559 202.075 164.899 212.794 164.98C223.519 165.061 234.523 164.883 243.441 164.172C247.903 163.816 251.815 163.329 254.898 162.681C258.043 162.021 260.125 161.231 261.112 160.392C261.582 159.993 262.124 159.298 262.719 158.264C263.307 157.242 263.912 155.949 264.528 154.412C265.76 151.337 267.008 147.362 268.241 142.788C270.707 133.644 273.089 122.205 275.171 111.002C277.253 99.8035 279.03 88.8608 280.287 80.7162C280.916 76.6443 281.415 73.2729 281.756 70.9198C281.926 69.7433 282.058 68.8214 282.146 68.1939C282.191 67.8802 282.224 67.64 282.247 67.4785L282.28 67.2382L282.281 67.2354C282.281 67.2348 282.281 67.2345 283.367 67.3843L282.281 67.2345L282.33 66.8761L282.583 66.6175L282.592 66.6079L282.623 66.5766C282.65 66.5486 282.691 66.5064 282.744 66.4507C282.852 66.3393 283.01 66.174 283.212 65.9599C283.617 65.5318 284.198 64.9091 284.9 64.1342C286.305 62.5834 288.191 60.4276 290.116 58.0046C292.044 55.5786 293.999 52.9013 295.551 50.3063C297.116 47.6886 298.212 45.2502 298.519 43.2838C298.649 42.4543 298.491 41.3616 297.988 40.0356C297.489 38.7223 296.681 37.258 295.613 35.7232C293.476 32.6536 290.363 29.3978 286.839 26.6259C283.31 23.8507 279.428 21.6062 275.768 20.5006Z" fill="#001A39"/>
<path d="M179.634 131.702C184.493 162.215 163.699 190.897 133.18 195.757C102.667 200.616 73.9858 179.822 69.126 149.303" fill="#194D87"/>
<path d="M145.785 98.1832C146.12 113.591 133.905 126.349 118.492 126.684C104.872 126.98 93.3203 117.463 90.5942 104.606C90.2377 102.917 90.0295 101.178 89.9911 99.3901C89.6565 83.988 101.872 71.2242 117.285 70.8896C125.304 70.7141 132.599 73.9393 137.804 79.2379C142.609 84.1361 145.626 90.7948 145.785 98.1832Z" fill="#FBC73B"/>
<path d="M137.81 79.2379C130.646 94.1738 115.53 104.634 97.8347 105.018C95.3773 105.073 92.9582 104.925 90.5996 104.606C90.2431 102.917 90.0349 101.178 89.9965 99.3901C89.6619 83.988 101.877 71.2242 117.29 70.8896C125.309 70.7141 132.599 73.9393 137.81 79.2379Z" fill="#001A39"/>
<path d="M92.0758 80.9928C97.9466 80.9928 102.706 76.2335 102.706 70.3627C102.706 64.4919 97.9466 59.7327 92.0758 59.7327C86.205 59.7327 81.4458 64.4919 81.4458 70.3627C81.4458 76.2335 86.205 80.9928 92.0758 80.9928Z" fill="#001A39"/>
<path d="M96.2172 60.5334C112.933 60.5334 126.484 46.9826 126.484 30.2668C126.484 13.5509 112.933 0 96.2172 0C79.5014 0 65.9507 13.5509 65.9507 30.2668C65.9507 46.9826 79.5014 60.5334 96.2172 60.5334Z" fill="#001A39"/>
<path d="M140.692 104.121C142.361 104.085 143.667 101.902 143.61 99.246C143.553 96.5898 142.153 94.4658 140.484 94.5019C138.815 94.5379 137.509 96.7204 137.566 99.3766C137.624 102.033 139.023 104.157 140.692 104.121Z" fill="#001A39"/>
<path d="M130.658 104.664C132.327 104.628 133.634 102.445 133.576 99.7892C133.519 97.1331 132.119 95.009 130.45 95.0451C128.781 95.0811 127.475 97.2636 127.533 99.9198C127.59 102.576 128.989 104.7 130.658 104.664Z" fill="#001A39"/>
<path d="M656.233 46.8319C656.568 62.2394 669.326 74.4602 684.734 74.1256C698.353 73.8294 709.482 63.8247 711.649 50.8634C711.928 49.1631 712.06 47.4133 712.022 45.6252C711.687 30.2231 698.929 17.9968 683.521 18.3314C675.502 18.5069 668.355 22.0392 663.386 27.5627C658.8 32.6583 656.074 39.4489 656.233 46.8319Z" fill="#F96155"/>
<path d="M657.96 16.4719C658.097 22.8729 663.396 27.9467 669.797 27.8096C675.458 27.6889 680.076 23.5312 680.976 18.1448C681.091 17.4373 681.146 16.7133 681.129 15.9673C680.992 9.5662 675.694 4.49254 669.292 4.62967C665.963 4.70097 662.99 6.17097 660.928 8.46373C659.03 10.5865 657.894 13.4057 657.96 16.4719Z" fill="#001A39"/>
<path d="M677.103 12.8025C677.185 16.7024 680.415 19.7961 684.315 19.7083C687.76 19.6315 690.579 17.1029 691.128 13.8228C691.199 13.395 691.232 12.9506 691.221 12.4953C691.139 8.59545 687.908 5.50195 684.008 5.58971C681.979 5.63359 680.169 6.52767 678.913 7.92636C677.75 9.21535 677.059 10.9321 677.103 12.8025Z" fill="#001A39"/>
<path d="M665.625 56.5956C667.294 56.5596 668.6 54.3771 668.543 51.7209C668.486 49.0647 667.086 46.9407 665.418 46.9767C663.749 47.0128 662.443 49.1953 662.5 51.8515C662.557 54.5076 663.957 56.6317 665.625 56.5956Z" fill="#001A39"/>
<path d="M675.675 56.7059C677.344 56.6698 678.65 54.4874 678.592 51.8312C678.535 49.1751 677.136 47.051 675.467 47.0871C673.798 47.1231 672.491 49.3056 672.549 51.9618C672.606 54.618 674.006 56.7419 675.675 56.7059Z" fill="#001A39"/>
<path d="M602.807 259.247C589.149 255.029 577.279 247.147 568.064 236.22C558.948 225.415 552.914 212.607 547.709 199.58C542.12 185.588 537.82 171.124 533.273 156.775C530.985 149.551 528.643 142.343 526.076 135.218C523.169 127.155 520.602 118.927 520.459 110.277C520.317 101.765 522.818 93.3285 529.334 87.5363C535.313 82.2212 543.524 80.1424 551.335 79.6378C559.979 79.0729 568.629 80.2851 577.093 81.98C586.653 83.8943 596.054 86.6312 605.214 89.9661C623.578 96.647 640.966 105.763 657.751 115.713C674.381 125.575 690.672 136.112 706.568 147.121C722.277 157.998 737.514 169.604 751.529 182.615C765.384 195.483 778.56 209.81 788.427 226.013C798.163 242.007 804.334 262.461 796.145 280.457C788.625 296.995 770.398 305.086 753.092 306.106C732.096 307.345 710.731 300.752 690.963 294.357C671.134 287.939 651.816 280.046 632.783 271.582C594.793 254.683 556.974 236.829 520.635 216.595C503.335 206.963 486.205 196.788 470.095 185.242C455.483 174.771 441.551 162.786 430.828 148.256C425.54 141.087 419.852 132.816 417.762 124.045C415.634 115.115 420.225 108.226 428.458 105.067C436.269 102.066 444.93 101.891 453.168 101.348C463.842 100.64 474.533 100.185 485.223 100.015C527.113 99.3566 569.288 103.174 609.767 114.32C645.091 124.045 678.972 139.398 708.647 160.998C737.811 182.225 765.555 210.528 777.315 245.359C788.076 277.249 782.652 316.999 753.8 337.738C725.305 358.225 686.542 355.592 654.377 346.882C616.261 336.559 581.437 316.604 548.373 295.492C516.148 274.923 484.801 251.046 463.623 218.673C453.684 203.48 446.104 186.695 442.385 168.874C439.587 155.458 436.516 132.07 452.784 125.625C457.063 123.93 461.758 123.727 466.299 123.688C471.51 123.639 476.721 123.837 481.915 124.232C492.447 125.027 502.896 126.689 513.213 128.932C532.993 133.227 552.399 139.474 571.213 146.918C589.9 154.312 608.034 163.11 625.433 173.169C641.323 182.357 656.84 192.46 670.844 204.363C696.168 225.897 717.099 254.919 716.907 289.409C716.825 304.301 712.969 319.363 704.478 331.721C694.764 345.856 679.422 353.958 662.802 357.029C644.751 360.364 625.773 358.488 607.87 355.126C590.065 351.78 572.611 346.366 556.057 339C539.574 331.666 523.926 322.462 509.528 311.585C494.981 300.599 481.263 287.835 470.485 273.069C460.063 258.786 452.022 242.035 451.325 224.104C450.991 215.459 452.219 206.491 456.273 198.752C460.48 190.716 467.545 185.379 476.195 182.867C484.674 180.404 493.643 180.366 502.397 180.799C512.336 181.293 522.242 182.494 532.005 184.419C551.472 188.248 570.428 194.561 588.556 202.575C623.628 218.081 656.818 239.341 684.161 266.344C697.282 279.306 710.451 293.929 716.957 311.481C722.513 326.472 722.343 344.035 712.892 357.495C701.911 373.144 680.826 373.89 663.466 374.126C643.193 374.4 622.975 371.757 603.328 366.842C564.57 357.144 528.649 338.753 495.837 316.226C479.596 305.074 464.078 292.914 449.065 280.167C435.989 269.065 420.697 256.597 416.056 239.292C411.339 221.723 421.415 205.021 435.024 194.528C449.828 183.114 468.302 177.684 486.616 175.402C505.787 173.01 525.396 173.202 544.616 174.809C564.685 176.482 584.574 180.086 603.975 185.478C623.271 190.842 642.129 197.945 660.065 206.875C675.138 214.379 689.625 223.374 702.29 234.52C714.719 245.457 725.437 258.583 732.068 273.853C738.776 289.305 742.95 310.911 726.528 321.815C711.411 331.847 692.817 327.377 677.958 319.325C662.067 310.719 647.263 299.425 633.122 288.23C605.648 266.47 580.488 241.716 558.684 214.258C536.964 186.904 518.688 156.692 504.843 124.615C501.327 116.465 497.976 108.16 495.266 99.7021C492.497 91.0577 490.412 80.6964 495.782 72.5785C504.843 58.8822 525.78 59.4582 540.123 60.3194C577.729 62.5792 615.965 75.8201 646.802 97.5246C673.932 116.618 695.899 144.543 700.375 178.155C704.5 209.119 693.656 243.45 665.94 260.349C636.66 278.203 599.044 277.38 566.715 269.438C551.143 265.609 535.872 259.576 522.906 249.993C509.111 239.797 499.27 225.442 495.584 208.614C491.388 189.471 494.954 169.566 502.194 151.624C509.177 134.319 519.263 117.627 530.958 103.098C541.472 90.0266 554.17 77.9374 569.397 70.56C584.486 63.2429 601.644 61.2628 617.803 66.0403C633.271 70.6094 647.214 80.7457 655.924 94.3707C666.412 110.777 667.827 130.797 667.371 149.764C666.34 192.614 659.374 235.271 649.715 276.952C641.701 311.541 631.861 347.079 610.859 376.293C600.914 390.121 587.92 404.02 571.415 409.691C563.517 412.406 554.615 413.081 547.045 409C539.783 405.089 535.297 397.855 532.636 390.258C529.592 381.564 528.407 372.245 527.738 363.096C526.97 352.647 527.156 342.148 528.029 331.71C529.756 310.949 534.112 290.396 539.58 270.321C550.029 231.953 565.673 195.005 586.039 160.844C602.872 132.607 625.477 102.785 658.041 92.1986C674.222 86.9384 694.336 85.9566 706.722 99.598C717.401 111.363 719.814 128.773 720.648 144.005C722.606 179.878 715.679 216.178 701.033 248.962C686.558 281.363 664.377 312.309 635.136 332.911C620.749 343.048 604.123 350.847 586.434 352.564C569.32 354.221 552.432 349.904 537.836 340.925C506.176 321.442 491.251 285.164 490.719 249.039C490.138 209.837 505.567 171.809 524.803 138.317C533.388 123.37 543.485 108.791 556.534 97.382C570.406 85.2599 587.454 77.6522 605.845 75.9519C624.785 74.1966 643.813 77.9868 661.656 84.1795C679.082 90.2295 695.916 98.5832 711.46 108.511C726.341 118.017 740.307 129.64 750.333 144.312C761.462 160.592 766.443 179.845 768.248 199.289C771.824 237.877 764.6 277.539 747.032 312.123C730.532 344.6 704.747 373.062 669.39 384.669C633.666 396.401 594.628 391.931 558.613 383.95C523.037 376.068 484.587 362.909 465.57 329.291C456.651 313.527 453.892 295.3 459.712 277.967C465.822 259.762 478.987 244.239 492.162 230.658C505.836 216.562 521.096 204.111 536.887 192.471C552.152 181.221 568.015 170.767 584.454 161.311C617.446 142.327 652.885 127.281 690.025 118.648C708.537 114.342 727.4 111.747 746.401 111.117C755.775 110.804 765.165 110.968 774.522 111.627C780.496 112.049 792.047 113.278 792.053 121.467C792.053 125.729 788.317 129.146 785.262 131.614C781.22 134.878 776.81 137.747 772.575 140.758C763.81 146.984 755.006 153.16 746.181 159.297C728.376 171.677 710.468 183.915 692.504 196.058C656.846 220.171 620.957 243.954 584.975 267.578C567.713 278.916 550.249 290.029 531.857 299.458C522.708 304.153 513.285 308.788 503.181 311.02C494.427 312.951 481.685 313.67 475.47 305.81C470.068 298.975 470.534 288.652 471.647 280.529C472.98 270.853 476.233 261.506 480.363 252.692C488.53 235.282 499.5 218.953 510.964 203.568C533.727 173.016 561.329 145.228 592.703 123.513C623.59 102.138 659.61 87.0975 697.709 88.0958C716.139 88.5785 734.641 92.939 750.893 101.754C766.054 109.976 780.041 122.416 786.573 138.728C793.89 156.999 790.369 177.294 783.139 195.005C776.349 211.636 766.245 227.066 754.381 240.51C729.72 268.445 696.958 287.983 661.475 298.849C642.733 304.592 623.299 308.047 603.745 309.369C586.253 310.549 568.305 309.885 551.439 304.735C534.967 299.705 520.36 289.941 510.641 275.581C501.393 261.907 496.566 245.463 495.003 229.128C493.533 213.775 494.389 198.028 497.767 182.971C501.3 167.229 508.003 151.926 520.026 140.824C521.852 139.134 519.121 136.414 517.3 138.098C504.015 150.368 496.714 167.372 493.127 184.831C489.606 201.95 488.964 219.814 491.569 237.103C494.114 253.981 500.164 270.513 510.937 283.902C522.105 297.785 537.995 306.583 555.125 310.878C573.473 315.485 592.703 315.463 611.424 313.659C631.889 311.684 652.167 307.488 671.578 300.692C707.725 288.032 740.795 266.202 764.523 235.902C786.848 207.391 807.12 164.695 787.204 129.761C768.494 96.9433 727.159 83.3237 691.325 83.9435C651.701 84.6292 614.682 101.896 583.274 125.098C551.143 148.838 523.12 178.342 500.274 211.071C488.843 227.45 477.577 244.898 471.236 263.969C468.197 273.107 466.195 283.085 466.909 292.761C467.501 300.807 470.43 309.249 477.983 313.242C486.594 317.794 497.625 316.851 506.725 314.471C516.916 311.805 526.504 306.983 535.812 302.151C555.383 291.987 573.906 279.969 592.303 267.853C630.27 242.852 668.222 217.829 705.838 192.296C724.674 179.51 743.389 166.549 761.967 153.39C770.705 147.203 779.865 141.29 788.158 134.51C793.918 129.804 799.211 121.911 793.857 114.847C789.299 108.835 780.496 108.078 773.584 107.645C763.761 107.03 753.899 106.97 744.064 107.42C724.466 108.325 704.928 111.259 685.851 115.823C647.06 125.104 610.064 141.29 575.809 161.579C558.476 171.847 541.785 183.191 525.807 195.461C509.566 207.934 494.015 221.432 480.522 236.889C467.912 251.337 455.85 268.078 452.866 287.484C450.113 305.382 455.697 323.422 465.905 338.122C488.679 370.906 529.29 382.771 566.507 390.214C604.238 397.756 645.207 400.581 681.37 385.008C716.694 369.793 741.623 337.288 756.422 302.689C772.202 265.801 777.808 223.566 770.546 183.975C766.986 164.585 759.093 146.726 746.05 131.861C733.917 118.033 718.597 107.305 702.602 98.4077C669.462 79.9669 628.619 64.7457 590.465 75.0248C553.995 84.8486 530.854 117.545 514.075 149.222C495.107 185.023 481.663 225.546 487.219 266.492C489.775 285.317 496.314 303.884 507.635 319.264C517.986 333.328 531.906 344.754 548.076 351.462C564.669 358.346 582.907 359.344 600.267 354.84C618.258 350.173 634.527 340.278 648.629 328.364C677.151 304.268 698.324 271.171 711.17 236.314C717.658 218.712 721.986 200.364 724.125 181.732C726.177 163.823 726.589 145.108 723.468 127.292C720.747 111.747 713.874 95.0673 698.73 87.9641C682.379 80.296 662.227 84.503 646.545 91.8969C613.667 107.398 592.034 140.182 575.03 170.959C554.895 207.402 539.827 246.658 530.563 287.254C525.637 308.832 522.187 330.959 522.571 353.151C522.746 363.348 523.596 373.715 525.84 383.681C527.644 391.711 530.645 399.698 536.004 406.055C548.115 420.426 567.697 418.188 582.61 409.834C598.298 401.052 610.579 386.144 620.057 371.137C640.637 338.55 649.814 299.798 657.701 262.521C662.353 240.554 666.104 218.383 668.628 196.069C669.906 184.754 670.854 173.411 671.419 162.04C671.94 151.547 672.264 140.988 671.365 130.506C669.763 111.874 663.729 94.1129 650.302 80.6909C638.569 68.9638 622.816 61.3615 606.301 59.6885C570.16 56.03 539.843 82.4516 520.13 109.85C497.46 141.35 478.789 183.986 494.92 222.458C508.381 254.557 543.052 270.113 575.337 276.069C609.328 282.344 649.1 281.225 676.773 257.897C701.927 236.692 709.261 200.891 702.723 169.725C695.521 135.41 670.58 107.902 641.69 89.511C625.811 79.4074 608.424 71.6789 590.504 66.0019C570.346 59.6172 548.861 55.6734 527.656 56.1177C513.109 56.4249 495.124 60.5497 489.748 76.0011C486.523 85.2709 489.254 95.4842 492.293 104.414C495.206 112.976 498.497 121.412 502.057 129.728C516.516 163.483 536.36 194.742 559.678 223.061C583.121 251.535 610.178 276.931 639.655 299.068C647.137 304.685 654.772 310.104 662.567 315.271C670.937 320.822 679.664 326.06 689.235 329.264C704.44 334.359 723.462 333.147 734.843 320.564C747.766 306.281 742.199 284.966 734.893 269.372C727.559 253.712 715.986 240.34 702.789 229.309C689.197 217.949 673.866 208.822 657.866 201.286C638.898 192.345 619.065 185.247 598.731 180.119C578.415 174.99 557.582 171.804 536.662 170.608C516.735 169.472 496.347 169.741 476.672 173.378C458.428 176.751 440.086 183.355 426.396 196.327C413.506 208.543 406.084 226.325 412.299 243.751C418.574 261.336 434.014 273.892 447.837 285.531C463.59 298.794 479.908 311.432 497.005 322.928C531.764 346.306 570.143 364.977 611.298 373.698C631.68 378.015 652.638 379.918 673.454 378.64C683.146 378.048 693.069 376.995 701.971 372.848C709.486 369.343 715.547 363.364 719.512 356.113C738.694 321.058 709.919 284.851 685.664 261.496C656.769 233.681 621.648 211.894 584.739 196.404C565.464 188.319 545.521 182.434 524.919 178.923C515.122 177.256 505.118 176.236 495.179 176.159C486.276 176.087 477.138 177.003 468.932 180.667C451.78 188.319 445.686 207.396 446.581 224.965C447.529 243.576 455.702 261.013 466.59 275.855C477.758 291.071 491.729 304.109 506.719 315.491C521.924 327.037 538.544 336.718 556.068 344.287C573.522 351.829 591.809 357.375 610.557 360.567C629.151 363.732 648.618 365.268 667.19 361.148C684.205 357.375 699.366 348.171 709.146 333.586C717.812 320.658 721.751 304.85 721.833 289.393C722.025 253.476 700.441 223.001 673.981 200.595C659.116 188.012 642.661 177.322 625.761 167.69C607.644 157.367 588.743 148.432 569.293 140.928C549.234 133.189 528.501 126.755 507.356 122.761C496.566 120.721 485.629 119.35 474.648 118.933C465.542 118.587 454.699 117.907 446.8 123.321C432.747 132.958 434.514 153.368 437.284 167.931C440.838 186.624 448.659 204.396 458.966 220.325C480.879 254.195 513.542 279.026 547.182 300.39C581.848 322.407 618.554 343.146 658.782 352.893C692.345 361.022 732.496 361.724 760.508 338.435C788.553 315.118 792.947 273.749 780.775 241.119C767.436 205.367 738.557 176.702 707.879 155.129C676.367 132.969 640.226 117.556 602.938 108.193C559.924 97.3929 515.243 94.442 471.033 96.1423C460.513 96.5482 449.85 96.8828 439.395 98.1992C432.193 99.1043 424.508 100.843 418.93 105.791C404.082 118.955 420.027 141.29 429.072 152.935C440.607 167.789 455.192 179.943 470.534 190.683C487.751 202.734 505.99 213.38 524.436 223.424C543.727 233.933 563.429 243.669 583.263 253.103C603.054 262.516 622.904 271.851 643.067 280.441C663.176 289.009 683.651 296.792 704.714 302.672C724.564 308.212 746.258 313.357 766.712 307.932C784.067 303.336 798.788 291.071 802.655 273.02C806.796 253.707 799.134 234.635 788.427 218.844C766.059 185.867 733.741 160.746 701.012 138.745C667.564 116.262 632.459 93.5754 593.433 82.2158C584.097 79.5007 574.482 77.4547 564.806 76.429C556.622 75.5624 548.082 75.6666 540.134 77.9923C532.587 80.1973 525.785 84.6512 521.66 91.4582C517.272 98.6985 516.532 107.486 517.558 115.724C518.627 124.308 521.649 132.212 524.491 140.314C527.173 147.949 529.636 155.661 532.093 163.373C536.816 178.194 541.462 193.08 547.835 207.287C553.211 219.271 559.859 230.878 568.958 240.444C578.146 250.098 589.632 256.954 602.412 260.673C603.339 260.969 603.728 259.532 602.807 259.247Z" fill="#001A39"/>
<path fill-rule="evenodd" clip-rule="evenodd" d="M382.96 159.829C419.457 192.967 456.742 222.803 479.913 240.135L477.284 243.649C454.015 226.243 416.621 196.319 380.01 163.078C343.437 129.871 307.492 93.2165 287.254 62.3622L290.924 59.9556C310.837 90.3148 346.426 126.657 382.96 159.829Z" fill="#001A39"/>
<path fill-rule="evenodd" clip-rule="evenodd" d="M599.783 183.312C621.701 190.543 643.292 197.668 665.571 205.824L664.062 209.945C641.908 201.834 620.391 194.735 598.517 187.518C518.749 161.201 434.228 133.316 296.718 49.0426L299.011 45.3013C436.056 129.29 520.076 157.012 599.783 183.312Z" fill="#001A39"/>
<path fill-rule="evenodd" clip-rule="evenodd" d="M545.135 186.591C499.755 223.312 370.969 288.788 224.053 239.667L225.444 235.505C370.477 283.997 497.722 219.312 542.375 183.18L545.135 186.591Z" fill="#001A39"/>
<path fill-rule="evenodd" clip-rule="evenodd" d="M204.08 282.663C204.998 275.97 204.547 266.744 203.89 258.108L208.184 256.702C208.837 265.294 209.418 276.038 208.427 283.259C207.937 286.827 207.045 290.143 205.356 292.42C204.481 293.6 203.347 294.563 201.903 295.076C200.456 295.59 198.896 295.583 197.29 295.155C191.713 293.668 188.654 287.836 187.212 281.412C185.726 274.795 185.809 268.062 187.066 260.267L191.301 259.514C190.111 266.896 190.157 274.5 191.493 280.451C192.873 286.594 195.397 290.109 198.421 290.915C199.345 291.162 199.98 291.102 200.433 290.941C200.889 290.779 201.359 290.444 201.832 289.806C202.838 288.448 203.615 286.052 204.08 282.663Z" fill="#001A39"/>
<path fill-rule="evenodd" clip-rule="evenodd" d="M600.15 257.506C600.151 257.505 600.151 257.505 601.069 259.498C601.987 261.491 601.986 261.491 601.983 261.492L601.974 261.497L601.942 261.512C601.913 261.525 601.871 261.544 601.816 261.569C601.706 261.619 601.544 261.692 601.329 261.788C600.901 261.98 600.266 262.26 599.433 262.621C597.768 263.342 595.311 264.382 592.131 265.663C585.771 268.226 576.516 271.754 564.913 275.631C541.71 283.382 509.095 292.531 471.439 298.119C396.176 309.289 300.464 306.277 219.625 249.051L222.16 245.47C301.684 301.764 396.06 304.87 470.794 293.779C508.137 288.237 540.498 279.16 563.522 271.469C575.032 267.623 584.203 264.126 590.491 261.593C593.634 260.327 596.057 259.301 597.689 258.594C598.506 258.241 599.125 257.967 599.538 257.782C599.745 257.69 599.9 257.62 600.002 257.573C600.053 257.55 600.091 257.533 600.116 257.521L600.144 257.509L600.15 257.506Z" fill="#001A39"/>
<path fill-rule="evenodd" clip-rule="evenodd" d="M123.687 209.318L135.482 154.636L133.337 154.174L120.997 211.387L122.29 211.448C147.336 212.637 200.181 215.124 211.157 215.563C216.587 215.78 220.348 216.367 222.826 216.997C224.065 217.312 224.97 217.634 225.595 217.918C226.252 218.216 226.514 218.433 226.566 218.491L226.893 218.855H227.25C227.256 218.861 227.262 218.869 227.269 218.878C227.376 219.01 227.554 219.327 227.695 219.967C227.976 221.25 228.045 223.558 227.396 227.45C226.108 235.181 221.635 245.447 219.544 249.629L219.54 249.637L219.536 249.645C215.533 257.979 212.829 263.057 211.093 265.795C210.836 266.201 210.607 266.543 210.405 266.831C210.425 266.688 210.448 266.536 210.475 266.375C210.65 265.306 210.941 263.974 211.315 262.48C212.061 259.494 213.118 255.926 214.165 252.647L215.19 249.44L212.472 251.428C210.613 252.789 207.776 254.756 205.307 256.241C204.067 256.988 202.958 257.589 202.128 257.934C201.913 258.024 201.732 258.09 201.585 258.136C201.603 258.023 201.645 257.879 201.727 257.693C201.95 257.19 202.35 256.682 202.651 256.38L201.413 254.61C197.543 256.409 194.422 257.664 191.947 258.468C189.456 259.277 187.684 259.606 186.487 259.605C185.269 259.605 184.926 259.275 184.821 259.103C184.678 258.867 184.587 258.324 184.929 257.255C185.598 255.168 187.553 252.188 190.175 248.916C192.765 245.682 195.906 242.282 198.812 239.377L201.714 236.475L197.751 237.542C157.939 248.26 121.011 249.659 107.584 249.024L107.565 249.023L107.545 249.023C103.626 248.979 97.7364 247.623 92.9049 243.719C88.1234 239.856 84.2821 233.422 84.4949 222.991C84.9298 201.68 93.7611 172.861 98.139 161.095L96.0827 160.33C91.6845 172.15 82.7441 201.254 82.3014 222.946C82.0754 234.017 86.1874 241.112 91.5259 245.426C96.8062 249.693 103.191 251.164 107.5 251.216C120.714 251.838 155.944 250.526 194.5 240.663C192.403 242.88 190.302 245.248 188.462 247.545C185.838 250.82 183.643 254.076 182.84 256.587C182.446 257.817 182.29 259.164 182.947 260.244C183.644 261.388 184.97 261.799 186.486 261.799C188.024 261.8 190.052 261.39 192.625 260.555C194.535 259.935 196.781 259.068 199.402 257.924C199.327 258.546 199.425 259.234 199.922 259.855C200.431 260.491 201.215 260.438 201.561 260.389C202.001 260.327 202.49 260.161 202.972 259.96C203.953 259.551 205.172 258.883 206.439 258.121C207.967 257.202 209.621 256.11 211.108 255.086C210.391 257.451 209.715 259.836 209.186 261.948C208.806 263.47 208.498 264.867 208.309 266.02C208.129 267.118 208.027 268.155 208.162 268.864C208.218 269.159 208.397 269.857 209.102 270.134C209.816 270.415 210.432 270.016 210.7 269.813C211.326 269.335 212.067 268.357 212.946 266.97C214.757 264.115 217.507 258.938 221.51 250.602C223.626 246.369 228.217 235.872 229.56 227.811C230.228 223.804 230.206 221.177 229.838 219.497C229.654 218.657 229.368 217.986 228.978 217.501C228.691 217.145 228.32 216.863 227.89 216.735C227.536 216.445 227.06 216.174 226.502 215.92C225.731 215.57 224.698 215.209 223.366 214.871C220.702 214.193 216.783 213.592 211.244 213.37C200.465 212.939 149.219 210.529 123.687 209.318ZM201.163 258.223C201.164 258.222 201.177 258.221 201.197 258.223C201.173 258.225 201.162 258.224 201.163 258.223ZM209.312 268.106C209.312 268.105 209.321 268.099 209.339 268.09C209.32 268.103 209.312 268.107 209.312 268.106ZM210.322 268.478C210.329 268.497 210.332 268.508 210.331 268.51C210.331 268.511 210.327 268.501 210.322 268.478Z" fill="#001A39"/>
<path d="M744.41 485.999C744.41 485.999 735.606 497.145 714.291 502.685C693.684 508.038 679.664 502.817 679.664 502.817L653.143 400.701C653.143 400.701 661.958 399.719 684.567 390.307C707.851 380.615 714.861 372.217 714.861 372.217L744.41 485.999Z" fill="#194D87"/>
<path d="M399.881 433.65C399.881 433.65 403.852 447.286 421.531 460.428C438.617 473.126 453.575 473.56 453.575 473.56L518.112 385.299C518.112 385.299 508.914 383.275 488.482 369.398C467.617 355.23 464.194 347.123 464.194 347.123L399.881 433.65Z" fill="#194D87"/>
<path d="M454.215 472.832C457.915 467.806 448.884 454.878 434.045 443.956C419.206 433.034 404.178 428.254 400.479 433.28C396.779 438.306 405.81 451.235 420.649 462.157C435.488 473.079 450.516 477.858 454.215 472.832Z" fill="#001A39"/>
<path d="M714.868 505.503C732.752 500.897 745.987 492.265 744.431 486.222C742.874 480.178 727.116 479.013 709.232 483.619C691.349 488.224 678.114 496.857 679.67 502.9C681.226 508.943 696.985 510.109 714.868 505.503Z" fill="#001A39"/>
<path d="M430.505 448.416L396.772 494.047L322.153 421.062L398.017 458.021L412.909 438.209" fill="#FBC73B"/>
<path d="M713.036 487.941L725.47 540L822.896 502.564L738.591 506.431L733.528 485.862" fill="#FBC73B"/>
<path d="M701.885 45.844C702.006 51.4388 706.641 55.8762 712.236 55.7556C717.183 55.6459 721.226 52.0148 722.01 47.3031C722.114 46.6833 722.158 46.0524 722.147 45.3997C722.027 39.8049 717.392 35.3676 711.797 35.4882C708.884 35.5486 706.29 36.8375 704.48 38.8396C702.818 40.699 701.836 43.1618 701.885 45.844Z" fill="#F96155"/>
<path d="M664.658 26.7887C664.658 26.7887 674.69 32.8826 692.538 29.2295L694.14 46.0139L705 43.3646C705 43.3646 707.612 33.6012 717.073 36.8429C717.073 36.8429 717.441 17.6615 706.109 14.1346C686.318 7.97483 669.101 17.0198 664.658 26.7887Z" fill="#001A39"/>
<path fill-rule="evenodd" clip-rule="evenodd" d="M131.078 93.1346L126.344 93.8696L126.008 91.7016L130.741 90.9666L131.078 93.1346Z" fill="#001A39"/>
<path fill-rule="evenodd" clip-rule="evenodd" d="M141.712 88.3092L136.825 88.419L136.775 86.2255L141.663 86.1157L141.712 88.3092Z" fill="#001A39"/>
<path fill-rule="evenodd" clip-rule="evenodd" d="M757.59 500.298L742.397 514.378L740.905 512.769L756.099 498.689L757.59 500.298Z" fill="white"/>
<path fill-rule="evenodd" clip-rule="evenodd" d="M768.243 500.934L753.06 515.014L751.568 513.405L766.751 499.325L768.243 500.934Z" fill="white"/>
<path fill-rule="evenodd" clip-rule="evenodd" d="M779.717 500.984L764.523 515.059L763.032 513.449L778.226 499.375L779.717 500.984Z" fill="white"/>
<path fill-rule="evenodd" clip-rule="evenodd" d="M383.22 442.267L390.482 461.667L388.427 462.436L381.165 443.036L383.22 442.267Z" fill="white"/>
<path fill-rule="evenodd" clip-rule="evenodd" d="M373.412 438.049L380.663 457.449L378.608 458.217L371.357 438.817L373.412 438.049Z" fill="white"/>
<path fill-rule="evenodd" clip-rule="evenodd" d="M363.138 432.942L370.395 452.342L368.34 453.111L361.083 433.711L363.138 432.942Z" fill="white"/>
<path fill-rule="evenodd" clip-rule="evenodd" d="M141.084 108.477C141.084 108.477 141.084 108.477 140.849 109.548C140.615 110.62 140.614 110.62 140.614 110.62L140.612 110.62L140.61 110.619L140.604 110.618L140.586 110.614C140.572 110.61 140.554 110.606 140.531 110.6C140.487 110.589 140.425 110.573 140.35 110.552C140.2 110.509 139.992 110.444 139.746 110.352C139.258 110.169 138.6 109.872 137.939 109.414C136.602 108.488 135.206 106.855 135.31 104.244L137.502 104.332C137.437 105.973 138.262 106.969 139.188 107.611C139.66 107.937 140.145 108.158 140.516 108.297C140.7 108.366 140.851 108.413 140.952 108.442C141.003 108.456 141.04 108.466 141.063 108.472C141.075 108.475 141.082 108.476 141.086 108.477L141.085 108.477L141.084 108.477ZM141.086 108.477C141.087 108.477 141.087 108.478 141.088 108.478L141.086 108.477L141.086 108.477ZM141.088 108.478C141.088 108.478 141.088 108.478 141.088 108.478L141.088 108.478Z" fill="#001A39"/>
<path fill-rule="evenodd" clip-rule="evenodd" d="M669.112 56.688C669.112 56.6884 669.112 56.6888 670.115 57.133C671.118 57.5772 671.118 57.5777 671.117 57.5781L671.117 57.5791L671.116 57.5815L671.113 57.5874L671.106 57.6038C671.1 57.6168 671.092 57.6339 671.082 57.6547C671.062 57.6964 671.034 57.7532 670.998 57.8227C670.926 57.9614 670.82 58.1522 670.681 58.3749C670.404 58.8169 669.981 59.4026 669.401 59.9585C668.227 61.0846 666.348 62.127 663.812 61.4999L664.339 59.3701C665.929 59.7633 667.069 59.1547 667.883 58.3747C668.297 57.9775 668.611 57.5464 668.822 57.2099C668.926 57.0434 669.002 56.9044 669.051 56.8108C669.075 56.7641 669.093 56.729 669.103 56.7078C669.108 56.6973 669.111 56.6902 669.113 56.6869L669.112 56.6872L669.112 56.688ZM669.113 56.6869C669.113 56.6853 669.114 56.6846 669.113 56.6849L669.113 56.6861L669.113 56.6869Z" fill="#001A39"/>
<path fill-rule="evenodd" clip-rule="evenodd" d="M270.353 41.583C271.782 35.9719 273.709 29.4359 275.703 23.2495L277.791 23.9224C275.808 30.0774 273.895 36.5685 272.479 42.1247C271.051 47.7299 270.165 52.2512 270.165 54.5423C270.165 54.6715 270.168 54.7872 270.173 54.8905C270.491 54.5626 270.89 54.0718 271.377 53.3823C273.595 50.2434 277.193 43.6231 282.612 32.1672L284.595 33.1055C281.919 38.7625 279.198 45.3636 277.08 51.2296C274.947 57.1384 273.473 62.1756 273.219 64.7628C273.202 64.9316 273.192 65.0812 273.187 65.213C273.611 64.8158 274.163 64.1907 274.855 63.2861C277.681 59.5934 282.43 51.7981 289.768 38.1504L291.728 39.1338C289.341 44.2491 287.006 49.8733 285.271 54.7515C284.403 57.1911 283.69 59.4318 283.194 61.3216C282.693 63.2352 282.437 64.7094 282.437 65.6497C282.437 65.8019 282.444 65.93 282.455 66.0361C282.564 65.9734 282.696 65.8871 282.85 65.7709C283.285 65.4446 283.84 64.9319 284.528 64.1887C287.296 61.2 291.79 54.9554 298.578 44.1211L300.437 45.2859C293.65 56.1177 289.061 62.523 286.138 65.6793C285.404 66.4724 284.749 67.0894 284.168 67.5255C283.616 67.9398 283.008 68.2864 282.383 68.3515C282.044 68.3868 281.678 68.3408 281.335 68.157C280.995 67.9746 280.76 67.7011 280.604 67.4192C280.315 66.8959 280.243 66.2476 280.243 65.6496C280.243 64.4131 280.562 62.7118 281.072 60.7655C281.523 59.0454 282.14 57.071 282.876 54.9499C280.205 59.4541 278.143 62.5997 276.598 64.6193C275.86 65.5841 275.214 66.3264 274.654 66.8442C274.374 67.1034 274.094 67.3267 273.815 67.4948C273.546 67.6574 273.211 67.809 272.834 67.84C272.414 67.8745 271.988 67.7531 271.648 67.4437C271.343 67.166 271.193 66.8139 271.113 66.527C270.957 65.966 270.965 65.2632 271.035 64.5481C271.271 62.1471 272.391 58.1098 273.976 53.4492C273.691 53.8905 273.423 54.2897 273.169 54.6483C272.582 55.48 272.05 56.1328 271.571 56.594C271.143 57.0059 270.567 57.4569 269.889 57.5026C269.491 57.5295 269.102 57.4119 268.784 57.151C268.494 56.9122 268.326 56.6057 268.224 56.3424C268.027 55.831 267.971 55.1904 267.971 54.5424C267.971 51.9313 268.936 47.1451 270.353 41.583ZM273.236 65.965C273.235 65.9651 273.235 65.9633 273.233 65.9594C273.235 65.963 273.236 65.9649 273.236 65.965ZM270.28 55.5728C270.28 55.5728 270.279 55.5715 270.278 55.5687C270.279 55.5713 270.28 55.5727 270.28 55.5728Z" fill="#001A39"/>
</svg>
