<svg width="560" height="428" viewBox="0 0 560 428" fill="none" xmlns="http://www.w3.org/2000/svg">
<path fill-rule="evenodd" clip-rule="evenodd" d="M423.715 40.1744C449.526 37.6371 466.48 38.9033 479.641 41.449C484.979 42.4816 490.261 44.9837 494.603 47.6733C498.915 50.3444 502.352 53.233 504.035 55.1223C515.778 65.0787 530.374 84.2451 537.471 93.5646C537.761 93.9446 538.038 94.3082 538.301 94.6542L538.341 94.7066L538.37 94.7662C539.04 96.1758 539.854 98.2125 540.006 99.6123C540.044 99.9672 540.046 100.332 539.964 100.655C539.879 100.987 539.684 101.343 539.285 101.528C538.908 101.702 538.492 101.654 538.115 101.531C537.731 101.404 537.296 101.169 536.807 100.837C536.346 100.522 535.854 100.155 535.34 99.7468C536.426 101.209 537.227 102.385 537.701 103.143L537.712 103.16L537.721 103.178C538.083 103.846 538.471 104.648 538.785 105.444C539.096 106.23 539.352 107.053 539.42 107.748C539.454 108.095 539.447 108.458 539.343 108.784C539.232 109.13 539.005 109.45 538.617 109.622C538.254 109.784 537.842 109.774 537.435 109.679C537.023 109.584 536.552 109.389 536.018 109.1C534.639 108.354 532.822 106.883 530.885 105.11C531.354 105.841 531.734 106.471 532.014 106.965L532.024 106.983L532.033 107.002C532.309 107.57 532.585 108.244 532.772 108.897C532.953 109.528 533.078 110.229 532.967 110.809C532.909 111.112 532.777 111.432 532.507 111.674C532.229 111.923 531.877 112.027 531.504 112.027C530.81 112.027 529.92 111.665 528.808 110.982C526.526 109.578 523.693 106.772 521.11 103.891C519.783 102.412 518.509 100.897 517.391 99.5148C518.282 102.01 518.723 103.81 518.797 105.041C518.85 105.925 518.727 106.719 518.211 107.197C517.653 107.713 516.904 107.636 516.285 107.422C515.644 107.2 514.923 106.763 514.179 106.215C513.427 105.66 512.617 104.965 511.791 104.193C510.153 102.662 508.428 100.803 506.948 99.0804L475.254 73.2786L469.529 72.6656L469.664 71.4066L475.763 72.0597L507.836 98.1702L507.873 98.2133C509.341 99.9251 511.048 101.766 512.656 103.268C513.46 104.02 514.232 104.68 514.932 105.196C515.639 105.718 516.238 106.066 516.7 106.225C517.185 106.393 517.322 106.294 517.35 106.268C517.42 106.204 517.581 105.934 517.532 105.116C517.438 103.534 516.606 100.645 514.62 95.9159L515.714 95.2941C517.111 97.1799 519.485 100.182 522.053 103.046C524.636 105.926 527.363 108.606 529.472 109.903C530.557 110.571 531.187 110.761 531.505 110.761C531.574 110.761 531.615 110.752 531.635 110.745C531.653 110.739 531.659 110.733 531.661 110.732C531.663 110.73 531.698 110.697 531.722 110.572C531.775 110.296 531.723 109.835 531.554 109.246C531.394 108.686 531.151 108.089 530.902 107.572C530.013 106.009 528.095 103.042 525.535 99.8342C523.271 97.4736 521.193 95.167 519.793 93.5532L520.705 92.6768C522.838 94.6749 524.8 96.8872 526.489 98.9993C527.179 99.7189 527.886 100.443 528.596 101.153C531.654 104.213 534.689 106.941 536.621 107.987C537.101 108.246 537.46 108.386 537.72 108.446C537.985 108.507 538.087 108.472 538.102 108.466C538.107 108.464 538.106 108.464 538.107 108.463C538.109 108.46 538.122 108.443 538.136 108.399C538.167 108.303 538.185 108.133 538.16 107.872C538.108 107.352 537.903 106.66 537.607 105.909C537.317 105.176 536.956 104.427 536.616 103.798C535.544 102.087 532.728 98.1346 528.662 93.5809C527.032 91.9276 525.594 90.3844 524.657 89.3409L525.577 88.4704C527.015 89.9083 528.356 91.3369 529.585 92.7124C532.191 95.3543 535.269 98.2559 537.521 99.7904C537.962 100.091 538.285 100.254 538.511 100.328C538.621 100.364 538.689 100.373 538.727 100.375C538.73 100.366 538.733 100.356 538.736 100.343C538.765 100.229 538.777 100.035 538.746 99.7485C538.621 98.5971 537.913 96.7656 537.253 95.3687C537.009 95.0476 536.753 94.7119 536.487 94.3626C529.367 85.0142 514.82 65.9135 503.182 56.0592L503.147 56.0297L503.117 55.9956C501.551 54.2264 498.205 51.3941 493.935 48.7495C489.67 46.1072 484.535 43.6853 479.4 42.6921C466.378 40.1732 449.549 38.9071 423.839 41.4344L423.715 40.1744ZM538.712 100.41C538.712 100.41 538.713 100.409 538.714 100.407C538.713 100.409 538.712 100.41 538.712 100.41Z" fill="#001A39"/>
<path d="M435.602 295.266L407.308 424.291L278.211 396.014L286.163 359.747C332.375 365.622 377.485 369.108 378.841 360.591C380.952 347.309 329.575 326.46 297.058 310.089L306.505 267.01L435.602 295.266Z" fill="#FBC73B"/>
<path d="M126.843 150.431C118.553 139.88 101.37 135.921 84.744 132.102C67.037 128.029 50.3141 124.184 50.0396 112.489C49.8707 105.259 54.4949 94.5771 62.734 83.1776C71.4755 71.1956 82.0667 60.678 94.1107 52.0176L160.99 142.56L126.843 150.431Z" fill="white"/>
<path d="M250.312 142.383C231.921 142.37 217.022 127.459 217.035 109.075C217.044 97.5737 222.99 86.8915 232.766 80.8267C236.343 96.5607 236.085 112.692 236.072 113.38L237.339 113.405C237.339 112.603 237.888 93.7499 251.275 93.7499H251.478C257.715 93.8385 266.089 109.467 272.846 133.608C267.048 138.935 259.548 142.032 251.681 142.353C251.212 142.374 250.76 142.383 250.312 142.383Z" fill="#FFD2A8"/>
<path d="M48.264 363.292C38.3779 363.317 28.7284 360.241 20.6836 354.497C25.274 343.101 30.8653 333.736 37.3011 326.641C45.4388 317.698 54.9532 312.41 65.5951 310.924C66.6382 310.776 67.6896 310.705 68.7411 310.705C77.2082 310.705 85.802 315.491 95.0039 325.346C92.8417 335.589 87.3772 344.844 79.4549 351.694C71.3088 358.772 60.9836 362.845 50.1981 363.233C49.5605 363.275 48.9101 363.292 48.264 363.292Z" fill="#032349"/>
<path d="M356.338 365.048C340.886 365.048 317.538 363.086 286.934 359.207L297.491 311C303.826 314.178 310.751 317.47 318.065 320.948C347.01 334.719 379.814 350.323 378.205 360.473C377.947 362.199 374.742 365.048 356.338 365.048Z" fill="white"/>
<path d="M273.571 133.807C267.144 110.708 258.639 93.2179 251.498 93.1167C237.055 92.9141 236.717 113.396 236.717 113.396C236.717 113.396 237.059 96.1639 233.195 79.8305C249.374 70.3766 270.159 75.8168 279.623 91.9855C287.604 105.63 285.1 122.977 273.584 133.807H273.571Z" fill="#F96155"/>
<path d="M277.883 30.1133C284.469 30.1133 289.808 24.777 289.808 18.1945C289.808 11.612 284.469 6.27588 277.883 6.27588C271.296 6.27588 265.957 11.612 265.957 18.1945C265.957 24.777 271.296 30.1133 277.883 30.1133Z" fill="#FBC73B"/>
<path d="M95.695 325.168C86.2566 314.988 76.32 308.801 65.5134 310.312C41.8647 313.617 27.9288 334.66 19.9051 354.72C-1.67436 339.041 -6.45067 308.844 9.23774 287.277C24.9261 265.71 55.1416 260.937 76.721 276.616C91.9914 287.712 99.3943 306.678 95.6781 325.177L95.695 325.168Z" fill="#F96155"/>
<path d="M126.59 151.14L5.39062 179.084L56.4888 0L94.2507 51.1482C68.9846 68.9883 49.0479 97.2783 49.3984 112.502C49.9516 135.634 109.572 128.687 126.59 151.14Z" fill="#FBC73B"/>
<path fill-rule="evenodd" clip-rule="evenodd" d="M271.343 255.601C275.191 242.976 279.773 227.944 280.957 209.464L285.172 209.733C283.953 228.748 279.208 244.303 275.354 256.933C274.593 259.427 273.867 261.808 273.209 264.079C271.197 271.028 269.87 276.807 269.965 281.778C270.059 286.627 271.506 290.669 275.126 294.263C276.968 296.09 279.997 298.232 284.021 300.637C288.014 303.024 292.868 305.601 298.27 308.318C304.733 311.568 311.896 314.976 319.252 318.475C324.233 320.845 329.303 323.257 334.302 325.69C346.611 331.68 358.442 337.773 367.036 343.505C371.324 346.366 374.917 349.208 377.367 351.979C379.762 354.687 381.421 357.736 380.919 360.901C380.579 363.044 378.877 364.38 377.104 365.21C375.28 366.064 372.856 366.643 370.048 367.038C364.401 367.832 356.608 367.956 347.483 367.615C329.197 366.93 305.135 364.357 281.225 361.24C257.299 358.122 233.468 354.451 215.622 351.562C206.698 350.116 199.268 348.866 194.068 347.977C192.603 347.726 191.316 347.505 190.221 347.315C191.108 349.005 192.214 351.186 193.421 353.739C196.377 359.993 199.962 368.527 202.426 377.576C204.88 386.588 206.279 396.311 204.676 404.858C203.049 413.53 198.314 420.999 188.683 425.117C176.221 430.445 164.986 424.573 154.89 414.181C144.787 403.781 135.174 388.233 125.655 372.569C125.17 371.77 124.684 370.971 124.199 370.171C115.101 355.187 106.043 340.27 96.5294 329.25C86.4428 317.566 76.3999 310.919 65.8145 312.402C43.5455 315.521 30.0572 335.254 22.0805 355.033C18.1248 364.842 15.6078 374.467 14.0801 381.65C13.317 385.238 12.8025 388.208 12.4794 390.277C12.3179 391.31 12.2043 392.118 12.1315 392.665C12.095 392.938 12.0688 393.145 12.0518 393.283C12.0434 393.352 12.0372 393.403 12.0333 393.437L12.029 393.473L12.0279 393.483C12.0279 393.483 12.028 393.482 9.92989 393.245C7.8318 393.007 7.8319 393.007 7.83203 393.005L7.83396 392.989L7.83939 392.942C7.84412 392.902 7.85109 392.844 7.86042 392.768C7.87906 392.617 7.90712 392.395 7.9455 392.107C8.02225 391.531 8.14032 390.692 8.30698 389.625C8.64024 387.492 9.1682 384.446 9.94938 380.773C11.5102 373.434 14.0894 363.558 18.1637 353.455C26.247 333.412 40.5545 311.679 65.2283 308.222C78.1142 306.417 89.4883 314.633 99.7268 326.493C109.48 337.79 118.708 352.99 127.735 367.86C128.246 368.701 128.755 369.54 129.265 370.378C138.85 386.151 148.214 401.251 157.92 411.241C167.634 421.241 177.044 425.503 187.022 421.237C195.164 417.756 199.117 411.588 200.525 404.08C201.957 396.447 200.737 387.446 198.351 378.684C195.975 369.959 192.498 361.669 189.602 355.542C188.157 352.483 186.862 349.975 185.93 348.235C185.464 347.366 185.089 346.689 184.832 346.231C184.704 346.002 184.605 345.829 184.539 345.713C184.521 345.683 184.506 345.656 184.493 345.634L184.464 345.585L184.447 345.554L184.443 345.547L184.442 345.546L182.137 341.604L186.635 342.404L186.265 344.481C186.635 342.404 186.636 342.404 186.637 342.404L186.771 342.428C186.862 342.444 186.997 342.468 187.176 342.499C187.362 342.532 187.594 342.573 187.871 342.622C188.129 342.667 188.426 342.719 188.76 342.777C190.149 343.02 192.186 343.373 194.781 343.817C199.97 344.704 207.387 345.953 216.297 347.395C234.119 350.281 257.904 353.944 281.771 357.055C305.652 360.168 329.557 362.72 347.641 363.397C356.7 363.736 364.192 363.599 369.46 362.859C372.109 362.487 374.049 361.98 375.313 361.388C376.628 360.773 376.738 360.304 376.748 360.239C376.946 358.99 376.352 357.205 374.202 354.774C372.108 352.405 368.865 349.799 364.691 347.015C356.361 341.459 344.764 335.475 332.454 329.485C327.534 327.091 322.492 324.691 317.516 322.324C310.114 318.802 302.858 315.349 296.372 312.088C290.933 309.353 285.975 306.723 281.853 304.259C277.761 301.813 274.369 299.459 272.151 297.257C267.651 292.792 265.855 287.653 265.743 281.86C265.634 276.188 267.138 269.863 269.152 262.906C269.831 260.562 270.572 258.129 271.343 255.601Z" fill="#F96155"/>
<path fill-rule="evenodd" clip-rule="evenodd" d="M59.1737 91.2208C54.0818 99.6462 51.3904 107.147 51.5162 112.469C51.6286 117.217 54.7664 120.638 60.704 123.487C66.6601 126.345 74.795 128.303 83.6904 130.352C84.1666 130.462 84.6448 130.572 85.1246 130.682C93.4956 132.606 102.373 134.647 110.118 137.644C118.29 140.806 125.566 145.163 129.686 151.94C133.853 158.794 133.889 167.184 132.111 175.908C130.329 184.65 126.639 194.124 122.9 203.394C122.537 204.292 122.175 205.188 121.813 206.081C118.408 214.493 115.093 222.684 113.074 230.219C110.828 238.599 110.326 245.696 112.708 251.125C113.926 253.901 115.368 255.529 116.882 256.442C118.386 257.349 120.179 257.681 122.354 257.464C126.853 257.016 132.441 254.286 138.902 250.468C141.286 249.06 143.796 247.498 146.373 245.895C150.562 243.29 154.928 240.574 159.212 238.229C166.184 234.412 173.438 231.276 180.377 230.791C189.633 230.142 197.443 231.479 202.947 232.982C205.701 233.734 207.883 234.528 209.389 235.141C210.141 235.447 210.726 235.708 211.128 235.896C211.329 235.99 211.485 236.066 211.594 236.12C211.648 236.147 211.691 236.168 211.722 236.184C211.737 236.192 211.75 236.198 211.759 236.203L211.771 236.209L211.775 236.211L211.777 236.212C211.777 236.212 211.778 236.213 210.799 238.083C209.821 239.953 209.822 239.953 209.822 239.953L209.805 239.945C209.788 239.936 209.759 239.921 209.719 239.901C209.639 239.861 209.512 239.8 209.341 239.72C208.999 239.56 208.48 239.328 207.796 239.05C206.428 238.493 204.407 237.755 201.835 237.053C196.688 235.648 189.36 234.392 180.672 235.001C174.683 235.42 168.095 238.178 161.241 241.93C157.02 244.241 152.884 246.816 148.798 249.36C146.199 250.978 143.62 252.584 141.051 254.101C134.649 257.884 128.317 261.112 122.773 261.664C119.925 261.948 117.165 261.542 114.701 260.056C112.246 258.576 110.305 256.158 108.84 252.82C105.857 246.02 106.69 237.726 108.994 229.127C111.085 221.325 114.503 212.883 117.888 204.525C118.254 203.621 118.619 202.717 118.983 201.816C122.741 192.501 126.279 183.372 127.973 175.066C129.669 166.742 129.426 159.641 126.077 154.131C122.68 148.544 116.458 144.623 108.594 141.58C101.141 138.696 92.5399 136.718 84.0814 134.773C83.6344 134.67 83.1879 134.567 82.742 134.465C73.9679 132.443 65.3377 130.392 58.876 127.292C52.3958 124.182 47.4629 119.693 47.2944 112.568C47.1395 106.018 50.3481 97.6608 55.5589 89.0387C60.8172 80.3383 68.2913 71.0775 77.0731 62.6506C94.5382 45.8912 117.665 31.9773 139.261 33.0025C161.439 34.0553 171.608 52.3242 176.234 69.2674C177.876 75.2817 178.861 81.2506 179.449 86.4553C180.407 82.8849 181.598 79.0179 183.058 75.1769C185.636 68.3918 189.113 61.5267 193.747 56.5428C198.426 51.5108 204.43 48.2657 211.861 49.2154C219.298 50.1658 224.629 55.0444 228.404 61.3398C232.169 67.6178 234.547 75.5445 236.065 83.1982C237.175 88.7937 237.84 94.3207 238.238 99.0814C240.637 94.7659 244.715 90.9073 251.514 91.0027C253.337 91.0283 255.028 91.8113 256.534 92.9579C258.043 94.1064 259.49 95.7132 260.875 97.6337C263.646 101.475 266.37 106.864 268.933 113.242C274.068 126.022 278.702 143.156 281.745 160.828L277.584 161.544C274.578 144.089 270.012 127.255 265.014 114.815C262.51 108.583 259.935 103.548 257.449 100.101C256.206 98.3777 255.038 97.1243 253.975 96.315C252.91 95.5038 252.076 95.2315 251.454 95.2228C245.571 95.1402 242.429 99.1502 240.662 103.91C239.788 106.265 239.322 108.655 239.076 110.477C238.954 111.382 238.888 112.134 238.853 112.654C238.836 112.914 238.826 113.115 238.821 113.248C238.818 113.314 238.816 113.363 238.815 113.393L238.815 113.419L238.815 113.425L238.815 113.429L238.815 113.429L238.815 113.43L238.815 113.432C238.815 113.433 238.814 113.433 236.703 113.392C234.592 113.356 234.592 113.355 234.592 113.354L234.592 113.352L234.592 113.351L234.592 113.35L234.592 113.347L234.592 113.344L234.593 113.329L234.593 113.316C234.593 113.297 234.594 113.271 234.594 113.238L234.595 113.198C234.596 113.092 234.597 112.932 234.598 112.722C234.6 112.302 234.6 111.682 234.59 110.888C234.57 109.301 234.513 107.024 234.364 104.278C234.064 98.7796 233.395 91.4397 231.923 84.019C230.445 76.5712 228.186 69.1867 224.782 63.5095C221.388 57.8497 217.016 54.129 211.326 53.4018C205.63 52.6738 200.891 55.0588 196.84 59.4158C192.744 63.8208 189.503 70.1033 187.005 76.6756C184.519 83.2179 182.828 89.8879 181.758 94.9394C181.224 97.4607 180.846 99.5686 180.603 101.042C180.482 101.779 180.394 102.357 180.336 102.748C180.319 102.866 180.305 102.968 180.293 103.051C180.285 103.105 180.279 103.152 180.273 103.191C180.266 103.24 180.261 103.277 180.258 103.301L180.254 103.332L180.254 103.333C180.254 103.333 180.254 103.333 180.247 103.332L176.06 102.984C176.05 102.983 176.05 102.983 176.05 102.983L176.05 102.983L176.05 102.976L176.051 102.945C176.052 102.917 176.054 102.873 176.055 102.815C176.058 102.697 176.062 102.519 176.066 102.285C176.074 101.817 176.079 101.124 176.072 100.238C176.058 98.4654 175.993 95.9224 175.786 92.8617C175.373 86.7299 174.397 78.5696 172.16 70.3784C167.645 53.8383 158.314 38.1322 139.061 37.2182C119.225 36.2766 97.1931 49.1946 79.9979 65.6949C71.4496 73.8978 64.2183 82.8739 59.1737 91.2208ZM236.703 113.392L234.592 113.356L238.814 113.433L236.703 113.392Z" fill="#F96155"/>
<path d="M385.406 54.9002L380.195 31.6875C380.195 31.6875 388.147 25.0782 385.077 19.0007C382.007 12.9231 376.081 17.2787 376.081 17.2787C376.081 17.2787 370.955 9.1585 361.301 10.6103C351.647 12.0622 348.881 24.175 351.28 31.5904C354.827 42.5384 361.487 46.5479 372.112 41.5086L375.389 54.4316" fill="#AF687D"/>
<path d="M380.447 15.7761C380.447 15.7761 381.063 5.08139 367.439 3.3341C353.816 1.58681 352.013 6.51207 346.747 4.32163C341.481 2.13119 337.71 18.3296 352.706 19.4818C367.701 20.634 367.144 19.7349 367.144 19.7349C367.144 19.7349 367.71 26.454 371.54 25.7998C375.37 25.1456 376.257 18.1102 376.257 18.1102" fill="#001A39"/>
<path fill-rule="evenodd" clip-rule="evenodd" d="M351.73 35.8071L352.503 30.0293L353.759 30.1971L352.986 35.9749L351.73 35.8071Z" fill="#001A39"/>
<path d="M355.826 29.6239C356.7 29.6239 357.409 28.9153 357.409 28.0412C357.409 27.1671 356.7 26.4585 355.826 26.4585C354.951 26.4585 354.242 27.1671 354.242 28.0412C354.242 28.9153 354.951 29.6239 355.826 29.6239Z" fill="#001A39"/>
<path d="M415.624 189.041L400.986 231.41L463.617 292.823L419.2 330.617C419.2 330.617 411.793 319.614 422.203 306.721C422.203 306.721 365.1 270.534 355.902 250.12C343.554 222.72 374.145 122.019 406.489 117.09C440.619 111.882 484.449 192.957 484.449 192.957L559.319 202.474L559.999 270.285C559.999 270.285 541.954 265.292 542.136 243.671C542.136 243.671 480.48 250.234 459.221 233.12C437.963 216.006 415.624 189.041 415.624 189.041Z" fill="#001A39"/>
<path d="M411.448 60.3616L401.435 97.6116C398.75 107.597 386.085 110.695 379.104 103.043L355.878 77.615C350.996 72.2887 351.359 64.0124 356.689 59.1293C357.985 57.9433 359.505 57.0315 361.161 56.4449L394.413 44.6275C404.354 41.0907 414.189 50.1691 411.448 60.3616Z" fill="#FBC73B"/>
<path fill-rule="evenodd" clip-rule="evenodd" d="M315.74 228.274L482.055 135.172C482.33 135.035 482.602 134.891 482.873 134.74L484.795 133.663C493.811 128.616 497.028 117.22 491.978 108.21L466.074 61.9867C461.023 52.9759 449.621 49.7598 440.605 54.8075L439.636 55.3502L439.625 55.3309L271.55 149.414C266.804 152.073 262.61 155.618 259.202 159.864L205.114 227.274C199.223 234.618 205.262 245.393 214.603 244.211L300.372 233.339C305.774 232.651 310.989 230.933 315.74 228.274ZM452.982 78.2441L452.209 78.6787C448.577 80.7087 447.281 85.3006 449.316 88.9344L460.237 108.421C462.272 112.05 466.867 113.346 470.499 111.312L471.271 110.877C474.903 108.843 476.2 104.251 474.164 100.621L463.244 81.1349C461.208 77.5053 456.614 76.2098 452.982 78.2441Z" fill="#0074E0"/>
<path fill-rule="evenodd" clip-rule="evenodd" d="M414.325 102.241C408.427 95.2168 401.348 87.4768 395.055 80.7972L395.977 79.9292C402.277 86.6161 409.375 94.3761 415.295 101.427C418.255 104.952 420.925 108.306 423.056 111.264C425.179 114.212 426.791 116.801 427.608 118.79C429.028 122.246 428.975 127.402 428.175 133.075C427.37 138.78 425.79 145.13 424.045 151.05C422.3 156.972 420.387 162.481 418.91 166.508C418.171 168.522 417.541 170.166 417.096 171.307C416.873 171.878 416.697 172.323 416.576 172.626C416.515 172.777 416.469 172.893 416.437 172.971L416.401 173.059L416.389 173.088L416.389 173.089C416.389 173.09 416.389 173.09 415.802 172.851L416.389 173.09L416.379 173.114L416.367 173.137C409.927 185.834 398.09 192.439 387.939 195.869C382.858 197.586 378.178 198.514 374.768 199.014C373.063 199.265 371.674 199.408 370.709 199.488C370.226 199.528 369.85 199.553 369.593 199.568C369.464 199.575 369.365 199.58 369.298 199.583C369.265 199.584 369.239 199.585 369.221 199.586L369.201 199.587L369.195 199.587L369.194 199.587C369.193 199.587 369.193 199.587 369.172 198.954L369.193 199.587L366.586 199.674L382.96 190.529L393.734 131.15L353.184 90.6357L354.079 89.7402L395.099 130.723L384.1 191.342L372.018 198.09C372.756 198.01 373.618 197.903 374.584 197.762C377.939 197.27 382.541 196.356 387.533 194.669C397.524 191.294 408.994 184.852 415.225 172.588L415.227 172.583L415.262 172.496C415.293 172.42 415.339 172.305 415.399 172.156C415.519 171.856 415.694 171.414 415.916 170.847C416.358 169.713 416.985 168.077 417.72 166.072C419.191 162.062 421.095 156.581 422.83 150.692C424.566 144.8 426.128 138.517 426.921 132.898C427.718 127.247 427.717 122.389 426.436 119.271C425.679 117.426 424.139 114.936 422.027 112.004C419.922 109.081 417.274 105.753 414.325 102.241Z" fill="#001A39"/>
<path fill-rule="evenodd" clip-rule="evenodd" d="M387.534 194.669C397.53 191.291 409.009 184.844 415.237 172.564L416.367 173.137C409.927 185.834 398.091 192.438 387.939 195.868C382.858 197.585 378.178 198.514 374.769 199.014C373.063 199.264 371.674 199.407 370.709 199.488C370.227 199.528 369.85 199.553 369.593 199.568C369.464 199.575 369.366 199.58 369.298 199.583C369.265 199.584 369.239 199.585 369.222 199.586L369.201 199.587L369.196 199.587L369.194 199.587C369.194 199.587 369.193 199.587 369.172 198.954L369.193 199.587L366.586 199.674L383.221 190.383L383.839 191.488L372.019 198.09C372.756 198.01 373.618 197.903 374.585 197.762C377.939 197.27 382.541 196.356 387.534 194.669Z" fill="#E4EDFA"/>
<path d="M228.362 298.832C224.659 314.613 208.856 324.404 193.067 320.703C177.344 317.019 167.547 301.335 171.141 285.601L228.362 298.832Z" fill="#FBC73B"/>
<path fill-rule="evenodd" clip-rule="evenodd" d="M395.217 80.9672L378.688 63.8785L379.598 62.9985L396.127 80.0872L395.217 80.9672Z" fill="#E4EDFA"/>
</svg>
