<svg width="601" height="540" viewBox="0 0 601 540" fill="none" xmlns="http://www.w3.org/2000/svg">
<path fill-rule="evenodd" clip-rule="evenodd" d="M287.109 104.987L251.966 107.124L251.865 105.472L287.008 103.334L287.109 104.987Z" fill="#001A39"/>
<path fill-rule="evenodd" clip-rule="evenodd" d="M213.319 71.4463L276.511 66.0164L276.653 67.6658L213.461 73.0957L213.319 71.4463Z" fill="#001A39"/>
<path d="M283.677 62.4141C278.436 95.3061 300.856 126.216 333.748 131.457C366.64 136.698 397.55 114.278 402.791 81.3858" fill="#001A39"/>
<path d="M513.259 239.158L553.468 209.094L600.985 292.157L542.925 240.51L515.775 260.627" fill="#001A39"/>
<path fill-rule="evenodd" clip-rule="evenodd" d="M550.915 256.857L551.69 237.592L553.581 237.668L552.805 256.933L550.915 256.857Z" fill="white"/>
<path fill-rule="evenodd" clip-rule="evenodd" d="M557.811 264.013L558.591 244.748L560.482 244.825L559.701 264.09L557.811 264.013Z" fill="white"/>
<path fill-rule="evenodd" clip-rule="evenodd" d="M564.783 272.102L565.559 252.837L567.449 252.913L566.673 272.178L564.783 272.102Z" fill="white"/>
<path d="M452.318 370.769L498.123 391.32L448.586 473.196L465.543 397.36L434.775 383.393" fill="#001A39"/>
<path fill-rule="evenodd" clip-rule="evenodd" d="M455.133 412.28L472.35 403.605L473.201 405.295L455.984 413.97L455.133 412.28Z" fill="white"/>
<path fill-rule="evenodd" clip-rule="evenodd" d="M452.228 421.788L469.445 413.108L470.297 414.798L453.08 423.477L452.228 421.788Z" fill="white"/>
<path fill-rule="evenodd" clip-rule="evenodd" d="M448.539 431.806L465.756 423.131L466.607 424.82L449.391 433.495L448.539 431.806Z" fill="white"/>
<path d="M415.174 204.998L438.63 285.473L510.123 231.599C510.123 231.599 526.895 232.787 539.77 247.525C553.274 262.983 550.006 282.442 550.006 282.442L415.761 387.29L360.695 267.216L360.16 320.556L459.328 366.45C459.328 366.45 465.884 384.405 456.419 402.029C447.229 419.142 432.533 421.341 432.533 421.341L327.812 381.477C311.659 375.328 300.648 360.23 299.735 342.966L293.529 225.616C291.708 191.191 318.276 161.871 352.715 160.296C381.355 158.995 407.166 177.465 415.174 204.998Z" fill="#F96155"/>
<path d="M299.603 337.626C309.668 334.239 320.745 333.288 331.312 333.79C341.671 334.282 352.209 336.311 361.73 340.516C379.307 348.277 389.774 364.127 397.323 381.132C402.077 391.845 406.239 402.818 411.371 413.361C411.769 414.175 412.984 413.461 412.587 412.652C403.713 394.428 398.113 374.074 385.626 357.813C379.898 350.354 372.789 344.238 364.289 340.151C355.402 335.88 345.597 333.615 335.815 332.697C323.735 331.562 310.789 332.371 299.229 336.263C298.373 336.557 298.737 337.919 299.603 337.626Z" fill="#FBC73B"/>
<path d="M460.563 377.811C441.335 382.153 434.193 403.031 434.33 420.712C434.335 421.615 435.745 421.62 435.74 420.712C435.607 403.651 442.329 383.369 460.936 379.169C461.816 378.97 461.442 377.608 460.563 377.811Z" fill="#FBC73B"/>
<path d="M308.05 366.18C318.854 356.493 333.72 353.386 347.569 357.491C360.264 361.252 371.186 370.149 378.588 380.994C383.569 388.288 387.069 396.447 389.561 404.89C389.817 405.756 391.179 405.387 390.919 404.517C386.591 389.863 379.052 376.09 367.028 366.379C356.509 357.879 342.797 352.605 329.16 354.663C320.93 355.907 313.234 359.639 307.052 365.182C306.381 365.792 307.379 366.786 308.05 366.18Z" fill="#FBC73B"/>
<path d="M315.821 174.911C326.965 180.8 331.974 192.856 332.405 204.984C332.854 217.722 328.431 229.915 323.758 241.556C319.085 253.201 313.944 264.874 312.411 277.447C311.706 283.236 311.512 289.569 313.844 295.042C315.75 299.516 319.435 302.851 323.583 305.249C334.656 311.658 348.449 312.467 360.472 308.489C361.328 308.205 360.959 306.848 360.098 307.132C348.624 310.925 335.602 310.272 324.922 304.388C319.468 301.385 315.306 296.977 313.977 290.752C312.652 284.546 313.504 277.768 314.805 271.638C319.766 248.272 335.81 227.082 333.653 202.354C332.627 190.619 327.263 179.362 316.536 173.691C315.732 173.27 315.022 174.485 315.821 174.911Z" fill="#FBC73B"/>
<path d="M296.419 201.81C304.777 205.547 303.632 216.487 302.412 223.942C301.04 232.304 298.174 240.317 294.111 247.743C293.676 248.537 294.892 249.251 295.327 248.452C299.882 240.127 302.956 231.07 304.158 221.643C305.118 214.122 305.241 204.218 297.134 200.59C296.311 200.23 295.592 201.441 296.419 201.81Z" fill="#FBC73B"/>
<path d="M344.201 161.677C351.547 167.92 354.976 177.413 357.814 186.339C361.158 196.872 364.436 207.415 368.542 217.679C375.726 235.643 385.437 254.346 402.928 264.174C412.336 269.462 423.187 271.454 433.692 268.578C434.567 268.337 434.193 266.979 433.318 267.221C412.596 272.896 393.596 259.109 382.623 242.587C371.115 225.261 365.245 204.861 358.945 185.26C356.078 176.344 352.526 166.913 345.195 160.679C344.514 160.102 343.511 161.09 344.201 161.677Z" fill="#FBC73B"/>
<path d="M376.748 166.246C377.675 191.461 398.037 209.132 418.863 219.964C419.667 220.38 420.377 219.169 419.573 218.748C399.215 208.158 379.066 190.95 378.157 166.246C378.12 165.342 376.715 165.338 376.748 166.246Z" fill="#FBC73B"/>
<path d="M384.638 321.194C398.156 314.44 411.721 325.191 420.708 334.395C425.32 339.116 429.79 343.959 435.035 347.999C440.494 352.208 446.486 355.614 452.782 358.404C453.605 358.769 454.319 357.558 453.491 357.189C446.505 354.091 439.855 350.231 433.957 345.35C428.295 340.667 423.556 335.029 418.253 329.963C409.366 321.478 396.221 313.839 383.933 319.978C383.115 320.38 383.829 321.596 384.638 321.194Z" fill="#FBC73B"/>
<path d="M374.298 298.258C389.14 296.172 404.163 297.081 418.561 301.304C433.323 305.632 446.699 313.073 459.427 321.572C466.839 326.52 474.175 331.6 482.055 335.781C482.855 336.207 483.569 334.991 482.765 334.565C468.301 326.893 455.62 316.322 441.018 308.868C428.068 302.255 414.138 297.601 399.622 296.196C391.047 295.364 382.438 295.7 373.919 296.901C373.03 297.024 373.413 298.381 374.298 298.258Z" fill="#FBC73B"/>
<path d="M465.619 264.605C464.46 276.231 467.861 288.018 474.388 297.648C481.374 307.96 491.752 315.135 503.335 319.43C504.187 319.747 504.551 318.384 503.709 318.072C492.248 313.825 481.961 306.621 475.192 296.319C469.058 286.987 465.917 275.763 467.028 264.605C467.118 263.702 465.709 263.706 465.619 264.605Z" fill="#FBC73B"/>
<path d="M549.207 263.81C539.988 258.82 528.125 260.547 522.322 269.808C519.313 274.614 519.309 280.446 520.056 285.899C520.832 291.533 522.941 296.508 527.255 300.311C527.931 300.907 528.934 299.914 528.248 299.318C524.464 295.983 522.44 291.722 521.607 286.788C520.732 281.619 520.51 275.772 523.197 271.085C528.381 262.046 539.761 260.301 548.492 265.026C549.292 265.456 550.006 264.241 549.207 263.81Z" fill="#FBC73B"/>
<path d="M485.56 250.004C487.58 252.841 490.002 255.457 493.313 256.758C497.059 258.224 501.212 257.571 504.74 255.817C508.581 253.906 511.584 250.685 514.257 247.402C517.402 243.533 520.325 239.484 523.073 235.326C523.575 234.57 522.354 233.86 521.858 234.617C517.672 240.95 513.126 248.173 506.963 252.775C503.7 255.216 499.528 256.829 495.417 255.93C491.662 255.107 488.928 252.321 486.776 249.299C486.251 248.561 485.03 249.266 485.56 250.004Z" fill="#FBC73B"/>
<path fill-rule="evenodd" clip-rule="evenodd" d="M398.836 351.127L344.575 229.782L343.279 230.361L397.551 351.729L397.556 351.74C406.808 370.624 431.091 376.212 447.666 363.268L446.792 362.15C430.932 374.536 407.695 369.193 398.836 351.127Z" fill="white"/>
<path fill-rule="evenodd" clip-rule="evenodd" d="M435.83 295.427L437.935 285.329L439.324 285.618L437.22 295.717L435.83 295.427Z" fill="white"/>
<path fill-rule="evenodd" clip-rule="evenodd" d="M351.431 325.757L359.755 319.973L360.565 321.138L352.24 326.923L351.431 325.757Z" fill="white"/>
<path d="M321.819 36.3947C322.108 49.6811 333.109 60.2194 346.396 59.9309C358.14 59.6755 367.737 51.048 369.606 39.8711C369.847 38.4048 369.96 36.896 369.927 35.354C369.639 22.0723 358.637 11.5293 345.351 11.8178C338.435 11.9692 332.272 15.0153 327.987 19.7783C324.033 24.1724 321.682 30.0234 321.819 36.3947Z" fill="#F96155"/>
<path d="M322.803 10.2143C322.921 15.7341 327.49 20.1093 333.01 19.991C337.891 19.887 341.874 16.3017 342.65 11.6569C342.749 11.0468 342.796 10.4224 342.782 9.77916C342.664 4.25931 338.095 -0.115907 332.575 0.00234153C329.704 0.0638308 327.14 1.33145 325.362 3.30857C323.725 5.13906 322.746 7.57024 322.803 10.2143Z" fill="#001A39"/>
<path d="M339.306 7.04519C339.377 10.4082 342.163 13.0758 345.526 13.0001C348.496 12.9339 350.927 10.7534 351.4 7.92489C351.462 7.55596 351.49 7.17287 351.481 6.78028C351.41 3.41729 348.624 0.749623 345.261 0.825302C343.511 0.863141 341.95 1.63413 340.867 2.84026C339.864 3.95653 339.268 5.43701 339.306 7.04519Z" fill="#001A39"/>
<path d="M331.647 49.6327C333.086 49.6016 334.212 47.7195 334.163 45.429C334.113 43.1385 332.906 41.3069 331.467 41.338C330.028 41.3691 328.902 43.2511 328.951 45.5416C329.001 47.8321 330.207 49.6638 331.647 49.6327Z" fill="#001A39"/>
<path d="M340.312 49.732C341.751 49.7009 342.878 47.8189 342.828 45.5284C342.779 43.2379 341.572 41.4063 340.133 41.4374C338.694 41.4684 337.567 43.3505 337.617 45.641C337.666 47.9315 338.873 49.7631 340.312 49.732Z" fill="#001A39"/>
<path d="M360.68 35.5431C360.784 40.3676 364.781 44.1942 369.606 44.0901C373.872 43.9955 377.358 40.8643 378.034 36.8012C378.124 36.2667 378.162 35.7228 378.153 35.16C378.049 30.3354 374.052 26.5089 369.227 26.6129C366.716 26.6649 364.478 27.7765 362.918 29.503C361.484 31.1017 360.633 33.2302 360.68 35.5431Z" fill="#F96155"/>
<path d="M328.583 19.1114C328.583 19.1114 337.234 24.3663 352.625 21.2162L354.006 35.6899L363.372 33.4053C363.372 33.4053 365.623 24.9859 373.782 27.7813C373.782 27.7813 374.099 11.2407 364.327 8.19938C347.257 2.88766 332.409 10.6874 328.583 19.1114Z" fill="#001A39"/>
<path fill-rule="evenodd" clip-rule="evenodd" d="M334.813 49.7417C334.813 49.7421 334.813 49.7424 335.678 50.1255C336.543 50.5086 336.543 50.509 336.542 50.5094L336.542 50.5103L336.541 50.5123L336.539 50.5174L336.532 50.5316C336.527 50.5428 336.52 50.5575 336.512 50.5755C336.495 50.6114 336.47 50.6604 336.439 50.7203C336.377 50.8399 336.286 51.0044 336.166 51.1964C335.927 51.5776 335.562 52.0827 335.062 52.562C334.049 53.533 332.429 54.4319 330.243 53.8912L330.697 52.0545C332.068 52.3936 333.052 51.8688 333.753 51.1962C334.11 50.8537 334.381 50.482 334.563 50.1918C334.653 50.0482 334.719 49.9284 334.761 49.8476C334.782 49.8074 334.796 49.7771 334.805 49.7589C334.809 49.7497 334.812 49.7436 334.814 49.7408L334.813 49.7411L334.813 49.7417ZM334.814 49.7408C334.814 49.7394 334.814 49.7388 334.814 49.7391L334.814 49.7401L334.814 49.7408Z" fill="#001A39"/>
<path d="M0.253906 207.524L231.014 225.559V75.9558C231.014 67.1108 223.843 59.9355 214.993 59.9355H16.2742C7.42923 59.9355 0.253906 67.1061 0.253906 75.9558V207.524Z" fill="#FBC73B"/>
<path d="M230.895 226.562C228.606 236.348 200.468 237.148 162.567 229.703C143.945 226.037 130.777 226.964 133.548 234.901C137.692 246.768 103.679 246.716 65.8865 238.775C28.099 230.833 -1.91247 216.208 0.376824 206.422C2.66612 196.636 30.9275 195.855 68.8238 203.305C87.4456 206.966 100.614 206.039 97.8468 198.102C93.6986 186.234 127.707 186.286 165.504 194.228C203.291 202.174 233.185 216.776 230.895 226.562Z" fill="#001A39"/>
<path d="M209.998 385.687C218.52 385.687 225.428 378.779 225.428 370.258C225.428 361.736 218.52 354.829 209.998 354.829C201.477 354.829 194.569 361.736 194.569 370.258C194.569 378.779 201.477 385.687 209.998 385.687Z" fill="#B1E4FD"/>
<path d="M84.7732 502.114C93.2944 502.114 100.202 495.206 100.202 486.685C100.202 478.164 93.2944 471.256 84.7732 471.256C76.2519 471.256 69.3441 478.164 69.3441 486.685C69.3441 495.206 76.2519 502.114 84.7732 502.114Z" fill="#FBC73B"/>
<path d="M100.207 259.766C108.728 259.766 115.636 252.858 115.636 244.337C115.636 235.816 108.728 228.908 100.207 228.908C91.6859 228.908 84.7781 235.816 84.7781 244.337C84.7781 252.858 91.6859 259.766 100.207 259.766Z" fill="#F96155"/>
<path d="M40.0697 323.77L13.6884 329.708L19.6266 356.089L46.0079 350.151L40.0697 323.77Z" fill="#B1E4FD"/>
<path d="M79.7902 390.298L66.2697 413.715L89.6872 427.236L103.208 403.818L79.7902 390.298Z" fill="#F96155"/>
<path d="M145.733 279.608L144.319 311.152L173.058 298.311L145.733 279.608Z" fill="#FBC73B"/>
<path d="M186.902 504.333L165.911 527.916L196.315 536.08L186.902 504.333Z" fill="#F96155"/>
<path fill-rule="evenodd" clip-rule="evenodd" d="M198.451 245.635L171.088 218.273L173.429 215.931L200.792 243.294L198.451 245.635Z" fill="white"/>
<path fill-rule="evenodd" clip-rule="evenodd" d="M44.9862 446.238L17.6235 418.88L18.794 417.709L46.1567 445.068L44.9862 446.238Z" fill="#001A39"/>
<path fill-rule="evenodd" clip-rule="evenodd" d="M209.413 468.374L182.051 441.012L183.221 439.841L210.584 467.204L209.413 468.374Z" fill="#001A39"/>
<path fill-rule="evenodd" clip-rule="evenodd" d="M34.1843 254.675L61.547 227.312L63.8882 229.653L36.5255 257.016L34.1843 254.675Z" fill="white"/>
<path fill-rule="evenodd" clip-rule="evenodd" d="M130.05 391.979L157.412 364.616L158.583 365.787L131.22 393.149L130.05 391.979Z" fill="#001A39"/>
<path fill-rule="evenodd" clip-rule="evenodd" d="M10.4388 538.829L37.8015 511.471L38.972 512.642L11.6093 540L10.4388 538.829Z" fill="#001A39"/>
<path fill-rule="evenodd" clip-rule="evenodd" d="M125.376 506.765L152.739 479.402L153.91 480.573L126.547 507.936L125.376 506.765Z" fill="#001A39"/>
<path fill-rule="evenodd" clip-rule="evenodd" d="M101.807 325.421L74.4443 298.059L75.6149 296.888L102.978 324.251L101.807 325.421Z" fill="#001A39"/>
<path fill-rule="evenodd" clip-rule="evenodd" d="M355.868 110.97L338.169 135.712L335.476 133.786L353.175 109.043L355.868 110.97Z" fill="white"/>
<path fill-rule="evenodd" clip-rule="evenodd" d="M316.749 159.513L361.771 96.3628L363.119 97.3238L317.579 161.202L316.373 161.355L316.905 160.721C316.373 161.355 316.373 161.355 316.372 161.355L316.37 161.353L316.18 161.194C316.052 161.087 315.862 160.929 315.613 160.722C315.115 160.308 314.383 159.7 313.444 158.926C311.566 157.378 308.862 155.165 305.562 152.506C298.961 147.186 289.975 140.083 280.434 132.946C270.889 125.806 260.8 118.641 251.991 113.193C247.585 110.469 243.513 108.182 239.998 106.544C236.461 104.895 233.568 103.942 231.495 103.809L231.601 102.157C233.997 102.311 237.123 103.377 240.697 105.044C244.294 106.72 248.427 109.043 252.861 111.785C261.732 117.271 271.865 124.469 281.425 131.62C290.988 138.774 299.99 145.89 306.601 151.217C309.906 153.88 312.615 156.097 314.497 157.649C315.438 158.424 316.172 159.034 316.672 159.449C316.698 159.471 316.724 159.493 316.749 159.513Z" fill="#001A39"/>
<path fill-rule="evenodd" clip-rule="evenodd" d="M34.1026 254.598L61.4653 227.235L62.6359 228.405L35.2732 255.768L34.1026 254.598Z" fill="#001A39"/>
<path fill-rule="evenodd" clip-rule="evenodd" d="M199.835 244.246L172.472 216.883L173.643 215.713L201.006 243.075L199.835 244.246Z" fill="#001A39"/>
<path fill-rule="evenodd" clip-rule="evenodd" d="M210.237 110.368C218.271 107.69 228 107.566 231.818 107.725L231.749 109.379C227.999 109.223 218.509 109.356 210.761 111.939C208.114 112.821 206.278 113.56 205.091 114.175C204.496 114.484 204.094 114.746 203.841 114.96C203.746 115.04 203.683 115.105 203.642 115.152C203.736 115.215 203.891 115.298 204.132 115.388C204.811 115.644 205.873 115.86 207.237 116.038C209.934 116.391 213.558 116.57 217.083 116.743L217.125 116.746C220.629 116.918 224.053 117.087 226.236 117.431L226.258 119.063C223.297 119.608 214.309 121.603 202.222 125.191C199.211 126.085 197.265 126.836 196.086 127.453C195.494 127.763 195.136 128.018 194.937 128.21C194.898 128.248 194.868 128.28 194.845 128.307C194.958 128.386 195.148 128.48 195.428 128.576C196.053 128.788 196.918 128.935 197.792 129.011C200.191 129.165 209.997 129.151 229.838 127.828L230.072 129.462C226.57 130.241 217.274 132.791 208.261 136.731C207.487 137.148 206.648 137.661 205.941 138.192C205.198 138.75 204.703 139.254 204.511 139.621C204.46 139.718 204.447 139.775 204.444 139.799C204.461 139.818 204.499 139.854 204.582 139.901C204.986 140.132 205.937 140.354 207.811 140.361L219.793 137.776L219.801 137.775C221.456 137.452 224.088 137.101 226.634 137.097C227.906 137.095 229.182 137.18 230.315 137.408C231.434 137.633 232.496 138.014 233.265 138.665C233.727 139.056 234.968 140.215 236.819 141.945C238.123 143.164 239.73 144.667 241.582 146.383C246.083 150.556 252.07 156.034 258.788 161.91C272.237 173.674 288.562 186.988 301.73 194.631L301.759 194.647L301.786 194.666C304.895 196.815 310.251 199.441 316.15 200.298C322.031 201.153 328.377 200.244 333.63 195.445C334.965 194.225 336.306 193.03 337.67 191.814C343.339 186.761 349.404 181.357 357.09 172.342C366.626 161.157 378.66 144.41 395.437 115.936L396.863 116.777C380.058 145.299 367.969 162.134 358.349 173.416C350.584 182.524 344.428 188.01 338.751 193.069C337.394 194.278 336.064 195.463 334.746 196.667C329.025 201.895 322.127 202.84 315.912 201.936C309.731 201.038 304.151 198.308 300.871 196.046C287.557 188.314 271.141 174.915 257.698 163.156C250.964 157.266 244.964 151.776 240.456 147.597C238.544 145.824 236.907 144.294 235.598 143.071C233.807 141.396 232.629 140.295 232.196 139.929C231.736 139.539 230.991 139.232 229.989 139.031C229.002 138.832 227.845 138.751 226.636 138.753C224.223 138.757 221.704 139.091 220.126 139.398L207.987 142.016H207.898C205.952 142.016 204.582 141.808 203.761 141.338C203.32 141.086 202.959 140.713 202.833 140.195C202.712 139.695 202.85 139.226 203.044 138.855C203.418 138.138 204.175 137.448 204.947 136.869C205.747 136.268 206.673 135.704 207.507 135.256L207.536 135.241L207.567 135.227C212.585 133.032 217.688 131.262 221.863 129.981C207.344 130.807 199.813 130.801 197.676 130.663L197.667 130.662L197.657 130.661C196.721 130.58 195.702 130.418 194.895 130.143C194.496 130.007 194.093 129.826 193.775 129.573C193.454 129.318 193.127 128.911 193.129 128.343C193.132 127.803 193.435 127.359 193.786 127.02C194.147 126.671 194.661 126.33 195.319 125.986C196.64 125.295 198.706 124.508 201.75 123.604C209.576 121.281 216.118 119.62 220.589 118.584C219.462 118.519 218.267 118.459 217.043 118.399L216.948 118.394C213.463 118.223 209.786 118.042 207.022 117.68C205.636 117.499 204.415 117.265 203.548 116.938C203.12 116.777 202.7 116.565 202.394 116.264C202.056 115.933 201.827 115.453 201.954 114.886C202.062 114.4 202.403 114.008 202.771 113.696C203.157 113.37 203.679 113.042 204.329 112.706C205.63 112.031 207.563 111.26 210.237 110.368ZM204.434 139.784C204.434 139.784 204.435 139.786 204.437 139.79C204.434 139.786 204.433 139.784 204.434 139.784Z" fill="#001A39"/>
<path fill-rule="evenodd" clip-rule="evenodd" d="M102.38 60.2687C102.897 62.4908 103.547 64.6475 104.259 66.5956C104.935 68.4439 105.671 70.1177 106.411 71.4908C107.142 72.8479 107.907 73.9698 108.659 74.6621C109.033 75.0065 109.465 75.3013 109.942 75.4193C110.466 75.5487 110.999 75.4508 111.444 75.0908C111.848 74.7638 112.117 74.2726 112.306 73.7255C112.498 73.1667 112.634 72.4688 112.719 71.6354C113.056 68.3261 112.638 62.362 111.041 52.8384L109.409 53.1122C111.004 62.6266 111.385 68.3986 111.072 71.4674C110.994 72.2285 110.877 72.7902 110.74 73.1865C110.6 73.5946 110.464 73.754 110.403 73.8034C110.4 73.8058 110.398 73.808 110.395 73.8099C110.383 73.8208 110.381 73.8225 110.339 73.8122C110.245 73.7887 110.057 73.6984 109.78 73.4441C109.232 72.9392 108.571 72.0101 107.868 70.7057C107.174 69.4173 106.469 67.8189 105.814 66.0274C104.504 62.4415 103.414 58.1344 103.008 54.0754L101.36 54.0772C100.13 66.6594 98.9391 74.256 97.8327 78.2736C97.5571 79.2741 97.2932 80.0287 97.0454 80.5726C96.8194 81.0689 96.6339 81.328 96.5144 81.4474C96.5024 81.4353 96.4892 81.4213 96.475 81.4052C96.401 81.3211 96.3119 81.1957 96.2118 81.0185C95.7968 80.2846 95.3671 78.987 94.9488 77.2146C94.5358 75.4647 94.15 73.3246 93.7971 70.9571C93.0915 66.2236 92.5238 60.6257 92.1305 55.5133L90.4783 55.5396C90.0645 64.7609 89.4012 70.5103 88.6144 73.625C88.4189 74.399 88.2216 74.9858 88.0299 75.4116C87.8395 75.8345 87.6809 76.0387 87.5865 76.1229C87.5762 76.1158 87.5643 76.107 87.5507 76.0961C87.4897 76.0473 87.4099 75.9682 87.314 75.8465C86.9103 75.3344 86.4422 74.3591 85.9467 72.9218C85.4593 71.5084 84.9707 69.7255 84.4959 67.663C83.5467 63.5398 82.664 58.3502 81.9568 52.8694L80.3149 53.0812C81.0267 58.5975 81.9177 63.8433 82.8826 68.0344C83.3649 70.1292 83.8685 71.9732 84.3816 73.4614C84.8865 74.9259 85.4273 76.1271 86.0139 76.8713C86.3038 77.2391 86.6805 77.5939 87.1618 77.7373C87.7127 77.9014 88.2327 77.7426 88.6409 77.3995C89.0115 77.0881 89.2999 76.6232 89.5394 76.0913C89.785 75.5459 90.0103 74.8583 90.2195 74.0304C90.6889 72.1719 91.1058 69.4836 91.4544 65.8356C91.6706 67.6914 91.9062 69.5002 92.1597 71.2012C92.5163 73.5932 92.91 75.783 93.3376 77.5948C93.7598 79.3842 94.2317 80.8801 94.7707 81.8333C95.0312 82.2941 95.3787 82.7599 95.8591 82.9972C96.1204 83.1262 96.4201 83.1865 96.7365 83.1362C97.0447 83.0872 97.3072 82.9433 97.5223 82.7661C97.932 82.4285 98.2633 81.8926 98.552 81.2588C98.8496 80.6054 99.1406 79.7592 99.4287 78.7131C100.381 75.2563 101.369 69.3554 102.38 60.2687Z" fill="#001A39"/>
</svg>
