<svg width="512" height="485" viewBox="0 0 512 485" fill="none" xmlns="http://www.w3.org/2000/svg">
<path fill-rule="evenodd" clip-rule="evenodd" d="M244.485 89.4781L214.532 91.2982L214.447 89.8913L244.399 88.0712L244.485 89.4781Z" fill="#001A39"/>
<path fill-rule="evenodd" clip-rule="evenodd" d="M181.594 60.8885L235.453 56.2655L235.573 57.6698L181.715 62.2927L181.594 60.8885Z" fill="#001A39"/>
<path d="M241.56 53.1953C237.093 81.2289 256.202 107.573 284.235 112.04C312.269 116.507 338.614 97.3983 343.08 69.3647" fill="#001A39"/>
<path d="M437.231 203.833L471.501 178.21L512 249.004L462.516 204.986L439.376 222.131" fill="#001A39"/>
<path fill-rule="evenodd" clip-rule="evenodd" d="M469.325 218.918L469.986 202.498L471.598 202.563L470.936 218.983L469.325 218.918Z" fill="white"/>
<path fill-rule="evenodd" clip-rule="evenodd" d="M475.203 225.017L475.868 208.598L477.479 208.663L476.814 225.082L475.203 225.017Z" fill="white"/>
<path fill-rule="evenodd" clip-rule="evenodd" d="M481.145 231.911L481.806 215.491L483.417 215.556L482.756 231.976L481.145 231.911Z" fill="white"/>
<path d="M385.292 316.004L424.331 333.52L382.111 403.302L396.564 338.668L370.34 326.763" fill="#001A39"/>
<path fill-rule="evenodd" clip-rule="evenodd" d="M387.691 351.384L402.365 343.991L403.09 345.431L388.416 352.824L387.691 351.384Z" fill="white"/>
<path fill-rule="evenodd" clip-rule="evenodd" d="M385.215 359.487L399.889 352.09L400.615 353.53L385.941 360.927L385.215 359.487Z" fill="white"/>
<path fill-rule="evenodd" clip-rule="evenodd" d="M382.071 368.025L396.745 360.632L397.471 362.072L382.797 369.465L382.071 368.025Z" fill="white"/>
<path d="M353.634 174.719L373.625 243.307L434.559 197.391C434.559 197.391 448.854 198.403 459.827 210.964C471.336 224.139 468.551 240.723 468.551 240.723L354.134 330.085L307.202 227.747L306.746 273.208L391.266 312.323C391.266 312.323 396.854 327.626 388.787 342.647C380.954 357.232 368.429 359.107 368.429 359.107L279.176 325.131C265.409 319.89 256.024 307.022 255.246 292.308L249.957 192.291C248.405 162.951 271.049 137.961 300.401 136.619C324.81 135.51 346.809 151.253 353.634 174.719Z" fill="#F96155"/>
<path d="M255.133 287.757C263.712 284.87 273.153 284.06 282.159 284.487C290.988 284.907 299.97 286.636 308.085 290.22C323.065 296.835 331.986 310.344 338.42 324.837C342.472 333.967 346.019 343.32 350.393 352.306C350.732 352.999 351.768 352.391 351.429 351.701C343.866 336.169 339.093 318.822 328.451 304.962C323.569 298.605 317.51 293.392 310.266 289.909C302.691 286.269 294.334 284.338 285.997 283.556C275.701 282.588 264.667 283.278 254.815 286.596C254.085 286.846 254.396 288.007 255.133 287.757Z" fill="#FBC73B"/>
<path d="M392.319 322.006C375.931 325.707 369.844 343.501 369.961 358.571C369.965 359.341 371.166 359.345 371.162 358.571C371.049 344.03 376.778 326.743 392.637 323.163C393.387 322.994 393.068 321.833 392.319 322.006Z" fill="#FBC73B"/>
<path d="M262.333 312.094C271.541 303.838 284.211 301.189 296.015 304.688C306.835 307.893 316.143 315.476 322.452 324.72C326.697 330.936 329.68 337.89 331.805 345.086C332.022 345.823 333.183 345.509 332.962 344.767C329.273 332.278 322.847 320.539 312.6 312.263C303.634 305.019 291.947 300.524 280.325 302.277C273.31 303.338 266.752 306.518 261.483 311.243C260.91 311.763 261.761 312.61 262.333 312.094Z" fill="#FBC73B"/>
<path d="M268.957 149.076C278.454 154.095 282.724 164.371 283.09 174.707C283.473 185.563 279.704 195.956 275.721 205.877C271.738 215.802 267.356 225.751 266.05 236.466C265.449 241.401 265.284 246.799 267.272 251.463C268.896 255.276 272.037 258.119 275.572 260.162C285.009 265.625 296.765 266.314 307.012 262.924C307.742 262.682 307.427 261.525 306.694 261.767C296.914 265 285.816 264.444 276.713 259.429C272.065 256.869 268.517 253.112 267.384 247.807C266.256 242.517 266.981 236.741 268.09 231.516C272.319 211.601 285.993 193.541 284.155 172.465C283.28 162.464 278.708 152.869 269.565 148.036C268.88 147.677 268.275 148.713 268.957 149.076Z" fill="#FBC73B"/>
<path d="M252.42 172.002C259.544 175.187 258.568 184.511 257.528 190.864C256.359 197.992 253.916 204.821 250.453 211.15C250.082 211.827 251.118 212.436 251.489 211.754C255.371 204.659 257.992 196.939 259.015 188.905C259.834 182.495 259.939 174.054 253.029 170.962C252.328 170.655 251.715 171.687 252.42 172.002Z" fill="#FBC73B"/>
<path d="M293.144 137.796C299.405 143.117 302.328 151.208 304.746 158.815C307.597 167.793 310.39 176.779 313.89 185.527C320.013 200.838 328.289 216.777 343.197 225.154C351.215 229.661 360.463 231.359 369.417 228.908C370.163 228.702 369.844 227.545 369.098 227.751C351.437 232.588 335.243 220.837 325.891 206.756C316.083 191.989 311.08 174.602 305.71 157.896C303.267 150.297 300.24 142.259 293.991 136.946C293.41 136.454 292.556 137.296 293.144 137.796Z" fill="#FBC73B"/>
<path d="M320.884 141.69C321.674 163.181 339.029 178.242 356.779 187.474C357.464 187.829 358.069 186.797 357.383 186.438C340.033 177.412 322.859 162.746 322.085 141.69C322.053 140.92 320.856 140.916 320.884 141.69Z" fill="#FBC73B"/>
<path d="M327.608 273.752C339.13 267.995 350.691 277.158 358.351 285.003C362.281 289.027 366.091 293.155 370.562 296.597C375.214 300.185 380.322 303.088 385.687 305.466C386.389 305.777 386.997 304.745 386.292 304.43C380.338 301.79 374.67 298.5 369.643 294.34C364.817 290.349 360.778 285.543 356.259 281.226C348.684 273.994 337.481 267.483 327.008 272.716C326.31 273.058 326.919 274.094 327.608 273.752Z" fill="#FBC73B"/>
<path d="M318.796 254.204C331.446 252.426 344.249 253.2 356.521 256.8C369.102 260.489 380.503 266.83 391.351 274.074C397.668 278.291 403.921 282.621 410.637 286.184C411.318 286.547 411.927 285.511 411.242 285.148C398.914 278.61 388.106 269.6 375.661 263.246C364.624 257.611 352.751 253.644 340.379 252.447C333.071 251.737 325.734 252.023 318.473 253.047C317.715 253.152 318.042 254.309 318.796 254.204Z" fill="#FBC73B"/>
<path d="M396.628 225.521C395.64 235.43 398.539 245.476 404.102 253.684C410.056 262.472 418.901 268.588 428.774 272.248C429.499 272.518 429.81 271.357 429.092 271.091C419.324 267.471 410.556 261.332 404.787 252.551C399.559 244.598 396.882 235.031 397.829 225.521C397.906 224.751 396.705 224.755 396.628 225.521Z" fill="#FBC73B"/>
<path d="M467.869 224.844C460.012 220.591 449.902 222.063 444.955 229.956C442.392 234.052 442.388 239.022 443.024 243.67C443.686 248.472 445.484 252.712 449.16 255.954C449.737 256.462 450.591 255.615 450.007 255.107C446.782 252.265 445.056 248.633 444.347 244.428C443.601 240.022 443.411 235.039 445.701 231.044C450.12 223.34 459.819 221.853 467.261 225.88C467.942 226.247 468.551 225.211 467.869 224.844Z" fill="#FBC73B"/>
<path d="M413.624 213.077C415.346 215.495 417.41 217.725 420.231 218.833C423.424 220.083 426.964 219.527 429.971 218.031C433.244 216.402 435.804 213.657 438.082 210.859C440.763 207.562 443.254 204.111 445.596 200.567C446.024 199.922 444.984 199.318 444.56 199.963C440.993 205.361 437.119 211.517 431.866 215.439C429.084 217.519 425.529 218.894 422.025 218.128C418.825 217.426 416.494 215.052 414.66 212.476C414.213 211.847 413.173 212.448 413.624 213.077Z" fill="#FBC73B"/>
<path fill-rule="evenodd" clip-rule="evenodd" d="M339.709 299.263L293.463 195.842L292.359 196.335L338.614 299.776L338.619 299.786C346.504 315.881 367.2 320.643 381.326 309.611L380.582 308.658C367.064 319.215 347.26 314.661 339.709 299.263Z" fill="#FDC4A0"/>
<path fill-rule="evenodd" clip-rule="evenodd" d="M371.24 251.791L373.033 243.184L374.217 243.431L372.423 252.038L371.24 251.791Z" fill="white"/>
<path fill-rule="evenodd" clip-rule="evenodd" d="M299.306 277.637L306.401 272.711L307.091 273.703L299.996 278.629L299.306 277.637Z" fill="#FDC4A0"/>
<path d="M274.068 31.0189C274.314 42.3429 283.691 51.3247 295.015 51.0788C305.025 50.8611 313.204 43.5079 314.797 33.9818C315.002 32.7321 315.099 31.4461 315.071 30.1319C314.825 18.8119 305.448 9.82603 294.124 10.0719C288.23 10.2009 282.978 12.7972 279.325 16.8567C275.955 20.6018 273.951 25.5887 274.068 31.0189Z" fill="#742A40"/>
<path d="M274.907 8.70541C275.008 13.4101 278.902 17.1391 283.606 17.0383C287.767 16.9496 291.161 13.8938 291.822 9.93501C291.907 9.41496 291.947 8.88282 291.935 8.33455C291.834 3.62991 287.94 -0.0991555 283.235 0.00162951C280.788 0.0540377 278.603 1.13445 277.088 2.81958C275.693 4.37973 274.858 6.45186 274.907 8.70541Z" fill="#001A39"/>
<path d="M288.972 6.00451C289.032 8.87069 291.407 11.1442 294.273 11.0797C296.805 11.0233 298.877 9.16491 299.28 6.75426C299.333 6.43982 299.357 6.11333 299.349 5.77874C299.288 2.91257 296.914 0.638989 294.047 0.703488C292.556 0.735737 291.226 1.39282 290.302 2.42078C289.448 3.37214 288.94 4.63391 288.972 6.00451Z" fill="#001A39"/>
<path d="M282.444 42.2988C283.671 42.2723 284.631 40.669 284.589 38.7176C284.547 36.7662 283.518 35.2058 282.292 35.2323C281.065 35.2588 280.105 36.8622 280.147 38.8135C280.189 40.7649 281.218 42.3253 282.444 42.2988Z" fill="#FFD2A8"/>
<path d="M289.83 42.3855C291.056 42.359 292.017 40.7551 291.974 38.8032C291.932 36.8513 290.904 35.2904 289.677 35.3169C288.451 35.3434 287.491 36.9472 287.533 38.8992C287.575 40.8511 288.603 42.412 289.83 42.3855Z" fill="#FFD2A8"/>
<path d="M307.19 30.2933C307.278 34.4051 310.685 37.6664 314.797 37.5777C318.433 37.4971 321.404 34.8284 321.98 31.3655C322.057 30.91 322.089 30.4464 322.081 29.9667C321.993 25.8549 318.586 22.5936 314.474 22.6823C312.334 22.7267 310.427 23.674 309.096 25.1454C307.875 26.508 307.149 28.322 307.19 30.2933Z" fill="#742A40"/>
<path d="M279.833 16.2883C279.833 16.2883 287.206 20.7671 300.324 18.0822L301.501 30.418L309.483 28.4708C309.483 28.4708 311.402 21.2951 318.356 23.6776C318.356 23.6776 318.626 9.58028 310.298 6.98817C295.749 2.46105 283.094 9.10865 279.833 16.2883Z" fill="#001A39"/>
<path fill-rule="evenodd" clip-rule="evenodd" d="M285.143 42.3946C285.143 42.3949 285.143 42.3952 285.88 42.7214C286.617 43.0476 286.617 43.0479 286.617 43.0483L286.617 43.049L286.616 43.0507L286.614 43.055L286.608 43.0671C286.604 43.0767 286.598 43.0892 286.591 43.1045C286.576 43.1351 286.556 43.1768 286.529 43.2278C286.476 43.3297 286.399 43.4697 286.296 43.6332C286.093 43.9578 285.782 44.3878 285.356 44.7958C284.492 45.6226 283.111 46.3879 281.248 45.9275L281.635 44.3638C282.804 44.6525 283.642 44.2056 284.24 43.633C284.544 43.3414 284.775 43.0249 284.93 42.7779C285.006 42.6556 285.063 42.5536 285.098 42.4848C285.116 42.4505 285.129 42.4248 285.136 42.4092C285.14 42.4015 285.142 42.3963 285.144 42.3939L285.143 42.3941L285.143 42.3946ZM285.144 42.3939C285.144 42.3927 285.144 42.3922 285.144 42.3924L285.144 42.3933L285.144 42.3939Z" fill="#FFD2A8"/>
<path d="M0 176.871L196.675 192.243V64.7367C196.675 57.1982 190.564 51.0828 183.021 51.0828H13.654C6.11549 51.0828 0 57.1942 0 64.7367V176.871Z" fill="#FFEDDC"/>
<path d="M196.574 193.098C194.623 201.438 170.641 202.12 138.338 195.774C122.467 192.65 111.244 193.44 113.606 200.205C117.138 210.319 88.1485 210.275 55.9384 203.506C23.7323 196.738 -1.84637 184.273 0.104786 175.932C2.05594 167.592 26.143 166.926 58.4418 173.276C74.313 176.396 85.5362 175.606 83.1779 168.841C79.6424 158.727 108.628 158.771 140.842 165.54C173.048 172.312 198.526 184.757 196.574 193.098Z" fill="#001A39"/>
<path d="M178.764 328.719C186.027 328.719 191.914 322.831 191.914 315.569C191.914 308.306 186.027 302.419 178.764 302.419C171.502 302.419 165.614 308.306 165.614 315.569C165.614 322.831 171.502 328.719 178.764 328.719Z" fill="#617FA8"/>
<path d="M72.0354 427.95C79.298 427.95 85.1855 422.062 85.1855 414.799C85.1855 407.537 79.298 401.649 72.0354 401.649C64.7728 401.649 58.8853 407.537 58.8853 414.799C58.8853 422.062 64.7728 427.95 72.0354 427.95Z" fill="#FBC73B"/>
<path d="M85.1897 221.397C92.4523 221.397 98.3398 215.51 98.3398 208.247C98.3398 200.985 92.4523 195.097 85.1897 195.097C77.9271 195.097 72.0396 200.985 72.0396 208.247C72.0396 215.51 77.9271 221.397 85.1897 221.397Z" fill="#F96155"/>
<path d="M33.9348 275.947L11.4502 281.008L16.5113 303.493L38.996 298.432L33.9348 275.947Z" fill="#617FA8"/>
<path d="M67.7884 332.648L56.2649 352.607L76.2235 364.131L87.747 344.172L67.7884 332.648Z" fill="#F96155"/>
<path d="M123.991 238.308L122.786 265.193L147.28 254.248L123.991 238.308Z" fill="#FBC73B"/>
<path d="M159.079 429.84L141.188 449.94L167.102 456.898L159.079 429.84Z" fill="#F96155"/>
<path fill-rule="evenodd" clip-rule="evenodd" d="M168.922 209.354L145.601 186.033L147.596 184.037L170.917 207.358L168.922 209.354Z" fill="#FDC4A0"/>
<path fill-rule="evenodd" clip-rule="evenodd" d="M38.1252 380.327L14.8041 357.009L15.8017 356.011L39.1228 379.329L38.1252 380.327Z" fill="#001A39"/>
<path fill-rule="evenodd" clip-rule="evenodd" d="M178.265 399.193L154.944 375.872L155.942 374.874L179.263 398.195L178.265 399.193Z" fill="#001A39"/>
<path fill-rule="evenodd" clip-rule="evenodd" d="M28.9187 217.058L52.2398 193.737L54.2352 195.732L30.9141 219.053L28.9187 217.058Z" fill="#FDC4A0"/>
<path fill-rule="evenodd" clip-rule="evenodd" d="M110.624 334.081L133.945 310.76L134.943 311.758L111.622 335.079L110.624 334.081Z" fill="#001A39"/>
<path fill-rule="evenodd" clip-rule="evenodd" d="M8.68042 459.241L32.0015 435.924L32.9991 436.922L9.67803 460.239L8.68042 459.241Z" fill="#001A39"/>
<path fill-rule="evenodd" clip-rule="evenodd" d="M106.641 431.913L129.962 408.592L130.96 409.59L107.639 432.911L106.641 431.913Z" fill="#001A39"/>
<path fill-rule="evenodd" clip-rule="evenodd" d="M86.5532 277.355L63.2321 254.034L64.2298 253.036L87.5509 276.357L86.5532 277.355Z" fill="#001A39"/>
<path fill-rule="evenodd" clip-rule="evenodd" d="M303.088 94.579L288.003 115.667L285.708 114.025L300.793 92.9371L303.088 94.579Z" fill="white"/>
<path fill-rule="evenodd" clip-rule="evenodd" d="M269.747 135.952L308.119 82.1293L309.268 82.9483L270.454 137.391L269.426 137.522L269.88 136.982C269.426 137.522 269.426 137.522 269.426 137.522L269.424 137.52L269.262 137.385C269.153 137.294 268.991 137.159 268.779 136.982C268.355 136.629 267.73 136.111 266.93 135.452C265.329 134.133 263.025 132.246 260.212 129.98C254.586 125.446 246.928 119.392 238.796 113.309C230.661 107.224 222.062 101.117 214.554 96.4739C210.799 94.1519 207.329 92.2031 204.333 90.8067C201.318 89.4017 198.852 88.5892 197.086 88.4756L197.176 87.0675C199.218 87.1988 201.882 88.1078 204.929 89.5279C207.994 90.9566 211.516 92.9366 215.296 95.2739C222.856 99.9492 231.493 106.084 239.641 112.179C247.791 118.276 255.464 124.341 261.098 128.881C263.915 131.151 266.223 133.041 267.827 134.363C268.629 135.024 269.256 135.543 269.681 135.898C269.704 135.916 269.726 135.935 269.747 135.952Z" fill="#001A39"/>
<path fill-rule="evenodd" clip-rule="evenodd" d="M28.8491 216.992L52.1702 193.671L53.1679 194.669L29.8468 217.99L28.8491 216.992Z" fill="#001A39"/>
<path fill-rule="evenodd" clip-rule="evenodd" d="M170.102 208.169L146.781 184.848L147.779 183.851L171.1 207.172L170.102 208.169Z" fill="#001A39"/>
<path fill-rule="evenodd" clip-rule="evenodd" d="M179.814 93.6513C185.884 92.0108 194.179 91.8797 197.562 92.015L197.506 93.4249C194.17 93.2914 186.044 93.4291 180.182 95.0135L180.181 95.0138C178.384 95.4962 176.601 96.0979 175.361 96.724C174.732 97.0415 174.303 97.3361 174.072 97.583C173.962 97.7013 173.93 97.7751 173.922 97.8014C173.957 97.8705 174.159 98.1027 174.898 98.3833C175.604 98.6516 176.664 98.9133 178.168 99.1476C181.17 99.6153 185.826 99.9564 192.709 100.077L192.844 101.472C187.594 102.596 181.855 103.942 177.019 105.269C174.601 105.933 172.416 106.59 170.634 107.211C168.836 107.837 167.501 108.409 166.747 108.891C166.57 109.003 166.44 109.102 166.349 109.185C166.516 109.264 166.798 109.361 167.241 109.454C167.839 109.58 168.655 109.684 169.72 109.76C173.991 110.062 181.963 109.875 195.065 108.948L195.324 110.325C191.614 111.472 183.653 113.988 181.268 114.942C180.545 115.232 179.126 115.897 177.796 116.665C177.132 117.049 176.505 117.45 176.003 117.834C175.481 118.234 175.169 118.561 175.049 118.782C175.045 118.79 175.041 118.797 175.037 118.804C175.225 118.916 175.704 119.062 176.703 119.11C178.763 119.21 182.498 118.883 188.734 117.827C191.742 117.189 199.01 117.421 204.692 123.269C211.503 130.281 225.485 142.542 256.606 165.319C263.33 170.24 270.592 170.485 278.046 167.586C285.538 164.672 293.194 158.585 300.553 150.888C315.262 135.502 328.581 113.898 336.805 99.2282L338.036 99.9182C329.799 114.61 316.41 136.343 301.573 151.863C294.158 159.619 286.332 165.878 278.558 168.901C270.745 171.94 262.957 171.716 255.773 166.457C224.635 143.668 210.575 131.351 203.68 124.253C198.406 118.824 191.66 118.643 189.014 119.21L188.999 119.213L188.984 119.216C182.733 120.275 178.862 120.627 176.635 120.519C175.554 120.467 174.712 120.303 174.192 119.937C173.903 119.733 173.676 119.44 173.616 119.056C173.559 118.694 173.67 118.365 173.81 118.108C174.08 117.61 174.597 117.134 175.145 116.714C175.713 116.279 176.397 115.844 177.091 115.443C178.475 114.643 179.954 113.948 180.743 113.632C182.253 113.029 185.874 111.836 189.295 110.743C179.595 111.331 173.306 111.428 169.621 111.167C168.523 111.089 167.637 110.979 166.951 110.835C166.289 110.696 165.726 110.509 165.35 110.225C165.151 110.076 164.959 109.865 164.869 109.576C164.775 109.273 164.823 108.982 164.935 108.742C165.132 108.316 165.558 107.975 165.987 107.701C166.892 107.124 168.363 106.508 170.17 105.879C171.993 105.244 174.211 104.577 176.646 103.909C179.848 103.03 183.438 102.144 187.018 101.32C183.076 101.148 180.114 100.879 177.95 100.542C176.404 100.301 175.236 100.021 174.397 99.7024C173.601 99.4001 172.937 99.0033 172.651 98.4148C172.307 97.7056 172.635 97.0556 173.04 96.621C173.442 96.1898 174.05 95.8052 174.725 95.4645C176.092 94.7742 177.983 94.1431 179.814 93.6513ZM166.177 109.08C166.177 109.08 166.177 109.08 166.178 109.081C166.177 109.08 166.177 109.08 166.177 109.08Z" fill="black"/>
<path fill-rule="evenodd" clip-rule="evenodd" d="M86.0003 52.6085C85.1191 61.2279 84.2534 66.763 83.4188 69.9631C83.1805 70.8771 82.9401 71.6189 82.6952 72.196C82.4566 72.7584 82.1883 73.227 81.8645 73.5354C81.6966 73.6953 81.4894 73.8355 81.2396 73.9039C80.9791 73.9751 80.7178 73.9553 80.4787 73.8617C80.0421 73.6908 79.7353 73.2991 79.5154 72.9286C79.0577 72.1572 78.6605 70.9211 78.3062 69.4418C77.9467 67.9407 77.6151 66.1158 77.3144 64.1164C77.0874 62.6075 76.8771 60.9935 76.6851 59.3362C76.308 63.1823 75.8728 65.8173 75.3945 67.4642C75.2019 68.1273 74.9922 68.6673 74.7564 69.0728C74.5322 69.4583 74.2175 69.838 73.7614 69.9804C73.2447 70.1417 72.7922 69.9323 72.4777 69.6609C72.1751 69.3998 71.9185 69.0207 71.6948 68.6036C70.8065 66.9471 69.9535 63.7373 69.1974 60.073C68.4341 56.3739 67.7505 52.1091 67.2284 48.2692L68.6265 48.0791C69.1458 51.8987 69.8244 56.1299 70.5792 59.7879C71.3412 63.4807 72.162 66.4892 72.9382 67.9368C73.123 68.2812 73.2768 68.4814 73.3859 68.5807C73.4221 68.5398 73.4734 68.4722 73.5368 68.3633C73.6904 68.0992 73.8619 67.6824 74.0396 67.0706C74.7547 64.6082 75.4063 59.5898 75.8904 50.9565L77.2981 50.9413C77.6333 55.2483 78.1146 59.9511 78.7096 63.9065C79.0073 65.8849 79.3318 67.6663 79.6783 69.1132C80.0301 70.5817 80.3887 71.6353 80.7288 72.2086C80.8111 72.3472 80.8773 72.4315 80.923 72.4815C81.0363 72.3587 81.2008 72.1057 81.3963 71.645C81.6045 71.1542 81.8248 70.4843 82.0535 69.607C82.972 66.0855 83.955 59.5169 84.9628 48.7133L86.3464 48.5954C87.2846 52.08 88.4054 55.8919 89.5073 59.1098C90.0584 60.7192 90.6019 62.1719 91.1128 63.3571C91.6301 64.5573 92.0929 65.4327 92.4723 65.9244C92.5324 66.0023 92.5865 66.0654 92.6343 66.1155C92.669 66.0302 92.706 65.9192 92.7427 65.778C92.8367 65.4172 92.9173 64.9082 92.9744 64.2231C93.2038 61.4697 93.0255 56.2638 92.2191 47.6351L93.624 47.5038C94.4301 56.129 94.6214 61.4483 94.3805 64.3403C94.3199 65.0666 94.2304 65.664 94.1082 66.1336C93.9918 66.5803 93.8226 67.0071 93.5376 67.2966C93.3831 67.4535 93.1805 67.5838 92.93 67.6332C92.6799 67.6824 92.4463 67.6384 92.2507 67.556C91.89 67.404 91.5933 67.095 91.3551 66.7863C90.861 66.1458 90.3412 65.1315 89.8171 63.9156C89.2866 62.6848 88.7299 61.1951 88.1724 59.5669C87.4354 57.4144 86.692 55.0057 86.0003 52.6085Z" fill="black"/>
<rect x="154" y="421" width="338" height="64" rx="16" fill="#AF687D"/>
<rect x="145" y="423" width="323" height="55" rx="14" fill="white" stroke="#742A40" stroke-width="4"/>
<path d="M169.58 457.126C168.704 457.126 167.912 456.976 167.204 456.676C166.508 456.376 165.956 455.944 165.548 455.38C165.14 454.816 164.93 454.15 164.918 453.382H167.618C167.654 453.898 167.834 454.306 168.158 454.606C168.494 454.906 168.95 455.056 169.526 455.056C170.114 455.056 170.576 454.918 170.912 454.642C171.248 454.354 171.416 453.982 171.416 453.526C171.416 453.154 171.302 452.848 171.074 452.608C170.846 452.368 170.558 452.182 170.21 452.05C169.874 451.906 169.406 451.75 168.806 451.582C167.99 451.342 167.324 451.108 166.808 450.88C166.304 450.64 165.866 450.286 165.494 449.818C165.134 449.338 164.954 448.702 164.954 447.91C164.954 447.166 165.14 446.518 165.512 445.966C165.884 445.414 166.406 444.994 167.078 444.706C167.75 444.406 168.518 444.256 169.382 444.256C170.678 444.256 171.728 444.574 172.532 445.21C173.348 445.834 173.798 446.71 173.882 447.838H171.11C171.086 447.406 170.9 447.052 170.552 446.776C170.216 446.488 169.766 446.344 169.202 446.344C168.71 446.344 168.314 446.47 168.014 446.722C167.726 446.974 167.582 447.34 167.582 447.82C167.582 448.156 167.69 448.438 167.906 448.666C168.134 448.882 168.41 449.062 168.734 449.206C169.07 449.338 169.538 449.494 170.138 449.674C170.954 449.914 171.62 450.154 172.136 450.394C172.652 450.634 173.096 450.994 173.468 451.474C173.84 451.954 174.026 452.584 174.026 453.364C174.026 454.036 173.852 454.66 173.504 455.236C173.156 455.812 172.646 456.274 171.974 456.622C171.302 456.958 170.504 457.126 169.58 457.126ZM179.145 449.098V453.922C179.145 454.258 179.223 454.504 179.379 454.66C179.547 454.804 179.823 454.876 180.207 454.876H181.377V457H179.793C177.669 457 176.607 455.968 176.607 453.904V449.098H175.419V447.028H176.607V444.562H179.145V447.028H181.377V449.098H179.145ZM187.617 457.162C186.657 457.162 185.793 456.952 185.025 456.532C184.257 456.1 183.651 455.494 183.207 454.714C182.775 453.934 182.559 453.034 182.559 452.014C182.559 450.994 182.781 450.094 183.225 449.314C183.681 448.534 184.299 447.934 185.079 447.514C185.859 447.082 186.729 446.866 187.689 446.866C188.649 446.866 189.519 447.082 190.299 447.514C191.079 447.934 191.691 448.534 192.135 449.314C192.591 450.094 192.819 450.994 192.819 452.014C192.819 453.034 192.585 453.934 192.117 454.714C191.661 455.494 191.037 456.1 190.245 456.532C189.465 456.952 188.589 457.162 187.617 457.162ZM187.617 454.966C188.073 454.966 188.499 454.858 188.895 454.642C189.303 454.414 189.627 454.078 189.867 453.634C190.107 453.19 190.227 452.65 190.227 452.014C190.227 451.066 189.975 450.34 189.471 449.836C188.979 449.32 188.373 449.062 187.653 449.062C186.933 449.062 186.327 449.32 185.835 449.836C185.355 450.34 185.115 451.066 185.115 452.014C185.115 452.962 185.349 453.694 185.817 454.21C186.297 454.714 186.897 454.966 187.617 454.966ZM197.188 448.468C197.512 448.012 197.956 447.634 198.52 447.334C199.096 447.022 199.75 446.866 200.482 446.866C201.334 446.866 202.102 447.076 202.786 447.496C203.482 447.916 204.028 448.516 204.424 449.296C204.832 450.064 205.036 450.958 205.036 451.978C205.036 452.998 204.832 453.904 204.424 454.696C204.028 455.476 203.482 456.082 202.786 456.514C202.102 456.946 201.334 457.162 200.482 457.162C199.75 457.162 199.102 457.012 198.538 456.712C197.986 456.412 197.536 456.034 197.188 455.578V461.752H194.668V447.028H197.188V448.468ZM202.462 451.978C202.462 451.378 202.336 450.862 202.084 450.43C201.844 449.986 201.52 449.65 201.112 449.422C200.716 449.194 200.284 449.08 199.816 449.08C199.36 449.08 198.928 449.2 198.52 449.44C198.124 449.668 197.8 450.004 197.548 450.448C197.308 450.892 197.188 451.414 197.188 452.014C197.188 452.614 197.308 453.136 197.548 453.58C197.8 454.024 198.124 454.366 198.52 454.606C198.928 454.834 199.36 454.948 199.816 454.948C200.284 454.948 200.716 454.828 201.112 454.588C201.52 454.348 201.844 454.006 202.084 453.562C202.336 453.118 202.462 452.59 202.462 451.978ZM214.09 449.098V453.922C214.09 454.258 214.168 454.504 214.324 454.66C214.492 454.804 214.768 454.876 215.152 454.876H216.322V457H214.738C212.614 457 211.552 455.968 211.552 453.904V449.098H210.364V447.028H211.552V444.562H214.09V447.028H216.322V449.098H214.09ZM223.751 446.884C224.507 446.884 225.179 447.052 225.767 447.388C226.355 447.712 226.811 448.198 227.135 448.846C227.471 449.482 227.639 450.25 227.639 451.15V457H225.119V451.492C225.119 450.7 224.921 450.094 224.525 449.674C224.129 449.242 223.589 449.026 222.905 449.026C222.209 449.026 221.657 449.242 221.249 449.674C220.853 450.094 220.655 450.7 220.655 451.492V457H218.135V443.68H220.655V448.27C220.979 447.838 221.411 447.502 221.951 447.262C222.491 447.01 223.091 446.884 223.751 446.884ZM232.555 448.576C232.879 448.048 233.299 447.634 233.815 447.334C234.343 447.034 234.943 446.884 235.615 446.884V449.53H234.949C234.157 449.53 233.557 449.716 233.149 450.088C232.753 450.46 232.555 451.108 232.555 452.032V457H230.035V447.028H232.555V448.576ZM241.74 457.162C240.78 457.162 239.916 456.952 239.148 456.532C238.38 456.1 237.774 455.494 237.33 454.714C236.898 453.934 236.682 453.034 236.682 452.014C236.682 450.994 236.904 450.094 237.348 449.314C237.804 448.534 238.422 447.934 239.202 447.514C239.982 447.082 240.852 446.866 241.812 446.866C242.772 446.866 243.642 447.082 244.422 447.514C245.202 447.934 245.814 448.534 246.258 449.314C246.714 450.094 246.942 450.994 246.942 452.014C246.942 453.034 246.708 453.934 246.24 454.714C245.784 455.494 245.16 456.1 244.368 456.532C243.588 456.952 242.712 457.162 241.74 457.162ZM241.74 454.966C242.196 454.966 242.622 454.858 243.018 454.642C243.426 454.414 243.75 454.078 243.99 453.634C244.23 453.19 244.35 452.65 244.35 452.014C244.35 451.066 244.098 450.34 243.594 449.836C243.102 449.32 242.496 449.062 241.776 449.062C241.056 449.062 240.45 449.32 239.958 449.836C239.478 450.34 239.238 451.066 239.238 452.014C239.238 452.962 239.472 453.694 239.94 454.21C240.42 454.714 241.02 454.966 241.74 454.966ZM262.615 447.028L259.699 457H256.981L255.163 450.034L253.345 457H250.609L247.675 447.028H250.231L251.995 454.624L253.903 447.028H256.567L258.439 454.606L260.203 447.028H262.615ZM265.256 445.84C264.812 445.84 264.44 445.702 264.14 445.426C263.852 445.138 263.708 444.784 263.708 444.364C263.708 443.944 263.852 443.596 264.14 443.32C264.44 443.032 264.812 442.888 265.256 442.888C265.7 442.888 266.066 443.032 266.354 443.32C266.654 443.596 266.804 443.944 266.804 444.364C266.804 444.784 266.654 445.138 266.354 445.426C266.066 445.702 265.7 445.84 265.256 445.84ZM266.498 447.028V457H263.978V447.028H266.498ZM274.514 446.884C275.702 446.884 276.662 447.262 277.394 448.018C278.126 448.762 278.492 449.806 278.492 451.15V457H275.972V451.492C275.972 450.7 275.774 450.094 275.378 449.674C274.982 449.242 274.442 449.026 273.758 449.026C273.062 449.026 272.51 449.242 272.102 449.674C271.706 450.094 271.508 450.7 271.508 451.492V457H268.988V447.028H271.508V448.27C271.844 447.838 272.27 447.502 272.786 447.262C273.314 447.01 273.89 446.884 274.514 446.884ZM284.794 446.866C285.538 446.866 286.192 447.016 286.756 447.316C287.32 447.604 287.764 447.982 288.088 448.45V447.028H290.626V457.072C290.626 457.996 290.44 458.818 290.068 459.538C289.696 460.27 289.138 460.846 288.394 461.266C287.65 461.698 286.75 461.914 285.694 461.914C284.278 461.914 283.114 461.584 282.202 460.924C281.302 460.264 280.792 459.364 280.672 458.224H283.174C283.306 458.68 283.588 459.04 284.02 459.304C284.464 459.58 284.998 459.718 285.622 459.718C286.354 459.718 286.948 459.496 287.404 459.052C287.86 458.62 288.088 457.96 288.088 457.072V455.524C287.764 455.992 287.314 456.382 286.738 456.694C286.174 457.006 285.526 457.162 284.794 457.162C283.954 457.162 283.186 456.946 282.49 456.514C281.794 456.082 281.242 455.476 280.834 454.696C280.438 453.904 280.24 452.998 280.24 451.978C280.24 450.97 280.438 450.076 280.834 449.296C281.242 448.516 281.788 447.916 282.472 447.496C283.168 447.076 283.942 446.866 284.794 446.866ZM288.088 452.014C288.088 451.402 287.968 450.88 287.728 450.448C287.488 450.004 287.164 449.668 286.756 449.44C286.348 449.2 285.91 449.08 285.442 449.08C284.974 449.08 284.542 449.194 284.146 449.422C283.75 449.65 283.426 449.986 283.174 450.43C282.934 450.862 282.814 451.378 282.814 451.978C282.814 452.578 282.934 453.106 283.174 453.562C283.426 454.006 283.75 454.348 284.146 454.588C284.554 454.828 284.986 454.948 285.442 454.948C285.91 454.948 286.348 454.834 286.756 454.606C287.164 454.366 287.488 454.03 287.728 453.598C287.968 453.154 288.088 452.626 288.088 452.014ZM296.729 451.978C296.729 450.97 296.927 450.076 297.323 449.296C297.731 448.516 298.277 447.916 298.961 447.496C299.657 447.076 300.431 446.866 301.283 446.866C302.027 446.866 302.675 447.016 303.227 447.316C303.791 447.616 304.241 447.994 304.577 448.45V447.028H307.115V457H304.577V455.542C304.253 456.01 303.803 456.4 303.227 456.712C302.663 457.012 302.009 457.162 301.265 457.162C300.425 457.162 299.657 456.946 298.961 456.514C298.277 456.082 297.731 455.476 297.323 454.696C296.927 453.904 296.729 452.998 296.729 451.978ZM304.577 452.014C304.577 451.402 304.457 450.88 304.217 450.448C303.977 450.004 303.653 449.668 303.245 449.44C302.837 449.2 302.399 449.08 301.931 449.08C301.463 449.08 301.031 449.194 300.635 449.422C300.239 449.65 299.915 449.986 299.663 450.43C299.423 450.862 299.303 451.378 299.303 451.978C299.303 452.578 299.423 453.106 299.663 453.562C299.915 454.006 300.239 454.348 300.635 454.588C301.043 454.828 301.475 454.948 301.931 454.948C302.399 454.948 302.837 454.834 303.245 454.606C303.653 454.366 303.977 454.03 304.217 453.598C304.457 453.154 304.577 452.626 304.577 452.014ZM323.4 447.028L320.484 457H317.766L315.948 450.034L314.13 457H311.394L308.46 447.028H311.016L312.78 454.624L314.688 447.028H317.352L319.224 454.606L320.988 447.028H323.4ZM324.115 451.978C324.115 450.97 324.313 450.076 324.709 449.296C325.117 448.516 325.663 447.916 326.347 447.496C327.043 447.076 327.817 446.866 328.669 446.866C329.413 446.866 330.061 447.016 330.613 447.316C331.177 447.616 331.627 447.994 331.963 448.45V447.028H334.501V457H331.963V455.542C331.639 456.01 331.189 456.4 330.613 456.712C330.049 457.012 329.395 457.162 328.651 457.162C327.811 457.162 327.043 456.946 326.347 456.514C325.663 456.082 325.117 455.476 324.709 454.696C324.313 453.904 324.115 452.998 324.115 451.978ZM331.963 452.014C331.963 451.402 331.843 450.88 331.603 450.448C331.363 450.004 331.039 449.668 330.631 449.44C330.223 449.2 329.785 449.08 329.317 449.08C328.849 449.08 328.417 449.194 328.021 449.422C327.625 449.65 327.301 449.986 327.049 450.43C326.809 450.862 326.689 451.378 326.689 451.978C326.689 452.578 326.809 453.106 327.049 453.562C327.301 454.006 327.625 454.348 328.021 454.588C328.429 454.828 328.861 454.948 329.317 454.948C329.785 454.948 330.223 454.834 330.631 454.606C331.039 454.366 331.363 454.03 331.603 453.598C331.843 453.154 331.963 452.626 331.963 452.014ZM346.503 447.028L340.329 461.716H337.647L339.807 456.748L335.811 447.028H338.637L341.211 453.994L343.821 447.028H346.503ZM356.056 446.866C356.8 446.866 357.454 447.016 358.018 447.316C358.582 447.604 359.026 447.982 359.35 448.45V447.028H361.888V457.072C361.888 457.996 361.702 458.818 361.33 459.538C360.958 460.27 360.4 460.846 359.656 461.266C358.912 461.698 358.012 461.914 356.956 461.914C355.54 461.914 354.376 461.584 353.464 460.924C352.564 460.264 352.054 459.364 351.934 458.224H354.436C354.568 458.68 354.85 459.04 355.282 459.304C355.726 459.58 356.26 459.718 356.884 459.718C357.616 459.718 358.21 459.496 358.666 459.052C359.122 458.62 359.35 457.96 359.35 457.072V455.524C359.026 455.992 358.576 456.382 358 456.694C357.436 457.006 356.788 457.162 356.056 457.162C355.216 457.162 354.448 456.946 353.752 456.514C353.056 456.082 352.504 455.476 352.096 454.696C351.7 453.904 351.502 452.998 351.502 451.978C351.502 450.97 351.7 450.076 352.096 449.296C352.504 448.516 353.05 447.916 353.734 447.496C354.43 447.076 355.204 446.866 356.056 446.866ZM359.35 452.014C359.35 451.402 359.23 450.88 358.99 450.448C358.75 450.004 358.426 449.668 358.018 449.44C357.61 449.2 357.172 449.08 356.704 449.08C356.236 449.08 355.804 449.194 355.408 449.422C355.012 449.65 354.688 449.986 354.436 450.43C354.196 450.862 354.076 451.378 354.076 451.978C354.076 452.578 354.196 453.106 354.436 453.562C354.688 454.006 355.012 454.348 355.408 454.588C355.816 454.828 356.248 454.948 356.704 454.948C357.172 454.948 357.61 454.834 358.018 454.606C358.426 454.366 358.75 454.03 358.99 453.598C359.23 453.154 359.35 452.626 359.35 452.014ZM368.777 457.162C367.817 457.162 366.953 456.952 366.185 456.532C365.417 456.1 364.811 455.494 364.367 454.714C363.935 453.934 363.719 453.034 363.719 452.014C363.719 450.994 363.941 450.094 364.385 449.314C364.841 448.534 365.459 447.934 366.239 447.514C367.019 447.082 367.889 446.866 368.849 446.866C369.809 446.866 370.679 447.082 371.459 447.514C372.239 447.934 372.851 448.534 373.295 449.314C373.751 450.094 373.979 450.994 373.979 452.014C373.979 453.034 373.745 453.934 373.277 454.714C372.821 455.494 372.197 456.1 371.405 456.532C370.625 456.952 369.749 457.162 368.777 457.162ZM368.777 454.966C369.233 454.966 369.659 454.858 370.055 454.642C370.463 454.414 370.787 454.078 371.027 453.634C371.267 453.19 371.387 452.65 371.387 452.014C371.387 451.066 371.135 450.34 370.631 449.836C370.139 449.32 369.533 449.062 368.813 449.062C368.093 449.062 367.487 449.32 366.995 449.836C366.515 450.34 366.275 451.066 366.275 452.014C366.275 452.962 366.509 453.694 366.977 454.21C367.457 454.714 368.057 454.966 368.777 454.966ZM380.256 457.162C379.296 457.162 378.432 456.952 377.664 456.532C376.896 456.1 376.29 455.494 375.846 454.714C375.414 453.934 375.198 453.034 375.198 452.014C375.198 450.994 375.42 450.094 375.864 449.314C376.32 448.534 376.938 447.934 377.718 447.514C378.498 447.082 379.368 446.866 380.328 446.866C381.288 446.866 382.158 447.082 382.938 447.514C383.718 447.934 384.33 448.534 384.774 449.314C385.23 450.094 385.458 450.994 385.458 452.014C385.458 453.034 385.224 453.934 384.756 454.714C384.3 455.494 383.676 456.1 382.884 456.532C382.104 456.952 381.228 457.162 380.256 457.162ZM380.256 454.966C380.712 454.966 381.138 454.858 381.534 454.642C381.942 454.414 382.266 454.078 382.506 453.634C382.746 453.19 382.866 452.65 382.866 452.014C382.866 451.066 382.614 450.34 382.11 449.836C381.618 449.32 381.012 449.062 380.292 449.062C379.572 449.062 378.966 449.32 378.474 449.836C377.994 450.34 377.754 451.066 377.754 452.014C377.754 452.962 377.988 453.694 378.456 454.21C378.936 454.714 379.536 454.966 380.256 454.966ZM386.658 451.978C386.658 450.97 386.856 450.076 387.252 449.296C387.66 448.516 388.212 447.916 388.908 447.496C389.604 447.076 390.378 446.866 391.23 446.866C391.878 446.866 392.496 447.01 393.084 447.298C393.672 447.574 394.14 447.946 394.488 448.414V443.68H397.044V457H394.488V455.524C394.176 456.016 393.738 456.412 393.174 456.712C392.61 457.012 391.956 457.162 391.212 457.162C390.372 457.162 389.604 456.946 388.908 456.514C388.212 456.082 387.66 455.476 387.252 454.696C386.856 453.904 386.658 452.998 386.658 451.978ZM394.506 452.014C394.506 451.402 394.386 450.88 394.146 450.448C393.906 450.004 393.582 449.668 393.174 449.44C392.766 449.2 392.328 449.08 391.86 449.08C391.392 449.08 390.96 449.194 390.564 449.422C390.168 449.65 389.844 449.986 389.592 450.43C389.352 450.862 389.232 451.378 389.232 451.978C389.232 452.578 389.352 453.106 389.592 453.562C389.844 454.006 390.168 454.348 390.564 454.588C390.972 454.828 391.404 454.948 391.86 454.948C392.328 454.948 392.766 454.834 393.174 454.606C393.582 454.366 393.906 454.03 394.146 453.598C394.386 453.154 394.506 452.626 394.506 452.014ZM403.147 451.978C403.147 450.97 403.345 450.076 403.741 449.296C404.149 448.516 404.701 447.916 405.397 447.496C406.093 447.076 406.867 446.866 407.719 446.866C408.367 446.866 408.985 447.01 409.573 447.298C410.161 447.574 410.629 447.946 410.977 448.414V443.68H413.533V457H410.977V455.524C410.665 456.016 410.227 456.412 409.663 456.712C409.099 457.012 408.445 457.162 407.701 457.162C406.861 457.162 406.093 456.946 405.397 456.514C404.701 456.082 404.149 455.476 403.741 454.696C403.345 453.904 403.147 452.998 403.147 451.978ZM410.995 452.014C410.995 451.402 410.875 450.88 410.635 450.448C410.395 450.004 410.071 449.668 409.663 449.44C409.255 449.2 408.817 449.08 408.349 449.08C407.881 449.08 407.449 449.194 407.053 449.422C406.657 449.65 406.333 449.986 406.081 450.43C405.841 450.862 405.721 451.378 405.721 451.978C405.721 452.578 405.841 453.106 406.081 453.562C406.333 454.006 406.657 454.348 407.053 454.588C407.461 454.828 407.893 454.948 408.349 454.948C408.817 454.948 409.255 454.834 409.663 454.606C410.071 454.366 410.395 454.03 410.635 453.598C410.875 453.154 410.995 452.626 410.995 452.014ZM415.346 451.978C415.346 450.97 415.544 450.076 415.94 449.296C416.348 448.516 416.894 447.916 417.578 447.496C418.274 447.076 419.048 446.866 419.9 446.866C420.644 446.866 421.292 447.016 421.844 447.316C422.408 447.616 422.858 447.994 423.194 448.45V447.028H425.732V457H423.194V455.542C422.87 456.01 422.42 456.4 421.844 456.712C421.28 457.012 420.626 457.162 419.882 457.162C419.042 457.162 418.274 456.946 417.578 456.514C416.894 456.082 416.348 455.476 415.94 454.696C415.544 453.904 415.346 452.998 415.346 451.978ZM423.194 452.014C423.194 451.402 423.074 450.88 422.834 450.448C422.594 450.004 422.27 449.668 421.862 449.44C421.454 449.2 421.016 449.08 420.548 449.08C420.08 449.08 419.648 449.194 419.252 449.422C418.856 449.65 418.532 449.986 418.28 450.43C418.04 450.862 417.92 451.378 417.92 451.978C417.92 452.578 418.04 453.106 418.28 453.562C418.532 454.006 418.856 454.348 419.252 454.588C419.66 454.828 420.092 454.948 420.548 454.948C421.016 454.948 421.454 454.834 421.862 454.606C422.27 454.366 422.594 454.03 422.834 453.598C423.074 453.154 423.194 452.626 423.194 452.014ZM431.127 449.098V453.922C431.127 454.258 431.205 454.504 431.361 454.66C431.529 454.804 431.805 454.876 432.189 454.876H433.359V457H431.775C429.651 457 428.589 455.968 428.589 453.904V449.098H427.401V447.028H428.589V444.562H431.127V447.028H433.359V449.098H431.127ZM434.524 451.978C434.524 450.97 434.722 450.076 435.118 449.296C435.526 448.516 436.072 447.916 436.756 447.496C437.452 447.076 438.226 446.866 439.078 446.866C439.822 446.866 440.47 447.016 441.022 447.316C441.586 447.616 442.036 447.994 442.372 448.45V447.028H444.91V457H442.372V455.542C442.048 456.01 441.598 456.4 441.022 456.712C440.458 457.012 439.804 457.162 439.06 457.162C438.22 457.162 437.452 456.946 436.756 456.514C436.072 456.082 435.526 455.476 435.118 454.696C434.722 453.904 434.524 452.998 434.524 451.978ZM442.372 452.014C442.372 451.402 442.252 450.88 442.012 450.448C441.772 450.004 441.448 449.668 441.04 449.44C440.632 449.2 440.194 449.08 439.726 449.08C439.258 449.08 438.826 449.194 438.43 449.422C438.034 449.65 437.71 449.986 437.458 450.43C437.218 450.862 437.098 451.378 437.098 451.978C437.098 452.578 437.218 453.106 437.458 453.562C437.71 454.006 438.034 454.348 438.43 454.588C438.838 454.828 439.27 454.948 439.726 454.948C440.194 454.948 440.632 454.834 441.04 454.606C441.448 454.366 441.772 454.03 442.012 453.598C442.252 453.154 442.372 452.626 442.372 452.014Z" fill="#001A39"/>
</svg>
