<svg width="825" height="540" viewBox="0 0 825 540" fill="none" xmlns="http://www.w3.org/2000/svg">
<path d="M757.972 389.966L824.573 400.412L794.426 502.861L791.137 416.204L742.639 408.582" fill="#FBC73B"/>
<path d="M604.271 431.025L641.451 472.938L553.509 533.527L605.532 464.143L580.638 435.823" fill="#FBC73B"/>
<path d="M772.685 388.203C772.685 388.203 785.896 399.251 779.299 423.237C773.08 445.857 754.446 449.588 754.446 449.588L651.183 427.647C640.372 424.882 631.594 417.012 627.668 406.566L598.187 328.11L550.809 355.351L609.288 428.018C609.288 428.018 613.049 444.896 594.815 458.696C579.07 470.616 559.516 467.025 559.516 467.025L485.074 383.47C465.933 361.982 468.191 328.959 490.079 310.283C528.161 277.796 551.41 259.073 581.398 244.931C607.442 232.652 644.616 239.137 665.208 259.952C682.427 277.366 687.679 297.491 690.108 370.076" fill="#F96155"/>
<path fill-rule="evenodd" clip-rule="evenodd" d="M587.549 292.915L607.179 357.117L604.924 357.807L585.294 293.604L587.549 292.915Z" fill="white"/>
<path d="M733.365 444.701C731.444 433.73 736.242 421.639 746.175 416.098C751.263 413.257 757.246 412.538 762.634 414.99C768.181 417.519 773.133 421.722 777.495 425.913C778.309 426.697 779.553 425.459 778.733 424.675C773.917 420.042 768.222 415.167 761.885 412.797C756.385 410.739 750.331 411.777 745.285 414.583C734.621 420.513 729.616 433.447 731.668 445.172C731.868 446.28 733.56 445.809 733.365 444.701Z" fill="#FBC73B"/>
<path d="M744.454 381.731C735.776 399.345 721.351 417.525 699.581 416.063C688.917 415.344 680.387 408.759 676.538 398.844C672.246 387.791 674.073 375.706 676.649 364.482C679.644 351.448 683.612 338.609 688.563 326.182C688.982 325.133 687.284 324.679 686.871 325.716C681.92 338.143 677.952 350.982 674.958 364.016C672.275 375.7 670.442 388.28 675.011 399.746C678.66 408.901 686.182 415.639 695.985 417.384C705.429 419.058 715.486 416.535 723.397 411.212C733.69 404.285 740.581 393.562 745.969 382.621C746.47 381.607 744.955 380.717 744.454 381.731Z" fill="#FBC73B"/>
<path d="M628.829 408.535C635.573 402.622 644.486 399.946 653.17 398.419C662.89 396.709 673.148 395.937 682.804 398.431C690.88 400.518 698.608 405.015 703.401 411.977C708.972 420.065 709.714 430.847 710.139 440.356C710.192 441.482 711.943 441.488 711.896 440.356C711.459 430.517 710.634 419.47 704.916 411.087C700.07 403.984 692.318 399.25 684.13 396.963C673.908 394.104 663.026 394.9 652.698 396.715C643.696 398.301 634.571 401.16 627.585 407.285C626.736 408.04 627.98 409.278 628.829 408.535Z" fill="#FBC73B"/>
<path d="M603.522 341.886C611.922 336.145 621.342 332.083 631.334 330.114C638.509 328.699 654.95 326.229 654.401 338.025C654.172 342.965 651.702 348.052 649.397 352.326C647.039 356.695 644.162 360.768 641.073 364.647C634.706 372.623 627.491 379.921 619.774 386.588C618.919 387.331 620.163 388.563 621.012 387.826C633.975 376.608 647.64 362.926 653.948 346.649C656.3 340.589 658.062 332.584 651.106 328.917C644.852 325.622 636.422 327.237 629.867 328.623C620.104 330.686 610.861 334.742 602.632 340.365C601.712 341.008 602.584 342.529 603.522 341.886Z" fill="#FBC73B"/>
<path d="M683.529 300.639C675.111 305.667 667.029 310.271 656.931 310.324C647.098 310.371 637.365 306.634 631.346 298.623C625.652 291.036 623.518 281.386 621.567 272.29C619.215 261.325 617.181 250.089 616.538 238.877C616.473 237.757 614.717 237.745 614.782 238.877C615.318 248.191 616.874 257.517 618.637 266.672C620.211 274.842 621.826 283.225 625.057 290.936C627.874 297.662 632.195 303.687 638.574 307.43C645.011 311.203 652.745 312.57 660.132 311.94C669.263 311.161 676.726 306.764 684.419 302.166C685.386 301.576 684.502 300.061 683.529 300.639Z" fill="#FBC73B"/>
<path d="M650.481 249.035C644.712 266.667 631.205 275.438 619.312 278.321C606.284 281.475 591.654 280.137 580.059 269.543C579.433 268.972 578.867 270.487 579.493 271.058C588.754 279.524 599.772 281.976 610.36 281.363C621.137 280.738 631.816 276.859 640.938 267.574C645.342 263.088 649.045 257.276 651.451 249.925C651.779 248.917 650.809 248.033 650.481 249.035Z" fill="#FBC73B"/>
<path d="M516.023 289.356C524.246 294.213 532.169 300.409 534.055 310.336C535.724 319.126 532.44 328.345 527.029 335.243C514.425 351.324 491.387 353.788 472.453 354.779C471.327 354.838 471.321 356.594 472.453 356.535C489.277 355.651 507.652 353.682 521.493 343.136C532.363 334.854 539.667 319.42 534.645 305.944C531.521 297.568 524.329 292.227 516.901 287.841C515.934 287.269 515.05 288.784 516.023 289.356Z" fill="#FBC73B"/>
<path d="M591.879 405.258C578.863 402.876 564.432 403.631 553.503 411.878C542.674 420.048 538.488 433.348 540.829 446.464C541.029 447.572 542.721 447.101 542.52 445.998C540.227 433.153 544.69 420.107 555.584 412.532C565.971 405.311 579.352 404.745 591.419 406.956C592.522 407.15 592.993 405.458 591.879 405.258Z" fill="#FBC73B"/>
<path d="M508.3 410.121C525.578 407.568 545.427 409.832 560.99 418.126C568.335 422.04 574.76 427.576 579.234 434.638C584.558 443.032 586.874 452.836 588.201 462.574C588.354 463.689 590.046 463.211 589.893 462.109C588.507 451.934 585.996 441.671 580.266 433.005C575.662 426.043 569.219 420.525 561.88 416.617C545.875 408.093 525.59 405.811 507.834 408.435C506.72 408.594 507.192 410.286 508.3 410.121Z" fill="#FBC73B"/>
<path d="M582.825 336.94C574.672 325.699 561.939 319.031 548.581 316.078C536.113 313.325 521.541 312.871 509.869 318.784C497.807 324.891 493.38 338.055 497.371 350.693C501.798 364.729 514.402 373.407 526.97 379.679C543.435 387.897 561.886 395.342 580.644 393.438C581.758 393.326 581.77 391.569 580.644 391.681C565.105 393.261 549.943 388.239 535.936 381.972C523.645 376.472 510.116 369.911 502.712 358.098C495.544 346.65 495.343 330.715 507.263 322.374C517.638 315.117 532.122 315.011 544.142 317.009C558.432 319.379 572.621 325.852 581.304 337.831C581.964 338.733 583.485 337.86 582.825 336.94Z" fill="#FBC73B"/>
<path fill-rule="evenodd" clip-rule="evenodd" d="M784.064 438.059L800.175 423.793L801.739 425.558L785.628 439.824L784.064 438.059Z" fill="white"/>
<path fill-rule="evenodd" clip-rule="evenodd" d="M783.634 449.141L799.745 434.875L801.308 436.64L785.197 450.906L783.634 449.141Z" fill="white"/>
<path fill-rule="evenodd" clip-rule="evenodd" d="M782.509 461.002L798.62 446.742L800.183 448.508L784.072 462.768L782.509 461.002Z" fill="white"/>
<path fill-rule="evenodd" clip-rule="evenodd" d="M588.157 476.477L609.633 475.145L609.779 477.499L588.303 478.831L588.157 476.477Z" fill="white"/>
<path fill-rule="evenodd" clip-rule="evenodd" d="M581.001 484.955L602.476 483.623L602.622 485.976L581.147 487.308L581.001 484.955Z" fill="white"/>
<path fill-rule="evenodd" clip-rule="evenodd" d="M572.813 493.608L594.289 492.282L594.434 494.636L572.959 495.962L572.813 493.608Z" fill="white"/>
<path fill-rule="evenodd" clip-rule="evenodd" d="M715.271 207.406L658.083 183.348L658.998 181.175L716.185 205.232L715.271 207.406Z" fill="#001A39"/>
<path fill-rule="evenodd" clip-rule="evenodd" d="M668.642 225.928C668.647 225.923 668.652 225.918 668.657 225.913C668.873 225.679 669.234 225.365 669.758 224.971C670.796 224.191 672.322 223.214 674.2 222.102C677.947 219.884 682.979 217.202 688.036 214.606C693.09 212.011 698.151 209.512 701.951 207.66C703.85 206.734 705.433 205.971 706.541 205.439C707.095 205.173 707.53 204.965 707.827 204.823C707.975 204.752 708.089 204.698 708.165 204.662L708.28 204.607C708.281 204.607 708.281 204.607 707.775 203.542C707.27 202.477 707.27 202.477 707.269 202.477L707.152 202.533C707.075 202.569 706.961 202.624 706.812 202.695C706.514 202.837 706.077 203.046 705.521 203.313C704.409 203.846 702.822 204.612 700.917 205.54C697.11 207.396 692.032 209.904 686.96 212.508C681.891 215.11 676.809 217.818 672.999 220.073C671.099 221.198 669.485 222.227 668.341 223.086C667.774 223.512 667.283 223.925 666.927 224.31C666.749 224.502 666.574 224.719 666.442 224.955C666.316 225.178 666.167 225.525 666.194 225.943C666.225 226.409 666.42 226.821 666.619 227.142C666.827 227.476 667.1 227.806 667.404 228.125C668.01 228.762 668.833 229.451 669.77 230.153C671.65 231.561 674.121 233.114 676.585 234.522C679.051 235.933 681.545 237.219 683.485 238.089C684.448 238.521 685.308 238.866 685.972 239.068C686.296 239.167 686.631 239.25 686.934 239.277C687.082 239.29 687.287 239.296 687.505 239.25C687.715 239.206 688.088 239.079 688.351 238.704L688.351 238.703C689.502 237.054 689.223 235.184 688.487 233.585C687.753 231.991 686.473 230.429 685.167 229.092C683.847 227.741 682.431 226.549 681.353 225.7C680.812 225.274 680.352 224.93 680.026 224.693C679.862 224.574 679.732 224.481 679.642 224.417C679.597 224.386 679.562 224.361 679.538 224.344L679.51 224.325L679.502 224.319L679.498 224.317C679.498 224.317 679.498 224.317 678.831 225.289C678.164 226.261 678.164 226.261 678.164 226.261L678.169 226.265L678.191 226.28C678.211 226.294 678.242 226.315 678.283 226.344C678.364 226.401 678.484 226.487 678.637 226.598C678.943 226.821 679.379 227.147 679.894 227.552C680.926 228.365 682.256 229.487 683.48 230.74C684.718 232.007 685.779 233.34 686.345 234.571C686.771 235.496 686.863 236.226 686.68 236.819C686.674 236.817 686.667 236.815 686.66 236.813C686.137 236.653 685.382 236.355 684.45 235.937C682.597 235.106 680.173 233.858 677.755 232.475C675.335 231.092 672.956 229.593 671.183 228.265C670.293 227.599 669.588 226.999 669.111 226.499C668.889 226.266 668.738 226.075 668.642 225.928ZM668.497 226.111C668.497 226.11 668.498 226.11 668.498 226.109C668.494 226.117 668.493 226.117 668.497 226.111Z" fill="#001A39"/>
<path fill-rule="evenodd" clip-rule="evenodd" d="M676.398 151.092C674.456 150.383 673.148 149.906 672.742 149.727L673.694 147.57C674.023 147.715 675.237 148.158 677.217 148.881C677.562 149.007 677.929 149.141 678.319 149.284C680.914 150.232 684.436 151.526 688.566 153.095C696.826 156.231 707.529 160.471 718.149 165.258C728.759 170.04 739.331 175.388 747.305 180.747C751.29 183.425 754.671 186.136 757.088 188.813C759.485 191.468 761.063 194.233 761.153 197.008C761.241 199.713 760.149 202.453 758.347 205.12C756.539 207.794 753.954 210.491 750.891 213.14C744.765 218.44 736.577 223.679 728.423 228.298C720.258 232.922 712.08 236.95 705.948 239.821C702.88 241.257 700.322 242.404 698.529 243.193C697.633 243.588 696.928 243.893 696.446 244.099C696.388 244.124 696.333 244.148 696.281 244.17C696.262 244.263 696.241 244.366 696.218 244.478C696.099 245.062 695.925 245.896 695.711 246.896C695.283 248.896 694.691 251.565 694.033 254.238C693.378 256.904 692.65 259.602 691.952 261.645C691.605 262.66 691.249 263.561 690.894 264.227C690.718 264.555 690.514 264.882 690.274 265.144C690.068 265.368 689.636 265.764 688.999 265.764C688.317 265.764 687.89 265.322 687.689 265.046C687.474 264.753 687.323 264.399 687.21 264.067C686.98 263.391 686.8 262.488 686.654 261.488C686.527 260.615 686.418 259.622 686.326 258.563C685.939 260.65 685.482 262.643 684.946 264.26C684.569 265.4 684.126 266.438 683.592 267.198C683.087 267.916 682.258 268.713 681.086 268.587C679.91 268.461 679.26 267.484 678.908 266.673C678.529 265.801 678.287 264.667 678.127 263.434C677.804 260.948 677.774 257.727 677.869 254.58C677.884 254.074 677.902 253.569 677.923 253.068C677.422 254.501 676.892 255.871 676.366 257.001C675.981 257.826 675.573 258.577 675.149 259.14C674.938 259.421 674.691 259.697 674.406 259.912C674.124 260.124 673.719 260.341 673.218 260.341C672.4 260.341 671.963 259.734 671.786 259.398C671.593 259.032 671.48 258.591 671.404 258.168C671.249 257.3 671.188 256.125 671.182 254.798C671.171 252.123 671.388 248.587 671.679 245.084C671.971 241.574 672.339 238.067 672.634 235.439C672.781 234.125 672.91 233.029 673.003 232.262C673.049 231.879 673.086 231.577 673.112 231.371C673.124 231.268 673.134 231.189 673.141 231.135L673.151 231.054C673.151 231.054 673.151 231.054 674.321 231.202C675.49 231.35 675.49 231.35 675.49 231.35L675.481 231.429C675.474 231.481 675.464 231.559 675.452 231.661C675.426 231.864 675.39 232.163 675.344 232.544C675.252 233.306 675.124 234.395 674.977 235.702C674.684 238.317 674.318 241.8 674.029 245.279C673.74 248.767 673.529 252.22 673.54 254.788C673.544 255.733 673.578 256.527 673.642 257.143C673.825 256.83 674.021 256.449 674.229 256.004C674.941 254.476 675.686 252.405 676.369 250.29C677.048 248.185 677.654 246.075 678.09 244.489C678.308 243.697 678.483 243.037 678.604 242.576C678.664 242.345 678.711 242.165 678.742 242.042C678.75 242.01 678.757 241.982 678.763 241.958C678.769 241.936 678.774 241.917 678.778 241.902L678.789 241.858L678.789 241.856L679.933 242.143C681.104 242.274 681.104 242.274 681.104 242.275L681.103 242.291L681.097 242.343C681.092 242.389 681.084 242.457 681.075 242.547C681.056 242.727 681.028 242.991 680.994 243.329C680.926 244.004 680.834 244.969 680.735 246.13C680.539 248.453 680.319 251.548 680.226 254.651C680.132 257.767 680.167 260.836 680.465 263.13C680.616 264.287 680.823 265.164 681.071 265.734C681.189 266.006 681.284 266.141 681.342 266.206C681.406 266.157 681.514 266.054 681.663 265.842C681.999 265.364 682.355 264.584 682.708 263.519C683.406 261.41 683.987 258.507 684.449 255.528C684.909 252.563 685.245 249.578 685.465 247.331C685.575 246.209 685.656 245.272 685.71 244.617C685.737 244.29 685.757 244.033 685.77 243.858C685.776 243.771 685.781 243.704 685.785 243.66L685.788 243.61L685.789 243.594C685.789 243.594 685.789 243.594 686.284 243.628L685.789 243.594L688.145 243.676L686.966 243.676C688.145 243.676 688.145 243.676 688.145 243.676L688.145 243.734L688.145 243.907C688.145 244.059 688.146 244.282 688.148 244.566C688.152 245.135 688.16 245.948 688.175 246.924C688.207 248.877 688.269 251.477 688.395 254.073C688.521 256.678 688.71 259.246 688.988 261.148C689.051 261.584 689.118 261.973 689.187 262.311C689.355 261.909 689.533 261.43 689.721 260.882C690.385 258.94 691.092 256.324 691.744 253.675C692.393 251.033 692.981 248.389 693.406 246.403C693.618 245.41 693.79 244.583 693.908 244.005C693.967 243.715 694.013 243.488 694.044 243.334L694.08 243.158L694.091 243.1L694.091 243.099C694.091 243.099 694.091 243.099 695.248 243.328C694.792 242.24 694.792 242.24 694.793 242.24L694.803 242.236L694.837 242.221C694.862 242.211 694.897 242.196 694.943 242.177L694.975 242.163C695.097 242.111 695.279 242.034 695.517 241.932C695.992 241.728 696.69 241.426 697.579 241.035C699.358 240.252 701.899 239.112 704.948 237.685C711.047 234.83 719.167 230.831 727.26 226.246C735.364 221.656 743.396 216.506 749.349 211.357C752.326 208.782 754.744 206.239 756.393 203.799C758.047 201.352 758.862 199.103 758.797 197.084C758.733 195.135 757.594 192.891 755.338 190.393C753.103 187.917 749.897 185.33 745.99 182.704C738.18 177.456 727.75 172.172 717.18 167.407C706.62 162.648 695.965 158.427 687.729 155.299C683.612 153.735 680.101 152.446 677.51 151.498C677.12 151.356 676.749 151.22 676.398 151.092ZM695.248 243.328L694.793 242.24L694.091 243.099L695.248 243.328ZM688.517 263.569C688.517 263.568 688.522 263.563 688.532 263.554C688.522 263.565 688.517 263.569 688.517 263.569ZM681.27 266.247C681.27 266.247 681.274 266.245 681.282 266.243C681.274 266.247 681.27 266.247 681.27 266.247ZM679.933 242.143L681.104 242.275L678.789 241.856L679.933 242.143Z" fill="#001A39"/>
<path d="M676.632 142.659C681.684 174.362 660.079 204.15 628.376 209.202C596.672 214.254 566.885 192.649 561.833 160.945" fill="#FBC73B"/>
<path d="M578.132 101.995C577.784 118 590.476 131.258 606.481 131.6C620.629 131.907 632.632 122.021 635.461 108.668C635.833 106.918 636.045 105.108 636.086 103.251C636.434 87.246 623.742 73.9882 607.737 73.6463C599.407 73.4635 591.832 76.8119 586.421 82.3237C581.433 87.3993 578.297 94.3201 578.132 101.995Z" fill="#194D87"/>
<path d="M586.421 82.3178C593.866 97.8335 609.565 108.698 627.951 109.099C630.504 109.152 633.015 109.004 635.467 108.668C635.839 106.918 636.051 105.108 636.092 103.251C636.44 87.246 623.748 73.9882 607.743 73.6463C599.408 73.4635 591.827 76.806 586.421 82.3178Z" fill="#001A39"/>
<path d="M633.929 84.145C640.03 84.145 644.976 79.199 644.976 73.0978C644.976 66.9965 640.03 62.0505 633.929 62.0505C627.827 62.0505 622.881 66.9965 622.881 73.0978C622.881 79.199 627.827 84.145 633.929 84.145Z" fill="#001A39"/>
<path d="M629.631 62.8879C646.997 62.8879 661.075 48.8099 661.075 31.4439C661.075 14.0779 646.997 0 629.631 0C612.265 0 598.187 14.0779 598.187 31.4439C598.187 48.8099 612.265 62.8879 629.631 62.8879Z" fill="#001A39"/>
<path d="M586.399 101.65C586.474 98.1634 585.243 95.3094 583.648 95.275C582.053 95.2405 580.699 98.0387 580.623 101.525C580.548 105.011 581.78 107.865 583.375 107.9C584.97 107.934 586.324 105.136 586.399 101.65Z" fill="#001A39"/>
<path d="M595.98 102.294C596.056 98.8082 594.824 95.9542 593.229 95.9197C591.634 95.8853 590.28 98.6834 590.204 102.17C590.129 105.656 591.361 108.51 592.956 108.544C594.551 108.579 595.905 105.781 595.98 102.294Z" fill="#001A39"/>
<path d="M583.261 114.392C583.261 114.392 588.054 113.343 587.877 108.927L583.261 114.392Z" fill="white"/>
<path fill-rule="evenodd" clip-rule="evenodd" d="M583.515 115.543C583.514 115.544 583.513 115.544 583.261 114.392C583.009 113.24 583.009 113.24 583.008 113.24L583.007 113.241L583.006 113.241C583.01 113.24 583.018 113.238 583.029 113.235C583.052 113.23 583.091 113.219 583.143 113.205C583.248 113.175 583.404 113.126 583.594 113.055C583.977 112.911 584.478 112.683 584.964 112.346C585.919 111.685 586.767 110.661 586.699 108.974L589.055 108.88C589.164 111.609 587.704 113.317 586.307 114.285C585.617 114.762 584.931 115.072 584.421 115.263C584.165 115.359 583.948 115.427 583.791 115.472C583.712 115.494 583.648 115.511 583.601 115.523C583.578 115.529 583.558 115.533 583.544 115.537L583.525 115.541L583.518 115.543L583.516 115.543L583.515 115.543ZM583.006 113.241L583.006 113.241L583.005 113.241C583.004 113.241 583.005 113.241 583.006 113.241Z" fill="#001A39"/>
<path fill-rule="evenodd" clip-rule="evenodd" d="M523.888 150.543C524.241 150.284 524.937 149.882 525.726 150.189L525.727 150.19C526.405 150.454 526.708 151.049 526.841 151.493C526.978 151.948 527.012 152.469 527.001 152.984C526.98 154.027 526.764 155.374 526.438 156.87C525.915 159.267 525.072 162.207 524.121 165.219C525.289 163.094 526.446 161.105 527.482 159.519C528.247 158.346 528.98 157.34 529.629 156.659C529.947 156.326 530.305 156.005 530.69 155.797C531.058 155.599 531.725 155.368 532.398 155.753C533.025 156.112 533.21 156.779 533.28 157.141C533.365 157.577 533.378 158.087 533.355 158.614C533.309 159.682 533.104 161.074 532.804 162.643C532.2 165.794 531.171 169.839 530.076 173.813C528.979 177.793 527.808 181.727 526.911 184.665C526.763 185.149 526.623 185.606 526.492 186.032C527.694 185.129 529.147 184.048 530.613 182.978C532.394 181.678 534.208 180.385 535.62 179.449C536.321 178.984 536.948 178.59 537.431 178.327C537.666 178.199 537.911 178.077 538.135 177.998C538.241 177.961 538.404 177.91 538.592 177.894C538.726 177.882 539.204 177.856 539.603 178.238C540.418 179.021 540.741 180.066 540.789 181.126C540.836 182.175 540.622 183.329 540.27 184.493C539.566 186.824 538.227 189.466 536.797 191.911C535.357 194.369 533.788 196.691 532.582 198.394C531.978 199.247 531.463 199.947 531.098 200.435C531.078 200.463 531.058 200.49 531.038 200.516L554.164 234.219L564.433 172.023L566.76 172.407L556.013 237.494L553.878 237.969L528.612 201.149L528.653 199.758L528.661 199.748L528.688 199.713C528.713 199.681 528.749 199.634 528.797 199.571C528.892 199.446 529.032 199.262 529.209 199.024C529.564 198.55 530.067 197.865 530.658 197.031C531.841 195.361 533.369 193.099 534.762 190.719C536.162 188.326 537.39 185.874 538.013 183.812C538.325 182.779 538.464 181.911 538.433 181.232C538.421 180.953 538.381 180.723 538.32 180.532C537.953 180.745 537.481 181.044 536.923 181.414C535.557 182.32 533.778 183.588 532.003 184.883C530.231 186.176 528.476 187.488 527.163 188.477C526.507 188.971 525.961 189.385 525.58 189.674C525.39 189.819 525.24 189.933 525.139 190.011L524.986 190.127L524.984 190.129C524.984 190.129 524.983 190.129 524.267 189.193C523.144 188.833 523.144 188.833 523.144 188.833L523.172 188.746C523.183 188.712 523.197 188.668 523.214 188.615C523.226 188.577 523.239 188.535 523.254 188.487C523.326 188.261 523.431 187.928 523.565 187.503C523.831 186.654 524.209 185.439 524.656 183.977C525.549 181.051 526.713 177.139 527.803 173.186C528.894 169.228 529.902 165.255 530.488 162.199C530.765 160.755 530.939 159.556 530.991 158.675C530.556 159.195 530.039 159.915 529.456 160.807C527.976 163.075 526.207 166.251 524.496 169.502C522.789 172.746 521.154 176.036 519.946 178.517C519.342 179.757 518.845 180.794 518.499 181.52C518.327 181.883 518.191 182.168 518.1 182.363C518.054 182.46 518.019 182.535 517.995 182.585L517.961 182.659L517.96 182.66C517.96 182.66 517.96 182.66 516.892 182.16C515.793 181.734 515.793 181.734 515.793 181.734L515.825 181.651C515.846 181.595 515.878 181.513 515.92 181.405C516.002 181.188 516.124 180.871 516.277 180.465C516.584 179.655 517.02 178.495 517.533 177.099C518.559 174.306 519.894 170.573 521.131 166.807C522.372 163.032 523.504 159.257 524.134 156.368C524.428 155.02 524.6 153.919 524.637 153.12C524.614 153.149 524.59 153.179 524.566 153.21C523.921 154.033 523.121 155.316 522.212 156.954C520.404 160.214 518.265 164.697 516.21 169.246C514.158 173.789 512.201 178.372 510.756 181.821C510.034 183.545 509.44 184.984 509.027 185.993C508.821 186.497 508.66 186.893 508.55 187.163C508.495 187.298 508.453 187.402 508.425 187.471L508.383 187.576C508.383 187.576 508.383 187.576 507.289 187.135C506.135 186.895 506.135 186.895 506.135 186.894L506.15 186.825C506.159 186.779 506.174 186.709 506.192 186.619C506.229 186.438 506.284 186.171 506.352 185.832C506.489 185.154 506.682 184.183 506.907 183.016C507.358 180.68 507.934 177.562 508.441 174.426C508.949 171.283 509.382 168.151 509.551 165.776C509.604 165.038 509.629 164.394 509.626 163.856C509.212 164.524 508.731 165.412 508.204 166.486C506.842 169.259 505.246 173.127 503.794 177.275C502.342 181.424 501.046 185.819 500.273 189.646C499.886 191.56 499.635 193.309 499.556 194.803C499.476 196.316 499.578 197.476 499.833 198.26C500.66 200.796 506.002 212.561 513.572 226.797C521.127 241.005 530.828 257.536 540.323 269.609L538.469 271.067C528.843 258.828 519.065 242.15 511.49 227.904C503.93 213.686 498.49 201.75 497.591 198.99C497.204 197.802 497.115 196.304 497.201 194.678C497.288 193.032 497.561 191.161 497.961 189.179C498.763 185.213 500.094 180.709 501.568 176.496C503.043 172.283 504.674 168.325 506.087 165.447C506.79 164.015 507.457 162.813 508.041 161.974C508.327 161.562 508.632 161.182 508.947 160.906C509.105 160.768 509.31 160.615 509.559 160.511C509.813 160.405 510.185 160.322 510.595 160.448L510.598 160.449C511.268 160.657 511.561 161.233 511.684 161.554C511.824 161.919 511.896 162.344 511.936 162.76C512.017 163.605 511.991 164.711 511.903 165.944C511.726 168.427 511.28 171.642 510.769 174.802C510.685 175.32 510.6 175.837 510.513 176.351C511.598 173.82 512.812 171.042 514.061 168.275C516.122 163.712 518.293 159.158 520.15 155.81C521.075 154.144 521.947 152.729 522.71 151.756C523.085 151.276 523.482 150.842 523.888 150.543ZM509.478 162.388C509.473 162.378 509.47 162.372 509.471 162.371C509.471 162.371 509.473 162.376 509.478 162.388ZM507.289 187.135L506.135 186.894L508.383 187.576L507.289 187.135ZM525.365 152.392C525.365 152.392 525.357 152.397 525.343 152.403C525.358 152.394 525.365 152.391 525.365 152.392ZM516.892 182.16L515.793 181.734L517.96 182.66L516.892 182.16ZM530.94 157.494C530.94 157.493 530.944 157.501 530.949 157.52C530.942 157.504 530.939 157.495 530.94 157.494ZM524.267 189.193L523.144 188.833L524.983 190.129L524.267 189.193ZM538.927 180.219C538.927 180.219 538.924 180.22 538.92 180.221C538.925 180.22 538.927 180.219 538.927 180.219ZM597.475 215.368C596.118 222.498 593.994 232.136 591.128 242.074L588.863 241.421C591.704 231.568 593.812 222.004 595.159 214.927C595.832 211.389 596.313 208.48 596.6 206.473C596.744 205.467 596.836 204.702 596.881 204.203C596.904 203.946 596.911 203.792 596.91 203.72C596.91 203.667 596.905 203.723 596.927 203.821L596.927 203.823C596.934 203.856 596.977 204.058 597.139 204.263C597.236 204.387 597.422 204.569 597.72 204.658C598.036 204.753 598.325 204.697 598.529 204.606L597.568 202.453C597.778 202.359 598.074 202.303 598.396 202.399C598.699 202.49 598.891 202.676 598.993 202.806C599.167 203.027 599.217 203.254 599.229 203.31L599.229 203.313C599.264 203.471 599.267 203.623 599.268 203.701C599.269 203.892 599.254 204.138 599.23 204.411C599.18 204.972 599.08 205.785 598.934 206.807C598.641 208.857 598.153 211.803 597.475 215.368Z" fill="#001A39"/>
<path fill-rule="evenodd" clip-rule="evenodd" d="M585.469 258.04C581.851 266.826 576.708 277.443 570.678 284.376C568.102 287.339 565.062 288.589 561.869 288.556C558.735 288.524 555.563 287.261 552.623 285.429C546.745 281.768 541.398 275.593 538.437 270.975L540.422 269.702C543.257 274.124 548.374 280.004 553.869 283.427C556.614 285.137 559.357 286.173 561.893 286.198C564.371 286.224 566.759 285.29 568.899 282.829C574.66 276.204 579.685 265.894 583.289 257.142C585.083 252.784 586.512 248.846 587.492 245.998C587.982 244.574 588.359 243.423 588.613 242.63C588.741 242.234 588.837 241.926 588.902 241.719C588.934 241.615 588.958 241.537 588.974 241.484L588.992 241.426L588.997 241.411L588.998 241.408L588.998 241.407C588.998 241.407 588.998 241.407 590.126 241.748C591.255 242.089 591.255 242.089 591.255 242.09L591.248 242.112L591.229 242.175C591.212 242.231 591.187 242.312 591.153 242.419C591.087 242.633 590.988 242.947 590.859 243.351C590.6 244.158 590.217 245.324 589.721 246.765C588.73 249.646 587.285 253.629 585.469 258.04Z" fill="#001A39"/>
<path d="M65.4085 387.449L9.44727 390.249L27.6333 497.951L40.8499 410.233L78.5072 408.182" fill="#001A39"/>
<path d="M193.124 428.508L150.102 465.24L228.011 540L186.934 461.832L215.779 436.973" fill="#001A39"/>
<path d="M209.158 230.678C182.23 217.679 149.271 221.31 132.223 243.205C116.442 263.477 109.379 283.096 144.614 371.12L68.8042 375.329C68.8042 375.329 53.7189 382.344 50.5356 411.931C47.3523 441.518 66.4992 453.108 66.4992 453.108L182.477 446.883C211.157 445.344 231.2 417.213 223.872 388.793L203.534 309.901L252.887 341.191L190.053 421.098C190.053 421.098 186.162 438.966 205.02 453.568C221.308 466.183 241.522 462.381 241.522 462.381L318.51 373.938C338.329 351.171 335.936 316.208 313.276 296.419C273.932 262.074 240.16 245.639 209.158 230.678Z" fill="#194D87"/>
<path d="M154.087 227.465C169.732 236.042 185.354 245.126 202.344 250.821C218.071 256.097 237.042 259.351 253.17 253.774C253.742 253.58 253.506 252.784 252.923 252.884C244.151 254.317 235.745 255.508 226.82 254.729C218.254 253.987 209.83 251.959 201.701 249.194C185.077 243.529 170.304 234.191 154.464 226.822C154.034 226.622 153.663 227.229 154.087 227.465Z" fill="white"/>
<path d="M121.735 301.447C148.492 308.809 170.375 326.984 196.442 336.15C209.842 340.866 224.196 343.572 238.421 342.016C251.643 340.572 263.946 335.425 275.477 329.006C282.403 325.15 289.13 320.929 295.885 316.785C303.619 312.046 311.477 307.43 319.017 302.39C319.506 302.06 319.076 301.299 318.551 301.588C305.518 308.815 293.044 317.062 280.216 324.649C268.591 331.529 256.342 337.636 242.925 340.012C214.057 345.123 186.344 332 161.856 318.247C149.088 311.073 136.272 304.188 121.93 300.727C121.464 300.615 121.269 301.323 121.735 301.447Z" fill="white"/>
<path d="M54.9982 393.686C69.8831 387.614 85.9823 384.478 102.058 384.62C119.036 384.767 135.141 389.13 150.491 396.209C164.757 402.788 178.133 411.147 192.499 417.526C206.871 423.91 222.351 428.567 238.197 428.526C255.829 428.479 272.583 421.788 287.314 412.474C287.815 412.155 287.373 411.395 286.849 411.672C272.129 419.536 257.356 426.557 240.337 427.076C223.507 427.594 206.977 422.595 191.78 415.716C177.308 409.167 163.79 400.713 149.283 394.235C135.253 387.968 120.539 383.948 105.135 383.435C87.9159 382.863 70.4844 386.046 54.7034 393.003C54.3262 393.173 54.6032 393.846 54.9982 393.686Z" fill="white"/>
<path d="M126.9 319.038C132.736 308.097 137.322 296.159 139.273 283.88C141.466 270.062 140.222 254.358 132.889 242.12C132.63 241.69 131.845 241.973 132.04 242.48C134.864 249.677 137.505 256.639 138.413 264.385C139.214 271.218 138.919 278.144 137.758 284.918C135.724 296.784 130.944 307.672 126.245 318.667C126.074 319.091 126.67 319.474 126.9 319.038Z" fill="white"/>
<path d="M106.031 450.915C101.94 438.506 98.8624 425.95 97.8072 412.886C97.2943 406.537 97.2 400.153 97.5714 393.792C97.9605 387.166 99.2692 380.753 100.153 374.197C100.23 373.62 99.4578 373.372 99.2633 373.95C97.2295 379.898 96.6282 386.559 96.2273 392.802C95.7852 399.658 95.909 406.549 96.5162 413.393C97.648 426.233 100.242 439.325 105.353 451.204C105.512 451.587 106.16 451.316 106.031 450.915Z" fill="white"/>
<path d="M187.977 446.841C183.208 432.169 180.538 416.883 181.546 401.426C182.542 386.14 187.069 371.48 193.324 357.573C199.119 344.675 206.228 332.413 211.999 319.503C217.629 306.906 222.039 293.648 223.63 279.895C225.469 264.014 222.858 247.903 215.861 233.501C215.637 233.035 214.823 233.366 215.012 233.861C220.506 247.95 223.795 262.009 222.481 277.236C221.178 292.333 216.25 306.953 209.983 320.671C204.242 333.227 197.368 345.229 191.78 357.856C186.097 370.701 181.876 384.16 180.555 398.196C178.993 414.814 181.628 431.408 187.258 447.059C187.417 447.484 188.125 447.301 187.977 446.841Z" fill="white"/>
<path d="M268.692 431.491C264.453 411.454 263.964 390.632 269.529 370.796C274.693 352.386 284.313 335.85 292.649 318.784C297.347 309.163 301.928 298.995 304.185 288.478C304.309 287.894 303.484 287.67 303.295 288.23C299.917 298.099 296.422 307.749 291.877 317.157C287.709 325.793 283.158 334.235 279.014 342.883C270.608 360.426 264.659 378.701 264.188 398.296C263.917 409.532 265.155 420.803 267.978 431.685C268.096 432.157 268.792 431.956 268.692 431.491Z" fill="white"/>
<path fill-rule="evenodd" clip-rule="evenodd" d="M221.656 372.059C224.327 383.225 226.305 392.059 226.765 395.563C228.225 406.7 225.968 420.301 216.658 431.225C207.326 442.176 191.104 450.212 165.096 450.584L165.054 447.637C190.468 447.273 205.779 439.448 214.415 429.314C223.073 419.154 225.219 406.444 223.843 395.947C223.408 392.633 221.477 383.978 218.789 372.744C216.112 361.554 212.71 347.906 209.362 334.68C206.015 321.454 202.723 308.654 200.268 299.16C199.041 294.413 198.022 290.493 197.311 287.76C196.955 286.393 196.677 285.323 196.487 284.595L196.196 283.481C196.196 283.481 196.196 283.48 197.621 283.107C199.047 282.735 199.047 282.735 199.047 282.736L199.339 283.851C199.529 284.579 199.808 285.65 200.164 287.017C200.875 289.752 201.894 293.674 203.122 298.422C205.577 307.919 208.87 320.724 212.219 333.956C215.568 347.187 218.975 360.849 221.656 372.059Z" fill="white"/>
<path fill-rule="evenodd" clip-rule="evenodd" d="M43.9306 431.931L29.5645 415.537L31.3379 413.983L45.704 430.377L43.9306 431.931Z" fill="white"/>
<path fill-rule="evenodd" clip-rule="evenodd" d="M43.0878 443.257L28.7158 426.863L30.4889 425.308L44.861 441.702L43.0878 443.257Z" fill="white"/>
<path fill-rule="evenodd" clip-rule="evenodd" d="M42.8459 455.447L28.4797 439.053L30.2532 437.499L44.6193 453.893L42.8459 455.447Z" fill="white"/>
<path fill-rule="evenodd" clip-rule="evenodd" d="M201.772 476.348L180.733 471.72L181.239 469.417L202.278 474.045L201.772 476.348Z" fill="white"/>
<path fill-rule="evenodd" clip-rule="evenodd" d="M207.585 486.022L186.545 481.388L187.053 479.085L208.092 483.719L207.585 486.022Z" fill="white"/>
<path fill-rule="evenodd" clip-rule="evenodd" d="M214.387 496.031L193.348 491.404L193.855 489.101L214.894 493.728L214.387 496.031Z" fill="white"/>
<path fill-rule="evenodd" clip-rule="evenodd" d="M369.867 153.495C369.867 153.495 369.867 153.494 370.286 154.597C370.705 155.699 370.705 155.699 370.704 155.699L370.703 155.699L370.567 155.751C370.476 155.785 370.341 155.836 370.164 155.903C369.81 156.036 369.288 156.232 368.615 156.482C367.27 156.983 365.321 157.702 362.905 158.577C358.072 160.327 351.369 162.701 343.883 165.199C328.937 170.186 310.784 175.696 298.197 177.679C281.865 180.254 258.226 180.086 238.742 179.285C228.985 178.883 220.244 178.322 213.941 177.862C210.79 177.631 208.248 177.426 206.493 177.278C205.615 177.204 204.934 177.145 204.473 177.104C204.242 177.083 204.066 177.067 203.947 177.056L203.767 177.04C203.767 177.04 203.767 177.04 203.876 175.866C203.986 174.692 203.986 174.692 203.986 174.692L203.988 174.692L204.161 174.708C204.278 174.719 204.453 174.734 204.682 174.755C205.14 174.796 205.817 174.855 206.691 174.928C208.438 175.076 210.971 175.28 214.113 175.51C220.397 175.969 229.113 176.529 238.839 176.929C258.321 177.729 281.751 177.885 297.83 175.35C310.202 173.401 328.185 167.951 343.136 162.962C350.599 160.472 357.283 158.105 362.102 156.36C364.511 155.487 366.454 154.77 367.793 154.272C368.463 154.023 368.982 153.828 369.333 153.696C369.509 153.63 369.643 153.579 369.732 153.545L369.867 153.495Z" fill="#001A39"/>
<path fill-rule="evenodd" clip-rule="evenodd" d="M359.667 121.721L284.09 138.191C283.92 138.228 283.746 138.24 283.572 138.226L197.681 131.318L197.87 128.968L283.674 135.869L359.165 119.417L359.667 121.721Z" fill="#001A39"/>
<path d="M191.591 189.878L121.818 200.725C103.791 203.525 86.9021 191.181 84.1019 173.154C81.3018 155.127 93.6459 138.238 111.673 135.438L181.446 124.591C199.473 121.791 216.362 134.135 219.162 152.162C221.962 170.189 209.624 187.078 191.591 189.878Z" fill="#F96155"/>
<path fill-rule="evenodd" clip-rule="evenodd" d="M384.547 191.372L350.969 76.9791L353.232 76.3149L386.81 190.707L384.547 191.372Z" fill="#001A39"/>
<path fill-rule="evenodd" clip-rule="evenodd" d="M378.145 190.835L377.249 70.4709L379.606 70.4534L380.502 190.818L378.145 190.835Z" fill="#001A39"/>
<path fill-rule="evenodd" clip-rule="evenodd" d="M365.99 190.32L400.176 75.303L402.436 75.9748L368.251 190.992L365.99 190.32Z" fill="#001A39"/>
<path d="M393.401 111.41C393.401 111.41 362.275 123.771 361.945 127.037C361.615 130.303 390.306 123.029 390.306 123.029C390.306 123.029 355.266 131.901 355.573 136.463C355.879 141.026 390.212 132.726 390.212 132.726C390.212 132.726 359.752 140.042 360.566 144.522C361.379 149.002 391.62 143.172 391.62 143.172C391.62 143.172 398.388 140.843 398.388 128.812C398.388 116.78 393.401 111.41 393.401 111.41Z" fill="white"/>
<path fill-rule="evenodd" clip-rule="evenodd" d="M394.265 110.608L393.401 111.41L392.966 110.314L393.716 110.017L394.265 110.608ZM391.292 142.035C391.322 142.022 391.361 142.005 391.409 141.982C391.552 141.915 391.771 141.801 392.042 141.628C392.583 141.281 393.331 140.696 394.089 139.762C395.59 137.911 397.209 134.592 397.209 128.812C397.209 122.965 395.998 118.775 394.815 116.072C394.222 114.719 393.634 113.734 393.203 113.098C393.138 113.002 393.077 112.913 393.02 112.833C392.867 112.894 392.695 112.964 392.505 113.041C391.656 113.384 390.441 113.879 388.983 114.482C386.066 115.69 382.176 117.332 378.278 119.076C374.375 120.821 370.487 122.658 367.564 124.253C366.098 125.053 364.91 125.774 364.091 126.378C363.943 126.487 363.811 126.589 363.696 126.684C364.297 126.722 365.119 126.7 366.138 126.614C368.713 126.398 372.215 125.805 375.773 125.102C379.32 124.4 382.881 123.596 385.558 122.967C386.896 122.653 388.012 122.382 388.793 122.19C389.183 122.095 389.489 122.018 389.698 121.966C389.802 121.94 389.882 121.92 389.936 121.907L389.99 121.893L389.996 121.891L390.016 121.886C390.016 121.886 390.017 121.886 390.306 123.029C390.596 124.172 390.596 124.172 390.595 124.172L390.59 124.174L390.574 124.178L390.571 124.178L390.497 124.197C390.432 124.214 390.334 124.239 390.207 124.272C389.952 124.337 389.577 124.434 389.1 124.56C388.147 124.81 386.784 125.173 385.149 125.624C381.877 126.524 377.524 127.771 373.183 129.159C368.834 130.549 364.536 132.069 361.358 133.513C359.762 134.239 358.505 134.92 357.673 135.528C357.256 135.834 356.995 136.085 356.851 136.274C356.847 136.28 356.843 136.285 356.839 136.29C356.957 136.343 357.137 136.404 357.399 136.461C358.216 136.638 359.46 136.694 361.065 136.627C364.247 136.494 368.505 135.895 372.804 135.145C377.092 134.396 381.376 133.505 384.59 132.8C386.196 132.448 387.534 132.143 388.469 131.926C388.937 131.817 389.304 131.731 389.554 131.671C389.679 131.642 389.774 131.619 389.839 131.604L389.911 131.586L389.913 131.586L389.929 131.582L389.93 131.582L389.933 131.581L389.934 131.581L389.936 131.58C389.936 131.58 389.936 131.58 390.212 132.727C390.489 133.872 390.489 133.873 390.488 133.873L390.487 133.873L390.482 133.874L390.402 133.893C390.346 133.907 390.261 133.928 390.151 133.955C389.93 134.009 389.605 134.089 389.192 134.193C388.365 134.401 387.183 134.703 385.768 135.079C382.936 135.832 379.173 136.881 375.441 138.068C371.698 139.258 368.03 140.573 365.365 141.852C364.024 142.496 363.004 143.099 362.361 143.635C362.039 143.903 361.862 144.113 361.778 144.255C361.768 144.272 361.759 144.287 361.753 144.299C361.828 144.363 362.019 144.486 362.47 144.621C363.227 144.846 364.353 144.982 365.795 145.023C368.656 145.104 372.444 144.804 376.261 144.357C380.066 143.911 383.851 143.325 386.688 142.851C388.106 142.613 389.285 142.404 390.109 142.254C390.521 142.179 390.844 142.119 391.063 142.078C391.127 142.066 391.182 142.056 391.228 142.047C391.252 142.043 391.273 142.039 391.292 142.035ZM367.479 138.368C366.349 138.817 365.291 139.272 364.344 139.726C362.944 140.398 361.718 141.101 360.851 141.823C360.418 142.184 360.024 142.591 359.752 143.049C359.473 143.516 359.29 144.096 359.406 144.733C359.639 146.017 360.847 146.598 361.797 146.881C362.85 147.194 364.22 147.337 365.728 147.38C368.765 147.466 372.691 147.149 376.535 146.699C380.393 146.247 384.219 145.655 387.077 145.176C388.507 144.937 389.697 144.726 390.531 144.574C390.947 144.498 391.275 144.438 391.498 144.396C391.61 144.375 391.696 144.358 391.754 144.347L391.843 144.33C391.844 144.33 391.844 144.33 391.621 143.172L391.843 144.33L391.926 144.314L392.004 144.287L391.621 143.172C392.004 144.287 392.005 144.287 392.006 144.287L392.008 144.286L392.012 144.284L392.023 144.281C392.031 144.278 392.041 144.274 392.052 144.27C392.074 144.262 392.103 144.251 392.138 144.237C392.207 144.209 392.3 144.169 392.414 144.116C392.641 144.008 392.95 143.846 393.314 143.614C394.042 143.147 394.986 142.399 395.92 141.247C397.803 138.926 399.567 135.064 399.567 128.812C399.567 122.628 398.284 118.117 396.974 115.126C396.32 113.633 395.661 112.523 395.157 111.777C394.905 111.404 394.691 111.122 394.536 110.928C394.458 110.831 394.395 110.756 394.349 110.703C394.326 110.676 394.307 110.655 394.293 110.639L394.275 110.619L394.269 110.613L394.266 110.609C394.265 110.608 394.265 110.608 393.401 111.41C392.966 110.314 392.966 110.314 392.966 110.314L392.875 110.351C392.815 110.374 392.727 110.409 392.613 110.455C392.384 110.547 392.048 110.682 391.621 110.855C390.767 111.2 389.546 111.697 388.081 112.303C385.152 113.516 381.24 115.168 377.315 116.923C373.396 118.676 369.441 120.542 366.434 122.183C364.936 123.001 363.639 123.782 362.692 124.48C362.221 124.827 361.801 125.179 361.482 125.53C361.196 125.843 360.833 126.321 360.772 126.919C360.698 127.654 361.089 128.206 361.562 128.516C361.967 128.782 362.459 128.904 362.893 128.969C363.789 129.104 364.997 129.077 366.336 128.964C366.364 128.962 366.392 128.959 366.419 128.957C364.21 129.754 362.141 130.567 360.383 131.367C358.737 132.115 357.307 132.875 356.281 133.625C355.77 133.999 355.309 134.406 354.973 134.848C354.642 135.284 354.351 135.864 354.396 136.543C354.445 137.262 354.845 137.793 355.331 138.136C355.784 138.457 356.344 138.645 356.899 138.766C358.019 139.008 359.507 139.052 361.164 138.983C363.012 138.905 365.179 138.681 367.479 138.368ZM390.212 132.727L390.488 133.873L389.936 131.58L390.212 132.727ZM390.306 123.029L390.595 124.172L390.017 121.886L390.306 123.029Z" fill="#001A39"/>
<path fill-rule="evenodd" clip-rule="evenodd" d="M89.7351 146.478C64.89 155.15 32.2173 175.141 18.9707 184.07L18.9357 184.094L18.899 184.115C8.06241 190.34 4.13481 197.116 3.40101 202.893C2.6598 208.728 5.13647 213.84 7.66864 216.762C7.74557 216.85 7.81303 216.945 7.87227 217.05C13.5392 227.089 24.3555 239.386 35.6934 250.763C47.0098 262.119 58.7599 272.472 66.2135 278.612C66.8299 279.119 66.9591 279.917 66.7545 280.541C61.8515 295.471 59.139 305.023 57.9422 310.721C57.3629 313.478 57.1612 315.235 57.1997 316.236C57.2228 316.215 57.2466 316.192 57.2712 316.169C57.6063 315.847 58.0022 315.396 58.4516 314.822C59.3489 313.675 60.3927 312.12 61.505 310.326C63.7264 306.742 66.1624 302.3 68.1605 298.479C68.6657 297.513 69.702 297.399 70.3854 297.665C71.0607 297.928 71.7317 298.686 71.5153 299.715C69.0593 311.403 68.0684 318.446 68.0247 322.162C68.0138 323.085 68.0625 323.757 68.1465 324.221C68.1534 324.26 68.1605 324.296 68.1675 324.33C68.2053 324.293 68.2451 324.252 68.2869 324.207C68.8939 323.558 69.6727 322.389 70.5648 320.77C71.4451 319.172 72.3977 317.207 73.3634 315.022C75.2947 310.655 77.2566 305.462 78.7776 300.683C79.1536 299.501 80.3428 299.382 80.958 299.514C81.577 299.647 82.5648 300.219 82.5109 301.398C82.0017 312.526 82.2165 318.842 82.8515 321.763C82.9626 322.275 83.077 322.633 83.1789 322.873C83.3697 322.654 83.6028 322.322 83.872 321.855C85.1714 319.602 86.7478 315.231 88.3548 309.879C89.95 304.567 91.5423 298.404 92.893 292.651C93.2517 291.123 95.2608 290.79 96.1034 292.098C98.549 295.895 101.756 300.719 104.189 303.398C104.795 304.064 105.314 304.554 105.729 304.857C105.8 304.909 105.863 304.951 105.918 304.986C105.975 304.579 105.978 303.912 105.86 302.897C104.707 292.981 99.6129 276.591 97.1519 270.333C95.2304 267.795 90.9712 261.896 88.6106 257.647C88.0713 256.677 86.4063 254.267 83.9828 250.907C81.5814 247.578 78.4864 243.386 75.1371 238.897C68.4392 229.92 60.7346 219.768 55.5506 212.985C54.8331 212.046 55.2361 210.749 56.2506 210.302L112.451 185.551L113.402 187.709L57.8866 212.158C63.0626 218.935 70.5184 228.764 77.027 237.487C80.3793 241.98 83.4829 246.184 85.8951 249.528C88.2853 252.841 90.0491 255.381 90.6719 256.502C92.967 260.633 97.1943 266.487 99.081 268.974C99.1761 269.1 99.2536 269.235 99.314 269.388C101.801 275.682 107.012 292.382 108.203 302.625C108.347 303.865 108.36 304.885 108.192 305.655C108.026 306.411 107.569 307.324 106.499 307.483C105.656 307.608 104.877 307.153 104.341 306.763C103.737 306.323 103.094 305.699 102.444 304.984C100.113 302.418 97.196 298.11 94.8705 294.534C93.5834 299.926 92.1019 305.6 90.6132 310.558C89.0122 315.89 87.3691 320.512 85.9146 323.033C85.5481 323.669 85.1591 324.233 84.7443 324.65C84.36 325.037 83.7622 325.49 82.991 325.463C82.1444 325.434 81.5955 324.858 81.278 324.33C80.9571 323.795 80.726 323.086 80.5473 322.264C79.9061 319.314 79.69 313.636 80.0264 304.413C78.6669 308.373 77.0856 312.435 75.52 315.976C74.5365 318.2 73.5536 320.231 72.6301 321.908C71.7183 323.563 70.8248 324.946 70.0088 325.818C69.614 326.24 69.1337 326.657 68.5809 326.856C68.2851 326.963 67.9286 327.021 67.5466 326.943C67.1556 326.863 66.8345 326.661 66.5902 326.403C66.1459 325.934 65.9397 325.27 65.826 324.64C65.7049 323.97 65.6551 323.133 65.6668 322.134C65.7084 318.605 66.533 312.491 68.4379 302.979C66.8526 305.908 65.1294 308.954 63.5092 311.568C62.3783 313.392 61.2828 315.03 60.3089 316.275C59.8226 316.896 59.3499 317.442 58.9038 317.87C58.4808 318.276 57.9876 318.67 57.4546 318.86C57.1727 318.961 56.8153 319.029 56.4269 318.951C56.017 318.868 55.683 318.645 55.4412 318.353C55.0161 317.837 54.8916 317.131 54.8525 316.508C54.7696 315.185 55.0275 313.126 55.6346 310.236C56.8499 304.45 59.563 294.903 64.3949 280.168C56.8769 273.957 45.2407 263.684 34.0231 252.428C22.6858 241.052 11.6901 228.587 5.848 218.261C3.00355 214.956 0.220319 209.22 1.06181 202.596C1.9136 195.89 6.43909 188.564 17.6877 182.091C30.9913 173.127 63.8355 153.021 88.958 144.251L89.7351 146.478ZM105.832 305.339C105.832 305.339 105.834 305.336 105.837 305.33C105.834 305.337 105.832 305.34 105.832 305.339ZM83.366 323.211C83.366 323.212 83.3646 323.21 83.3619 323.207C83.3647 323.21 83.3661 323.211 83.366 323.211Z" fill="#001A39"/>
<path d="M355.932 90.8067L323.521 71.9958C315.498 67.3387 312.769 57.0637 317.426 49.0406C322.083 41.0175 332.358 38.2881 340.381 42.9452L343.741 44.8964L345.651 41.6011C350.308 33.578 360.583 30.8486 368.606 35.5057C376.629 40.1627 379.358 50.4377 374.701 58.4608L355.932 90.8067Z" fill="#FBC73B"/>
<path d="M397.468 88.8851L429.879 70.0741C437.902 65.4171 440.631 55.1421 435.974 47.119C431.317 39.0959 421.042 36.3665 413.019 41.0236L409.659 42.9748L407.749 39.6795C403.092 31.6564 392.817 28.927 384.794 33.5841C376.771 38.2411 374.042 48.5161 378.699 56.5392L397.468 88.8851Z" fill="#FBC73B"/>
<path d="M378.327 80.9916L351.829 54.4936C345.268 47.9325 345.268 37.3038 351.829 30.7426C358.39 24.1815 369.019 24.1815 375.58 30.7426L378.327 33.4897L381.021 30.7957C387.582 24.2346 398.211 24.2346 404.772 30.7957C411.333 37.3568 411.333 47.9855 404.772 54.5466L378.327 80.9916Z" fill="#F96155"/>
<path d="M177.004 58.4062C177.004 58.4062 207.025 71.7536 213.539 93.4136C220.052 115.074 196.991 137.959 196.991 137.959L124.918 121.667L177.004 58.4062Z" fill="#001A39"/>
<path d="M142.508 146.882L128.542 91.6508C128.542 91.6508 108.88 86.2986 109.385 72.8777C109.889 59.4567 124.113 62.4179 124.113 62.4179C124.113 62.4179 126.658 43.6548 145.197 38.3471C163.737 33.0395 178.582 52.5268 180.343 67.7912C182.941 90.3401 175.767 103.004 152.578 102.659L161.742 132.704" fill="#FBC73B"/>
<path fill-rule="evenodd" clip-rule="evenodd" d="M177.058 78.5363L171.284 69.357L173.28 68.1015L179.054 77.2808L177.058 78.5363Z" fill="#001A39"/>
<path d="M138.662 131.675C157.601 121.346 132.177 57.7967 132.177 57.7967C154.838 65.3318 176.333 55.2393 176.333 55.2393C176.333 55.2393 163.897 24.8789 130.465 35.9869C97.0331 47.0949 94.1828 70.5627 94.1828 70.5627C94.1828 70.5627 59.478 87.1848 65.2544 116.854C71.0307 146.524 106.828 159.432 106.828 159.432C106.828 159.432 123.615 139.879 138.662 131.675Z" fill="#001A39"/>
<path d="M175.874 66.4685C177.305 66.486 178.486 64.7337 178.513 62.5541C178.539 60.3746 177.401 58.5939 175.97 58.5764C174.539 58.5589 173.358 60.3112 173.331 62.4908C173.304 64.6703 174.443 66.451 175.874 66.4685Z" fill="#001A39"/>
<path d="M165.555 68.9553C166.986 68.9728 168.167 67.2195 168.193 65.0399C168.22 62.8604 167.082 61.0797 165.652 61.0622C164.221 61.0447 163.039 62.7971 163.013 64.9766C162.986 67.1561 164.124 68.9378 165.555 68.9553Z" fill="#001A39"/>
</svg>
