<svg width="560" height="432" viewBox="0 0 560 432" fill="none" xmlns="http://www.w3.org/2000/svg">
<path fill-rule="evenodd" clip-rule="evenodd" d="M345.432 42.9722L338.074 65.3289L337.902 65.4486L337.532 64.943C337.902 65.4486 337.902 65.4488 337.901 65.4491L337.9 65.45L337.896 65.453L337.881 65.4634C337.867 65.4724 337.848 65.4854 337.823 65.5022C337.774 65.5358 337.7 65.5846 337.604 65.6473C337.413 65.7725 337.13 65.953 336.762 66.1771C336.026 66.6252 334.948 67.248 333.572 67.9525C330.822 69.3609 326.876 71.0987 322.086 72.4184C312.504 75.0582 299.519 76.0315 286.002 69.317L286.581 68.2106C299.731 74.7428 312.366 73.8057 321.739 71.2234C326.426 69.9321 330.289 68.2309 332.979 66.8532C334.324 66.1645 335.375 65.5574 336.087 65.1239C336.443 64.9072 336.714 64.7339 336.895 64.6156C336.931 64.5923 336.963 64.5711 336.992 64.5521L343.118 45.9361C342.636 46.155 341.997 46.4312 341.155 46.7754C338.34 47.9249 333.227 49.8413 324.012 52.9212C313.512 56.428 303.998 55.4889 297.118 53.6775C293.678 52.7718 290.892 51.647 288.963 50.7471C287.999 50.2971 287.248 49.9029 286.736 49.6198C286.48 49.4783 286.283 49.3645 286.15 49.2853C286.083 49.2457 286.032 49.2148 285.997 49.1934C285.98 49.1827 285.966 49.1744 285.957 49.1686L285.946 49.1617L285.942 49.1597L285.941 49.159C285.941 49.1588 285.941 49.1586 286.287 48.6374C286.633 48.1161 286.633 48.116 286.633 48.116L286.635 48.1169L286.642 48.1215C286.649 48.1258 286.66 48.1326 286.675 48.1418C286.705 48.1601 286.751 48.1879 286.812 48.2244C286.935 48.2972 287.12 48.4046 287.365 48.5397C287.853 48.8098 288.578 49.1905 289.514 49.6271C291.386 50.5005 294.098 51.596 297.451 52.4786C304.155 54.2437 313.4 55.1528 323.599 51.7465C332.801 48.6709 337.884 46.7645 340.662 45.6301C342.051 45.0628 342.857 44.6909 343.311 44.4645C343.538 44.3514 343.674 44.2761 343.749 44.2322C343.786 44.2104 343.807 44.1969 343.816 44.191C343.816 44.1908 343.817 44.1905 343.817 44.1902L345.432 42.9722Z" fill="#001A39"/>
<path d="M235.085 61.1638L253.778 87.5618C257.287 92.5128 264.246 93.7547 269.328 90.3354C271.082 89.1556 272.45 87.5123 273.279 85.5998L284.686 59.2017C287.082 53.6588 284.41 47.2715 278.721 44.9368C277.349 44.3738 275.874 44.084 274.383 44.084H244.283C235.272 44.084 229.965 53.9402 235.085 61.1638Z" fill="#005EB6"/>
<path d="M287.457 83.6994L306.809 64.2931L332.754 58.7668L339.522 29.8188L370.727 94.4623L363.509 122.545L336.034 125.89L314.061 143.976L287.457 83.6994Z" fill="#F96155"/>
<path d="M363.509 122.545L336.034 125.89L306.809 64.293L332.754 58.7666L363.509 122.545Z" fill="#001A39"/>
<path d="M149.94 291.331L99.8066 396.57L176.822 431.402L226.956 326.163L149.94 291.331Z" fill="#BACADF"/>
<path d="M361.158 373.403V430.658H329.915V373.403H361.158ZM362.433 372.162H328.641V431.9H362.433V372.162Z" fill="#001A39"/>
<path d="M300.665 265.894C275.994 281.488 301.298 300.104 291.518 312.609C281.738 325.115 272.693 341.702 287.333 354.879C301.974 368.055 327.405 373.126 345.537 372.037C382.763 369.806 414.397 344.19 418.841 316.091C423.285 287.991 408.122 265.365 371.517 257.16C334.912 248.955 317.136 255.479 300.665 265.894Z" fill="#FBC73B"/>
<path d="M54.1128 341.467C83.9985 341.467 108.226 317.861 108.226 288.741C108.226 259.621 83.9985 236.015 54.1128 236.015C24.2271 236.015 0 259.621 0 288.741C0 317.861 24.2271 341.467 54.1128 341.467Z" fill="#F96155"/>
<path d="M97.3829 431.9H10.8457L54.1164 341.467L97.3829 431.9Z" fill="#FBC73B"/>
<path d="M248.574 46.41L258.116 25.0126C258.116 25.0126 251.514 17.1765 255.699 11.8902C259.884 6.60401 264.914 11.8902 264.914 11.8902C264.914 11.8902 271.516 5.01445 280.799 8.19778C290.082 11.3811 290.498 23.5555 286.721 30.2533C281.147 40.1469 273.802 42.7796 264.26 35.9659L258.575 47.8093" fill="#FBC73B"/>
<path d="M260.881 9.63418C260.881 9.63418 262.3 -0.781048 276.09 0.046867C289.881 0.874782 290.731 5.95405 296.351 4.81566C301.972 3.67728 302.626 19.9791 287.587 18.3232C272.547 16.6674 273.269 15.9056 273.269 15.9056C273.269 15.9056 271.443 22.2724 267.789 20.9353C264.135 19.5983 264.586 12.6562 264.586 12.6562" fill="#001A39"/>
<path fill-rule="evenodd" clip-rule="evenodd" d="M350.154 44.4961C353.064 46.8037 355.72 49.392 358.089 52.2274L358.091 52.2302L358.093 52.2331C359.09 53.455 359.633 55.3799 359.896 57.4674C360.162 59.5803 360.152 61.9644 359.962 64.1955C359.771 66.4247 359.398 68.5309 358.922 70.087C358.686 70.8602 358.414 71.5316 358.107 72.0191C357.954 72.2623 357.774 72.4891 357.559 72.6578C357.341 72.8296 357.051 72.9671 356.708 72.9479C356.009 72.9088 355.67 72.3102 355.507 71.8709C355.325 71.3795 355.225 70.7322 355.172 70.0228C355.064 68.591 355.136 66.7193 355.276 64.8816C355.278 64.8477 355.281 64.8138 355.284 64.7798C354.752 66.3309 354.159 67.8681 353.565 69.0214C353.25 69.6317 352.916 70.1728 352.566 70.5528C352.252 70.895 351.738 71.3054 351.101 71.1502C350.726 71.0589 350.499 70.7881 350.367 70.5478C350.234 70.3055 350.151 70.013 350.096 69.7121C349.984 69.1054 349.957 68.3065 349.982 67.4102C350.031 65.6136 350.295 63.2873 350.621 60.9966C350.091 62.4417 349.529 63.8239 348.983 64.9082C348.633 65.6026 348.271 66.2101 347.908 66.6361C347.727 66.8482 347.521 67.0456 347.288 67.1801C347.048 67.3182 346.735 67.4133 346.393 67.3291C346 67.2327 345.769 66.9272 345.637 66.6928C345.495 66.4389 345.387 66.1223 345.301 65.7807C345.128 65.0922 345.01 64.1683 344.929 63.1127C344.768 60.9934 344.753 58.2316 344.802 55.5041C344.852 52.7724 344.967 50.0587 345.069 48.0289C345.121 47.0137 345.169 46.169 345.204 45.5778C345.222 45.2822 345.236 45.05 345.247 44.8915C345.252 44.8122 345.256 44.7514 345.258 44.7104L345.262 44.6479C345.262 44.6478 345.262 44.6476 345.898 44.688C346.534 44.7284 346.534 44.7285 346.534 44.7286L346.53 44.7892C346.528 44.8297 346.524 44.8898 346.519 44.9683C346.509 45.1254 346.494 45.3561 346.477 45.6501C346.441 46.2381 346.393 47.0791 346.342 48.09C346.24 50.1123 346.126 52.8121 346.077 55.526C346.027 58.244 346.044 60.9599 346.2 63.021C346.279 64.0557 346.391 64.8977 346.539 65.4846C346.604 65.7415 346.669 65.9248 346.729 66.0458C346.782 66.0011 346.849 65.9356 346.928 65.8427C347.194 65.5307 347.502 65.0277 347.839 64.3607C348.506 63.0366 349.214 61.2043 349.866 59.3311C350.516 57.4635 351.101 55.5775 351.525 54.1569C351.736 53.447 351.907 52.8543 352.025 52.4393C352.084 52.2318 352.13 52.0688 352.161 51.9578C352.176 51.9024 352.188 51.8599 352.196 51.8314L352.207 51.789C352.208 51.7889 352.208 51.7889 352.823 51.9489C353.449 52.0689 353.449 52.0689 353.448 52.069L353.448 52.0696L353.438 52.1197C353.432 52.1535 353.421 52.204 353.408 52.2699C353.382 52.4017 353.344 52.5954 353.296 52.8422C353.201 53.336 353.067 54.0424 352.912 54.8918C352.602 56.5914 352.212 58.8602 351.887 61.1428C351.561 63.4303 351.304 65.7117 351.256 67.4437C351.232 68.3149 351.262 69.0128 351.35 69.4929C351.382 69.668 351.419 69.7941 351.453 69.8802C351.494 69.8478 351.548 69.7987 351.617 69.7242C351.853 69.4669 352.128 69.0418 352.426 68.4639C353.016 67.3181 353.625 65.7217 354.178 64.0811C354.729 62.4467 355.216 60.7939 355.566 59.5478C355.741 58.9252 355.881 58.4052 355.977 58.0412C356.026 57.8592 356.063 57.7163 356.088 57.6191C356.101 57.5705 356.11 57.5333 356.116 57.5084L356.126 57.4718C356.126 57.4717 356.126 57.4714 356.745 57.62C357.375 57.7111 357.375 57.7111 357.375 57.7112L357.369 57.7515C357.365 57.7786 357.359 57.8191 357.351 57.8719C357.335 57.9777 357.313 58.1333 357.285 58.3316C357.229 58.7282 357.151 59.2955 357.065 59.9767C356.892 61.3403 356.685 63.1562 356.547 64.9732C356.409 66.7969 356.342 68.5945 356.443 69.9321C356.494 70.6074 356.584 71.1198 356.706 71.4498C356.742 71.5478 356.774 71.613 356.8 71.6557C356.857 71.6009 356.932 71.5102 357.021 71.3696C357.243 71.0162 357.477 70.463 357.7 69.7325C358.144 68.2816 358.506 66.2646 358.692 64.0925C358.877 61.9221 358.884 59.6263 358.631 57.6186C358.375 55.5873 357.865 53.9519 357.098 53.0083C354.785 50.2399 352.191 47.7126 349.349 45.4593L350.154 44.4961ZM356.85 71.7251C356.856 71.728 356.858 71.7302 356.858 71.7306C356.858 71.731 356.855 71.7295 356.85 71.7251ZM356.745 57.62L357.375 57.7112L356.126 57.4714L356.745 57.62ZM352.823 51.9489L353.448 52.069L352.207 51.789L352.823 51.9489ZM346.809 66.1758C346.809 66.1759 346.808 66.1749 346.806 66.1723C346.808 66.1744 346.809 66.1757 346.809 66.1758Z" fill="#001A39"/>
<path fill-rule="evenodd" clip-rule="evenodd" d="M230.727 61.5506C230.727 61.5503 230.726 61.5501 231.354 61.4408C231.981 61.3314 231.981 61.3314 231.981 61.3316L231.985 61.3503L231.996 61.4089C232.005 61.4611 232.02 61.5391 232.04 61.6415C232.08 61.8464 232.14 62.149 232.22 62.5377C232.38 63.3154 232.621 64.4378 232.942 65.814C233.586 68.567 234.555 72.3316 235.852 76.3796C237.149 80.4295 238.772 84.7514 240.723 88.6238C242.678 92.5048 244.94 95.8891 247.497 98.1045C250.064 100.329 253.993 102.403 258.583 104.232C263.162 106.057 268.352 107.621 273.403 108.842C278.455 110.062 283.355 110.936 287.349 111.386C289.347 111.611 291.11 111.729 292.546 111.733C294.001 111.737 295.063 111.622 295.695 111.417C298.551 110.488 301.462 108.807 303.592 107.185C304.657 106.373 305.505 105.593 306.047 104.948C306.32 104.624 306.497 104.355 306.591 104.151C306.603 104.125 306.613 104.101 306.622 104.08C306.597 104.078 306.569 104.077 306.539 104.076C306.217 104.065 305.739 104.113 305.13 104.22C303.923 104.432 302.342 104.846 300.755 105.31C299.172 105.772 297.604 106.279 296.43 106.67C295.843 106.866 295.356 107.033 295.015 107.15C294.845 107.209 294.712 107.256 294.621 107.287C294.576 107.303 294.541 107.316 294.518 107.324L294.484 107.336C294.483 107.336 294.483 107.336 294.265 106.752C293.988 106.194 293.988 106.194 293.988 106.194L294.029 106.174C294.057 106.16 294.099 106.141 294.154 106.115C294.263 106.062 294.423 105.985 294.627 105.887C295.036 105.689 295.618 105.403 296.315 105.053C297.709 104.352 299.555 103.394 301.371 102.364C303.193 101.331 304.961 100.237 306.211 99.2644C306.84 98.7753 307.307 98.3402 307.585 97.9795C307.87 97.6114 307.845 97.4716 307.847 97.4713C307.847 97.4713 307.847 97.4714 307.847 97.4716C307.809 97.3717 307.702 97.2388 307.309 97.1628C306.904 97.0846 306.32 97.0984 305.576 97.2119C304.099 97.4372 302.199 98.0203 300.296 98.7141C298.402 99.4046 296.539 100.191 295.148 100.807C294.453 101.115 293.877 101.379 293.475 101.566C293.275 101.659 293.117 101.733 293.011 101.784C292.957 101.809 292.916 101.829 292.889 101.842L292.859 101.857L292.849 101.861L292.849 101.861C292.849 101.861 292.849 101.861 292.777 101.72L292.849 101.861L292.243 100.769L292.566 101.305C292.243 100.769 292.243 100.769 292.243 100.769L292.244 100.769L292.245 100.768L292.252 100.764L292.278 100.749C292.301 100.736 292.336 100.716 292.382 100.69C292.472 100.637 292.606 100.56 292.776 100.461C293.116 100.262 293.601 99.9758 294.181 99.6263C295.342 98.9268 296.88 97.9755 298.395 96.9655C299.914 95.9524 301.391 94.8929 302.439 93.9761C302.966 93.5151 303.359 93.1122 303.595 92.7865C303.714 92.6237 303.776 92.5034 303.803 92.4239C303.81 92.4041 303.813 92.3896 303.815 92.3798C303.79 92.3379 303.712 92.2566 303.443 92.1915C303.115 92.1122 302.634 92.094 302.01 92.147C300.772 92.2523 299.167 92.6187 297.552 93.0738C295.946 93.5266 294.362 94.0572 293.179 94.4756C292.588 94.6846 292.097 94.8651 291.755 94.9932C291.584 95.0573 291.451 95.1082 291.36 95.143C291.314 95.1604 291.28 95.1737 291.257 95.1827L291.231 95.1928L291.223 95.1958L290.995 95.2849L264.452 85.7306L260.113 71.5239L261.334 71.1697L265.492 84.781L290.978 93.955C291.063 93.9225 291.171 93.8818 291.298 93.8341C291.646 93.7036 292.144 93.5203 292.744 93.3082C293.943 92.8845 295.555 92.344 297.198 91.8809C298.833 91.4201 300.534 91.0259 301.899 90.9099C302.577 90.8523 303.221 90.8583 303.75 90.9862C304.277 91.1138 304.818 91.3999 305.03 91.9945C305.134 92.2868 305.094 92.5765 305.013 92.8149C304.931 93.0533 304.794 93.2858 304.636 93.5043C304.318 93.9416 303.843 94.4167 303.29 94.9002C302.313 95.755 301.011 96.7054 299.67 97.6167C299.73 97.5947 299.79 97.5728 299.85 97.5509C301.772 96.8501 303.77 96.2304 305.379 95.985C306.178 95.8631 306.935 95.8246 307.556 95.9446C308.185 96.0661 308.794 96.38 309.045 97.0466C309.278 97.6674 308.948 98.2809 308.604 98.7265C308.229 99.2109 307.665 99.7223 307.007 100.235C305.682 101.266 303.849 102.396 302.013 103.437C301.749 103.587 301.484 103.735 301.22 103.882C302.543 103.51 303.846 103.184 304.904 102.998C305.539 102.887 306.123 102.819 306.582 102.834C306.81 102.842 307.05 102.87 307.264 102.95C307.48 103.029 307.749 103.194 307.869 103.514C308.02 103.919 307.902 104.337 307.754 104.66C307.596 105.003 307.343 105.367 307.033 105.735C306.411 106.475 305.485 107.319 304.377 108.163C302.159 109.852 299.122 111.611 296.098 112.595C295.26 112.867 294.025 112.978 292.543 112.975C291.044 112.971 289.231 112.848 287.203 112.62C283.146 112.163 278.193 111.278 273.097 110.047C268.001 108.816 262.75 107.235 258.1 105.382C253.462 103.533 249.376 101.395 246.65 99.0326C243.913 96.6613 241.563 93.1113 239.578 89.1709C237.589 85.2218 235.944 80.8351 234.635 76.7497C233.325 72.6625 232.349 68.8651 231.7 66.09C231.375 64.702 231.132 63.5689 230.97 62.7819C230.889 62.3884 230.828 62.0814 230.788 61.8723C230.768 61.7678 230.752 61.6877 230.742 61.6335L230.731 61.5718L230.727 61.5506ZM294.265 106.752L293.988 106.194L294.483 107.336L294.265 106.752Z" fill="#001A39"/>
<path d="M361.795 372.782H329.277V431.279H361.795V372.782Z" fill="white"/>
<path d="M361.158 373.403V430.658H329.915V373.403H361.158ZM362.433 372.162H328.641V431.9H362.433V372.162Z" fill="#001A39"/>
<path fill-rule="evenodd" clip-rule="evenodd" d="M282.053 33.6701L282.388 27.9658L283.661 28.0369L283.325 33.7411L282.053 33.6701Z" fill="#001A39"/>
<path d="M279.71 27.1403C280.59 27.1403 281.304 26.4453 281.304 25.588C281.304 24.7307 280.59 24.0356 279.71 24.0356C278.83 24.0356 278.117 24.7307 278.117 25.588C278.117 26.4453 278.83 27.1403 279.71 27.1403Z" fill="#001A39"/>
<path d="M286.288 29.1398C287.168 29.1398 287.882 28.4448 287.882 27.5875C287.882 26.7302 287.168 26.0352 286.288 26.0352C285.409 26.0352 284.695 26.7302 284.695 27.5875C284.695 28.4448 285.409 29.1398 286.288 29.1398Z" fill="#001A39"/>
<path d="M41.2495 323.997C44.5939 321.073 45.2586 316.481 42.7343 313.739C40.21 310.998 35.4526 311.146 32.1082 314.069C28.7639 316.993 28.099 321.586 30.6233 324.327C33.1476 327.068 37.9052 326.92 41.2495 323.997Z" fill="white"/>
<path fill-rule="evenodd" clip-rule="evenodd" d="M61.5744 273.204C62.1629 274.417 62.3002 275.608 61.7585 276.686C60.3054 279.577 56.747 281.095 52.4352 281.813C48.0947 282.536 42.8437 282.475 37.7898 282.077C32.7308 281.68 27.8451 280.944 24.2261 280.308C22.6968 280.04 21.3928 279.789 20.3963 279.588C20.7401 279.822 21.1234 280.085 21.5382 280.374C23.3054 281.607 25.6485 283.323 27.946 285.248C30.2403 287.17 32.5049 289.315 34.1036 291.407C35.6826 293.474 36.6984 295.601 36.2753 297.449C35.9573 298.844 34.5463 299.903 32.5867 300.733C30.5965 301.575 27.8984 302.239 24.7557 302.764C18.465 303.815 10.2974 304.322 2.21962 304.529L2.19727 303.701C10.2637 303.495 18.3826 302.989 24.6121 301.948C27.7296 301.428 30.35 300.777 32.2482 299.973C34.177 299.157 35.2243 298.241 35.4459 297.27C35.7809 295.807 34.986 293.949 33.4221 291.902C31.8779 289.881 29.6675 287.782 27.392 285.876C25.1198 283.972 22.7983 282.272 21.0434 281.047C20.1664 280.435 19.4318 279.942 18.9169 279.603C18.6594 279.433 18.457 279.302 18.3191 279.213C18.2502 279.169 18.1974 279.135 18.162 279.112L18.122 279.087L18.1097 279.079L18.1092 279.079C18.1091 279.079 18.1091 279.079 18.3399 278.731C18.4366 278.328 18.4367 278.328 18.4369 278.328L18.438 278.329L18.4628 278.334L18.5426 278.352C18.6132 278.368 18.7184 278.391 18.856 278.421C19.1313 278.481 19.5363 278.567 20.0541 278.673C21.0897 278.886 22.5761 279.177 24.3769 279.494C27.9796 280.127 32.836 280.858 37.8581 281.252C42.8853 281.647 48.0544 281.703 52.292 280.997C56.5582 280.286 59.7358 278.828 60.9954 276.322C61.3862 275.544 61.3266 274.63 60.8063 273.558C60.2831 272.48 59.3133 271.288 57.9718 270.015C55.2918 267.473 51.221 264.694 46.6063 261.952C37.3842 256.473 26.0848 251.197 19.6579 248.317L20.0129 247.565C26.446 250.448 37.7825 255.74 47.0487 261.245C51.6781 263.996 55.8146 266.813 58.5646 269.422C59.938 270.725 60.9889 271.998 61.5744 273.204ZM18.3399 278.731L18.4369 278.328C18.2358 278.283 18.0297 278.384 17.9489 278.569C17.8681 278.755 17.9358 278.97 18.1092 279.079L18.3399 278.731Z" fill="white"/>
<path d="M560.001 418.363C560.004 422.933 559.598 427.497 558.79 432H514.234C521.949 413.056 512.45 391.605 493.014 384.084C473.578 376.564 451.569 385.823 443.854 404.767C440.29 413.513 440.29 423.254 443.854 432H399.77C398.961 427.497 398.555 422.933 398.559 418.363C398.559 374.912 434.699 339.688 479.282 339.688C523.865 339.688 560.001 374.912 560.001 418.363Z" fill="#234977"/>
<path fill-rule="evenodd" clip-rule="evenodd" d="M78.6203 253.366C81.5209 251.307 85.1461 249.386 88.4414 247.826L88.8129 248.57C85.5357 250.122 81.9619 252.018 79.1206 254.035C77.6999 255.044 76.474 256.074 75.5616 257.098C74.6459 258.125 74.0713 259.118 73.9041 260.05C73.773 260.785 74.0637 261.524 74.7924 262.285C75.5251 263.05 76.6625 263.794 78.1058 264.504C80.988 265.922 84.9726 267.151 89.026 268.16C93.0732 269.168 97.1637 269.95 100.244 270.48C101.784 270.746 103.07 270.948 103.971 271.083C104.422 271.151 104.776 271.202 105.017 271.237C105.138 271.254 105.23 271.267 105.292 271.275L105.363 271.285L105.386 271.288C105.386 271.288 105.386 271.288 105.328 271.698C105.27 272.108 105.27 272.108 105.269 272.108L105.245 272.105L105.173 272.095C105.11 272.086 105.017 272.073 104.895 272.056C104.651 272.021 104.295 271.97 103.842 271.902C102.935 271.765 101.643 271.562 100.096 271.296C97.004 270.763 92.8909 269.977 88.8156 268.963C84.7464 267.95 80.6895 266.703 77.7227 265.243C76.2415 264.514 75.0026 263.718 74.1711 262.85C73.3356 261.977 72.8742 260.988 73.067 259.908C73.2715 258.767 73.954 257.639 74.9201 256.555C75.8895 255.467 77.1702 254.395 78.6203 253.366Z" fill="white"/>
<path fill-rule="evenodd" clip-rule="evenodd" d="M415.488 347.505C415.488 347.506 415.489 347.506 415.118 347.709C414.748 347.912 414.748 347.911 414.748 347.911L414.746 347.909L414.726 347.873C414.711 347.847 414.688 347.809 414.659 347.758C414.599 347.656 414.511 347.505 414.395 347.307C414.163 346.913 413.82 346.335 413.378 345.601C412.494 344.132 411.213 342.04 409.627 339.546C406.455 334.558 402.063 327.968 397.183 321.553C392.3 315.133 386.943 308.908 381.839 304.637C379.287 302.502 376.817 300.87 374.516 299.942C372.217 299.014 370.126 298.804 368.296 299.45C366.448 300.102 364.896 301.498 363.589 303.497C362.282 305.498 361.237 308.079 360.398 311.052C358.722 316.999 357.894 324.437 357.404 331.75C357.159 335.403 356.998 339.019 356.857 342.395C356.839 342.836 356.821 343.274 356.803 343.706C356.684 346.582 356.573 349.26 356.428 351.598C356.261 354.284 356.048 356.545 355.72 358.159C355.556 358.963 355.359 359.634 355.109 360.123C354.869 360.593 354.519 361.013 353.992 361.076C353.278 361.162 352.552 360.987 351.837 360.657C351.123 360.326 350.397 359.83 349.669 359.24C348.318 358.142 346.909 356.673 345.52 355.225C345.418 355.118 345.315 355.011 345.213 354.905C343.712 353.341 342.242 351.836 340.851 350.807C339.439 349.762 338.238 349.305 337.238 349.596C335.453 350.116 333.667 351.952 331.981 354.56C330.31 357.144 328.796 360.392 327.517 363.586C326.24 366.777 325.205 369.899 324.488 372.225C324.13 373.388 323.852 374.35 323.663 375.022C323.569 375.358 323.497 375.621 323.449 375.799C323.425 375.889 323.407 375.957 323.394 376.003L323.381 376.055L323.376 376.071C323.376 376.071 323.376 376.072 322.964 375.97C322.553 375.868 322.553 375.868 322.553 375.868L322.553 375.867L322.558 375.85L322.572 375.796C322.584 375.749 322.603 375.68 322.627 375.589C322.676 375.408 322.748 375.142 322.844 374.803C323.034 374.126 323.314 373.157 323.674 371.987C324.395 369.648 325.438 366.503 326.726 363.285C328.013 360.07 329.55 356.767 331.262 354.119C332.959 351.494 334.888 349.417 336.994 348.803C338.42 348.388 339.927 349.084 341.365 350.148C342.823 351.227 344.343 352.787 345.834 354.339C345.933 354.442 346.031 354.545 346.13 354.648C347.531 356.109 348.904 357.541 350.213 358.604C350.912 359.171 351.577 359.62 352.202 359.909C352.826 360.197 353.386 360.315 353.888 360.255C353.97 360.245 354.14 360.163 354.348 359.754C354.548 359.364 354.728 358.777 354.886 357.998C355.203 356.444 355.413 354.232 355.58 351.548C355.725 349.219 355.835 346.55 355.954 343.673C355.972 343.24 355.99 342.803 356.008 342.362C356.149 338.985 356.31 335.36 356.556 331.696C357.047 324.373 357.878 316.865 359.579 310.833C360.429 307.817 361.502 305.149 362.872 303.053C364.243 300.955 365.928 299.405 368.007 298.671C370.103 297.931 372.425 298.202 374.841 299.177C377.257 300.152 379.806 301.844 382.393 304.009C387.568 308.341 392.971 314.624 397.866 321.06C402.765 327.499 407.17 334.11 410.349 339.11C411.94 341.61 413.224 343.708 414.111 345.182C414.554 345.918 414.898 346.499 415.132 346.896C415.2 347.012 415.259 347.113 415.309 347.197C415.343 347.256 415.373 347.307 415.397 347.349C415.427 347.401 415.45 347.44 415.465 347.466L415.487 347.503L415.488 347.505Z" fill="#F96155"/>
<path fill-rule="evenodd" clip-rule="evenodd" d="M345.102 229.236C345.102 229.236 345.102 229.236 345.519 229.156C345.936 229.076 345.936 229.076 345.936 229.076L345.968 229.235C345.989 229.34 346.02 229.495 346.06 229.698C346.14 230.104 346.255 230.699 346.4 231.458C346.688 232.975 347.091 235.146 347.546 237.761C348.455 242.99 349.575 249.999 350.416 257.112C351.257 264.222 351.821 271.454 351.613 277.123C351.509 279.954 351.212 282.42 350.648 284.293C350.093 286.14 349.241 287.537 347.925 288.022C346.184 288.664 343.98 288.089 341.757 287.01C339.508 285.918 337.122 284.25 334.95 282.525C332.774 280.797 330.796 278.999 329.364 277.633C329.047 277.331 328.756 277.049 328.495 276.795C328.814 277.627 329.216 278.702 329.661 279.96C330.748 283.036 332.098 287.208 333.14 291.582C334.181 295.952 334.922 300.547 334.779 304.462C334.637 308.355 333.615 311.707 330.982 313.41C329.739 314.215 328.12 313.979 326.383 313.168C324.627 312.349 322.621 310.888 320.482 309.009C316.198 305.246 311.292 299.73 306.661 294.061C302.028 288.387 297.659 282.546 294.449 278.124C292.843 275.913 291.527 274.056 290.613 272.751C290.155 272.099 289.798 271.585 289.555 271.234C289.434 271.058 289.341 270.923 289.278 270.832L289.207 270.729L289.184 270.694C289.183 270.694 289.183 270.694 289.537 270.464C289.891 270.235 289.891 270.235 289.891 270.235L289.914 270.269L289.984 270.372C290.046 270.462 290.139 270.596 290.26 270.771C290.502 271.121 290.858 271.634 291.314 272.284C292.227 273.586 293.54 275.439 295.142 277.646C298.347 282.061 302.706 287.889 307.326 293.545C311.949 299.205 316.821 304.678 321.051 308.394C323.169 310.254 325.103 311.654 326.749 312.421C328.413 313.197 329.657 313.274 330.512 312.72C332.784 311.25 333.79 308.263 333.93 304.433C334.069 300.624 333.347 296.112 332.312 291.77C331.279 287.433 329.939 283.29 328.857 280.23C328.316 278.7 327.84 277.442 327.499 276.567C327.329 276.13 327.193 275.788 327.099 275.556C327.052 275.44 327.016 275.351 326.991 275.292L326.964 275.225L326.957 275.208L326.955 275.204L326.955 275.203C326.955 275.203 326.955 275.203 327.348 275.047C327.66 274.765 327.66 274.765 327.66 274.766L327.66 274.766L327.669 274.776L327.699 274.807C327.726 274.834 327.765 274.875 327.818 274.929C327.922 275.037 328.076 275.194 328.275 275.394C328.673 275.795 329.248 276.365 329.958 277.042C331.379 278.396 333.337 280.176 335.486 281.883C337.639 283.593 339.969 285.216 342.136 286.269C344.329 287.334 346.241 287.757 347.624 287.248C348.541 286.91 349.291 285.861 349.833 284.06C350.367 282.284 350.661 279.898 350.764 277.093C350.969 271.488 350.411 264.305 349.572 257.207C348.733 250.113 347.616 243.12 346.708 237.899C346.254 235.289 345.852 233.122 345.564 231.609C345.42 230.852 345.305 230.258 345.225 229.854C345.185 229.652 345.155 229.497 345.134 229.393L345.11 229.275L345.102 229.236ZM327.348 275.047L327.66 274.766L326.081 273.107L326.955 275.203L327.348 275.047Z" fill="#F96155"/>
<path fill-rule="evenodd" clip-rule="evenodd" d="M294.287 305.939C294.287 305.939 294.287 305.939 294.674 305.769C295.062 305.599 295.062 305.6 295.062 305.6L295.063 305.601L295.065 305.605L295.072 305.622C295.078 305.636 295.088 305.656 295.1 305.683C295.124 305.737 295.159 305.817 295.204 305.921C295.293 306.13 295.422 306.438 295.578 306.837C295.891 307.634 296.317 308.796 296.771 310.259C297.679 313.185 298.701 317.321 299.16 322.161C300.076 331.84 298.736 344.365 289.677 355.658L289.008 355.148C297.891 344.074 299.217 331.783 298.313 322.237C297.862 317.464 296.853 313.385 295.958 310.499C295.51 309.057 295.091 307.914 294.784 307.132C294.631 306.742 294.506 306.442 294.42 306.241C294.376 306.14 294.343 306.064 294.32 306.013C294.309 305.988 294.301 305.969 294.295 305.957L294.289 305.943L294.287 305.94L294.287 305.939Z" fill="#F96155"/>
<path fill-rule="evenodd" clip-rule="evenodd" d="M372.326 250.491C372.326 250.491 372.326 250.491 372.74 250.586L373.153 250.682L373.152 250.684L373.15 250.693L373.142 250.729C373.134 250.761 373.123 250.81 373.109 250.874C373.08 251.003 373.039 251.195 372.989 251.443C372.89 251.939 372.757 252.662 372.625 253.562C372.36 255.364 372.096 257.876 372.1 260.715C372.108 266.406 373.193 273.339 377.427 278.519C387.267 290.557 401.707 293.515 413.754 293.443C419.774 293.406 425.177 292.613 429.076 291.828C431.025 291.436 432.597 291.046 433.68 290.755C434.222 290.609 434.641 290.488 434.924 290.404C435.066 290.362 435.173 290.329 435.245 290.306C435.281 290.295 435.308 290.287 435.326 290.281L435.345 290.275L435.351 290.273C435.351 290.273 435.351 290.273 435.485 290.666C435.62 291.058 435.619 291.059 435.619 291.059L435.611 291.061L435.589 291.068C435.57 291.074 435.541 291.083 435.504 291.095C435.429 291.118 435.318 291.152 435.173 291.196C434.882 291.282 434.456 291.405 433.906 291.553C432.807 291.849 431.217 292.243 429.248 292.639C425.31 293.432 419.849 294.234 413.76 294.271C401.589 294.344 386.834 291.357 376.762 279.035C372.35 273.637 371.258 266.476 371.25 260.716C371.246 257.829 371.514 255.276 371.784 253.445C371.918 252.529 372.054 251.793 372.155 251.284C372.206 251.03 372.248 250.833 372.278 250.699C372.293 250.632 372.305 250.58 372.313 250.545L372.323 250.505L372.325 250.495L372.326 250.491Z" fill="#F96155"/>
<path fill-rule="evenodd" clip-rule="evenodd" d="M266.729 167.427L269.598 138.455L270.866 138.575L268.502 162.455L299.815 186.328L300.665 263.291L362.434 241.893C362.434 241.893 354 234.984 336.093 239.857C336.093 239.857 347.989 175.855 341.705 163.626C335.422 151.398 271.125 85.9598 241.841 97.6748C210.937 110.044 213.605 200.382 213.605 200.382L155.924 245.267L163.507 279.149L188.081 303.159C188.081 303.159 186.513 286.187 180.238 274.269C180.238 274.269 244.556 247.039 253.966 222.077C261.063 203.252 265.149 178.473 266.729 167.427Z" fill="#001A39"/>
<path fill-rule="evenodd" clip-rule="evenodd" d="M244.682 97.0504C244.681 97.0499 244.681 97.0494 245.2 96.6895C245.719 96.3296 245.719 96.3291 245.719 96.3287L245.718 96.3282C245.719 96.3284 245.719 96.3288 245.719 96.3294C245.721 96.3317 245.725 96.3365 245.73 96.3436C245.741 96.3578 245.76 96.3815 245.787 96.4141C245.841 96.4792 245.928 96.5803 246.052 96.7135C246.301 96.9799 246.7 97.3753 247.286 97.8703C248.458 98.8603 250.379 100.25 253.344 101.804C259.276 104.913 269.385 108.681 286.025 111.218L285.828 112.445C269.078 109.891 258.825 106.087 252.74 102.898C249.698 101.303 247.698 99.8623 246.451 98.8086C245.827 98.2819 245.392 97.8522 245.109 97.5491C244.968 97.3976 244.864 97.2777 244.794 97.1931C244.76 97.1509 244.733 97.1175 244.714 97.0933C244.705 97.0813 244.697 97.0716 244.692 97.0642L244.685 97.055L244.683 97.0517L244.682 97.0504ZM245.718 96.3282C245.718 96.3278 245.718 96.3276 245.718 96.3276L245.718 96.3281L245.718 96.3282Z" fill="white"/>
<path fill-rule="evenodd" clip-rule="evenodd" d="M61.3589 321.145C63.3817 327.251 66.5808 333.719 69.881 339.273L69.1456 339.688C65.8252 334.1 62.5968 327.577 60.5503 321.399C58.5108 315.243 57.6162 309.346 59.0675 305.06C59.7991 302.899 61.1292 301.141 63.201 299.983C65.2641 298.83 68.024 298.293 71.5828 298.491C78.6887 298.887 89.1121 302.223 103.91 309.722L103.517 310.457C88.7455 302.971 78.4541 299.703 71.5343 299.318C68.0803 299.125 65.4996 299.653 63.6237 300.702C61.7566 301.745 60.5492 303.326 59.8744 305.319C58.5129 309.341 59.3292 315.018 61.3589 321.145Z" fill="white"/>
</svg>
