<svg width="606" height="374" viewBox="0 0 606 374" fill="none" xmlns="http://www.w3.org/2000/svg">
<path d="M559.223 273.365L606 280.688L584.827 352.504L582.516 291.758L548.454 286.415" fill="#F96155"/>
<path d="M451.274 302.147L477.387 331.528L415.622 374L452.16 325.362L434.676 305.511" fill="#F96155"/>
<path fill-rule="evenodd" clip-rule="evenodd" d="M574.202 296.689C578.835 279.874 569.557 272.13 569.557 272.13L511.56 259.423C509.854 208.54 506.165 194.432 494.072 182.225C479.61 167.633 453.501 163.088 435.21 171.696C414.148 181.609 397.819 194.734 371.073 217.508C355.7 230.599 354.114 253.749 367.558 268.812L419.841 327.384C419.841 327.384 433.574 329.901 444.633 321.545C457.439 311.871 454.797 300.04 454.797 300.04L413.726 249.1L445.602 230.807L437.946 205.815L439.529 205.332L447.465 231.236L467.707 285.002C470.464 292.325 476.629 297.842 484.222 299.78L556.747 315.161C556.747 315.161 569.834 312.545 574.202 296.689Z" fill="#FFA574"/>
<path d="M541.942 311.734C540.592 304.044 543.962 295.568 550.938 291.684C554.511 289.692 558.714 289.188 562.498 290.907C566.394 292.68 569.872 295.626 572.936 298.564C573.507 299.114 574.38 298.246 573.805 297.696C570.422 294.448 566.423 291.031 561.972 289.37C558.109 287.927 553.857 288.655 550.313 290.622C542.823 294.779 539.308 303.845 540.749 312.065C540.89 312.841 542.078 312.511 541.942 311.734Z" fill="#A14259"/>
<path d="M549.73 267.593C543.635 279.94 533.504 292.685 518.214 291.66C510.725 291.156 504.734 286.54 502.03 279.589C499.016 271.841 500.299 263.369 502.109 255.501C504.212 246.364 506.998 237.364 510.476 228.653C510.77 227.917 509.578 227.599 509.288 228.326C505.81 237.037 503.024 246.038 500.92 255.175C499.037 263.365 497.749 272.184 500.958 280.221C503.521 286.639 508.804 291.362 515.689 292.585C522.321 293.759 529.385 291.99 534.941 288.259C542.17 283.403 547.01 275.886 550.794 268.217C551.146 267.506 550.082 266.882 549.73 267.593Z" fill="#A14259"/>
<path d="M468.523 286.382C473.259 282.238 479.519 280.361 485.618 279.291C492.445 278.093 499.649 277.551 506.431 279.299C512.103 280.762 517.531 283.915 520.897 288.796C524.809 294.465 525.331 302.023 525.629 308.688C525.666 309.478 526.896 309.482 526.863 308.688C526.557 301.792 525.977 294.048 521.961 288.172C518.558 283.192 513.113 279.874 507.362 278.271C500.183 276.266 492.54 276.824 485.286 278.097C478.964 279.209 472.555 281.213 467.649 285.506C467.053 286.035 467.926 286.903 468.523 286.382Z" fill="#A14259"/>
<path d="M450.748 239.661C456.648 235.636 463.264 232.789 470.282 231.409C475.321 230.417 486.868 228.686 486.483 236.955C486.321 240.418 484.587 243.984 482.968 246.98C481.312 250.042 479.291 252.897 477.122 255.617C472.65 261.208 467.583 266.324 462.163 270.997C461.563 271.518 462.436 272.382 463.032 271.865C472.137 264.001 481.734 254.41 486.164 243C487.816 238.752 489.054 233.141 484.168 230.57C479.776 228.26 473.855 229.392 469.251 230.364C462.395 231.81 455.903 234.653 450.123 238.595C449.477 239.046 450.09 240.112 450.748 239.661Z" fill="#A14259"/>
<path d="M506.94 210.747C501.027 214.272 495.351 217.5 488.259 217.537C481.353 217.57 474.517 214.95 470.29 209.334C466.291 204.016 464.792 197.251 463.421 190.875C461.769 183.188 460.341 175.312 459.89 167.452C459.844 166.667 458.61 166.659 458.656 167.452C459.033 173.981 460.126 180.519 461.364 186.936C462.469 192.664 463.604 198.54 465.873 203.945C467.852 208.66 470.886 212.884 475.366 215.508C479.887 218.153 485.319 219.111 490.507 218.669C496.92 218.124 502.162 215.041 507.565 211.818C508.244 211.404 507.623 210.342 506.94 210.747Z" fill="#A14259"/>
<path d="M483.32 174.572C476.985 186.932 462.155 193.081 449.097 195.102C434.792 197.313 418.728 196.375 405.996 188.949C405.309 188.548 404.688 189.61 405.375 190.011C415.544 195.945 427.642 197.664 439.268 197.235C451.1 196.796 462.826 194.077 472.841 187.569C477.677 184.424 481.743 180.349 484.384 175.196C484.744 174.49 483.68 173.87 483.32 174.572Z" fill="#A14259"/>
<path d="M389.295 202.838C395.07 206.243 400.635 210.586 401.96 217.545C403.131 223.706 400.825 230.169 397.024 235.004C388.173 246.277 371.993 248.005 358.694 248.699C357.903 248.74 357.899 249.972 358.694 249.93C370.51 249.31 383.415 247.93 393.137 240.537C400.771 234.731 405.901 223.913 402.374 214.466C400.179 208.594 395.128 204.85 389.912 201.776C389.233 201.375 388.611 202.437 389.295 202.838Z" fill="#A14259"/>
<path d="M442.571 284.085C433.429 282.415 423.294 282.944 415.618 288.725C408.012 294.453 405.073 303.775 406.717 312.97C406.857 313.746 408.046 313.416 407.905 312.643C406.294 303.639 409.428 294.494 417.08 289.184C424.375 284.122 433.773 283.725 442.248 285.275C443.022 285.411 443.354 284.225 442.571 284.085Z" fill="#A14259"/>
<path d="M383.87 287.494C396.005 285.704 409.946 287.291 420.876 293.105C426.035 295.849 430.548 299.729 433.69 304.68C437.429 310.565 439.056 317.437 439.987 324.263C440.095 325.044 441.283 324.71 441.176 323.937C440.203 316.804 438.439 309.61 434.415 303.535C431.181 298.655 426.656 294.787 421.501 292.047C410.26 286.072 396.014 284.473 383.543 286.312C382.761 286.423 383.092 287.609 383.87 287.494Z" fill="#A14259"/>
<path d="M436.212 236.194C430.486 228.314 421.543 223.64 412.161 221.57C403.405 219.64 393.17 219.322 384.972 223.467C376.501 227.748 373.392 236.975 376.195 245.835C379.304 255.674 388.156 261.757 396.983 266.154C408.547 271.914 421.506 277.133 434.68 275.799C435.463 275.72 435.471 274.489 434.68 274.567C423.766 275.675 413.118 272.154 403.28 267.761C394.648 263.906 385.146 259.307 379.946 251.025C374.911 243 374.771 231.831 383.142 225.983C390.429 220.896 400.602 220.822 409.044 222.223C419.08 223.884 429.045 228.421 435.144 236.818C435.607 237.451 436.676 236.839 436.212 236.194Z" fill="#A14259"/>
<path fill-rule="evenodd" clip-rule="evenodd" d="M577.55 307.078L588.865 297.077L589.963 298.315L578.647 308.315L577.55 307.078Z" fill="white"/>
<path fill-rule="evenodd" clip-rule="evenodd" d="M577.247 314.847L588.563 304.848L589.661 306.085L578.345 316.085L577.247 314.847Z" fill="white"/>
<path fill-rule="evenodd" clip-rule="evenodd" d="M576.457 323.161L587.772 313.165L588.87 314.403L577.554 324.399L576.457 323.161Z" fill="white"/>
<path fill-rule="evenodd" clip-rule="evenodd" d="M439.957 334.009L455.04 333.076L455.143 334.724L440.06 335.657L439.957 334.009Z" fill="white"/>
<path fill-rule="evenodd" clip-rule="evenodd" d="M434.931 339.949L450.014 339.017L450.116 340.664L435.033 341.597L434.931 339.949Z" fill="white"/>
<path fill-rule="evenodd" clip-rule="evenodd" d="M429.18 346.017L444.263 345.088L444.365 346.736L429.283 347.665L429.18 346.017Z" fill="white"/>
<path fill-rule="evenodd" clip-rule="evenodd" d="M529.233 145.391L489.068 128.527L489.71 127.003L529.875 143.868L529.233 145.391Z" fill="#FCF8F1"/>
<path fill-rule="evenodd" clip-rule="evenodd" d="M496.484 158.375C496.488 158.372 496.491 158.368 496.494 158.364C496.646 158.201 496.9 157.98 497.268 157.705C497.997 157.158 499.069 156.472 500.388 155.693C503.02 154.138 506.553 152.258 510.106 150.438C513.655 148.62 517.209 146.867 519.878 145.569C521.212 144.92 522.324 144.385 523.102 144.012C523.491 143.826 523.797 143.68 524.005 143.581C524.109 143.531 524.189 143.493 524.243 143.468L524.324 143.429C524.324 143.429 524.324 143.429 523.969 142.683C523.614 141.936 523.614 141.936 523.614 141.936L523.531 141.975C523.477 142.001 523.397 142.039 523.292 142.089C523.083 142.188 522.776 142.335 522.385 142.522C521.605 142.896 520.49 143.433 519.152 144.083C516.478 145.384 512.912 147.142 509.349 148.968C505.789 150.792 502.22 152.69 499.544 154.271C498.21 155.059 497.076 155.781 496.273 156.383C495.875 156.682 495.53 156.971 495.28 157.241C495.155 157.376 495.032 157.528 494.939 157.693C494.851 157.849 494.746 158.093 494.765 158.386C494.787 158.713 494.924 159.001 495.064 159.226C495.21 159.46 495.402 159.692 495.614 159.915C496.041 160.362 496.618 160.845 497.276 161.337C498.597 162.324 500.332 163.412 502.063 164.4C503.795 165.388 505.547 166.29 506.909 166.9C507.586 167.203 508.189 167.444 508.656 167.586C508.883 167.656 509.119 167.714 509.331 167.733C509.435 167.742 509.579 167.746 509.732 167.714C509.88 167.683 510.142 167.594 510.326 167.331L510.327 167.33C511.135 166.174 510.939 164.863 510.422 163.742C509.907 162.625 509.008 161.531 508.09 160.593C507.163 159.646 506.169 158.811 505.412 158.215C505.032 157.916 504.709 157.676 504.479 157.509C504.365 157.426 504.273 157.361 504.21 157.316C504.179 157.294 504.154 157.277 504.137 157.265L504.117 157.251L504.111 157.247L504.109 157.246C504.109 157.246 504.109 157.245 503.64 157.927C503.172 158.608 503.172 158.608 503.172 158.608L503.176 158.611L503.191 158.622C503.205 158.632 503.227 158.647 503.255 158.667C503.312 158.707 503.397 158.767 503.504 158.845C503.719 159.001 504.025 159.229 504.387 159.514C505.112 160.084 506.046 160.87 506.906 161.748C507.775 162.637 508.52 163.571 508.918 164.433C509.217 165.082 509.282 165.594 509.153 166.01C509.148 166.008 509.144 166.007 509.139 166.005C508.771 165.893 508.241 165.685 507.587 165.392C506.285 164.809 504.583 163.934 502.885 162.965C501.185 161.995 499.514 160.944 498.269 160.014C497.644 159.546 497.149 159.126 496.814 158.775C496.658 158.612 496.551 158.478 496.484 158.375ZM496.382 158.503C496.383 158.503 496.383 158.503 496.383 158.502C496.38 158.507 496.38 158.508 496.382 158.503Z" fill="#FCF8F1"/>
<path fill-rule="evenodd" clip-rule="evenodd" d="M501.932 105.915C500.568 105.418 499.649 105.084 499.364 104.958L500.033 103.446C500.264 103.548 501.116 103.858 502.507 104.365C502.749 104.453 503.007 104.548 503.281 104.648C505.104 105.312 507.577 106.219 510.478 107.319C516.279 109.518 523.796 112.49 531.255 115.845C538.707 119.198 546.132 122.946 551.732 126.703C554.531 128.581 556.906 130.481 558.603 132.358C560.287 134.219 561.395 136.157 561.458 138.102C561.52 139.998 560.753 141.919 559.487 143.788C558.218 145.663 556.402 147.554 554.251 149.411C549.948 153.126 544.197 156.799 538.47 160.037C532.736 163.278 526.993 166.102 522.685 168.114C520.531 169.121 518.734 169.925 517.475 170.478C516.846 170.755 516.351 170.968 516.012 171.113C515.971 171.131 515.933 171.147 515.896 171.163C515.883 171.228 515.868 171.3 515.852 171.379C515.768 171.788 515.646 172.373 515.496 173.074C515.196 174.475 514.779 176.347 514.318 178.221C513.857 180.089 513.346 181.98 512.856 183.413C512.612 184.124 512.362 184.756 512.112 185.223C511.989 185.453 511.846 185.682 511.678 185.865C511.533 186.023 511.229 186.3 510.782 186.3C510.303 186.3 510.003 185.99 509.862 185.797C509.711 185.591 509.605 185.343 509.526 185.111C509.364 184.637 509.238 184.004 509.135 183.303C509.046 182.691 508.969 181.994 508.905 181.252C508.633 182.715 508.312 184.112 507.935 185.246C507.67 186.045 507.359 186.773 506.984 187.305C506.63 187.809 506.047 188.367 505.224 188.279C504.398 188.191 503.942 187.506 503.694 186.938C503.428 186.326 503.259 185.531 503.146 184.667C502.919 182.924 502.898 180.666 502.965 178.46C502.975 178.106 502.988 177.752 503.003 177.4C502.651 178.405 502.279 179.365 501.909 180.157C501.639 180.736 501.352 181.262 501.055 181.657C500.906 181.853 500.733 182.047 500.532 182.198C500.335 182.347 500.05 182.499 499.699 182.499C499.124 182.499 498.817 182.073 498.693 181.838C498.557 181.581 498.478 181.272 498.425 180.975C498.316 180.367 498.272 179.543 498.268 178.613C498.26 176.738 498.413 174.259 498.618 171.804C498.822 169.343 499.081 166.884 499.288 165.042C499.391 164.121 499.482 163.353 499.547 162.815C499.58 162.547 499.606 162.335 499.623 162.191C499.632 162.119 499.639 162.063 499.644 162.026L499.651 161.969C499.651 161.968 499.651 161.968 500.473 162.072C501.294 162.176 501.294 162.176 501.294 162.176L501.287 162.231C501.283 162.268 501.276 162.322 501.267 162.394C501.249 162.537 501.224 162.746 501.191 163.013C501.127 163.547 501.037 164.311 500.934 165.227C500.728 167.06 500.471 169.501 500.268 171.941C500.065 174.385 499.917 176.806 499.924 178.606C499.927 179.269 499.951 179.825 499.996 180.257C500.124 180.038 500.262 179.771 500.408 179.459C500.908 178.388 501.432 176.935 501.911 175.453C502.389 173.977 502.814 172.499 503.12 171.387C503.273 170.831 503.396 170.369 503.481 170.045C503.523 169.884 503.556 169.757 503.578 169.671C503.584 169.649 503.589 169.629 503.593 169.612C503.597 169.597 503.6 169.584 503.603 169.573L503.611 169.542L503.611 169.541L504.414 169.742C505.237 169.834 505.237 169.834 505.237 169.834L505.236 169.846L505.232 169.882C505.228 169.914 505.223 169.962 505.216 170.025C505.203 170.151 505.183 170.337 505.16 170.573C505.112 171.046 505.047 171.723 504.978 172.537C504.84 174.165 504.686 176.335 504.62 178.51C504.554 180.694 504.579 182.846 504.788 184.454C504.894 185.265 505.04 185.88 505.213 186.279C505.296 186.47 505.364 186.565 505.404 186.61C505.449 186.576 505.525 186.503 505.629 186.355C505.865 186.02 506.116 185.473 506.363 184.726C506.854 183.248 507.261 181.213 507.586 179.125C507.91 177.046 508.145 174.954 508.3 173.379C508.377 172.592 508.434 171.936 508.472 171.476C508.491 171.247 508.505 171.067 508.514 170.944C508.519 170.883 508.522 170.836 508.524 170.805L508.527 170.77L508.528 170.759C508.528 170.759 508.528 170.759 508.875 170.783L508.528 170.759L510.182 170.817L509.354 170.816C510.182 170.817 510.182 170.816 510.182 170.817L510.182 170.857L510.182 170.978C510.182 171.085 510.183 171.241 510.184 171.441C510.187 171.839 510.192 172.409 510.203 173.093C510.225 174.462 510.269 176.285 510.358 178.105C510.446 179.931 510.579 181.731 510.774 183.064C510.819 183.37 510.866 183.643 510.914 183.88C511.032 183.598 511.157 183.262 511.289 182.878C511.755 181.517 512.252 179.682 512.709 177.826C513.166 175.974 513.578 174.12 513.877 172.728C514.026 172.032 514.146 171.452 514.23 171.047C514.271 170.844 514.304 170.685 514.325 170.577L514.35 170.453L514.358 170.412L514.358 170.412C514.358 170.412 514.358 170.412 515.171 170.572C514.851 169.81 514.851 169.81 514.851 169.81L514.858 169.807L514.882 169.797C514.9 169.79 514.925 169.779 514.956 169.766L514.979 169.756C515.065 169.72 515.193 169.665 515.36 169.594C515.693 169.451 516.184 169.239 516.808 168.965C518.057 168.417 519.842 167.617 521.983 166.617C526.267 164.616 531.97 161.812 537.654 158.598C543.346 155.381 548.987 151.77 553.168 148.161C555.258 146.356 556.957 144.573 558.115 142.863C559.277 141.147 559.849 139.571 559.803 138.156C559.759 136.789 558.958 135.216 557.374 133.465C555.804 131.73 553.552 129.916 550.808 128.075C545.323 124.396 537.998 120.692 530.574 117.352C523.158 114.016 515.675 111.057 509.89 108.864C506.998 107.768 504.533 106.864 502.713 106.2C502.439 106.1 502.178 106.005 501.932 105.915ZM515.171 170.572L514.851 169.81L514.358 170.412L515.171 170.572ZM510.443 184.761C510.443 184.761 510.447 184.757 510.454 184.751C510.447 184.759 510.443 184.762 510.443 184.761ZM505.354 186.639C505.354 186.638 505.356 186.637 505.362 186.636C505.357 186.639 505.354 186.639 505.354 186.639ZM504.414 169.742L505.237 169.834L503.611 169.541L504.414 169.742Z" fill="#FCF8F1"/>
<path d="M502.096 100.004C505.644 122.228 490.47 143.109 468.204 146.651C445.937 150.192 425.017 135.047 421.469 112.823" fill="#A14259"/>
<path d="M432.916 71.4988C432.672 82.7181 441.586 92.0116 452.827 92.2513C462.763 92.4662 471.193 85.5363 473.18 76.1766C473.441 74.9493 473.59 73.6806 473.619 72.379C473.863 61.1597 464.949 51.8661 453.709 51.6264C447.858 51.4983 442.538 53.8455 438.738 57.7092C435.235 61.2671 433.032 66.1185 432.916 71.4988Z" fill="white"/>
<path d="M438.737 57.7051C443.966 68.5813 454.992 76.1972 467.905 76.4782C469.698 76.5154 471.462 76.4121 473.184 76.1765C473.445 74.9492 473.594 73.6806 473.623 72.3789C473.867 61.1597 464.953 51.8661 453.713 51.6265C447.858 51.4984 442.534 53.8414 438.737 57.7051Z" fill="#032349"/>
<path d="M472.104 58.9858C476.389 58.9858 479.863 55.5188 479.863 51.242C479.863 46.9652 476.389 43.4982 472.104 43.4982C467.819 43.4982 464.345 46.9652 464.345 51.242C464.345 55.5188 467.819 58.9858 472.104 58.9858Z" fill="#234977"/>
<path d="M469.086 44.0842C481.282 44.0842 491.17 34.2156 491.17 22.0421C491.17 9.86856 481.282 0 469.086 0C456.889 0 447.001 9.86856 447.001 22.0421C447.001 34.2156 456.889 44.0842 469.086 44.0842Z" fill="#032349"/>
<path d="M438.722 71.2565C438.775 68.8127 437.91 66.8121 436.79 66.788C435.67 66.7638 434.719 68.7253 434.666 71.169C434.613 73.6127 435.478 75.6134 436.598 75.6375C437.718 75.6617 438.669 73.7002 438.722 71.2565Z" fill="#411525"/>
<path d="M445.451 71.7084C445.504 69.2646 444.639 67.2639 443.519 67.2398C442.399 67.2156 441.448 69.1771 441.395 71.6209C441.342 74.0647 442.207 76.0654 443.327 76.0896C444.447 76.1138 445.398 74.1522 445.451 71.7084Z" fill="#411525"/>
<path fill-rule="evenodd" clip-rule="evenodd" d="M436.696 80.5801C436.696 80.5802 436.695 80.5803 436.518 79.7733C436.341 78.9664 436.341 78.9665 436.341 78.9665L436.34 78.9667L436.339 78.9668C436.342 78.9662 436.347 78.965 436.355 78.9629C436.372 78.9589 436.399 78.9518 436.435 78.9414C436.509 78.9205 436.618 78.8865 436.752 78.8366C437.021 78.7359 437.373 78.576 437.714 78.3399C438.385 77.8767 438.98 77.1591 438.933 75.9776L440.588 75.9115C440.664 77.8236 439.639 79.0204 438.657 79.6982C438.173 80.0326 437.691 80.2499 437.333 80.3836C437.153 80.451 437 80.4986 436.89 80.53C436.835 80.5457 436.79 80.5575 436.757 80.5657C436.74 80.5698 436.727 80.5731 436.717 80.5755L436.704 80.5785L436.699 80.5795L436.697 80.5799L436.696 80.5801ZM436.339 78.9668L436.339 78.9669L436.338 78.9671C436.338 78.9672 436.338 78.9671 436.339 78.9668Z" fill="#411525"/>
<path fill-rule="evenodd" clip-rule="evenodd" d="M324.761 126.166C324.761 126.166 324.761 126.166 324.466 126.939C324.172 127.711 324.172 127.711 324.173 127.711L324.25 127.74C324.301 127.76 324.377 127.788 324.476 127.826C324.675 127.9 324.968 128.01 325.346 128.15C326.102 128.431 327.196 128.834 328.553 129.324C331.267 130.305 335.031 131.636 339.235 133.036C347.624 135.83 357.825 138.921 364.906 140.035C374.092 141.48 387.376 141.385 398.313 140.936C403.792 140.711 408.701 140.397 412.24 140.139C414.009 140.009 415.437 139.894 416.423 139.811C416.915 139.77 417.298 139.737 417.557 139.714C417.687 139.702 417.786 139.693 417.853 139.687L417.954 139.678C417.954 139.678 417.954 139.678 417.877 138.855C417.8 138.032 417.8 138.032 417.8 138.032L417.702 138.041C417.637 138.047 417.539 138.056 417.41 138.067C417.153 138.09 416.774 138.123 416.284 138.164C415.303 138.247 413.882 138.361 412.119 138.49C408.593 138.747 403.702 139.061 398.245 139.284C387.309 139.733 374.172 139.819 365.164 138.402C358.235 137.312 348.152 134.263 339.759 131.468C335.572 130.074 331.821 128.748 329.117 127.77C327.765 127.282 326.675 126.88 325.924 126.601C325.548 126.462 325.257 126.353 325.06 126.279C324.961 126.242 324.886 126.213 324.836 126.194L324.761 126.166Z" fill="#FCF8F1"/>
<path fill-rule="evenodd" clip-rule="evenodd" d="M330.392 108.684L372.984 117.947L421.369 114.063L421.236 112.416L373.096 116.28L330.745 107.069L330.392 108.684Z" fill="#FCF8F1"/>
<path fill-rule="evenodd" clip-rule="evenodd" d="M316.621 147.589L335.469 83.4991L333.88 83.0335L315.032 147.124L316.621 147.589Z" fill="#FCF8F1"/>
<path fill-rule="evenodd" clip-rule="evenodd" d="M320.222 147.243L320.725 79.808L319.069 79.7957L318.566 147.231L320.222 147.243Z" fill="#FCF8F1"/>
<path fill-rule="evenodd" clip-rule="evenodd" d="M327.037 146.905L307.848 82.4657L306.261 82.9366L325.45 147.376L327.037 146.905Z" fill="#FCF8F1"/>
<path d="M311.492 102.743C311.492 102.743 328.963 109.669 329.149 111.499C329.334 113.328 313.229 109.253 313.229 109.253C313.229 109.253 332.898 114.224 332.726 116.78C332.554 119.336 313.282 114.686 313.282 114.686C313.282 114.686 330.38 118.785 329.923 121.295C329.466 123.805 312.491 120.538 312.491 120.538C312.491 120.538 308.692 119.234 308.692 112.493C308.692 105.752 311.492 102.743 311.492 102.743Z" fill="#572638"/>
<path fill-rule="evenodd" clip-rule="evenodd" d="M310.885 102.181L311.492 102.743L311.797 101.975L311.27 101.766L310.885 102.181ZM312.491 120.538C312.221 121.32 312.221 121.319 312.22 121.319L312.219 121.319L312.216 121.318L312.209 121.315C312.206 121.314 312.203 121.313 312.2 121.312C312.197 121.311 312.194 121.31 312.191 121.309C312.177 121.303 312.159 121.297 312.138 121.288C312.097 121.272 312.042 121.248 311.975 121.217C311.841 121.154 311.661 121.06 311.451 120.925C311.029 120.656 310.485 120.225 309.948 119.564C308.865 118.23 307.864 116.029 307.864 112.493C307.864 109.005 308.589 106.455 309.333 104.759C309.705 103.912 310.08 103.282 310.368 102.856C310.512 102.643 310.635 102.481 310.725 102.369C310.77 102.313 310.806 102.27 310.834 102.238C310.847 102.223 310.858 102.21 310.867 102.201L310.878 102.188L310.882 102.184L310.883 102.182L310.884 102.182C310.885 102.181 310.885 102.181 311.492 102.743C311.797 101.975 311.797 101.975 311.797 101.975L311.848 101.996C311.882 102.009 311.931 102.029 311.996 102.054C312.125 102.106 312.313 102.181 312.553 102.278C313.033 102.472 313.718 102.751 314.541 103.09C316.186 103.77 318.384 104.696 320.589 105.68C322.79 106.663 325.015 107.711 326.708 108.633C327.552 109.093 328.288 109.534 328.828 109.932C329.097 110.129 329.342 110.334 329.532 110.542C329.697 110.723 329.933 111.025 329.973 111.416C330.022 111.902 329.76 112.266 329.455 112.466C329.198 112.635 328.893 112.707 328.641 112.745C328.374 112.785 328.063 112.8 327.721 112.797C328.578 113.122 329.381 113.449 330.095 113.773C331.022 114.194 331.836 114.625 332.426 115.055C332.72 115.27 332.992 115.508 333.194 115.774C333.394 116.036 333.581 116.4 333.552 116.835C333.521 117.299 333.261 117.638 332.957 117.852C332.677 118.05 332.338 118.162 332.016 118.231C331.367 118.372 330.514 118.396 329.58 118.357C328.869 118.327 328.074 118.259 327.231 118.163C327.454 118.261 327.668 118.359 327.874 118.458C328.664 118.836 329.367 119.237 329.869 119.655C330.12 119.864 330.357 120.105 330.523 120.384C330.693 120.67 330.812 121.035 330.738 121.442C330.588 122.263 329.819 122.614 329.279 122.775C328.667 122.957 327.881 123.037 327.03 123.061C325.312 123.11 323.099 122.931 320.939 122.678C318.771 122.425 316.62 122.093 315.014 121.824C314.21 121.69 313.541 121.572 313.073 121.487C312.839 121.444 312.655 121.41 312.529 121.387C312.466 121.375 312.418 121.366 312.385 121.359L312.335 121.35L312.334 121.35C312.334 121.35 312.334 121.35 312.491 120.538ZM313.489 113.886L313.479 113.883L313.479 113.883L313.477 113.883L313.475 113.882C313.475 113.882 313.475 113.882 313.282 114.686C313.087 115.489 313.087 115.489 313.087 115.489L313.088 115.489L313.089 115.49L313.091 115.49L313.136 115.501C313.167 115.508 313.215 115.52 313.276 115.535C313.4 115.565 313.582 115.61 313.814 115.668C314.277 115.785 314.94 115.954 315.733 116.164C317.322 116.586 319.431 117.173 321.523 117.837C323.622 118.503 325.672 119.236 327.157 119.948C327.906 120.307 328.464 120.638 328.809 120.925C328.9 121.001 328.966 121.065 329.014 121.118C328.963 121.139 328.896 121.164 328.807 121.191C328.403 121.311 327.788 121.386 326.983 121.409C325.389 121.454 323.273 121.287 321.132 121.037C319 120.787 316.878 120.46 315.287 120.194C314.492 120.061 313.831 119.944 313.369 119.861C313.138 119.819 312.957 119.785 312.834 119.762C312.79 119.754 312.753 119.747 312.724 119.741C312.712 119.736 312.697 119.729 312.681 119.721C312.606 119.686 312.489 119.626 312.344 119.533C312.053 119.347 311.647 119.031 311.235 118.523C310.419 117.519 309.52 115.698 309.52 112.493C309.52 109.24 310.195 106.916 310.85 105.422C311.179 104.674 311.504 104.131 311.74 103.782C311.749 103.769 311.758 103.756 311.766 103.744C311.818 103.765 311.874 103.787 311.932 103.811C312.409 104.003 313.09 104.28 313.908 104.618C315.544 105.294 317.727 106.214 319.913 107.189C322.103 108.167 324.28 109.194 325.915 110.084C326.64 110.479 327.239 110.837 327.679 111.144C327.43 111.14 327.14 111.124 326.809 111.096C325.373 110.975 323.415 110.645 321.419 110.251C319.431 109.859 317.434 109.409 315.932 109.057C315.181 108.881 314.556 108.729 314.118 108.622C313.899 108.568 313.727 108.526 313.61 108.496C313.552 108.482 313.507 108.471 313.477 108.463L313.447 108.456L313.443 108.455L313.436 108.453L313.435 108.452L313.432 108.452C313.432 108.452 313.432 108.452 313.229 109.253C313.025 110.054 313.025 110.054 313.026 110.054L313.026 110.054L313.029 110.055L313.038 110.057L313.039 110.058L313.08 110.068C313.117 110.077 313.172 110.091 313.243 110.11C313.386 110.146 313.596 110.201 313.863 110.271C314.398 110.411 315.163 110.614 316.08 110.866C317.915 111.371 320.356 112.068 322.79 112.845C325.229 113.623 327.635 114.473 329.409 115.278C330.302 115.682 330.995 116.059 331.449 116.389C331.559 116.47 331.646 116.542 331.715 116.605C331.7 116.608 331.683 116.612 331.666 116.616C331.228 116.711 330.547 116.743 329.65 116.705C327.875 116.631 325.494 116.297 323.082 115.877C320.678 115.459 318.276 114.96 316.473 114.565C315.572 114.368 314.822 114.197 314.297 114.076C314.035 114.015 313.829 113.966 313.689 113.933C313.644 113.923 313.606 113.914 313.575 113.906C313.558 113.902 313.543 113.898 313.53 113.895L313.489 113.886ZM313.229 109.253L313.026 110.054L313.432 108.452L313.229 109.253ZM328.366 111.729C328.366 111.729 328.365 111.727 328.363 111.723C328.365 111.727 328.366 111.729 328.366 111.729ZM312.101 103.303C312.102 103.302 312.101 103.303 312.1 103.304L312.101 103.303ZM329.154 121.038C329.154 121.038 329.153 121.039 329.15 121.042C329.153 121.039 329.155 121.038 329.154 121.038ZM313.282 114.686L313.087 115.489L313.475 113.882L313.282 114.686ZM312.491 120.538L312.221 121.32L312.277 121.339L312.334 121.35L312.491 120.538Z" fill="#FCF8F1"/>
<path fill-rule="evenodd" clip-rule="evenodd" d="M322.296 80.1338L309.917 90.971V51.0726L318.267 59.3744C316.906 60.7218 316.063 62.5869 316.063 64.6477C316.063 68.757 319.414 72.0882 323.547 72.0882C325.619 72.0882 327.495 71.2504 328.85 69.8968L338.899 79.888L322.296 80.1338ZM326.734 67.7923L320.384 61.4789C319.564 62.2877 319.057 63.4088 319.057 64.6477C319.057 67.1133 321.067 69.112 323.547 69.112C324.793 69.112 325.92 68.6073 326.734 67.7923Z" fill="#E4EDFA"/>
<path d="M317.6 77.4342C317.6 78.6993 316.568 79.7249 315.295 79.7249C314.022 79.7249 312.99 78.6993 312.99 77.4342C312.99 76.1691 314.022 75.1435 315.295 75.1435C316.568 75.1435 317.6 76.1691 317.6 77.4342Z" fill="#E4EDFA"/>
<path d="M316.063 64.6472C316.063 62.5863 316.906 60.721 318.267 59.3735L320.384 61.4781C319.564 62.287 319.056 63.4082 319.056 64.6472C319.056 67.1129 321.067 69.1118 323.546 69.1118C324.793 69.1118 325.92 68.607 326.734 67.792L328.85 69.8966C327.495 71.2503 325.619 72.0882 323.546 72.0882C319.413 72.0882 316.063 68.7567 316.063 64.6472Z" fill="#234977"/>
<path d="M317.6 77.4342C317.6 78.6993 316.568 79.7249 315.295 79.7249C314.022 79.7249 312.99 78.6993 312.99 77.4342C312.99 76.1691 314.022 75.1435 315.295 75.1435C316.568 75.1435 317.6 76.1691 317.6 77.4342Z" fill="#234977"/>
<path fill-rule="evenodd" clip-rule="evenodd" d="M357.659 70.711L371.35 79.8399L332.738 90.1665L338.611 79.9679C340.267 80.9317 342.29 81.2614 344.285 80.728C348.262 79.6644 350.618 75.5721 349.549 71.5875C349.012 69.5892 347.716 67.9975 346.055 67.0413L353.123 54.7674L357.659 70.711ZM344.566 69.6267L340.1 77.3826C341.095 77.9635 342.311 78.1628 343.51 77.8421C345.896 77.204 347.31 74.7486 346.668 72.3578C346.346 71.1564 345.565 70.2 344.566 69.6267Z" fill="#AF687D"/>
<path d="M356.262 75.9373C357.487 75.6097 358.747 76.3388 359.076 77.5657C359.406 78.7927 358.68 80.0529 357.455 80.3805C356.23 80.708 354.971 79.9789 354.641 78.752C354.312 77.5251 355.038 76.2649 356.262 75.9373Z" fill="#AF687D"/>
<path d="M344.285 80.7282C342.29 81.2616 340.267 80.9319 338.611 79.9681L340.1 77.3828C341.094 77.9637 342.311 78.1629 343.51 77.8422C345.896 77.2041 347.31 74.7487 346.668 72.3579C346.346 71.1565 345.565 70.2001 344.566 69.6267L346.055 67.0414C347.716 67.9976 349.012 69.5893 349.548 71.5876C350.618 75.5722 348.261 79.6646 344.285 80.7282Z" fill="#FCF8F1"/>
<path d="M356.262 75.9373C357.487 75.6097 358.747 76.3388 359.076 77.5657C359.406 78.7927 358.68 80.0529 357.455 80.3805C356.23 80.708 354.971 79.9789 354.641 78.752C354.312 77.5251 355.038 76.2649 356.262 75.9373Z" fill="#FCF8F1"/>
<path fill-rule="evenodd" clip-rule="evenodd" d="M291.249 74.4154L295.394 58.5106L317.841 91.5255L306.261 89.3355C306.63 87.4575 306.278 85.4419 305.118 83.7367C302.806 80.3363 298.16 79.4576 294.74 81.7739C293.025 82.9355 291.944 84.6801 291.584 86.5597L277.648 83.924L291.249 74.4154ZM294.52 87.1148L303.326 88.7803C303.549 87.6516 303.338 86.4395 302.641 85.4143C301.254 83.3741 298.466 82.8468 296.414 84.2366C295.383 84.935 294.734 85.9845 294.52 87.1148Z" fill="#F96155"/>
<path d="M296.655 74.017C295.944 72.9706 296.221 71.5443 297.273 70.8312C298.326 70.1181 299.757 70.3883 300.468 71.4347C301.179 72.4811 300.903 73.9074 299.85 74.6205C298.797 75.3336 297.367 75.0634 296.655 74.017Z" fill="#F96155"/>
<path d="M305.118 83.7364C306.278 85.4417 306.63 87.4573 306.261 89.3353L303.326 88.7801C303.549 87.6514 303.338 86.4393 302.641 85.4141C301.254 83.3739 298.466 82.8466 296.414 84.2364C295.383 84.9348 294.734 85.9843 294.52 87.1146L291.584 86.5595C291.944 84.6799 293.025 82.9353 294.74 81.7736C298.16 79.4573 302.806 80.3361 305.118 83.7364Z" fill="#FCF8F1"/>
<path d="M296.655 74.017C295.944 72.9706 296.221 71.5443 297.273 70.8312C298.326 70.1181 299.757 70.3883 300.468 71.4347C301.179 72.4811 300.903 73.9074 299.85 74.6205C298.797 75.3336 297.367 75.0634 296.655 74.017Z" fill="#FCF8F1"/>
<path fill-rule="evenodd" clip-rule="evenodd" d="M212.343 95.2039C212.407 94.1222 212.44 92.975 212.422 91.8682C212.396 90.2638 212.263 88.6835 211.933 87.5066C211.77 86.925 211.537 86.3594 211.18 85.9414C210.792 85.4875 210.231 85.1888 209.541 85.2915C208.931 85.3823 208.368 85.7702 207.849 86.2868C207.315 86.8184 206.74 87.5755 206.113 88.5726L206.096 88.6001L206.081 88.6289C205.105 90.4876 203.319 93.4836 201.151 96.3921C198.969 99.3189 196.461 102.072 194.056 103.533C188.964 106.626 164.357 124.44 152.441 133.141L146.43 132.055L146.134 133.695L152.847 134.908L153.135 134.698C164.983 126.044 189.866 108.028 194.921 104.958C197.61 103.324 200.274 100.356 202.486 97.3889C204.701 94.4184 206.525 91.3631 207.54 89.4331C208.125 88.5051 208.618 87.8723 209.024 87.4685C209.448 87.0457 209.698 86.9533 209.786 86.9401C209.787 86.94 209.789 86.9396 209.79 86.939C209.801 86.9348 209.828 86.9245 209.914 87.0248C210.04 87.173 210.192 87.4673 210.329 87.9568C210.6 88.9221 210.731 90.3288 210.756 91.8952C210.781 93.446 210.702 95.094 210.578 96.5107L210.45 97.9772L211.773 97.3325C219.404 93.6121 224.228 91.6336 227.014 90.862C227.707 90.6703 228.252 90.5592 228.67 90.5115C228.973 90.4769 229.179 90.4793 229.312 90.4943C229.308 90.5056 229.303 90.5175 229.298 90.5302C229.14 90.9479 228.693 91.6011 227.932 92.4612C227.192 93.2984 226.219 94.2616 225.097 95.2918C222.853 97.3508 220.055 99.6378 217.429 101.658L218.151 103.124C228.13 100.464 234.226 99.2129 237.53 98.9235C238.352 98.8515 238.974 98.8418 239.426 98.8777C239.625 98.8935 239.773 98.917 239.881 98.9409C239.837 98.9999 239.781 99.0672 239.712 99.1429C239.226 99.6747 238.308 100.381 237.017 101.217C235.743 102.043 234.162 102.959 232.397 103.916C228.869 105.829 224.644 107.884 220.762 109.662L221.189 111.25C225.55 110.829 228.926 110.621 231.462 110.588C234.019 110.554 235.655 110.7 236.577 110.952C236.885 111.035 237.061 111.118 237.155 111.174C237.092 111.27 236.965 111.421 236.731 111.624C236.419 111.894 235.98 112.201 235.416 112.54C233.144 113.904 229.209 115.568 224.67 117.248C220.149 118.92 215.086 120.588 210.596 121.965L210.408 122.023L210.265 122.159C204.136 128.025 188.37 142.845 174.355 155.193C167.546 161.191 159.051 163.046 151.128 162.893C143.199 162.741 135.923 160.577 131.674 158.641L130.983 160.158C135.414 162.177 142.913 164.402 151.096 164.56C159.284 164.717 168.237 162.804 175.456 156.444C189.387 144.17 205.036 129.465 211.273 123.501C215.737 122.128 220.753 120.474 225.248 118.811C229.788 117.131 233.855 115.422 236.273 113.969C236.882 113.603 237.409 113.241 237.82 112.885C238.215 112.543 238.581 112.143 238.758 111.686C238.851 111.444 238.9 111.165 238.85 110.869C238.799 110.569 238.657 110.314 238.468 110.109C238.115 109.726 237.581 109.498 237.014 109.343C235.853 109.027 234.018 108.887 231.44 108.921C229.843 108.942 227.935 109.03 225.684 109.193C228.286 107.941 230.882 106.633 233.19 105.382C234.976 104.414 236.598 103.474 237.922 102.617C239.229 101.77 240.302 100.967 240.941 100.267C241.249 99.9307 241.549 99.5198 241.644 99.0614C241.696 98.8111 241.69 98.5278 241.571 98.2489C241.454 97.9722 241.255 97.7707 241.04 97.6297C240.643 97.3681 240.111 97.26 239.558 97.2161C238.978 97.17 238.255 97.1869 237.385 97.2631C234.39 97.5254 229.333 98.5232 221.573 100.507C223.215 99.173 224.821 97.8062 226.222 96.5203C227.367 95.4696 228.387 94.463 229.18 93.5656C229.953 92.691 230.581 91.8447 230.855 91.1224C230.991 90.7644 231.093 90.3024 230.938 89.8456C230.763 89.329 230.342 89.0426 229.902 88.9162C229.49 88.7979 229.003 88.7959 228.482 88.8554C227.947 88.9163 227.311 89.0503 226.57 89.2555C223.793 90.0245 219.244 91.8796 212.343 95.2039Z" fill="white"/>
<path d="M39.3979 271.43L0.162049 276.636L19.1983 351.462L23.4267 288.9L49.8194 285.279" fill="#E4EDFA"/>
<path d="M152.072 292.964L123.907 321.331L183.078 369.493L149.641 316.799L168.51 297.617" fill="#E4EDFA"/>
<path fill-rule="evenodd" clip-rule="evenodd" d="M26.8484 304.007L15.7866 293.289L16.9453 292.091L28.007 302.81L26.8484 304.007Z" fill="#001A39"/>
<path fill-rule="evenodd" clip-rule="evenodd" d="M26.9097 312.034L15.8438 301.316L17.0022 300.118L28.0681 310.836L26.9097 312.034Z" fill="#001A39"/>
<path fill-rule="evenodd" clip-rule="evenodd" d="M27.4442 320.637L16.3824 309.918L17.5411 308.721L28.6029 319.439L27.4442 320.637Z" fill="#001A39"/>
<path fill-rule="evenodd" clip-rule="evenodd" d="M160.926 326.167L145.847 324.124L146.07 322.472L161.149 324.515L160.926 326.167Z" fill="#001A39"/>
<path fill-rule="evenodd" clip-rule="evenodd" d="M165.577 332.646L150.497 330.599L150.721 328.947L165.801 330.994L165.577 332.646Z" fill="#001A39"/>
<path fill-rule="evenodd" clip-rule="evenodd" d="M170.946 339.304L155.866 337.261L156.09 335.61L171.169 337.653L170.946 339.304Z" fill="#001A39"/>
<path fill-rule="evenodd" clip-rule="evenodd" d="M78.0965 165.939C88.833 149.528 111.827 145.063 131.536 152.663C154.227 161.41 178.953 171.035 208.637 192.955C225.734 205.586 229.441 230.079 216.804 247.265L167.716 314.027C167.716 314.027 153.705 317.876 141.508 309.93C138.842 308.194 136.739 306.328 135.084 304.444C141.04 301.515 145.379 297.732 148.41 293.517C154.333 285.282 155.136 275.57 153.465 267.808C153.05 265.887 151.785 261.698 150.034 256.244L168.711 227.991L134.41 209.984C133.24 206.601 132.153 203.471 131.203 200.739C130.064 197.465 129.12 194.761 128.461 192.875C128.132 191.933 127.873 191.194 127.697 190.692L127.428 189.923C127.428 189.923 127.428 189.923 126.445 190.268C125.463 190.613 125.463 190.613 125.463 190.614L125.732 191.381C125.908 191.883 126.166 192.621 126.496 193.563C127.155 195.448 128.098 198.151 129.237 201.424C131.514 207.97 134.571 216.798 137.693 225.922C140.814 235.046 143.998 244.464 146.53 252.193C147.27 254.453 147.953 256.562 148.56 258.474C150.039 263.127 151.076 266.61 151.429 268.247C153.005 275.563 152.229 284.641 146.72 292.3C143.846 296.297 139.647 299.955 133.737 302.782C128.353 305.356 121.548 307.241 113.029 308.065L113.041 308.191L43.9611 317.62C43.9611 317.62 29.8113 310.563 30.3419 289.534C30.8725 268.506 41.0873 262.691 41.0873 262.691L94.2151 255.34C64.3207 195.364 68.1585 181.134 78.0965 165.939Z" fill="#032349"/>
<path d="M119.678 167.445C122.132 168.246 124.612 168.968 127.124 169.587C138.502 172.394 152.045 173.589 163.078 168.727C163.469 168.557 163.257 168.01 162.852 168.115C156.759 169.631 150.91 170.957 144.581 170.925C138.508 170.897 132.461 169.956 126.578 168.478C124.448 167.942 122.353 167.321 120.282 166.639L119.678 167.445Z" fill="#BACADF"/>
<path d="M103.869 218.198C94.2086 213.875 84.5599 209.558 74.0805 207.578C73.7454 207.518 73.8415 207.008 74.1758 207.06C84.4733 208.668 93.8938 212.778 103.298 217.093C114.362 222.169 126.268 227.006 138.442 228.771L138.733 229.733C135.342 229.267 131.98 228.571 128.682 227.705C120.072 225.448 111.966 221.821 103.869 218.198Z" fill="#BACADF"/>
<path d="M166.903 227.069C172.92 224.859 178.562 221.683 183.91 218.1C187.808 215.489 191.592 212.706 195.372 209.926C196.105 209.387 196.838 208.847 197.572 208.31C198.831 207.387 200.097 206.469 201.363 205.551C205.293 202.7 209.23 199.845 213.025 196.83C213.35 196.569 213.003 196.058 212.65 196.292C207.321 199.849 202.159 203.66 196.999 207.47C193.679 209.922 190.359 212.373 186.995 214.756C180.378 219.447 173.411 223.77 165.754 226.467L166.903 227.069Z" fill="#BACADF"/>
<path d="M65.0355 267.313C53.7098 268.143 42.557 271.284 32.4288 276.422C32.16 276.557 31.9261 276.1 32.1818 275.958C42.8896 270.144 54.9777 266.893 67.1334 266.3C78.0074 265.77 88.5987 267.751 98.8383 271.354C104.229 273.251 109.468 275.522 114.708 277.794C119.76 279.985 124.811 282.175 129.999 284.029C136.062 286.197 142.373 287.946 148.778 288.869C148.631 289.157 148.462 289.464 148.273 289.787C142.258 288.883 136.332 287.263 130.61 285.263C125.089 283.334 119.73 281.002 114.371 278.67C109.554 276.575 104.737 274.479 99.8033 272.676C88.587 268.576 76.9965 266.434 65.0355 267.313Z" fill="#BACADF"/>
<path d="M150.282 290.062C154.635 290.597 159.027 290.741 163.418 290.369C175.828 289.315 187.236 283.632 197.069 276.218C197.403 275.965 197.048 275.455 196.695 275.68C186.786 282.072 176.792 287.873 164.84 289.223C160.124 289.758 155.391 289.67 150.701 289.12L150.282 290.062Z" fill="#BACADF"/>
<path d="M78.733 219.672C82.2092 211.627 84.7479 202.951 85.4117 194.187C86.1567 184.326 84.3731 173.334 78.5028 165.136C78.2953 164.848 77.7597 165.093 77.926 165.439C80.33 170.346 82.5918 175.098 83.6787 180.503C84.6382 185.27 84.8311 190.167 84.4051 195.006C83.6593 203.484 80.923 211.431 78.2509 219.448C78.1551 219.757 78.5964 219.993 78.733 219.672Z" fill="#BACADF"/>
<path d="M71.6654 313.788C68.0678 305.283 65.1755 296.615 63.6774 287.472C62.9493 283.029 62.5138 278.537 62.4075 274.034C62.2984 269.344 62.8489 264.749 63.0925 260.08C63.113 259.668 62.555 259.539 62.4515 259.957C61.3635 264.265 61.3253 268.993 61.404 273.414C61.4891 278.27 61.9747 283.118 62.7978 287.904C64.3369 296.884 66.9199 305.958 71.2048 314.031C71.339 314.292 71.7798 314.063 71.6654 313.788Z" fill="#BACADF"/>
<path d="M185.058 290.694C180.916 276.822 179.368 262.182 182.139 247.885C184.71 234.616 190.527 222.41 195.409 209.905C198.16 202.855 200.797 195.426 201.779 187.886C201.832 187.468 201.238 187.358 201.138 187.763C199.33 194.911 197.427 201.912 194.771 208.803C192.336 215.128 189.62 221.339 187.203 227.671C182.299 240.517 179.168 253.736 179.968 267.568C180.427 275.499 181.95 283.369 184.567 290.872C184.678 291.197 185.156 291.016 185.058 290.694Z" fill="#BACADF"/>
<path d="M106.769 54.1554C107.45 65.4511 98.854 75.1594 87.5662 75.8403C77.588 76.4428 68.8446 69.79 66.485 60.4343C66.1752 59.2054 65.9748 57.9341 65.8965 56.6235C65.2161 45.3278 73.8119 35.6195 85.0998 34.9386C90.9745 34.5855 96.4157 36.739 100.383 40.4854C104.042 43.9351 106.442 48.7385 106.769 54.1554Z" fill="#BACADF"/>
<path d="M103.68 32.0404C103.965 36.7333 100.394 40.7647 95.704 41.0497C91.5587 41.2983 87.9269 38.5362 86.9477 34.6488C86.818 34.1369 86.7373 33.6125 86.7051 33.0674C86.4203 28.3746 89.9919 24.3432 94.6815 24.0581C97.1221 23.9119 99.3805 24.8051 101.029 26.3629C102.546 27.7936 103.542 29.7898 103.68 32.0404Z" fill="#032349"/>
<path d="M89.465 30.4992C89.6368 33.3575 87.4611 35.8149 84.6048 35.9869C82.0813 36.1399 79.8666 34.4572 79.2712 32.0894C79.1914 31.7782 79.1441 31.456 79.1209 31.1234C78.9491 28.2651 81.1248 25.8076 83.981 25.6356C85.4695 25.5468 86.8428 26.0904 87.8483 27.0405C88.7723 27.9137 89.3819 29.1304 89.465 30.4992Z" fill="#032349"/>
<path d="M106.245 52.2796C106.137 50.4831 105.057 49.0867 103.834 49.1607C102.61 49.2347 101.706 50.751 101.814 52.5474C101.923 54.3439 103.003 55.7403 104.226 55.6663C105.45 55.5924 106.354 54.0761 106.245 52.2796Z" fill="#222222"/>
<path d="M98.9017 52.9494C98.7932 51.1529 97.7134 49.7565 96.4898 49.8304C95.2662 49.9044 94.3622 51.4207 94.4706 53.2172C94.5791 55.0137 95.6589 56.41 96.8825 56.3361C98.1061 56.2621 99.0101 54.7458 98.9017 52.9494Z" fill="#222222"/>
<path d="M73.3179 56.1768C73.5668 60.2789 70.4426 63.8052 66.3434 64.0543C62.7179 64.2728 59.5449 61.8576 58.6852 58.4579C58.5733 58.0114 58.502 57.549 58.4714 57.0749C58.2225 52.9728 61.3467 49.4464 65.4459 49.1974C67.5787 49.0681 69.5565 49.8505 70.9969 51.2122C72.3278 52.4617 73.1982 54.209 73.3179 56.1768Z" fill="#BACADF"/>
<path d="M99.3984 39.9935C99.3984 39.9935 92.4269 45.0569 79.1551 43.4548L78.9929 55.8358L70.8903 54.5491C70.8903 54.5491 68.3947 47.5585 61.6672 50.5029C61.6672 50.5029 60.2455 36.4877 68.3217 33.2275C82.4312 27.5233 95.5661 33.1086 99.3984 39.9935Z" fill="#032349"/>
<path fill-rule="evenodd" clip-rule="evenodd" d="M99.8592 56.0868C99.859 56.0865 99.8589 56.0862 100.59 55.6875C101.322 55.2888 101.321 55.2885 101.321 55.2882L101.321 55.2877L101.32 55.2868L101.32 55.2859C101.32 55.2856 101.32 55.286 101.321 55.2871C101.322 55.2893 101.325 55.2941 101.329 55.3014C101.337 55.316 101.352 55.3404 101.372 55.3728C101.413 55.4377 101.477 55.5341 101.563 55.6489C101.736 55.8809 101.989 56.1753 102.314 56.4388C102.95 56.9558 103.81 57.3276 104.938 56.9477L105.47 58.5274C103.642 59.1431 102.195 58.4898 101.264 57.7328C100.804 57.3594 100.458 56.9546 100.228 56.6467C100.112 56.4916 100.024 56.3577 99.9622 56.26C99.9314 56.2111 99.9074 56.171 99.8902 56.1415C99.8816 56.1267 99.8747 56.1146 99.8695 56.1053L99.8629 56.0935L99.8606 56.0893L99.8596 56.0876L99.8592 56.0868Z" fill="#222222"/>
<path d="M116.81 124.936L68.3157 136.614C55.7863 139.63 43.1825 131.91 40.169 119.372C37.1555 106.834 44.8695 94.221 57.3989 91.2054L105.893 79.5272C118.423 76.5116 131.026 84.2311 134.04 96.7692C137.053 109.307 129.344 121.92 116.81 124.936Z" fill="#F96155"/>
<path fill-rule="evenodd" clip-rule="evenodd" d="M153.857 93.0994C161.996 90.6189 167.319 89.2874 170.517 88.8029C171.396 88.6698 172.133 88.5977 172.735 88.5861C173.322 88.5749 173.845 88.6191 174.26 88.7623C174.684 88.9086 175.165 89.2298 175.265 89.8455C175.35 90.3659 175.105 90.8301 174.888 91.1441C174.429 91.8074 173.549 92.5624 172.485 93.3428C171.394 94.1422 170.021 95.0298 168.493 95.9516C166.536 97.1311 164.306 98.3776 162.049 99.581C169.007 98.9658 173.561 98.7946 176.271 98.9517C177.082 98.9987 177.751 99.0762 178.282 99.187C178.789 99.2929 179.265 99.4472 179.609 99.7075C179.792 99.8458 179.974 100.042 180.077 100.311C180.184 100.591 180.174 100.874 180.096 101.122C179.959 101.56 179.609 101.896 179.303 102.137C178.652 102.65 177.595 103.185 176.334 103.721C175.053 104.265 173.491 104.839 171.778 105.415C169.883 106.052 167.792 106.697 165.671 107.313C167.328 107.412 168.762 107.534 169.989 107.676C172.353 107.951 174.026 108.309 175.06 108.768C175.567 108.994 176.04 109.294 176.317 109.73C176.643 110.244 176.613 110.808 176.357 111.286C176.133 111.706 175.744 112.056 175.328 112.348C174.898 112.652 174.36 112.948 173.748 113.237C171.315 114.385 167.337 115.589 162.936 116.705C158.651 117.792 153.907 118.811 149.675 119.626C135.767 146.617 132.947 151.096 121.157 167.506C116.261 174.32 110.391 176.203 105.031 175.687C99.7635 175.181 95.081 172.372 92.3554 169.935C73.7442 156.145 50.8577 127.529 41.7508 114.97L43.0989 113.991C52.2039 126.548 74.9837 155.002 93.3773 168.618L93.4089 168.641L93.4381 168.668C95.9791 170.949 100.356 173.563 105.191 174.028C109.953 174.486 115.25 172.872 119.804 166.533C131.586 150.135 134.337 145.763 148.38 118.502L148.566 118.141L148.964 118.065C153.272 117.242 158.147 116.2 162.526 115.089C166.925 113.974 170.764 112.802 173.037 111.729C173.601 111.463 174.046 111.213 174.37 110.985C174.639 110.796 174.781 110.651 174.849 110.56C174.78 110.501 174.642 110.406 174.384 110.292C173.597 109.942 172.139 109.604 169.797 109.332C167.478 109.063 164.365 108.865 160.316 108.76L160.125 107.122C163.828 106.14 167.865 104.973 171.247 103.835C172.939 103.266 174.457 102.708 175.684 102.186C176.871 101.682 177.724 101.238 178.203 100.881C178.129 100.861 178.042 100.84 177.942 100.819C177.522 100.731 176.942 100.66 176.175 100.616C173.092 100.437 167.365 100.702 157.957 101.642L157.497 100.069C160.93 98.3283 164.621 96.3402 167.633 94.5239C169.14 93.6153 170.466 92.7564 171.5 91.9981C172.489 91.2737 173.14 90.6913 173.455 90.2821C173.292 90.2604 173.068 90.2469 172.767 90.2526C172.263 90.2623 171.604 90.3241 170.767 90.451C167.403 90.9605 161.464 92.4702 151.973 95.424L149.502 96.193L151.061 94.1261C152.476 92.2499 153.852 90.201 154.748 88.4657C155.198 87.5943 155.508 86.8389 155.651 86.2451C155.807 85.6022 155.716 85.3666 155.687 85.3248C155.683 85.3194 155.679 85.3154 155.671 85.31C155.662 85.3039 155.639 85.2902 155.592 85.2768C155.491 85.2481 155.302 85.227 154.985 85.2695C154.345 85.3553 153.376 85.6728 151.992 86.3434C149.238 87.6773 145.068 90.2928 139.007 94.7147L138.912 94.7843L138.822 94.817C138.822 94.8185 138.76 94.853 138.615 94.9729C138.448 95.1121 138.218 95.3253 137.917 95.6317C137.318 96.2433 136.472 97.191 135.338 98.5782C133.071 101.351 129.677 105.845 124.827 112.84C115.121 126.841 108.15 137.674 105.883 141.331L105.275 142.312L74.1829 105.036L75.4617 103.968L105.078 139.475C107.844 135.075 114.487 124.83 123.459 111.89C128.323 104.874 131.744 100.342 134.049 97.5226C135.201 96.114 136.081 95.1247 136.728 94.4644C137.051 94.1348 137.325 93.8784 137.552 93.6901C137.716 93.554 137.903 93.4118 138.096 93.3164C144.14 88.9107 148.385 86.2386 151.266 84.8431C152.705 84.1463 153.862 83.7384 154.764 83.6174C155.647 83.4991 156.54 83.633 157.055 84.3741C157.516 85.0395 157.447 85.9061 157.27 86.6373C157.081 87.4176 156.704 88.3081 156.228 89.231C155.6 90.4471 154.765 91.7837 153.857 93.0994Z" fill="white"/>
<path fill-rule="evenodd" clip-rule="evenodd" d="M75.4618 103.968L96.5467 129.246L95.268 130.314L74.183 105.036L75.4618 103.968ZM59.2714 137.111C51.8932 128.431 45.6022 120.281 41.7509 114.97L43.099 113.991C46.9248 119.267 53.1893 127.383 60.5401 136.031L59.2714 137.111Z" fill="#001A39"/>
<path d="M121.189 274.554C121.373 285.502 124.137 296.117 128.342 306.178C128.473 306.493 127.985 306.663 127.849 306.373C122.98 295.672 120.166 284.134 120.305 272.336C120.423 262.371 122.617 252.645 125.875 243.267C127.578 238.368 129.546 233.573 131.514 228.777C132.679 225.939 133.844 223.102 134.954 220.243L135.399 221.718C134.416 224.206 133.395 226.68 132.375 229.154C130.486 233.732 128.598 238.309 126.946 242.978C123.347 253.137 121.007 263.728 121.189 274.554Z" fill="#BACADF"/>
<path d="M138.784 212.46C141.551 204.062 143.496 195.357 143.791 186.5C144.168 175.205 141.398 164.006 135.639 154.264C135.455 153.949 134.901 154.229 135.062 154.567C139.745 164.175 142.873 173.89 142.828 184.693C142.79 193.987 140.809 203.186 137.922 212.007L138.784 212.46Z" fill="#BACADF"/>
</svg>
