<svg width="279" height="356" viewBox="0 0 279 356" fill="none" xmlns="http://www.w3.org/2000/svg">
<mask id="mask0_4977_13825" style="mask-type:alpha" maskUnits="userSpaceOnUse" x="0" y="0" width="279" height="356">
<rect width="279" height="356" rx="16" fill="#BB819D"/>
</mask>
<g mask="url(#mask0_4977_13825)">
<path d="M138.374 64.5956C167.778 81.6507 149.429 99.8066 160.653 112.864C184.294 140.366 180.564 172.223 149.861 186.885C120.242 201.034 77.2141 204.853 29.0767 187.078C-17.1339 170.016 -32.2644 142 -30.9185 119.9C-29.2409 92.3247 -7.77591 72.092 42.0328 60.3275C86.572 49.8085 118.746 53.212 138.374 64.5956Z" fill="#AF687D"/>
<path d="M119.294 94.6882C117.651 121.925 138.399 145.335 165.635 146.978C166.627 147.038 167.615 147.068 168.597 147.068L171.796 93.9303L119.678 90.7867C119.501 92.0676 119.374 93.368 119.294 94.6882Z" fill="#22558E"/>
<path fill-rule="evenodd" clip-rule="evenodd" d="M144.422 128.933C143.663 129.017 143.026 129.318 142.587 129.907C141.736 131.046 141.628 132.765 141.912 134.661C142.198 136.566 142.886 138.688 143.675 140.673L143.961 140.559C143.175 138.584 142.497 136.486 142.216 134.616C141.934 132.737 142.059 131.127 142.833 130.091C143.211 129.585 143.762 129.315 144.456 129.238C145.155 129.161 145.992 129.279 146.921 129.548C148.78 130.086 150.964 131.213 153.056 132.483C155.147 133.752 157.136 135.157 158.603 136.246C159.337 136.791 159.94 137.256 160.359 137.585C160.569 137.749 160.732 137.879 160.843 137.968C160.899 138.013 160.942 138.047 160.97 138.07C160.978 138.076 160.984 138.082 160.99 138.086C160.995 138.09 160.999 138.094 161.002 138.097L161.01 138.103L161.012 138.105L161.013 138.105C161.013 138.105 161.013 138.105 161.11 137.986C161.224 137.883 161.224 137.883 161.224 137.883L161.224 137.883L161.221 137.879L161.211 137.868C161.202 137.859 161.189 137.844 161.171 137.824C161.137 137.786 161.086 137.728 161.021 137.654C160.891 137.505 160.706 137.289 160.483 137.021C160.038 136.483 159.445 135.735 158.853 134.892C158.261 134.048 157.673 133.112 157.234 132.2C156.795 131.284 156.515 130.407 156.522 129.676C156.525 129.445 156.632 129.27 156.849 129.135C157.074 128.993 157.413 128.898 157.856 128.85C158.74 128.754 159.972 128.851 161.351 129.061C164.105 129.481 167.393 130.343 169.535 130.949L169.619 130.654C167.474 130.046 164.171 129.18 161.397 128.758C160.013 128.547 158.748 128.444 157.823 128.545C157.362 128.595 156.968 128.697 156.686 128.874C156.395 129.057 156.219 129.321 156.215 129.672C156.215 129.672 156.215 129.672 156.215 129.672C156.207 130.474 156.511 131.402 156.958 132.333C157.406 133.266 158.004 134.217 158.602 135.068C159.097 135.773 159.592 136.412 160.003 136.919C159.657 136.653 159.248 136.342 158.786 136C157.315 134.907 155.317 133.496 153.216 132.22C151.117 130.946 148.905 129.803 147.007 129.253C146.058 128.979 145.177 128.849 144.422 128.933ZM161.11 137.986L161.224 137.883L161.013 138.105L161.11 137.986Z" fill="white"/>
<path d="M161.11 137.986C161.013 138.105 161.013 138.105 161.013 138.105L161.012 138.105L161.01 138.103L161.002 138.097C160.999 138.094 160.995 138.09 160.99 138.086C160.984 138.082 160.978 138.076 160.97 138.07C160.942 138.047 160.899 138.013 160.843 137.968C160.732 137.879 160.569 137.749 160.359 137.585C159.94 137.256 159.337 136.791 158.603 136.246C157.136 135.157 155.147 133.752 153.056 132.483C150.964 131.213 148.78 130.086 146.921 129.548C145.992 129.279 145.155 129.161 144.456 129.238C143.762 129.315 143.211 129.585 142.833 130.091C142.059 131.127 141.934 132.737 142.216 134.616C142.497 136.486 143.175 138.584 143.961 140.559L143.675 140.673C142.886 138.688 142.198 136.566 141.912 134.661C141.628 132.765 141.736 131.046 142.587 129.907C143.026 129.318 143.663 129.017 144.422 128.933C145.177 128.849 146.058 128.979 147.007 129.253C148.905 129.803 151.117 130.946 153.216 132.22C155.317 133.496 157.315 134.907 158.786 136C159.248 136.342 159.657 136.653 160.003 136.919C159.592 136.412 159.097 135.773 158.602 135.068C158.004 134.217 157.406 133.266 156.958 132.333C156.511 131.402 156.207 130.474 156.215 129.672M161.11 137.986C161.224 137.883 161.224 137.883 161.224 137.883M161.11 137.986L161.224 137.883M161.11 137.986L161.013 138.105L161.224 137.883M161.224 137.883L161.224 137.883L161.221 137.879L161.211 137.868C161.202 137.859 161.189 137.844 161.171 137.824C161.137 137.786 161.086 137.728 161.021 137.654C160.891 137.505 160.706 137.289 160.483 137.021C160.038 136.483 159.445 135.735 158.853 134.892C158.261 134.048 157.673 133.112 157.234 132.2C156.795 131.284 156.515 130.407 156.522 129.676C156.525 129.445 156.632 129.27 156.849 129.135C157.074 128.993 157.413 128.898 157.856 128.85C158.74 128.754 159.972 128.851 161.351 129.061C164.105 129.481 167.393 130.343 169.535 130.949L169.619 130.654C167.474 130.046 164.171 129.18 161.397 128.758C160.013 128.547 158.748 128.444 157.823 128.545C157.362 128.595 156.968 128.697 156.686 128.874C156.395 129.057 156.219 129.321 156.215 129.672M156.215 129.672L156.369 129.674M156.215 129.672C156.215 129.672 156.215 129.672 156.215 129.672Z" stroke="white" stroke-width="0.5" stroke-miterlimit="10"/>
<path fill-rule="evenodd" clip-rule="evenodd" d="M147.785 97.7581C147.892 98.2249 148.064 98.6296 148.329 98.9237C148.667 99.2996 149.229 99.358 149.832 99.2966C150.445 99.2341 151.162 99.0411 151.868 98.8453C151.914 98.8325 151.96 98.8198 152.006 98.807C152.671 98.6222 153.323 98.4412 153.889 98.358C154.191 98.3136 154.461 98.2982 154.691 98.3227C154.921 98.3472 155.101 98.4105 155.232 98.5148C155.249 98.5286 155.284 98.5778 155.27 98.7339C155.257 98.8824 155.204 99.0853 155.11 99.3423C154.922 99.8542 154.585 100.541 154.151 101.36C153.772 102.073 153.323 102.88 152.838 103.751C152.767 103.878 152.695 104.007 152.623 104.137C152.056 105.155 151.451 106.25 150.863 107.371C149.687 109.611 148.576 111.966 147.978 114.039C147.679 115.076 147.506 116.049 147.521 116.908C147.536 117.766 147.74 118.52 148.205 119.102C148.675 119.69 149.391 120.018 150.26 120.155C151.128 120.292 152.164 120.24 153.294 120.057C155.556 119.689 158.235 118.787 160.794 117.751C163.356 116.714 165.807 115.541 167.617 114.627C168.522 114.17 169.268 113.778 169.787 113.5C170.046 113.361 170.25 113.25 170.388 113.175C170.457 113.137 170.51 113.108 170.545 113.088C170.563 113.078 170.577 113.07 170.586 113.065L170.6 113.058C170.6 113.058 170.6 113.058 170.525 112.924C170.45 112.79 170.45 112.79 170.45 112.79L170.447 112.791L170.437 112.797C170.428 112.802 170.414 112.809 170.397 112.819C170.361 112.839 170.309 112.868 170.24 112.905C170.103 112.981 169.901 113.091 169.642 113.229C169.125 113.506 168.382 113.898 167.479 114.353C165.673 115.265 163.23 116.434 160.679 117.466C158.126 118.499 155.473 119.391 153.245 119.753C152.131 119.935 151.131 119.982 150.307 119.852C149.484 119.722 148.851 119.419 148.445 118.911C148.036 118.398 147.843 117.718 147.828 116.902C147.814 116.086 147.978 115.145 148.273 114.124C148.862 112.082 149.961 109.75 151.135 107.514C151.721 106.396 152.325 105.305 152.891 104.287C152.964 104.157 153.035 104.028 153.106 103.9C153.591 103.03 154.042 102.22 154.422 101.504C154.857 100.685 155.202 99.9814 155.398 99.4482C155.496 99.1826 155.56 98.9494 155.576 98.7603C155.592 98.5787 155.567 98.3888 155.423 98.2744C155.231 98.122 154.989 98.0457 154.724 98.0174C154.458 97.9891 154.16 98.0078 153.844 98.0541C153.258 98.1403 152.589 98.3264 151.93 98.5095C151.882 98.5228 151.834 98.5361 151.786 98.5493C151.075 98.7466 150.384 98.9317 149.801 98.991C149.209 99.0513 148.788 98.975 148.557 98.7184C148.34 98.4775 148.185 98.1286 148.085 97.6898C147.985 97.2522 147.942 96.736 147.944 96.1718C147.947 95.0434 148.127 93.742 148.358 92.532L148.056 92.4745C147.824 93.6923 147.64 95.0149 147.637 96.1709C147.635 96.749 147.678 97.2902 147.785 97.7581Z" fill="white" stroke="white" stroke-width="0.5" stroke-miterlimit="10"/>
<path fill-rule="evenodd" clip-rule="evenodd" d="M112.129 66.7653C111.968 66.6818 111.801 66.6226 111.64 66.6222L111.639 67.0828C111.694 67.083 111.784 67.1053 111.917 67.1741C112.046 67.2412 112.198 67.3433 112.371 67.4801C112.717 67.7535 113.127 68.1491 113.578 68.6317C114.479 69.5957 115.524 70.8845 116.519 72.1783C117.513 73.4709 118.454 74.764 119.146 75.7342C119.492 76.2192 119.776 76.6233 119.974 76.9061C120.072 77.0475 120.149 77.1586 120.202 77.2342C120.228 77.272 120.248 77.301 120.261 77.3205L120.281 77.3498C120.282 77.3498 120.282 77.3499 120.471 77.2196L120.281 77.3498L120.332 77.4239L133.386 80.4313L133.49 79.9824L120.61 77.0152C120.602 77.0024 120.592 76.9881 120.581 76.9722C120.528 76.896 120.451 76.7844 120.352 76.6425C120.153 76.3586 119.868 75.9531 119.521 75.4666C118.827 74.4937 117.883 73.1959 116.884 71.8974C115.887 70.6 114.831 69.2974 113.915 68.3171C113.457 67.8275 113.029 67.4128 112.657 67.1186C112.47 66.9715 112.293 66.8505 112.129 66.7653Z" fill="white"/>
<path d="M120.281 77.3498C120.282 77.3498 120.282 77.3499 120.471 77.2196L120.281 77.3498ZM120.281 77.3498L120.332 77.4239L133.386 80.4313L133.49 79.9824L120.61 77.0152C120.602 77.0024 120.592 76.9881 120.581 76.9722C120.528 76.896 120.451 76.7844 120.352 76.6425C120.153 76.3586 119.868 75.9531 119.521 75.4666C118.827 74.4937 117.883 73.1959 116.884 71.8974C115.887 70.6 114.831 69.2974 113.915 68.3171C113.457 67.8275 113.029 67.4128 112.657 67.1186C112.47 66.9715 112.293 66.8505 112.129 66.7653C111.968 66.6818 111.801 66.6226 111.64 66.6222L111.639 67.0828C111.694 67.083 111.784 67.1053 111.917 67.1741C112.046 67.2412 112.198 67.3433 112.371 67.4801C112.717 67.7535 113.127 68.1491 113.578 68.6317C114.479 69.5957 115.524 70.8845 116.519 72.1783C117.513 73.4709 118.454 74.764 119.146 75.7342C119.492 76.2192 119.776 76.6233 119.974 76.9061C120.072 77.0475 120.149 77.1586 120.202 77.2342C120.228 77.272 120.248 77.301 120.261 77.3205L120.281 77.3498Z" stroke="white" stroke-width="0.5" stroke-miterlimit="10"/>
<path d="M67.5181 188.197L94.579 186.291C94.579 186.291 90.5806 182.194 87.8697 181.886C87.8697 181.886 100.493 158.099 102.286 148.217C103.483 141.623 102.4 135.365 102.4 135.365L105.221 146.752L103.713 185.65L131.855 183.667C131.855 183.667 126.446 180.365 123.934 180.044C123.934 180.044 125.626 150.921 124.53 143.829C123.433 136.736 120.98 106.682 109.591 96.8694C101.505 89.8963 89.7257 90.7259 82.6164 102.91C76.121 114.041 80.8405 145.445 80.8405 145.445L67.5181 188.197Z" fill="#153B67"/>
<path fill-rule="evenodd" clip-rule="evenodd" d="M105.377 147.542L98.701 114.506L98.1727 114.606L104.849 147.642L105.377 147.542Z" fill="#AF687D"/>
<path d="M254.975 48.9615L268.274 58.8234C271.84 61.468 276.92 59.1252 277.229 54.7L278.253 39.9531C278.47 36.8572 276.137 34.1702 273.041 33.953C272.293 33.901 271.542 33.999 270.832 34.2403L256.501 39.1271C252.219 40.5879 251.338 46.2627 254.975 48.9615Z" fill="#22558E"/>
<path d="M264.679 38.2299L259.402 29.4882C259.402 29.4882 261.735 25.7165 259.661 23.6604C257.586 21.6043 255.765 24.1798 255.765 24.1798C255.765 24.1798 252.574 21.5649 248.837 23.4775C245.101 25.39 244.539 28.5172 245.795 31.6088C247.978 36.9895 251.55 36.954 256.843 33.7775L260.533 39.404" fill="#FFF5EB"/>
<path d="M257.341 22.9683C257.341 22.9683 256.137 18.5308 250.355 19.6719C244.572 20.813 244.51 23.0638 242.067 22.8892C239.624 22.7146 240.297 29.8223 246.555 28.2529C252.812 26.6835 252.464 26.392 252.464 26.392C252.464 26.392 253.608 29.0509 255.077 28.2624C256.546 27.474 255.949 24.491 255.949 24.491" fill="#032349"/>
<path fill-rule="evenodd" clip-rule="evenodd" d="M248.343 33.9742L247.871 31.5187L247.419 31.6056L247.891 34.0611L248.343 33.9742Z" fill="#032349"/>
<path d="M249.531 31.9833C249.164 32.0619 248.802 31.8278 248.724 31.4605C248.645 31.0931 248.879 30.7316 249.247 30.653C249.614 30.5744 249.976 30.8085 250.054 31.1759C250.133 31.5433 249.899 31.9047 249.531 31.9833Z" fill="#032349"/>
<path d="M246.742 32.6748C246.375 32.7534 246.014 32.5192 245.935 32.1518C245.856 31.7845 246.091 31.423 246.458 31.3444C246.825 31.2658 247.187 31.4999 247.265 31.8673C247.344 32.2347 247.11 32.5963 246.742 32.6748Z" fill="#032349"/>
<path fill-rule="evenodd" clip-rule="evenodd" d="M253.98 52.2467C253.981 52.2467 253.981 52.2466 253.905 52.0292C253.829 51.8118 253.829 51.8118 253.829 51.8118L253.817 51.8158L253.782 51.8279C253.751 51.8386 253.705 51.8544 253.645 51.8751C253.524 51.9164 253.347 51.9767 253.119 52.0529C252.663 52.2052 252.006 52.4207 251.204 52.6732C249.599 53.1782 247.412 53.8309 245.083 54.422C242.753 55.0133 240.285 55.5415 238.118 55.7994C237.034 55.9284 236.031 55.9892 235.159 55.9577C234.285 55.9262 233.559 55.8022 233.022 55.5719L232.841 55.9952C233.452 56.2576 234.242 56.3856 235.142 56.4181C236.045 56.4507 237.075 56.3875 238.172 56.2568C240.368 55.9955 242.857 55.462 245.196 54.8685C247.536 54.2746 249.732 53.6193 251.342 53.1126C252.148 52.8592 252.807 52.6428 253.265 52.4898C253.494 52.4132 253.673 52.3525 253.794 52.3109C253.855 52.2901 253.901 52.2741 253.933 52.2632L253.968 52.2509L253.98 52.2467Z" fill="#032349" stroke="#032349" stroke-width="0.5" stroke-miterlimit="10"/>
<path d="M182.328 72.4681L239.128 67.1976C235.302 45.012 216.932 28.4118 194.915 26.4399C192.709 26.2413 190.49 26.1899 188.277 26.2896C187.482 26.3261 186.684 26.3807 185.883 26.4546C183.284 26.6949 180.708 27.1407 178.18 27.7882L181.202 60.351L181.638 65.0377L182.328 72.4681Z" fill="#F96155"/>
<path d="M123.965 86.866L165.408 85.7742L164.228 40.9092C142.009 45.0371 125.155 63.971 123.965 86.866Z" fill="#B1E4FD"/>
<path d="M205.729 87.0246L226.837 135.898C250.02 124.217 260.352 96.3428 249.927 72.2051C249.405 70.9947 248.839 69.8157 248.229 68.6694L205.729 87.0246Z" fill="#FBC73B"/>
<path fill-rule="evenodd" clip-rule="evenodd" d="M213.52 33.7973C214.795 33.3463 216.598 33.1582 218.797 33.8179C219.883 34.1434 221.441 35.0466 223.187 36.2411C224.926 37.4305 226.827 38.8924 228.59 40.3145C230.354 41.7362 231.977 43.1161 233.16 44.1408C233.751 44.6531 234.232 45.0764 234.565 45.3716C234.732 45.5192 234.861 45.6347 234.949 45.7133C234.993 45.7526 235.027 45.7827 235.049 45.8029L235.083 45.8333C235.083 45.8334 235.083 45.8334 235.237 45.6624C235.296 45.8851 235.296 45.8851 235.296 45.8851L235.472 45.839C235.587 45.8089 235.756 45.7647 235.971 45.7084C236.403 45.5959 237.021 45.4352 237.77 45.2422C239.268 44.8562 241.286 44.3413 243.369 43.8256C245.452 43.3098 247.598 42.7935 249.351 42.4046C250.228 42.2101 251.006 42.0479 251.627 41.9335C252.254 41.818 252.706 41.7546 252.942 41.7515L252.936 41.2909C252.655 41.2946 252.166 41.3658 251.543 41.4805C250.914 41.5963 250.131 41.7599 249.252 41.9549C247.493 42.345 245.342 42.8623 243.258 43.3784C241.174 43.8946 239.154 44.4099 237.655 44.7961C236.906 44.9892 236.287 45.1501 235.855 45.2627C235.639 45.319 235.47 45.3632 235.355 45.3934L235.299 45.4081C235.286 45.3965 235.272 45.3838 235.256 45.37C235.168 45.291 235.038 45.1749 234.871 45.0268C234.537 44.7307 234.054 44.3062 233.462 43.7926C232.276 42.7656 230.648 41.382 228.88 39.9558C227.111 38.5301 225.2 37.0599 223.447 35.8609C221.702 34.6668 220.091 33.7249 218.93 33.3767C216.637 32.689 214.734 32.8793 213.367 33.363C212.685 33.6045 212.135 33.9196 211.737 34.2366C211.349 34.5452 211.075 34.8807 210.999 35.1742C210.976 35.2649 210.974 35.3709 210.982 35.4752C210.989 35.5835 211.007 35.7081 211.034 35.8444C211.087 36.1172 211.175 36.4516 211.289 36.8221C211.517 37.5638 211.852 38.4663 212.225 39.3403C212.598 40.2134 213.012 41.0655 213.4 41.7039C213.593 42.0222 213.785 42.2955 213.966 42.4929C214.057 42.5915 214.151 42.6772 214.246 42.74C214.34 42.8018 214.452 42.8521 214.575 42.8544C214.703 42.8569 214.816 42.8081 214.902 42.7229C214.981 42.6439 215.031 42.5414 215.064 42.4403C215.129 42.2393 215.148 41.973 215.145 41.6831C215.141 41.3881 215.112 41.0459 215.066 40.6819C215.335 41.4202 215.621 42.1327 215.897 42.6837C216.062 43.013 216.229 43.297 216.394 43.4952C216.476 43.594 216.566 43.682 216.663 43.7421C216.763 43.8028 216.888 43.8451 217.025 43.8158C217.277 43.7618 217.401 43.5244 217.466 43.3205C217.537 43.0991 217.574 42.8113 217.589 42.4931C217.621 41.853 217.57 41.0285 217.49 40.2213C217.467 39.99 217.441 39.7593 217.414 39.5337C217.492 39.7491 217.573 39.9686 217.657 40.1875C217.944 40.946 218.26 41.7059 218.554 42.2649C218.701 42.5426 218.848 42.7831 218.991 42.9499C219.063 43.0328 219.142 43.1089 219.23 43.16C219.32 43.2119 219.439 43.2491 219.568 43.2115C219.774 43.1516 219.884 42.9622 219.947 42.7978C220.014 42.6217 220.055 42.3984 220.08 42.1565C220.132 41.6699 220.124 41.0521 220.093 40.4523C220.062 39.8502 220.006 39.2563 219.959 38.8137C219.935 38.5922 219.913 38.4081 219.897 38.2792C219.889 38.2148 219.883 38.1641 219.878 38.1295C219.876 38.1122 219.874 38.0989 219.873 38.0898L219.872 38.0795L219.871 38.0769L219.871 38.0761L219.871 38.0759C219.871 38.0759 219.871 38.0759 219.643 38.1069C219.415 38.1379 219.415 38.1379 219.415 38.138L219.415 38.1386L219.415 38.141L219.416 38.1507C219.418 38.1593 219.419 38.1722 219.421 38.189C219.426 38.2228 219.432 38.2724 219.44 38.3358C219.456 38.4626 219.477 38.6442 219.501 38.8629C219.548 39.3007 219.602 39.8855 219.633 40.4762C219.664 41.0692 219.67 41.6582 219.622 42.1083C219.599 42.3348 219.562 42.5124 219.516 42.634C219.49 42.7039 219.466 42.7387 219.452 42.7555C219.427 42.7386 219.389 42.7061 219.341 42.6498C219.232 42.5226 219.103 42.3186 218.962 42.0501C218.681 41.5168 218.374 40.7782 218.087 40.024C217.802 39.2718 217.54 38.5117 217.349 37.9391C217.254 37.653 217.177 37.414 217.123 37.2466C217.096 37.163 217.076 37.0972 217.061 37.0525C217.054 37.0301 217.049 37.013 217.045 37.0015L217.04 36.9852L217.04 36.9845L217.04 36.9843C217.04 36.9842 217.04 36.9842 216.82 37.0524C216.593 37.0926 216.593 37.0926 216.593 37.0926L216.593 37.0928L216.594 37.0936L216.596 37.1102C216.598 37.122 216.602 37.1396 216.605 37.1626C216.613 37.2086 216.625 37.2763 216.639 37.3626C216.668 37.5352 216.708 37.7822 216.753 38.0793C216.842 38.674 216.952 39.4677 217.031 40.2668C217.111 41.0683 217.159 41.8654 217.129 42.4705C217.114 42.775 217.08 43.0157 217.028 43.1801C216.984 43.3163 216.944 43.3537 216.931 43.3629C216.926 43.361 216.917 43.3571 216.904 43.3494C216.867 43.3262 216.814 43.2802 216.748 43.2011C216.618 43.0435 216.469 42.7967 216.309 42.4774C215.991 41.8422 215.652 40.9692 215.34 40.0809C215.029 39.1945 214.748 38.3009 214.545 37.6283C214.443 37.2921 214.361 37.0115 214.304 36.815C214.275 36.7168 214.253 36.6396 214.238 36.5871C214.231 36.5608 214.225 36.5407 214.221 36.5272L214.217 36.5119L214.217 36.5106L214.217 36.5104L214.216 36.5081L214.216 36.5072L214.216 36.507C214.216 36.5069 214.216 36.5069 213.994 36.5688C213.771 36.6274 213.771 36.6274 213.771 36.6274L213.771 36.6276L213.771 36.6283L213.772 36.6308L213.772 36.6315L213.776 36.6442C213.778 36.6555 213.783 36.6724 213.788 36.6944C213.8 36.7385 213.816 36.8033 213.837 36.8859C213.879 37.051 213.937 37.2871 214.003 37.5704C214.137 38.1374 214.304 38.8919 214.439 39.6445C214.575 40.4002 214.677 41.1423 214.684 41.6892C214.688 41.9661 214.666 42.1711 214.625 42.2987C214.607 42.3565 214.588 42.3832 214.58 42.3933C214.57 42.3916 214.544 42.3844 214.499 42.3551C214.446 42.3202 214.381 42.2635 214.305 42.181C214.153 42.016 213.98 41.7719 213.793 41.4648C213.422 40.8524 213.017 40.0223 212.649 39.1594C212.28 38.2974 211.951 37.4103 211.729 36.6867C211.618 36.3246 211.534 36.0074 211.486 35.7569C211.462 35.6315 211.447 35.5266 211.441 35.4434C211.435 35.3561 211.44 35.3085 211.445 35.2895C211.483 35.1442 211.659 34.8875 212.024 34.5969C212.378 34.3145 212.882 34.0232 213.52 33.7973ZM213.994 36.5688L213.771 36.6274L214.216 36.507L213.994 36.5688ZM216.82 37.0524L216.593 37.0926L217.04 36.9843L216.82 37.0524ZM235.237 45.6624L235.296 45.8851L235.176 45.9168L235.083 45.8334L235.237 45.6624Z" fill="#032349"/>
<path d="M235.237 45.6624C235.083 45.8334 235.083 45.8334 235.083 45.8333L235.049 45.8029C235.027 45.7827 234.993 45.7526 234.949 45.7133C234.861 45.6347 234.732 45.5192 234.565 45.3716C234.232 45.0764 233.751 44.6531 233.16 44.1408C231.977 43.1161 230.354 41.7362 228.59 40.3145C226.827 38.8924 224.926 37.4305 223.187 36.2411C221.441 35.0466 219.883 34.1434 218.797 33.8179C216.598 33.1582 214.795 33.3463 213.52 33.7973C212.882 34.0232 212.378 34.3145 212.024 34.5969C211.659 34.8875 211.483 35.1442 211.445 35.2895C211.44 35.3085 211.435 35.3561 211.441 35.4434C211.447 35.5266 211.462 35.6315 211.486 35.7569C211.534 36.0074 211.618 36.3246 211.729 36.6867C211.951 37.4103 212.28 38.2974 212.649 39.1594C213.017 40.0223 213.422 40.8524 213.793 41.4648C213.98 41.7719 214.153 42.016 214.305 42.181C214.381 42.2635 214.446 42.3202 214.499 42.3551C214.544 42.3844 214.57 42.3916 214.58 42.3933C214.588 42.3832 214.607 42.3565 214.625 42.2987C214.666 42.1711 214.688 41.9661 214.684 41.6892C214.677 41.1423 214.575 40.4002 214.439 39.6445C214.304 38.8919 214.137 38.1374 214.003 37.5704C213.937 37.2871 213.879 37.051 213.837 36.8859C213.816 36.8033 213.8 36.7385 213.789 36.6944C213.783 36.6724 213.778 36.6555 213.776 36.6442L213.772 36.6315L213.772 36.6308L213.771 36.6283L213.771 36.6276L213.771 36.6274M235.237 45.6624C235.296 45.8851 235.296 45.8851 235.296 45.8851L235.472 45.839C235.587 45.8089 235.756 45.7647 235.971 45.7084C236.403 45.5959 237.021 45.4352 237.77 45.2422C239.268 44.8562 241.286 44.3413 243.369 43.8256C245.452 43.3098 247.598 42.7935 249.351 42.4046C250.228 42.2101 251.006 42.0479 251.627 41.9335C252.254 41.818 252.706 41.7546 252.942 41.7515L252.936 41.2909C252.655 41.2946 252.166 41.3658 251.543 41.4805C250.914 41.5963 250.131 41.7599 249.252 41.9549C247.493 42.345 245.342 42.8623 243.258 43.3784C241.174 43.8946 239.154 44.4099 237.655 44.7961C236.906 44.9892 236.287 45.1501 235.855 45.2627C235.639 45.319 235.47 45.3632 235.355 45.3934L235.299 45.4081C235.286 45.3965 235.272 45.3838 235.256 45.37C235.168 45.291 235.038 45.1749 234.871 45.0268C234.537 44.7307 234.054 44.3062 233.462 43.7926C232.276 42.7656 230.648 41.382 228.88 39.9558C227.111 38.5301 225.2 37.0599 223.447 35.8609C221.702 34.6668 220.091 33.7249 218.93 33.3767C216.637 32.689 214.734 32.8793 213.367 33.363C212.684 33.6045 212.135 33.9196 211.737 34.2366C211.349 34.5452 211.075 34.8807 210.999 35.1742C210.976 35.2649 210.974 35.3709 210.982 35.4752C210.989 35.5835 211.007 35.7081 211.034 35.8444C211.087 36.1172 211.175 36.4516 211.289 36.8221C211.517 37.5638 211.852 38.4663 212.225 39.3403C212.598 40.2134 213.012 41.0655 213.4 41.7039C213.593 42.0222 213.785 42.2955 213.966 42.4929C214.057 42.5915 214.151 42.6772 214.246 42.74C214.34 42.8018 214.452 42.8521 214.575 42.8544C214.703 42.8569 214.816 42.8081 214.902 42.7229C214.981 42.6439 215.031 42.5414 215.064 42.4403C215.129 42.2393 215.148 41.973 215.145 41.6831C215.141 41.3881 215.112 41.0459 215.066 40.6819C215.335 41.4202 215.621 42.1327 215.897 42.6837C216.062 43.013 216.229 43.297 216.394 43.4952C216.476 43.594 216.566 43.682 216.663 43.7421C216.763 43.8028 216.888 43.8451 217.025 43.8158C217.277 43.7618 217.401 43.5244 217.466 43.3205C217.537 43.0991 217.574 42.8113 217.589 42.4931C217.621 41.853 217.57 41.0285 217.49 40.2213C217.467 39.99 217.441 39.7593 217.414 39.5337C217.492 39.7491 217.573 39.9686 217.657 40.1875C217.944 40.946 218.26 41.7059 218.554 42.2649C218.701 42.5426 218.848 42.7831 218.991 42.9499C219.063 43.0328 219.142 43.1089 219.23 43.16C219.32 43.2119 219.439 43.2491 219.568 43.2115C219.774 43.1516 219.884 42.9622 219.947 42.7978C220.014 42.6217 220.055 42.3984 220.08 42.1565C220.132 41.6699 220.124 41.0521 220.093 40.4523C220.062 39.8502 220.006 39.2563 219.959 38.8137C219.935 38.5922 219.913 38.4081 219.897 38.2792C219.889 38.2148 219.883 38.1641 219.878 38.1295C219.876 38.1122 219.874 38.0989 219.873 38.0898L219.872 38.0795L219.871 38.0769L219.871 38.0761L219.871 38.0759C219.871 38.0759 219.871 38.0759 219.643 38.1069C219.415 38.1379 219.415 38.1379 219.415 38.138L219.415 38.1386L219.415 38.141L219.416 38.1507C219.418 38.1593 219.419 38.1722 219.421 38.189C219.426 38.2228 219.432 38.2724 219.44 38.3358C219.456 38.4626 219.477 38.6442 219.501 38.8629C219.548 39.3007 219.602 39.8855 219.633 40.4762C219.664 41.0692 219.67 41.6582 219.622 42.1083C219.599 42.3348 219.562 42.5124 219.516 42.634C219.49 42.7039 219.466 42.7387 219.452 42.7555C219.427 42.7386 219.389 42.7061 219.341 42.6498C219.232 42.5226 219.103 42.3186 218.962 42.0501C218.681 41.5168 218.374 40.7782 218.087 40.024C217.802 39.2718 217.54 38.5117 217.349 37.9391C217.254 37.653 217.177 37.414 217.123 37.2466C217.096 37.163 217.076 37.0972 217.061 37.0525C217.054 37.0301 217.049 37.013 217.045 37.0015L217.04 36.9852L217.04 36.9845L217.04 36.9843M235.237 45.6624L235.296 45.8851L235.176 45.9168L235.083 45.8334L235.237 45.6624ZM217.04 36.9843C217.04 36.9842 217.04 36.9842 216.82 37.0524M217.04 36.9843L216.593 37.0926M217.04 36.9843L216.82 37.0524M216.82 37.0524C216.593 37.0926 216.593 37.0926 216.593 37.0926M216.82 37.0524L216.593 37.0926M216.593 37.0926L216.593 37.0928L216.594 37.0936L216.596 37.1102C216.598 37.122 216.602 37.1396 216.605 37.1626C216.613 37.2086 216.625 37.2763 216.639 37.3626C216.668 37.5352 216.708 37.7822 216.753 38.0793C216.842 38.674 216.952 39.4677 217.031 40.2668C217.111 41.0683 217.159 41.8654 217.129 42.4705C217.114 42.775 217.08 43.0157 217.028 43.1801C216.984 43.3163 216.944 43.3537 216.931 43.3629C216.926 43.361 216.917 43.3571 216.904 43.3494C216.867 43.3262 216.814 43.2802 216.748 43.2011C216.618 43.0435 216.469 42.7967 216.309 42.4774C215.991 41.8422 215.652 40.9692 215.34 40.0809C215.029 39.1945 214.748 38.3009 214.545 37.6283C214.443 37.2921 214.361 37.0115 214.304 36.815C214.275 36.7168 214.253 36.6396 214.238 36.5871C214.231 36.5608 214.225 36.5407 214.221 36.5272L214.217 36.5119L214.217 36.5106L214.217 36.5104L214.216 36.5081L214.216 36.5072L214.216 36.507M214.216 36.507C214.216 36.5069 214.216 36.5069 213.994 36.5688M214.216 36.507L213.771 36.6274M214.216 36.507L213.994 36.5688M213.994 36.5688C213.771 36.6274 213.771 36.6274 213.771 36.6274M213.994 36.5688L213.771 36.6274M216.938 43.3647C216.938 43.3646 216.937 43.3645 216.936 43.3645" stroke="#032349" stroke-width="0.5" stroke-miterlimit="10"/>
<path fill-rule="evenodd" clip-rule="evenodd" d="M141.595 78.0062C141.573 78.0366 141.545 78.0861 141.515 78.1606C141.443 78.3388 141.377 78.6059 141.318 78.9441C141.202 79.6166 141.126 80.5183 141.076 81.4279C141.025 82.3356 141.002 83.2434 140.991 83.9247C140.986 84.2653 140.983 84.549 140.982 84.7474C140.982 84.8466 140.982 84.9245 140.982 84.9775C140.982 84.9897 140.982 85.0006 140.982 85.0102C140.982 85.0213 140.982 85.0306 140.982 85.038L140.982 85.0581L140.982 85.0584C140.982 85.0584 140.982 85.0584 140.752 85.0593L140.982 85.0584L140.522 85.0836L140.752 85.0593C140.522 85.0836 140.522 85.0836 140.522 85.0836L140.522 85.0801L140.521 85.069C140.52 85.0592 140.518 85.0445 140.516 85.0253C140.512 84.9869 140.505 84.9304 140.497 84.8584C140.48 84.7143 140.454 84.5084 140.421 84.2614C140.354 83.767 140.256 83.1099 140.131 82.4558C140.005 81.7992 139.853 81.1562 139.681 80.6852C139.594 80.448 139.508 80.2691 139.425 80.1556C139.367 80.0752 139.329 80.052 139.314 80.0454C139.311 80.0482 139.306 80.0523 139.301 80.0581C139.274 80.0861 139.24 80.1376 139.201 80.2216C139.123 80.3891 139.049 80.6385 138.981 80.9546C138.847 81.5831 138.749 82.4231 138.679 83.2703C138.608 84.1155 138.565 84.9596 138.54 85.5931C138.527 85.9096 138.519 86.1732 138.514 86.3575C138.511 86.4497 138.51 86.522 138.509 86.5712C138.508 86.5819 138.508 86.5914 138.508 86.5998C138.508 86.6109 138.508 86.6201 138.507 86.6273L138.507 86.646L138.507 86.6462C138.507 86.6462 138.507 86.6462 138.277 86.6421C138.047 86.638 138.047 86.638 138.047 86.6379L138.047 86.6181C138.047 86.6051 138.048 86.5859 138.048 86.561C138.049 86.511 138.051 86.4379 138.054 86.345C138.059 86.159 138.067 85.8935 138.08 85.5747C138.105 84.9375 138.148 84.0862 138.22 83.232C138.291 82.3798 138.391 81.5164 138.531 80.8585C138.601 80.5314 138.683 80.2419 138.783 80.0273C138.833 79.9202 138.892 79.8199 138.966 79.7419C139.04 79.6632 139.143 79.5925 139.276 79.5832C139.512 79.5665 139.685 79.7299 139.798 79.8849C139.918 80.0497 140.022 80.2753 140.114 80.527C140.294 81.0203 140.448 81.6705 140.573 82.3161C140.585 82.0175 140.599 81.7101 140.616 81.4025C140.666 80.4886 140.744 79.5654 140.864 78.8658C140.924 78.518 140.997 78.2123 141.088 77.9878C141.133 77.8763 141.188 77.7709 141.258 77.6893C141.329 77.6071 141.435 77.5272 141.578 77.5233C141.718 77.5194 141.828 77.591 141.905 77.6651C141.983 77.7401 142.05 77.8396 142.109 77.9476C142.227 78.1647 142.338 78.4643 142.443 78.8078C142.653 79.4982 142.849 80.4142 143.016 81.3227C143.087 81.7052 143.153 82.0876 143.212 82.4531C143.223 82.2714 143.236 82.0869 143.25 81.9023C143.307 81.1295 143.391 80.3456 143.514 79.7477C143.575 79.4505 143.648 79.1859 143.739 78.9887C143.784 78.8904 143.839 78.7968 143.908 78.7235C143.978 78.6492 144.077 78.5816 144.204 78.5726C144.336 78.5634 144.445 78.6217 144.525 78.6858C144.605 78.7506 144.678 78.8386 144.743 78.935C144.873 79.1287 145.003 79.3989 145.13 79.7124C145.385 80.3426 145.644 81.1933 145.879 82.0742C146.346 83.8308 146.727 85.7561 146.769 86.3565C146.798 86.7672 146.538 87.1029 146.136 87.3702C145.732 87.6394 145.135 87.8763 144.362 88.0881C142.814 88.5127 140.492 88.8542 137.422 89.1159C122.147 90.4169 115.958 88.062 112.492 85.8577C110.787 84.7733 109.584 83.3722 108.809 82.2454C108.421 81.6815 108.138 81.1847 107.953 80.828C107.86 80.6495 107.791 80.5059 107.745 80.4063C107.722 80.3565 107.705 80.3177 107.693 80.2909C107.688 80.2776 107.683 80.2672 107.68 80.2601L107.677 80.2517L107.676 80.2493L107.675 80.2486L107.675 80.2484C107.675 80.2483 107.675 80.2482 107.888 80.1608C108.101 80.0734 108.101 80.0734 108.101 80.0733L108.102 80.0748L108.105 80.0811C108.107 80.0868 108.111 80.0957 108.116 80.1076C108.126 80.1313 108.142 80.1671 108.164 80.2138C108.207 80.3071 108.272 80.444 108.361 80.6153C108.54 80.9581 108.812 81.4383 109.188 81.9843C109.94 83.0773 111.101 84.4274 112.739 85.469C116.089 87.5995 122.165 89.9531 137.382 88.6569C140.446 88.3958 142.734 88.057 144.241 87.6438C144.996 87.4367 145.538 87.2154 145.881 86.9868C146.227 86.7563 146.321 86.5547 146.31 86.3888C146.271 85.8358 145.901 83.9472 145.434 82.1926C145.201 81.3179 144.947 80.4888 144.703 79.8851C144.58 79.5817 144.465 79.3465 144.361 79.1927C144.31 79.1167 144.268 79.0706 144.238 79.046C144.217 79.0703 144.189 79.113 144.158 79.1812C144.089 79.3305 144.024 79.5545 143.965 79.8404C143.849 80.4086 143.766 81.1688 143.709 81.9366C143.652 82.7023 143.62 83.4671 143.602 84.0411C143.594 84.3279 143.588 84.5667 143.585 84.7337C143.584 84.8172 143.583 84.8827 143.582 84.9273C143.582 84.9496 143.582 84.9666 143.582 84.9781L143.582 84.9951C143.582 84.9952 143.582 84.9952 143.351 84.9932L143.582 84.9951L143.123 85.0218L143.351 84.9932C143.123 85.0218 143.123 85.0219 143.123 85.0218L143.12 85.0014C143.119 84.9878 143.116 84.9676 143.113 84.9412C143.106 84.8883 143.096 84.8106 143.082 84.7117C143.056 84.5138 143.017 84.2311 142.968 83.8918C142.87 83.2128 142.73 82.3088 142.563 81.4063C142.396 80.502 142.204 79.6066 142.002 78.9418C141.9 78.6076 141.8 78.3436 141.704 78.1681C141.661 78.0885 141.623 78.0368 141.595 78.0062Z" fill="white"/>
<path d="M141.622 77.9756C141.622 77.9755 141.621 77.9757 141.621 77.9761M140.982 85.0584L140.982 85.0581L140.982 85.038C140.982 85.0306 140.982 85.0213 140.982 85.0102C140.982 85.0006 140.982 84.9897 140.982 84.9775C140.982 84.9245 140.982 84.8466 140.982 84.7474C140.983 84.549 140.986 84.2653 140.991 83.9247C141.002 83.2434 141.025 82.3356 141.076 81.4279C141.126 80.5183 141.202 79.6166 141.318 78.9441C141.377 78.6059 141.443 78.3388 141.515 78.1606C141.545 78.0861 141.573 78.0366 141.595 78.0062C141.623 78.0368 141.661 78.0885 141.704 78.1681C141.8 78.3436 141.9 78.6076 142.002 78.9418C142.204 79.6066 142.396 80.502 142.563 81.4063C142.73 82.3088 142.87 83.2128 142.968 83.8918C143.017 84.2311 143.056 84.5138 143.082 84.7117C143.096 84.8106 143.106 84.8883 143.113 84.9412C143.116 84.9676 143.119 84.9878 143.12 85.0014L143.123 85.0218M140.982 85.0584C140.982 85.0584 140.982 85.0584 140.752 85.0593M140.982 85.0584L140.752 85.0593M140.982 85.0584L140.522 85.0836M140.752 85.0593L140.522 85.0836M140.752 85.0593C140.522 85.0836 140.522 85.0836 140.522 85.0836M140.522 85.0836L140.522 85.0801L140.521 85.069C140.52 85.0592 140.518 85.0445 140.516 85.0253C140.512 84.9869 140.505 84.9304 140.497 84.8584C140.48 84.7143 140.454 84.5084 140.421 84.2614C140.354 83.767 140.256 83.1099 140.131 82.4558C140.005 81.7992 139.853 81.1562 139.681 80.6852C139.594 80.448 139.508 80.2691 139.425 80.1556C139.367 80.0752 139.329 80.052 139.314 80.0454C139.311 80.0482 139.306 80.0523 139.301 80.0581C139.274 80.0861 139.24 80.1376 139.201 80.2216C139.123 80.3891 139.049 80.6385 138.981 80.9546C138.847 81.5831 138.749 82.4231 138.679 83.2703C138.608 84.1155 138.565 84.9596 138.54 85.5931C138.527 85.9096 138.519 86.1732 138.514 86.3575C138.511 86.4497 138.51 86.522 138.509 86.5712C138.508 86.5819 138.508 86.5914 138.508 86.5998C138.508 86.6109 138.508 86.6201 138.507 86.6273L138.507 86.646L138.507 86.6462C138.507 86.6462 138.507 86.6462 138.277 86.6421C138.047 86.638 138.047 86.638 138.047 86.6379L138.047 86.6181C138.047 86.6051 138.048 86.5859 138.048 86.561C138.049 86.511 138.051 86.4379 138.054 86.345C138.059 86.159 138.067 85.8935 138.08 85.5747C138.105 84.9375 138.148 84.0862 138.22 83.232C138.291 82.3798 138.391 81.5164 138.531 80.8585C138.601 80.5314 138.683 80.2419 138.783 80.0273C138.833 79.9202 138.892 79.8199 138.966 79.7419C139.04 79.6632 139.143 79.5925 139.276 79.5832C139.512 79.5665 139.685 79.7299 139.798 79.8849C139.918 80.0497 140.022 80.2753 140.114 80.527C140.294 81.0203 140.448 81.6705 140.573 82.3161C140.585 82.0175 140.599 81.7101 140.616 81.4025C140.666 80.4886 140.744 79.5654 140.864 78.8658C140.924 78.518 140.997 78.2123 141.088 77.9878C141.133 77.8763 141.188 77.7709 141.258 77.6893C141.329 77.6071 141.435 77.5272 141.578 77.5233C141.718 77.5194 141.828 77.591 141.905 77.6651C141.983 77.7401 142.05 77.8396 142.109 77.9476C142.227 78.1647 142.338 78.4643 142.443 78.8078C142.653 79.4982 142.849 80.4142 143.016 81.3227C143.087 81.7052 143.153 82.0876 143.212 82.4531C143.223 82.2714 143.236 82.0869 143.25 81.9023C143.307 81.1295 143.391 80.3456 143.514 79.7477C143.575 79.4505 143.648 79.1859 143.739 78.9887C143.784 78.8904 143.839 78.7968 143.908 78.7235C143.978 78.6492 144.077 78.5816 144.204 78.5726C144.336 78.5634 144.445 78.6217 144.525 78.6858C144.605 78.7506 144.678 78.8386 144.743 78.935C144.873 79.1287 145.003 79.3989 145.13 79.7124C145.385 80.3426 145.644 81.1933 145.879 82.0742C146.346 83.8308 146.727 85.7561 146.769 86.3565C146.798 86.7672 146.538 87.1029 146.136 87.3702C145.732 87.6394 145.135 87.8763 144.362 88.0881C142.814 88.5127 140.492 88.8542 137.422 89.1159C122.147 90.4169 115.958 88.062 112.492 85.8577C110.787 84.7733 109.584 83.3722 108.809 82.2454C108.421 81.6815 108.138 81.1847 107.953 80.828C107.86 80.6495 107.791 80.5059 107.745 80.4063C107.722 80.3565 107.705 80.3177 107.693 80.2909C107.688 80.2776 107.683 80.2672 107.68 80.2601L107.677 80.2517L107.676 80.2493L107.675 80.2486L107.675 80.2484C107.675 80.2483 107.675 80.2482 107.888 80.1608C108.101 80.0734 108.101 80.0734 108.101 80.0733L108.102 80.0748L108.105 80.0811C108.107 80.0868 108.111 80.0957 108.116 80.1076C108.126 80.1313 108.142 80.1671 108.164 80.2138C108.207 80.3071 108.272 80.444 108.361 80.6153C108.54 80.9581 108.812 81.4383 109.188 81.9843C109.94 83.0773 111.101 84.4274 112.739 85.469C116.089 87.5995 122.165 89.9531 137.382 88.6569C140.446 88.3958 142.734 88.057 144.241 87.6438C144.996 87.4367 145.538 87.2154 145.881 86.9868C146.227 86.7563 146.321 86.5547 146.31 86.3888C146.271 85.8358 145.901 83.9472 145.434 82.1926C145.201 81.3179 144.947 80.4888 144.703 79.8851C144.58 79.5817 144.465 79.3465 144.361 79.1927C144.31 79.1167 144.268 79.0706 144.238 79.046C144.217 79.0703 144.189 79.113 144.158 79.1812C144.089 79.3305 144.024 79.5545 143.965 79.8404C143.849 80.4086 143.766 81.1688 143.709 81.9366C143.652 82.7023 143.62 83.4671 143.602 84.0411C143.594 84.3279 143.588 84.5667 143.585 84.7337C143.584 84.8172 143.583 84.8827 143.582 84.9273C143.582 84.9496 143.582 84.9666 143.582 84.9781L143.582 84.9951M143.582 84.9951C143.582 84.9952 143.582 84.9952 143.351 84.9932M143.582 84.9951L143.351 84.9932M143.582 84.9951L143.123 85.0218M143.351 84.9932L143.123 85.0218M143.351 84.9932C143.123 85.0218 143.123 85.0219 143.123 85.0218M144.214 79.0298C144.214 79.0298 144.214 79.03 144.215 79.0301M144.257 79.0271C144.257 79.0269 144.258 79.0268 144.258 79.0268M139.322 80.0395C139.322 80.0395 139.322 80.0396 139.321 80.0399M141.565 77.9799C141.564 77.9795 141.564 77.9793 141.564 77.9794" stroke="white" stroke-width="0.5" stroke-miterlimit="10"/>
<path d="M109.105 50.614C109.105 50.614 114.211 55.2248 114.098 59.96C113.986 64.6952 107.905 67.748 107.905 67.748L94.6218 59.8155L109.105 50.614Z" fill="#032349"/>
<path d="M79.8902 82.8805C78.9409 72.7247 86.4021 63.7221 96.5579 62.7728C106.714 61.8235 115.716 69.2848 116.666 79.4406L79.8902 82.8805Z" fill="#F96155"/>
<path d="M96.4803 65.9797L97.2969 54.0803C97.2969 54.0803 93.7313 51.7331 94.711 49.098C95.6906 46.463 98.3264 47.9768 98.3264 47.9768C98.3264 47.9768 100.053 44.4071 104.089 44.5569C108.125 44.7067 109.81 49.5523 109.167 52.7055C108.217 57.3626 105.964 59.4162 101.37 57.8371L101.237 64.4117" fill="#FBC73B"/>
<path fill-rule="evenodd" clip-rule="evenodd" d="M106.656 56.4222L105.957 53.6177L105.388 53.7594L106.087 56.5639L106.656 56.4222Z" fill="#032349"/>
<path d="M96.7057 62.7032C101.149 61.8808 100.224 47.5794 100.224 47.5794C104.248 50.5456 109.179 49.9426 109.179 49.9426C109.179 49.9426 108.679 43.0909 101.31 43.1266C93.9408 43.1623 91.8334 47.6424 91.8334 47.6424C91.8334 47.6424 83.8445 48.6931 83.0632 54.9746C82.2818 61.2562 88.5636 66.1491 88.5636 66.1491C88.5636 66.1491 93.176 63.3582 96.7057 62.7032Z" fill="#032349"/>
<path d="M107.002 54.5895C106.641 54.4667 106.501 53.9217 106.688 53.3721C106.875 52.8226 107.319 52.4765 107.68 52.5993C108.04 52.7222 108.181 53.2674 107.993 53.8169C107.806 54.3665 107.362 54.7123 107.002 54.5895Z" fill="#032349"/>
<path d="M103.653 54.04C103.292 53.9172 103.152 53.3721 103.339 52.8226C103.526 52.2731 103.97 51.9272 104.331 52.05C104.692 52.1729 104.832 52.7179 104.645 53.2674C104.458 53.817 104.014 54.1628 103.653 54.04Z" fill="#032349"/>
<path d="M84 82C86.1666 85.5 90.8 92.9 92 94.5C93.2 96.1 95.1667 97.5 96 98C97.8333 99 104.4 101.7 116 104.5C121 106.167 128.7 108 119.5 102C124.333 104.167 131.2 106.7 120 99.5C124.5 101 130.6 102.5 119 96.5" stroke="white"/>
<path fill-rule="evenodd" clip-rule="evenodd" d="M90.355 70.1562C90.2776 70.1156 90.1799 70.082 90.0731 70.0945L90.1264 70.552C90.1175 70.5531 90.1126 70.5522 90.1126 70.5522C90.1126 70.5522 90.1214 70.5539 90.141 70.5641C90.1732 70.581 90.219 70.6131 90.2786 70.6671C90.3976 70.775 90.5453 70.9457 90.7192 71.1786C91.0655 71.6425 91.4915 72.3204 91.9691 73.1473C92.9231 74.799 94.0688 77.0197 95.1737 79.2497C96.278 81.4787 97.3397 83.713 98.1253 85.3904C98.5182 86.2291 98.8419 86.9283 99.0674 87.4179C99.1802 87.6626 99.2684 87.8549 99.3284 87.9861C99.3584 88.0516 99.3813 88.1019 99.3968 88.1357L99.42 88.1867C99.4201 88.1868 99.4201 88.1869 99.6298 88.0915L99.4201 88.1869L99.5518 88.3082L117.24 94.6728L117.335 94.6858L119.235 94.552L119.203 94.0924L117.351 94.2229L99.799 87.9076C99.7852 87.8773 99.7679 87.8395 99.7473 87.7944C99.6871 87.6629 99.5988 87.4702 99.4858 87.2251C99.2599 86.7348 98.9358 86.0347 98.5425 85.195C97.756 83.5159 96.6928 81.2782 95.5864 79.0452C94.4805 76.813 93.3296 74.5817 92.368 72.9169C91.8877 72.0855 91.4511 71.3889 91.0883 70.903C90.9077 70.661 90.7393 70.463 90.5879 70.3258C90.5122 70.2572 90.4342 70.1977 90.355 70.1562Z" fill="white" stroke="white" stroke-width="0.5" stroke-linejoin="bevel"/>
<path fill-rule="evenodd" clip-rule="evenodd" d="M276.441 63.7199C275.75 65.6289 275.059 67.1712 274.444 67.9518C274.207 68.2531 273.765 68.6475 273.154 69.1147C272.546 69.5787 271.785 70.1039 270.921 70.6673C269.192 71.794 267.06 73.0669 264.939 74.2985C263.396 75.1947 261.86 76.0678 260.491 76.8461C259.979 77.1373 259.49 77.4153 259.033 77.6762C257.365 78.6284 256.099 79.3644 255.682 79.6824C255.197 80.0533 254.528 80.6029 253.796 81.2036L253.794 81.2059C253.061 81.8077 252.263 82.4626 251.516 83.0496C250.765 83.6384 250.073 84.1529 249.549 84.4758C249.285 84.6388 249.079 84.7437 248.937 84.7888C248.918 84.7949 248.902 84.7993 248.888 84.8026C248.892 84.7495 248.906 84.6775 248.933 84.5853C248.988 84.3995 249.086 84.1607 249.219 83.883C249.483 83.3292 249.869 82.6506 250.27 81.9882C250.669 81.327 251.08 80.6871 251.391 80.2121C251.547 79.9747 251.677 79.7788 251.769 79.6422C251.814 79.574 251.85 79.5206 251.875 79.4843C251.887 79.4662 251.897 79.4523 251.903 79.443L251.912 79.4293L251.912 79.4291C251.912 79.4291 251.912 79.4291 251.91 79.4278L251.912 79.4291L251.56 79.1355L251.722 79.2993C251.56 79.1355 251.56 79.1355 251.56 79.1355L251.56 79.1357L251.544 79.1511C251.534 79.1615 251.518 79.1769 251.498 79.197C251.457 79.2373 251.396 79.2963 251.319 79.3711C251.165 79.5206 250.945 79.7334 250.679 79.9858C250.147 80.4908 249.434 81.1536 248.709 81.7862C247.983 82.4206 247.252 83.0183 246.682 83.3976C246.394 83.5894 246.164 83.7138 246.004 83.7651C245.96 83.7792 245.929 83.7853 245.908 83.7878C245.906 83.7697 245.906 83.7441 245.91 83.7093C245.918 83.6397 245.94 83.5498 245.978 83.439C246.054 83.2175 246.185 82.9399 246.361 82.6221C246.71 81.9881 247.217 81.2246 247.739 80.4845C248.261 79.7458 248.796 79.0358 249.2 78.5101C249.403 78.2474 249.572 78.031 249.691 77.8803C249.75 77.805 249.797 77.7461 249.829 77.7061C249.845 77.6861 249.857 77.6708 249.865 77.6606L249.877 77.6462L249.877 77.6455L249.877 77.6453C249.877 77.6453 249.877 77.6453 249.698 77.501C249.552 77.3227 249.552 77.3227 249.552 77.3227L249.552 77.3228L249.551 77.3233L249.538 77.3341C249.529 77.3417 249.515 77.3531 249.497 77.3679C249.46 77.3975 249.406 77.4409 249.338 77.4959C249.2 77.606 249.004 77.7624 248.767 77.9475C248.292 78.318 247.656 78.8027 247.01 79.2612C246.361 79.7213 245.711 80.1489 245.204 80.4098C244.947 80.5418 244.745 80.6219 244.605 80.6488C244.568 80.6559 244.542 80.6581 244.523 80.6583C244.524 80.6456 244.526 80.6286 244.53 80.6065C244.543 80.5372 244.573 80.4439 244.622 80.326C244.721 80.091 244.884 79.7892 245.096 79.4401C245.52 78.7436 246.121 77.8869 246.738 77.051C247.354 76.2161 247.982 75.4064 248.456 74.8052C248.693 74.5046 248.892 74.2563 249.031 74.0832C249.101 73.9967 249.155 73.929 249.193 73.8829C249.211 73.8599 249.226 73.8423 249.235 73.8305L249.249 73.8129L249.25 73.8127C249.25 73.8127 249.25 73.8127 249.071 73.6671C248.893 73.5215 248.893 73.5216 248.893 73.5216L248.892 73.5218L248.878 73.5399C248.868 73.5519 248.853 73.5697 248.835 73.5929C248.797 73.6394 248.742 73.7076 248.672 73.7946C248.532 73.9686 248.333 74.218 248.095 74.5199C247.619 75.1234 246.987 75.9373 246.367 76.7775C245.748 77.6166 245.137 78.4864 244.702 79.2008C244.486 79.557 244.309 79.8817 244.197 80.1483C244.142 80.2811 244.099 80.4075 244.078 80.5208C244.058 80.6275 244.049 80.7573 244.101 80.8735C244.156 80.9962 244.258 81.07 244.373 81.1008C244.478 81.1287 244.59 81.1209 244.693 81.1011C244.898 81.0614 245.148 80.9562 245.414 80.8194C245.952 80.5429 246.624 80.0995 247.276 79.6369C247.66 79.3652 248.038 79.0848 248.382 78.8242C248.065 79.2456 247.711 79.7256 247.363 80.2188C246.837 80.9631 246.32 81.7431 245.957 82.3996C245.777 82.7271 245.63 83.0315 245.542 83.2898C245.498 83.4189 245.466 83.5433 245.453 83.6576C245.44 83.7694 245.444 83.8906 245.49 84.0004C245.547 84.137 245.661 84.2181 245.795 84.2419C245.912 84.2628 246.035 84.2391 246.145 84.2038C246.369 84.132 246.643 83.9774 246.938 83.7811C247.534 83.3843 248.283 82.7699 249.012 82.1332C249.51 81.6985 250.002 81.2504 250.433 80.8485C250.253 81.1344 250.063 81.4397 249.875 81.7499C249.472 82.4162 249.077 83.1102 248.803 83.6847C248.666 83.9711 248.556 84.2353 248.491 84.4553C248.459 84.5652 248.436 84.6713 248.428 84.7679C248.421 84.8603 248.426 84.969 248.473 85.0666C248.536 85.1954 248.654 85.2552 248.769 85.2688C248.872 85.2809 248.979 85.2587 249.077 85.2278C249.274 85.1648 249.52 85.035 249.791 84.8678C250.338 84.5303 251.048 84.0018 251.8 83.4119C252.552 82.8218 253.353 82.1641 254.084 81.5634L254.088 81.56C254.823 80.957 255.484 80.4134 255.962 80.0485C256.347 79.7547 257.575 79.039 259.262 78.0763C259.718 77.816 260.206 77.5385 260.717 77.2475C262.087 76.4689 263.625 75.5942 265.17 74.6969C267.293 73.4642 269.433 72.1866 271.172 71.0532C272.042 70.4866 272.813 69.9544 273.433 69.4807C274.049 69.0102 274.53 68.5867 274.806 68.2369C275.473 67.3905 276.185 65.7808 276.874 63.8769C277.568 61.9629 278.251 59.72 278.852 57.5823C279.453 55.4441 279.975 53.408 280.345 51.9068C280.531 51.1561 280.679 50.539 280.78 50.1094C280.831 49.8946 280.87 49.7267 280.897 49.6124C280.91 49.5552 280.92 49.5115 280.927 49.482L280.937 49.4374C280.937 49.4373 280.937 49.4372 280.712 49.386C280.488 49.3348 280.488 49.3348 280.488 49.3349L280.478 49.3788C280.471 49.408 280.461 49.4515 280.448 49.5083C280.421 49.622 280.382 49.7893 280.332 50.0034C280.231 50.4317 280.083 51.0474 279.898 51.7964C279.528 53.2945 279.008 55.3255 278.408 57.4576C277.809 59.5903 277.129 61.8211 276.441 63.7199ZM249.698 77.501L249.552 77.3227L249.877 77.6453L249.698 77.501Z" fill="#032349"/>
<path d="M251.912 79.4291L251.912 79.4293L251.903 79.443C251.897 79.4523 251.887 79.4662 251.875 79.4843C251.85 79.5206 251.814 79.574 251.769 79.6422C251.677 79.7788 251.547 79.9747 251.391 80.2121C251.08 80.6871 250.669 81.327 250.269 81.9882C249.869 82.6506 249.483 83.3292 249.219 83.883C249.086 84.1607 248.988 84.3995 248.933 84.5853C248.906 84.6775 248.892 84.7495 248.888 84.8026C248.902 84.7993 248.918 84.7949 248.937 84.7888C249.079 84.7437 249.285 84.6388 249.549 84.4758C250.073 84.1529 250.765 83.6384 251.516 83.0496C252.263 82.4626 253.061 81.8077 253.794 81.2059L253.796 81.2036C254.528 80.6029 255.197 80.0533 255.682 79.6824C256.099 79.3644 257.365 78.6284 259.033 77.6762C259.49 77.4153 259.979 77.1373 260.491 76.8461C261.86 76.0678 263.396 75.1947 264.939 74.2985C267.06 73.0669 269.192 71.794 270.921 70.6673C271.785 70.1039 272.546 69.5787 273.154 69.1147C273.765 68.6475 274.207 68.2531 274.444 67.9518C275.059 67.1712 275.75 65.6289 276.441 63.7199C277.129 61.8211 277.809 59.5903 278.408 57.4576C279.008 55.3255 279.528 53.2945 279.898 51.7964C280.083 51.0474 280.231 50.4317 280.332 50.0034C280.382 49.7893 280.421 49.622 280.448 49.5083C280.461 49.4515 280.471 49.408 280.478 49.3788L280.488 49.3349C280.488 49.3348 280.488 49.3348 280.712 49.386C280.937 49.4372 280.937 49.4373 280.937 49.4374L280.927 49.482C280.92 49.5115 280.91 49.5552 280.897 49.6124C280.87 49.7267 280.831 49.8946 280.78 50.1094C280.679 50.539 280.531 51.1561 280.345 51.9068C279.975 53.408 279.453 55.4441 278.852 57.5823C278.251 59.72 277.568 61.9629 276.874 63.8769C276.185 65.7808 275.473 67.3905 274.806 68.2369C274.53 68.5867 274.049 69.0102 273.433 69.4807C272.813 69.9544 272.042 70.4866 271.172 71.0532C269.433 72.1866 267.293 73.4642 265.17 74.6969C263.625 75.5942 262.087 76.4689 260.717 77.2475C260.206 77.5385 259.718 77.816 259.262 78.0763C257.575 79.039 256.347 79.7547 255.962 80.0485C255.484 80.4134 254.823 80.9569 254.088 81.56L254.084 81.5634C253.353 82.1641 252.552 82.8218 251.8 83.4119C251.048 84.0018 250.338 84.5303 249.791 84.8678C249.52 85.035 249.274 85.1648 249.077 85.2278C248.979 85.2587 248.872 85.2809 248.769 85.2688C248.654 85.2552 248.536 85.1954 248.473 85.0666C248.426 84.969 248.421 84.8603 248.428 84.7679C248.436 84.6713 248.459 84.5652 248.491 84.4553C248.556 84.2353 248.666 83.9711 248.803 83.6847C249.077 83.1102 249.472 82.4162 249.875 81.7499C250.063 81.4397 250.253 81.1344 250.433 80.8485C250.002 81.2504 249.51 81.6985 249.012 82.1332C248.283 82.7699 247.534 83.3843 246.938 83.7811C246.643 83.9774 246.369 84.132 246.145 84.2038C246.035 84.2391 245.912 84.2628 245.795 84.2419C245.661 84.2181 245.547 84.137 245.49 84.0004C245.444 83.8906 245.44 83.7694 245.453 83.6576C245.466 83.5433 245.498 83.4189 245.542 83.2898C245.63 83.0315 245.777 82.7271 245.957 82.3996C246.32 81.7431 246.837 80.9631 247.363 80.2188C247.711 79.7256 248.065 79.2456 248.382 78.8242C248.038 79.0848 247.66 79.3652 247.276 79.6369C246.624 80.0995 245.952 80.5429 245.414 80.8194C245.148 80.9562 244.898 81.0614 244.693 81.1011C244.59 81.1209 244.478 81.1287 244.373 81.1008C244.258 81.07 244.156 80.9962 244.101 80.8735C244.049 80.7573 244.058 80.6275 244.078 80.5208C244.099 80.4075 244.142 80.2811 244.197 80.1483C244.309 79.8817 244.486 79.557 244.702 79.2008C245.137 78.4864 245.748 77.6166 246.367 76.7775C246.987 75.9373 247.619 75.1234 248.095 74.5199C248.333 74.2181 248.532 73.9686 248.672 73.7946C248.742 73.7076 248.797 73.6394 248.835 73.5929C248.853 73.5697 248.868 73.5519 248.878 73.5399L248.892 73.5218L248.893 73.5216C248.893 73.5216 248.893 73.5215 249.071 73.6671C249.25 73.8127 249.25 73.8127 249.25 73.8127L249.249 73.8129L249.235 73.8305C249.226 73.8423 249.211 73.8599 249.193 73.8829C249.155 73.929 249.101 73.9967 249.031 74.0832C248.892 74.2563 248.693 74.5046 248.456 74.8052C247.982 75.4064 247.354 76.2161 246.738 77.051C246.121 77.8869 245.52 78.7436 245.096 79.4401C244.884 79.7892 244.721 80.091 244.622 80.326C244.573 80.4439 244.543 80.5372 244.53 80.6065C244.526 80.6286 244.524 80.6456 244.523 80.6583C244.542 80.6581 244.568 80.6559 244.605 80.6488C244.745 80.6219 244.947 80.5418 245.204 80.4098C245.711 80.1489 246.361 79.7213 247.01 79.2612C247.656 78.8027 248.292 78.318 248.767 77.9475C249.004 77.7624 249.2 77.606 249.338 77.4959C249.406 77.4409 249.46 77.3975 249.497 77.3679C249.515 77.3531 249.529 77.3417 249.538 77.3341L249.551 77.3233L249.552 77.3228L249.552 77.3227M251.912 79.4291C251.912 79.4291 251.912 79.4291 251.91 79.4278L251.912 79.4291ZM251.912 79.4291L251.56 79.1355M251.56 79.1355L251.722 79.2993C251.56 79.1355 251.56 79.1355 251.56 79.1355ZM251.56 79.1355L251.56 79.1357L251.544 79.1511C251.534 79.1615 251.518 79.1769 251.498 79.197C251.457 79.2373 251.396 79.2963 251.319 79.3711C251.165 79.5206 250.945 79.7334 250.679 79.9858C250.147 80.4908 249.434 81.1536 248.709 81.7862C247.983 82.4206 247.252 83.0183 246.683 83.3976C246.394 83.5894 246.164 83.7138 246.004 83.7651C245.96 83.7792 245.929 83.7853 245.908 83.7878C245.906 83.7697 245.906 83.7441 245.91 83.7093C245.918 83.6397 245.94 83.5498 245.978 83.439C246.054 83.2175 246.185 82.9399 246.361 82.6221C246.71 81.9881 247.217 81.2246 247.739 80.4845C248.261 79.7458 248.796 79.0358 249.2 78.5101C249.403 78.2474 249.572 78.031 249.691 77.8803C249.75 77.805 249.797 77.7461 249.829 77.7061C249.845 77.6861 249.857 77.6708 249.865 77.6606L249.877 77.6462L249.877 77.6455L249.877 77.6453M249.877 77.6453C249.877 77.6453 249.877 77.6453 249.698 77.501M249.877 77.6453L249.552 77.3227M249.877 77.6453L249.698 77.501M249.698 77.501C249.552 77.3227 249.552 77.3227 249.552 77.3227M249.698 77.501L249.552 77.3227" stroke="#032349" stroke-width="0.5" stroke-linejoin="bevel"/>
<path fill-rule="evenodd" clip-rule="evenodd" d="M271.673 40.2608C271.673 40.2608 271.671 40.2615 271.667 40.2622L271.59 39.808C271.487 39.8253 271.402 39.8803 271.336 39.9385C271.268 39.998 271.204 40.0744 271.144 40.1596C271.025 40.3301 270.902 40.5627 270.777 40.8407C270.526 41.3985 270.25 42.1747 269.962 43.0897C269.385 44.9217 268.751 47.338 268.162 49.7422C267.573 52.1475 267.029 54.5448 266.632 56.3405C266.434 57.2384 266.272 57.986 266.16 58.5093C266.104 58.7709 266.06 58.9765 266.031 59.1166C266.019 59.1703 266.01 59.2144 266.003 59.2484L251.055 70.7751L249.491 71.1097L249.587 71.5602L251.203 71.2146L251.295 71.1718L266.352 59.5613L266.436 59.426L266.211 59.3789C266.436 59.426 266.436 59.4259 266.436 59.4258L266.448 59.3715C266.455 59.3354 266.467 59.2818 266.482 59.2119C266.511 59.0721 266.555 58.867 266.611 58.6058C266.722 58.0834 266.884 57.3367 267.082 56.4399C267.479 54.6461 268.022 52.2525 268.61 49.8518C269.198 47.4501 269.829 45.0454 270.401 43.228C270.688 42.3183 270.957 41.5626 271.197 41.0297C271.317 40.7624 271.426 40.56 271.521 40.4242C271.569 40.3563 271.609 40.3118 271.639 40.285C271.662 40.2653 271.673 40.2609 271.673 40.2608Z" fill="#032349" stroke="#032349" stroke-width="0.5" stroke-linejoin="bevel"/>
<path fill-rule="evenodd" clip-rule="evenodd" d="M208 34.5244C206.85 32.3493 205.126 29.975 203.394 27.8298L203.155 28.0228C204.883 30.1622 206.593 32.5186 207.728 34.6679C208.296 35.7427 208.718 36.7599 208.927 37.6684C209.138 38.5783 209.132 39.3638 208.866 39.9868C208.623 40.5558 208.115 40.9098 207.375 41.0819C206.63 41.2548 205.667 41.2389 204.554 41.0763C202.328 40.7514 199.552 39.8491 196.833 38.7856C194.115 37.723 191.464 36.5032 189.491 35.5488C188.505 35.0716 187.689 34.661 187.119 34.3696C186.835 34.224 186.612 34.1082 186.46 34.0288C186.384 33.9892 186.326 33.9586 186.287 33.938C186.267 33.9277 186.252 33.9198 186.242 33.9146L186.228 33.9069C186.228 33.9068 186.228 33.9068 186.156 34.0423L186.228 33.9068L186.057 34.1604L186.062 34.1554C186.057 34.1604 186.057 34.1604 186.057 34.1604L186.058 34.1605L186.058 34.161L186.061 34.1632L186.072 34.1723C186.081 34.1804 186.096 34.1926 186.114 34.2087C186.152 34.2409 186.207 34.2886 186.277 34.3504C186.416 34.4739 186.614 34.6535 186.846 34.8771C187.311 35.3248 187.913 35.947 188.461 36.6475C189.011 37.3496 189.501 38.1221 189.752 38.8705C190.003 39.6177 190.01 40.32 189.627 40.9095C189.382 41.2871 188.858 41.6057 188.118 41.8645C187.384 42.121 186.468 42.3093 185.476 42.4461C183.493 42.7195 181.232 42.7839 179.586 42.7872L179.586 43.0943C181.237 43.091 183.514 43.0265 185.518 42.7503C186.519 42.6122 187.458 42.4205 188.219 42.1544C188.973 41.8906 189.582 41.544 189.885 41.0766C190.337 40.3797 190.311 39.5699 190.043 38.7727C189.776 37.9766 189.262 37.1722 188.703 36.4582C188.167 35.7732 187.583 35.1639 187.121 34.7151C187.682 35.0012 188.448 35.385 189.357 35.8252C191.334 36.7816 193.993 38.005 196.721 39.0716C199.446 40.1373 202.249 41.0501 204.509 41.3802C205.639 41.5451 206.646 41.5665 207.444 41.381C208.246 41.1946 208.855 40.7943 209.149 40.1074C209.45 39.4008 209.444 38.5418 209.227 37.5993C209.009 36.6552 208.574 35.6119 208 34.5244Z" fill="white"/>
<path d="M186.057 34.1604L186.228 33.9068L186.156 34.0423C186.228 33.9068 186.228 33.9068 186.228 33.9069L186.242 33.9146C186.252 33.9198 186.267 33.9277 186.287 33.938C186.326 33.9586 186.384 33.9892 186.46 34.0288C186.612 34.1082 186.835 34.224 187.119 34.3696C187.689 34.661 188.505 35.0716 189.491 35.5488C191.464 36.5032 194.115 37.723 196.833 38.7856C199.552 39.8491 202.328 40.7514 204.554 41.0763C205.667 41.2389 206.63 41.2548 207.375 41.0819C208.115 40.9098 208.623 40.5558 208.866 39.9868C209.132 39.3638 209.138 38.5783 208.927 37.6684C208.718 36.7599 208.296 35.7427 207.728 34.6679C206.593 32.5186 204.883 30.1622 203.155 28.0228L203.394 27.8298C205.126 29.975 206.85 32.3493 208 34.5244C208.574 35.6119 209.009 36.6552 209.227 37.5993C209.444 38.5418 209.45 39.4008 209.149 40.1074C208.855 40.7943 208.246 41.1946 207.444 41.381C206.646 41.5665 205.639 41.5451 204.509 41.3802C202.249 41.0501 199.446 40.1373 196.721 39.0716C193.993 38.005 191.334 36.7816 189.357 35.8252C188.448 35.385 187.682 35.0012 187.121 34.7151C187.583 35.1639 188.167 35.7732 188.703 36.4582C189.262 37.1722 189.776 37.9766 190.043 38.7727C190.311 39.5699 190.337 40.3797 189.885 41.0766C189.582 41.544 188.973 41.8906 188.219 42.1544C187.458 42.4205 186.519 42.6122 185.518 42.7503C183.514 43.0265 181.237 43.091 179.586 43.0943L179.586 42.7872C181.232 42.7839 183.493 42.7195 185.476 42.4461C186.468 42.3093 187.384 42.121 188.118 41.8645C188.858 41.6057 189.382 41.2871 189.627 40.9095C190.01 40.32 190.003 39.6177 189.752 38.8705C189.501 38.1221 189.011 37.3496 188.461 36.6475C187.913 35.947 187.311 35.3248 186.846 34.8771C186.614 34.6535 186.416 34.4739 186.277 34.3504C186.207 34.2886 186.152 34.2409 186.114 34.2087C186.096 34.1926 186.081 34.1804 186.072 34.1723L186.061 34.1632L186.058 34.161L186.058 34.1605L186.057 34.1604ZM186.057 34.1604L186.062 34.1554C186.057 34.1604 186.057 34.1604 186.057 34.1604Z" stroke="white" stroke-width="0.5" stroke-linejoin="bevel"/>
<path fill-rule="evenodd" clip-rule="evenodd" d="M222.407 49.0348C221.729 49.2538 221.201 49.5456 220.938 49.9441C220.425 50.7178 220.442 51.6589 220.719 52.6165C220.997 53.5748 221.542 54.5761 222.127 55.4977C222.532 56.1367 222.961 56.7453 223.336 57.2771C223.501 57.5114 223.656 57.7308 223.793 57.9313C224.02 58.2623 224.198 58.5391 224.306 58.7518C224.36 58.8587 224.392 58.9415 224.406 59.002C224.41 59.0192 224.412 59.0326 224.412 59.0427C224.391 59.0435 224.362 59.0424 224.323 59.0378C224.208 59.0246 224.044 58.9865 223.832 58.9243C223.41 58.8006 222.826 58.5903 222.127 58.3281C221.807 58.208 221.463 58.0772 221.101 57.9394C219.887 57.4773 218.465 56.9363 217.026 56.4532C215.159 55.8265 213.251 55.2921 211.716 55.1537C210.949 55.0846 210.263 55.1129 209.717 55.2868C209.166 55.4624 208.751 55.7901 208.556 56.3169L208.556 56.3172C208.433 56.6512 208.45 57.0376 208.567 57.4537C208.684 57.8704 208.904 58.329 209.204 58.8173C209.805 59.7938 210.738 60.9113 211.857 62.0817C214.094 64.4239 217.093 67.0002 219.712 69.1189L219.905 68.8802C217.29 66.7639 214.303 64.1974 212.079 61.8696C210.966 60.7051 210.05 59.6058 209.466 58.6564C209.174 58.1817 208.969 57.75 208.862 57.3706C208.756 56.9908 208.751 56.6756 208.844 56.4237C208.998 56.0061 209.326 55.7337 209.81 55.5794C210.3 55.4234 210.939 55.392 211.688 55.4596C213.185 55.5945 215.065 56.1188 216.928 56.7443C218.36 57.2253 219.774 57.7633 220.988 58.225C221.351 58.3632 221.697 58.4946 222.019 58.6156C222.717 58.8775 223.311 59.0917 223.746 59.219C223.962 59.2824 224.146 59.3265 224.287 59.3429C224.357 59.351 224.425 59.3534 224.485 59.3439C224.541 59.335 224.62 59.3104 224.67 59.2361C224.733 59.141 224.726 59.0275 224.706 58.9351C224.684 58.8382 224.639 58.729 224.58 58.6131C224.462 58.3804 224.273 58.0887 224.046 57.7576C223.905 57.5513 223.748 57.3285 223.581 57.0921C223.208 56.5629 222.787 55.9658 222.386 55.3332C221.807 54.4191 221.28 53.447 221.014 52.531C220.749 51.6143 220.752 50.7799 221.194 50.1137L221.194 50.1135C221.397 49.8061 221.838 49.5413 222.501 49.3271C223.157 49.115 224.002 48.9616 224.975 48.8559C226.92 48.6446 229.353 48.6267 231.758 48.6998L231.767 48.3928C229.357 48.3196 226.908 48.337 224.942 48.5506C223.96 48.6573 223.091 48.8137 222.407 49.0348ZM224.446 59.0385C224.446 59.0385 224.445 59.0386 224.444 59.039C224.445 59.0387 224.446 59.0385 224.446 59.0385Z" fill="white" stroke="white" stroke-width="0.5" stroke-miterlimit="10"/>
<path fill-rule="evenodd" clip-rule="evenodd" d="M248.386 30.0715C248.386 30.0715 248.386 30.0715 248.472 30.2852C248.558 30.4989 248.558 30.4989 248.558 30.4989L248.559 30.4983L248.566 30.4955C248.573 30.493 248.583 30.4892 248.596 30.4843C248.623 30.4744 248.662 30.4605 248.712 30.4445C248.81 30.4123 248.947 30.3726 249.098 30.3417C249.25 30.3106 249.412 30.2897 249.562 30.2921C249.715 30.2946 249.841 30.3208 249.933 30.3705L250.151 29.9649C249.97 29.8674 249.763 29.8346 249.57 29.8315C249.375 29.8284 249.178 29.8552 249.006 29.8904C248.833 29.9257 248.679 29.9705 248.569 30.0064C248.514 30.0244 248.469 30.0404 248.437 30.0519C248.422 30.0577 248.409 30.0624 248.401 30.0658C248.396 30.0675 248.393 30.0688 248.39 30.0698L248.387 30.071L248.386 30.0713L248.386 30.0715Z" fill="#032349"/>
<path fill-rule="evenodd" clip-rule="evenodd" d="M246.701 30.1787C246.701 30.1786 246.701 30.1786 246.774 29.9602C246.847 29.7418 246.847 29.7418 246.847 29.7418L246.847 29.7417L246.846 29.7415L246.845 29.7411L246.841 29.7398C246.838 29.7388 246.833 29.7374 246.828 29.7357C246.817 29.7323 246.801 29.7277 246.782 29.7223C246.743 29.7116 246.689 29.6976 246.623 29.6839C246.492 29.6568 246.31 29.6296 246.114 29.6333C245.727 29.6408 245.216 29.7768 245.015 30.3503L245.45 30.5027C245.557 30.1969 245.817 30.0998 246.123 30.0939C246.274 30.091 246.42 30.1121 246.529 30.135C246.584 30.1462 246.628 30.1577 246.658 30.166C246.673 30.1702 246.685 30.1736 246.692 30.1759C246.696 30.177 246.698 30.1778 246.7 30.1783L246.701 30.1787Z" fill="#032349"/>
<path fill-rule="evenodd" clip-rule="evenodd" d="M192.494 48.8498C187.562 50.6462 182.524 53.0862 180.567 54.0619L180.704 54.3368C182.659 53.3624 187.684 50.9286 192.599 49.1383C195.057 48.2429 197.481 47.5111 199.476 47.2017C200.474 47.0469 201.357 46.999 202.08 47.0858C202.805 47.1727 203.351 47.3926 203.698 47.7561C204.09 48.1683 204.209 48.6743 204.108 49.2738C204.006 49.8806 203.678 50.5767 203.181 51.3417C202.186 52.8711 200.55 54.624 198.838 56.4131C198.662 56.597 198.485 56.7812 198.308 56.9655C196.77 58.5694 195.221 60.1838 194.09 61.6594C193.459 62.4823 192.953 63.2694 192.65 63.9943C192.347 64.7177 192.24 65.3983 192.438 65.9953C192.53 66.2734 192.825 66.3756 193.14 66.404C193.469 66.4336 193.9 66.3919 194.392 66.3071C195.377 66.137 196.654 65.7843 197.94 65.4219C198.039 65.3942 198.137 65.3664 198.236 65.3387C199.428 65.0022 200.613 64.6679 201.583 64.4665C202.108 64.3575 202.563 64.289 202.918 64.279C203.095 64.274 203.242 64.2838 203.358 64.308C203.474 64.3325 203.547 64.3691 203.589 64.4082L203.589 64.4083C203.786 64.5921 203.905 64.8924 203.946 65.306C203.986 65.7176 203.946 66.221 203.844 66.7848C203.642 67.9116 203.2 69.2488 202.711 70.5127L202.997 70.6236C203.489 69.3536 203.939 67.9949 204.147 66.8391C204.251 66.2616 204.295 65.7271 204.251 65.2761C204.207 64.827 204.073 64.4401 203.798 64.1838C203.7 64.0918 203.567 64.038 203.421 64.0074C203.273 63.9765 203.1 63.9666 202.909 63.972C202.528 63.9828 202.052 64.0556 201.521 64.1658C200.54 64.3695 199.344 64.7068 198.155 65.0423C198.056 65.0704 197.956 65.0984 197.857 65.1263C196.567 65.4898 195.306 65.8376 194.339 66.0044C193.854 66.0881 193.455 66.124 193.167 66.0981C192.866 66.071 192.758 65.9845 192.73 65.8986L192.73 65.8986C192.565 65.4018 192.644 64.8037 192.933 64.1127C193.221 63.4231 193.71 62.6601 194.334 61.8462C195.453 60.3851 196.99 58.7838 198.531 57.177C198.707 56.9932 198.884 56.8093 199.06 56.6255C200.767 54.8411 202.425 53.0671 203.438 51.5091C203.944 50.7305 204.298 49.9927 204.411 49.3248C204.525 48.6494 204.392 48.0397 203.92 47.5443L203.92 47.5443C203.505 47.1081 202.877 46.8721 202.117 46.7808C201.355 46.6894 200.441 46.7412 199.429 46.8982C197.405 47.2122 194.959 47.9519 192.494 48.8498Z" fill="white" stroke="white" stroke-width="0.5" stroke-miterlimit="10"/>
<path d="M181.641 65.0389C182.438 64.603 183.167 64.0546 183.805 63.408C185.627 61.605 186.47 59.4994 185.69 58.7147C184.943 57.9606 182.969 58.6938 181.201 60.3533L181.641 65.0389Z" fill="white"/>
<path d="M229.308 59.0084C228.301 57.6411 228.208 56.001 229.099 55.345C229.991 54.689 231.529 55.2655 232.535 56.6328C233.542 58.0001 233.635 59.6402 232.744 60.2962C231.852 60.9522 230.314 60.3756 229.308 59.0084Z" fill="white"/>
<path d="M188.674 27.7534C189.61 29.026 191.882 28.9436 193.747 27.5696C194.189 27.2474 194.582 26.8681 194.919 26.4381C192.712 26.238 190.493 26.1881 188.28 26.2877C188.232 26.8085 188.371 27.3283 188.674 27.7534Z" fill="white"/>
<path d="M208.838 50.591C208.411 49.8752 209.246 48.5895 210.704 47.7193C212.162 46.8491 213.69 46.7239 214.118 47.4397C214.545 48.1555 213.709 49.4413 212.252 50.3115C210.794 51.1817 209.266 51.3068 208.838 50.591Z" fill="white"/>
<path fill-rule="evenodd" clip-rule="evenodd" d="M127.939 97.785C125.876 97.581 123.857 97.526 122.627 97.5381L122.626 97.8451C123.85 97.8332 125.863 97.8879 127.917 98.0911C129.975 98.2947 132.064 98.6461 133.448 99.2229C134.316 99.5846 135.038 100.03 135.513 100.549C135.986 101.066 136.2 101.639 136.098 102.274C135.993 102.925 135.55 103.687 134.613 104.552C133.681 105.413 132.276 106.36 130.283 107.39C129.83 107.586 129.348 107.831 128.951 108.105C128.752 108.242 128.571 108.389 128.425 108.542C128.28 108.693 128.161 108.86 128.096 109.039C128.029 109.225 128.021 109.424 128.097 109.619C128.17 109.806 128.314 109.972 128.522 110.122C128.937 110.421 129.658 110.692 130.782 110.92C131.834 111.135 133.043 111.429 134.174 111.804C135.306 112.18 136.352 112.636 137.082 113.169C137.447 113.436 137.725 113.717 137.897 114.008C138.066 114.296 138.13 114.588 138.079 114.893C138.027 115.205 137.851 115.557 137.498 115.946C137.145 116.334 136.624 116.75 135.902 117.192L135.901 117.193L135.9 117.194C134.626 118.01 130.942 120.342 126.405 123.132L126.509 123.407C131.047 120.618 134.731 118.286 136.008 117.468C136.74 117.02 137.281 116.59 137.657 116.176C138.031 115.764 138.25 115.357 138.317 114.954C138.386 114.544 138.294 114.165 138.092 113.823C137.893 113.486 137.584 113.18 137.205 112.903C136.447 112.349 135.377 111.885 134.238 111.507C133.097 111.128 131.88 110.832 130.823 110.617C129.705 110.39 129.02 110.126 128.644 109.855C128.456 109.72 128.358 109.591 128.315 109.481C128.275 109.378 128.277 109.277 128.317 109.164C128.36 109.045 128.448 108.915 128.579 108.777C128.709 108.641 128.875 108.506 129.066 108.374C129.448 108.111 129.916 107.872 130.363 107.678L130.366 107.677L130.369 107.675C132.373 106.641 133.8 105.682 134.756 104.799C135.708 103.919 136.213 103.098 136.336 102.333C136.462 101.552 136.186 100.876 135.674 100.316C135.164 99.7586 134.407 99.2982 133.527 98.9312C132.113 98.342 129.998 97.9887 127.939 97.785Z" fill="white" stroke="white" stroke-width="0.5"/>
</g>
</svg>
