<svg width="287" height="356" viewBox="0 0 287 356" fill="none" xmlns="http://www.w3.org/2000/svg">
<mask id="mask0_9108_108785" style="mask-type:alpha" maskUnits="userSpaceOnUse" x="8" y="0" width="279" height="356">
<rect x="8" width="279" height="356" rx="16" fill="#FFE295"/>
</mask>
<g mask="url(#mask0_9108_108785)">
<path d="M25.6258 165.843C-3.77819 149.493 14.5711 132.089 3.34664 119.571C-20.2943 93.2076 -16.5645 62.6691 14.1394 48.6132C43.7577 35.0503 86.7859 31.3891 134.923 48.4286C181.134 64.7849 196.264 91.6415 194.919 112.827C193.241 139.261 171.776 158.657 121.967 169.934C77.428 180.018 45.2544 176.755 25.6258 165.843Z" fill="#FFD563"/>
<path d="M143.825 90.7331L152.868 107.867C154.643 111.233 158.74 112.487 162.021 110.664C163.017 110.111 163.859 109.309 164.475 108.333L174.906 91.7882C177.766 87.2519 174.697 81.2576 169.436 81.0915L149.964 80.5043C144.761 80.3443 141.346 86.0349 143.825 90.7331Z" fill="#0074E0"/>
<path d="M161.197 86.501L163.235 75.5078C163.235 75.5078 168.467 75.0711 168.956 71.7019C169.445 68.3326 165.707 68.4388 165.707 68.4388C165.707 68.4388 165.936 63.6493 161.485 61.4819C157.034 59.3145 153.669 60.9551 151.613 64.2863C148.042 70.0593 150.594 73.3705 157.352 76.1048L156.182 83.2299" fill="#A14259"/>
<path d="M167.936 68.8478C167.936 68.8478 171.26 64.797 166.158 60.3604C161.057 55.9238 158.898 57.3705 157.36 55.0577C155.822 52.7448 149.617 58.0977 155.456 62.6752C161.294 67.2526 161.322 66.7472 161.322 66.7472C161.322 66.7472 159.625 69.5518 161.389 70.3465C163.152 71.1413 165.538 68.6105 165.538 68.6105" fill="#032349"/>
<path fill-rule="evenodd" clip-rule="evenodd" d="M153 66.9741L154.666 64.501L155 65.0279L153.334 67.501L153 66.9741Z" fill="white"/>
<path d="M156 67C156.552 67 157 66.5523 157 66C157 65.4477 156.552 65 156 65C155.448 65 155 65.4477 155 66C155 66.5523 155.448 67 156 67Z" fill="white"/>
<path d="M154 64.501C154.552 64.501 155 64.0532 155 63.5009C155 62.9486 154.552 62.501 154 62.501C153.448 62.501 153 62.9486 153 63.5009C153 64.0532 153.448 64.501 154 64.501Z" fill="white"/>
<path d="M106 80.9025L92.7288 89.5005L92 73.5005L106 80.9025Z" fill="#AF687D"/>
<path d="M192.306 61.5005C188.373 50.8163 193.623 38.8799 204.031 34.8417C214.44 30.8036 226.066 36.1912 230 46.8774L192.306 61.5005Z" fill="#F96155"/>
<path d="M176.813 166.966L158.702 143.641L144.963 164.35L154.402 203.919L126.251 203.001C128.674 198.551 134.36 196.966 134.36 196.966C134.36 196.966 123.689 171.654 122.755 161.315C121.501 147.438 145.839 113.234 159.846 116.148C174.629 119.23 196.395 147.201 199.138 159.895C201.696 171.736 198.692 199.886 198.692 199.886L206.394 205.618L179.299 204.737L176.813 166.966Z" fill="#032349"/>
<path fill-rule="evenodd" clip-rule="evenodd" d="M133.117 84.8892C135.38 83.0152 137.736 81.6663 139.957 81.5005L140 82.0933C137.961 82.2455 135.72 83.4993 133.485 85.3506C131.257 87.1956 129.071 89.6026 127.144 91.9989C125.218 94.3938 123.556 96.7701 122.375 98.5483C121.785 99.4372 121.315 100.176 120.994 100.692C120.833 100.951 120.709 101.153 120.625 101.291C120.583 101.36 120.552 101.412 120.53 101.448C120.52 101.465 120.512 101.479 120.507 101.488L120.499 101.5C120.499 101.501 120.499 101.501 120.249 101.347C120 101.193 120 101.193 120 101.193L120 101.192L120.008 101.179C120.014 101.17 120.022 101.156 120.033 101.138C120.055 101.101 120.087 101.048 120.129 100.978C120.214 100.838 120.339 100.634 120.502 100.374C120.826 99.853 121.299 99.1093 121.892 98.2151C123.08 96.427 124.752 94.0351 126.693 91.6219C128.633 89.2103 130.847 86.7695 133.117 84.8892Z" fill="#032349"/>
<path fill-rule="evenodd" clip-rule="evenodd" d="M140.477 99.5005C140.477 99.5004 140.477 99.5004 140.738 99.6621C141 99.8239 141 99.824 141 99.8241L141 99.8248L140.998 99.8272L140.992 99.8364C140.987 99.8445 140.98 99.8564 140.97 99.8721C140.95 99.9036 140.921 99.95 140.882 100.011C140.805 100.132 140.691 100.309 140.543 100.535C140.248 100.986 139.818 101.632 139.277 102.41C138.195 103.966 136.671 106.053 134.9 108.175C133.13 110.296 131.107 112.459 129.029 114.163C126.958 115.862 124.798 117.132 122.754 117.417C118.69 117.982 115.103 115.588 112.363 113.138C111.297 112.185 110.344 111.209 109.534 110.379C109.299 110.139 109.077 109.911 108.867 109.7C108.396 109.225 107.994 108.837 107.659 108.57C107.492 108.436 107.351 108.339 107.232 108.276C107.11 108.212 107.037 108.196 107 108.196V107.583C107.181 107.583 107.358 107.648 107.521 107.734C107.687 107.822 107.863 107.945 108.045 108.092C108.41 108.384 108.834 108.793 109.305 109.268C109.52 109.486 109.747 109.717 109.984 109.96C110.793 110.788 111.726 111.744 112.775 112.682C115.497 115.116 118.897 117.334 122.669 116.809C124.542 116.548 126.594 115.365 128.638 113.69C130.674 112.019 132.669 109.888 134.426 107.783C136.182 105.678 137.696 103.607 138.77 102.061C139.307 101.288 139.735 100.647 140.027 100.2C140.173 99.9761 140.286 99.8008 140.362 99.6817C140.4 99.6221 140.429 99.5766 140.448 99.546C140.458 99.5308 140.465 99.5192 140.47 99.5116L140.476 99.501L140.477 99.5005Z" fill="#032349"/>
<path fill-rule="evenodd" clip-rule="evenodd" d="M99.2745 98.5111C99.2882 98.503 99.312 98.4906 99.3491 98.4747C99.4241 98.4426 99.5324 98.4046 99.6749 98.3622C99.9588 98.2776 100.353 98.1827 100.831 98.0834C101.786 97.8851 103.057 97.6739 104.417 97.4967C105.775 97.3194 107.217 97.1769 108.513 97.1149C109.815 97.0525 110.947 97.0729 111.697 97.212C112.425 97.3469 113.592 97.9059 114.968 98.7074C116.329 99.5007 117.855 100.506 119.286 101.497C120.717 102.486 122.05 103.458 123.025 104.183C123.513 104.545 123.911 104.845 124.187 105.055C124.325 105.16 124.432 105.242 124.505 105.298C124.542 105.326 124.569 105.347 124.588 105.362L124.616 105.383L124.616 105.383C124.616 105.383 124.616 105.383 124.808 105.158C125 104.932 125 104.932 125 104.932L125 104.932L124.971 104.91C124.962 104.902 124.95 104.893 124.936 104.882C124.922 104.872 124.906 104.859 124.887 104.845C124.814 104.789 124.706 104.706 124.567 104.601C124.289 104.39 123.89 104.088 123.4 103.725C122.421 102.997 121.083 102.021 119.645 101.027C118.207 100.032 116.667 99.0167 115.286 98.2119C113.918 97.4154 112.664 96.7994 111.814 96.6419C110.986 96.4886 109.793 96.472 108.482 96.5347C107.165 96.5978 105.705 96.7424 104.334 96.9212C102.963 97.1 101.675 97.3136 100.701 97.5159C100.215 97.6168 99.8014 97.716 99.493 97.8078C99.3394 97.8536 99.2053 97.8994 99.0987 97.9451C99.0455 97.9679 98.9939 97.9929 98.9481 98.0206C98.9059 98.046 98.8502 98.0844 98.8056 98.1392C98.5657 98.4339 98.4334 98.7335 98.4631 99.031C98.4936 99.3361 98.6864 99.5645 98.9253 99.7283C99.3839 100.043 100.136 100.206 100.873 100.297C101.54 100.38 102.246 100.41 102.823 100.417C102.631 100.516 102.419 100.625 102.191 100.743C101.158 101.28 99.7964 102.002 98.4868 102.741C97.1803 103.478 95.9142 104.237 95.0781 104.848C94.6673 105.149 94.3301 105.434 94.1535 105.678C94.0706 105.793 93.9778 105.958 94.0048 106.141C94.0379 106.365 94.2213 106.481 94.3852 106.53C94.6622 106.615 95.0356 106.584 95.4243 106.51C95.8287 106.433 96.3071 106.298 96.8254 106.125C97.4233 105.926 98.0844 105.675 98.7616 105.399C97.7585 106.014 96.8093 106.629 96.1062 107.151C95.6828 107.465 95.3325 107.758 95.1149 108.004C95.0088 108.124 94.9123 108.257 94.8678 108.395C94.8445 108.466 94.8306 108.554 94.8504 108.647C94.8712 108.745 94.9254 108.829 95.0027 108.892C95.3094 109.142 95.7769 109.178 96.2514 109.135C96.7456 109.089 97.34 108.948 97.9869 108.747C99.2834 108.344 100.846 107.683 102.346 106.985C102.372 106.973 102.398 106.961 102.424 106.948C101.942 107.303 101.516 107.644 101.2 107.946C101.056 108.084 100.93 108.219 100.831 108.346C100.734 108.471 100.651 108.605 100.609 108.74C100.566 108.878 100.557 109.05 100.663 109.206C100.765 109.355 100.93 109.427 101.087 109.463C101.396 109.534 101.786 109.497 102.197 109.411C102.618 109.322 103.1 109.173 103.613 108.985C104.64 108.609 105.82 108.068 106.933 107.517C108.047 106.966 109.1 106.401 109.874 105.975C110.261 105.762 110.579 105.583 110.8 105.457C110.91 105.394 110.997 105.344 111.056 105.311C111.085 105.294 111.108 105.281 111.123 105.272L111.146 105.258L111.146 105.258C111.146 105.258 111.146 105.258 110.987 105.01C110.828 104.763 110.828 104.763 110.828 104.763L110.823 104.766L110.806 104.775C110.791 104.784 110.769 104.797 110.74 104.813C110.682 104.847 110.597 104.896 110.487 104.958C110.268 105.083 109.953 105.26 109.569 105.472C108.8 105.896 107.755 106.456 106.652 107.002C105.547 107.549 104.39 108.078 103.394 108.443C102.896 108.625 102.445 108.764 102.066 108.844C101.677 108.925 101.4 108.937 101.229 108.898C101.217 108.896 101.207 108.893 101.199 108.89C101.215 108.847 101.252 108.781 101.322 108.692C101.397 108.594 101.501 108.482 101.633 108.356C102.163 107.848 103.057 107.198 104.03 106.55C104.998 105.905 106.028 105.273 106.816 104.801C107.21 104.565 107.543 104.37 107.778 104.234C107.895 104.166 107.988 104.112 108.051 104.076C108.062 104.07 108.072 104.064 108.082 104.058C108.099 104.049 108.113 104.041 108.123 104.035L108.142 104.024L108.145 104.022L108.146 104.022L108.146 104.021L108.147 104.021L108.148 104.021C108.148 104.021 108.148 104.021 107.991 103.771L108.148 104.021L107.837 103.521L107.991 103.771C107.837 103.521 107.837 103.521 107.837 103.521L107.837 103.521L107.835 103.522L107.835 103.522L107.834 103.523L107.829 103.525L107.806 103.538C107.785 103.55 107.754 103.567 107.713 103.59C107.631 103.635 107.511 103.701 107.358 103.785C107.051 103.952 106.61 104.19 106.076 104.471C105.008 105.034 103.568 105.77 102.078 106.463C100.586 107.157 99.0536 107.805 97.7978 108.195C97.1687 108.391 96.6227 108.517 96.1929 108.557C95.8392 108.589 95.6151 108.558 95.485 108.501C95.5055 108.47 95.5363 108.429 95.5815 108.378C95.756 108.181 96.0641 107.919 96.481 107.609C97.3089 106.994 98.5028 106.237 99.7338 105.498C100.963 104.759 102.22 104.043 103.171 103.512C103.646 103.246 104.045 103.026 104.324 102.873C104.464 102.797 104.574 102.737 104.649 102.696C104.686 102.676 104.715 102.66 104.734 102.65L104.764 102.634C104.764 102.634 104.764 102.634 104.613 102.381L104.764 102.634L104.47 102.125L104.613 102.381C104.47 102.125 104.47 102.125 104.47 102.125L104.446 102.137C104.43 102.145 104.406 102.157 104.374 102.173C104.312 102.205 104.219 102.251 104.101 102.31C103.865 102.427 103.525 102.595 103.113 102.795C102.288 103.194 101.172 103.722 100.008 104.234C98.8422 104.746 97.6347 105.241 96.6245 105.577C96.1188 105.745 95.6702 105.871 95.3051 105.94C95.0086 105.996 94.7985 106.009 94.6653 105.995C94.7871 105.834 95.0509 105.6 95.4493 105.309C96.2542 104.721 97.4932 103.976 98.7974 103.241C100.098 102.507 101.453 101.789 102.483 101.253C102.998 100.986 103.432 100.764 103.737 100.609C103.889 100.532 104.009 100.471 104.091 100.43C104.132 100.41 104.163 100.394 104.184 100.383L104.216 100.367C104.216 100.367 104.216 100.367 104.075 100.11L104.216 100.367L104.059 99.8201L104.055 99.8202L104.042 99.8208C104.029 99.8214 104.011 99.8221 103.987 99.8231C103.939 99.8249 103.869 99.8274 103.779 99.8297C103.601 99.8345 103.347 99.839 103.047 99.8379C102.447 99.8356 101.671 99.8106 100.952 99.7214C100.216 99.6299 99.6037 99.4776 99.2814 99.2568C99.1299 99.1529 99.0784 99.059 99.0701 98.9759C99.0612 98.8872 99.094 98.7379 99.2745 98.5111ZM101.188 108.927C101.188 108.927 101.188 108.927 101.188 108.927Z" fill="#032349"/>
<path fill-rule="evenodd" clip-rule="evenodd" d="M232.13 90.5224C232.345 90.4819 232.64 90.476 232.836 90.699C233.01 90.8979 233.019 91.163 232.983 91.3832C232.946 91.6124 232.85 91.8693 232.723 92.1338C232.465 92.666 232.045 93.2947 231.557 93.9131C231.067 94.5335 230.5 95.1547 229.943 95.6714C229.391 96.1831 228.828 96.6113 228.347 96.823C227.877 97.0294 227.117 97.214 226.267 97.3758C225.408 97.5392 224.431 97.6842 223.512 97.8049C222.592 97.9256 221.727 98.0223 221.092 98.0887C220.774 98.122 220.514 98.1477 220.333 98.1651C220.273 98.1709 220.222 98.1758 220.18 98.1797C220.17 98.1921 220.16 98.2056 220.148 98.2201C220.074 98.3141 219.965 98.4517 219.824 98.6273C219.541 98.9784 219.13 99.4812 218.615 100.089C217.585 101.305 216.138 102.942 214.472 104.627C212.807 106.312 210.918 108.05 209.004 109.463C207.096 110.873 205.138 111.979 203.336 112.372C201.505 112.771 198.931 112.203 196.154 111.182C193.361 110.154 190.301 108.644 187.467 107.091C184.632 105.537 182.016 103.936 180.109 102.724C179.155 102.117 178.378 101.608 177.84 101.25C177.571 101.071 177.361 100.93 177.218 100.834C177.147 100.786 177.093 100.749 177.056 100.724L177.014 100.695L177 100.685C177 100.685 177 100.685 177.169 100.43C177.339 100.174 177.339 100.174 177.339 100.174L177.352 100.183L177.393 100.211C177.429 100.236 177.483 100.273 177.554 100.32C177.695 100.416 177.903 100.556 178.171 100.734C178.707 101.09 179.48 101.597 180.43 102.2C182.329 103.408 184.934 105.002 187.754 106.548C190.576 108.094 193.607 109.589 196.36 110.602C199.131 111.621 201.56 112.128 203.209 111.769C204.888 111.403 206.764 110.356 208.648 108.964C210.528 107.576 212.392 105.862 214.045 104.19C215.697 102.518 217.133 100.894 218.156 99.6863C218.667 99.0828 219.075 98.584 219.355 98.2364C219.495 98.0626 219.603 97.9266 219.676 97.8342C219.712 97.788 219.74 97.7528 219.758 97.7291L219.779 97.7025L219.784 97.6959L219.785 97.6943L219.785 97.6939C219.786 97.6939 219.786 97.6938 220.024 97.8845C219.997 97.5773 219.997 97.5773 219.997 97.5773L220.015 97.5757L220.069 97.5707C220.117 97.5663 220.187 97.5597 220.276 97.5511C220.456 97.5338 220.714 97.5083 221.03 97.4752C221.661 97.4091 222.521 97.313 223.434 97.1932C224.348 97.0732 225.313 96.9299 226.155 96.7695C227.006 96.6075 227.706 96.4329 228.106 96.2568C228.494 96.0862 228.998 95.7135 229.535 95.2155C230.067 94.7224 230.612 94.1248 231.084 93.5268C231.558 92.9268 231.949 92.3375 232.179 91.8614C232.295 91.6218 232.362 91.427 232.385 91.2831C232.401 91.1862 232.393 91.1389 232.387 91.1197C232.368 91.1162 232.325 91.1129 232.24 91.1289C232.086 91.1579 231.874 91.2375 231.612 91.3669C231.093 91.6236 230.45 92.0402 229.816 92.4892C229.185 92.9364 228.572 93.4079 228.118 93.7682C227.89 93.9483 227.703 94.1002 227.572 94.207C227.507 94.2604 227.456 94.3025 227.421 94.3312C227.41 94.3407 227.4 94.3488 227.392 94.3553L227.369 94.3746C227.369 94.3746 227.369 94.3747 227.183 94.1446L227.176 94.1365C226.984 93.8984 226.984 93.8983 226.984 93.8983L226.984 93.8981L226.988 93.8952L226.998 93.8864C227.007 93.8787 227.021 93.8674 227.039 93.8527C227.074 93.8233 227.126 93.7804 227.193 93.7261C227.325 93.6177 227.515 93.4637 227.745 93.2815C228.205 92.9173 228.826 92.4386 229.47 91.9829C230.111 91.5292 230.785 91.0903 231.347 90.8122C231.626 90.6741 231.896 90.5664 232.13 90.5224ZM220.024 97.8845L219.997 97.5773L219.785 97.6939L220.024 97.8845Z" fill="#032349"/>
<path fill-rule="evenodd" clip-rule="evenodd" d="M202.17 96.8713C202.167 96.8687 202.164 96.8661 202.16 96.8635C202.044 96.766 201.873 96.6231 201.654 96.4413C201.214 96.0777 200.581 95.5583 199.804 94.9345C198.251 93.6871 196.121 92.0213 193.819 90.3492C191.517 88.6779 189.038 86.9961 186.784 85.7192C185.658 85.0808 184.583 84.5406 183.612 84.1534C182.645 83.7679 181.761 83.5257 181.021 83.5005L181 84.104C181.636 84.1257 182.443 84.3385 183.384 84.7136C184.321 85.087 185.369 85.613 186.482 86.2434C188.706 87.5041 191.165 89.1709 193.458 90.8363C195.751 92.5009 197.872 94.1602 199.421 95.4036C200.195 96.0253 200.826 96.5427 201.263 96.9046C201.481 97.0856 201.651 97.2277 201.767 97.3244C201.824 97.3728 201.868 97.4098 201.898 97.4347L201.931 97.4628L201.942 97.4717L201.942 97.4721C201.942 97.4722 201.942 97.4722 202.14 97.2428L201.942 97.4721L202.299 97.5005L202.14 97.2428C202.299 97.5005 202.299 97.5005 202.299 97.5005L202.3 97.5002L202.417 97.4293C202.494 97.3828 202.607 97.3145 202.751 97.2271C203.04 97.0524 203.455 96.8018 203.959 96.4979C204.966 95.8901 206.327 95.0695 207.745 94.2179C210.586 92.5123 213.642 90.6895 214.541 90.1981C215.36 89.7505 216.404 89.7406 217.281 89.8614C217.714 89.921 218.093 90.0106 218.364 90.0853C218.499 90.1226 218.607 90.156 218.68 90.1799C218.716 90.1918 218.744 90.2013 218.762 90.2077C218.771 90.2109 218.778 90.2133 218.782 90.2148L218.787 90.2165L218.788 90.2168C218.788 90.2168 218.788 90.2167 218.894 89.9337C219 89.6507 219 89.6507 219 89.6507L219 89.6506L218.999 89.6503L218.997 89.6496L218.99 89.647C218.984 89.6449 218.975 89.6418 218.964 89.638C218.942 89.6304 218.911 89.6196 218.87 89.6063C218.789 89.5799 218.673 89.5437 218.527 89.5036C218.237 89.4236 217.831 89.3275 217.365 89.2633C216.445 89.1365 215.24 89.1266 214.247 89.6693C213.333 90.1684 210.263 92.0001 207.429 93.7014C206.011 94.5533 204.649 95.3742 203.642 95.9822C203.138 96.2861 202.723 96.5369 202.434 96.7116C202.328 96.7753 202.24 96.8289 202.17 96.8713Z" fill="#032349"/>
<path d="M222.5 93.5005C226.642 93.5005 230 90.1426 230 86.0004C230 81.8583 226.642 78.5005 222.5 78.5005C218.358 78.5005 215 81.8583 215 86.0004C215 90.1426 218.358 93.5005 222.5 93.5005Z" fill="#FFA574"/>
<path d="M120.019 54.5005C114.924 54.482 109.96 52.7951 105.824 49.6762C101.671 46.5492 98.5787 42.1137 97 37.0158L119.827 29.5005L127 53.4184C124.734 54.1343 122.38 54.4984 120.014 54.5005H120.019V54.5005Z" fill="white"/>
<path d="M162.332 13.9999L152.043 22.7534L160.797 33.0429L171.086 24.2893L162.332 13.9999Z" fill="#617FA8"/>
</g>
</svg>
