<svg width="279" height="356" viewBox="0 0 279 356" fill="none" xmlns="http://www.w3.org/2000/svg">
<mask id="mask0_4977_13931" style="mask-type:alpha" maskUnits="userSpaceOnUse" x="0" y="0" width="279" height="356">
<rect width="279" height="356" rx="16" fill="#BACADF"/>
</mask>
<g mask="url(#mask0_4977_13931)">
<path d="M99.8283 66.4765C128.096 80.1206 110.456 94.6453 121.246 105.092C143.974 127.093 140.388 152.578 110.871 164.308C82.3972 175.627 41.0319 178.682 -5.24513 164.463C-49.6698 150.813 -64.2156 128.4 -62.9216 110.72C-61.3089 88.6598 -40.6735 72.4736 7.21025 63.062C50.0282 54.6468 80.9584 57.3696 99.8283 66.4765Z" fill="#617FA8"/>
</g>
<path d="M123.098 191.797C114.009 188.528 109.291 178.51 112.56 169.421C115.829 160.333 125.847 155.615 134.936 158.884C144.024 162.153 148.742 172.171 145.473 181.259C142.205 190.348 132.187 195.066 123.098 191.797Z" fill="white"/>
<path fill-rule="evenodd" clip-rule="evenodd" d="M138.434 165.69C138.257 165.997 138.145 166.305 138.138 166.605C138.125 167.044 138.363 167.406 138.685 167.711C139.008 168.016 139.439 168.288 139.861 168.549C139.894 168.569 139.926 168.589 139.959 168.609C140.353 168.852 140.734 169.086 141.035 169.338C141.363 169.612 141.566 169.882 141.605 170.172C141.608 170.195 141.601 170.248 141.529 170.342C141.46 170.432 141.346 170.538 141.187 170.66C140.869 170.903 140.397 171.185 139.815 171.504C139.289 171.792 138.68 172.107 138.02 172.448C137.95 172.484 137.879 172.521 137.808 172.558C137.068 172.941 136.272 173.354 135.471 173.795C133.871 174.676 132.242 175.67 130.985 176.753C129.733 177.831 128.82 179.024 128.708 180.307L128.708 180.307C128.627 181.244 129.111 182.111 129.911 182.89C130.711 183.671 131.849 184.387 133.132 185.03C135.7 186.315 138.888 187.325 141.232 187.973L141.32 187.653C138.983 187.007 135.82 186.004 133.281 184.733C132.011 184.097 130.908 183.399 130.142 182.653C129.376 181.905 128.97 181.131 129.039 180.336C129.139 179.187 129.966 178.069 131.202 177.004C132.432 175.945 134.036 174.964 135.631 174.086C136.428 173.647 137.22 173.235 137.96 172.853C138.032 172.816 138.103 172.779 138.173 172.743C138.832 172.402 139.445 172.085 139.974 171.795C140.559 171.475 141.049 171.183 141.388 170.924C141.558 170.795 141.697 170.668 141.793 170.544C141.886 170.423 141.955 170.28 141.934 170.127C141.878 169.712 141.595 169.373 141.248 169.083C140.927 168.815 140.526 168.568 140.137 168.329C140.103 168.308 140.069 168.287 140.036 168.266C139.609 168.003 139.207 167.747 138.914 167.47C138.621 167.192 138.461 166.917 138.47 166.615L138.47 166.613C138.476 166.389 138.56 166.135 138.722 165.857C138.882 165.579 139.114 165.286 139.4 164.984C139.972 164.381 140.747 163.758 141.565 163.176L141.372 162.905C140.547 163.493 139.752 164.13 139.159 164.756C138.862 165.069 138.612 165.383 138.434 165.69Z" fill="#BACADF" stroke="#BACADF" stroke-width="0.5" stroke-miterlimit="10"/>
<path fill-rule="evenodd" clip-rule="evenodd" d="M127.748 161.067C125.668 160.517 122.906 160.242 120.994 160.159L121.008 159.839C122.93 159.923 125.718 160.199 127.83 160.757C128.881 161.035 129.788 161.389 130.333 161.84C130.607 162.068 130.803 162.331 130.866 162.634C130.93 162.942 130.852 163.262 130.634 163.588C130.213 164.219 129.424 164.826 128.445 165.392C127.462 165.961 126.269 166.499 125.021 166.987C122.765 167.868 120.315 168.589 118.569 169.029C120.257 169.623 122.368 170.516 123.754 171.458C124.137 171.719 124.47 171.988 124.724 172.258C124.977 172.527 125.161 172.808 125.23 173.095C125.301 173.391 125.248 173.683 125.049 173.951C124.855 174.212 124.528 174.444 124.066 174.649C120.467 176.249 114.569 178.981 112.069 180.148L111.933 179.858C114.433 178.691 120.335 175.958 123.936 174.357C124.374 174.162 124.644 173.959 124.792 173.76C124.935 173.568 124.968 173.374 124.919 173.17C124.868 172.959 124.725 172.726 124.491 172.477C124.258 172.23 123.946 171.976 123.574 171.723C122.08 170.706 119.697 169.737 117.95 169.155L117.418 168.978L117.964 168.847C119.708 168.431 122.426 167.657 124.905 166.689C126.145 166.205 127.321 165.673 128.285 165.115C129.253 164.555 129.989 163.979 130.368 163.41C130.551 163.137 130.595 162.903 130.553 162.699C130.51 162.492 130.371 162.287 130.129 162.087C129.641 161.683 128.792 161.343 127.748 161.067Z" fill="#BACADF" stroke="#BACADF" stroke-width="0.5"/>
<path fill-rule="evenodd" clip-rule="evenodd" d="M114.184 184.767C122.949 184.645 128.79 189.512 131.673 192.718L131.92 192.496C129.005 189.255 123.079 184.311 114.179 184.435L114.184 184.767Z" fill="#BACADF" stroke="#BACADF" stroke-width="0.5" stroke-linejoin="round"/>
<path d="M136.191 12.7365L118.521 27.358C115.18 30.12 116.23 35.4903 120.369 36.7896L144.166 44.265C148.304 45.5657 152.231 41.7616 151.075 37.5848L144.941 15.4842C144.13 12.5752 141.114 10.8743 138.205 11.6849C137.468 11.8908 136.781 12.2477 136.191 12.7365Z" fill="#B1E4FD"/>
<path fill-rule="evenodd" clip-rule="evenodd" d="M130.584 48.0503C130.584 48.0501 130.584 48.05 130.335 48.0617C130.086 48.0734 130.086 48.0736 130.087 48.0738L130.091 48.1575C130.093 48.2128 130.097 48.2948 130.103 48.4017C130.114 48.6157 130.131 48.9296 130.155 49.33C130.201 50.1307 130.273 51.2772 130.374 52.6611C130.576 55.4284 130.894 59.1464 131.359 62.9466C131.824 66.745 132.436 70.6332 133.228 73.738C133.624 75.2898 134.067 76.6546 134.562 77.7176C135.053 78.7697 135.615 79.5709 136.275 79.9357C136.651 80.1448 137.141 80.2745 137.692 80.3495C138.246 80.4249 138.878 80.4471 139.553 80.4313C140.901 80.3996 142.437 80.2151 143.88 79.9846C145.325 79.754 146.684 79.4763 147.681 79.2564C148.18 79.1465 148.588 79.0509 148.872 78.9827C149.015 78.9486 149.126 78.9214 149.201 78.9027C149.239 78.8933 149.268 78.8861 149.287 78.8811L149.31 78.8755L149.315 78.8741L149.317 78.8737L149.317 78.8736C149.317 78.8736 149.317 78.8736 149.256 78.6322C149.194 78.3909 149.194 78.3909 149.194 78.3909L149.194 78.391L149.193 78.3914L149.166 78.3981C149.147 78.4029 149.119 78.41 149.081 78.4192C149.007 78.4377 148.897 78.4646 148.756 78.4984C148.475 78.5659 148.069 78.6608 147.574 78.77C146.582 78.9886 145.234 79.2641 143.802 79.4928C142.368 79.7216 140.858 79.9024 139.541 79.9334C138.883 79.9488 138.278 79.9267 137.759 79.856C137.237 79.7849 136.816 79.6667 136.516 79.5001L136.516 79.4999C136.002 79.2158 135.496 78.541 135.014 77.5071C134.537 76.4839 134.103 75.1525 133.711 73.6149C132.927 70.5408 132.317 66.6772 131.853 62.8861C131.39 59.0967 131.072 55.3874 130.871 52.6248C130.77 51.2437 130.698 50.0997 130.652 49.301C130.629 48.9017 130.612 48.5887 130.6 48.3757C130.595 48.2692 130.591 48.1877 130.588 48.1328L130.584 48.0513L130.584 48.0503Z" fill="white" stroke="white" stroke-width="0.3" stroke-linejoin="bevel"/>
<path fill-rule="evenodd" clip-rule="evenodd" d="M142.144 69.934C142.144 69.9341 142.144 69.9342 142.39 69.8972C142.451 70.1386 142.451 70.1386 142.451 70.1386L142.458 70.137L142.477 70.132C142.495 70.1276 142.521 70.1211 142.555 70.1126C142.624 70.0957 142.725 70.071 142.855 70.04C143.116 69.978 143.492 69.8909 143.952 69.7907C144.873 69.5903 146.132 69.338 147.485 69.1296C148.839 68.9211 150.281 68.7575 151.569 68.7329C152.868 68.7082 153.973 68.8261 154.677 69.1531L154.887 68.7014C154.073 68.3234 152.869 68.21 151.56 68.235C150.24 68.2601 148.774 68.4271 147.409 68.6373C146.043 68.8477 144.774 69.1022 143.846 69.304C143.382 69.405 143.003 69.4928 142.74 69.5555C142.687 69.5681 142.639 69.5797 142.596 69.5901C142.581 69.492 142.562 69.3686 142.54 69.2224C142.479 68.8145 142.39 68.2287 142.282 67.5172C142.066 66.0941 141.772 64.1678 141.46 62.1549C140.836 58.1337 140.138 53.7539 139.847 52.3614L139.359 52.4635C139.647 53.8396 140.343 58.2022 140.968 62.2312C141.28 64.2434 141.574 66.1692 141.79 67.5919C141.898 68.3033 141.986 68.8889 142.048 69.2966C142.078 69.5005 142.102 69.6599 142.119 69.7683L142.144 69.9335L142.144 69.934ZM142.39 69.8972L142.451 70.1386L142.144 69.9342L142.39 69.8972Z" fill="white"/>
<path d="M142.39 69.8972C142.144 69.9342 142.144 69.9341 142.144 69.934L142.144 69.9335L142.119 69.7683C142.102 69.6599 142.078 69.5005 142.048 69.2966C141.986 68.8889 141.898 68.3033 141.79 67.5919C141.574 66.1692 141.28 64.2434 140.968 62.2312C140.343 58.2022 139.647 53.8396 139.359 52.4635L139.847 52.3614C140.138 53.7539 140.836 58.1337 141.46 62.1549C141.772 64.1678 142.066 66.0941 142.282 67.5172C142.39 68.2287 142.479 68.8145 142.54 69.2224C142.562 69.3686 142.581 69.492 142.596 69.5901C142.639 69.5797 142.687 69.5681 142.74 69.5555C143.003 69.4928 143.382 69.405 143.846 69.304C144.774 69.1022 146.043 68.8477 147.409 68.6373C148.774 68.4271 150.24 68.2601 151.56 68.235C152.869 68.21 154.073 68.3234 154.887 68.7014L154.677 69.1531C153.973 68.8261 152.868 68.7082 151.569 68.7329C150.281 68.7575 148.839 68.9211 147.485 69.1296C146.132 69.338 144.873 69.5903 143.952 69.7907C143.492 69.8909 143.116 69.978 142.855 70.04C142.725 70.071 142.624 70.0957 142.555 70.1126C142.521 70.1211 142.495 70.1276 142.477 70.132L142.458 70.137L142.451 70.1386M142.39 69.8972C142.451 70.1386 142.451 70.1386 142.451 70.1386M142.39 69.8972L142.451 70.1386M142.39 69.8972L142.144 69.9342L142.451 70.1386" stroke="white" stroke-width="0.3" stroke-linejoin="bevel"/>
<path d="M85.1065 91.0287C80.9668 89.5398 78.8178 84.9769 80.3067 80.8372C81.7956 76.6975 86.3587 74.5486 90.4984 76.0375C94.6381 77.5264 96.7869 82.0894 95.2979 86.2291C93.809 90.3688 89.2462 92.5176 85.1065 91.0287Z" fill="#FBC73B"/>
<path d="M73.4124 173.325C76.1167 174.292 79.0939 172.883 80.0613 170.178C81.0287 167.474 79.6187 164.497 76.9144 163.529L76.8941 163.522C74.1897 162.555 71.2126 163.964 70.2453 166.669C69.2779 169.373 70.6877 172.35 73.3921 173.318L73.4124 173.325Z" fill="white"/>
<path d="M76.8299 163.762L76.8111 163.755C74.2364 162.835 71.4007 164.175 70.4799 166.75C69.5592 169.325 70.8999 172.161 73.4761 173.082L73.4949 173.089C76.0696 174.009 78.9037 172.668 79.8245 170.093C80.7452 167.519 79.4045 164.683 76.8299 163.762ZM76.9984 163.294C79.8324 164.308 81.3094 167.427 80.2954 170.261C79.2814 173.095 76.1618 174.572 73.3278 173.558L73.3075 173.551C70.473 172.538 68.996 169.419 70.0084 166.584C71.0209 163.75 74.1405 162.273 76.9766 163.286L76.9984 163.294Z" fill="#BACADF"/>
<path d="M226.479 177.964C220.692 175.751 217.795 169.266 220.008 163.479C222.221 157.692 228.706 154.795 234.493 157.008C240.28 159.221 243.177 165.706 240.964 171.493C238.751 177.28 232.266 180.177 226.479 177.964Z" fill="#FBC73B"/>
<path d="M49.9782 165.162C42.9895 162.649 39.3618 154.946 41.8754 147.957C44.389 140.968 52.0921 137.34 59.0808 139.854C66.0694 142.368 69.6972 150.071 67.1836 157.059C64.67 164.048 56.9669 167.676 49.9782 165.162Z" fill="#F96155"/>
<path d="M216.755 65.9411C213.024 64.599 211.087 60.4859 212.429 56.7543C213.771 53.0227 217.884 51.0856 221.616 52.4278C225.347 53.7699 227.284 57.883 225.942 61.6146C224.6 65.3462 220.487 67.2832 216.755 65.9411Z" fill="#FBC73B"/>
<path fill-rule="evenodd" clip-rule="evenodd" d="M134.058 17.944C133.772 17.1603 133.314 16.3235 132.797 15.5149L132.555 15.6696C133.067 16.4693 133.512 17.2864 133.789 18.0425C134.066 18.8023 134.166 19.4802 134.015 20.0128C133.829 20.6621 133.329 21.1137 132.654 21.4247C131.977 21.7361 131.141 21.8983 130.318 21.974C129.497 22.0495 128.7 22.0381 128.107 22.0076C127.811 21.9924 127.566 21.9725 127.395 21.9564C127.31 21.9483 127.244 21.9412 127.199 21.9361C127.176 21.9336 127.159 21.9316 127.147 21.9302L127.135 21.9286L127.131 21.9283L127.131 21.9282L127.131 21.9281C127.131 21.9281 127.131 21.9281 127.13 21.9298L127.131 21.9281L126.346 21.8279L127.045 22.1973L127.045 22.1973L127.045 22.1973L127.046 22.1975L127.048 22.1987C127.05 22.1998 127.053 22.2014 127.057 22.2038C127.066 22.2084 127.079 22.2155 127.096 22.2251C127.129 22.2443 127.179 22.2734 127.243 22.3125C127.371 22.3907 127.553 22.5088 127.77 22.6671C128.205 22.984 128.777 23.461 129.327 24.1013C130.427 25.3806 131.437 27.3071 131.095 29.9153L131.095 29.9153C130.571 33.9288 127.289 36.8263 125.287 38.2389L125.452 38.4734C127.466 37.0528 130.839 34.0934 131.38 29.9525C131.734 27.2422 130.682 25.237 129.545 23.9143C128.977 23.2534 128.387 22.7618 127.939 22.4353C127.856 22.3746 127.778 22.3195 127.705 22.2701C127.821 22.2786 127.951 22.2869 128.092 22.2942C128.694 22.3251 129.506 22.3369 130.344 22.2597C131.182 22.1826 132.055 22.0162 132.774 21.6853C133.494 21.3539 134.074 20.8496 134.291 20.0915L134.291 20.0913C134.467 19.4718 134.343 18.724 134.058 17.944Z" fill="#153B67" stroke="#153B67" stroke-width="0.5" stroke-miterlimit="10"/>
<path fill-rule="evenodd" clip-rule="evenodd" d="M139.896 24.5315C141.69 22.3821 144.101 20.4994 146.021 19.1791L145.859 18.9427C143.93 20.2689 141.494 22.1689 139.675 24.3477C137.861 26.5219 136.635 29.0051 137.196 31.4865C137.783 34.087 140.03 35.6725 142.725 36.6338C145.424 37.5965 148.612 37.9483 151.156 38.0577L151.169 37.771C148.635 37.6621 145.48 37.312 142.821 36.3636C140.158 35.4137 138.03 33.8786 137.476 31.4233L137.476 31.4233C136.945 29.0761 138.098 26.6855 139.896 24.5315Z" fill="#153B67" stroke="#153B67" stroke-width="0.5" stroke-miterlimit="10"/>
<path d="M199.619 68.159C194.89 79.9395 200.605 93.324 212.385 98.0545C224.166 102.784 237.551 97.0688 242.281 85.287L199.619 68.159Z" fill="#F96155"/>
<path d="M172.152 93.7969C176.503 86.7572 174.323 77.5237 167.284 73.1748C160.246 68.826 151.011 71.004 146.662 78.0427C146.612 78.125 146.563 78.2063 146.514 78.2892L172.152 93.7969Z" fill="#032349"/>
<path d="M170.772 62.4794C170.772 62.4794 165.507 61.1466 162.447 63.296C159.387 65.4454 160.046 70.776 160.046 70.776L171.077 76.0227L170.772 62.4794Z" fill="#FBC73B"/>
<path d="M166.217 77.5019L173.675 71.751C173.675 71.751 176.777 73.0644 178.083 71.2686C179.389 69.4729 177.238 68.4044 177.238 68.4044C177.238 68.4044 178.824 65.7058 176.957 63.1218C175.09 60.5377 171.169 61.5535 169.381 63.3573C166.739 66.0223 166.378 68.4011 169.427 70.7257L165.166 73.6941" fill="#FFF5EB"/>
<path fill-rule="evenodd" clip-rule="evenodd" d="M169.124 66L171 64.683L170.876 64L169 65.317L169.124 66Z" fill="#153B67"/>
<path d="M168.269 75.9189C166.863 72.6415 176.661 66.9803 176.661 66.9803C172.946 65.6441 171.183 62.1361 171.183 62.1361C171.183 62.1361 175.902 59.4611 179.111 64.3207C182.321 69.1803 180.294 72.5215 180.294 72.5215C180.294 72.5215 183.106 78.2277 179.324 81.4934C175.541 84.7591 169.57 82.7791 169.57 82.7791C169.57 82.7791 169.386 78.5226 168.269 75.9189Z" fill="#FBC73B"/>
<path d="M170.178 63.9616C169.944 63.7823 169.976 63.3481 170.249 62.9918C170.522 62.6355 170.933 62.4921 171.167 62.6714C171.401 62.8507 171.369 63.2849 171.096 63.6412C170.823 63.9975 170.412 64.1409 170.178 63.9616Z" fill="#153B67"/>
<path d="M171.534 65.6751C171.3 65.4958 171.332 65.0616 171.606 64.7053C171.879 64.349 172.29 64.2055 172.523 64.3848C172.757 64.5641 172.726 64.9983 172.452 65.3546C172.179 65.7108 171.768 65.8544 171.534 65.6751Z" fill="#153B67"/>
<path d="M94.0418 67.106L96.7197 73.3516L90.4742 76.0295L87.7963 69.7839L94.0418 67.106Z" fill="#153B67"/>
<path d="M143.678 159.069L118.236 156.461C118.236 156.461 122.324 153.605 126.531 153.642C126.531 153.642 122.55 128.038 125.118 122.954C127.685 117.87 139.882 106.844 139.882 106.844L119.7 104.861L92.2848 112.728L85.0991 91.0446C85.0991 91.0446 89.282 93.4984 89.8128 94.9561C89.8128 94.9561 108.546 87.7556 114.463 87.1491C120.38 86.5425 147.81 86.7626 156.3 91.697C164.636 96.5421 165.57 105.531 161.05 110.765C156.53 115.999 145.2 126.485 145.2 126.485L143.678 159.069Z" fill="#BACADF"/>
<path fill-rule="evenodd" clip-rule="evenodd" d="M134.276 112.222L146.942 101.258L146.576 100.778L133.91 111.742L134.276 112.222Z" fill="#032349"/>
<path d="M209.837 71.7133C209.889 71.7175 209.943 71.7219 209.996 71.7187L243.833 71.5856C244.857 71.5819 245.685 70.7498 245.681 69.7252C245.678 68.7621 244.937 67.9614 243.978 67.8833C243.925 67.879 243.871 67.8746 243.818 67.8768L209.982 68.01C208.958 68.0194 208.134 68.8564 208.143 69.8816C208.152 70.8366 208.884 71.63 209.837 71.7133Z" fill="white"/>
<path fill-rule="evenodd" clip-rule="evenodd" d="M177.051 85.5044L184.195 97.4909L199.293 102.171L199.44 101.695L184.525 97.0717L177.479 85.2494L177.051 85.5044Z" fill="white" stroke="white" stroke-width="0.3" stroke-miterlimit="10"/>
<path fill-rule="evenodd" clip-rule="evenodd" d="M175.789 102.652C176.785 103.709 177.806 104.57 178.732 104.917C184.169 106.954 190.7 108.128 195.863 108.794C198.446 109.127 200.69 109.334 202.289 109.457C203.089 109.518 203.727 109.559 204.166 109.584C204.385 109.597 204.554 109.605 204.669 109.611C204.726 109.614 204.77 109.616 204.8 109.617L204.833 109.619L204.844 109.619C204.844 109.619 204.844 109.619 204.855 109.37C204.865 109.122 204.865 109.122 204.865 109.122L204.855 109.121L204.822 109.12C204.793 109.118 204.75 109.116 204.694 109.114C204.58 109.108 204.412 109.099 204.194 109.087C203.758 109.062 203.123 109.021 202.327 108.96C200.735 108.838 198.5 108.632 195.926 108.3C190.777 107.636 184.29 106.467 178.907 104.45C178.095 104.146 177.14 103.359 176.151 102.31C175.17 101.269 174.179 99.9969 173.294 98.7605C172.409 97.525 171.631 96.3293 171.075 95.4422C170.797 94.9988 170.575 94.6328 170.422 94.3778C170.345 94.2504 170.286 94.1507 170.246 94.083C170.226 94.0491 170.211 94.0233 170.201 94.0059L170.19 93.9864L170.186 93.9804L170.186 93.9801C170.186 93.9801 170.186 93.98 169.97 94.1049C169.755 94.2297 169.755 94.2297 169.755 94.2298L169.759 94.2368L169.771 94.2571C169.781 94.2749 169.797 94.3013 169.817 94.3357C169.858 94.4045 169.917 94.5054 169.995 94.6341C170.149 94.8915 170.373 95.2603 170.653 95.7068C171.213 96.5996 171.996 97.8043 172.889 99.0505C173.781 100.296 174.786 101.587 175.789 102.652Z" fill="white"/>
<path d="M178.907 104.45C184.29 106.467 190.777 107.636 195.926 108.3C198.5 108.632 200.735 108.838 202.327 108.96C203.123 109.021 203.758 109.062 204.194 109.087C204.412 109.099 204.58 109.108 204.694 109.114C204.75 109.116 204.793 109.118 204.822 109.12L204.855 109.121L204.865 109.122C204.865 109.122 204.865 109.122 204.855 109.37C204.844 109.619 204.844 109.619 204.844 109.619L204.833 109.619L204.8 109.617C204.77 109.616 204.726 109.614 204.669 109.611C204.554 109.605 204.385 109.597 204.166 109.584C203.727 109.559 203.089 109.518 202.289 109.457C200.69 109.334 198.446 109.127 195.863 108.794C190.7 108.128 184.169 106.954 178.732 104.917C177.806 104.57 176.785 103.709 175.789 102.652C174.786 101.587 173.781 100.296 172.889 99.0505C171.996 97.8043 171.213 96.5996 170.653 95.7068C170.373 95.2603 170.149 94.8915 169.995 94.6341C169.917 94.5054 169.858 94.4045 169.817 94.3357C169.797 94.3013 169.781 94.2749 169.771 94.2571L169.759 94.2368L169.755 94.2298C169.755 94.2297 169.755 94.2297 169.97 94.1049C170.186 93.98 170.186 93.9801 170.186 93.9801L170.186 93.9804L170.19 93.9864L170.201 94.0059C170.211 94.0233 170.226 94.0491 170.246 94.083C170.286 94.1507 170.345 94.2504 170.422 94.3778C170.575 94.6328 170.797 94.9988 171.075 95.4422C171.631 96.3293 172.409 97.525 173.294 98.7605C174.179 99.9969 175.17 101.269 176.151 102.31C177.14 103.359 178.095 104.146 178.907 104.45ZM178.907 104.45L178.819 104.684" stroke="white" stroke-width="0.3" stroke-miterlimit="10"/>
<path fill-rule="evenodd" clip-rule="evenodd" d="M134.822 46.342C134.822 46.342 134.822 46.342 134.824 46.093C134.826 45.8439 134.826 45.8439 134.826 45.8439L134.825 45.8439L134.822 45.8439L134.812 45.8439C134.804 45.8439 134.792 45.844 134.777 45.8441C134.747 45.8445 134.703 45.8452 134.647 45.847C134.535 45.8504 134.376 45.8578 134.183 45.8734C133.798 45.9046 133.276 45.9689 132.731 46.1021C131.669 46.3621 130.404 46.914 130.05 48.1183L130.528 48.2584C130.798 47.3383 131.8 46.8426 132.849 46.5859C133.361 46.4609 133.855 46.3996 134.223 46.3699C134.407 46.355 134.558 46.348 134.662 46.3448C134.715 46.3432 134.755 46.3425 134.783 46.3422C134.796 46.342 134.806 46.342 134.813 46.342L134.82 46.342L134.822 46.342L134.822 46.342C134.822 46.342 134.822 46.342 134.822 46.342Z" fill="white"/>
<path d="M134.822 46.342C134.822 46.342 134.822 46.342 134.824 46.093C134.826 45.8439 134.826 45.8439 134.826 45.8439L134.825 45.8439L134.822 45.8439L134.812 45.8439C134.804 45.8439 134.792 45.844 134.777 45.8441C134.747 45.8445 134.703 45.8452 134.647 45.847C134.535 45.8504 134.376 45.8578 134.183 45.8734C133.798 45.9046 133.276 45.9689 132.731 46.1021C131.669 46.3621 130.404 46.914 130.05 48.1183L130.528 48.2584C130.798 47.3383 131.8 46.8426 132.849 46.5859C133.361 46.4609 133.855 46.3996 134.223 46.3699C134.407 46.355 134.558 46.348 134.662 46.3448C134.715 46.3432 134.755 46.3425 134.783 46.3422C134.796 46.342 134.806 46.342 134.813 46.342L134.82 46.342L134.822 46.342L134.822 46.342ZM134.822 46.342C134.822 46.342 134.822 46.342 134.822 46.342Z" stroke="white" stroke-width="0.3" stroke-linejoin="bevel"/>
<path fill-rule="evenodd" clip-rule="evenodd" d="M138.687 49.8765C139.04 50.8039 139.28 51.8621 139.385 52.5342L139.877 52.4577C139.768 51.7594 139.521 50.6662 139.153 49.6992C138.969 49.2162 138.751 48.7546 138.499 48.3875C138.252 48.0266 137.948 47.7222 137.579 47.6123C136.97 47.4306 136.151 47.3752 135.393 47.375C134.63 47.3748 133.903 47.4308 133.464 47.483L133.247 47.5089L133.245 47.7281C133.238 48.4609 133.874 49.776 136.102 49.9832L136.148 49.4872C134.421 49.3267 133.882 48.4677 133.768 47.9513C134.192 47.9101 134.78 47.8729 135.393 47.873C136.141 47.8732 136.899 47.9293 137.437 48.0896C137.642 48.1507 137.864 48.3412 138.089 48.6692C138.309 48.991 138.511 49.4123 138.687 49.8765Z" fill="white" stroke="white" stroke-width="0.3"/>
<path fill-rule="evenodd" clip-rule="evenodd" d="M207.239 103.78C207.239 103.78 207.239 103.78 207.477 103.854L207.239 103.78L207.222 103.836L207.231 103.894C207.648 106.432 207.011 107.706 206.287 108.359C205.566 109.01 204.702 109.103 204.456 109.13C204.449 109.131 204.443 109.131 204.437 109.132L204.492 109.627C204.499 109.626 204.506 109.625 204.515 109.625C204.777 109.596 205.778 109.489 206.62 108.729C207.5 107.935 208.149 106.486 207.732 103.871C207.742 103.838 207.757 103.79 207.775 103.73C207.813 103.605 207.866 103.427 207.93 103.212C208.056 102.782 208.221 102.208 208.375 101.629C208.529 101.051 208.673 100.463 208.755 100.008C208.797 99.7828 208.825 99.5796 208.829 99.4235C208.831 99.3473 208.828 99.2666 208.812 99.195C208.799 99.1399 208.756 98.9979 208.606 98.9439C208.434 98.8823 208.262 98.9103 208.112 98.9745C207.964 99.0379 207.821 99.143 207.685 99.2668C207.414 99.5147 207.132 99.8778 206.862 100.278C206.32 101.083 205.79 102.091 205.448 102.78L205.894 103.001C206.234 102.317 206.752 101.333 207.275 100.557C207.538 100.167 207.794 99.8424 208.021 99.6343C208.135 99.5302 208.232 99.4652 208.308 99.4324C208.316 99.429 208.324 99.426 208.331 99.4234C208.326 99.5404 208.304 99.7086 208.265 99.9189C208.186 100.353 208.046 100.926 207.894 101.501C207.741 102.074 207.578 102.644 207.452 103.071C207.389 103.285 207.336 103.462 207.298 103.586C207.279 103.648 207.264 103.697 207.254 103.73L207.243 103.768L207.239 103.78ZM208.327 99.3093C208.325 99.3026 208.325 99.3038 208.327 99.31C208.327 99.3097 208.327 99.3095 208.327 99.3093Z" fill="white"/>
<path d="M207.239 103.78C207.239 103.78 207.239 103.78 207.477 103.854L207.239 103.78ZM207.239 103.78L207.222 103.836L207.231 103.894C207.648 106.432 207.011 107.706 206.287 108.359C205.566 109.01 204.702 109.103 204.456 109.13C204.449 109.131 204.443 109.131 204.437 109.132L204.492 109.627C204.499 109.626 204.506 109.625 204.515 109.625C204.777 109.596 205.778 109.489 206.62 108.729C207.5 107.935 208.149 106.486 207.732 103.871C207.742 103.838 207.757 103.79 207.775 103.73C207.813 103.605 207.866 103.427 207.93 103.212C208.056 102.782 208.221 102.208 208.375 101.629C208.529 101.051 208.673 100.463 208.755 100.008C208.797 99.7828 208.825 99.5796 208.829 99.4235C208.831 99.3473 208.828 99.2666 208.812 99.195C208.799 99.1399 208.756 98.9979 208.606 98.9439C208.434 98.8823 208.262 98.9103 208.112 98.9745C207.964 99.0379 207.821 99.143 207.685 99.2668C207.414 99.5147 207.132 99.8778 206.862 100.278C206.32 101.083 205.79 102.091 205.448 102.78L205.894 103.001C206.234 102.317 206.752 101.333 207.275 100.557C207.538 100.167 207.794 99.8424 208.021 99.6343C208.135 99.5302 208.232 99.4652 208.308 99.4324C208.316 99.429 208.324 99.426 208.331 99.4234C208.326 99.5404 208.304 99.7086 208.265 99.9189C208.186 100.353 208.046 100.926 207.894 101.501C207.741 102.074 207.578 102.644 207.452 103.071C207.389 103.285 207.336 103.462 207.298 103.586C207.279 103.648 207.264 103.697 207.254 103.73L207.243 103.768L207.239 103.78ZM208.327 99.3093C208.325 99.3026 208.325 99.3038 208.327 99.31C208.327 99.3097 208.327 99.3095 208.327 99.3093Z" stroke="white" stroke-width="0.3" stroke-miterlimit="10"/>
<path fill-rule="evenodd" clip-rule="evenodd" d="M202.424 105.376C202.338 105.643 202.288 105.985 202.494 106.237L202.494 106.237C202.605 106.373 202.759 106.416 202.901 106.41C203.017 106.405 203.133 106.368 203.241 106.32C203.114 106.53 203.004 106.741 202.93 106.938C202.867 107.105 202.823 107.281 202.828 107.447C202.833 107.62 202.894 107.795 203.048 107.92C203.16 108.011 203.294 108.02 203.392 108.013C203.495 108.005 203.602 107.974 203.704 107.937C203.907 107.862 204.136 107.739 204.344 107.615C204.554 107.49 204.753 107.357 204.898 107.256C204.918 107.242 204.937 107.229 204.955 107.217L205.456 107.776L205.827 107.444L205.024 106.548L204.842 106.684L204.841 106.685L204.838 106.687L204.827 106.696C204.816 106.703 204.801 106.714 204.781 106.729C204.741 106.758 204.684 106.799 204.614 106.847C204.474 106.944 204.286 107.07 204.089 107.188C203.89 107.307 203.692 107.411 203.532 107.47C203.451 107.5 203.391 107.513 203.353 107.516C203.351 107.516 203.349 107.517 203.347 107.517C203.336 107.501 203.327 107.476 203.326 107.432C203.324 107.358 203.344 107.252 203.396 107.113C203.5 106.836 203.703 106.5 203.939 106.165C204.172 105.833 204.428 105.517 204.626 105.283C204.724 105.166 204.808 105.07 204.867 105.003C204.897 104.97 204.92 104.944 204.936 104.927C204.944 104.918 204.95 104.911 204.954 104.907L204.959 104.901L204.96 104.901L204.96 104.901C204.96 104.901 204.96 104.901 204.908 104.853L204.648 104.613C204.594 104.563 204.594 104.563 204.594 104.563L204.594 104.563L204.594 104.563L204.593 104.564L204.593 104.564L204.59 104.567C204.587 104.571 204.582 104.576 204.576 104.582C204.564 104.595 204.546 104.614 204.523 104.638C204.478 104.685 204.411 104.754 204.33 104.834C204.168 104.996 203.95 105.204 203.72 105.397C203.488 105.593 203.258 105.76 203.073 105.849C202.978 105.895 202.915 105.911 202.88 105.912C202.877 105.912 202.875 105.912 202.873 105.912C202.844 105.866 202.825 105.755 202.898 105.528C202.971 105.3 203.112 105.033 203.277 104.769C203.44 104.509 203.619 104.264 203.757 104.083C203.826 103.993 203.885 103.92 203.926 103.869C203.947 103.844 203.963 103.824 203.974 103.811C203.979 103.805 203.983 103.8 203.986 103.797L203.989 103.793L203.99 103.792L203.99 103.792C203.99 103.792 203.99 103.792 203.8 103.631C203.61 103.47 203.61 103.47 203.61 103.47L203.61 103.47L203.609 103.471L203.605 103.476C203.602 103.48 203.597 103.485 203.591 103.493C203.579 103.507 203.562 103.528 203.54 103.555C203.496 103.609 203.434 103.686 203.362 103.78C203.218 103.968 203.029 104.226 202.855 104.505C202.682 104.781 202.515 105.09 202.424 105.376ZM203.363 107.534C203.363 107.534 203.363 107.534 203.363 107.534V107.534Z" fill="white"/>
<path d="M203.33 107.517C203.329 107.516 203.329 107.516 203.329 107.516M202.494 106.237C202.288 105.985 202.338 105.643 202.424 105.376C202.515 105.09 202.682 104.781 202.855 104.505C203.029 104.226 203.218 103.968 203.362 103.78C203.434 103.686 203.496 103.609 203.54 103.555C203.562 103.528 203.579 103.507 203.591 103.493C203.597 103.485 203.602 103.48 203.605 103.476L203.609 103.471L203.61 103.47L203.61 103.47C203.61 103.47 203.61 103.47 203.8 103.631C203.99 103.792 203.99 103.792 203.99 103.792L203.99 103.792L203.989 103.793L203.986 103.797C203.983 103.8 203.979 103.805 203.974 103.811C203.963 103.824 203.947 103.844 203.926 103.869C203.885 103.92 203.826 103.993 203.757 104.083C203.619 104.264 203.44 104.509 203.277 104.769C203.112 105.033 202.971 105.3 202.898 105.528C202.825 105.755 202.844 105.866 202.873 105.912C202.875 105.912 202.877 105.912 202.88 105.912C202.915 105.911 202.978 105.895 203.073 105.849C203.258 105.76 203.488 105.593 203.72 105.397C203.95 105.204 204.168 104.996 204.33 104.834C204.411 104.754 204.478 104.685 204.523 104.638C204.546 104.614 204.564 104.595 204.576 104.582C204.582 104.576 204.587 104.571 204.59 104.567L204.593 104.564L204.593 104.564L204.594 104.563L204.594 104.563L204.594 104.563C204.594 104.563 204.594 104.563 204.648 104.613L204.908 104.853C204.96 104.901 204.96 104.901 204.96 104.901L204.96 104.901L204.959 104.901L204.954 104.907C204.95 104.911 204.944 104.918 204.936 104.927C204.92 104.944 204.897 104.97 204.867 105.003C204.808 105.07 204.724 105.166 204.626 105.283C204.428 105.517 204.172 105.833 203.939 106.165C203.703 106.5 203.5 106.836 203.396 107.113C203.344 107.252 203.324 107.358 203.326 107.432C203.327 107.476 203.336 107.501 203.347 107.517C203.349 107.517 203.351 107.516 203.353 107.516C203.391 107.513 203.451 107.5 203.532 107.47C203.692 107.411 203.89 107.307 204.089 107.188C204.286 107.07 204.474 106.944 204.614 106.847C204.684 106.799 204.741 106.758 204.781 106.729C204.801 106.714 204.816 106.703 204.827 106.696L204.838 106.687L204.841 106.685L204.842 106.684L205.024 106.548L205.827 107.444L205.456 107.776L204.955 107.217C204.937 107.229 204.918 107.242 204.898 107.256C204.753 107.357 204.554 107.49 204.344 107.615C204.136 107.739 203.907 107.862 203.704 107.937C203.602 107.974 203.495 108.005 203.392 108.013C203.294 108.02 203.16 108.011 203.048 107.92C202.894 107.795 202.833 107.62 202.828 107.447C202.823 107.281 202.867 107.105 202.93 106.938C203.004 106.741 203.114 106.53 203.241 106.32C203.133 106.368 203.017 106.405 202.901 106.41C202.759 106.416 202.605 106.373 202.494 106.237L202.494 106.237ZM203.363 107.534C203.363 107.534 203.363 107.534 203.363 107.534Z" stroke="white" stroke-width="0.3" stroke-miterlimit="10"/>
<path fill-rule="evenodd" clip-rule="evenodd" d="M205.3 101.631C204.853 101.192 204.207 100.947 203.374 100.927C202.072 100.897 200.014 101.403 199.159 101.654L199.299 102.132C200.154 101.881 202.145 101.397 203.362 101.425C204.104 101.443 204.616 101.658 204.951 101.986C205.288 102.316 205.475 102.787 205.51 103.374L205.511 103.382L205.512 103.389C205.537 103.601 205.572 103.94 205.594 104.266C205.606 104.447 205.614 104.615 205.615 104.753C204.935 104.541 203.842 103.932 203.38 102.686L202.913 102.859C203.527 104.517 205.092 105.183 205.805 105.313L206.058 105.359L206.096 105.105C206.126 104.906 206.113 104.559 206.091 104.233C206.068 103.9 206.033 103.556 206.007 103.337C205.966 102.665 205.745 102.066 205.3 101.631Z" fill="white" stroke="white" stroke-width="0.3"/>
<path fill-rule="evenodd" clip-rule="evenodd" d="M136.626 43.397C136.78 44.3312 136.93 45.7846 137.106 47.8115L137.602 47.7685C137.426 45.7434 137.275 44.2719 137.118 43.3164C137.04 42.8415 136.958 42.4778 136.866 42.2338C136.821 42.1142 136.765 42.0006 136.689 41.9173C136.606 41.827 136.474 41.7486 136.31 41.787C136.175 41.8186 136.08 41.9182 136.018 42.0009C135.95 42.091 135.886 42.2076 135.825 42.3412C135.702 42.6097 135.571 42.9877 135.428 43.4615C135.141 44.4114 134.794 45.7868 134.36 47.5339L134.843 47.6541C135.278 45.9032 135.622 44.5411 135.905 43.6055C136.047 43.1367 136.17 42.785 136.278 42.5483C136.315 42.4666 136.349 42.4034 136.378 42.3559C136.385 42.3718 136.392 42.3899 136.4 42.4102C136.474 42.6048 136.549 42.9271 136.626 43.397Z" fill="white" stroke="white" stroke-width="0.3"/>
<path fill-rule="evenodd" clip-rule="evenodd" d="M134.343 50.5403C134.492 50.1644 134.614 49.6981 134.702 49.2659L134.214 49.1664C134.129 49.5835 134.014 50.0189 133.88 50.3576C133.813 50.5276 133.745 50.6638 133.68 50.7592C133.647 50.8066 133.619 50.8387 133.596 50.859C133.587 50.8672 133.58 50.8726 133.575 50.876C133.569 50.8714 133.56 50.8636 133.548 50.8509C133.491 50.791 133.413 50.6637 133.324 50.4269C133.149 49.9587 132.967 49.1533 132.793 47.8772L132.297 47.925C132.334 48.572 132.346 49.2829 132.31 49.8897C132.292 50.1932 132.262 50.4658 132.219 50.6889C132.175 50.9183 132.121 51.0709 132.068 51.1528C132.056 51.1714 132.047 51.1826 132.04 51.189C132.002 51.1723 131.908 51.1056 131.762 50.8981C131.454 50.4609 131.037 49.5806 130.49 48.0615L130.022 48.2302C130.569 49.7511 131.005 50.6879 131.354 51.1848C131.523 51.4241 131.706 51.6122 131.913 51.6715C132.029 51.7047 132.149 51.6959 132.257 51.641C132.359 51.5894 132.433 51.5067 132.487 51.4228C132.593 51.2585 132.661 51.0291 132.708 50.7833C132.734 50.6496 132.755 50.5036 132.772 50.3489C132.8 50.4403 132.829 50.5243 132.858 50.6012C132.954 50.8595 133.061 51.061 133.186 51.1933C133.32 51.3344 133.501 51.4192 133.704 51.3598C133.876 51.3097 134.002 51.171 134.091 51.0404C134.186 50.9019 134.27 50.7276 134.343 50.5403ZM133.586 50.8822C133.586 50.882 133.584 50.8811 133.582 50.8806C133.584 50.8822 133.586 50.8825 133.586 50.8822Z" fill="white" stroke="white" stroke-width="0.3"/>
</svg>
