<svg width="279" height="161" viewBox="0 0 279 161" fill="none" xmlns="http://www.w3.org/2000/svg">
<path d="M273.009 36.1004C298.009 51.8617 282.408 68.6402 291.952 80.7075C312.052 106.123 308.881 135.563 282.775 149.113C257.593 162.188 221.008 165.718 180.08 149.291C140.79 133.523 127.925 107.633 129.069 87.2096C130.496 61.7259 148.746 43.0281 191.095 32.1561C228.965 22.4351 256.32 25.5803 273.009 36.1004Z" fill="#FFA574"/>
<path d="M266.524 131.215H266.55C266.55 131.211 266.55 131.204 266.55 131.2L266.524 131.215Z" fill="#FFA574"/>
<path d="M188.014 14.4478H217.921V76.1212H188.014V14.4478Z" fill="#F96155"/>
<path d="M217.919 14.4478V76.1212L218.857 77.2035L231.505 91.8508L231.774 92.16L232.049 92.4797L232.346 92.824V31.1506L217.919 14.4478Z" fill="#032349"/>
<path d="M192.023 48.4039C190.607 48.4039 189.459 47.2585 189.459 45.8455C189.459 44.4326 190.607 43.2871 192.023 43.2871C193.439 43.2871 194.587 44.4326 194.587 45.8455C194.587 47.2585 193.439 48.4039 192.023 48.4039Z" fill="#032349"/>
<path d="M211.939 59.3827C212.039 60.3207 212.169 61.269 212.34 62.2194C212.539 63.3512 212.793 64.4872 213.101 65.6272C213.239 66.1343 213.384 66.6353 213.543 67.1321C214.489 70.076 215.749 72.9086 217.301 75.5844C217.619 76.1349 217.946 76.6751 218.278 77.2049C223.1 84.8986 229.229 90.0999 231.47 91.8419L231.677 92.0026C232.069 92.3056 232.297 92.4726 232.33 92.4912C232.336 92.4809 232.34 92.4707 232.344 92.4604V52.1713C231.917 51.2746 231.421 50.4129 230.861 49.5924L229.208 55.4575L226.538 43.2799C223.799 39.8763 220.702 36.7757 217.301 34.0297C216.607 33.4751 216.202 33.1865 216.202 33.1865C216.202 33.1865 214.429 36.9531 213.103 42.6987L218.291 49.2006L212.136 48.0833C211.625 51.8291 211.559 55.6225 211.939 59.3827Z" fill="#22558E"/>
<path d="M195.224 66.7397L206.242 71.1968L197.879 72.1635C199.593 75.194 201.719 77.9751 204.197 80.4262C204.562 80.785 204.934 81.1292 205.312 81.457L213.108 78.2061L210.337 85.2276C220.734 91.7792 232.356 92.5049 232.356 92.5049C232.356 92.5049 230.963 75.6868 219.69 64.6616C217.963 62.9814 216.073 61.4745 214.046 60.1675V70.2691L207.356 56.6193C199.023 53.0508 191.538 52.583 191.538 52.583C191.538 52.583 192.067 59.1346 195.224 66.7397Z" fill="#FBC73B"/>
<path d="M117.632 84.9065L152.034 85.0981L131.786 130.372H169.431C169.431 130.372 169.39 122.253 159.282 123.206C159.282 123.206 183.782 87.1907 179.009 73.4896C174.33 60.0586 132.65 53.0142 116.675 60.1101C102.832 66.2576 91.83 105.079 91.83 105.079L67.419 94.5503L55.198 118.396L59.6504 130.374H67.2599C67.2826 127.238 65.7764 124.288 63.2227 122.462L67.545 119.163C67.545 119.163 93.2825 131.207 99.9684 130.326C114.917 128.358 140.088 57.729 140.088 57.729" fill="#032349"/>
<path d="M145.144 40.6599L129.049 50.6129C124.733 53.2929 119.167 50.1409 119.233 45.0757L119.459 28.208C119.506 24.6642 122.423 21.8316 125.975 21.879C126.83 21.8914 127.675 22.0729 128.461 22.4151L144.339 29.3296C149.078 31.3994 149.547 37.9366 145.144 40.6599Z" fill="#F96155"/>
<path fill-rule="evenodd" clip-rule="evenodd" d="M192.897 26.5742C193.077 26.6876 193.188 26.8268 193.253 26.9883C193.325 27.1665 193.349 27.3923 193.319 27.6731C193.259 28.2427 192.985 28.9593 192.591 29.7816C192.32 30.3465 192.004 30.9401 191.678 31.5518C191.531 31.8271 191.382 32.1061 191.234 32.3878C190.764 33.2867 190.311 34.2059 190.014 35.0718C189.885 35.4457 189.6 35.9268 189.161 36.4944C188.725 37.0578 188.151 37.6899 187.465 38.3648C186.093 39.7144 184.283 41.2219 182.257 42.6758C178.196 45.5897 173.312 48.2558 169.38 49.0252C167.43 49.4069 164.796 49.327 161.921 48.9809C159.052 48.6355 155.968 48.0284 153.129 47.3713C150.29 46.7143 147.699 46.0084 145.818 45.4667C144.878 45.1958 144.115 44.9661 143.588 44.8042C143.325 44.7232 143.12 44.6592 142.981 44.6155C142.927 44.5985 142.883 44.5845 142.849 44.5739L142.823 44.5656L142.783 44.5528L142.77 44.5486C142.77 44.5486 142.77 44.5486 142.675 44.8428C142.58 45.1371 142.58 45.1371 142.58 45.1371L142.594 45.1416L142.635 45.1547C142.671 45.1662 142.724 45.1832 142.794 45.2053C142.934 45.2494 143.141 45.3139 143.406 45.3953C143.936 45.5581 144.702 45.7889 145.646 46.0609C147.535 46.6047 150.136 47.3137 152.989 47.9738C155.84 48.6337 158.948 49.2459 161.847 49.5949C164.74 49.9431 167.451 50.0329 169.499 49.6321C173.563 48.8369 178.534 46.1089 182.619 43.1779C184.665 41.7092 186.501 40.1815 187.9 38.8053C188.6 38.1174 189.194 37.4641 189.651 36.8722C190.106 36.2845 190.439 35.7405 190.6 35.2723C190.881 34.4539 191.315 33.5699 191.784 32.6741C191.926 32.4026 192.072 32.1292 192.217 31.8567C192.547 31.2389 192.874 30.6256 193.15 30.0484C193.547 29.22 193.863 28.4213 193.936 27.7384C193.972 27.3929 193.949 27.0581 193.828 26.7573C193.704 26.4506 193.486 26.1999 193.171 26.0173L193.171 26.0171C193.028 25.9344 192.876 25.9429 192.76 25.9706C192.644 25.9987 192.528 26.0547 192.419 26.1198C192.2 26.2508 191.95 26.4555 191.689 26.6976C191.164 27.1848 190.544 27.8702 189.954 28.5606C189.364 29.2529 188.798 29.9582 188.38 30.4899C188.35 30.5274 188.321 30.5641 188.293 30.5999L188.446 27.3697L167.78 36.6054L149.903 32.9272L149.778 33.5329L167.851 37.2514L187.779 28.3453L187.58 32.5563L188.185 31.7542L187.937 31.5683C188.185 31.7542 188.185 31.7543 188.185 31.7542L188.197 31.7383C188.205 31.7277 188.217 31.7118 188.233 31.6911C188.264 31.6496 188.311 31.5887 188.37 31.5112C188.489 31.3564 188.66 31.1354 188.867 30.8716C189.282 30.3436 189.843 29.6453 190.426 28.9615C191.012 28.2758 191.613 27.6126 192.111 27.1506C192.362 26.918 192.575 26.7478 192.738 26.6502C192.813 26.6054 192.865 26.5834 192.897 26.5742Z" fill="#032349"/>
<path d="M188.185 31.7542L187.58 32.5563L187.779 28.3453L167.851 37.2514L149.778 33.5329L149.903 32.9272L167.78 36.6054L188.446 27.3697L188.293 30.5999C188.321 30.5641 188.35 30.5274 188.38 30.4899C188.798 29.9582 189.364 29.2529 189.954 28.5606C190.544 27.8702 191.164 27.1848 191.689 26.6976C191.95 26.4555 192.2 26.2508 192.419 26.1198C192.528 26.0547 192.644 25.9987 192.76 25.9706C192.876 25.9429 193.028 25.9344 193.171 26.0171L193.171 26.0173C193.486 26.1999 193.704 26.4506 193.828 26.7573C193.949 27.0581 193.972 27.3929 193.936 27.7384C193.863 28.4213 193.547 29.22 193.15 30.0484C192.874 30.6256 192.547 31.2389 192.217 31.8567C192.072 32.1292 191.926 32.4026 191.784 32.6741C191.315 33.5699 190.881 34.4539 190.6 35.2723C190.439 35.7405 190.106 36.2845 189.651 36.8722C189.194 37.4641 188.6 38.1174 187.9 38.8053C186.501 40.1815 184.665 41.7092 182.619 43.1779C178.534 46.1089 173.563 48.8369 169.499 49.6321C167.451 50.0329 164.74 49.9432 161.847 49.5949C158.948 49.2459 155.84 48.6337 152.989 47.9738C150.136 47.3137 147.535 46.6047 145.646 46.0609C144.702 45.7889 143.936 45.5581 143.406 45.3953C143.141 45.3139 142.934 45.2494 142.794 45.2053C142.724 45.1832 142.671 45.1662 142.635 45.1547L142.594 45.1416L142.58 45.1371C142.58 45.1371 142.58 45.1371 142.675 44.8428C142.77 44.5486 142.77 44.5486 142.77 44.5486L142.783 44.5528L142.823 44.5656L142.849 44.5739C142.883 44.5845 142.927 44.5985 142.981 44.6155C143.12 44.6592 143.325 44.7232 143.588 44.8042C144.115 44.9661 144.878 45.1958 145.818 45.4667C147.699 46.0084 150.29 46.7143 153.129 47.3713C155.968 48.0284 159.052 48.6355 161.921 48.9809C164.796 49.327 167.43 49.4069 169.38 49.0252C173.312 48.2558 178.196 45.5897 182.257 42.6758C184.283 41.2219 186.093 39.7144 187.465 38.3648C188.151 37.6899 188.725 37.0578 189.161 36.4944C189.6 35.9268 189.885 35.4457 190.014 35.0718C190.311 34.2059 190.764 33.2867 191.234 32.3878C191.382 32.1061 191.531 31.8271 191.678 31.5518C192.004 30.9401 192.32 30.3465 192.591 29.7816C192.985 28.9593 193.259 28.2427 193.319 27.6731C193.349 27.3923 193.325 27.1665 193.253 26.9883C193.188 26.8268 193.077 26.6876 192.897 26.5742C192.865 26.5834 192.813 26.6054 192.738 26.6502C192.575 26.7478 192.362 26.918 192.111 27.1506C191.613 27.6126 191.012 28.2758 190.426 28.9615C189.843 29.6453 189.282 30.3436 188.867 30.8716C188.66 31.1354 188.489 31.3564 188.37 31.5112C188.311 31.5887 188.264 31.6496 188.233 31.6911C188.217 31.7118 188.205 31.7277 188.197 31.7383L188.185 31.7542ZM188.185 31.7542L187.937 31.5683C188.185 31.7542 188.185 31.7543 188.185 31.7542ZM192.919 26.5694C192.919 26.5694 192.918 26.5694 192.918 26.5695" stroke="#032349" stroke-width="0.5" stroke-miterlimit="10"/>
<path d="M134.335 27.0101L140.271 14.7334C140.271 14.7334 136.473 10.1197 138.88 7.00676C141.287 3.89382 144.18 7.00676 144.18 7.00676C144.18 7.00676 147.977 2.95585 153.314 4.83186C158.651 6.70788 158.893 13.8759 156.723 17.8196C153.515 23.6456 149.285 25.1958 143.804 21.1819L140.122 28.8365" fill="#FCF8F1"/>
<path d="M141.86 5.67423C141.86 5.67423 142.674 -0.460881 150.605 0.0277069C158.537 0.516295 159.027 3.50758 162.258 2.83758C165.49 2.16757 165.868 11.7682 157.221 10.7931C148.574 9.81796 148.99 9.3665 148.99 9.3665C148.99 9.3665 147.936 13.1185 145.833 12.331C143.729 11.5435 143.99 7.45332 143.99 7.45332" fill="#032349"/>
<path fill-rule="evenodd" clip-rule="evenodd" d="M154.995 20.1446L154.632 16.1645L153.661 16.1386L154.023 20.1187L154.995 20.1446Z" fill="#032349"/>
<path d="M151.5 16C150.672 16 150 15.3283 150 14.4998C150 13.6714 150.672 13 151.5 13C152.328 13 153 13.6714 153 14.4998C153 15.3283 152.328 16 151.5 16Z" fill="#032349"/>
<path d="M155.5 16C154.672 16 154 15.3286 154 14.5002C154 13.6717 154.672 13 155.5 13C156.328 13 157 13.6717 157 14.5002C157 15.3286 156.328 16 155.5 16Z" fill="#032349"/>
<path fill-rule="evenodd" clip-rule="evenodd" d="M124.405 36.8906L114.693 50.857L116.126 60.5621L116.739 60.472L115.342 51.0087L124.915 37.2432L124.405 36.8906Z" fill="#032349" stroke="#032349" stroke-width="0.5" stroke-miterlimit="10"/>
<path fill-rule="evenodd" clip-rule="evenodd" d="M119.451 24.6339C119.451 24.6338 119.451 24.6338 119.236 24.4105C119.022 24.1873 119.022 24.1874 119.022 24.1875L119.011 24.1979L118.979 24.2284C118.951 24.2553 118.91 24.2952 118.856 24.3476C118.748 24.4524 118.59 24.607 118.389 24.807C117.985 25.207 117.407 25.7883 116.707 26.5148C115.307 27.9677 113.416 30.0023 111.458 32.329C109.501 34.6551 107.472 37.2772 105.797 39.9046C104.123 42.528 102.79 45.1761 102.24 47.552C101.334 51.4684 101.816 55.6627 102.754 59.7857C103.224 61.849 103.81 63.9018 104.398 65.8986C104.508 66.2724 104.618 66.6442 104.727 67.0137C105.203 68.6202 105.666 70.1834 106.058 71.6882C106.418 73.1267 106.853 74.5465 107.358 75.9412L107.941 75.7308C107.443 74.3553 107.014 72.9552 106.659 71.5369L106.659 71.5355L106.658 71.534C106.263 70.0179 105.796 68.4419 105.32 66.8343C105.211 66.4658 105.102 66.0957 104.992 65.7242C104.405 63.7291 103.824 61.692 103.359 59.6487C102.428 55.5584 101.969 51.4725 102.844 47.6911C103.37 45.4161 104.661 42.8374 106.32 40.2367C107.976 37.64 109.986 35.0407 111.933 32.7267C113.88 30.4134 115.76 28.3894 117.154 26.9436C117.85 26.2208 118.425 25.6428 118.826 25.2457C119.026 25.0472 119.182 24.8939 119.289 24.7904C119.342 24.7387 119.383 24.6994 119.41 24.6731L119.441 24.6435L119.451 24.6339Z" fill="#032349" stroke="#032349" stroke-width="0.5" stroke-miterlimit="10"/>
<path fill-rule="evenodd" clip-rule="evenodd" d="M124.994 95.6528L135.994 71.2588L135.327 71.0365L124.327 95.4305L124.994 95.6528Z" fill="white"/>
<path fill-rule="evenodd" clip-rule="evenodd" d="M232.073 92.0691L220.352 67.749L219.794 68.0171L231.515 92.3371L232.073 92.0691Z" fill="#032349" stroke="#032349" stroke-width="0.5" stroke-miterlimit="10"/>
<path d="M257.549 106.052C261.454 104.176 261.246 97.2288 259.031 96.0248C257.186 95.0209 256.977 99.7624 256.977 99.7624C256.977 99.7624 254.94 96.3629 253.258 97.1669C251.576 97.9709 252.975 101.68 252.975 101.68C252.975 101.68 249.142 98.88 248.777 100.942C248.337 103.415 253.636 107.924 257.549 106.052Z" fill="#22558E"/>
<path fill-rule="evenodd" clip-rule="evenodd" d="M269.551 130.238L257.83 105.918L257.271 106.186L268.992 130.506L269.551 130.238Z" fill="#032349" stroke="#032349" stroke-width="0.5" stroke-miterlimit="10"/>
<path d="M165.636 101.507C169.541 99.6332 169.33 92.6858 167.118 91.4819C165.27 90.4779 165.064 95.2194 165.064 95.2194C165.064 95.2194 163.027 91.8179 161.345 92.624C159.663 93.43 161.074 97.1366 161.074 97.1366C161.074 97.1366 157.229 94.3473 156.863 96.4088C156.421 98.8827 161.731 103.381 165.636 101.507Z" fill="#FBC73B"/>
<path fill-rule="evenodd" clip-rule="evenodd" d="M179.827 130.237L165.914 101.372L165.355 101.64L179.269 130.505L179.827 130.237Z" fill="#032349" stroke="#032349" stroke-width="0.5" stroke-miterlimit="10"/>
<path d="M17.5633 106.052C21.4703 104.176 21.2596 97.2288 19.0447 96.0248C17.1997 95.0209 16.991 99.7624 16.991 99.7624C16.991 99.7624 14.9538 96.3629 13.272 97.1669C11.5902 97.9709 12.9869 101.68 12.9869 101.68C12.9869 101.68 9.14807 98.8801 8.7803 100.946C8.35055 103.416 13.6584 107.924 17.5633 106.052Z" fill="#22558E"/>
<path fill-rule="evenodd" clip-rule="evenodd" d="M29.5615 130.238L17.8405 105.918L17.2819 106.186L29.0029 130.506L29.5615 130.238Z" fill="#032349" stroke="#032349" stroke-width="0.5" stroke-miterlimit="10"/>
<path d="M7.80479 120.514C11.7118 118.64 11.501 111.691 9.28617 110.487C7.44114 109.485 7.23248 114.224 7.23248 114.224C7.23248 114.224 5.1953 110.825 3.51348 111.629C1.83167 112.433 3.23043 116.142 3.23043 116.142C3.23043 116.142 -0.610483 113.342 -0.976184 115.408C-1.408 117.886 3.89985 122.382 7.80479 120.514Z" fill="#FBC73B"/>
<path fill-rule="evenodd" clip-rule="evenodd" d="M12.835 130.237L8.08499 120.381L7.52638 120.649L12.2764 130.505L12.835 130.237Z" fill="#032349" stroke="#032349" stroke-width="0.5" stroke-miterlimit="10"/>
<path d="M284.628 116.662C288.533 114.788 288.322 107.839 286.109 106.637C284.262 105.633 284.055 110.374 284.055 110.374C284.055 110.374 282.018 106.973 280.336 107.777C278.654 108.581 280.066 112.281 280.066 112.281C280.066 112.281 276.225 109.484 275.859 111.549C275.417 114.034 280.727 118.536 284.628 116.662Z" fill="#F96155"/>
<path d="M189.109 116.442C193.016 114.566 192.806 107.619 190.591 106.415C188.746 105.411 188.537 110.153 188.537 110.153C188.537 110.153 186.5 106.753 184.828 107.557C183.157 108.361 184.543 112.076 184.543 112.076C184.543 112.076 180.705 109.276 180.337 111.342C179.897 113.812 185.207 118.314 189.109 116.442Z" fill="#F96155"/>
<path fill-rule="evenodd" clip-rule="evenodd" d="M195.997 130.014L189.39 116.305L188.831 116.573L195.439 130.282L195.997 130.014Z" fill="#032349" stroke="#032349" stroke-width="0.5" stroke-miterlimit="10"/>
<path d="M134.216 116.657C138.123 114.783 137.912 107.833 135.697 106.629C133.852 105.625 133.643 110.367 133.643 110.367C133.643 110.367 131.606 106.967 129.924 107.771C128.243 108.575 129.639 112.284 129.639 112.284C129.639 112.284 125.8 109.485 125.433 111.55C124.997 114.028 130.305 118.531 134.216 116.657Z" fill="#F96155"/>
<path fill-rule="evenodd" clip-rule="evenodd" d="M141.096 130.231L134.489 116.519L133.93 116.787L140.537 130.499L141.096 130.231Z" fill="#032349" stroke="#032349" stroke-width="0.5" stroke-miterlimit="10"/>
<path fill-rule="evenodd" clip-rule="evenodd" d="M232.442 72.5808L222.244 51.4209L221.685 51.6889L231.884 72.8488L232.442 72.5808Z" fill="#032349" stroke="#032349" stroke-width="0.5" stroke-miterlimit="10"/>
<path d="M221.559 75.1221C222.208 75.1283 222.85 74.986 223.437 74.7098C225.485 73.7264 226.27 71.2567 226.319 69.2714C226.367 67.3728 225.786 65.711 224.904 65.2327C224.803 65.1709 224.687 65.136 224.567 65.1318C223.809 65.1318 223.375 67.2264 223.309 68.7128L223.264 69.7436L222.733 68.8612C222.305 68.1458 220.947 66.2905 219.84 66.2905C219.697 66.2884 219.555 66.3212 219.427 66.3831C218.264 66.9397 218.941 69.5517 219.299 70.5062L219.66 71.4711L218.834 70.8629C218.286 70.465 216.66 69.4198 215.72 69.4198C215.429 69.3786 215.16 69.5806 215.119 69.8692C215.117 69.8857 215.115 69.9042 215.115 69.9227C215.001 70.5701 215.361 71.4484 216.102 72.3308C217.251 73.7285 219.394 75.1221 221.559 75.1221Z" fill="white"/>
<path d="M222.646 56.6833C223.204 56.6875 223.757 56.5659 224.261 56.3268C226.028 55.4795 226.704 53.3457 226.741 51.6305C226.782 49.9936 226.284 48.5629 225.53 48.1527C225.447 48.1032 225.352 48.0744 225.255 48.0703C224.635 48.0703 224.255 49.905 224.202 51.1481L224.156 52.1789L223.627 51.2945C223.257 50.676 222.088 49.0783 221.133 49.0783C221.018 49.0783 220.902 49.1031 220.799 49.1546C219.819 49.6247 220.421 51.9254 220.708 52.6943L221.069 53.6613L220.243 53.0428C219.77 52.6985 218.363 51.8059 217.557 51.8059C217.326 51.7708 217.109 51.9295 217.073 52.1604C217.071 52.179 217.069 52.1996 217.069 52.2182C216.972 52.7707 217.276 53.5211 217.921 54.2797C218.927 55.4754 220.786 56.6833 222.646 56.6833Z" fill="white"/>
<path fill-rule="evenodd" clip-rule="evenodd" d="M168.974 107.55L165.912 101.368L165.357 101.642L168.419 107.824L168.974 107.55Z" fill="white" stroke="white" stroke-width="0.5" stroke-linejoin="bevel"/>
<path fill-rule="evenodd" clip-rule="evenodd" d="M140.887 129.795L136.418 120.524L135.86 120.792L140.329 130.063L140.887 129.795Z" fill="white" stroke="white" stroke-width="0.5" stroke-linejoin="bevel"/>
<path fill-rule="evenodd" clip-rule="evenodd" d="M117.403 65.3017L116.631 60L115.964 60.0935L116.765 65.5906L116.831 65.6646C118.781 67.8357 121.154 70.741 122.014 72.462C122.232 72.8979 122.326 73.2079 122.326 73.3918C122.326 73.4332 122.321 73.4599 122.316 73.4756C122.314 73.4832 122.312 73.4879 122.311 73.4904C122.309 73.4929 122.308 73.4939 122.308 73.494C122.308 73.4942 122.308 73.4946 122.307 73.4954C122.305 73.4963 122.303 73.4982 122.297 73.5007C122.286 73.5059 122.262 73.5137 122.221 73.5178C122.032 73.5365 121.663 73.4642 121.041 73.1965C120.435 72.9356 119.635 72.5108 118.609 71.8867L117.914 71.4645L118.104 72.2442C118.524 73.9752 118.937 75.883 119.211 77.517C119.348 78.3342 119.449 79.0785 119.499 79.6956C119.55 80.3222 119.544 80.7865 119.486 81.0609C119.476 81.1052 119.466 81.1389 119.458 81.1642C119.406 81.1284 119.332 81.0647 119.235 80.9568C119.094 80.8014 118.924 80.5774 118.724 80.2724C117.919 79.0471 116.697 76.6433 114.923 72.5882L114.292 72.8187C114.918 74.7528 115.572 76.9059 116.074 78.784C116.58 80.6769 116.919 82.25 116.935 83.0474C116.937 83.1157 116.935 83.1737 116.933 83.2223C116.926 83.2158 116.919 83.209 116.912 83.2019C116.785 83.0745 116.622 82.874 116.419 82.5839C115.604 81.4201 114.267 78.9912 112.223 74.7802L111.589 74.989C111.934 76.6373 112.255 78.4112 112.434 79.8622C112.524 80.5886 112.577 81.2263 112.581 81.7237C112.583 81.9726 112.573 82.1791 112.551 82.3403C112.538 82.428 112.524 82.494 112.51 82.5421C112.494 82.5285 112.476 82.5119 112.455 82.4915C112.235 82.2734 111.916 81.807 111.483 80.9979C110.625 79.3948 109.381 76.5663 107.63 72.0501L107 72.2852C108.752 76.8047 110.008 79.6648 110.887 81.3054C111.322 82.1181 111.68 82.6624 111.976 82.9564C112.118 83.0968 112.296 83.2324 112.505 83.2566C112.621 83.27 112.738 83.2476 112.841 83.1868C112.938 83.129 113.006 83.0477 113.054 82.9693C113.144 82.8188 113.191 82.6248 113.218 82.4288C113.246 82.2253 113.257 81.9848 113.255 81.7185C113.251 81.1854 113.194 80.5198 113.103 79.7827C113.01 79.0243 112.878 78.182 112.725 77.3174C114.164 80.183 115.179 81.9806 115.863 82.9583C116.076 83.2622 116.264 83.4978 116.43 83.6642C116.513 83.7475 116.597 83.8198 116.681 83.8753C116.763 83.9292 116.864 83.9797 116.979 83.9952C117.106 84.0123 117.238 83.9843 117.348 83.9001C117.448 83.8238 117.503 83.7219 117.536 83.6358C117.599 83.4683 117.613 83.2539 117.609 83.034C117.59 82.1445 117.227 80.4942 116.726 78.6164C116.619 78.2181 116.506 77.8078 116.388 77.39C117.114 78.8726 117.696 79.9289 118.158 80.6307C118.368 80.9512 118.559 81.2058 118.731 81.396C118.898 81.58 119.071 81.7304 119.251 81.8065C119.346 81.8464 119.457 81.8716 119.576 81.8578C119.699 81.8435 119.804 81.7904 119.886 81.7152C120.037 81.5786 120.106 81.3765 120.145 81.1969C120.225 80.8225 120.222 80.2762 120.17 79.6433C120.119 79.0008 120.014 78.2367 119.876 77.4097C119.639 75.9947 119.299 74.3826 118.942 72.857C119.667 73.2767 120.273 73.5878 120.771 73.802C121.402 74.0737 121.912 74.2129 122.289 74.1756C122.489 74.1557 122.683 74.0822 122.822 73.9223C122.957 73.7658 123 73.5723 123 73.3918C123 73.0455 122.843 72.6183 122.619 72.1708C121.723 70.3791 119.335 67.458 117.403 65.3017Z" fill="white"/>
<path d="M116.9 83.4153C116.9 83.4153 116.9 83.4149 116.901 83.4139M116.631 60L117.403 65.3017C119.335 67.458 121.723 70.3791 122.619 72.1708C122.843 72.6183 123 73.0455 123 73.3918C123 73.5723 122.957 73.7658 122.822 73.9223C122.683 74.0822 122.489 74.1557 122.289 74.1756C121.912 74.2129 121.402 74.0737 120.771 73.802C120.273 73.5878 119.667 73.2767 118.942 72.857C119.299 74.3826 119.639 75.9947 119.876 77.4097C120.014 78.2367 120.119 79.0008 120.17 79.6433C120.222 80.2762 120.225 80.8225 120.145 81.1969C120.106 81.3765 120.037 81.5786 119.886 81.7152C119.804 81.7904 119.699 81.8435 119.576 81.8578C119.457 81.8716 119.346 81.8464 119.251 81.8065C119.071 81.7304 118.898 81.58 118.731 81.396C118.559 81.2058 118.368 80.9512 118.158 80.6307C117.696 79.9289 117.114 78.8726 116.388 77.39C116.506 77.8078 116.619 78.2181 116.726 78.6164C117.227 80.4942 117.59 82.1445 117.609 83.034C117.613 83.2539 117.599 83.4683 117.536 83.6358C117.503 83.7219 117.448 83.8238 117.348 83.9001C117.238 83.9843 117.106 84.0123 116.979 83.9952C116.864 83.9797 116.763 83.9292 116.681 83.8753C116.597 83.8198 116.513 83.7475 116.43 83.6642C116.264 83.4978 116.076 83.2622 115.863 82.9583C115.179 81.9806 114.164 80.183 112.725 77.3174C112.878 78.182 113.01 79.0243 113.103 79.7827C113.194 80.5198 113.251 81.1854 113.255 81.7185C113.257 81.9848 113.246 82.2253 113.218 82.4288C113.191 82.6248 113.144 82.8188 113.054 82.9693C113.006 83.0477 112.938 83.129 112.841 83.1868C112.738 83.2476 112.621 83.27 112.505 83.2566C112.296 83.2324 112.118 83.0968 111.976 82.9564C111.68 82.6624 111.322 82.1181 110.887 81.3054C110.008 79.6648 108.752 76.8047 107 72.2852L107.63 72.0501C109.381 76.5663 110.625 79.3948 111.483 80.9979C111.916 81.807 112.235 82.2734 112.455 82.4915C112.476 82.5119 112.494 82.5285 112.51 82.5421C112.524 82.494 112.538 82.428 112.551 82.3403C112.573 82.1791 112.583 81.9726 112.581 81.7237C112.577 81.2263 112.524 80.5886 112.434 79.8622C112.255 78.4112 111.934 76.6373 111.589 74.989L112.223 74.7802C114.267 78.9912 115.604 81.4201 116.419 82.5839C116.622 82.874 116.785 83.0745 116.912 83.2019C116.919 83.209 116.926 83.2158 116.933 83.2223C116.935 83.1737 116.937 83.1157 116.935 83.0474C116.919 82.25 116.58 80.6769 116.074 78.784C115.572 76.9059 114.918 74.7528 114.292 72.8187L114.923 72.5882C116.697 76.6433 117.919 79.0471 118.724 80.2724C118.924 80.5774 119.094 80.8014 119.235 80.9568C119.332 81.0647 119.406 81.1284 119.458 81.1642C119.466 81.1389 119.476 81.1052 119.486 81.0609C119.544 80.7865 119.55 80.3222 119.499 79.6956C119.449 79.0785 119.348 78.3342 119.211 77.517C118.937 75.883 118.524 73.9752 118.104 72.2442L117.914 71.4645L118.609 71.8867C119.635 72.5108 120.435 72.9356 121.041 73.1965C121.663 73.4642 122.032 73.5365 122.221 73.5178C122.262 73.5137 122.286 73.5059 122.297 73.5007C122.303 73.4982 122.305 73.4963 122.307 73.4954C122.308 73.4946 122.308 73.4942 122.308 73.494C122.308 73.4939 122.309 73.4929 122.311 73.4904C122.312 73.4879 122.314 73.4832 122.316 73.4756C122.321 73.4599 122.326 73.4332 122.326 73.3918C122.326 73.2079 122.232 72.8979 122.014 72.462C121.154 70.741 118.781 67.8357 116.831 65.6646L116.765 65.5906L115.964 60.0935L116.631 60Z" stroke="white" stroke-width="0.5"/>
</svg>
