<svg width="32" height="32" viewBox="0 0 32 32" fill="none" xmlns="http://www.w3.org/2000/svg">
<path d="M28.8803 23.815C28.4537 24.0381 28.0138 24.2347 27.563 24.4037C26.128 24.9406 24.608 25.2141 23.076 25.2111C17.1616 25.2111 12.0097 21.1428 12.0097 15.9222C12.0173 15.2219 12.2116 14.5364 12.5726 13.9364C12.9336 13.3364 13.4482 12.8435 14.0632 12.5088C8.71383 12.7338 7.33899 18.3081 7.33899 21.574C7.33899 30.808 15.8493 31.7441 17.6828 31.7441C18.6715 31.7441 20.1625 31.4566 21.0574 31.1742L21.2212 31.1192C24.6648 29.9287 27.6006 27.6012 29.5452 24.5199C29.6048 24.4261 29.6314 24.3151 29.6208 24.2044C29.6102 24.0938 29.5631 23.9898 29.4868 23.909C29.4105 23.8281 29.3095 23.775 29.1997 23.758C29.0898 23.741 28.9775 23.761 28.8803 23.815Z" fill="url(#paint0_linear)"/>
<path opacity="0.35" d="M28.8803 23.815C28.4537 24.0381 28.0138 24.2347 27.563 24.4037C26.128 24.9406 24.608 25.2141 23.076 25.2111C17.1616 25.2111 12.0097 21.1428 12.0097 15.9222C12.0173 15.2219 12.2116 14.5364 12.5726 13.9364C12.9336 13.3364 13.4482 12.8435 14.0632 12.5088C8.71383 12.7338 7.33899 18.3081 7.33899 21.574C7.33899 30.808 15.8493 31.7441 17.6828 31.7441C18.6715 31.7441 20.1625 31.4566 21.0574 31.1742L21.2212 31.1192C24.6648 29.9287 27.6006 27.6012 29.5452 24.5199C29.6048 24.4261 29.6314 24.3151 29.6208 24.2044C29.6102 24.0938 29.5631 23.9898 29.4868 23.909C29.4105 23.8281 29.3095 23.775 29.1997 23.758C29.0898 23.741 28.9775 23.761 28.8803 23.815Z" fill="url(#paint1_radial)"/>
<path d="M13.2146 30.1739C12.0998 29.482 11.1337 28.5754 10.3725 27.5067C9.50478 26.318 8.90771 24.9538 8.6231 23.5098C8.33849 22.0659 8.37324 20.5771 8.72492 19.148C9.0766 17.7189 9.73668 16.3841 10.6589 15.2371C11.5811 14.0901 12.743 13.1588 14.0633 12.5084C14.4532 12.3247 15.1194 11.9922 16.0056 12.0085C16.6299 12.013 17.2447 12.1621 17.8017 12.444C18.3588 12.7259 18.843 13.133 19.2165 13.6333C19.7212 14.3072 19.9995 15.1237 20.0114 15.9655C20.0114 15.9393 23.0685 6.01666 10.0125 6.01666C4.52561 6.01666 0.0136224 11.2236 0.0136224 15.7918C-0.00802023 18.2083 0.509033 20.5993 1.5272 22.791C3.19117 26.3413 6.101 29.157 9.70414 30.7032C13.3073 32.2495 17.3528 32.4188 21.0725 31.1788C19.7701 31.5895 18.3941 31.7127 17.0394 31.5401C15.6848 31.3675 14.3837 30.9031 13.2259 30.1789L13.2146 30.1739Z" fill="url(#paint2_linear)"/>
<path opacity="0.41" d="M13.2146 30.1739C12.0998 29.482 11.1337 28.5754 10.3725 27.5067C9.50478 26.318 8.90771 24.9538 8.6231 23.5098C8.33849 22.0659 8.37324 20.5771 8.72492 19.148C9.0766 17.7189 9.73668 16.3841 10.6589 15.2371C11.5811 14.0901 12.743 13.1588 14.0633 12.5084C14.4532 12.3247 15.1194 11.9922 16.0056 12.0085C16.6299 12.013 17.2447 12.1621 17.8017 12.444C18.3588 12.7259 18.843 13.133 19.2165 13.6333C19.7212 14.3072 19.9995 15.1237 20.0114 15.9655C20.0114 15.9393 23.0685 6.01666 10.0125 6.01666C4.52561 6.01666 0.0136224 11.2236 0.0136224 15.7918C-0.00802023 18.2083 0.509033 20.5993 1.5272 22.791C3.19117 26.3413 6.101 29.157 9.70414 30.7032C13.3073 32.2495 17.3528 32.4188 21.0725 31.1788C19.7701 31.5895 18.3941 31.7127 17.0394 31.5401C15.6848 31.3675 14.3837 30.9031 13.2259 30.1789L13.2146 30.1739Z" fill="url(#paint3_radial)"/>
<path d="M19.0391 18.6054C18.9379 18.7366 18.6266 18.9179 18.6266 19.3128C18.6266 19.639 18.8391 19.9527 19.2166 20.2165C21.0139 21.4663 24.4022 21.3013 24.411 21.3013C25.7427 21.2981 27.0493 20.9377 28.1943 20.2577C29.3494 19.5832 30.3081 18.6185 30.9753 17.4591C31.6425 16.2997 31.9949 14.9861 31.9976 13.6485C32.0301 10.8475 30.9977 8.98524 30.5803 8.16033C27.9318 2.97966 22.215 7.83214e-08 15.9982 7.83214e-08C11.7939 -0.000415649 7.75842 1.65419 4.76457 4.60594C1.77071 7.5577 0.0591228 11.5693 0 15.7732C0.0599932 11.2062 4.59948 7.5179 9.99887 7.5179C10.4363 7.5179 12.931 7.5604 15.2483 8.77651C17.2905 9.84889 18.3604 11.1437 19.1041 12.4273C19.8765 13.7609 20.014 15.4458 20.014 16.1169C20.014 16.7881 19.6715 17.783 19.0391 18.6054Z" fill="url(#paint4_radial)"/>
<path d="M19.0391 18.6054C18.9379 18.7366 18.6266 18.9179 18.6266 19.3128C18.6266 19.639 18.8391 19.9527 19.2166 20.2165C21.0139 21.4663 24.4022 21.3013 24.411 21.3013C25.7427 21.2981 27.0493 20.9377 28.1943 20.2577C29.3494 19.5832 30.3081 18.6185 30.9753 17.4591C31.6425 16.2997 31.9949 14.9861 31.9976 13.6485C32.0301 10.8475 30.9977 8.98524 30.5803 8.16033C27.9318 2.97966 22.215 7.83214e-08 15.9982 7.83214e-08C11.7939 -0.000415649 7.75842 1.65419 4.76457 4.60594C1.77071 7.5577 0.0591228 11.5693 0 15.7732C0.0599932 11.2062 4.59948 7.5179 9.99887 7.5179C10.4363 7.5179 12.931 7.5604 15.2483 8.77651C17.2905 9.84889 18.3604 11.1437 19.1041 12.4273C19.8765 13.7609 20.014 15.4458 20.014 16.1169C20.014 16.7881 19.6715 17.783 19.0391 18.6054Z" fill="url(#paint5_radial)"/>
<defs>
<linearGradient id="paint0_linear" x1="7.33899" y1="22.129" x2="29.629" y2="22.129" gradientUnits="userSpaceOnUse">
<stop stop-color="#0C59A4"/>
<stop offset="1" stop-color="#114A8B"/>
</linearGradient>
<radialGradient id="paint1_radial" cx="0" cy="0" r="1" gradientUnits="userSpaceOnUse" gradientTransform="translate(19.6501 22.3046) scale(11.9212 11.3251)">
<stop offset="0.72" stop-opacity="0"/>
<stop offset="0.95" stop-opacity="0.53"/>
<stop offset="1"/>
</radialGradient>
<linearGradient id="paint2_linear" x1="19.0902" y1="12.4597" x2="5.16804" y2="27.6242" gradientUnits="userSpaceOnUse">
<stop stop-color="#1B9DE2"/>
<stop offset="0.16" stop-color="#1595DF"/>
<stop offset="0.67" stop-color="#0680D7"/>
<stop offset="1" stop-color="#0078D4"/>
</linearGradient>
<radialGradient id="paint3_radial" cx="0" cy="0" r="1" gradientUnits="userSpaceOnUse" gradientTransform="translate(8.82319 24.8731) rotate(-81.3844) scale(17.9262 14.4826)">
<stop offset="0.76" stop-opacity="0"/>
<stop offset="0.95" stop-opacity="0.5"/>
<stop offset="1"/>
</radialGradient>
<radialGradient id="paint4_radial" cx="0" cy="0" r="1" gradientUnits="userSpaceOnUse" gradientTransform="translate(3.23245 5.92143) rotate(92.2906) scale(25.3211 53.9287)">
<stop stop-color="#35C1F1"/>
<stop offset="0.11" stop-color="#34C1ED"/>
<stop offset="0.23" stop-color="#2FC2DF"/>
<stop offset="0.31" stop-color="#2BC3D2"/>
<stop offset="0.67" stop-color="#36C752"/>
</radialGradient>
<radialGradient id="paint5_radial" cx="0" cy="0" r="1" gradientUnits="userSpaceOnUse" gradientTransform="translate(30.0056 9.67467) rotate(73.7398) scale(12.1661 9.89349)">
<stop stop-color="#66EB6E"/>
<stop offset="1" stop-color="#66EB6E" stop-opacity="0"/>
</radialGradient>
</defs>
</svg>
