<svg width="31" height="32" viewBox="0 0 31 32" fill="none" xmlns="http://www.w3.org/2000/svg">
<path d="M29.8778 10.7349C29.2035 9.11352 27.8356 7.36283 26.7645 6.80942C27.5285 8.28804 28.0587 9.87602 28.3362 11.5169L28.339 11.5429C26.5843 7.17116 23.6088 5.40847 21.1787 1.57018C21.0557 1.3761 20.9328 1.18163 20.8131 0.976346C20.7446 0.8591 20.6897 0.753459 20.6421 0.656221C20.5413 0.461167 20.4636 0.255027 20.4106 0.0419822C20.4107 0.0321512 20.4072 0.0226381 20.4007 0.0152577C20.3942 0.00787729 20.3852 0.00314606 20.3754 0.00196657C20.3658 -0.000655522 20.3557 -0.000655522 20.3462 0.00196657C20.3442 0.00196657 20.341 0.00556797 20.3386 0.00636828C20.3362 0.00716859 20.331 0.01077 20.3274 0.0123706L20.3334 0.00196657C16.4353 2.28285 15.1127 6.5053 14.991 8.61732C13.4342 8.72426 11.9459 9.29753 10.7201 10.2624C10.5922 10.1541 10.4585 10.0528 10.3196 9.95904C9.96603 8.72214 9.95096 7.41308 10.276 6.16837C8.84447 6.86141 7.57246 7.84384 6.54047 9.05349H6.53326C5.91822 8.27439 5.96146 5.70539 5.9967 5.16878C5.81475 5.24186 5.64106 5.33401 5.47856 5.44369C4.9356 5.83094 4.42802 6.26547 3.96176 6.74219C3.43045 7.28053 2.94517 7.86239 2.51104 8.48167V8.48407V8.48127C1.51329 9.89484 0.805606 11.4919 0.428851 13.1803L0.408029 13.2827C0.378798 13.4192 0.273487 14.1027 0.255468 14.2511C0.255468 14.2627 0.253066 14.2735 0.251865 14.2851C0.116017 14.9907 0.0318389 15.7053 0 16.4232V16.5032C0.00340242 20.3864 1.46435 24.1271 4.09411 26.9859C6.72387 29.8448 10.3311 31.6138 14.2029 31.9433C18.0747 32.2728 21.9293 31.1389 25.0049 28.7657C28.0806 26.3924 30.1535 22.9525 30.814 19.1258C30.84 18.9257 30.8612 18.7277 30.8844 18.5256C31.2041 15.8854 30.858 13.2073 29.8778 10.7349ZM11.991 22.8749C12.0635 22.9097 12.1315 22.9473 12.206 22.9805L12.2168 22.9873C12.1416 22.9513 12.0663 22.9138 11.991 22.8749ZM28.3402 11.5465V11.5317L28.343 11.5481L28.3402 11.5465Z" fill="url(#paint0_linear)"/>
<path d="M29.8778 10.7356C29.2035 9.11422 27.8356 7.36354 26.7645 6.81012C27.5285 8.28874 28.0587 9.87672 28.3362 11.5176V11.5324L28.339 11.5488C29.5351 14.9695 29.3621 18.7198 27.8561 22.016C26.0774 25.8299 21.7721 29.7391 15.033 29.549C7.75134 29.3429 1.33861 23.9432 0.139747 16.8708C-0.0784825 15.7556 0.139747 15.1902 0.249462 14.2838C0.0997959 14.9879 0.0162789 15.7043 0 16.4239V16.5039C0.00340242 20.3871 1.46435 24.1278 4.09411 26.9866C6.72387 29.8455 10.3311 31.6145 14.2029 31.944C18.0747 32.2735 21.9293 31.1396 25.0049 28.7664C28.0806 26.3931 30.1535 22.9532 30.814 19.1265C30.84 18.9264 30.8612 18.7284 30.8844 18.5263C31.2041 15.8861 30.858 13.208 29.8778 10.7356Z" fill="url(#paint1_radial)"/>
<path d="M29.8778 10.7356C29.2035 9.11422 27.8356 7.36354 26.7645 6.81012C27.5285 8.28874 28.0587 9.87672 28.3362 11.5176V11.5324L28.339 11.5488C29.5351 14.9695 29.3621 18.7198 27.8561 22.016C26.0774 25.8299 21.7721 29.7391 15.033 29.549C7.75134 29.3429 1.33861 23.9432 0.139747 16.8708C-0.0784825 15.7556 0.139747 15.1902 0.249462 14.2838C0.0997959 14.9879 0.0162789 15.7043 0 16.4239V16.5039C0.00340242 20.3871 1.46435 24.1278 4.09411 26.9866C6.72387 29.8455 10.3311 31.6145 14.2029 31.944C18.0747 32.2735 21.9293 31.1396 25.0049 28.7664C28.0806 26.3931 30.1535 22.9532 30.814 19.1265C30.84 18.9264 30.8612 18.7284 30.8844 18.5263C31.2041 15.8861 30.858 13.208 29.8778 10.7356Z" fill="url(#paint2_radial)"/>
<path d="M22.3367 12.558C22.3703 12.5817 22.4016 12.6053 22.4332 12.6289C22.0434 11.9381 21.5581 11.3056 20.9917 10.7501C16.1682 5.92906 19.7275 0.296868 20.3278 0.0107566L20.3338 0.00195312C16.4357 2.28284 15.1131 6.50529 14.9914 8.61731C15.1724 8.6049 15.3517 8.5897 15.5367 8.5897C16.9199 8.59223 18.2777 8.96075 19.472 9.65777C20.6664 10.3548 21.6548 11.3555 22.3367 12.558Z" fill="url(#paint3_radial)"/>
<path d="M15.5463 13.521C15.5207 13.9067 14.1569 15.2372 13.68 15.2372C9.26692 15.2372 8.55057 17.9051 8.55057 17.9051C8.74597 20.1515 10.3124 22.0019 12.206 22.9807C12.2925 23.0255 12.3802 23.0659 12.4679 23.1055C12.6198 23.1727 12.7717 23.2349 12.9236 23.292C13.5734 23.5218 14.2541 23.6531 14.9429 23.6813C22.6778 24.0439 24.1762 14.4377 18.5943 11.6502C19.9111 11.479 21.2446 11.8026 22.3363 12.5582C21.6544 11.3556 20.666 10.3549 19.4716 9.65792C18.2772 8.96089 16.9194 8.59238 15.5363 8.58984C15.3521 8.58984 15.1719 8.60505 14.9909 8.61745C13.4342 8.72439 11.9459 9.29766 10.72 10.2625C10.9567 10.4626 11.2238 10.7299 11.7864 11.2841C12.8395 12.3209 15.5403 13.3949 15.5463 13.521Z" fill="url(#paint4_radial)"/>
<path d="M15.5463 13.521C15.5207 13.9067 14.1569 15.2372 13.68 15.2372C9.26692 15.2372 8.55057 17.9051 8.55057 17.9051C8.74597 20.1515 10.3124 22.0019 12.206 22.9807C12.2925 23.0255 12.3802 23.0659 12.4679 23.1055C12.6198 23.1727 12.7717 23.2349 12.9236 23.292C13.5734 23.5218 14.2541 23.6531 14.9429 23.6813C22.6778 24.0439 24.1762 14.4377 18.5943 11.6502C19.9111 11.479 21.2446 11.8026 22.3363 12.5582C21.6544 11.3556 20.666 10.3549 19.4716 9.65792C18.2772 8.96089 16.9194 8.59238 15.5363 8.58984C15.3521 8.58984 15.1719 8.60505 14.9909 8.61745C13.4342 8.72439 11.9459 9.29766 10.72 10.2625C10.9567 10.4626 11.2238 10.7299 11.7864 11.2841C12.8395 12.3209 15.5403 13.3949 15.5463 13.521Z" fill="url(#paint5_radial)"/>
<path d="M9.99735 9.74616C10.1231 9.82619 10.2268 9.89582 10.3177 9.95865C9.96407 8.72174 9.949 7.41268 10.274 6.16797C8.84251 6.86101 7.57051 7.84344 6.53851 9.05309C6.61419 9.05109 8.86536 9.01068 9.99735 9.74616Z" fill="url(#paint6_radial)"/>
<path d="M0.141601 16.8698C1.33926 23.9421 7.7532 29.3418 15.0348 29.5479C21.7739 29.7384 26.0792 25.8289 27.8579 22.015C29.364 18.7188 29.537 14.9684 28.3408 11.5477V11.5329C28.3408 11.5213 28.3384 11.5145 28.3408 11.5181L28.3436 11.5441C28.8942 15.1363 27.0659 18.6165 24.2077 20.9698L24.1989 20.9898C18.6298 25.5224 13.3002 23.7245 12.2215 22.9906C12.1462 22.9546 12.0709 22.9171 11.9957 22.8781C8.74864 21.3271 7.40723 18.3708 7.69474 15.8354C6.92397 15.8467 6.16644 15.6345 5.51394 15.2243C4.86144 14.8142 4.34197 14.2237 4.01847 13.5245C4.87081 13.0027 5.84268 12.7076 6.84145 12.6676C7.84022 12.6275 8.83261 12.8437 9.72407 13.2956C11.5619 14.1294 13.6533 14.2115 15.551 13.5245C15.545 13.3984 12.8441 12.324 11.791 11.2876C11.2284 10.7334 10.9614 10.4665 10.7247 10.266C10.5968 10.1577 10.4632 10.0565 10.3243 9.96269C10.2322 9.89987 10.1285 9.83184 10.004 9.75021C8.87197 9.01472 6.62081 9.05514 6.54633 9.05714H6.53912C5.92408 8.27803 5.96732 5.70903 6.00256 5.17242C5.82061 5.2455 5.64692 5.33765 5.48441 5.44733C4.94146 5.83459 4.43388 6.26912 3.96762 6.74584C3.4344 7.28266 2.94712 7.86318 2.51089 8.48131V8.48371V8.48091C1.51314 9.89449 0.805457 11.4916 0.428702 13.1799C0.421094 13.2116 -0.130285 15.6205 0.141601 16.8698Z" fill="url(#paint7_radial)"/>
<path d="M20.9923 10.7502C21.5589 11.3062 22.0442 11.9394 22.4338 12.6309C22.5191 12.6953 22.5988 12.7593 22.6665 12.8214C26.185 16.0626 24.3414 20.6444 24.2041 20.9705C27.0623 18.6172 28.889 15.1371 28.3401 11.5449C26.5846 7.17116 23.6091 5.40847 21.1789 1.57018C21.056 1.3761 20.9331 1.18163 20.8133 0.976346C20.7449 0.8591 20.69 0.753459 20.6424 0.656221C20.5416 0.461167 20.4639 0.255027 20.4109 0.0419822C20.411 0.0321512 20.4074 0.0226381 20.4009 0.0152577C20.3944 0.00787729 20.3854 0.00314606 20.3757 0.00196657C20.3661 -0.000655522 20.356 -0.000655522 20.3465 0.00196657C20.3445 0.00196657 20.3412 0.00556797 20.3388 0.00636828C20.3364 0.00716859 20.3312 0.01077 20.3276 0.0123706C19.7274 0.296881 16.1681 5.92908 20.9923 10.7502Z" fill="url(#paint8_radial)"/>
<path d="M22.6637 12.8195C22.5961 12.7575 22.5164 12.6934 22.4311 12.629C22.3995 12.6054 22.3682 12.5818 22.3346 12.5582C21.243 11.8026 19.9095 11.479 18.5927 11.6502C24.1745 14.4393 22.6769 24.0439 14.9412 23.6813C14.2524 23.6531 13.5718 23.5218 12.9219 23.292C12.77 23.2352 12.6181 23.173 12.4662 23.1055C12.3785 23.0655 12.2908 23.0255 12.2043 22.9807L12.2152 22.9875C13.2939 23.7233 18.6219 25.5212 24.1925 20.9867L24.2013 20.9667C24.3403 20.6425 26.1838 16.0596 22.6637 12.8195Z" fill="url(#paint9_radial)"/>
<path d="M8.55114 17.9049C8.55114 17.9049 9.26749 15.2371 13.6805 15.2371C14.1574 15.2371 15.5225 13.9065 15.5469 13.5208C13.6492 14.2078 11.5578 14.1257 9.71997 13.2919C8.82851 12.84 7.83612 12.6238 6.83735 12.6639C5.83858 12.704 4.86671 12.999 4.01437 13.5208C4.33787 14.22 4.85734 14.8105 5.50984 15.2206C6.16234 15.6308 6.91987 15.8431 7.69064 15.8317C7.40313 18.3675 8.74454 21.3238 11.9916 22.8744C12.064 22.9092 12.1321 22.9469 12.2066 22.9801C10.3114 22.0017 8.74655 20.1514 8.55114 17.9049Z" fill="url(#paint10_radial)"/>
<path d="M29.8778 10.7349C29.2035 9.11352 27.8356 7.36283 26.7645 6.80942C27.5285 8.28804 28.0587 9.87602 28.3362 11.5169L28.339 11.5429C26.5843 7.17116 23.6088 5.40847 21.1787 1.57018C21.0557 1.3761 20.9328 1.18163 20.8131 0.976346C20.7446 0.8591 20.6897 0.753459 20.6421 0.656221C20.5413 0.461167 20.4636 0.255027 20.4106 0.0419822C20.4107 0.0321512 20.4072 0.0226381 20.4007 0.0152577C20.3942 0.00787729 20.3852 0.00314606 20.3754 0.00196657C20.3658 -0.000655522 20.3557 -0.000655522 20.3462 0.00196657C20.3442 0.00196657 20.341 0.00556797 20.3386 0.00636828C20.3362 0.00716859 20.331 0.01077 20.3274 0.0123706L20.3334 0.00196657C16.4353 2.28285 15.1127 6.5053 14.991 8.61732C15.1719 8.60492 15.3513 8.58971 15.5363 8.58971C16.9195 8.59224 18.2772 8.96076 19.4716 9.65779C20.666 10.3548 21.6544 11.3555 22.3363 12.5581C21.2447 11.8024 19.9111 11.4789 18.5943 11.6501C24.1762 14.4392 22.6786 24.0437 14.9429 23.6812C14.2541 23.6529 13.5735 23.5217 12.9236 23.2918C12.7717 23.235 12.6198 23.1729 12.4679 23.1054C12.3802 23.0653 12.2925 23.0253 12.206 22.9805L12.2168 22.9873C12.1416 22.9513 12.0663 22.9138 11.991 22.8749C12.0635 22.9097 12.1315 22.9473 12.206 22.9805C10.3108 22.0017 8.74599 20.1514 8.55058 17.9049C8.55058 17.9049 9.26694 15.2371 13.68 15.2371C14.1569 15.2371 15.5219 13.9066 15.5463 13.5208C15.5403 13.3948 12.8395 12.3204 11.7864 11.284C11.2238 10.7297 10.9567 10.4628 10.7201 10.2624C10.5922 10.1541 10.4585 10.0528 10.3196 9.95904C9.96603 8.72214 9.95096 7.41308 10.276 6.16837C8.84447 6.86141 7.57246 7.84384 6.54047 9.05349H6.53326C5.91822 8.27439 5.96146 5.70539 5.9967 5.16878C5.81475 5.24186 5.64106 5.33401 5.47856 5.44369C4.9356 5.83094 4.42802 6.26547 3.96176 6.74219C3.43045 7.28053 2.94517 7.86239 2.51104 8.48167V8.48407V8.48127C1.51329 9.89484 0.805606 11.4919 0.428851 13.1803L0.408029 13.2827C0.378798 13.4192 0.24786 14.1123 0.229041 14.2611C0.229041 14.2723 0.229041 14.2495 0.229041 14.2611C0.109279 14.9765 0.0327933 15.6985 0 16.4232V16.5032C0.00340242 20.3864 1.46435 24.1271 4.09411 26.9859C6.72387 29.8448 10.3311 31.6138 14.2029 31.9433C18.0747 32.2728 21.9293 31.1389 25.0049 28.7657C28.0806 26.3924 30.1535 22.9525 30.814 19.1258C30.84 18.9257 30.8612 18.7277 30.8844 18.5256C31.2041 15.8854 30.858 13.2073 29.8778 10.7349ZM28.3382 11.5317L28.341 11.5481L28.3382 11.5317Z" fill="url(#paint11_linear)"/>
<defs>
<linearGradient id="paint0_linear" x1="27.8236" y1="4.9575" x2="2.0774" y2="29.8142" gradientUnits="userSpaceOnUse">
<stop offset="0.048" stop-color="#FFF44F"/>
<stop offset="0.111" stop-color="#FFE847"/>
<stop offset="0.225" stop-color="#FFC830"/>
<stop offset="0.368" stop-color="#FF980E"/>
<stop offset="0.401" stop-color="#FF8B16"/>
<stop offset="0.462" stop-color="#FF672A"/>
<stop offset="0.534" stop-color="#FF3647"/>
<stop offset="0.705" stop-color="#E31587"/>
</linearGradient>
<radialGradient id="paint1_radial" cx="0" cy="0" r="1" gradientUnits="userSpaceOnUse" gradientTransform="translate(26.6332 3.552) scale(32.3528 32.3314)">
<stop offset="0.129" stop-color="#FFBD4F"/>
<stop offset="0.186" stop-color="#FFAC31"/>
<stop offset="0.247" stop-color="#FF9D17"/>
<stop offset="0.283" stop-color="#FF980E"/>
<stop offset="0.403" stop-color="#FF563B"/>
<stop offset="0.467" stop-color="#FF3750"/>
<stop offset="0.71" stop-color="#F5156C"/>
<stop offset="0.782" stop-color="#EB0878"/>
<stop offset="0.86" stop-color="#E50080"/>
</radialGradient>
<radialGradient id="paint2_radial" cx="0" cy="0" r="1" gradientUnits="userSpaceOnUse" gradientTransform="translate(14.8112 16.77) scale(32.3528 32.3314)">
<stop offset="0.3" stop-color="#960E18"/>
<stop offset="0.351" stop-color="#B11927" stop-opacity="0.74"/>
<stop offset="0.435" stop-color="#DB293D" stop-opacity="0.343"/>
<stop offset="0.497" stop-color="#F5334B" stop-opacity="0.094"/>
<stop offset="0.53" stop-color="#FF3750" stop-opacity="0"/>
</radialGradient>
<radialGradient id="paint3_radial" cx="0" cy="0" r="1" gradientUnits="userSpaceOnUse" gradientTransform="translate(18.712 -3.78593) scale(23.4382 23.4227)">
<stop offset="0.132" stop-color="#FFF44F"/>
<stop offset="0.252" stop-color="#FFDC3E"/>
<stop offset="0.506" stop-color="#FF9D12"/>
<stop offset="0.526" stop-color="#FF980E"/>
</radialGradient>
<radialGradient id="paint4_radial" cx="0" cy="0" r="1" gradientUnits="userSpaceOnUse" gradientTransform="translate(11.2326 25.2146) scale(15.4046 15.3944)">
<stop offset="0.353" stop-color="#3A8EE6"/>
<stop offset="0.472" stop-color="#5C79F0"/>
<stop offset="0.669" stop-color="#9059FF"/>
<stop offset="1" stop-color="#C139E6"/>
</radialGradient>
<radialGradient id="paint5_radial" cx="0" cy="0" r="1" gradientUnits="userSpaceOnUse" gradientTransform="translate(16.5791 14.1198) rotate(-13.5829) scale(8.16712 9.55603)">
<stop offset="0.206" stop-color="#9059FF" stop-opacity="0"/>
<stop offset="0.278" stop-color="#8C4FF3" stop-opacity="0.064"/>
<stop offset="0.747" stop-color="#7716A8" stop-opacity="0.45"/>
<stop offset="0.975" stop-color="#6E008B" stop-opacity="0.6"/>
</radialGradient>
<radialGradient id="paint6_radial" cx="0" cy="0" r="1" gradientUnits="userSpaceOnUse" gradientTransform="translate(14.4036 2.22811) scale(11.082 11.0747)">
<stop stop-color="#FFE226"/>
<stop offset="0.121" stop-color="#FFDB27"/>
<stop offset="0.295" stop-color="#FFC82A"/>
<stop offset="0.502" stop-color="#FFA930"/>
<stop offset="0.732" stop-color="#FF7E37"/>
<stop offset="0.792" stop-color="#FF7139"/>
</radialGradient>
<radialGradient id="paint7_radial" cx="0" cy="0" r="1" gradientUnits="userSpaceOnUse" gradientTransform="translate(23.1133 -4.79642) scale(47.2821 47.2508)">
<stop offset="0.113" stop-color="#FFF44F"/>
<stop offset="0.456" stop-color="#FF980E"/>
<stop offset="0.622" stop-color="#FF5634"/>
<stop offset="0.716" stop-color="#FF3647"/>
<stop offset="0.904" stop-color="#E31587"/>
</radialGradient>
<radialGradient id="paint8_radial" cx="0" cy="0" r="1" gradientUnits="userSpaceOnUse" gradientTransform="translate(19.1287 -2.16867) rotate(83.972) scale(34.6315 22.7431)">
<stop stop-color="#FFF44F"/>
<stop offset="0.06" stop-color="#FFE847"/>
<stop offset="0.168" stop-color="#FFC830"/>
<stop offset="0.304" stop-color="#FF980E"/>
<stop offset="0.356" stop-color="#FF8B16"/>
<stop offset="0.455" stop-color="#FF672A"/>
<stop offset="0.57" stop-color="#FF3647"/>
<stop offset="0.737" stop-color="#E31587"/>
</radialGradient>
<radialGradient id="paint9_radial" cx="0" cy="0" r="1" gradientUnits="userSpaceOnUse" gradientTransform="translate(14.1417 6.33064) scale(29.519 29.4995)">
<stop offset="0.137" stop-color="#FFF44F"/>
<stop offset="0.48" stop-color="#FF980E"/>
<stop offset="0.592" stop-color="#FF5634"/>
<stop offset="0.655" stop-color="#FF3647"/>
<stop offset="0.904" stop-color="#E31587"/>
</radialGradient>
<radialGradient id="paint10_radial" cx="0" cy="0" r="1" gradientUnits="userSpaceOnUse" gradientTransform="translate(21.9344 8.05693) scale(32.3083 32.287)">
<stop offset="0.094" stop-color="#FFF44F"/>
<stop offset="0.231" stop-color="#FFE141"/>
<stop offset="0.509" stop-color="#FFAF1E"/>
<stop offset="0.626" stop-color="#FF980E"/>
</radialGradient>
<linearGradient id="paint11_linear" x1="27.5141" y1="4.82465" x2="5.60718" y2="26.7457" gradientUnits="userSpaceOnUse">
<stop offset="0.167" stop-color="#FFF44F" stop-opacity="0.8"/>
<stop offset="0.266" stop-color="#FFF44F" stop-opacity="0.634"/>
<stop offset="0.489" stop-color="#FFF44F" stop-opacity="0.217"/>
<stop offset="0.6" stop-color="#FFF44F" stop-opacity="0"/>
</linearGradient>
</defs>
</svg>
