<svg width="32" height="32" viewBox="0 0 32 32" fill="none" xmlns="http://www.w3.org/2000/svg">
<g clip-path="url(#clip0)">
<path d="M15.9992 0.00228119C7.16314 0.00228119 0 7.16543 0 16.0015C0 24.5819 6.75506 31.5848 15.2373 31.9821C15.4904 31.9941 15.7439 32.0009 15.9995 32.0009C20.0957 32.0009 23.8315 30.4606 26.6621 27.9292C24.7866 29.173 22.594 29.8887 20.2507 29.8887C16.4406 29.8887 13.0283 27.9985 10.7334 25.0178C8.96423 22.9295 7.81839 19.8425 7.74032 16.3781V15.6247C7.81833 12.1604 8.96417 9.07282 10.7329 6.985C13.0282 4.00432 16.4404 2.11417 20.2503 2.11417C22.5941 2.11417 24.7871 2.8298 26.6627 4.07437C23.846 1.55459 20.1329 0.0174885 16.0594 0.0023632C16.0391 0.0023632 16.0192 0.00156975 15.9989 0.00156975L15.9992 0.00228119Z" fill="url(#paint0_linear)"/>
<path d="M10.7332 6.98595C12.2014 5.25265 14.0975 4.20745 16.1691 4.20745C20.827 4.20745 24.6023 9.48822 24.6023 16.0023C24.6023 22.5163 20.8267 27.7971 16.1691 27.7971C14.0975 27.7971 12.2014 26.7524 10.7335 25.019C13.0285 27.9997 16.4405 29.8898 20.2509 29.8898C22.5944 29.8898 24.787 29.1742 26.6622 27.9304C29.937 25.0007 31.9991 20.7424 31.9991 16.0024C31.9991 11.2629 29.9374 7.00486 26.6634 4.07548C24.7876 2.83092 22.5946 2.11528 20.251 2.11528C16.4409 2.11528 13.0286 4.00544 10.7336 6.98612" fill="url(#paint1_linear)"/>
</g>
<defs>
<linearGradient id="paint0_linear" x1="13.3318" y1="0.523815" x2="13.3318" y2="31.5357" gradientUnits="userSpaceOnUse">
<stop stop-color="#FF1B2D"/>
<stop offset="0.3" stop-color="#FF1B2D"/>
<stop offset="0.614" stop-color="#FF1B2D"/>
<stop offset="1" stop-color="#A70014"/>
</linearGradient>
<linearGradient id="paint1_linear" x1="21.3658" y1="2.352" x2="21.3658" y2="29.7803" gradientUnits="userSpaceOnUse">
<stop stop-color="#9C0000"/>
<stop offset="0.7" stop-color="#FF4B4B"/>
<stop offset="1" stop-color="#FF4B4B"/>
</linearGradient>
<clipPath id="clip0">
<rect width="32" height="32" fill="white"/>
</clipPath>
</defs>
</svg>
