<svg width="32" height="32" viewBox="0 0 32 32" fill="none" xmlns="http://www.w3.org/2000/svg">
<g clip-path="url(#clip0)">
<path d="M31.1499 15.2606C31.1499 17.2611 30.758 19.2419 29.9966 21.0901C29.2353 22.9383 28.1194 24.6176 26.7126 26.0321C25.3058 27.4467 23.6357 28.5688 21.7976 29.3343C19.9595 30.0998 17.9895 30.4939 16 30.4939C11.982 30.4939 8.12852 28.8889 5.28737 26.0321C2.44621 23.1754 0.850067 19.3007 0.850067 15.2606C0.850067 11.2205 2.44621 7.34585 5.28737 4.48906C8.12852 1.63227 11.982 0.0273448 16 0.0273438C17.9895 0.0273436 19.9595 0.421365 21.7976 1.18691C23.6357 1.95245 25.3058 3.07453 26.7126 4.48906C28.1194 5.9036 29.2353 7.5829 29.9966 9.43108C30.758 11.2793 31.1499 13.2601 31.1499 15.2606Z" fill="url(#paint0_linear)" stroke="#CDCDCD" stroke-width="0.0930123" stroke-linecap="round" stroke-linejoin="round"/>
<path d="M29.9627 15.2608C29.9627 18.9843 28.4917 22.5553 25.8731 25.1883C23.2546 27.8212 19.7031 29.3004 16 29.3004C12.2968 29.3004 8.74533 27.8212 6.1268 25.1883C3.50827 22.5553 2.0372 18.9843 2.0372 15.2608C2.0372 11.5373 3.50827 7.96623 6.1268 5.33329C8.74533 2.70036 12.2968 1.22119 16 1.22119C19.7031 1.22119 23.2546 2.70036 25.8731 5.33329C28.4917 7.96623 29.9627 11.5373 29.9627 15.2608Z" fill="url(#paint1_radial)"/>
<path d="M16 1.95331C15.8872 1.95331 15.7964 2.04459 15.7964 2.158V4.51904C15.7964 4.63244 15.8872 4.72373 16 4.72373C16.1128 4.72373 16.2036 4.63244 16.2036 4.51904V2.158C16.2036 2.04459 16.1128 1.95331 16 1.95331ZM14.6682 2.03794C14.6547 2.03648 14.6409 2.03649 14.6268 2.03811C14.5147 2.04988 14.4338 2.15015 14.4455 2.26294L14.5481 3.2507C14.5598 3.36349 14.6595 3.44482 14.7717 3.43304C14.8839 3.42127 14.9648 3.321 14.9531 3.20821L14.8505 2.22046C14.8403 2.12177 14.7626 2.04716 14.6682 2.03794H14.6682ZM17.3411 2.03892C17.2467 2.04806 17.169 2.12266 17.1587 2.22134L17.0554 3.20901C17.0436 3.32179 17.1244 3.42216 17.2366 3.43402C17.3488 3.44589 17.4485 3.36463 17.4603 3.25185L17.5636 2.2641C17.5754 2.15132 17.4945 2.05103 17.3824 2.03918C17.3683 2.03772 17.3546 2.03772 17.3411 2.03892V2.03892ZM13.3002 2.23741C13.2866 2.23752 13.2729 2.23888 13.2591 2.24179C13.1487 2.26528 13.0787 2.37353 13.1021 2.48447L13.5884 4.79427C13.6117 4.90522 13.7194 4.97563 13.8297 4.95215C13.94 4.92866 14.0101 4.8205 13.9867 4.70956L13.5004 2.39967C13.48 2.30259 13.395 2.23654 13.3002 2.23729L13.3002 2.23741ZM18.709 2.23937C18.6142 2.23839 18.5292 2.3045 18.5087 2.40156L18.0208 4.71109C17.9973 4.82202 18.0673 4.93029 18.1776 4.95386C18.2879 4.97745 18.3956 4.90708 18.419 4.79617L18.907 2.48662C18.9304 2.3757 18.8605 2.26742 18.7502 2.24386C18.7364 2.24095 18.7226 2.23949 18.7091 2.23949L18.709 2.23937ZM11.9946 2.60757C11.9682 2.60514 11.941 2.60806 11.9142 2.61701C11.8069 2.65207 11.7486 2.76702 11.7835 2.87487L12.0887 3.81944C12.1236 3.92729 12.238 3.98593 12.3452 3.95089C12.4525 3.91582 12.5107 3.80078 12.4759 3.69293L12.1707 2.74837C12.1445 2.66748 12.0736 2.61431 11.9946 2.60755V2.60757ZM20.0073 2.60806C19.9282 2.61482 19.8573 2.66799 19.8312 2.74887L19.5258 3.69334C19.4909 3.80119 19.5492 3.91625 19.6564 3.9513C19.7637 3.98636 19.8781 3.92777 19.913 3.81994L20.2184 2.87538C20.2532 2.76753 20.195 2.65248 20.0877 2.61742C20.0609 2.60867 20.0336 2.6058 20.0073 2.60803V2.60806ZM10.7035 3.08263C10.677 3.08312 10.6503 3.08896 10.6245 3.10048C10.5215 3.14653 10.4754 3.26701 10.5212 3.37063L11.4749 5.52813C11.5207 5.63175 11.6405 5.67808 11.7436 5.63202C11.8466 5.58597 11.8928 5.4655 11.847 5.36187L10.8932 3.20437C10.8588 3.12665 10.7828 3.08109 10.7035 3.08263ZM21.3129 3.08988C21.2336 3.08842 21.1575 3.13369 21.1231 3.21135L20.1664 5.36753C20.1205 5.47109 20.1664 5.59165 20.2694 5.63785C20.3724 5.68405 20.4923 5.63788 20.5383 5.53432L21.4949 3.37815C21.5408 3.27458 21.4949 3.15401 21.3919 3.10781C21.3662 3.09629 21.3394 3.09045 21.3129 3.08987V3.08988ZM9.5051 3.72021C9.46602 3.71729 9.42574 3.72603 9.38912 3.74733C9.29144 3.80404 9.25823 3.92874 9.31461 4.02694L9.80847 4.88705C9.86487 4.98526 9.98888 5.01866 10.0866 4.96196C10.1842 4.90525 10.2174 4.78057 10.1611 4.68235L9.6672 3.82226C9.63194 3.76087 9.57024 3.72479 9.5051 3.72021V3.72021ZM22.4949 3.72021C22.4298 3.72458 22.3681 3.76086 22.3329 3.82224L21.8389 4.68234C21.7825 4.78055 21.8159 4.90524 21.9135 4.96194C22.0112 5.01864 22.1352 4.98524 22.1916 4.88703L22.6855 4.02693C22.7419 3.92872 22.7086 3.80402 22.611 3.74732C22.5743 3.72607 22.534 3.71747 22.4949 3.72019V3.72021ZM8.3414 4.45C8.30222 4.45145 8.26301 4.4641 8.22877 4.48905C8.13748 4.55564 8.1173 4.68314 8.18355 4.77493L9.56232 6.68604C9.62854 6.77783 9.75542 6.79812 9.84671 6.73155C9.93801 6.66497 9.95819 6.53747 9.89194 6.44567L8.51308 4.53456C8.47168 4.47719 8.40665 4.44778 8.3414 4.45002V4.45ZM23.6732 4.46041C23.6079 4.45797 23.5429 4.4874 23.5014 4.54469L22.12 6.45394C22.0536 6.54564 22.0737 6.67319 22.1649 6.73991C22.2561 6.80662 22.3829 6.78654 22.4493 6.69488L23.8306 4.78562C23.897 4.69392 23.8769 4.56637 23.7857 4.49965C23.7515 4.47466 23.7123 4.46182 23.6732 4.46041ZM7.30123 5.32713C7.24927 5.32421 7.19625 5.34167 7.15434 5.37961C7.07051 5.45548 7.06378 5.58438 7.13925 5.66867L7.80013 6.40686C7.87558 6.49114 8.00377 6.49792 8.0876 6.42203C8.17142 6.34615 8.17817 6.21716 8.10269 6.13288L7.44191 5.39478C7.40418 5.35262 7.35321 5.32985 7.30123 5.32711V5.32713ZM24.7002 5.32859C24.6483 5.33151 24.5973 5.35412 24.5596 5.39626L23.8987 6.13428C23.8232 6.21855 23.8299 6.34754 23.9137 6.42342C23.9976 6.4993 24.1258 6.4925 24.2012 6.40825L24.8622 5.67023C24.9377 5.58596 24.9309 5.45697 24.8471 5.38109C24.8052 5.34316 24.7523 5.32588 24.7003 5.32861L24.7002 5.32859ZM6.3043 6.29002C6.25234 6.29294 6.20145 6.31555 6.16372 6.35769C6.08826 6.44198 6.09502 6.57088 6.17882 6.64675L7.92396 8.2264C8.00778 8.30227 8.13598 8.29549 8.21143 8.21123C8.28689 8.12695 8.28023 7.99804 8.19639 7.92216L6.45116 6.34252C6.40923 6.30459 6.35623 6.28729 6.30426 6.29004L6.3043 6.29002ZM25.702 6.29692C25.65 6.294 25.597 6.31142 25.555 6.34931L23.8088 7.92773C23.725 8.00354 23.7181 8.13245 23.7934 8.21679C23.8688 8.30112 23.9971 8.30797 24.081 8.23215L25.8273 6.65374C25.9112 6.57792 25.918 6.44902 25.8426 6.36468C25.8049 6.32252 25.754 6.2997 25.702 6.29692H25.702ZM5.47526 7.3619C5.40999 7.35947 5.34493 7.38904 5.3035 7.44636C5.23721 7.5381 5.25732 7.66557 5.34858 7.73223L6.14765 8.316C6.23889 8.38266 6.36566 8.36253 6.43196 8.27077C6.49825 8.17902 6.4782 8.05146 6.38698 7.98481L5.5879 7.40104C5.55371 7.37604 5.51443 7.3633 5.47527 7.36189L5.47526 7.3619ZM26.5303 7.36934C26.4911 7.3708 26.4519 7.38339 26.4176 7.40839L25.6182 7.99163C25.5269 8.05823 25.5067 8.1858 25.5729 8.2776C25.6392 8.36938 25.766 8.38959 25.8572 8.32301L26.6568 7.73977C26.7481 7.67318 26.7682 7.54569 26.7019 7.4539C26.6605 7.39653 26.5955 7.36711 26.5303 7.36936V7.36934ZM4.70052 8.50525C4.63538 8.50963 4.57376 8.5459 4.53851 8.60728C4.48212 8.70549 4.51535 8.83019 4.61302 8.88689L6.64651 10.0674C6.74418 10.1241 6.8682 10.0907 6.92459 9.99249C6.98098 9.89428 6.94776 9.76959 6.85009 9.71289L4.81658 8.53236C4.77997 8.51111 4.73961 8.5025 4.70052 8.50523V8.50525ZM27.2995 8.50525C27.2604 8.50233 27.22 8.51109 27.1834 8.53238L25.1499 9.7129C25.0522 9.76961 25.019 9.89431 25.0754 9.99251C25.1318 10.0907 25.2558 10.1241 25.3535 10.0674L27.3871 8.88691C27.4847 8.83021 27.518 8.70551 27.4616 8.6073C27.4263 8.54592 27.3646 8.50985 27.2995 8.50527V8.50525ZM4.11476 9.72393C4.03543 9.72198 3.95935 9.76765 3.92489 9.84531C3.87895 9.94888 3.92486 10.0694 4.02787 10.1156L4.93 10.5203C5.03301 10.5664 5.15292 10.5203 5.19886 10.4167C5.2448 10.3131 5.19879 10.1926 5.09579 10.1464L4.19375 9.74178C4.16802 9.7302 4.1412 9.72446 4.11476 9.72393ZM27.8892 9.73234C27.8627 9.73283 27.8359 9.73867 27.8101 9.75019L26.9078 10.1541C26.8048 10.2002 26.7587 10.3207 26.8046 10.4243C26.8504 10.5279 26.9704 10.5743 27.0734 10.5281L27.9757 10.1241C28.0787 10.078 28.1247 9.9575 28.0789 9.8539C28.0445 9.7762 27.9685 9.73076 27.8892 9.73234ZM3.5927 10.9977C3.51364 11.0043 3.44276 11.0574 3.41655 11.1383C3.38163 11.2461 3.43975 11.3612 3.54701 11.3964L5.77961 12.1278C5.88683 12.163 6.0013 12.1044 6.03624 11.9967C6.07116 11.8888 6.01303 11.7737 5.90577 11.7386L3.67319 11.0071C3.64639 10.9983 3.61906 10.9955 3.5927 10.9977V10.9977ZM28.4103 11.0064C28.3839 11.004 28.3567 11.0069 28.3299 11.0159L26.0968 11.7458C25.9895 11.7808 25.9313 11.8959 25.9661 12.0037C26.001 12.1116 26.1154 12.1701 26.2227 12.1351L28.4557 11.4052C28.563 11.3701 28.6213 11.2551 28.5864 11.1472C28.5603 11.0663 28.4893 11.0132 28.4103 11.0064V11.0064ZM3.26745 12.3347C3.17261 12.3338 3.08755 12.4 3.06704 12.497C3.04358 12.608 3.11357 12.7162 3.22387 12.7398L4.19006 12.9463C4.30038 12.9698 4.40804 12.8995 4.43149 12.7886C4.45495 12.6776 4.38498 12.5694 4.27467 12.5458L3.30857 12.3393C3.29479 12.3364 3.281 12.335 3.26745 12.335V12.3347ZM28.733 12.3367C28.7194 12.3368 28.7058 12.3386 28.692 12.3411L27.7258 12.5474C27.6155 12.571 27.5455 12.6792 27.569 12.7901C27.5924 12.901 27.7001 12.9715 27.8104 12.9479L28.7765 12.7415C28.8868 12.7179 28.9568 12.6097 28.9334 12.4988C28.9129 12.4017 28.8278 12.3357 28.733 12.3365L28.733 12.3367ZM3.02127 13.6797C2.92686 13.6888 2.84915 13.7632 2.83878 13.8619C2.82694 13.9747 2.90762 14.0751 3.01978 14.087L5.35489 14.3353C5.46705 14.3472 5.56691 14.266 5.57876 14.1532C5.59061 14.0404 5.50984 13.94 5.39768 13.9281L3.06257 13.6799C3.04854 13.6784 3.03476 13.6784 3.02127 13.6797V13.6797ZM28.9809 13.6973C28.9674 13.6959 28.9535 13.6959 28.9395 13.6975L26.6041 13.9426C26.492 13.9543 26.4111 14.0546 26.4228 14.1674C26.4345 14.2802 26.5342 14.3615 26.6464 14.3497L28.9818 14.1047C29.0939 14.0929 29.1748 13.9926 29.1631 13.8798C29.1529 13.7812 29.0753 13.7066 28.9809 13.6973L28.9809 13.6973ZM2.98173 15.0564C2.86894 15.0564 2.77817 15.1477 2.77817 15.2611C2.77817 15.3745 2.86894 15.4658 2.98173 15.4658H3.96945C4.08223 15.4658 4.1731 15.3745 4.1731 15.2611C4.1731 15.1477 4.08223 15.0564 3.96945 15.0564H2.98173ZM28.0306 15.0564C27.9178 15.0564 27.827 15.1477 27.827 15.2611C27.827 15.3745 27.9178 15.4658 28.0306 15.4658H29.0183C29.131 15.4658 29.2218 15.3745 29.2218 15.2611C29.2218 15.1477 29.131 15.0564 29.0183 15.0564H28.0306ZM5.39497 16.1722C5.38147 16.1708 5.36768 16.1708 5.35365 16.1724L3.01818 16.4175C2.90601 16.4292 2.82516 16.5295 2.83685 16.6423C2.84855 16.7551 2.94827 16.8364 3.06044 16.8247L5.39592 16.5796C5.5081 16.5678 5.58895 16.4675 5.57726 16.3548C5.567 16.2561 5.48935 16.1815 5.39495 16.1722H5.39497ZM26.6038 16.1867C26.5094 16.1958 26.4317 16.2703 26.4213 16.369C26.4095 16.4818 26.4902 16.5822 26.6023 16.5941L28.9374 16.8423C29.0496 16.8542 29.1494 16.773 29.1613 16.6603C29.1731 16.5475 29.0924 16.4471 28.9802 16.4352L26.6452 16.1869C26.6312 16.1855 26.6173 16.1855 26.6038 16.1868L26.6038 16.1867ZM4.23082 17.5696C4.21728 17.5697 4.2035 17.571 4.18972 17.5739L3.22353 17.7803C3.11321 17.8039 3.04327 17.9121 3.0667 18.0231C3.09015 18.134 3.19782 18.2043 3.30815 18.1808L4.27433 17.9745C4.38465 17.9509 4.45458 17.8426 4.43115 17.7317C4.41065 17.6347 4.32567 17.5686 4.23084 17.5694L4.23082 17.5696ZM27.7689 17.5715C27.6741 17.5705 27.5891 17.6366 27.5686 17.7337C27.5451 17.8446 27.615 17.9529 27.7253 17.9765L28.6915 18.1829C28.8018 18.2065 28.9095 18.1362 28.9329 18.0253C28.9564 17.9144 28.8864 17.806 28.7761 17.7825L27.81 17.576C27.7962 17.5731 27.7825 17.5716 27.7689 17.5716L27.7689 17.5715ZM5.8578 18.3777C5.83144 18.3753 5.80423 18.3782 5.77741 18.3872L3.54429 19.117C3.43703 19.1521 3.37878 19.2672 3.41364 19.375C3.44851 19.4829 3.56293 19.5414 3.67019 19.5064L5.90323 18.7765C6.01049 18.7414 6.06882 18.6264 6.03396 18.5185C6.00779 18.4376 5.93687 18.3844 5.8578 18.3777V18.3777ZM26.14 18.385C26.0609 18.3916 25.99 18.4447 25.9638 18.5256C25.9289 18.6334 25.987 18.7485 26.0943 18.7837L28.3269 19.5151C28.4341 19.5503 28.5486 19.4917 28.5835 19.3839C28.6185 19.2761 28.5603 19.161 28.4531 19.1259L26.2205 18.3944C26.1937 18.3856 26.1664 18.3828 26.14 18.385V18.385ZM5.00566 19.9764C4.9792 19.9769 4.95243 19.9826 4.92667 19.9941L4.02427 20.3981C3.92123 20.4442 3.87525 20.5648 3.92111 20.6684C3.96701 20.772 4.08685 20.8182 4.18988 20.7721L5.09228 20.3682C5.19531 20.3221 5.2413 20.2015 5.19543 20.0979C5.16105 20.0202 5.08499 19.9748 5.00566 19.9764V19.9764ZM26.9911 19.9842C26.9117 19.9822 26.8357 20.0279 26.8012 20.1055C26.7553 20.2091 26.8012 20.3297 26.9042 20.3759L27.8062 20.7805C27.9092 20.8267 28.0292 20.7805 28.0751 20.6769C28.121 20.5734 28.0751 20.4528 27.9721 20.4066L27.0701 20.002C27.0443 19.9904 27.0175 19.9847 26.9911 19.9841V19.9842ZM6.76258 20.4277C6.7235 20.4248 6.68314 20.4336 6.64651 20.4549L4.61302 21.6354C4.51535 21.6921 4.48212 21.8168 4.53851 21.915C4.5949 22.0132 4.71891 22.0466 4.81658 21.9899L6.85009 20.8095C6.94776 20.7528 6.98098 20.628 6.92459 20.5298C6.88933 20.4684 6.82772 20.4323 6.76258 20.4277V20.4277ZM25.2375 20.4277C25.1724 20.4321 25.1107 20.4684 25.0754 20.5298C25.019 20.628 25.0522 20.7527 25.1499 20.8094L27.1834 21.9899C27.2811 22.0466 27.4052 22.0132 27.4616 21.915C27.518 21.8168 27.4847 21.6921 27.3871 21.6354L25.3535 20.4548C25.3169 20.4336 25.2766 20.425 25.2375 20.4277V20.4277ZM6.25536 22.1601C6.21619 22.1616 6.17697 22.1743 6.14273 22.1993L5.34329 22.7825C5.25201 22.8491 5.23182 22.9766 5.29803 23.0684C5.36426 23.1602 5.49106 23.1805 5.58235 23.1138L6.38186 22.5306C6.47316 22.464 6.49334 22.3365 6.42713 22.2447C6.38573 22.1874 6.32062 22.1579 6.25536 22.1601V22.1601ZM25.7398 22.167C25.6745 22.1646 25.6095 22.1942 25.568 22.2515C25.5017 22.3432 25.5218 22.4708 25.6131 22.5374L26.4122 23.1212C26.5034 23.1879 26.6302 23.1676 26.6965 23.0759C26.7628 22.9841 26.7427 22.8567 26.6515 22.79L25.8524 22.2062C25.8183 22.1812 25.779 22.1684 25.7398 22.167L25.7398 22.167ZM8.06596 22.2377C8.014 22.2348 7.961 22.2522 7.91906 22.2901L6.17278 23.8685C6.08891 23.9443 6.08209 24.0732 6.15749 24.1576C6.23288 24.2419 6.3611 24.2487 6.44497 24.1729L8.19125 22.5945C8.27512 22.5187 8.28194 22.3898 8.20654 22.3054C8.16887 22.2633 8.11793 22.2405 8.06596 22.2377ZM23.9292 22.2433C23.8772 22.2463 23.8263 22.2689 23.7885 22.311C23.7131 22.3953 23.7198 22.5242 23.8036 22.6001L25.5488 24.1797C25.6326 24.2556 25.7609 24.2488 25.8363 24.1645C25.9118 24.0803 25.905 23.9514 25.8212 23.8755L24.076 22.2958C24.0341 22.2579 23.9812 22.2406 23.9292 22.2434V22.2433ZM9.72263 23.7429C9.65738 23.7404 9.59224 23.7698 9.55078 23.8271L8.16947 25.7364C8.10312 25.8281 8.12308 25.9556 8.21425 26.0224C8.30544 26.0891 8.4323 26.069 8.49864 25.9773L9.87997 24.068C9.94631 23.9763 9.92635 23.8488 9.83519 23.7821C9.801 23.7571 9.76179 23.7442 9.72263 23.7429ZM22.266 23.7514C22.2268 23.7529 22.1876 23.7655 22.1534 23.7905C22.0621 23.8571 22.0419 23.9846 22.1081 24.0763L23.4869 25.9875C23.5531 26.0793 23.6799 26.0996 23.7712 26.033C23.8625 25.9664 23.8827 25.8389 23.8165 25.7471L22.4377 23.836C22.3963 23.7786 22.3313 23.7492 22.266 23.7514V23.7514ZM7.93944 24.0463C7.88748 24.0492 7.83652 24.0718 7.79879 24.114L7.13791 24.852C7.06244 24.9363 7.06912 25.0653 7.15295 25.1411C7.23676 25.217 7.36495 25.2102 7.44041 25.1259L8.10138 24.3879C8.17686 24.3036 8.17009 24.1746 8.0863 24.0988C8.04437 24.0608 7.99144 24.0435 7.93947 24.0463L7.93944 24.0463ZM24.0593 24.0473C24.0074 24.0444 23.9544 24.0618 23.9125 24.0998C23.8287 24.1756 23.8219 24.3045 23.8974 24.3888L24.5582 25.127C24.6336 25.2113 24.7618 25.2181 24.8456 25.1422C24.9295 25.0663 24.9362 24.9373 24.8607 24.853L24.1999 24.1149C24.1622 24.0728 24.1112 24.05 24.0593 24.0473L24.0593 24.0473ZM11.6516 24.866C11.5723 24.8641 11.4963 24.9098 11.4618 24.9874L10.5051 27.1436C10.4592 27.2472 10.5051 27.3677 10.6081 27.4139C10.7111 27.4601 10.831 27.414 10.8769 27.3104L11.8336 25.1542C11.8796 25.0506 11.8337 24.9301 11.7307 24.8839C11.7049 24.8723 11.678 24.8666 11.6516 24.866ZM20.3355 24.872C20.309 24.8725 20.2822 24.8782 20.2564 24.8897C20.1534 24.9358 20.1073 25.0562 20.1531 25.1599L21.1068 27.3174C21.1526 27.4209 21.2725 27.4673 21.3756 27.4213C21.4786 27.3752 21.5247 27.2547 21.4789 27.1511L20.5252 24.9936C20.4908 24.9159 20.4148 24.8704 20.3355 24.872ZM9.97049 25.5327C9.90535 25.5371 9.84371 25.5733 9.80847 25.6347L9.31461 26.4948C9.25823 26.593 9.29144 26.7177 9.38912 26.7744C9.48679 26.8311 9.61081 26.7977 9.6672 26.6995L10.1611 25.8394C10.2174 25.7412 10.1842 25.6165 10.0866 25.5598C10.0499 25.5386 10.0096 25.5299 9.97049 25.5327V25.5327ZM22.0295 25.5327C21.9904 25.5298 21.9502 25.5386 21.9135 25.5598C21.8159 25.6165 21.7826 25.7412 21.839 25.8394L22.3329 26.6995C22.3893 26.7977 22.5133 26.8311 22.611 26.7744C22.7086 26.7177 22.7419 26.593 22.6855 26.4948L22.1916 25.6347C22.1563 25.5734 22.0946 25.5373 22.0295 25.5327V25.5327ZM13.7814 25.5635C13.6865 25.5625 13.6016 25.6286 13.5811 25.7257L13.0931 28.0352C13.0696 28.1462 13.1396 28.2545 13.2499 28.278C13.3602 28.3016 13.4679 28.2312 13.4914 28.1203L13.9793 25.8108C14.0028 25.6999 13.9328 25.5916 13.8225 25.568C13.8087 25.5651 13.7949 25.5636 13.7814 25.5636L13.7814 25.5635ZM18.2114 25.565C18.1979 25.5651 18.1842 25.5664 18.1704 25.5693C18.0601 25.5928 17.99 25.701 18.0134 25.8119L18.4997 28.1218C18.523 28.2328 18.6307 28.3032 18.741 28.2797C18.8514 28.2562 18.9214 28.148 18.898 28.037L18.4117 25.7273C18.3912 25.6302 18.3063 25.5642 18.2114 25.5649L18.2114 25.565ZM16 25.7979C15.8872 25.7979 15.7964 25.8892 15.7964 26.0026V28.3637C15.7964 28.4771 15.8872 28.5684 16 28.5684C16.1128 28.5684 16.2036 28.4771 16.2036 28.3637V26.0026C16.2036 25.8892 16.1128 25.7979 16 25.7979ZM12.2632 26.5609C12.1841 26.5676 12.1132 26.6208 12.087 26.7017L11.7817 27.6462C11.7468 27.7541 11.8051 27.8691 11.9124 27.9042C12.0196 27.9393 12.134 27.8806 12.1689 27.7727L12.4742 26.8283C12.5091 26.7204 12.4508 26.6054 12.3436 26.5703C12.3168 26.5616 12.2895 26.5586 12.2632 26.5609V26.5609ZM19.7352 26.5613C19.7089 26.5589 19.6817 26.5618 19.6549 26.5707C19.5476 26.6058 19.4893 26.7208 19.5241 26.8287L19.8293 27.7733C19.8642 27.8811 19.9786 27.9397 20.0859 27.9046C20.1931 27.8696 20.2515 27.7546 20.2166 27.6467L19.9113 26.7022C19.8852 26.6213 19.8143 26.5681 19.7352 26.5614V26.5613ZM14.7222 27.0874C14.6278 27.0966 14.55 27.1711 14.5397 27.2698L14.4365 28.2575C14.4246 28.3703 14.5055 28.4706 14.6176 28.4824C14.7298 28.4943 14.8296 28.4131 14.8414 28.3003L14.9446 27.3126C14.9564 27.1998 14.8756 27.0995 14.7635 27.0876C14.7494 27.0861 14.7357 27.0861 14.7222 27.0874L14.7222 27.0874ZM17.2696 27.0884C17.2562 27.0869 17.2423 27.0869 17.2282 27.0886C17.1161 27.1003 17.0352 27.2006 17.0469 27.3134L17.1495 28.3012C17.1612 28.414 17.261 28.4953 17.3731 28.4835C17.4853 28.4717 17.5662 28.3714 17.5545 28.2587L17.4519 27.2709C17.4417 27.1722 17.364 27.0976 17.2696 27.0884L17.2696 27.0884Z" fill="#F4F2F3"/>
<g opacity="0.409" filter="url(#filter0_f)">
<path d="M25.5416 7.07324L14.4038 13.5799L7.36169 24.7272L17.6637 17.0546L25.5416 7.07324Z" fill="black"/>
</g>
<path d="M17.5961 16.9416L14.4037 13.58L25.7285 5.91987L17.5961 16.9416Z" fill="#FF5150"/>
<path d="M17.5962 16.9416L14.4038 13.58L6.2714 24.6017L17.5962 16.9416Z" fill="#F1F1F1"/>
<path opacity="0.243" d="M6.27136 24.6017L17.5962 16.9416L25.7285 5.91986L6.27136 24.6017Z" fill="black"/>
</g>
<defs>
<filter id="filter0_f" x="6.68837" y="6.39992" width="19.5265" height="19.0006" filterUnits="userSpaceOnUse" color-interpolation-filters="sRGB">
<feFlood flood-opacity="0" result="BackgroundImageFix"/>
<feBlend mode="normal" in="SourceGraphic" in2="BackgroundImageFix" result="shape"/>
<feGaussianBlur stdDeviation="0.336663" result="effect1_foregroundBlur"/>
</filter>
<linearGradient id="paint0_linear" x1="16" y1="30.4939" x2="16" y2="0.0273438" gradientUnits="userSpaceOnUse">
<stop stop-color="#BDBDBD"/>
<stop offset="1" stop-color="white"/>
</linearGradient>
<radialGradient id="paint1_radial" cx="0" cy="0" r="1" gradientUnits="userSpaceOnUse" gradientTransform="translate(16.0635 13.2138) scale(15.15 15.2333)">
<stop stop-color="#06C2E7"/>
<stop offset="0.25" stop-color="#0DB8EC"/>
<stop offset="0.5" stop-color="#12AEF1"/>
<stop offset="0.75" stop-color="#1F86F9"/>
<stop offset="1" stop-color="#107DDD"/>
</radialGradient>
<clipPath id="clip0">
<rect width="32" height="32" fill="white"/>
</clipPath>
</defs>
</svg>
