<svg width="32" height="32" viewBox="0 0 32 32" fill="none" xmlns="http://www.w3.org/2000/svg">
<path d="M16 32C24.8366 32 32 24.8366 32 16C32 7.16344 24.8366 0 16 0C7.16344 0 0 7.16344 0 16C0 24.8366 7.16344 32 16 32Z" fill="#0768C1"/>
<path d="M26.7822 21.1093C25.8782 20.7626 26.0391 20.8888 25.4817 19.7039C24.9244 18.5199 24.5866 18.1386 23.3333 17.9999C22.0791 17.8622 22.1262 17.9599 21.7777 17.3333C21.4293 16.7057 20.0159 17.503 19.1111 17.8524C18.2035 18.2008 18.4275 18.9599 18.1484 18.8888C17.8684 18.8195 17.1644 18.639 16.4657 18.0826C15.7688 17.5244 16.9839 17.0888 17.3333 16.7413C17.6826 16.3919 16.6755 16.5822 16.3262 16.3715C15.9768 16.1635 15.3519 16.7902 14.7946 16.231C14.2364 15.6737 14.5857 14.8373 14.5164 14.1404C14.4462 13.4426 15.4213 13.3039 16.0488 13.1644C16.6755 13.0257 17.1626 13.1653 17.1626 14.0008C17.1626 14.8373 17.9297 15.1164 17.7208 14.1395C17.5119 13.1626 17.9297 12.8853 18.2097 12.3973C18.4879 11.9093 18.9759 11.2115 19.6026 10.1662C20.2302 9.12082 20.6488 9.60793 21.4151 9.6826C22.1822 9.75816 22.3911 9.60882 22.9484 9.67905C23.5039 9.74927 22.9484 8.98216 23.1582 8.21593C23.3662 7.44971 24.1333 7.58838 24.9013 7.79816C25.6675 8.00705 24.1333 6.82127 23.8551 6.1946C23.5751 5.56705 22.8088 6.1946 22.3226 5.14927C21.8311 4.10393 21.1457 3.42749 20.5182 3.33416C19.8906 3.23993 20.7182 4.66216 20.2302 5.42838C19.7404 6.1946 18.9902 6.0746 18.2213 6.0746C17.4559 6.0746 16.7448 5.42838 17.3031 4.45238C17.8595 3.47727 18.9235 3.57771 19.4808 2.74127C20.0391 1.90571 17.4986 1.98216 16.5919 1.70393C15.6853 1.42482 14.5973 1.42749 13.6915 2.12438C12.7848 2.82038 10.8462 3.03816 10.0791 3.31638C9.31284 3.5946 9.17506 2.85416 9.03639 2.29593C8.97417 2.04793 8.6915 1.96971 8.29328 1.9786C6.31995 3.0666 4.61061 4.56705 3.25684 6.35282C3.4675 7.07016 4.48795 6.18482 4.68795 5.98482C4.89684 5.77593 5.94217 6.05505 6.08084 6.82127C6.22039 7.58749 6.15106 8.42571 5.87284 9.1226C5.59372 9.8186 6.56972 10.7946 7.12706 11.7706C7.68528 12.7475 8.31195 12.7466 8.59106 12.7466C8.86928 12.7466 10.4728 13.3742 10.4026 14.1404C10.3333 14.9075 11.8666 15.6035 12.4942 16.0915C13.1217 16.5813 13.5182 17.0622 14.3324 17.2026C15.1475 17.343 16.1004 18.6755 16.5182 18.8159C16.8391 18.9226 17.3822 19.4355 17.7102 19.5946C17.2791 20.1404 16.4444 21.2613 16.4444 21.7777C16.4444 22.4764 17.3555 23.5742 17.7039 23.8524C18.0515 24.1297 19.0524 24.3413 19.2595 25.0373C19.4693 25.7342 19.1137 28.0799 18.4879 28.7066C17.8586 29.3333 17.6302 30.815 17.6302 30.815C17.6302 30.815 17.8515 31.2959 18.5928 30.815C19.4124 30.2844 20.7848 28.7733 21.3333 28.4444C22.3786 27.8159 23.3946 27.0533 24.3706 26.1484C25.3466 25.2426 24.9928 24.6079 25.4817 23.7039C25.9697 22.7982 26.6008 22.839 27.4364 22.0746C28.2737 21.3066 27.6888 21.4586 26.7822 21.1093Z" fill="#32D05F"/>
</svg>
