<svg width="388" height="339" viewBox="0 0 388 339" fill="none" xmlns="http://www.w3.org/2000/svg">
<path d="M359.512 61.86C340.32 58.0136 321.637 70.4426 317.79 89.6223C313.943 108.799 326.386 127.459 345.581 131.303C355.513 133.293 365.306 130.925 372.978 125.517C375.501 123.743 377.794 121.64 379.785 119.255C383.447 114.87 386.099 109.537 387.302 103.544C391.149 84.3666 378.706 65.7037 359.512 61.86ZM370.157 100.109C369.549 103.146 368.205 105.848 366.349 108.07C365.339 109.28 364.178 110.347 362.9 111.245C359.011 113.986 354.049 115.185 349.016 114.177C339.289 112.228 332.985 102.773 334.935 93.0543C336.885 83.3359 346.349 77.0385 356.077 78.9866C365.804 80.9347 372.107 90.3905 370.157 100.109Z" fill="#D5E2F3"/>
<path d="M363.334 62.6117C361.216 67.696 362.538 72.9075 366.559 76.6269C368.791 78.691 371.712 79.7963 374.577 80.6668C378.054 81.7223 381.724 83.0265 385.336 83.4742C385.676 83.5156 385.82 82.9602 385.513 82.822C379.954 80.3296 373.222 80.3158 368.166 76.6683C366.335 75.3475 364.736 73.4574 363.779 71.4099C362.474 68.6135 362.645 65.5656 363.625 62.6946C363.688 62.5039 363.406 62.4376 363.334 62.6117Z" fill="#001A39"/>
<path d="M334.62 127.244C342.463 124.199 352.467 125.821 358.864 131.27C359.124 131.491 359.572 131.207 359.365 130.883C357.067 127.288 351.953 126.003 348.039 125.277C343.365 124.409 338.768 124.821 334.423 126.777C334.163 126.899 334.349 127.349 334.62 127.244Z" fill="#001A39"/>
<path d="M329.515 69.8209C330.3 76.7981 330.64 83.8775 328.895 90.747C328.038 94.1236 326.768 97.3953 325.04 100.424C323.366 103.356 321.181 105.773 319.14 108.426C318.933 108.694 319.336 109.078 319.605 108.89C322.252 107.034 324.29 103.947 325.891 101.195C327.689 98.1082 329.019 94.7343 329.893 91.2747C331.677 84.2063 331.442 76.8534 329.971 69.7601C329.921 69.5059 329.484 69.5556 329.515 69.8209Z" fill="#001A39"/>
<path d="M253.403 299.535L246.594 313.885L271.666 339L229.214 322.528L242.047 294.937" fill="#FFA574"/>
<path fill-rule="evenodd" clip-rule="evenodd" d="M254.062 317.025L244.841 319.393L244.635 318.59L253.856 316.222L254.062 317.025Z" fill="white"/>
<path fill-rule="evenodd" clip-rule="evenodd" d="M257.445 320.12L248.221 322.485L248.015 321.682L257.238 319.317L257.445 320.12Z" fill="white"/>
<path fill-rule="evenodd" clip-rule="evenodd" d="M260.825 323.214L251.601 325.579L251.395 324.776L260.618 322.411L260.825 323.214Z" fill="white"/>
<path d="M160.592 285.653L167.753 299.87L143.301 325.452L185.34 308.184L171.835 280.842" fill="#FFA574"/>
<path fill-rule="evenodd" clip-rule="evenodd" d="M160.552 302.345L169.831 304.537L169.64 305.343L160.361 303.152L160.552 302.345Z" fill="white"/>
<path fill-rule="evenodd" clip-rule="evenodd" d="M157.247 305.504L166.527 307.695L166.336 308.502L157.057 306.311L157.247 305.504Z" fill="white"/>
<path fill-rule="evenodd" clip-rule="evenodd" d="M153.945 308.659L163.221 310.851L163.03 311.657L153.754 309.466L153.945 308.659Z" fill="white"/>
<path d="M157.677 293.229L130.883 246.539C124.87 236.061 126.09 222.648 133.878 213.648L161.201 182.07C171.683 169.956 186.632 163.315 202.145 163.885C218.198 164.473 233.177 172.713 242.918 186.319L270.41 224.709C275.889 232.358 277.523 242.347 274.794 251.48L256.982 311.05L225.995 296.786L240.219 245.939L199.147 202.274L165.239 234.287L187.18 278.664L157.677 293.229Z" fill="#032349"/>
<path d="M209.176 212.996C213.975 210.186 220.483 207.994 225.818 210.578C230.177 212.689 232.956 216.992 235.686 220.799C241.317 228.653 248.456 236.119 258.592 237.196C264.043 237.777 270.504 236.553 274.761 232.894C275.162 232.549 274.65 231.957 274.216 232.187C271.721 233.502 269.359 234.812 266.591 235.497C263.853 236.174 260.99 236.323 258.191 235.975C252.776 235.298 248.002 232.645 244.03 228.99C240.366 225.616 237.542 221.579 234.583 217.608C232.102 214.278 229.247 210.868 225.234 209.387C219.788 207.378 213.643 209.763 208.955 212.626C208.72 212.767 208.936 213.137 209.176 212.996Z" fill="#E4EDFA"/>
<path d="M247.617 193.159C244.694 198.87 242.658 206.37 246.832 212.054C248.71 214.612 251.567 216.116 254.49 217.188C258.174 218.539 262.248 219.686 266.195 219.561C266.549 219.55 266.632 219.034 266.281 218.937C260.262 217.29 252.554 216.898 248.168 211.833C243.654 206.621 245.568 199.08 248.32 193.565C248.549 193.103 247.855 192.692 247.617 193.159Z" fill="#E4EDFA"/>
<path d="M232.054 274.683C235.345 277.451 236.377 281.966 236.269 286.097C236.145 290.955 233.957 295.166 231.913 299.463C231.747 299.811 232.215 300.265 232.494 299.911C237.882 293.08 240.266 280.286 232.361 274.287C232.134 274.113 231.836 274.5 232.054 274.683Z" fill="#E4EDFA"/>
<path d="M145.217 271.842C151.133 271.198 157.063 271.674 162.634 273.859C168.11 276.009 172.883 279.701 176.833 284.017C177.129 284.34 177.566 283.873 177.306 283.544C169.722 273.95 157.229 269.043 145.132 271.198C144.772 271.264 144.85 271.883 145.217 271.842Z" fill="#E4EDFA"/>
<path d="M170.627 245.425C167.103 248.741 164.271 253.82 166.417 258.683C167.413 260.938 169.415 262.419 171.625 263.381C174.291 264.541 177.458 265.415 180.39 265.224C180.796 265.199 180.929 264.583 180.489 264.48C176.172 263.469 170.112 263.005 167.64 258.686C165.059 254.176 167.795 249.111 171.089 245.889C171.393 245.591 170.934 245.135 170.627 245.425Z" fill="#E4EDFA"/>
<path d="M179.375 168.563C183.189 170.475 187.213 172.011 191.268 173.332C195.187 174.609 199.288 175.626 203.44 175.479C208.592 175.297 216.536 173.28 217.329 167.073C217.385 166.642 216.737 166.524 216.544 166.861C215.839 168.099 215.321 169.334 214.293 170.367C213.344 171.321 212.199 172.05 210.976 172.6C208.117 173.885 204.776 174.368 201.664 174.266C194.022 174.02 186.64 170.688 179.563 168.118C179.303 168.024 179.129 168.439 179.375 168.563Z" fill="#E4EDFA"/>
<path d="M149.955 195.131C153.462 196.917 157.32 198.058 161.168 198.837C164.749 199.564 168.563 200.166 172.225 199.857C175.303 199.597 178.329 198.494 180.227 195.941C182.207 193.274 181.573 190.721 180.816 187.756C180.326 185.847 180.315 183.913 182.467 183.073C184.35 182.338 186.696 182.473 188.646 182.827C192.661 183.559 196.274 185.554 199.841 187.433C203.094 189.146 206.44 190.837 210.097 191.478C213.427 192.064 216.851 191.84 220.123 191.025C223.978 190.064 227.635 188.315 230.942 186.134C233.733 184.297 236.087 182.105 236.961 178.779C237.124 178.16 236.214 177.919 236.009 178.516C234.933 181.688 232.511 183.675 229.767 185.419C226.752 187.334 223.483 188.864 220.018 189.76C216.425 190.688 212.65 190.904 209.024 190.019C205.428 189.144 202.167 187.331 198.915 185.626C195.759 183.971 192.49 182.36 188.953 181.71C186.394 181.241 182.677 180.923 180.556 182.805C178.324 184.783 179.618 187.723 180.18 190.133C181.02 193.755 178.725 196.836 175.331 198.025C171.34 199.423 166.519 198.704 162.451 198.025C158.222 197.317 154.195 196.049 150.135 194.709C149.886 194.631 149.723 195.013 149.955 195.131Z" fill="#E4EDFA"/>
<path d="M237.647 255.724C242.686 252.972 247.617 249.963 253.417 249.125C256.271 248.714 259.281 249.012 261.684 250.725C264.248 252.552 265.127 255.464 264.342 258.473C263.579 261.4 261.789 264.036 260.309 266.639C258.785 269.319 257.259 271.997 255.732 274.674C253.237 279.054 250.596 283.984 251.185 289.201C251.752 294.21 255.619 298.728 259.994 301.005C260.39 301.213 260.686 300.674 260.337 300.419C255.793 297.084 251.747 292.611 252.206 286.592C252.67 280.496 256.697 274.898 259.626 269.731C261.147 267.048 262.821 264.401 264.134 261.607C265.208 259.324 266.01 256.733 265.304 254.221C264.018 249.625 258.885 247.774 254.546 248.108C251.423 248.349 248.364 249.374 245.496 250.584C242.609 251.803 239.729 253.29 237.384 255.392C237.201 255.555 237.439 255.837 237.647 255.724Z" fill="#E4EDFA"/>
<path d="M136.171 257.321C140.024 258.982 146.009 260.032 148.871 256.041C150.641 253.577 150.141 250.438 149.09 247.79C147.801 244.541 145.862 241.584 144.482 238.371C141.772 232.062 140.411 223.969 145.027 218.152C148.456 213.83 154.359 212.294 159.666 212.661C166.923 213.164 173.119 217.431 178.487 221.996C178.833 222.288 179.295 221.838 178.988 221.495C171.667 213.36 158.69 207.792 148.36 213.767C143.279 216.704 140.754 222.181 140.826 227.942C140.867 231.371 141.755 234.723 143.038 237.887C144.333 241.081 146.133 244.005 147.566 247.127C149.167 250.612 149.955 255.544 145.569 257.296C142.69 258.445 139.238 257.722 136.456 256.641C136.069 256.495 135.786 257.155 136.171 257.321Z" fill="#E4EDFA"/>
<path d="M220.925 112.566C224.147 129.292 213.186 145.459 196.445 148.679C179.704 151.898 163.521 140.947 160.299 124.221" fill="white"/>
<path d="M34.3574 127.96C14.0235 126.551 -1.31814 108.94 0.089634 88.625C1.50017 68.3096 19.1263 52.9819 39.4602 54.3884" fill="#617FA8"/>
<path d="M171.664 93.5241C171.727 101.482 178.235 107.879 186.2 107.813C193.242 107.755 199.061 102.668 200.273 95.9916C200.43 95.1157 200.51 94.2149 200.502 93.2919C200.439 85.3365 193.931 78.9369 185.965 79.0032C181.822 79.0364 178.102 80.8104 175.494 83.6289C173.091 86.2263 171.633 89.7108 171.664 93.5241Z" fill="#FFA574"/>
<path d="M175.494 83.6261C179.424 91.225 187.392 96.3895 196.539 96.3177C197.808 96.3066 199.056 96.1961 200.27 95.9916C200.428 95.1157 200.508 94.2149 200.499 93.2919C200.436 85.3365 193.928 78.9369 185.963 79.0032C181.822 79.0336 178.102 80.8104 175.494 83.6261Z" fill="#234977"/>
<path d="M192.006 79.86C195.041 79.86 197.501 77.4019 197.501 74.3695C197.501 71.3372 195.041 68.8789 192.006 68.8789C188.971 68.8789 186.51 71.3372 186.51 74.3695C186.51 77.4019 188.971 79.86 192.006 79.86Z" fill="#617FA8"/>
<path d="M184.771 70.1856C193.409 70.1856 200.411 63.1896 200.411 54.5595C200.411 45.9294 193.409 38.9333 184.771 38.9333C176.133 38.9333 169.13 45.9294 169.13 54.5595C169.13 63.1896 176.133 70.1856 184.771 70.1856Z" fill="#234977"/>
<path d="M179.694 98.3238C179.752 97.0829 179.155 96.0471 178.362 96.0103C177.568 95.9735 176.878 96.9495 176.821 98.1904C176.763 99.4313 177.359 100.467 178.153 100.504C178.946 100.541 179.636 99.5646 179.694 98.3238Z" fill="#001A39"/>
<path d="M184.459 98.7024C184.516 97.4615 183.92 96.4258 183.126 96.389C182.333 96.3521 181.643 97.3282 181.585 98.5691C181.528 99.8099 182.124 100.846 182.918 100.883C183.711 100.919 184.401 99.9433 184.459 98.7024Z" fill="#001A39"/>
<path fill-rule="evenodd" clip-rule="evenodd" d="M177.838 103.992C177.837 103.992 177.837 103.992 177.732 103.45C177.627 102.907 177.626 102.907 177.626 102.907L177.626 102.907L177.625 102.907L177.625 102.907C177.624 102.907 177.625 102.907 177.626 102.907C177.628 102.907 177.632 102.906 177.638 102.905C177.65 102.902 177.669 102.897 177.696 102.89C177.749 102.877 177.828 102.854 177.924 102.821C178.119 102.753 178.374 102.645 178.623 102.481C179.112 102.16 179.555 101.652 179.541 100.8L180.647 100.782C180.669 102.124 179.93 102.946 179.23 103.405C178.884 103.632 178.541 103.777 178.287 103.865C178.16 103.909 178.052 103.94 177.974 103.96C177.935 103.97 177.903 103.978 177.88 103.983C177.868 103.986 177.859 103.988 177.852 103.989L177.843 103.991L177.839 103.992L177.838 103.992L177.838 103.992Z" fill="#001A39"/>
<path fill-rule="evenodd" clip-rule="evenodd" d="M79.9405 63.7568L80.9198 63.468L112.35 102.122L149.496 119.526L149.026 120.527L111.766 103.069L111.571 102.917L80.8973 65.1932L78.5455 86.8363C78.5656 86.8797 78.5903 86.9332 78.6195 86.9963C78.71 87.1918 78.8441 87.4797 79.0179 87.8487C79.3654 88.5869 79.8717 89.6497 80.506 90.9468C81.7746 93.5412 83.5543 97.0709 85.599 100.813C87.6443 104.557 89.9511 108.507 92.2736 111.944C94.6037 115.392 96.9217 118.281 98.9837 119.941C101.059 121.612 104.932 123.745 109.625 126.018C114.303 128.284 119.749 130.665 124.934 132.835C130.118 135.004 135.037 136.96 138.66 138.373C140.471 139.08 141.958 139.65 142.993 140.045C143.51 140.242 143.913 140.395 144.188 140.498C144.325 140.55 144.43 140.59 144.5 140.616L144.605 140.655L144.606 140.656C144.607 140.656 144.607 140.656 144.413 141.174C144.219 141.691 144.219 141.691 144.218 141.691L144.217 141.69L144.111 141.651C144.04 141.624 143.935 141.584 143.797 141.532C143.521 141.428 143.116 141.275 142.598 141.077C141.562 140.682 140.072 140.11 138.257 139.403C134.629 137.987 129.701 136.028 124.507 133.854C119.313 131.681 113.847 129.291 109.143 127.013C104.454 124.742 100.475 122.561 98.2896 120.802C96.0924 119.033 93.6985 116.028 91.3567 112.562C89.0073 109.085 86.6821 105.103 84.6279 101.343C82.573 97.5818 80.7855 94.0365 79.5119 91.4319C78.875 90.1294 78.3664 89.0617 78.0168 88.3192C77.842 87.948 77.707 87.658 77.6155 87.4606C77.5698 87.362 77.535 87.2864 77.5116 87.2355L77.485 87.1776L77.476 87.158C77.4759 87.1578 77.4759 87.1576 77.9791 86.9283L77.4759 87.1576L77.4292 86.8686L79.9405 63.7568Z" fill="white"/>
<path fill-rule="evenodd" clip-rule="evenodd" d="M125.472 169.584L156.251 142.48L156.983 143.31L126.109 170.497L125.892 170.615L78.4062 183.867L83.928 194.957C83.9702 194.956 84.016 194.955 84.0655 194.953C84.3856 194.944 84.8567 194.931 85.4598 194.912C86.6661 194.874 88.4007 194.815 90.5126 194.728C94.7368 194.553 100.469 194.267 106.502 193.823C112.537 193.379 118.866 192.776 124.286 191.97C129.734 191.159 134.179 190.153 136.508 188.933C138.868 187.698 142.37 184.999 146.326 181.604C150.27 178.22 154.627 174.18 158.685 170.293C162.742 166.407 166.497 162.679 169.239 159.922C170.609 158.544 171.726 157.409 172.5 156.618C172.887 156.223 173.188 155.914 173.393 155.703C173.495 155.598 173.573 155.518 173.625 155.464L173.703 155.383L173.704 155.383C173.704 155.382 173.704 155.382 174.102 155.766C174.5 156.15 174.5 156.15 174.5 156.151L174.42 156.233C174.367 156.287 174.289 156.368 174.186 156.474C173.981 156.685 173.679 156.995 173.291 157.391C172.515 158.183 171.396 159.321 170.023 160.701C167.278 163.462 163.516 167.197 159.45 171.091C155.385 174.984 151.013 179.04 147.047 182.443C143.095 185.834 139.506 188.611 137.021 189.912C134.504 191.23 129.879 192.255 124.449 193.063C118.99 193.875 112.631 194.48 106.584 194.925C100.535 195.37 94.7901 195.657 90.5584 195.832C88.4423 195.919 86.704 195.979 85.4944 196.017C84.8897 196.036 84.4171 196.049 84.0955 196.058C83.9347 196.062 83.8117 196.066 83.7288 196.068L83.6033 196.071C83.603 196.071 83.6028 196.071 83.5898 195.518L83.6028 196.071L83.0945 195.764L77.1177 183.761L77.4641 182.983L125.472 169.584Z" fill="white"/>
<path fill-rule="evenodd" clip-rule="evenodd" d="M300.829 66.8506L269.98 94.436L269.751 94.5588L229.495 105.106L229.215 104.037L269.341 93.5235L300.561 65.6069L301.387 65.7069L310.943 79.675L310.933 80.3124L310.486 79.9869C310.933 80.3124 310.933 80.3125 310.933 80.3128L310.932 80.3138L310.872 80.3959C310.832 80.4507 310.772 80.532 310.694 80.6381C310.538 80.8504 310.307 81.1622 310.011 81.5607C309.418 82.3576 308.561 83.5015 307.501 84.8904C305.383 87.6679 302.457 91.4266 299.226 95.35C295.996 99.2723 292.457 103.365 289.114 106.808C285.784 110.238 282.604 113.07 280.096 114.423C277.608 115.764 273.254 117.202 268.176 118.602C263.082 120.006 257.207 121.384 251.641 122.598C246.074 123.812 240.812 124.862 236.942 125.609C235.006 125.982 233.419 126.279 232.315 126.484C231.763 126.586 231.332 126.664 231.038 126.718C230.892 126.744 230.78 126.765 230.704 126.778L230.591 126.798L230.59 126.799C230.59 126.799 230.589 126.799 230.492 126.255C230.395 125.711 230.395 125.711 230.395 125.711L230.396 125.71L230.508 125.69C230.583 125.677 230.694 125.657 230.84 125.63C231.133 125.577 231.563 125.499 232.113 125.397C233.215 125.193 234.8 124.896 236.732 124.523C240.597 123.778 245.85 122.73 251.405 121.518C256.962 120.306 262.815 118.933 267.882 117.536C272.966 116.135 277.206 114.725 279.57 113.45C281.915 112.186 284.993 109.465 288.32 106.039C291.634 102.626 295.151 98.5587 298.372 94.6478C301.591 90.7381 304.509 86.9908 306.621 84.2206C307.678 82.8356 308.532 81.6952 309.123 80.9013C309.418 80.5044 309.648 80.1941 309.803 79.9832C309.805 79.9807 309.807 79.9782 309.808 79.9757L300.829 66.8506Z" fill="white"/>
<path d="M38.3066 36.1923C58.0348 31.0747 78.1834 42.9042 83.3056 62.6145C88.4278 82.3247 76.5876 102.455 56.8594 107.572" fill="#617FA8"/>
<path d="M38.5669 61.9678C29.2158 63.902 19.8538 65.7949 10.5442 67.9336C9.3245 68.2155 7.67056 68.7128 6.66105 68.9339C6.18811 69.0389 6.38724 69.7629 6.86018 69.6579C10.1514 68.9339 14.1784 68.2265 17.6937 67.4473C23.416 66.1762 29.1246 64.8471 34.8331 63.5152C36.1358 63.2112 37.4385 62.9073 38.7411 62.6033C39.1588 62.5066 38.9817 61.8821 38.5669 61.9678Z" fill="white"/>
<path d="M2.31862 76.9667C8.35075 77.7929 14.5267 77.909 20.5975 78.2682C24.1958 78.481 27.794 78.7325 31.3923 78.9425C33.4196 79.0613 35.4801 78.9369 37.4991 79.0779C37.8365 79.1027 37.8338 78.5777 37.4991 78.5528C35.7373 78.4285 33.6326 78.0195 31.7602 77.8814C28.1342 77.6133 24.5028 77.4005 20.8713 77.2264C14.7369 76.9335 8.51945 76.3754 2.37393 76.5522C2.1499 76.5577 2.07247 76.9336 2.31862 76.9667Z" fill="white"/>
<path d="M36.2686 99.6531C25.8389 98.744 15.4036 97.8515 4.95734 97.1551C3.48042 97.0557 1.98142 97.1192 0.507267 97.0114C0.128357 96.9838 0.131123 97.5724 0.507267 97.6C4.30743 97.8847 8.59985 98.4097 12.5687 98.6943C18.9825 99.153 25.3991 99.6227 31.8185 100.021C33.3009 100.112 34.7862 100.206 36.2686 100.297C36.689 100.327 36.6807 99.689 36.2686 99.6531Z" fill="white"/>
<path d="M10.2286 116.857C13.1271 116.465 15.9925 115.732 18.8523 115.122C23.4739 114.138 28.1093 113.171 32.7032 112.071C33.4638 111.889 34.2299 111.731 34.9849 111.532C35.2366 111.466 35.8507 111.248 35.8507 111.248C36.3872 111.129 36.1604 110.303 35.6239 110.424C35.7483 110.397 35.0596 110.471 34.913 110.496C34.2852 110.604 33.6601 110.767 33.0378 110.897C31.0271 111.32 29.0247 111.778 27.0223 112.237C22.4145 113.29 17.8068 114.34 13.2101 115.434C12.1536 115.685 11.1026 115.942 10.0655 116.271C9.68101 116.393 9.84968 116.91 10.2286 116.857Z" fill="white"/>
<path d="M58.3836 36.3443C57.4018 36.3001 56.3563 36.7201 55.416 36.9716C53.2697 37.5463 51.1318 38.1459 48.9911 38.7455C46.8532 39.3452 44.7124 39.9504 42.5855 40.5942C41.9024 40.8014 41.2248 41.0308 40.5417 41.2491C40.3425 41.3126 40.1324 41.3623 39.9415 41.4425C39.8281 41.4894 39.4132 41.6636 39.7839 41.5586C39.2943 41.6995 39.5045 42.4622 39.9941 42.3212C39.6096 42.4318 40.0604 42.3572 40.1849 42.3351C40.3896 42.2991 40.5942 42.2328 40.7961 42.1803C41.4875 42.0007 42.1845 41.8376 42.8732 41.6497C45.0167 41.0639 47.149 40.4422 49.2815 39.8122C51.4139 39.1822 53.5435 38.5549 55.6676 37.9C56.5969 37.6127 57.7088 37.4137 58.5164 36.8555C58.7404 36.698 58.663 36.3581 58.3836 36.3443Z" fill="white"/>
<path d="M78.8888 52.1361C71.1364 54.0179 63.3646 55.8223 55.6066 57.6736C51.953 58.5468 48.3271 59.5941 44.6791 60.4479C44.2089 60.5585 44.408 61.2825 44.8782 61.1719C48.2607 60.3789 52.3181 59.5886 55.8943 58.7181C63.6439 56.8364 71.3604 54.833 79.0631 52.7716C79.4752 52.6639 79.3009 52.0367 78.8888 52.1361Z" fill="white"/>
<path d="M49.4196 80.1612C53.2225 80.8299 57.1113 81.1034 60.9446 81.5428C64.5484 81.9545 68.1549 82.3579 71.7587 82.7752C74.3696 83.0764 76.9749 83.3721 79.5886 83.618C80.5455 83.7064 81.7459 83.6815 82.606 83.7893C82.9407 83.8307 82.9379 83.3057 82.606 83.2643C81.6823 83.1482 80.4847 82.8222 79.4725 82.6702C76.975 82.2972 74.4719 81.9905 71.9578 81.7086C68.4508 81.3135 64.9439 80.9404 61.4314 80.6061C57.4708 80.2303 53.4577 79.7411 49.475 79.7439C49.2454 79.7467 49.179 80.1169 49.4196 80.1612Z" fill="white"/>
<path d="M67.8733 102.372C65.7685 102.093 63.6665 101.842 61.5562 101.615C60.1263 101.463 58.6992 101.289 57.2665 101.179C56.6553 101.132 55.6734 101.22 55.2392 101.176C54.8603 101.14 54.8631 101.728 55.2392 101.764C55.6513 101.803 56.5723 102.074 57.1614 102.143C58.6217 102.317 60.0904 102.425 61.5562 102.549C63.661 102.731 65.7657 102.886 67.8733 103.016C68.2992 103.046 68.2743 102.425 67.8733 102.372Z" fill="white"/>
<path d="M83.9364 80.9431C83.9364 80.9431 75.0224 66.6129 76.2338 64.698C77.4452 62.7858 86.3952 73.1176 86.3952 73.1176" fill="#742A40"/>
<path fill-rule="evenodd" clip-rule="evenodd" d="M76.6939 65.0145C76.7243 65.0141 76.7809 65.0186 76.8709 65.0434C77.139 65.1174 77.5257 65.3202 78.0172 65.6609C78.9861 66.3325 80.1909 67.4172 81.3811 68.585C82.5658 69.7473 83.715 70.971 84.5693 71.9057C84.9961 72.3727 85.3485 72.7667 85.5941 73.0437C85.7168 73.1822 85.8128 73.2914 85.878 73.3658C85.9105 73.403 85.9354 73.4316 85.9521 73.4507L85.9708 73.4722L85.9766 73.4788L85.9768 73.4791C85.9768 73.4792 85.9769 73.4792 86.3951 73.1175C86.8134 72.7559 86.8133 72.7558 86.8132 72.7557L86.7867 72.7252C86.7694 72.7054 86.7439 72.6761 86.7106 72.6381C86.6441 72.5621 86.5466 72.4512 86.4223 72.3109C86.1736 72.0304 85.8174 71.6322 85.3862 71.1604C84.5245 70.2176 83.3605 68.9779 82.1563 67.7964C80.9575 66.6202 79.6977 65.4805 78.6478 64.7527C78.1298 64.3937 77.6185 64.103 77.1654 63.978C76.9366 63.9149 76.6801 63.8817 76.4273 63.9379C76.1548 63.9985 75.9224 64.1559 75.7663 64.4024L75.7661 64.4027C75.6116 64.6468 75.569 64.9341 75.5674 65.1926C75.5658 65.4592 75.608 65.7556 75.6769 66.0655C75.8148 66.6861 76.0773 67.4368 76.4148 68.2547C77.0914 69.8949 78.1033 71.8862 79.1446 73.8023C80.1877 75.7217 81.268 77.5794 82.0869 78.9563C82.4965 79.6451 82.841 80.2141 83.0833 80.6112C83.2045 80.8098 83.3001 80.9654 83.3655 81.0715C83.3982 81.1245 83.4234 81.1652 83.4404 81.1927L83.4664 81.2346C83.4664 81.2347 83.4665 81.2348 83.9363 80.9431C84.4061 80.6513 84.4061 80.6513 84.4061 80.6512L84.3812 80.6111C84.3645 80.5842 84.3398 80.5442 84.3075 80.4918C84.2429 80.3871 84.1482 80.2329 84.028 80.0359C83.7875 79.6418 83.4451 79.0764 83.038 78.3917C82.2233 77.0219 81.1508 75.1774 80.1168 73.2749C79.0811 71.3691 78.0916 69.4187 77.4376 67.8335C77.1097 67.0386 76.8746 66.3556 76.7569 65.826C76.6979 65.5608 76.6728 65.3529 76.6737 65.1992C76.6743 65.0992 76.6859 65.0423 76.6939 65.0145Z" fill="white"/>
<path d="M279.232 45.6187L271.741 57.2327L339.872 101.098L347.364 89.484L279.232 45.6187Z" fill="#234977"/>
<path d="M303.107 58.2319C303.107 58.2319 294.043 73.007 296.214 74.3306C298.385 75.6542 308.248 62.2028 308.248 62.2028C308.248 62.2028 296.903 75.8117 299.218 78.2075C301.533 80.6032 312.798 64.2641 312.798 64.2641C312.798 64.2641 303.367 78.2821 305.341 80.0451C307.316 81.808 317.002 67.9558 317.002 67.9558" fill="#742A40"/>
<path fill-rule="evenodd" clip-rule="evenodd" d="M302.635 57.9431C302.635 57.943 302.635 57.9429 303.107 58.2317C303.578 58.5204 303.578 58.5205 303.578 58.5205L303.553 58.5618C303.536 58.5894 303.511 58.6305 303.479 58.6844C303.413 58.7921 303.317 58.9506 303.196 59.1529C302.954 59.5577 302.61 60.1378 302.203 60.8381C301.39 62.2396 300.33 64.1194 299.338 66.0382C298.344 67.9621 297.429 69.9046 296.898 71.4373C296.631 72.2084 296.474 72.8408 296.439 73.3001C296.422 73.5298 296.438 73.6832 296.465 73.7765C296.478 73.8205 296.491 73.8429 296.497 73.852C296.5 73.8564 296.502 73.8582 296.502 73.8584C296.505 73.8601 296.648 73.9271 297.105 73.696C297.521 73.4859 298.044 73.1046 298.647 72.5778C299.846 71.5298 301.261 69.997 302.625 68.4036C303.098 67.8512 303.563 67.2937 304.008 66.7495C304.755 65.7333 305.471 64.7992 306.076 64.026C306.592 63.3664 307.028 62.8229 307.336 62.4439C307.49 62.2544 307.611 62.1061 307.694 62.0049C307.736 61.9543 307.768 61.9155 307.79 61.8892L307.815 61.8593L307.823 61.849C307.823 61.8489 307.823 61.8488 308.248 62.2025C308.695 62.5291 308.695 62.5292 308.695 62.5293L308.666 62.5687C308.647 62.5945 308.618 62.6326 308.582 62.6821C308.508 62.7811 308.401 62.9258 308.263 63.1093C307.988 63.4763 307.592 63.9987 307.111 64.6213C306.488 65.4274 305.721 66.4027 304.883 67.4268C304.368 68.128 303.838 68.8678 303.321 69.6195C302.053 71.463 300.873 73.3572 300.156 74.9256C299.795 75.7127 299.566 76.386 299.489 76.9122C299.409 77.4558 299.507 77.7104 299.616 77.8233C299.666 77.8749 299.8 77.9722 300.256 77.7847C300.701 77.6018 301.277 77.2073 301.955 76.6214C303.299 75.4587 304.9 73.6711 306.448 71.7836C307.992 69.9018 309.466 67.9433 310.555 66.4535C311.099 65.709 311.547 65.0825 311.858 64.6424C312.013 64.4224 312.135 64.249 312.217 64.1308C312.258 64.0717 312.29 64.0264 312.311 63.9959L312.335 63.9616L312.342 63.9505C312.343 63.9504 312.343 63.9504 312.798 64.2639C313.257 64.5722 313.257 64.5722 313.257 64.5723L313.231 64.6113C313.213 64.6375 313.187 64.6765 313.153 64.7276C313.085 64.8299 312.986 64.9804 312.859 65.1728C312.606 65.5577 312.247 66.1098 311.822 66.7781C310.972 68.1153 309.86 69.9141 308.811 71.7655C307.759 73.6216 306.781 75.5112 306.189 77.0351C305.892 77.8006 305.704 78.4435 305.644 78.9289C305.578 79.4568 305.684 79.6095 305.71 79.6327C305.71 79.6328 305.71 79.633 305.711 79.6332C305.713 79.6362 305.725 79.6486 305.784 79.6471C305.86 79.6451 305.988 79.6176 306.177 79.53C306.557 79.3543 307.049 79.0006 307.63 78.4861C308.782 77.4653 310.155 75.9266 311.485 74.3103C312.811 72.6991 314.077 71.0311 315.013 69.7643C315.48 69.1313 315.865 68.5993 316.132 68.2258C316.266 68.0391 316.37 67.8921 316.441 67.7919C316.476 67.7418 316.503 67.7034 316.522 67.6776L316.542 67.6486L316.548 67.6396L316.549 67.6392C316.549 67.6391 316.549 67.6391 317.002 67.9556C317.456 68.2721 317.455 68.2722 317.455 68.2723L317.455 68.2728L317.427 68.3129C317.408 68.3394 317.381 68.3786 317.345 68.4296C317.273 68.5314 317.167 68.6802 317.032 68.8689C316.762 69.2461 316.374 69.7825 315.903 70.4206C314.961 71.696 313.682 73.3808 312.34 75.0123C311.001 76.6386 309.583 78.2324 308.364 79.313C307.759 79.8493 307.17 80.2886 306.642 80.5329C306.144 80.7633 305.483 80.9122 304.973 80.4569C304.505 80.0393 304.474 79.3683 304.546 78.7922C304.623 78.1736 304.849 77.4321 305.158 76.6354C305.581 75.5466 306.183 74.2981 306.859 73.0227C305.436 74.7272 303.963 76.3465 302.679 77.4571C301.975 78.066 301.29 78.555 300.677 78.807C300.074 79.0546 299.349 79.1384 298.82 78.591C298.351 78.105 298.297 77.4103 298.394 76.7511C298.494 76.0745 298.772 75.2915 299.149 74.4659C299.381 73.9601 299.656 73.4264 299.962 72.876C299.763 73.0639 299.567 73.2423 299.375 73.4097C298.748 73.9579 298.143 74.4103 297.605 74.6825C297.107 74.9337 296.466 75.1313 295.926 74.8021C295.36 74.4569 295.294 73.767 295.336 73.217C295.381 72.615 295.576 71.876 295.853 71.0758C296.411 69.4659 297.355 67.4664 298.355 65.5311C299.358 63.5907 300.428 61.694 301.246 60.2838C301.655 59.5783 302.002 58.9937 302.247 58.5853C302.369 58.381 302.466 58.2208 302.533 58.1114C302.566 58.0568 302.591 58.0148 302.609 57.9864L302.635 57.9431ZM312.798 64.2639L313.257 64.5723L312.342 63.9505L312.798 64.2639ZM308.248 62.2025L308.695 62.5293L307.823 61.8488L308.248 62.2025Z" fill="white"/>
<path d="M75.4264 101.767C75.5508 101.767 75.5508 101.573 75.4264 101.573C75.3019 101.573 75.3019 101.767 75.4264 101.767Z" fill="white"/>
<path fill-rule="evenodd" clip-rule="evenodd" d="M300.477 197.913L311.122 207.602L306.766 239.385L334.667 223.507L363.574 237.47L357.08 206.052L379.303 182.899L347.392 179.359L332.216 151.088L321.047 175.768C320.505 178.438 319.593 182.091 318.222 186.941C324.03 177.04 332.825 163.896 321.54 190.533C320.48 192.33 318.996 196.557 321.54 199.1C327.072 202.784 333.24 208.55 313.658 202.139C311.311 201.371 308.756 200.557 306.029 199.688C304.248 199.121 302.394 198.53 300.477 197.913ZM313.489 181.306L312.91 181.41C312.714 182.151 312.503 182.935 312.275 183.763C312.665 182.958 313.072 182.133 313.489 181.306ZM307.148 182.446C307.114 182.512 307.08 182.577 307.047 182.642C306.85 183.023 306.656 183.397 306.467 183.763L304.52 182.919L307.148 182.446Z" fill="#FFA574"/>
<path d="M325.05 166.889C326.259 167.626 327.899 167.825 329.259 168.184C330.841 168.604 332.429 169.008 334.017 169.409C337.017 170.163 340.065 171.147 343.157 171.395C343.442 171.418 343.437 171.033 343.218 170.942C340.303 169.718 337.067 169.185 333.994 168.461C332.487 168.104 330.98 167.756 329.47 167.419C328.076 167.107 326.552 166.529 325.119 166.629C324.984 166.637 324.926 166.814 325.05 166.889Z" fill="#001A39"/>
<path d="M310.414 210.246C312.156 211.169 314.394 211.426 316.299 211.907C318.354 212.427 320.409 212.938 322.464 213.457C326.66 214.524 330.867 215.552 335.071 216.591C343.451 218.658 351.856 221.111 360.377 222.523C360.665 222.57 360.787 222.173 360.499 222.079C352.29 219.412 343.7 217.727 335.314 215.707C331.193 214.715 327.072 213.717 322.946 212.747C320.791 212.241 318.639 211.73 316.487 211.225C314.579 210.777 312.455 209.967 310.486 209.984C310.35 209.987 310.289 210.18 310.414 210.246Z" fill="#001A39"/>
<path d="M335.856 158.228C333.541 166.645 331.472 175.137 329.359 183.614C326.024 197.01 322.605 210.393 319.433 223.828C318.725 226.826 317.937 230.338 317.254 233.104C317.135 233.582 317.876 233.787 317.995 233.309C320.011 225.127 322.315 216.292 324.375 207.892C327.664 194.482 330.955 181.072 334.202 167.651C334.952 164.559 335.635 161.459 336.31 158.355C336.376 158.057 335.936 157.933 335.856 158.228Z" fill="#001A39"/>
<path d="M353.068 179.928C350.777 187.638 349.09 195.554 347.143 203.36C346.17 207.268 345.182 211.169 344.192 215.071C343.21 218.956 342.027 222.852 341.316 226.796C341.23 227.279 341.894 227.473 342.057 227C343.346 223.212 344.181 219.219 345.163 215.339C346.15 211.437 347.116 207.527 348.078 203.617C349.998 195.806 352.116 187.975 353.524 180.052C353.574 179.759 353.153 179.632 353.068 179.928Z" fill="#001A39"/>
<path fill-rule="evenodd" clip-rule="evenodd" d="M230.324 136.377L231.047 135.541L265.694 165.467L306.213 183.051C306.326 182.833 306.44 182.612 306.555 182.389C307.638 180.291 308.821 178 309.935 175.964C311.239 173.578 312.483 171.477 313.377 170.457C313.6 170.202 313.835 169.975 314.073 169.835C314.3 169.701 314.701 169.555 315.075 169.824C315.379 170.042 315.472 170.417 315.509 170.702C315.552 171.024 315.548 171.436 315.506 171.931C315.391 173.295 314.965 175.514 314.148 178.813C314.841 177.49 315.543 176.203 316.222 175.024C316.961 173.739 317.678 172.576 318.33 171.636C318.973 170.708 319.581 169.955 320.109 169.526C320.364 169.318 320.675 169.123 321.016 169.092C321.201 169.075 321.395 169.106 321.574 169.209C321.749 169.309 321.874 169.455 321.962 169.609C322.129 169.901 322.201 170.289 322.225 170.715C322.251 171.156 322.229 171.705 322.161 172.365C321.942 174.5 321.218 177.977 319.828 183.188C320.67 181.817 321.518 180.477 322.316 179.274C323.052 178.165 323.749 177.166 324.36 176.367C324.961 175.581 325.51 174.947 325.948 174.601C326.061 174.512 326.182 174.43 326.307 174.369C326.427 174.311 326.588 174.253 326.772 174.26C326.979 174.267 327.174 174.355 327.317 174.52C327.444 174.666 327.499 174.838 327.525 174.979C327.576 175.255 327.551 175.605 327.487 175.992C327.42 176.394 327.302 176.893 327.131 177.493C326.45 179.888 324.871 184.089 322.05 190.749L322.036 190.783L322.017 190.814C321.517 191.661 320.913 193.093 320.738 194.6C320.566 196.087 320.817 197.567 321.895 198.671C323.274 199.592 324.702 200.648 325.769 201.622C326.307 202.113 326.772 202.6 327.092 203.051C327.252 203.277 327.388 203.51 327.475 203.743C327.561 203.974 327.613 204.24 327.56 204.511C327.44 205.128 326.887 205.407 326.314 205.51C325.727 205.616 324.911 205.588 323.849 205.434C321.711 205.123 318.388 204.269 313.486 202.664C311.145 201.898 308.594 201.085 305.871 200.218C294.377 196.556 279.808 191.915 264.972 185.637C246.622 177.871 227.808 167.578 213.836 153.48L214.622 152.703C228.446 166.652 247.108 176.876 265.404 184.619C280.188 190.875 294.696 195.497 306.188 199.159C308.918 200.028 311.478 200.844 313.83 201.614C318.719 203.214 321.968 204.044 324.008 204.34C325.035 204.489 325.71 204.496 326.118 204.422C326.32 204.386 326.419 204.336 326.459 204.307C326.467 204.302 326.472 204.297 326.474 204.295C326.476 204.279 326.475 204.229 326.438 204.13C326.396 204.016 326.316 203.869 326.189 203.69C325.935 203.332 325.536 202.906 325.023 202.438C324.002 201.506 322.605 200.473 321.234 199.559L321.188 199.529L321.15 199.49C319.714 198.056 319.443 196.167 319.639 194.473C319.833 192.801 320.489 191.238 321.045 190.285C323.857 183.645 325.407 179.51 326.067 177.191C326.232 176.612 326.338 176.157 326.395 175.812C326.404 175.757 326.412 175.706 326.418 175.658C326.115 175.949 325.716 176.414 325.239 177.038C324.649 177.81 323.968 178.786 323.239 179.885C321.781 182.082 320.148 184.75 318.699 187.221L317.689 186.791C319.792 179.357 320.801 174.776 321.061 172.252C321.126 171.623 321.142 171.139 321.121 170.779C321.104 170.497 321.067 170.325 321.032 170.228C320.975 170.258 320.9 170.308 320.808 170.383C320.41 170.706 319.875 171.348 319.239 172.265C318.611 173.171 317.912 174.304 317.18 175.575C315.718 178.116 314.141 181.179 312.773 184.004L311.742 183.617C313.458 177.367 314.247 173.696 314.404 171.838C314.437 171.451 314.44 171.163 314.424 170.958C314.362 171.018 314.29 171.093 314.209 171.185C313.41 172.096 312.224 174.083 310.906 176.494C309.799 178.517 308.623 180.794 307.54 182.893C307.343 183.275 307.149 183.65 306.959 184.017L306.721 184.476L265.098 166.414L230.324 136.377ZM326.807 175.356C326.807 175.356 326.806 175.357 326.804 175.357C326.806 175.356 326.807 175.356 326.807 175.356Z" fill="white"/>
<path d="M4.0147 195.465C2.34973 189.251 6.03724 182.864 12.251 181.199L64.7557 167.131C70.9694 165.466 77.3564 169.153 79.0214 175.367L93.0899 227.872C94.7549 234.085 91.0674 240.472 84.8536 242.137L32.349 256.206C26.1352 257.871 19.7482 254.183 18.0833 247.97L4.0147 195.465Z" fill="#F96155"/>
<path d="M56.0021 221.405L54.5988 216.168C53.1903 212.657 50.3561 211.136 46.0965 211.605C41.0234 213.403 38.8283 216.885 39.5039 222.025C41.3447 228.022 45.0966 230.35 50.7742 229.062C54.6903 227.311 56.4354 224.768 56.0021 221.405ZM55.635 183.702L68.6449 232.255L59.5888 234.682L58.8945 232.091C56.9273 234.46 54.788 235.968 52.4694 236.59C47.505 237.92 43.1458 237.363 39.3574 234.899C35.569 232.435 33.1146 229.058 31.9525 224.721C30.7904 220.384 31.2275 216.232 33.2764 212.204C35.3253 208.176 38.822 205.514 43.7864 204.184C47.0909 203.533 49.6979 203.77 51.6075 204.895L46.5643 186.074L55.635 183.702Z" fill="white"/>
<path d="M87.1481 189.653C87.1481 189.653 70.3599 187.719 69.6049 185.488C68.8498 183.256 82.5099 182.577 82.5099 182.577" fill="#742A40"/>
<path fill-rule="evenodd" clip-rule="evenodd" d="M70.1384 185.315C70.1568 185.289 70.1953 185.246 70.2708 185.188C70.4949 185.015 70.8935 184.828 71.4653 184.644C72.5927 184.282 74.1908 183.993 75.8451 183.769C77.4918 183.547 79.1649 183.393 80.4283 183.295C81.0594 183.246 81.5872 183.211 81.9569 183.188C82.1418 183.177 82.287 183.168 82.3858 183.163C82.4353 183.16 82.4731 183.158 82.4984 183.157L82.5361 183.155C82.5361 183.155 82.5361 183.155 82.5099 182.577C82.4836 182 82.4835 182 82.4833 182L82.473 182.001L82.443 182.002C82.4167 182.003 82.3779 182.006 82.3274 182.008C82.2265 182.014 82.079 182.022 81.8918 182.034C81.5174 182.057 80.9839 182.092 80.3463 182.142C79.072 182.241 77.3772 182.396 75.7033 182.623C74.037 182.848 72.3616 183.147 71.1401 183.539C70.5375 183.733 69.9928 183.965 69.6143 184.257C69.4232 184.404 69.2387 184.593 69.1266 184.837C69.0059 185.1 68.986 185.393 69.0833 185.681C69.1798 185.966 69.3795 186.186 69.5819 186.355C69.7906 186.528 70.0497 186.685 70.3361 186.829C70.9095 187.116 71.6623 187.385 72.5144 187.636C74.2231 188.14 76.4154 188.595 78.5669 188.977C80.722 189.36 82.8517 189.672 84.4416 189.889C85.2368 189.998 85.8976 190.082 86.3599 190.14C86.591 190.168 86.7726 190.19 86.8965 190.205C86.9585 190.212 87.006 190.218 87.0382 190.222L87.0872 190.228C87.0874 190.228 87.0875 190.228 87.1481 189.653C87.2087 189.078 87.2086 189.078 87.2085 189.078L87.1615 189.073C87.1301 189.069 87.0833 189.064 87.0221 189.056C86.8998 189.042 86.7199 189.02 86.4905 188.991C86.0318 188.934 85.3751 188.85 84.5846 188.743C83.0031 188.527 80.8885 188.217 78.7523 187.837C76.6124 187.457 74.466 187.01 72.8146 186.524C71.9866 186.28 71.304 186.032 70.8147 185.786C70.5698 185.664 70.3908 185.55 70.2707 185.45C70.1926 185.385 70.1551 185.339 70.1384 185.315Z" fill="white"/>
</svg>
