<svg width="388" height="304" viewBox="0 0 388 304" fill="none" xmlns="http://www.w3.org/2000/svg">
<path d="M359.511 26.86C340.32 23.0136 321.637 35.4426 317.79 54.6223C313.943 73.7993 326.386 92.4595 345.58 96.3032C355.512 98.2927 365.306 95.9246 372.978 90.5169C375.5 88.7429 377.793 86.6401 379.784 84.2554C383.446 79.8701 386.099 74.537 387.302 68.5435C391.149 49.3666 378.706 30.7037 359.511 26.86ZM370.157 65.1088C369.548 68.1456 368.204 70.8481 366.348 73.0698C365.339 74.2801 364.177 75.3467 362.899 76.2447C359.011 78.9859 354.049 80.1852 349.015 79.1766C339.288 77.2285 332.985 67.7726 334.935 58.0543C336.885 48.3359 346.349 42.0385 356.076 43.9866C365.803 45.9347 372.107 55.3905 370.157 65.1088Z" fill="#D5E2F3"/>
<path d="M363.333 27.6117C361.215 32.696 362.537 37.9075 366.558 41.6269C368.79 43.691 371.711 44.7963 374.576 45.6668C378.053 46.7223 381.723 48.0265 385.335 48.4742C385.675 48.5156 385.819 47.9602 385.512 47.822C379.953 45.3296 373.221 45.3158 368.165 41.6683C366.334 40.3475 364.735 38.4574 363.778 36.4099C362.473 33.6135 362.645 30.5656 363.624 27.6946C363.687 27.5039 363.405 27.4376 363.333 27.6117Z" fill="#001A39"/>
<path d="M334.62 92.2441C342.464 89.199 352.468 90.8211 358.865 96.2702C359.125 96.4912 359.573 96.2066 359.365 95.8833C357.067 92.2884 351.953 91.0034 348.04 90.2767C343.365 89.4091 338.769 89.8208 334.424 91.7771C334.164 91.8987 334.349 92.3491 334.62 92.2441Z" fill="#001A39"/>
<path d="M329.514 34.8209C330.299 41.7981 330.639 48.8775 328.894 55.747C328.037 59.1236 326.767 62.3953 325.039 65.4239C323.365 68.3557 321.18 70.7735 319.139 73.4262C318.932 73.6942 319.335 74.0783 319.604 73.8904C322.251 72.0335 324.289 68.9469 325.89 66.1947C327.688 63.1082 329.018 59.7343 329.892 56.2747C331.676 49.2063 331.441 41.8534 329.97 34.7601C329.92 34.5059 329.483 34.5556 329.514 34.8209Z" fill="#001A39"/>
<path d="M253.404 264.535L246.595 278.885L271.667 304L229.215 287.528L242.048 259.937" fill="#FFA574"/>
<path fill-rule="evenodd" clip-rule="evenodd" d="M254.062 282.025L244.841 284.393L244.635 283.59L253.856 281.222L254.062 282.025Z" fill="white"/>
<path fill-rule="evenodd" clip-rule="evenodd" d="M257.446 285.12L248.222 287.485L248.016 286.682L257.239 284.317L257.446 285.12Z" fill="white"/>
<path fill-rule="evenodd" clip-rule="evenodd" d="M260.825 288.214L251.601 290.579L251.395 289.776L260.618 287.411L260.825 288.214Z" fill="white"/>
<path d="M160.592 250.653L167.753 264.87L143.301 290.452L185.34 273.184L171.835 245.842" fill="#FFA574"/>
<path fill-rule="evenodd" clip-rule="evenodd" d="M160.552 267.345L169.831 269.537L169.64 270.343L160.361 268.152L160.552 267.345Z" fill="white"/>
<path fill-rule="evenodd" clip-rule="evenodd" d="M157.247 270.504L166.527 272.695L166.336 273.502L157.057 271.311L157.247 270.504Z" fill="white"/>
<path fill-rule="evenodd" clip-rule="evenodd" d="M153.945 273.659L163.221 275.851L163.03 276.657L153.754 274.466L153.945 273.659Z" fill="white"/>
<path d="M157.677 258.229L130.882 211.539C124.869 201.061 126.089 187.648 133.877 178.648L161.2 147.07C171.683 134.956 186.632 128.315 202.145 128.885C218.197 129.473 233.177 137.713 242.918 151.319L270.409 189.709C275.888 197.358 277.523 207.347 274.793 216.48L256.982 276.05L225.994 261.786L240.218 210.939L199.147 167.274L165.238 199.287L187.179 243.664L157.677 258.229Z" fill="#032349"/>
<path d="M209.176 177.996C213.975 175.186 220.483 172.994 225.818 175.578C230.177 177.689 232.956 181.992 235.686 185.799C241.317 193.653 248.456 201.119 258.592 202.196C264.043 202.777 270.504 201.553 274.761 197.894C275.162 197.549 274.65 196.957 274.216 197.187C271.721 198.502 269.359 199.812 266.591 200.497C263.853 201.174 260.99 201.323 258.191 200.975C252.776 200.298 248.002 197.645 244.03 193.99C240.366 190.616 237.542 186.579 234.583 182.608C232.102 179.278 229.247 175.868 225.234 174.387C219.788 172.378 213.643 174.763 208.955 177.626C208.72 177.767 208.936 178.137 209.176 177.996Z" fill="#E4EDFA"/>
<path d="M247.617 158.159C244.694 163.87 242.658 171.37 246.832 177.054C248.71 179.612 251.567 181.116 254.49 182.188C258.174 183.539 262.248 184.686 266.195 184.561C266.549 184.55 266.632 184.034 266.281 183.937C260.262 182.29 252.554 181.898 248.168 176.833C243.654 171.621 245.568 164.08 248.32 158.565C248.549 158.103 247.855 157.692 247.617 158.159Z" fill="#E4EDFA"/>
<path d="M232.055 239.683C235.346 242.451 236.378 246.966 236.27 251.097C236.145 255.955 233.958 260.166 231.914 264.463C231.748 264.811 232.215 265.265 232.494 264.911C237.882 258.08 240.266 245.286 232.362 239.287C232.135 239.113 231.836 239.5 232.055 239.683Z" fill="#E4EDFA"/>
<path d="M145.217 236.842C151.133 236.198 157.063 236.674 162.634 238.859C168.11 241.009 172.883 244.701 176.833 249.017C177.129 249.34 177.566 248.873 177.306 248.544C169.722 238.95 157.229 234.043 145.132 236.198C144.772 236.264 144.85 236.883 145.217 236.842Z" fill="#E4EDFA"/>
<path d="M170.626 210.425C167.102 213.741 164.27 218.82 166.416 223.683C167.412 225.938 169.414 227.419 171.624 228.381C174.29 229.541 177.457 230.415 180.389 230.224C180.795 230.199 180.928 229.583 180.488 229.48C176.171 228.469 170.111 228.005 167.639 223.686C165.058 219.176 167.794 214.111 171.088 210.889C171.392 210.591 170.933 210.135 170.626 210.425Z" fill="#E4EDFA"/>
<path d="M179.374 133.563C183.188 135.475 187.212 137.011 191.267 138.332C195.186 139.609 199.288 140.626 203.439 140.479C208.592 140.297 216.535 138.28 217.329 132.073C217.384 131.642 216.737 131.524 216.543 131.861C215.838 133.099 215.321 134.334 214.292 135.367C213.343 136.321 212.198 137.05 210.976 137.6C208.116 138.885 204.775 139.368 201.664 139.266C194.022 139.02 186.64 135.688 179.562 133.118C179.302 133.024 179.128 133.439 179.374 133.563Z" fill="#E4EDFA"/>
<path d="M149.956 160.131C153.463 161.917 157.321 163.058 161.168 163.837C164.75 164.564 168.564 165.166 172.226 164.857C175.304 164.597 178.33 163.494 180.227 160.941C182.207 158.274 181.574 155.721 180.816 152.756C180.327 150.847 180.316 148.913 182.467 148.073C184.351 147.338 186.696 147.473 188.646 147.827C192.662 148.559 196.274 150.554 199.842 152.433C203.094 154.146 206.441 155.837 210.097 156.478C213.427 157.064 216.851 156.84 220.123 156.025C223.979 155.064 227.635 153.315 230.943 151.134C233.734 149.297 236.087 147.105 236.961 143.779C237.124 143.16 236.214 142.919 236.01 143.516C234.934 146.688 232.511 148.675 229.767 150.419C226.753 152.334 223.484 153.864 220.018 154.76C216.425 155.688 212.65 155.904 209.024 155.019C205.429 154.144 202.168 152.331 198.915 150.626C195.76 148.971 192.49 147.36 188.953 146.71C186.395 146.241 182.678 145.923 180.556 147.805C178.324 149.783 179.619 152.723 180.18 155.133C181.021 158.755 178.725 161.836 175.332 163.025C171.341 164.423 166.52 163.704 162.451 163.025C158.223 162.317 154.196 161.049 150.136 159.709C149.887 159.631 149.723 160.013 149.956 160.131Z" fill="#E4EDFA"/>
<path d="M237.646 220.724C242.685 217.972 247.617 214.963 253.417 214.125C256.271 213.714 259.28 214.012 261.684 215.725C264.247 217.552 265.127 220.464 264.341 223.473C263.578 226.4 261.789 229.036 260.309 231.639C258.785 234.319 257.258 236.997 255.732 239.674C253.237 244.054 250.596 248.984 251.185 254.201C251.752 259.21 255.618 263.728 259.994 266.005C260.389 266.213 260.685 265.674 260.337 265.419C255.792 262.084 251.746 257.611 252.205 251.592C252.67 245.496 256.697 239.898 259.626 234.731C261.147 232.048 262.82 229.401 264.134 226.607C265.207 224.324 266.009 221.733 265.304 219.221C264.018 214.625 258.885 212.774 254.545 213.108C251.423 213.349 248.364 214.374 245.495 215.584C242.608 216.803 239.729 218.29 237.383 220.392C237.201 220.555 237.439 220.837 237.646 220.724Z" fill="#E4EDFA"/>
<path d="M136.171 222.321C140.024 223.982 146.009 225.032 148.872 221.041C150.642 218.577 150.141 215.438 149.09 212.79C147.801 209.541 145.863 206.584 144.482 203.371C141.772 197.062 140.411 188.969 145.027 183.152C148.457 178.83 154.359 177.294 159.666 177.661C166.924 178.164 173.119 182.431 178.488 186.996C178.833 187.288 179.295 186.838 178.988 186.495C171.667 178.36 158.69 172.792 148.36 178.767C143.279 181.704 140.754 187.181 140.826 192.942C140.868 196.371 141.755 199.723 143.039 202.887C144.333 206.081 146.134 209.005 147.566 212.127C149.168 215.612 149.956 220.544 145.569 222.296C142.69 223.445 139.239 222.722 136.456 221.641C136.069 221.495 135.787 222.155 136.171 222.321Z" fill="#E4EDFA"/>
<path d="M220.924 77.5657C224.146 94.2916 213.186 110.459 196.445 113.679C179.703 116.898 163.521 105.947 160.299 89.221" fill="white"/>
<path d="M34.3574 92.9598C14.0235 91.5506 -1.31814 73.9404 0.089634 53.625C1.50017 33.3096 19.1263 17.9819 39.4602 19.3884" fill="#617FA8"/>
<path d="M171.665 58.5241C171.728 66.4822 178.236 72.8791 186.201 72.8128C193.243 72.7548 199.062 67.6676 200.274 60.9916C200.431 60.1157 200.511 59.2149 200.503 58.2919C200.44 50.3365 193.932 43.9369 185.966 44.0032C181.823 44.0364 178.103 45.8104 175.495 48.6289C173.092 51.2263 171.634 54.7108 171.665 58.5241Z" fill="#FFA574"/>
<path d="M175.494 48.6261C179.424 56.225 187.392 61.3895 196.539 61.3177C197.808 61.3066 199.056 61.1961 200.27 60.9916C200.428 60.1157 200.508 59.2149 200.499 58.2919C200.436 50.3365 193.928 43.9369 185.963 44.0032C181.822 44.0336 178.102 45.8104 175.494 48.6261Z" fill="#234977"/>
<path d="M192.005 44.86C195.04 44.86 197.501 42.4019 197.501 39.3695C197.501 36.3372 195.04 33.8789 192.005 33.8789C188.97 33.8789 186.51 36.3372 186.51 39.3695C186.51 42.4019 188.97 44.86 192.005 44.86Z" fill="#617FA8"/>
<path d="M184.771 35.1856C193.409 35.1856 200.412 28.1896 200.412 19.5595C200.412 10.9294 193.409 3.93335 184.771 3.93335C176.133 3.93335 169.131 10.9294 169.131 19.5595C169.131 28.1896 176.133 35.1856 184.771 35.1856Z" fill="#234977"/>
<path d="M179.695 63.3238C179.752 62.0829 179.156 61.0471 178.362 61.0103C177.569 60.9735 176.879 61.9495 176.821 63.1904C176.764 64.4313 177.36 65.4671 178.153 65.5039C178.947 65.5407 179.637 64.5646 179.695 63.3238Z" fill="#001A39"/>
<path d="M184.458 63.7024C184.516 62.4615 183.919 61.4258 183.126 61.389C182.333 61.3521 181.643 62.3282 181.585 63.5691C181.527 64.8099 182.124 65.8458 182.917 65.8826C183.71 65.9194 184.4 64.9433 184.458 63.7024Z" fill="#001A39"/>
<path fill-rule="evenodd" clip-rule="evenodd" d="M177.838 68.992C177.838 68.9921 177.838 68.9921 177.732 68.4496C177.627 67.907 177.627 67.907 177.627 67.9071L177.626 67.9072L177.626 67.9073L177.625 67.9074C177.625 67.9074 177.625 67.9073 177.626 67.9071C177.628 67.9068 177.632 67.9059 177.638 67.9046C177.65 67.9019 177.67 67.8972 177.696 67.8904C177.749 67.8766 177.829 67.8541 177.925 67.8207C178.12 67.7532 178.374 67.6447 178.623 67.4812C179.113 67.16 179.555 66.6523 179.541 65.8003L180.647 65.7822C180.669 67.1243 179.931 67.9457 179.23 68.4051C178.885 68.632 178.542 68.7767 178.288 68.8648C178.16 68.9092 178.052 68.9401 177.974 68.9603C177.935 68.9704 177.904 68.9778 177.88 68.983C177.869 68.9856 177.859 68.9877 177.852 68.9892L177.843 68.991L177.84 68.9917L177.839 68.9919L177.838 68.992Z" fill="#001A39"/>
<path fill-rule="evenodd" clip-rule="evenodd" d="M79.941 28.7568L80.9203 28.468L112.351 67.1216L149.497 84.5261L149.027 85.5268L111.766 68.0686L111.572 67.9167L80.8977 30.1932L78.546 51.8363C78.566 51.8797 78.5907 51.9332 78.62 51.9963C78.7105 52.1918 78.8446 52.4797 79.0184 52.8487C79.3659 53.5869 79.8722 54.6497 80.5064 55.9468C81.7751 58.5412 83.5548 62.0709 85.5995 65.8134C87.6448 69.5571 89.9516 73.5067 92.2741 76.9437C94.6042 80.3918 96.9222 83.2813 98.9842 84.9415C101.06 86.6118 104.932 88.7453 109.626 91.0182C114.304 93.2836 119.749 95.6651 124.934 97.8349C130.118 100.004 135.037 101.96 138.66 103.373C140.472 104.08 141.959 104.65 142.993 105.045C143.51 105.242 143.914 105.395 144.188 105.498C144.326 105.55 144.43 105.59 144.501 105.616L144.606 105.655L144.607 105.656C144.607 105.656 144.607 105.656 144.413 106.174C144.219 106.691 144.219 106.691 144.219 106.691L144.217 106.69L144.111 106.651C144.04 106.624 143.935 106.584 143.797 106.532C143.522 106.428 143.117 106.275 142.599 106.077C141.562 105.682 140.072 105.11 138.258 104.403C134.629 102.987 129.702 101.028 124.507 98.8543C119.313 96.6809 113.847 94.2907 109.143 92.0128C104.455 89.7424 100.475 87.5611 98.2901 85.8022C96.0929 84.0332 93.699 81.0276 91.3572 77.5621C89.0078 74.0855 86.6826 70.1028 84.6284 66.3429C82.5735 62.5818 80.786 59.0365 79.5124 56.4319C78.8755 55.1294 78.3669 54.0617 78.0173 53.3192C77.8425 52.948 77.7075 52.658 77.616 52.4606C77.5703 52.362 77.5355 52.2864 77.5121 52.2355L77.4855 52.1776L77.4765 52.158C77.4764 52.1578 77.4763 52.1576 77.9796 51.9283L77.4763 52.1576L77.4297 51.8686L79.941 28.7568Z" fill="white"/>
<path fill-rule="evenodd" clip-rule="evenodd" d="M125.472 134.584L156.251 107.48L156.982 108.31L126.108 135.497L125.891 135.615L78.4057 148.867L83.9276 159.957C83.9697 159.956 84.0155 159.955 84.065 159.953C84.3851 159.944 84.8562 159.931 85.4593 159.912C86.6657 159.874 88.4002 159.815 90.5121 159.728C94.7363 159.553 100.468 159.267 106.502 158.823C112.537 158.379 118.865 157.776 124.285 156.97C129.733 156.159 134.178 155.153 136.507 153.933C138.867 152.698 142.369 149.999 146.326 146.604C150.27 143.22 154.626 139.18 158.684 135.293C162.742 131.407 166.497 127.679 169.238 124.922C170.609 123.544 171.725 122.409 172.499 121.618C172.886 121.223 173.188 120.914 173.392 120.703C173.494 120.598 173.572 120.518 173.625 120.464L173.703 120.383L173.704 120.383C173.704 120.382 173.704 120.382 174.102 120.766C174.499 121.15 174.499 121.15 174.499 121.151L174.419 121.233C174.367 121.287 174.288 121.368 174.186 121.474C173.98 121.685 173.678 121.995 173.29 122.391C172.514 123.183 171.396 124.321 170.023 125.701C167.278 128.462 163.516 132.197 159.45 136.091C155.385 139.984 151.012 144.04 147.047 147.443C143.094 150.834 139.506 153.611 137.021 154.912C134.504 156.23 129.879 157.255 124.448 158.063C118.99 158.875 112.63 159.48 106.583 159.925C100.534 160.37 94.7897 160.657 90.5579 160.832C88.4418 160.919 86.7035 160.979 85.494 161.017C84.8892 161.036 84.4166 161.049 84.095 161.058C83.9342 161.062 83.8112 161.066 83.7283 161.068L83.6028 161.071C83.6025 161.071 83.6023 161.071 83.5893 160.518L83.6023 161.071L83.094 160.764L77.1172 148.761L77.4636 147.983L125.472 134.584Z" fill="white"/>
<path fill-rule="evenodd" clip-rule="evenodd" d="M300.829 31.8506L269.98 59.436L269.751 59.5588L229.495 70.1061L229.215 69.037L269.341 58.5235L300.561 30.6069L301.387 30.7069L310.943 44.675L310.933 45.3124L310.486 44.9869C310.933 45.3124 310.933 45.3125 310.933 45.3128L310.932 45.3138L310.872 45.3959C310.832 45.4507 310.772 45.532 310.694 45.6381C310.538 45.8504 310.307 46.1622 310.011 46.5607C309.418 47.3576 308.561 48.5015 307.501 49.8904C305.383 52.6679 302.457 56.4266 299.226 60.35C295.996 64.2723 292.457 68.3652 289.114 71.8085C285.784 75.238 282.604 78.07 280.096 79.4225C277.608 80.7643 273.254 82.2022 268.176 83.6016C263.082 85.0056 257.207 86.3843 251.641 87.598C246.074 88.812 240.812 89.862 236.942 90.6086C235.006 90.9819 233.419 91.2793 232.315 91.4835C231.763 91.5856 231.332 91.6644 231.038 91.7176C230.892 91.7443 230.78 91.7645 230.704 91.7781L230.591 91.7984L230.59 91.7987C230.59 91.7987 230.589 91.7988 230.492 91.2547C230.395 90.7107 230.395 90.7107 230.395 90.7107L230.396 90.7104L230.508 90.6904C230.583 90.6769 230.694 90.6567 230.84 90.6302C231.133 90.5771 231.563 90.4985 232.113 90.3967C233.215 90.1929 234.8 89.896 236.732 89.5233C240.597 88.7779 245.85 87.7296 251.405 86.5181C256.962 85.3064 262.815 83.9325 267.882 82.5361C272.966 81.1351 277.206 79.7249 279.57 78.4498C281.915 77.1855 284.993 74.4655 288.32 71.0389C291.634 67.626 295.151 63.5587 298.372 59.6478C301.591 55.7381 304.509 51.9908 306.621 49.2206C307.678 47.8356 308.532 46.6952 309.123 45.9013C309.418 45.5044 309.648 45.1941 309.803 44.9832C309.805 44.9807 309.807 44.9782 309.808 44.9757L300.829 31.8506Z" fill="white"/>
<path d="M38.3066 1.19228C58.0348 -3.92525 78.1834 7.90424 83.3056 27.6145C88.4278 47.3247 76.5876 67.455 56.8594 72.5725" fill="#617FA8"/>
<path d="M38.5669 26.9678C29.2158 28.902 19.8538 30.7949 10.5442 32.9336C9.3245 33.2155 7.67056 33.7128 6.66105 33.9339C6.18811 34.0389 6.38724 34.7629 6.86018 34.6579C10.1514 33.9339 14.1784 33.2265 17.6937 32.4473C23.416 31.1762 29.1246 29.8471 34.8331 28.5152C36.1358 28.2112 37.4385 27.9073 38.7411 27.6033C39.1588 27.5066 38.9817 26.8821 38.5669 26.9678Z" fill="white"/>
<path d="M2.31814 41.9667C8.35027 42.7929 14.5262 42.909 20.597 43.2682C24.1953 43.481 27.7936 43.7325 31.3918 43.9425C33.4191 44.0613 35.4796 43.9369 37.4986 44.0779C37.8361 44.1027 37.8333 43.5777 37.4986 43.5528C35.7368 43.4285 33.6321 43.0195 31.7597 42.8814C28.1338 42.6133 24.5023 42.4005 20.8708 42.2264C14.7364 41.9335 8.51896 41.3754 2.37344 41.5522C2.14941 41.5577 2.07198 41.9336 2.31814 41.9667Z" fill="white"/>
<path d="M36.2691 64.6531C25.8394 63.744 15.4041 62.8515 4.95783 62.1551C3.48091 62.0557 1.98191 62.1192 0.507755 62.0114C0.128846 61.9838 0.131611 62.5724 0.507755 62.6C4.30792 62.8847 8.60034 63.4097 12.5692 63.6943C18.983 64.153 25.3996 64.6227 31.819 65.0206C33.3014 65.1118 34.7866 65.2057 36.2691 65.2969C36.6895 65.3273 36.6812 64.689 36.2691 64.6531Z" fill="white"/>
<path d="M10.2286 81.8571C13.1271 81.4648 15.9925 80.7325 18.8523 80.1218C23.4739 79.1381 28.1093 78.1709 32.7032 77.0712C33.4638 76.8888 34.2299 76.7313 34.9849 76.5323C35.2366 76.466 35.8507 76.2477 35.8507 76.2477C36.3872 76.1289 36.1604 75.3027 35.6239 75.4243C35.7483 75.3967 35.0596 75.4713 34.913 75.4961C34.2852 75.6039 33.6601 75.7669 33.0378 75.8968C31.0271 76.3196 29.0247 76.7783 27.0223 77.237C22.4145 78.2898 17.8068 79.3398 13.2101 80.434C12.1536 80.6855 11.1026 80.9425 10.0655 81.2713C9.68101 81.3929 9.84968 81.9096 10.2286 81.8571Z" fill="white"/>
<path d="M58.3841 1.34429C57.4023 1.30008 56.3568 1.7201 55.4165 1.97156C53.2702 2.54631 51.1323 3.14592 48.9916 3.74554C46.8537 4.34516 44.7129 4.95037 42.586 5.5942C41.9029 5.80145 41.2253 6.03076 40.5422 6.24906C40.343 6.31261 40.1329 6.36234 39.942 6.44247C39.8286 6.48945 39.4137 6.66358 39.7844 6.55857C39.2948 6.6995 39.505 7.46216 39.9946 7.32123C39.6101 7.43176 40.0609 7.35717 40.1854 7.33506C40.39 7.29914 40.5947 7.23281 40.7966 7.1803C41.488 7.00069 42.185 6.83762 42.8737 6.64972C45.0172 6.06391 47.1495 5.4422 49.2819 4.81218C51.4143 4.18216 53.544 3.55493 55.6681 2.90004C56.5974 2.61266 57.7093 2.4137 58.5169 1.85552C58.7409 1.69802 58.6635 1.35811 58.3841 1.34429Z" fill="white"/>
<path d="M78.8883 17.1361C71.1359 19.0179 63.3641 20.8223 55.6061 22.6736C51.9526 23.5468 48.3266 24.5941 44.6786 25.4479C44.2084 25.5585 44.4075 26.2825 44.8777 26.1719C48.2603 25.3789 52.3177 24.5886 55.8938 23.7181C63.6435 21.8364 71.3599 19.833 79.0626 17.7716C79.4747 17.6639 79.3004 17.0367 78.8883 17.1361Z" fill="white"/>
<path d="M49.4191 45.1612C53.2221 45.8299 57.1108 46.1034 60.9441 46.5428C64.5479 46.9545 68.1544 47.3579 71.7582 47.7752C74.3691 48.0764 76.9745 48.3721 79.5881 48.618C80.5451 48.7064 81.7454 48.6815 82.6055 48.7893C82.9402 48.8307 82.9374 48.3057 82.6055 48.2643C81.6818 48.1482 80.4842 47.8222 79.472 47.6702C76.9745 47.2972 74.4714 46.9905 71.9573 46.7086C68.4503 46.3135 64.9434 45.9404 61.4309 45.6061C57.4703 45.2303 53.4572 44.7411 49.4745 44.7439C49.2449 44.7467 49.1785 45.1169 49.4191 45.1612Z" fill="white"/>
<path d="M67.8742 67.3722C65.7695 67.0931 63.6675 66.8416 61.5572 66.6151C60.1273 66.4631 58.7002 66.289 57.2675 66.1785C56.6563 66.1315 55.6744 66.22 55.2402 66.1757C54.8613 66.1398 54.864 66.7284 55.2402 66.7643C55.6523 66.803 56.5733 67.0738 57.1624 67.1429C58.6227 67.317 60.0914 67.4247 61.5572 67.5491C63.662 67.7314 65.7667 67.8862 67.8742 68.016C68.3002 68.0464 68.2753 67.4247 67.8742 67.3722Z" fill="white"/>
<path d="M83.9369 45.9431C83.9369 45.9431 75.0229 31.6129 76.2343 29.698C77.4457 27.7858 86.3957 38.1176 86.3957 38.1176" fill="#742A40"/>
<path fill-rule="evenodd" clip-rule="evenodd" d="M76.6929 30.0145C76.7234 30.0141 76.7799 30.0186 76.8699 30.0434C77.1381 30.1174 77.5247 30.3202 78.0162 30.6609C78.9852 31.3325 80.19 32.4172 81.3801 33.585C82.5648 34.7473 83.714 35.971 84.5683 36.9057C84.9951 37.3727 85.3475 37.7667 85.5931 38.0437C85.7158 38.1822 85.8118 38.2914 85.877 38.3658C85.9096 38.403 85.9344 38.4316 85.9511 38.4507L85.9698 38.4722L85.9756 38.4788L85.9758 38.4791C85.9759 38.4792 85.9759 38.4792 86.3941 38.1175C86.8124 37.7559 86.8123 37.7558 86.8122 37.7557L86.7858 37.7252C86.7685 37.7054 86.7429 37.6761 86.7097 37.6381C86.6431 37.5621 86.5457 37.4512 86.4213 37.3109C86.1727 37.0304 85.8164 36.6322 85.3852 36.1604C84.5236 35.2176 83.3596 33.9779 82.1553 32.7964C80.9565 31.6202 79.6967 30.4805 78.6468 29.7527C78.1289 29.3937 77.6176 29.103 77.1644 28.978C76.9356 28.9149 76.6791 28.8817 76.4263 28.9379C76.1538 28.9985 75.9214 29.1559 75.7653 29.4024L75.7651 29.4027C75.6107 29.6468 75.568 29.9341 75.5664 30.1926C75.5649 30.4592 75.607 30.7556 75.6759 31.0655C75.8138 31.6861 76.0764 32.4368 76.4138 33.2547C77.0905 34.8949 78.1023 36.8862 79.1436 38.8023C80.1867 40.7217 81.267 42.5794 82.0859 43.9563C82.4955 44.6451 82.8401 45.2141 83.0824 45.6112C83.2035 45.8098 83.2991 45.9654 83.3645 46.0715C83.3972 46.1245 83.4224 46.1652 83.4394 46.1927L83.4654 46.2346C83.4655 46.2347 83.4655 46.2348 83.9353 45.9431C84.4051 45.6513 84.4051 45.6513 84.4051 45.6512L84.3802 45.6111C84.3635 45.5842 84.3388 45.5442 84.3065 45.4918C84.2419 45.3871 84.1472 45.2329 84.027 45.0359C83.7865 44.6418 83.4442 44.0764 83.037 43.3917C82.2224 42.0219 81.1498 40.1774 80.1159 38.2749C79.0801 36.3691 78.0906 34.4187 77.4366 32.8335C77.1087 32.0386 76.8736 31.3556 76.7559 30.826C76.697 30.5608 76.6718 30.3529 76.6727 30.1992C76.6733 30.0992 76.6849 30.0423 76.6929 30.0145Z" fill="white"/>
<path d="M279.233 10.6187L271.742 22.2327L339.873 66.0979L347.365 54.484L279.233 10.6187Z" fill="#234977"/>
<path d="M303.107 23.2319C303.107 23.2319 294.044 38.007 296.215 39.3306C298.386 40.6542 308.249 27.2028 308.249 27.2028C308.249 27.2028 296.903 40.8117 299.218 43.2075C301.533 45.6032 312.798 29.2641 312.798 29.2641C312.798 29.2641 303.367 43.2821 305.342 45.0451C307.317 46.808 317.002 32.9558 317.002 32.9558" fill="#742A40"/>
<path fill-rule="evenodd" clip-rule="evenodd" d="M302.636 22.9431C302.636 22.943 302.636 22.9429 303.107 23.2317C303.579 23.5204 303.579 23.5205 303.579 23.5205L303.554 23.5618C303.537 23.5894 303.512 23.6305 303.479 23.6844C303.414 23.7921 303.318 23.9506 303.197 24.1529C302.954 24.5577 302.61 25.1378 302.204 25.8381C301.39 27.2396 300.33 29.1194 299.339 31.0382C298.344 32.9621 297.43 34.9046 296.899 36.4373C296.632 37.2084 296.474 37.8408 296.439 38.3001C296.422 38.5298 296.438 38.6832 296.466 38.7765C296.479 38.8205 296.491 38.8429 296.498 38.852C296.501 38.8564 296.503 38.8582 296.503 38.8584C296.506 38.8601 296.648 38.9271 297.106 38.696C297.522 38.4859 298.044 38.1046 298.647 37.5778C299.846 36.5298 301.262 34.997 302.626 33.4036C303.099 32.8512 303.563 32.2937 304.009 31.7495C304.756 30.7333 305.472 29.7992 306.077 29.026C306.593 28.3664 307.029 27.8229 307.336 27.4439C307.49 27.2544 307.612 27.1061 307.695 27.0049C307.737 26.9543 307.769 26.9155 307.79 26.8892L307.815 26.8593L307.824 26.849C307.824 26.8489 307.824 26.8488 308.249 27.2025C308.695 27.5291 308.695 27.5292 308.695 27.5293L308.666 27.5687C308.647 27.5945 308.619 27.6326 308.582 27.6821C308.509 27.7811 308.401 27.9258 308.264 28.1093C307.988 28.4763 307.593 28.9987 307.112 29.6213C306.489 30.4274 305.721 31.4027 304.884 32.4268C304.368 33.128 303.839 33.8678 303.322 34.6195C302.053 36.463 300.874 38.3572 300.156 39.9256C299.796 40.7127 299.567 41.386 299.489 41.9122C299.409 42.4558 299.507 42.7104 299.617 42.8233C299.666 42.8749 299.8 42.9722 300.256 42.7847C300.702 42.6018 301.278 42.2073 301.955 41.6214C303.3 40.4587 304.9 38.6711 306.449 36.7836C307.993 34.9018 309.467 32.9433 310.556 31.4535C311.1 30.709 311.547 30.0825 311.858 29.6424C312.014 29.4224 312.135 29.249 312.218 29.1308C312.259 29.0717 312.29 29.0264 312.311 28.9959L312.335 28.9616L312.343 28.9505C312.343 28.9504 312.343 28.9504 312.799 29.2639C313.258 29.5722 313.258 29.5722 313.258 29.5723L313.231 29.6113C313.214 29.6375 313.188 29.6765 313.154 29.7276C313.086 29.8299 312.986 29.9804 312.86 30.1728C312.607 30.5577 312.248 31.1098 311.823 31.7781C310.972 33.1153 309.86 34.9141 308.811 36.7655C307.759 38.6216 306.781 40.5112 306.19 42.0351C305.893 42.8006 305.705 43.4435 305.644 43.9289C305.579 44.4568 305.685 44.6095 305.711 44.6327C305.711 44.6328 305.711 44.633 305.711 44.6332C305.714 44.6362 305.726 44.6486 305.784 44.6471C305.86 44.6451 305.988 44.6176 306.178 44.53C306.557 44.3543 307.05 44.0006 307.63 43.4861C308.782 42.4653 310.156 40.9266 311.486 39.3103C312.811 37.6991 314.078 36.0311 315.013 34.7643C315.481 34.1313 315.865 33.5993 316.133 33.2258C316.266 33.0391 316.371 32.8921 316.441 32.7919C316.477 32.7418 316.504 32.7034 316.522 32.6776L316.542 32.6486L316.549 32.6396L316.549 32.6392C316.549 32.6391 316.549 32.6391 317.003 32.9556C317.456 33.2721 317.456 33.2722 317.456 33.2723L317.455 33.2728L317.427 33.3129C317.409 33.3394 317.381 33.3786 317.345 33.4296C317.273 33.5314 317.167 33.6802 317.032 33.8689C316.762 34.2461 316.375 34.7825 315.903 35.4206C314.961 36.696 313.683 38.3808 312.34 40.0123C311.002 41.6386 309.584 43.2324 308.364 44.313C307.759 44.8493 307.17 45.2886 306.643 45.5329C306.145 45.7633 305.483 45.9122 304.974 45.4569C304.506 45.0393 304.475 44.3683 304.547 43.7922C304.624 43.1736 304.849 42.4321 305.158 41.6354C305.581 40.5466 306.184 39.2981 306.859 38.0227C305.437 39.7272 303.963 41.3465 302.679 42.4571C301.975 43.066 301.291 43.555 300.677 43.807C300.074 44.0546 299.35 44.1384 298.821 43.591C298.351 43.105 298.298 42.4103 298.395 41.7511C298.495 41.0745 298.772 40.2915 299.15 39.4659C299.381 38.9601 299.656 38.4264 299.963 37.876C299.763 38.0639 299.567 38.2423 299.375 38.4097C298.748 38.9579 298.144 39.4103 297.605 39.6825C297.108 39.9337 296.467 40.1313 295.927 39.8021C295.361 39.4569 295.295 38.767 295.336 38.217C295.382 37.615 295.576 36.876 295.853 36.0758C296.411 34.4659 297.355 32.4664 298.356 30.5311C299.358 28.5907 300.428 26.694 301.247 25.2838C301.656 24.5783 302.003 23.9937 302.247 23.5853C302.37 23.381 302.467 23.2208 302.533 23.1114C302.566 23.0568 302.592 23.0148 302.609 22.9864L302.636 22.9431ZM312.799 29.2639L313.258 29.5723L312.343 28.9505L312.799 29.2639ZM308.249 27.2025L308.695 27.5293L307.824 26.8488L308.249 27.2025Z" fill="white"/>
<path d="M75.4254 66.7671C75.5498 66.7671 75.5498 66.5735 75.4254 66.5735C75.3009 66.5735 75.3009 66.7671 75.4254 66.7671Z" fill="white"/>
<path fill-rule="evenodd" clip-rule="evenodd" d="M300.478 162.914L311.122 172.602L306.766 204.385L334.667 188.507L363.575 202.47L357.081 171.052L379.304 147.899L347.392 144.359L332.217 116.088L321.045 140.772C320.503 143.442 319.592 147.094 318.221 151.941C324.029 142.04 332.824 128.896 321.54 155.533C320.48 157.329 318.995 161.557 321.54 164.099C327.071 167.784 333.239 173.55 313.657 167.139C311.311 166.371 308.755 165.557 306.029 164.688C304.248 164.121 302.394 163.53 300.478 162.914ZM313.488 146.307L312.909 146.411C312.713 147.152 312.502 147.935 312.275 148.763C312.664 147.958 313.071 147.134 313.488 146.307ZM307.147 147.447C307.113 147.512 307.08 147.577 307.046 147.642C306.849 148.022 306.656 148.397 306.466 148.763L304.52 147.919L307.147 147.447Z" fill="#FFA574"/>
<path d="M325.049 131.889C326.258 132.626 327.898 132.825 329.258 133.184C330.84 133.604 332.428 134.008 334.016 134.409C337.016 135.163 340.064 136.147 343.156 136.395C343.441 136.418 343.436 136.033 343.217 135.942C340.302 134.718 337.066 134.185 333.993 133.461C332.486 133.104 330.979 132.756 329.469 132.419C328.075 132.107 326.551 131.529 325.118 131.629C324.983 131.637 324.925 131.814 325.049 131.889Z" fill="#001A39"/>
<path d="M310.413 175.246C312.156 176.169 314.393 176.426 316.299 176.907C318.354 177.427 320.409 177.938 322.464 178.457C326.66 179.524 330.866 180.552 335.07 181.591C343.451 183.658 351.856 186.111 360.377 187.523C360.665 187.57 360.786 187.173 360.499 187.079C352.29 184.412 343.699 182.727 335.314 180.707C331.193 179.715 327.072 178.717 322.945 177.747C320.791 177.241 318.639 176.73 316.487 176.225C314.579 175.777 312.455 174.967 310.485 174.984C310.35 174.987 310.289 175.18 310.413 175.246Z" fill="#001A39"/>
<path d="M335.856 123.228C333.541 131.645 331.472 140.137 329.359 148.614C326.023 162.01 322.605 175.393 319.433 188.828C318.725 191.826 317.936 195.338 317.253 198.104C317.134 198.582 317.875 198.787 317.994 198.309C320.011 190.127 322.314 181.292 324.375 172.892C327.663 159.482 330.955 146.072 334.202 132.651C334.951 129.559 335.634 126.459 336.309 123.355C336.376 123.057 335.936 122.933 335.856 123.228Z" fill="#001A39"/>
<path d="M353.068 144.928C350.778 152.638 349.091 160.554 347.144 168.36C346.17 172.268 345.183 176.169 344.193 180.071C343.211 183.956 342.027 187.852 341.316 191.796C341.23 192.279 341.894 192.473 342.057 192C343.346 188.212 344.182 184.219 345.163 180.339C346.151 176.437 347.116 172.527 348.079 168.617C349.998 160.806 352.117 152.975 353.524 145.052C353.574 144.759 353.154 144.632 353.068 144.928Z" fill="#001A39"/>
<path fill-rule="evenodd" clip-rule="evenodd" d="M230.324 101.377L231.047 100.541L265.694 130.467L306.213 148.051C306.326 147.833 306.44 147.612 306.555 147.389C307.638 145.291 308.821 143 309.935 140.964C311.239 138.578 312.483 136.477 313.377 135.457C313.6 135.202 313.835 134.975 314.073 134.835C314.3 134.701 314.701 134.555 315.075 134.824C315.379 135.042 315.472 135.417 315.509 135.702C315.552 136.024 315.548 136.436 315.506 136.931C315.391 138.295 314.965 140.514 314.148 143.813C314.841 142.49 315.543 141.203 316.222 140.024C316.961 138.739 317.678 137.576 318.33 136.636C318.973 135.708 319.581 134.955 320.109 134.526C320.364 134.318 320.675 134.123 321.016 134.092C321.201 134.075 321.395 134.106 321.574 134.209C321.749 134.309 321.874 134.455 321.962 134.609C322.129 134.901 322.201 135.289 322.225 135.715C322.251 136.156 322.229 136.705 322.161 137.365C321.942 139.5 321.218 142.977 319.828 148.188C320.67 146.817 321.518 145.477 322.316 144.274C323.052 143.165 323.749 142.166 324.36 141.367C324.961 140.581 325.51 139.947 325.948 139.601C326.061 139.512 326.182 139.43 326.307 139.369C326.427 139.311 326.588 139.253 326.772 139.26C326.979 139.267 327.174 139.355 327.317 139.52C327.444 139.666 327.499 139.838 327.525 139.979C327.576 140.255 327.551 140.605 327.487 140.992C327.42 141.394 327.302 141.893 327.131 142.493C326.45 144.888 324.871 149.089 322.05 155.749L322.036 155.783L322.017 155.814C321.517 156.661 320.913 158.093 320.738 159.6C320.566 161.087 320.817 162.567 321.895 163.671C323.274 164.592 324.702 165.648 325.769 166.622C326.307 167.113 326.772 167.6 327.092 168.051C327.252 168.277 327.388 168.51 327.475 168.743C327.561 168.974 327.613 169.24 327.56 169.511C327.44 170.128 326.887 170.407 326.314 170.51C325.727 170.616 324.911 170.588 323.849 170.434C321.711 170.123 318.388 169.269 313.486 167.664C311.145 166.898 308.594 166.085 305.871 165.218C294.377 161.556 279.808 156.915 264.972 150.637C246.622 142.871 227.808 132.578 213.836 118.48L214.622 117.703C228.446 131.652 247.108 141.876 265.404 149.619C280.188 155.875 294.696 160.497 306.188 164.159C308.918 165.028 311.478 165.844 313.83 166.614C318.719 168.214 321.968 169.044 324.008 169.34C325.035 169.489 325.71 169.496 326.118 169.422C326.32 169.386 326.419 169.336 326.459 169.307C326.467 169.302 326.472 169.297 326.474 169.295C326.476 169.279 326.475 169.229 326.438 169.13C326.396 169.016 326.316 168.869 326.189 168.69C325.935 168.332 325.536 167.906 325.023 167.438C324.002 166.506 322.605 165.473 321.234 164.559L321.188 164.529L321.15 164.49C319.714 163.056 319.443 161.167 319.639 159.473C319.833 157.801 320.489 156.238 321.045 155.285C323.857 148.645 325.407 144.51 326.067 142.191C326.232 141.612 326.338 141.157 326.395 140.812C326.404 140.757 326.412 140.706 326.418 140.658C326.115 140.949 325.716 141.414 325.239 142.038C324.649 142.81 323.968 143.786 323.239 144.885C321.781 147.082 320.148 149.75 318.699 152.221L317.689 151.791C319.792 144.357 320.801 139.776 321.061 137.252C321.126 136.623 321.142 136.139 321.121 135.779C321.104 135.497 321.067 135.325 321.032 135.228C320.975 135.258 320.9 135.308 320.808 135.383C320.41 135.706 319.875 136.348 319.239 137.265C318.611 138.171 317.912 139.304 317.18 140.575C315.718 143.116 314.141 146.179 312.773 149.004L311.742 148.617C313.458 142.367 314.247 138.696 314.404 136.838C314.437 136.451 314.44 136.163 314.424 135.958C314.362 136.018 314.29 136.093 314.209 136.185C313.41 137.096 312.224 139.083 310.906 141.494C309.799 143.517 308.623 145.794 307.54 147.893C307.343 148.275 307.149 148.65 306.959 149.017L306.721 149.476L265.098 131.414L230.324 101.377ZM326.807 140.356C326.807 140.356 326.806 140.357 326.804 140.357C326.806 140.356 326.807 140.356 326.807 140.356Z" fill="white"/>
<path fill-rule="evenodd" clip-rule="evenodd" d="M61.5336 149.137C59.7488 150.545 59.3594 152.397 60.2363 157.17C60.2363 157.17 61.0483 156.028 62.4183 155.222C63.4242 154.658 64.2187 153.899 64.6827 153.405C66.1259 151.884 66.0666 150.289 65.5842 147.663C65.5842 147.663 62.8575 148.076 61.5336 149.137Z" fill="#FBC73B"/>
<path fill-rule="evenodd" clip-rule="evenodd" d="M50.1633 152.394C48.8414 154.096 48.771 156.415 48.771 156.415L47.2076 177.782L39.7587 161.866C39.0132 160.193 37.8127 158.108 36.3284 156.862C34.4609 155.278 31.3053 155.741 30.9663 155.804C30.6274 155.866 27.4853 156.56 26.2794 158.737C25.3404 160.457 24.9538 162.805 24.8523 164.634L23.5463 182.157L14.5417 162.704C14.5417 162.704 13.6749 160.527 11.8108 159.439C8.79224 157.629 5.01125 158.82 5.01125 158.82L22.1189 195.207C22.1189 195.207 25.4981 194.849 27.003 193.668C28.9757 192.167 29.8881 191.094 30.2555 185.625C30.5908 180.776 31.394 166.556 31.5235 165.511C31.5766 165.004 31.5616 163.811 32.4087 163.655C33.2843 163.494 33.661 164.593 33.8956 165.075C34.3831 165.978 40.1647 179.017 42.23 183.425C44.512 188.378 45.7131 189.034 48.1287 189.787C49.9558 190.356 53.2417 189.49 53.2417 189.49L56.304 149.426C56.304 149.426 52.3465 149.657 50.1633 152.394ZM66.7373 153.933C66.7373 153.933 66.2922 155.007 65.0076 156.119C64.1691 156.798 63.3609 157.326 62.4836 157.955C61.0422 159.008 60.7513 159.966 60.9899 161.265L65.7528 187.191C65.7528 187.191 68.3797 187.03 69.8671 185.91C71.8112 184.414 72.0995 183.281 71.2512 178.503L66.7373 153.933ZM94.3107 162.268L103.596 140.825C103.596 140.825 98.031 140.884 95.7999 143.835C94.3625 145.704 92.9553 148.854 92.9553 148.854L89.5231 156.549C89.3312 156.935 89.1492 157.377 88.6696 157.465C88.1893 157.553 87.8114 157.243 87.5463 156.912L81.5511 150.978C81.5511 150.978 79.145 148.529 77.109 147.297C74.0024 145.328 68.7515 147.256 68.7515 147.256L85.07 163.936L75.7396 185.298C75.7396 185.298 81.5234 184.995 83.7267 182.05C85.164 180.18 86.3582 177.304 86.3582 177.304L89.7961 169.637C89.9879 169.251 90.1694 168.809 90.6496 168.721C91.1298 168.633 91.5077 168.942 91.7729 169.274L97.7111 175.219C97.7111 175.219 99.9241 177.41 101.915 178.709C105.021 180.678 110.449 178.922 110.449 178.922L94.3107 162.268Z" fill="white"/>
<path d="M87.1476 154.653C87.1476 154.653 70.3595 152.719 69.6044 150.488C68.8494 148.256 82.5094 147.577 82.5094 147.577" fill="#742A40"/>
<path fill-rule="evenodd" clip-rule="evenodd" d="M70.1384 150.315C70.1568 150.289 70.1953 150.246 70.2708 150.188C70.4949 150.015 70.8935 149.828 71.4653 149.644C72.5927 149.282 74.1908 148.993 75.8451 148.769C77.4918 148.547 79.1649 148.393 80.4283 148.295C81.0594 148.246 81.5872 148.211 81.9569 148.188C82.1418 148.177 82.287 148.168 82.3858 148.163C82.4353 148.16 82.4731 148.158 82.4984 148.157L82.5361 148.155C82.5361 148.155 82.5361 148.155 82.5099 147.577C82.4836 147 82.4835 147 82.4833 147L82.473 147.001L82.443 147.002C82.4167 147.003 82.3779 147.006 82.3274 147.008C82.2265 147.014 82.079 147.022 81.8918 147.034C81.5174 147.057 80.9839 147.092 80.3463 147.142C79.072 147.241 77.3772 147.396 75.7033 147.623C74.037 147.848 72.3616 148.147 71.1401 148.539C70.5375 148.733 69.9928 148.965 69.6143 149.257C69.4232 149.404 69.2387 149.593 69.1266 149.837C69.0059 150.1 68.986 150.393 69.0833 150.681C69.1798 150.966 69.3795 151.186 69.5819 151.355C69.7906 151.528 70.0497 151.685 70.3361 151.829C70.9095 152.116 71.6623 152.385 72.5144 152.636C74.2231 153.14 76.4154 153.595 78.5669 153.977C80.722 154.36 82.8517 154.672 84.4416 154.889C85.2368 154.998 85.8976 155.082 86.3599 155.14C86.591 155.168 86.7726 155.19 86.8965 155.205C86.9585 155.212 87.006 155.218 87.0382 155.222L87.0872 155.228C87.0874 155.228 87.0875 155.228 87.1481 154.653C87.2087 154.078 87.2086 154.078 87.2085 154.078L87.1615 154.073C87.1301 154.069 87.0833 154.064 87.0221 154.056C86.8998 154.042 86.7199 154.02 86.4905 153.991C86.0318 153.934 85.3751 153.85 84.5846 153.743C83.0031 153.527 80.8885 153.217 78.7523 152.837C76.6124 152.457 74.466 152.01 72.8146 151.524C71.9866 151.28 71.304 151.032 70.8147 150.786C70.5698 150.664 70.3908 150.55 70.2707 150.45C70.1926 150.385 70.1551 150.339 70.1384 150.315Z" fill="white"/>
</svg>
