<svg width="388" height="304" viewBox="0 0 388 304" fill="none" xmlns="http://www.w3.org/2000/svg">
<path d="M359.512 26.86C340.32 23.0136 321.637 35.4426 317.79 54.6223C313.943 73.7993 326.386 92.4595 345.581 96.3032C355.512 98.2927 365.306 95.9246 372.978 90.5169C375.5 88.7429 377.793 86.6401 379.785 84.2554C383.447 79.8701 386.099 74.537 387.302 68.5435C391.149 49.3666 378.706 30.7037 359.512 26.86ZM370.157 65.1088C369.549 68.1456 368.204 70.8481 366.349 73.0698C365.339 74.2801 364.177 75.3467 362.9 76.2447C359.011 78.9859 354.049 80.1852 349.016 79.1766C339.288 77.2285 332.985 67.7726 334.935 58.0543C336.885 48.3359 346.349 42.0385 356.077 43.9866C365.804 45.9347 372.107 55.3905 370.157 65.1088Z" fill="#D5E2F3"/>
<path d="M363.334 27.6117C361.215 32.696 362.537 37.9075 366.559 41.6269C368.791 43.691 371.711 44.7963 374.577 45.6668C378.053 46.7223 381.723 48.0265 385.336 48.4742C385.676 48.5156 385.82 47.9602 385.513 47.822C379.953 45.3296 373.221 45.3158 368.166 41.6683C366.335 40.3475 364.736 38.4574 363.779 36.4099C362.474 33.6135 362.645 30.5656 363.624 27.6946C363.688 27.5039 363.406 27.4376 363.334 27.6117Z" fill="#001A39"/>
<path d="M334.62 92.2441C342.463 89.199 352.467 90.8211 358.864 96.2702C359.124 96.4912 359.573 96.2066 359.365 95.8833C357.067 92.2884 351.953 91.0034 348.039 90.2767C343.365 89.4091 338.768 89.8208 334.423 91.7771C334.163 91.8987 334.349 92.3491 334.62 92.2441Z" fill="#001A39"/>
<path d="M329.514 34.8209C330.3 41.7981 330.64 48.8775 328.895 55.747C328.037 59.1236 326.768 62.3953 325.039 65.4239C323.366 68.3557 321.181 70.7735 319.14 73.4262C318.933 73.6942 319.336 74.0783 319.605 73.8904C322.251 72.0335 324.29 68.9469 325.891 66.1947C327.689 63.1082 329.019 59.7343 329.893 56.2747C331.677 49.2063 331.442 41.8534 329.971 34.7601C329.921 34.5059 329.484 34.5556 329.514 34.8209Z" fill="#001A39"/>
<path d="M253.403 264.535L246.594 278.885L271.665 304L229.214 287.528L242.047 259.937" fill="#FFA574"/>
<path fill-rule="evenodd" clip-rule="evenodd" d="M254.062 282.025L244.841 284.393L244.635 283.59L253.856 281.222L254.062 282.025Z" fill="white"/>
<path fill-rule="evenodd" clip-rule="evenodd" d="M257.445 285.12L248.221 287.485L248.015 286.682L257.238 284.317L257.445 285.12Z" fill="white"/>
<path fill-rule="evenodd" clip-rule="evenodd" d="M260.824 288.214L251.601 290.58L251.394 289.777L260.618 287.411L260.824 288.214Z" fill="white"/>
<path d="M160.592 250.653L167.753 264.87L143.301 290.452L185.341 273.184L171.835 245.842" fill="#FFA574"/>
<path fill-rule="evenodd" clip-rule="evenodd" d="M160.552 267.345L169.832 269.537L169.641 270.343L160.362 268.152L160.552 267.345Z" fill="white"/>
<path fill-rule="evenodd" clip-rule="evenodd" d="M157.247 270.504L166.526 272.695L166.336 273.502L157.056 271.311L157.247 270.504Z" fill="white"/>
<path fill-rule="evenodd" clip-rule="evenodd" d="M153.945 273.659L163.221 275.851L163.03 276.657L153.754 274.466L153.945 273.659Z" fill="white"/>
<path d="M157.677 258.229L130.883 211.539C124.87 201.061 126.09 187.648 133.878 178.648L161.201 147.07C171.683 134.956 186.632 128.315 202.145 128.885C218.198 129.473 233.177 137.713 242.918 151.319L270.41 189.709C275.889 197.358 277.523 207.347 274.794 216.48L256.982 276.05L225.995 261.786L240.219 210.939L199.147 167.274L165.239 199.287L187.18 243.664L157.677 258.229Z" fill="#032349"/>
<path d="M209.176 177.996C213.975 175.186 220.482 172.994 225.818 175.578C230.176 177.689 232.956 181.992 235.686 185.799C241.317 193.653 248.455 201.119 258.592 202.196C264.043 202.777 270.504 201.553 274.761 197.894C275.162 197.549 274.65 196.957 274.216 197.187C271.721 198.502 269.359 199.812 266.59 200.497C263.852 201.174 260.99 201.323 258.191 200.975C252.775 200.298 248.002 197.645 244.03 193.99C240.365 190.616 237.542 186.579 234.582 182.608C232.101 179.278 229.247 175.868 225.234 174.387C219.788 172.378 213.643 174.763 208.955 177.626C208.72 177.767 208.935 178.137 209.176 177.996Z" fill="#E4EDFA"/>
<path d="M247.617 158.159C244.694 163.87 242.658 171.37 246.832 177.054C248.71 179.612 251.567 181.116 254.49 182.188C258.174 183.539 262.248 184.686 266.195 184.561C266.549 184.55 266.632 184.034 266.281 183.937C260.262 182.29 252.554 181.898 248.168 176.833C243.654 171.621 245.568 164.08 248.32 158.565C248.549 158.103 247.855 157.692 247.617 158.159Z" fill="#E4EDFA"/>
<path d="M232.054 239.683C235.346 242.451 236.377 246.966 236.269 251.097C236.145 255.955 233.957 260.166 231.913 264.463C231.747 264.811 232.215 265.265 232.494 264.911C237.882 258.08 240.266 245.286 232.361 239.287C232.135 239.113 231.836 239.5 232.054 239.683Z" fill="#E4EDFA"/>
<path d="M145.217 236.842C151.133 236.198 157.063 236.674 162.634 238.859C168.11 241.009 172.883 244.701 176.833 249.017C177.129 249.34 177.566 248.873 177.306 248.544C169.722 238.95 157.229 234.043 145.132 236.198C144.772 236.264 144.85 236.883 145.217 236.842Z" fill="#E4EDFA"/>
<path d="M170.627 210.425C167.103 213.741 164.271 218.82 166.417 223.683C167.413 225.938 169.415 227.419 171.625 228.381C174.291 229.541 177.458 230.415 180.39 230.224C180.796 230.199 180.929 229.583 180.489 229.48C176.172 228.469 170.112 228.005 167.64 223.686C165.059 219.176 167.794 214.111 171.088 210.889C171.393 210.591 170.934 210.135 170.627 210.425Z" fill="#E4EDFA"/>
<path d="M179.375 133.563C183.189 135.475 187.213 137.011 191.268 138.332C195.187 139.609 199.288 140.626 203.44 140.479C208.592 140.297 216.536 138.28 217.329 132.073C217.385 131.642 216.737 131.524 216.544 131.861C215.839 133.099 215.321 134.334 214.293 135.367C213.344 136.321 212.199 137.05 210.976 137.6C208.117 138.885 204.776 139.368 201.664 139.266C194.022 139.02 186.64 135.688 179.563 133.118C179.303 133.024 179.129 133.439 179.375 133.563Z" fill="#E4EDFA"/>
<path d="M149.955 160.131C153.462 161.917 157.321 163.058 161.168 163.837C164.749 164.564 168.563 165.166 172.225 164.857C175.304 164.597 178.329 163.494 180.227 160.941C182.207 158.274 181.574 155.721 180.816 152.756C180.326 150.847 180.315 148.913 182.467 148.073C184.35 147.338 186.696 147.473 188.646 147.827C192.662 148.559 196.274 150.554 199.841 152.433C203.094 154.146 206.441 155.837 210.097 156.478C213.427 157.064 216.851 156.84 220.123 156.025C223.978 155.064 227.635 153.315 230.942 151.134C233.733 149.297 236.087 147.105 236.961 143.779C237.124 143.16 236.214 142.919 236.009 143.516C234.934 146.688 232.511 148.675 229.767 150.419C226.752 152.334 223.483 153.864 220.018 154.76C216.425 155.688 212.65 155.904 209.024 155.019C205.428 154.144 202.167 152.331 198.915 150.626C195.759 148.971 192.49 147.36 188.953 146.71C186.394 146.241 182.677 145.923 180.556 147.805C178.324 149.783 179.618 152.723 180.18 155.133C181.02 158.755 178.725 161.836 175.331 163.025C171.34 164.423 166.52 163.704 162.451 163.025C158.222 162.317 154.195 161.049 150.135 159.709C149.886 159.631 149.723 160.013 149.955 160.131Z" fill="#E4EDFA"/>
<path d="M237.647 220.724C242.686 217.972 247.617 214.963 253.417 214.125C256.271 213.714 259.28 214.012 261.684 215.725C264.248 217.552 265.127 220.464 264.342 223.473C263.578 226.4 261.789 229.036 260.309 231.639C258.785 234.319 257.259 236.997 255.732 239.674C253.237 244.054 250.596 248.984 251.185 254.201C251.752 259.21 255.619 263.728 259.994 266.005C260.389 266.213 260.685 265.674 260.337 265.419C255.793 262.084 251.746 257.611 252.206 251.592C252.67 245.496 256.697 239.898 259.626 234.731C261.147 232.048 262.821 229.401 264.134 226.607C265.207 224.324 266.01 221.733 265.304 219.221C264.018 214.625 258.885 212.774 254.545 213.108C251.423 213.349 248.364 214.374 245.496 215.584C242.608 216.803 239.729 218.29 237.384 220.392C237.201 220.555 237.439 220.837 237.647 220.724Z" fill="#E4EDFA"/>
<path d="M136.171 222.321C140.023 223.982 146.009 225.032 148.871 221.041C150.641 218.577 150.141 215.438 149.09 212.79C147.801 209.541 145.862 206.584 144.482 203.371C141.771 197.062 140.411 188.969 145.027 183.152C148.456 178.83 154.358 177.294 159.666 177.661C166.923 178.164 173.119 182.431 178.487 186.996C178.833 187.288 179.295 186.838 178.988 186.495C171.667 178.36 158.69 172.792 148.359 178.767C143.279 181.704 140.754 187.181 140.825 192.942C140.867 196.371 141.755 199.723 143.038 202.887C144.332 206.081 146.133 209.005 147.566 212.127C149.167 215.612 149.955 220.544 145.569 222.296C142.69 223.445 139.238 222.722 136.456 221.641C136.068 221.495 135.786 222.155 136.171 222.321Z" fill="#E4EDFA"/>
<path d="M220.925 77.5657C224.147 94.2916 213.186 110.459 196.445 113.679C179.704 116.898 163.521 105.947 160.299 89.221" fill="white"/>
<path d="M34.3574 92.9598C14.0235 91.5506 -1.31814 73.9404 0.089634 53.625C1.50017 33.3096 19.1263 17.9819 39.4602 19.3884" fill="#F96155"/>
<path d="M171.664 58.5241C171.727 66.4822 178.235 72.8791 186.201 72.8128C193.242 72.7548 199.061 67.6676 200.273 60.9916C200.43 60.1157 200.511 59.2149 200.502 58.2919C200.439 50.3365 193.931 43.9369 185.965 44.0032C181.822 44.0364 178.102 45.8104 175.494 48.6289C173.091 51.2263 171.633 54.7108 171.664 58.5241Z" fill="#FFA574"/>
<path d="M175.494 48.6261C179.425 56.225 187.393 61.3895 196.539 61.3177C197.809 61.3066 199.056 61.1961 200.27 60.9916C200.428 60.1157 200.508 59.2149 200.5 58.2919C200.436 50.3365 193.928 43.9369 185.963 44.0032C181.822 44.0336 178.103 45.8104 175.494 48.6261Z" fill="#234977"/>
<path d="M192.006 44.86C195.041 44.86 197.502 42.4019 197.502 39.3695C197.502 36.3372 195.041 33.8789 192.006 33.8789C188.971 33.8789 186.51 36.3372 186.51 39.3695C186.51 42.4019 188.971 44.86 192.006 44.86Z" fill="#617FA8"/>
<path d="M184.771 35.1856C193.409 35.1856 200.411 28.1896 200.411 19.5595C200.411 10.9294 193.409 3.93335 184.771 3.93335C176.133 3.93335 169.13 10.9294 169.13 19.5595C169.13 28.1896 176.133 35.1856 184.771 35.1856Z" fill="#234977"/>
<path d="M179.694 63.3238C179.752 62.0829 179.155 61.0471 178.362 61.0103C177.569 60.9735 176.879 61.9495 176.821 63.1904C176.763 64.4313 177.36 65.4671 178.153 65.5039C178.946 65.5407 179.636 64.5646 179.694 63.3238Z" fill="#001A39"/>
<path d="M184.459 63.7024C184.516 62.4615 183.92 61.4258 183.126 61.389C182.333 61.3521 181.643 62.3282 181.585 63.5691C181.528 64.8099 182.124 65.8458 182.918 65.8826C183.711 65.9194 184.401 64.9433 184.459 63.7024Z" fill="#001A39"/>
<path fill-rule="evenodd" clip-rule="evenodd" d="M177.838 68.9923C177.837 68.9923 177.837 68.9924 177.732 68.4498C177.627 67.9072 177.626 67.9073 177.626 67.9073L177.626 67.9074L177.625 67.9075L177.625 67.9076C177.624 67.9077 177.625 67.9076 177.626 67.9074C177.628 67.907 177.632 67.9061 177.638 67.9048C177.65 67.9021 177.669 67.8975 177.696 67.8906C177.749 67.8769 177.828 67.8543 177.924 67.8209C178.119 67.7534 178.374 67.6449 178.623 67.4814C179.112 67.1603 179.555 66.6525 179.541 65.8006L180.647 65.7825C180.669 67.1245 179.93 67.9459 179.23 68.4054C178.884 68.6322 178.541 68.7769 178.287 68.865C178.16 68.9094 178.052 68.9403 177.974 68.9605C177.935 68.9706 177.903 68.9781 177.88 68.9833C177.868 68.9859 177.859 68.9879 177.852 68.9894L177.843 68.9913L177.839 68.9919L177.838 68.9921L177.838 68.9923Z" fill="#001A39"/>
<path fill-rule="evenodd" clip-rule="evenodd" d="M79.9404 28.7568L80.9197 28.468L112.35 67.1216L149.496 84.5261L149.026 85.5268L111.766 68.0686L111.571 67.9167L80.8971 30.1932L78.5454 51.8363C78.5654 51.8797 78.5901 51.9332 78.6194 51.9963C78.7099 52.1918 78.844 52.4797 79.0178 52.8487C79.3653 53.5869 79.8716 54.6497 80.5058 55.9468C81.7745 58.5412 83.5542 62.0709 85.5988 65.8134C87.6442 69.5571 89.9509 73.5067 92.2735 76.9437C94.6036 80.3918 96.9216 83.2813 98.9836 84.9415C101.059 86.6118 104.932 88.7453 109.625 91.0182C114.303 93.2836 119.749 95.6651 124.934 97.8349C130.118 100.004 135.037 101.96 138.66 103.373C140.471 104.08 141.958 104.65 142.992 105.045C143.51 105.242 143.913 105.395 144.188 105.498C144.325 105.55 144.43 105.59 144.5 105.616L144.605 105.655L144.606 105.656C144.607 105.656 144.607 105.656 144.413 106.174C144.219 106.691 144.218 106.691 144.218 106.691L144.217 106.69L144.111 106.651C144.04 106.624 143.934 106.584 143.797 106.532C143.521 106.428 143.116 106.275 142.598 106.077C141.562 105.682 140.072 105.11 138.257 104.403C134.629 102.987 129.701 101.028 124.506 98.8543C119.313 96.6809 113.847 94.2907 109.143 92.0128C104.454 89.7424 100.475 87.5611 98.2895 85.8022C96.0922 84.0332 93.6984 81.0276 91.3566 77.5621C89.0072 74.0855 86.682 70.1028 84.6278 66.3429C82.5729 62.5818 80.7854 59.0365 79.5118 56.4319C78.8749 55.1294 78.3663 54.0617 78.0167 53.3192C77.8419 52.948 77.7069 52.658 77.6154 52.4606C77.5697 52.362 77.5349 52.2864 77.5114 52.2355L77.4849 52.1776L77.4759 52.158C77.4758 52.1578 77.4757 52.1576 77.979 51.9283L77.4757 52.1576L77.4291 51.8686L79.9404 28.7568Z" fill="white"/>
<path fill-rule="evenodd" clip-rule="evenodd" d="M115.472 134.584L146.251 107.48L146.983 108.31L116.109 135.497L115.892 135.615L68.4062 148.867L73.928 159.957C73.9702 159.956 74.016 159.955 74.0655 159.953C74.3856 159.944 74.8567 159.931 75.4598 159.912C76.6661 159.874 78.4007 159.815 80.5126 159.728C84.7368 159.553 90.4688 159.267 96.5022 158.823C102.537 158.379 108.866 157.776 114.286 156.97C119.734 156.159 124.179 155.153 126.508 153.933C128.868 152.698 132.37 149.999 136.326 146.604C140.27 143.22 144.627 139.18 148.685 135.293C152.742 131.407 156.497 127.679 159.239 124.922C160.609 123.544 161.726 122.409 162.5 121.618C162.887 121.223 163.188 120.914 163.393 120.703C163.495 120.598 163.573 120.518 163.625 120.464L163.703 120.383L163.704 120.383C163.704 120.382 163.704 120.382 164.102 120.766C164.5 121.15 164.5 121.15 164.5 121.151L164.42 121.233C164.367 121.287 164.289 121.368 164.186 121.474C163.981 121.685 163.679 121.995 163.291 122.391C162.515 123.183 161.396 124.321 160.023 125.701C157.278 128.462 153.516 132.197 149.45 136.091C145.385 139.984 141.013 144.04 137.047 147.443C133.095 150.834 129.506 153.611 127.021 154.912C124.504 156.23 119.879 157.255 114.449 158.063C108.99 158.875 102.631 159.48 96.5835 159.925C90.5347 160.37 84.7901 160.657 80.5584 160.832C78.4423 160.919 76.704 160.979 75.4944 161.017C74.8897 161.036 74.4171 161.049 74.0955 161.058C73.9347 161.062 73.8117 161.066 73.7288 161.068L73.6033 161.071C73.603 161.071 73.6028 161.071 73.5898 160.518L73.6028 161.071L73.0945 160.764L67.1177 148.761L67.4641 147.983L115.472 134.584Z" fill="white"/>
<path fill-rule="evenodd" clip-rule="evenodd" d="M300.829 31.8506L269.98 59.436L269.751 59.5588L229.495 70.1061L229.215 69.037L269.341 58.5235L300.561 30.6069L301.387 30.7069L310.943 44.675L310.933 45.3124L310.486 44.9869C310.933 45.3124 310.933 45.3125 310.933 45.3128L310.932 45.3138L310.872 45.3959C310.832 45.4507 310.772 45.532 310.694 45.6381C310.538 45.8504 310.307 46.1622 310.011 46.5607C309.418 47.3576 308.56 48.5015 307.501 49.8904C305.383 52.6679 302.457 56.4266 299.226 60.35C295.996 64.2723 292.457 68.3652 289.114 71.8085C285.784 75.238 282.604 78.07 280.096 79.4225C277.607 80.7643 273.254 82.2022 268.176 83.6016C263.082 85.0056 257.207 86.3843 251.641 87.598C246.074 88.812 240.812 89.862 236.941 90.6086C235.006 90.9819 233.418 91.2793 232.314 91.4835C231.762 91.5856 231.331 91.6644 231.038 91.7176C230.892 91.7443 230.779 91.7645 230.704 91.7781L230.591 91.7984L230.59 91.7987C230.589 91.7987 230.589 91.7988 230.492 91.2547C230.394 90.7107 230.394 90.7107 230.395 90.7107L230.396 90.7104L230.508 90.6904C230.583 90.6769 230.694 90.6567 230.84 90.6302C231.132 90.5771 231.562 90.4985 232.113 90.3967C233.215 90.1929 234.799 89.896 236.732 89.5233C240.596 88.7779 245.849 87.7296 251.405 86.5181C256.961 85.3064 262.815 83.9325 267.882 82.5361C272.965 81.1351 277.206 79.7249 279.57 78.4498C281.915 77.1855 284.992 74.4655 288.32 71.0389C291.634 67.626 295.151 63.5587 298.372 59.6478C301.591 55.7381 304.508 51.9908 306.621 49.2206C307.677 47.8356 308.532 46.6952 309.123 45.9013C309.418 45.5044 309.647 45.1941 309.803 44.9832C309.805 44.9807 309.806 44.9782 309.808 44.9757L300.829 31.8506Z" fill="white"/>
<path d="M38.3069 1.19228C58.0351 -3.92525 78.1837 7.90424 83.3059 27.6145C88.428 47.3247 76.5878 67.455 56.8597 72.5725" fill="#F96155"/>
<path d="M38.5669 26.9678C29.2159 28.902 19.8538 30.7949 10.5443 32.9336C9.32456 33.2155 7.67062 33.7128 6.66112 33.9339C6.18817 34.0389 6.3873 34.7629 6.86024 34.6579C10.1515 33.9339 14.1784 33.2265 17.6937 32.4473C23.4161 31.1762 29.1246 29.8471 34.8332 28.5152C36.1358 28.2112 37.4385 27.9073 38.7412 27.6033C39.1588 27.5066 38.9818 26.8821 38.5669 26.9678Z" fill="white"/>
<path d="M2.31881 41.9667C8.35094 42.7929 14.5268 42.909 20.5977 43.2682C24.196 43.481 27.7942 43.7325 31.3925 43.9425C33.4198 44.0613 35.4803 43.9369 37.4993 44.0779C37.8367 44.1027 37.834 43.5777 37.4993 43.5528C35.7375 43.4285 33.6328 43.0195 31.7603 42.8814C28.1344 42.6133 24.503 42.4005 20.8715 42.2264C14.737 41.9335 8.51963 41.3754 2.37411 41.5522C2.15008 41.5577 2.07265 41.9336 2.31881 41.9667Z" fill="white"/>
<path d="M36.2687 64.6531C25.839 63.744 15.4037 62.8515 4.9574 62.1551C3.48048 62.0557 1.98148 62.1192 0.507328 62.0114C0.128418 61.9838 0.131184 62.5724 0.507328 62.6C4.30749 62.8847 8.59992 63.4097 12.5688 63.6943C18.9826 64.153 25.3992 64.6227 31.8185 65.0206C33.301 65.1118 34.7862 65.2057 36.2687 65.2969C36.6891 65.3273 36.6808 64.689 36.2687 64.6531Z" fill="white"/>
<path d="M10.2288 81.8571C13.1274 81.4648 15.9927 80.7325 18.8525 80.1218C23.4741 79.1381 28.1095 78.1709 32.7034 77.0712C33.464 76.8888 34.2301 76.7313 34.9852 76.5323C35.2369 76.466 35.8509 76.2477 35.8509 76.2477C36.3875 76.1289 36.1607 75.3027 35.6241 75.4243C35.7486 75.3967 35.0599 75.4713 34.9133 75.4961C34.2855 75.6039 33.6604 75.7669 33.0381 75.8968C31.0274 76.3196 29.025 76.7783 27.0225 77.237C22.4148 78.2898 17.807 79.3398 13.2103 80.434C12.1538 80.6855 11.1029 80.9425 10.0657 81.2713C9.68126 81.3929 9.84993 81.9096 10.2288 81.8571Z" fill="white"/>
<path d="M58.3836 1.34429C57.4017 1.30008 56.3563 1.7201 55.4159 1.97156C53.2697 2.54631 51.1317 3.14592 48.991 3.74554C46.8531 4.34516 44.7124 4.95037 42.5855 5.5942C41.9023 5.80145 41.2248 6.03076 40.5416 6.24906C40.3425 6.31261 40.1323 6.36234 39.9415 6.44247C39.8281 6.48945 39.4132 6.66358 39.7838 6.55857C39.2943 6.6995 39.5045 7.46216 39.994 7.32123C39.6096 7.43176 40.0604 7.35717 40.1848 7.33506C40.3895 7.29914 40.5941 7.23281 40.796 7.1803C41.4875 7.00069 42.1845 6.83762 42.8731 6.64972C45.0166 6.06391 47.149 5.4422 49.2814 4.81218C51.4138 4.18216 53.5435 3.55493 55.6676 2.90004C56.5969 2.61266 57.7087 2.4137 58.5163 1.85552C58.7403 1.69802 58.6629 1.35811 58.3836 1.34429Z" fill="white"/>
<path d="M78.8889 17.1361C71.1365 19.0179 63.3647 20.8223 55.6067 22.6736C51.9532 23.5468 48.3272 24.5941 44.6792 25.4479C44.209 25.5585 44.4082 26.2825 44.8783 26.1719C48.2609 25.3789 52.3183 24.5886 55.8944 23.7181C63.6441 21.8364 71.3605 19.833 79.0632 17.7716C79.4753 17.6639 79.301 17.0367 78.8889 17.1361Z" fill="white"/>
<path d="M49.4197 45.1612C53.2226 45.8299 57.1113 46.1034 60.9447 46.5428C64.5485 46.9545 68.155 47.3579 71.7588 47.7752C74.3696 48.0764 76.975 48.3721 79.5887 48.618C80.5456 48.7064 81.7459 48.6815 82.6061 48.7893C82.9407 48.8307 82.938 48.3057 82.6061 48.2643C81.6823 48.1482 80.4848 47.8222 79.4725 47.6702C76.975 47.2972 74.472 46.9905 71.9579 46.7086C68.4509 46.3135 64.944 45.9404 61.4314 45.6061C57.4709 45.2303 53.4577 44.7411 49.475 44.7439C49.2455 44.7467 49.1791 45.1169 49.4197 45.1612Z" fill="white"/>
<path d="M67.873 67.3722C65.7683 67.0931 63.6663 66.8416 61.556 66.6151C60.1261 66.4631 58.6989 66.289 57.2663 66.1785C56.655 66.1315 55.6732 66.22 55.239 66.1757C54.86 66.1398 54.8628 66.7284 55.239 66.7643C55.6511 66.803 56.572 67.0738 57.1611 67.1429C58.6215 67.317 60.0901 67.4247 61.556 67.5491C63.6607 67.7314 65.7655 67.8862 67.873 68.016C68.2989 68.0464 68.2741 67.4247 67.873 67.3722Z" fill="white"/>
<path d="M83.9364 45.9431C83.9364 45.9431 75.0224 31.6129 76.2338 29.698C77.4452 27.7858 86.3952 38.1176 86.3952 38.1176" fill="#742A40"/>
<path fill-rule="evenodd" clip-rule="evenodd" d="M76.694 30.0145C76.7245 30.0141 76.781 30.0186 76.871 30.0434C77.1392 30.1174 77.5258 30.3202 78.0173 30.6609C78.9863 31.3325 80.1911 32.4172 81.3812 33.585C82.5659 34.7473 83.7151 35.971 84.5694 36.9057C84.9962 37.3727 85.3486 37.7667 85.5942 38.0437C85.7169 38.1822 85.8129 38.2914 85.8781 38.3658C85.9107 38.403 85.9355 38.4316 85.9522 38.4507L85.9709 38.4722L85.9767 38.4788L85.9769 38.4791C85.977 38.4792 85.977 38.4792 86.3952 38.1175C86.8135 37.7559 86.8134 37.7558 86.8133 37.7557L86.7869 37.7252C86.7696 37.7054 86.744 37.6761 86.7108 37.6381C86.6442 37.5621 86.5468 37.4512 86.4224 37.3109C86.1738 37.0304 85.8175 36.6322 85.3863 36.1604C84.5247 35.2176 83.3607 33.9779 82.1564 32.7964C80.9576 31.6202 79.6978 30.4805 78.6479 29.7527C78.13 29.3937 77.6187 29.103 77.1655 28.978C76.9367 28.9149 76.6802 28.8817 76.4274 28.9379C76.1549 28.9985 75.9225 29.1559 75.7664 29.4024L75.7662 29.4027C75.6118 29.6468 75.5691 29.9341 75.5675 30.1926C75.566 30.4592 75.6081 30.7556 75.677 31.0655C75.8149 31.6861 76.0775 32.4368 76.4149 33.2547C77.0916 34.8949 78.1034 36.8862 79.1447 38.8023C80.1878 40.7217 81.2681 42.5794 82.087 43.9563C82.4966 44.6451 82.8412 45.2141 83.0835 45.6112C83.2046 45.8098 83.3002 45.9654 83.3656 46.0715C83.3983 46.1245 83.4235 46.1652 83.4405 46.1927L83.4665 46.2346C83.4666 46.2347 83.4666 46.2348 83.9364 45.9431C84.4062 45.6513 84.4062 45.6513 84.4062 45.6512L84.3813 45.6111C84.3646 45.5842 84.3399 45.5442 84.3076 45.4918C84.243 45.3871 84.1483 45.2329 84.0281 45.0359C83.7876 44.6418 83.4452 44.0764 83.0381 43.3917C82.2235 42.0219 81.1509 40.1774 80.117 38.2749C79.0812 36.3691 78.0917 34.4187 77.4377 32.8335C77.1098 32.0386 76.8747 31.3556 76.757 30.826C76.6981 30.5608 76.6729 30.3529 76.6738 30.1992C76.6744 30.0992 76.686 30.0423 76.694 30.0145Z" fill="white"/>
<path d="M279.232 10.6187L271.741 22.2327L339.872 66.0979L347.364 54.484L279.232 10.6187Z" fill="#234977"/>
<path d="M303.107 23.2319C303.107 23.2319 294.043 38.007 296.214 39.3306C298.386 40.6542 308.248 27.2028 308.248 27.2028C308.248 27.2028 296.903 40.8117 299.218 43.2075C301.533 45.6032 312.798 29.2641 312.798 29.2641C312.798 29.2641 303.367 43.2821 305.341 45.0451C307.316 46.808 317.002 32.9558 317.002 32.9558" fill="#742A40"/>
<path fill-rule="evenodd" clip-rule="evenodd" d="M302.635 22.9431C302.635 22.943 302.635 22.9429 303.107 23.2317C303.578 23.5204 303.578 23.5205 303.578 23.5205L303.553 23.5618C303.536 23.5894 303.511 23.6305 303.478 23.6844C303.413 23.7921 303.317 23.9506 303.196 24.1529C302.954 24.5577 302.609 25.1378 302.203 25.8381C301.39 27.2396 300.33 29.1194 299.338 31.0382C298.344 32.9621 297.429 34.9046 296.898 36.4373C296.631 37.2084 296.473 37.8408 296.439 38.3001C296.422 38.5298 296.438 38.6832 296.465 38.7765C296.478 38.8205 296.491 38.8429 296.497 38.852C296.5 38.8564 296.502 38.8582 296.502 38.8584C296.505 38.8601 296.648 38.9271 297.105 38.696C297.521 38.4859 298.044 38.1046 298.646 37.5778C299.846 36.5298 301.261 34.997 302.625 33.4036C303.098 32.8512 303.563 32.2937 304.008 31.7495C304.755 30.7333 305.471 29.7992 306.076 29.026C306.592 28.3664 307.028 27.8229 307.336 27.4439C307.489 27.2544 307.611 27.1061 307.694 27.0049C307.736 26.9543 307.768 26.9155 307.79 26.8892L307.815 26.8593L307.823 26.849C307.823 26.8489 307.823 26.8488 308.248 27.2025C308.695 27.5291 308.695 27.5292 308.694 27.5293L308.665 27.5687C308.646 27.5945 308.618 27.6326 308.582 27.6821C308.508 27.7811 308.401 27.9258 308.263 28.1093C307.988 28.4763 307.592 28.9987 307.111 29.6213C306.488 30.4274 305.721 31.4027 304.883 32.4268C304.368 33.128 303.838 33.8678 303.321 34.6195C302.053 36.463 300.873 38.3572 300.155 39.9256C299.795 40.7127 299.566 41.386 299.489 41.9122C299.408 42.4558 299.507 42.7104 299.616 42.8233C299.666 42.8749 299.8 42.9722 300.256 42.7847C300.701 42.6018 301.277 42.2073 301.954 41.6214C303.299 40.4587 304.9 38.6711 306.448 36.7836C307.992 34.9018 309.466 32.9433 310.555 31.4535C311.099 30.709 311.546 30.0825 311.858 29.6424C312.013 29.4224 312.135 29.249 312.217 29.1308C312.258 29.0717 312.29 29.0264 312.311 28.9959L312.335 28.9616L312.342 28.9505C312.342 28.9504 312.342 28.9504 312.798 29.2639C313.257 29.5722 313.257 29.5722 313.257 29.5723L313.231 29.6113C313.213 29.6375 313.187 29.6765 313.153 29.7276C313.085 29.8299 312.985 29.9804 312.859 30.1728C312.606 30.5577 312.247 31.1098 311.822 31.7781C310.972 33.1153 309.86 34.9141 308.811 36.7655C307.759 38.6216 306.781 40.5112 306.189 42.0351C305.892 42.8006 305.704 43.4435 305.644 43.9289C305.578 44.4568 305.684 44.6095 305.71 44.6327C305.71 44.6328 305.71 44.633 305.71 44.6332C305.713 44.6362 305.725 44.6486 305.784 44.6471C305.86 44.6451 305.988 44.6176 306.177 44.53C306.557 44.3543 307.049 44.0006 307.629 43.4861C308.781 42.4653 310.155 40.9266 311.485 39.3103C312.811 37.6991 314.077 36.0311 315.013 34.7643C315.48 34.1313 315.865 33.5993 316.132 33.2258C316.266 33.0391 316.37 32.8921 316.441 32.7919C316.476 32.7418 316.503 32.7034 316.521 32.6776L316.542 32.6486L316.548 32.6396L316.548 32.6392C316.548 32.6391 316.548 32.6391 317.002 32.9556C317.455 33.2721 317.455 33.2722 317.455 33.2723L317.455 33.2728L317.427 33.3129C317.408 33.3394 317.381 33.3786 317.345 33.4296C317.273 33.5314 317.167 33.6802 317.032 33.8689C316.762 34.2461 316.374 34.7825 315.903 35.4206C314.961 36.696 313.682 38.3808 312.34 40.0123C311.001 41.6386 309.583 43.2324 308.364 44.313C307.758 44.8493 307.17 45.2886 306.642 45.5329C306.144 45.7633 305.483 45.9122 304.973 45.4569C304.505 45.0393 304.474 44.3683 304.546 43.7922C304.623 43.1736 304.848 42.4321 305.158 41.6354C305.58 40.5466 306.183 39.2981 306.858 38.0227C305.436 39.7272 303.963 41.3465 302.679 42.4571C301.974 43.066 301.29 43.555 300.676 43.807C300.074 44.0546 299.349 44.1384 298.82 43.591C298.35 43.105 298.297 42.4103 298.394 41.7511C298.494 41.0745 298.772 40.2915 299.149 39.4659C299.381 38.9601 299.656 38.4264 299.962 37.876C299.762 38.0639 299.566 38.2423 299.375 38.4097C298.748 38.9579 298.143 39.4103 297.604 39.6825C297.107 39.9337 296.466 40.1313 295.926 39.8021C295.36 39.4569 295.294 38.767 295.336 38.217C295.381 37.615 295.575 36.876 295.853 36.0758C296.41 34.4659 297.355 32.4664 298.355 30.5311C299.358 28.5907 300.428 26.694 301.246 25.2838C301.655 24.5783 302.002 23.9937 302.247 23.5853C302.369 23.381 302.466 23.2208 302.532 23.1114C302.566 23.0568 302.591 23.0148 302.608 22.9864L302.635 22.9431ZM312.798 29.2639L313.257 29.5723L312.342 28.9505L312.798 29.2639ZM308.248 27.2025L308.694 27.5293L307.823 26.8488L308.248 27.2025Z" fill="white"/>
<path d="M75.4262 66.7671C75.5507 66.7671 75.5507 66.5735 75.4262 66.5735C75.3018 66.5735 75.3018 66.7671 75.4262 66.7671Z" fill="white"/>
<path fill-rule="evenodd" clip-rule="evenodd" d="M300.477 162.913L311.122 172.602L306.766 204.385L334.667 188.507L363.574 202.47L357.08 171.052L379.303 147.899L347.392 144.359L332.216 116.088L321.047 140.768C320.505 143.438 319.593 147.091 318.222 151.941C324.03 142.04 332.825 128.896 321.541 155.533C320.48 157.33 318.996 161.557 321.541 164.1C327.072 167.784 333.24 173.55 313.658 167.139C311.311 166.371 308.756 165.557 306.029 164.688C304.248 164.121 302.394 163.53 300.477 162.913ZM313.489 146.306L312.91 146.41C312.714 147.151 312.503 147.935 312.275 148.763C312.665 147.958 313.072 147.133 313.489 146.306ZM307.148 147.446C307.114 147.512 307.08 147.577 307.047 147.642C306.85 148.023 306.657 148.397 306.467 148.763L304.52 147.919L307.148 147.446Z" fill="#FFA574"/>
<path d="M325.05 131.889C326.259 132.626 327.899 132.825 329.26 133.184C330.842 133.604 332.429 134.008 334.017 134.409C337.018 135.163 340.066 136.147 343.158 136.395C343.443 136.418 343.437 136.033 343.219 135.942C340.303 134.718 337.067 134.185 333.995 133.461C332.487 133.104 330.98 132.756 329.47 132.419C328.076 132.107 326.552 131.529 325.119 131.629C324.984 131.637 324.926 131.814 325.05 131.889Z" fill="#001A39"/>
<path d="M310.414 175.246C312.156 176.169 314.394 176.426 316.299 176.907C318.354 177.427 320.409 177.938 322.464 178.457C326.66 179.524 330.867 180.552 335.071 181.591C343.451 183.658 351.856 186.111 360.377 187.523C360.665 187.57 360.787 187.173 360.499 187.079C352.29 184.412 343.7 182.727 335.314 180.707C331.193 179.715 327.072 178.717 322.946 177.747C320.791 177.241 318.639 176.73 316.487 176.225C314.579 175.777 312.455 174.967 310.486 174.984C310.35 174.987 310.289 175.18 310.414 175.246Z" fill="#001A39"/>
<path d="M335.856 123.228C333.541 131.645 331.472 140.137 329.359 148.614C326.024 162.01 322.605 175.393 319.433 188.828C318.725 191.826 317.937 195.338 317.254 198.104C317.135 198.582 317.876 198.787 317.995 198.309C320.011 190.127 322.315 181.292 324.375 172.892C327.664 159.482 330.955 146.072 334.202 132.651C334.952 129.559 335.635 126.459 336.31 123.355C336.376 123.057 335.936 122.933 335.856 123.228Z" fill="#001A39"/>
<path d="M353.068 144.928C350.777 152.638 349.09 160.554 347.143 168.36C346.17 172.268 345.182 176.169 344.192 180.071C343.21 183.956 342.027 187.852 341.316 191.796C341.23 192.279 341.894 192.473 342.057 192C343.346 188.212 344.181 184.219 345.163 180.339C346.15 176.437 347.116 172.527 348.078 168.617C349.998 160.806 352.116 152.975 353.524 145.052C353.574 144.759 353.153 144.632 353.068 144.928Z" fill="#001A39"/>
<path fill-rule="evenodd" clip-rule="evenodd" d="M230.323 101.377L231.047 100.541L265.693 130.467L306.213 148.051C306.326 147.833 306.44 147.612 306.555 147.389C307.638 145.291 308.821 143 309.935 140.964C311.239 138.578 312.483 136.477 313.377 135.457C313.6 135.202 313.835 134.975 314.073 134.835C314.3 134.701 314.701 134.555 315.075 134.824C315.379 135.042 315.471 135.417 315.509 135.702C315.552 136.024 315.548 136.436 315.506 136.931C315.391 138.295 314.965 140.514 314.148 143.813C314.841 142.49 315.543 141.203 316.221 140.024C316.961 138.739 317.678 137.576 318.33 136.636C318.973 135.708 319.581 134.955 320.109 134.526C320.364 134.318 320.675 134.123 321.015 134.092C321.201 134.075 321.395 134.106 321.574 134.209C321.749 134.309 321.874 134.455 321.962 134.609C322.129 134.901 322.2 135.289 322.225 135.715C322.251 136.156 322.229 136.705 322.161 137.365C321.941 139.5 321.218 142.977 319.828 148.188C320.67 146.817 321.518 145.477 322.316 144.274C323.052 143.165 323.749 142.166 324.36 141.367C324.961 140.581 325.51 139.947 325.948 139.601C326.061 139.512 326.182 139.43 326.307 139.369C326.426 139.311 326.588 139.253 326.772 139.26C326.979 139.267 327.174 139.355 327.317 139.52C327.443 139.666 327.498 139.838 327.525 139.979C327.576 140.255 327.551 140.605 327.487 140.992C327.42 141.394 327.302 141.893 327.131 142.493C326.449 144.888 324.871 149.089 322.05 155.749L322.036 155.783L322.017 155.814C321.517 156.661 320.913 158.093 320.738 159.6C320.566 161.087 320.817 162.567 321.894 163.671C323.274 164.592 324.702 165.648 325.769 166.622C326.307 167.113 326.772 167.6 327.092 168.051C327.252 168.277 327.387 168.51 327.475 168.743C327.561 168.974 327.612 169.24 327.56 169.511C327.439 170.128 326.887 170.407 326.314 170.51C325.727 170.616 324.911 170.588 323.849 170.434C321.711 170.123 318.388 169.269 313.486 167.664C311.145 166.898 308.594 166.085 305.871 165.218C294.377 161.556 279.808 156.915 264.972 150.637C246.621 142.871 227.807 132.578 213.836 118.48L214.622 117.703C228.446 131.652 247.108 141.876 265.404 149.619C280.187 155.875 294.695 160.497 306.188 164.159C308.918 165.028 311.478 165.844 313.83 166.614C318.719 168.214 321.968 169.044 324.008 169.34C325.035 169.489 325.709 169.496 326.118 169.422C326.32 169.386 326.419 169.336 326.459 169.307C326.467 169.302 326.471 169.297 326.474 169.295C326.476 169.279 326.475 169.229 326.438 169.13C326.396 169.016 326.316 168.869 326.189 168.69C325.935 168.332 325.536 167.906 325.023 167.438C324.002 166.506 322.605 165.473 321.234 164.559L321.188 164.529L321.149 164.49C319.714 163.056 319.443 161.167 319.639 159.473C319.833 157.801 320.489 156.238 321.045 155.285C323.857 148.645 325.407 144.51 326.067 142.191C326.232 141.612 326.338 141.157 326.395 140.812C326.404 140.757 326.412 140.706 326.418 140.658C326.115 140.949 325.716 141.414 325.239 142.038C324.649 142.81 323.967 143.786 323.238 144.885C321.781 147.082 320.148 149.75 318.699 152.221L317.689 151.791C319.791 144.357 320.801 139.776 321.061 137.252C321.125 136.623 321.142 136.139 321.121 135.779C321.104 135.497 321.066 135.325 321.032 135.228C320.975 135.258 320.9 135.308 320.808 135.383C320.41 135.706 319.875 136.348 319.239 137.265C318.611 138.171 317.912 139.304 317.18 140.575C315.718 143.116 314.141 146.179 312.773 149.004L311.742 148.617C313.458 142.367 314.246 138.696 314.404 136.838C314.437 136.451 314.44 136.163 314.424 135.958C314.362 136.018 314.29 136.093 314.209 136.185C313.41 137.096 312.224 139.083 310.905 141.494C309.799 143.517 308.623 145.794 307.539 147.893C307.342 148.275 307.148 148.65 306.959 149.017L306.721 149.476L265.098 131.414L230.323 101.377ZM326.807 140.356C326.806 140.356 326.806 140.357 326.804 140.357C326.806 140.356 326.807 140.356 326.807 140.356Z" fill="white"/>
<path d="M88.8513 176.452C96.6526 200.343 83.5922 226.028 59.6802 233.822C35.7682 241.616 10.0596 228.568 2.25827 204.678C-5.54301 180.787 7.51731 155.102 31.4293 147.308C55.3413 139.514 81.05 152.562 88.8513 176.452Z" fill="white"/>
<path d="M8.60326 202.817C13.5006 217.814 26.4563 227.931 41.1117 229.95L6.85132 186.327C6.28585 191.725 6.80956 197.324 8.60326 202.817Z" fill="#617FA8"/>
<path d="M71.5035 180.199C69.9744 175.516 67.232 172.822 64.9638 170.769C62.0223 168.274 59.3574 166.219 58.3383 163.098C57.2009 159.615 58.7862 155.511 62.5104 154.297C62.6785 154.242 62.8448 154.211 63.0117 154.167C54.248 150.191 44.0277 149.35 34.1546 152.568C20.9059 156.887 11.4675 167.477 8.04554 179.974C8.94399 179.711 9.78862 179.456 10.5008 179.224C14.4675 177.931 20.4507 175.449 20.4507 175.449C22.4557 174.662 23.6763 177.583 21.713 178.491C21.713 178.491 19.7375 179.402 17.4905 180.267L44.7022 216.805L44.8809 189.232L33.6908 174.984C31.6096 175.53 29.5961 175.919 29.5961 175.919C27.5134 176.466 26.7336 173.266 28.8165 172.72C28.8165 172.72 35.2364 171.16 38.9628 169.945C42.9287 168.652 48.9126 166.17 48.9126 166.17C50.919 165.383 52.1389 168.304 50.1749 169.212C50.1749 169.212 48.195 170.124 45.9524 170.988L72.9573 207.25L72.616 193.388C72.5442 187.613 72.5627 183.442 71.5035 180.199Z" fill="#617FA8"/>
<path d="M48.2742 193.553L47.6828 230.295C51.406 230.185 55.1771 229.56 58.8998 228.347C63.3161 226.907 67.3021 224.764 70.792 222.094C70.6373 221.965 70.4887 221.823 70.3517 221.66L48.2742 193.553Z" fill="#617FA8"/>
<path d="M73.8669 161.431C74.4241 162.585 74.9395 163.85 75.3946 165.244C76.6501 169.089 77.3427 173.645 76.9427 179.755L76.2854 216.992C85.4149 206.749 89.0132 192.073 84.4488 178.095C82.2985 171.508 78.5915 165.862 73.8669 161.431Z" fill="#617FA8"/>
<path d="M32.1045 146.29C7.72934 154.235 -5.63293 180.512 2.31948 204.865C10.2728 229.221 36.5743 242.568 60.9495 234.623C85.324 226.678 98.6893 200.401 90.736 176.045C82.7829 151.693 56.479 138.345 32.1045 146.29ZM60.2884 232.599C37.031 240.18 11.9347 227.442 4.34648 204.204C-3.24125 180.968 9.5077 155.896 32.7659 148.315C56.0226 140.735 81.1169 153.471 88.7047 176.708C96.2929 199.945 83.5451 225.018 60.2884 232.599Z" fill="#617FA8"/>
<path d="M77.1482 154.653C77.1482 154.653 60.36 152.719 59.605 150.488C58.8499 148.256 72.51 147.577 72.51 147.577" fill="#742A40"/>
<path fill-rule="evenodd" clip-rule="evenodd" d="M60.1384 150.315C60.1568 150.289 60.1953 150.246 60.2708 150.188C60.4949 150.015 60.8935 149.828 61.4653 149.644C62.5927 149.282 64.1908 148.993 65.8451 148.769C67.4918 148.547 69.1649 148.393 70.4283 148.295C71.0594 148.246 71.5872 148.211 71.9569 148.188C72.1418 148.177 72.287 148.168 72.3858 148.163C72.4353 148.16 72.4731 148.158 72.4984 148.157L72.5361 148.155C72.5361 148.155 72.5361 148.155 72.5099 147.577C72.4836 147 72.4835 147 72.4833 147L72.473 147.001L72.443 147.002C72.4167 147.003 72.3779 147.006 72.3274 147.008C72.2265 147.014 72.079 147.022 71.8918 147.034C71.5174 147.057 70.9839 147.092 70.3463 147.142C69.072 147.241 67.3772 147.396 65.7033 147.623C64.037 147.848 62.3616 148.147 61.1401 148.539C60.5375 148.733 59.9928 148.965 59.6143 149.257C59.4232 149.404 59.2387 149.593 59.1266 149.837C59.0059 150.1 58.986 150.393 59.0833 150.681C59.1798 150.966 59.3795 151.186 59.5819 151.355C59.7906 151.528 60.0497 151.685 60.3361 151.829C60.9095 152.116 61.6623 152.385 62.5144 152.636C64.2231 153.14 66.4154 153.595 68.5669 153.977C70.722 154.36 72.8517 154.672 74.4416 154.889C75.2368 154.998 75.8976 155.082 76.3599 155.14C76.591 155.168 76.7726 155.19 76.8965 155.205C76.9585 155.212 77.006 155.218 77.0382 155.222L77.0872 155.228C77.0874 155.228 77.0875 155.228 77.1481 154.653C77.2087 154.078 77.2086 154.078 77.2085 154.078L77.1615 154.073C77.1301 154.069 77.0833 154.064 77.0221 154.056C76.8998 154.042 76.7199 154.02 76.4905 153.991C76.0318 153.934 75.3751 153.85 74.5846 153.743C73.0031 153.527 70.8885 153.217 68.7523 152.837C66.6124 152.457 64.466 152.01 62.8146 151.524C61.9866 151.28 61.304 151.032 60.8147 150.786C60.5698 150.664 60.3908 150.55 60.2707 150.45C60.1926 150.385 60.1551 150.339 60.1384 150.315Z" fill="white"/>
</svg>
