<svg width="1260" height="17" viewBox="0 0 1260 17" fill="none" xmlns="http://www.w3.org/2000/svg">
<path d="M1350 8.25196C1350 4.0689 1345 0.664062 1338.8 0.664062C1332.6 0.664062 1327.6 4.0689 1327.6 8.25196V8.73836C1327.6 12.9214 1322.6 16.3262 1316.4 16.3262C1310.2 16.3262 1305.2 12.9214 1305.2 8.73836V8.25196C1305.2 4.0689 1300.2 0.664062 1294 0.664062C1287.8 0.664062 1282.8 4.0689 1282.8 8.25196V8.73836C1282.8 12.9214 1277.8 16.3262 1271.6 16.3262C1265.4 16.3262 1260.4 12.9214 1260.4 8.73836V8.25196C1260.4 4.0689 1255.4 0.664062 1249.2 0.664062C1243 0.664062 1238 4.0689 1238 8.25196V8.73836C1238 12.9214 1233 16.3262 1226.8 16.3262C1220.6 16.3262 1215.6 12.9214 1215.6 8.73836V8.25196C1215.6 4.0689 1210.6 0.664062 1204.4 0.664062C1198.2 0.664062 1193.2 4.0689 1193.2 8.25196V8.73836C1193.2 12.9214 1188.2 16.3262 1182 16.3262C1175.8 16.3262 1170.8 12.9214 1170.8 8.73836V8.25196C1170.8 4.0689 1165.8 0.664062 1159.6 0.664062C1153.4 0.664062 1148.4 4.0689 1148.4 8.25196V8.73836C1148.4 12.9214 1143.4 16.3262 1137.2 16.3262C1131 16.3262 1126 12.9214 1126 8.73836V8.25196C1126 4.0689 1121 0.664062 1114.8 0.664062C1108.6 0.664062 1103.6 4.0689 1103.6 8.25196V8.73836C1103.6 12.9214 1098.6 16.3262 1092.4 16.3262C1086.2 16.3262 1081.2 12.9214 1081.2 8.73836V8.25196C1081.2 4.0689 1076.2 0.664062 1070 0.664062C1063.8 0.664062 1058.8 4.0689 1058.8 8.25196V8.73836C1058.8 12.9214 1053.8 16.3262 1047.6 16.3262C1041.4 16.3262 1036.4 12.9214 1036.4 8.73836V8.25196C1036.4 4.0689 1031.4 0.664062 1025.2 0.664062C1019 0.664062 1014 4.0689 1014 8.25196V8.73836C1014 12.9214 1009 16.3262 1002.8 16.3262C996.6 16.3262 991.6 12.9214 991.6 8.73836V8.25196C991.6 4.0689 986.6 0.664062 980.4 0.664062C974.2 0.664062 969.2 4.0689 969.2 8.25196V8.73836C969.2 12.9214 964.2 16.3262 958 16.3262C951.8 16.3262 946.8 12.9214 946.8 8.73836V8.25196C946.8 4.0689 941.8 0.664062 935.6 0.664062C929.4 0.664062 924.3 4.0689 924.3 8.25196V8.73836C924.3 12.9214 919.3 16.3262 913.1 16.3262C906.9 16.3262 901.9 12.9214 901.9 8.73836V8.25196C901.9 4.0689 896.9 0.664062 890.7 0.664062C884.5 0.664062 879.5 4.0689 879.5 8.25196V8.73836C879.5 12.9214 874.5 16.3262 868.3 16.3262C862.1 16.3262 857.1 12.9214 857.1 8.73836V8.25196C857.1 4.0689 852.1 0.664062 845.9 0.664062C839.7 0.664062 834.7 4.0689 834.7 8.25196V8.73836C834.7 12.9214 829.7 16.3262 823.5 16.3262C817.3 16.3262 812.3 12.9214 812.3 8.73836V8.25196C812.3 4.0689 807.3 0.664062 801.1 0.664062C794.9 0.664062 789.9 4.0689 789.9 8.25196V8.73836C789.9 12.9214 784.9 16.3262 778.7 16.3262C772.5 16.3262 767.5 12.9214 767.5 8.73836V8.25196C767.5 4.0689 762.5 0.664062 756.3 0.664062C750.1 0.664062 745.1 4.0689 745.1 8.25196V8.73836C745.1 12.9214 740.1 16.3262 733.9 16.3262C727.7 16.3262 722.7 12.9214 722.7 8.73836V8.25196C722.7 4.0689 717.7 0.664062 711.5 0.664062C705.3 0.664062 700.3 4.0689 700.3 8.25196V8.73836C700.3 12.9214 695.3 16.3262 689.1 16.3262C682.9 16.3262 677.9 12.9214 677.9 8.73836V8.25196C677.9 4.0689 672.9 0.664062 666.7 0.664062C660.5 0.664062 655.5 4.0689 655.5 8.25196V8.73836C655.5 12.9214 650.5 16.3262 644.3 16.3262C638.1 16.3262 633.1 12.9214 633.1 8.73836V8.25196C633.1 4.0689 628.1 0.664062 621.9 0.664062C615.7 0.664062 610.7 4.0689 610.7 8.25196V8.73836C610.7 12.9214 605.7 16.3262 599.5 16.3262C593.3 16.3262 588.3 12.9214 588.3 8.73836V8.25196C588.3 4.0689 583.3 0.664062 577.1 0.664062C570.9 0.664062 565.9 4.0689 565.9 8.25196V8.73836C565.9 12.9214 560.9 16.3262 554.7 16.3262C548.5 16.3262 543.5 12.9214 543.5 8.73836V8.25196C543.5 4.0689 538.5 0.664062 532.3 0.664062C526.1 0.664062 521.1 4.0689 521.1 8.25196V8.73836C521.1 12.9214 516.1 16.3262 509.9 16.3262C503.7 16.3262 498.7 12.9214 498.7 8.73836V8.25196C498.7 4.0689 493.7 0.664062 487.5 0.664062C481.3 0.664062 476.3 4.0689 476.3 8.25196V8.73836C476.3 12.9214 471.3 16.3262 465.1 16.3262C458.9 16.3262 453.9 12.9214 453.9 8.73836V8.25196C453.9 4.0689 448.9 0.664062 442.7 0.664062C436.5 0.664062 431.5 4.0689 431.5 8.25196V8.73836C431.5 12.9214 426.5 16.3262 420.3 16.3262C414.1 16.3262 409.1 12.9214 409.1 8.73836V8.25196C409.1 4.0689 404.1 0.664062 397.9 0.664062C391.7 0.664062 386.7 4.0689 386.7 8.25196V8.73836C386.7 12.9214 381.7 16.3262 375.5 16.3262C369.3 16.3262 364.3 12.9214 364.3 8.73836V8.25196C364.3 4.0689 359.3 0.664062 353.1 0.664062C346.9 0.664062 341.9 4.0689 341.9 8.25196V8.73836C341.9 12.9214 336.9 16.3262 330.7 16.3262C324.5 16.3262 319.5 12.9214 319.5 8.73836V8.25196C319.5 4.0689 314.5 0.664062 308.3 0.664062C302.1 0.664062 297.1 4.0689 297.1 8.25196V8.73836C297.1 12.9214 292.1 16.3262 285.9 16.3262C279.7 16.3262 274.7 12.9214 274.7 8.73836V8.25196C274.7 4.0689 269.7 0.664062 263.5 0.664062C257.3 0.664062 252.3 4.0689 252.3 8.25196V8.73836C252.3 12.9214 247.3 16.3262 241.1 16.3262C234.9 16.3262 229.9 12.9214 229.9 8.73836V8.25196C229.9 4.0689 224.9 0.664062 218.7 0.664062C212.5 0.664062 207.5 4.0689 207.5 8.25196V8.73836C207.5 12.9214 202.5 16.3262 196.3 16.3262C190.1 16.3262 185.1 12.9214 185.1 8.73836V8.25196C185.1 4.0689 180.1 0.664062 173.9 0.664062C167.7 0.664062 162.7 4.0689 162.7 8.25196V8.73836C162.7 12.9214 157.7 16.3262 151.5 16.3262C145.3 16.3262 140.3 12.9214 140.3 8.73836V8.25196C140.3 4.0689 135.3 0.664062 129.1 0.664062C122.9 0.664062 117.9 4.0689 117.9 8.25196V8.73836C117.9 12.9214 112.9 16.3262 106.7 16.3262C100.5 16.3262 95.5 12.9214 95.5 8.73836V8.25196C95.5 4.0689 90.5 0.664062 84.3 0.664062C78.1 0.664062 73 4.0689 73 8.25196V8.73836C73 12.9214 68 16.3262 61.8 16.3262C55.6 16.3262 50.6 12.9214 50.6 8.73836V8.25196C50.6 4.0689 45.6 0.664062 39.4 0.664062C33.2 0.664062 28.2 4.0689 28.2 8.25196V8.73836C28.2 12.9214 23.2 16.3262 17 16.3262C10.8 16.3262 5.79997 12.9214 5.79997 8.73836V8.25196C5.79997 4.0689 0.799973 0.664062 -5.40002 0.664062C-11.6 0.664062 -16.6 4.0689 -16.6 8.25196V8.73836C-16.6 12.9214 -21.6 16.3262 -27.8 16.3262C-34 16.3262 -39 12.9214 -39 8.73836V8.25196C-39 4.0689 -44 0.664062 -50.2 0.664062C-56.4 0.664062 -61.5 4.0689 -61.5 8.25196V8.73836C-61.5 12.9214 -66.5 16.3262 -72.7 16.3262C-78.9 16.3262 -83.9 12.9214 -83.9 8.73836" fill="#032349"/>
</svg>
