<svg width="1440" height="96" viewBox="0 0 1440 96" fill="none" xmlns="http://www.w3.org/2000/svg">
<rect x="1440" y="96" width="1440" height="96" transform="rotate(180 1440 96)" fill="white"/>
<path fill-rule="evenodd" clip-rule="evenodd" d="M5.94475e-06 0H60H120L180 1.04907e-05L240 0L300 1.04907e-05L360 0L420 1.04907e-05L480 0L540 1.04907e-05L600 0L660 1.04907e-05L720 0L780 1.04907e-05L840 0L900 1.04907e-05L960 0L1020 1.04907e-05L1080 0L1140 1.04907e-05L1200 0L1260 1.04907e-05L1320 0L1380 1.04907e-05L1440 1.04907e-05V34C1440 17.4315 1426.57 4 1410 4C1393.43 4 1380 17.4315 1380 34C1380 50.5685 1366.57 64 1350 64C1333.43 64 1320 50.5685 1320 34C1320 17.4315 1306.57 4 1290 4C1273.43 4 1260 17.4315 1260 34C1260 50.5685 1246.57 64 1230 64C1213.43 64 1200 50.5685 1200 34C1200 17.4315 1186.57 4 1170 4C1153.43 4 1140 17.4315 1140 34C1140 50.5685 1126.57 64 1110 64C1093.43 64 1080 50.5685 1080 34C1080 17.4315 1066.57 4 1050 4C1033.43 4 1020 17.4315 1020 34C1020 50.5685 1006.57 64 990 64C973.431 64 960 50.5685 960 34C960 17.4315 946.569 4 930 4C913.431 4 900 17.4315 900 34C900 50.5685 886.569 64 870 64C853.431 64 840 50.5685 840 34C840 17.4315 826.569 4 810 4C793.431 4 780 17.4315 780 34C780 50.5685 766.569 64 750 64C733.431 64 720 50.5685 720 34C720 17.4315 706.569 4 690 4C673.431 4 660 17.4315 660 34C660 50.5685 646.569 64 630 64C613.431 64 600 50.5685 600 34C600 17.4315 586.569 4 570 4C553.431 4 540 17.4315 540 34C540 50.5685 526.569 64 510 64C493.431 64 480 50.5685 480 34C480 17.4315 466.569 4 450 4C433.446 4 420.023 17.4081 420 33.9567V34C420 50.5685 406.569 64 390 64C373.431 64 360 50.5685 360 34C360 17.4315 346.569 4 330 4C313.446 4 300.023 17.4081 300 33.9567V34C300 50.5685 286.569 64 270 64C253.431 64 240 50.5685 240 34C240 17.4315 226.569 4 210 4C193.446 4 180.023 17.4081 180 33.9567V34C180 50.5685 166.569 64 150 64C133.431 64 120 50.5685 120 34V33.9784C119.988 17.4198 106.561 4 90 4C73.4459 4 60.0234 17.4081 60 33.9567V34C60 50.5685 46.5686 64 30 64C13.4315 64 5.94475e-06 50.5685 0 34L5.94475e-06 0Z" fill="#FFF5EB"/>
</svg>
