<svg width="1440" height="96" viewBox="0 0 1440 96" fill="none" xmlns="http://www.w3.org/2000/svg">
<rect y="0.000488281" width="1440" height="96" fill="#572638"/>
<path fill-rule="evenodd" clip-rule="evenodd" d="M1320 96.0005L1380 96.0005L1440 96.0005L1440 62.0005C1440 45.4319 1426.57 32.0005 1410 32.0005C1393.43 32.0005 1380 45.4319 1380 62.0005L1380 62.0464C1379.98 78.5938 1366.55 92.0005 1350 92.0005C1333.43 92.0005 1320 78.569 1320 62.0005C1320 45.4319 1306.57 32.0005 1290 32.0005C1273.43 32.0005 1260 45.4319 1260 62.0005L1260 62.0438C1259.98 78.5924 1246.55 92.0005 1230 92.0005C1213.43 92.0005 1200 78.569 1200 62.0005C1200 45.4319 1186.57 32.0005 1170 32.0005C1153.43 32.0005 1140 45.4319 1140 62.0004L1140 62.0437C1139.98 78.5924 1126.55 92.0005 1110 92.0005C1093.43 92.0005 1080 78.569 1080 62.0005C1080 45.4319 1066.57 32.0004 1050 32.0004C1033.43 32.0004 1020 45.4319 1020 62.0004L1020 62.0437C1019.98 78.5924 1006.55 92.0004 990 92.0004C973.431 92.0004 960 78.569 960 62.0004C960 45.4319 946.569 32.0004 930 32.0004C913.431 32.0004 900 45.4319 900 62.0004L900 62.0616C899.967 78.602 886.548 92.0004 870 92.0004C853.431 92.0004 840 78.569 840 62.0004C840 45.4319 826.569 32.0004 810 32.0004C793.431 32.0004 780 45.4319 780 62.0004L780 62.0616C779.967 78.602 766.548 92.0004 750 92.0004C733.431 92.0004 720 78.569 720 62.0004C720 45.4319 706.569 32.0004 690 32.0004C673.431 32.0004 660 45.4319 660 62.0004L660 62.0616C659.967 78.602 646.548 92.0004 630 92.0004C613.431 92.0004 600 78.569 600 62.0004C600 45.4319 586.569 32.0004 570 32.0004C553.431 32.0004 540 45.4319 540 62.0004L540 62.0616C539.967 78.602 526.548 92.0004 510 92.0004C493.431 92.0004 480 78.5689 480 62.0004C480 45.4319 466.569 32.0004 450 32.0004C433.431 32.0004 420 45.4319 420 62.0004L420 62.0616C419.967 78.602 406.548 92.0004 390 92.0004C373.431 92.0004 360 78.5689 360 62.0004C360 45.4318 346.568 32.0004 330 32.0004C313.431 32.0004 300 45.4318 300 62.0004C300 78.5689 286.568 92.0004 270 92.0004C253.431 92.0004 240 78.5689 240 62.0004C240 45.4318 226.568 32.0004 210 32.0004C193.431 32.0004 180 45.4318 180 62.0004C180 78.5689 166.568 92.0004 150 92.0004C133.431 92.0004 120 78.5689 120 62.0004C120 45.4318 106.568 32.0004 90 32.0004C73.4314 32.0004 60 45.4318 60 62.0004C60 78.5689 46.5685 92.0004 30 92.0004C13.4314 92.0004 1.52391e-06 78.5689 2.97237e-06 62.0004L0 96.0004L60 96.0004L120 96.0004L180 96.0004L240 96.0004L300 96.0004L360 96.0004L420 96.0004L480 96.0004L540 96.0004L600 96.0004L660 96.0004L720 96.0004L780 96.0004L840 96.0004L900 96.0004L960 96.0004L1020 96.0004L1080 96.0005L1140 96.0004L1200 96.0005L1260 96.0005L1320 96.0005Z" fill="#742A40"/>
</svg>
