<svg width="451" height="1019" viewBox="0 0 451 1019" fill="none" xmlns="http://www.w3.org/2000/svg">
<path d="M-3.97774e-05 8L11.5 23.6719C18.3442 32.9989 18.3442 45.6886 11.5 55.0156V55.0156C4.65579 64.3427 4.65579 77.0323 11.5 86.3594V86.3594C18.3442 95.6864 18.3442 108.376 11.5 117.703V117.703C4.6558 127.03 4.6558 139.72 11.5 149.047V149.047C18.3442 158.374 18.3442 171.064 11.5 180.391V180.391C4.6558 189.718 4.6558 202.407 11.5 211.734V211.734C18.3442 221.061 18.3442 233.751 11.5 243.078V243.078C4.6558 252.405 4.65581 265.095 11.5 274.422V274.422C18.3442 283.749 18.3442 296.439 11.5 305.766V305.766C4.65583 315.093 4.6558 327.782 11.5 337.109V337.109C18.3442 346.437 18.3442 359.126 11.5 368.453V368.453C4.65581 377.78 4.65581 390.47 11.5 399.797V399.797C18.3442 409.124 18.3442 421.814 11.5 431.141V431.141C4.65581 440.468 4.65581 453.157 11.5 462.484V462.484C18.3442 471.812 18.3442 484.501 11.5 493.828V493.828C4.65581 503.155 4.65581 515.845 11.5 525.172V525.172C18.3442 534.499 18.3442 547.189 11.5 556.516V556.516C4.65581 565.843 4.65581 578.532 11.5 587.859V587.859C18.3442 597.186 18.3442 609.876 11.5 619.203V619.203C4.65582 628.53 4.65582 641.22 11.5 650.547V650.547C18.3442 659.874 18.3442 672.564 11.5 681.891V681.891C4.65582 691.218 4.65582 703.907 11.5 713.234V713.234C18.3442 722.561 18.3442 735.251 11.5 744.578V744.578C4.65582 753.905 4.65582 766.595 11.5 775.922V775.922C18.3442 785.249 18.3442 797.939 11.5 807.266V807.266C4.65582 816.593 4.65582 829.282 11.5 838.609V838.609C18.3442 847.936 18.3442 860.626 11.5 869.953V869.953C4.65583 879.28 4.65583 891.97 11.5 901.297V901.297C18.3442 910.624 18.3442 923.314 11.5 932.641V932.641C4.65583 941.968 4.65583 954.657 11.5 963.984V963.984C18.3442 973.311 18.3442 986.001 11.5 995.328L0 1011" stroke="#D5E2F3" stroke-width="24" stroke-miterlimit="10"/>
<path d="M42 8L53.5 23.6719C60.3442 32.9989 60.3442 45.6886 53.5 55.0156V55.0156C46.6558 64.3427 46.6558 77.0323 53.5 86.3594V86.3594C60.3442 95.6864 60.3442 108.376 53.5 117.703V117.703C46.6558 127.03 46.6558 139.72 53.5 149.047V149.047C60.3442 158.374 60.3442 171.064 53.5 180.391V180.391C46.6558 189.718 46.6558 202.407 53.5 211.734V211.734C60.3442 221.061 60.3442 233.751 53.5 243.078V243.078C46.6558 252.405 46.6558 265.095 53.5 274.422V274.422C60.3442 283.749 60.3442 296.439 53.5 305.766V305.766C46.6558 315.093 46.6558 327.782 53.5 337.109V337.109C60.3442 346.437 60.3442 359.126 53.5 368.453V368.453C46.6558 377.78 46.6558 390.47 53.5 399.797V399.797C60.3442 409.124 60.3442 421.814 53.5 431.141V431.141C46.6558 440.468 46.6558 453.157 53.5 462.484V462.484C60.3442 471.812 60.3442 484.501 53.5 493.828V493.828C46.6558 503.155 46.6558 515.845 53.5 525.172V525.172C60.3442 534.499 60.3442 547.189 53.5 556.516V556.516C46.6558 565.843 46.6558 578.532 53.5 587.859V587.859C60.3442 597.186 60.3442 609.876 53.5 619.203V619.203C46.6558 628.53 46.6558 641.22 53.5 650.547V650.547C60.3442 659.874 60.3442 672.564 53.5 681.891V681.891C46.6558 691.218 46.6558 703.907 53.5 713.234V713.234C60.3442 722.561 60.3442 735.251 53.5 744.578V744.578C46.6558 753.905 46.6558 766.595 53.5 775.922V775.922C60.3442 785.249 60.3442 797.939 53.5 807.266V807.266C46.6558 816.593 46.6558 829.282 53.5 838.609V838.609C60.3442 847.936 60.3442 860.626 53.5 869.953V869.953C46.6558 879.28 46.6558 891.97 53.5 901.297V901.297C60.3442 910.624 60.3442 923.314 53.5 932.641V932.641C46.6558 941.968 46.6558 954.657 53.5 963.984V963.984C60.3442 973.311 60.3442 986.001 53.5 995.328L42 1011" stroke="#D5E2F3" stroke-width="24" stroke-miterlimit="10"/>
<path d="M84 8L96 23.6719C103.081 32.9199 103.081 45.7676 96 55.0156V55.0156C88.9187 64.2637 88.9187 77.1113 96 86.3594V86.3594C103.081 95.6074 103.081 108.455 96 117.703V117.703C88.9187 126.951 88.9187 139.799 96 149.047V149.047C103.081 158.295 103.081 171.143 96 180.391V180.391C88.9187 189.639 88.9187 202.486 96 211.734V211.734C103.081 220.982 103.081 233.83 96 243.078V243.078C88.9187 252.326 88.9187 265.174 96 274.422V274.422C103.081 283.67 103.081 296.518 96 305.766V305.766C88.9188 315.014 88.9187 327.861 96 337.109V337.109C103.081 346.358 103.081 359.205 96 368.453V368.453C88.9187 377.701 88.9187 390.549 96 399.797V399.797C103.081 409.045 103.081 421.893 96 431.141V431.141C88.9187 440.389 88.9187 453.236 96 462.484V462.484C103.081 471.733 103.081 484.58 96 493.828V493.828C88.9187 503.076 88.9187 515.924 96 525.172V525.172C103.081 534.42 103.081 547.268 96 556.516V556.516C88.9187 565.764 88.9187 578.611 96 587.859V587.859C103.081 597.107 103.081 609.955 96 619.203V619.203C88.9187 628.451 88.9187 641.299 96 650.547V650.547C103.081 659.795 103.081 672.643 96 681.891V681.891C88.9187 691.139 88.9187 703.986 96 713.234V713.234C103.081 722.482 103.081 735.33 96 744.578V744.578C88.9187 753.826 88.9187 766.674 96 775.922V775.922C103.081 785.17 103.081 798.018 96 807.266V807.266C88.9187 816.514 88.9187 829.361 96 838.609V838.609C103.081 847.857 103.081 860.705 96 869.953V869.953C88.9187 879.201 88.9187 892.049 96 901.297V901.297C103.081 910.545 103.081 923.393 96 932.641V932.641C88.9187 941.889 88.9187 954.736 96 963.984V963.984C103.081 973.232 103.081 986.08 96 995.328L84 1011" stroke="#D5E2F3" stroke-width="24" stroke-miterlimit="10"/>
<path d="M127 8L138.5 23.6719C145.344 32.9989 145.344 45.6886 138.5 55.0156V55.0156C131.656 64.3427 131.656 77.0323 138.5 86.3594V86.3594C145.344 95.6864 145.344 108.376 138.5 117.703V117.703C131.656 127.03 131.656 139.72 138.5 149.047V149.047C145.344 158.374 145.344 171.064 138.5 180.391V180.391C131.656 189.718 131.656 202.407 138.5 211.734V211.734C145.344 221.061 145.344 233.751 138.5 243.078V243.078C131.656 252.405 131.656 265.095 138.5 274.422V274.422C145.344 283.749 145.344 296.439 138.5 305.766V305.766C131.656 315.093 131.656 327.782 138.5 337.109V337.109C145.344 346.437 145.344 359.126 138.5 368.453V368.453C131.656 377.78 131.656 390.47 138.5 399.797V399.797C145.344 409.124 145.344 421.814 138.5 431.141V431.141C131.656 440.468 131.656 453.157 138.5 462.484V462.484C145.344 471.812 145.344 484.501 138.5 493.828V493.828C131.656 503.155 131.656 515.845 138.5 525.172V525.172C145.344 534.499 145.344 547.189 138.5 556.516V556.516C131.656 565.843 131.656 578.532 138.5 587.859V587.859C145.344 597.186 145.344 609.876 138.5 619.203V619.203C131.656 628.53 131.656 641.22 138.5 650.547V650.547C145.344 659.874 145.344 672.564 138.5 681.891V681.891C131.656 691.218 131.656 703.907 138.5 713.234V713.234C145.344 722.561 145.344 735.251 138.5 744.578V744.578C131.656 753.905 131.656 766.595 138.5 775.922V775.922C145.344 785.249 145.344 797.939 138.5 807.266V807.266C131.656 816.593 131.656 829.282 138.5 838.609V838.609C145.344 847.936 145.344 860.626 138.5 869.953V869.953C131.656 879.28 131.656 891.97 138.5 901.297V901.297C145.344 910.624 145.344 923.314 138.5 932.641V932.641C131.656 941.968 131.656 954.657 138.5 963.984V963.984C145.344 973.311 145.344 986.001 138.5 995.328L127 1011" stroke="#D5E2F3" stroke-width="24" stroke-miterlimit="10"/>
<path d="M169 8L180.5 23.6719C187.344 32.9989 187.344 45.6886 180.5 55.0156V55.0156C173.656 64.3427 173.656 77.0323 180.5 86.3594V86.3594C187.344 95.6864 187.344 108.376 180.5 117.703V117.703C173.656 127.03 173.656 139.72 180.5 149.047V149.047C187.344 158.374 187.344 171.064 180.5 180.391V180.391C173.656 189.718 173.656 202.407 180.5 211.734V211.734C187.344 221.061 187.344 233.751 180.5 243.078V243.078C173.656 252.405 173.656 265.095 180.5 274.422V274.422C187.344 283.749 187.344 296.439 180.5 305.766V305.766C173.656 315.093 173.656 327.782 180.5 337.109V337.109C187.344 346.437 187.344 359.126 180.5 368.453V368.453C173.656 377.78 173.656 390.47 180.5 399.797V399.797C187.344 409.124 187.344 421.814 180.5 431.141V431.141C173.656 440.468 173.656 453.157 180.5 462.484V462.484C187.344 471.812 187.344 484.501 180.5 493.828V493.828C173.656 503.155 173.656 515.845 180.5 525.172V525.172C187.344 534.499 187.344 547.189 180.5 556.516V556.516C173.656 565.843 173.656 578.532 180.5 587.859V587.859C187.344 597.186 187.344 609.876 180.5 619.203V619.203C173.656 628.53 173.656 641.22 180.5 650.547V650.547C187.344 659.874 187.344 672.564 180.5 681.891V681.891C173.656 691.218 173.656 703.907 180.5 713.234V713.234C187.344 722.561 187.344 735.251 180.5 744.578V744.578C173.656 753.905 173.656 766.595 180.5 775.922V775.922C187.344 785.249 187.344 797.939 180.5 807.266V807.266C173.656 816.593 173.656 829.282 180.5 838.609V838.609C187.344 847.936 187.344 860.626 180.5 869.953V869.953C173.656 879.28 173.656 891.97 180.5 901.297V901.297C187.344 910.624 187.344 923.314 180.5 932.641V932.641C173.656 941.968 173.656 954.657 180.5 963.984V963.984C187.344 973.311 187.344 986.001 180.5 995.328L169 1011" stroke="#D5E2F3" stroke-width="24" stroke-miterlimit="10"/>
<path d="M211 8L222.5 23.6719C229.344 32.9989 229.344 45.6886 222.5 55.0156V55.0156C215.656 64.3427 215.656 77.0323 222.5 86.3594V86.3594C229.344 95.6864 229.344 108.376 222.5 117.703V117.703C215.656 127.03 215.656 139.72 222.5 149.047V149.047C229.344 158.374 229.344 171.064 222.5 180.391V180.391C215.656 189.718 215.656 202.407 222.5 211.734V211.734C229.344 221.061 229.344 233.751 222.5 243.078V243.078C215.656 252.405 215.656 265.095 222.5 274.422V274.422C229.344 283.749 229.344 296.439 222.5 305.766V305.766C215.656 315.093 215.656 327.782 222.5 337.109V337.109C229.344 346.437 229.344 359.126 222.5 368.453V368.453C215.656 377.78 215.656 390.47 222.5 399.797V399.797C229.344 409.124 229.344 421.814 222.5 431.141V431.141C215.656 440.468 215.656 453.157 222.5 462.484V462.484C229.344 471.812 229.344 484.501 222.5 493.828V493.828C215.656 503.155 215.656 515.845 222.5 525.172V525.172C229.344 534.499 229.344 547.189 222.5 556.516V556.516C215.656 565.843 215.656 578.532 222.5 587.859V587.859C229.344 597.186 229.344 609.876 222.5 619.203V619.203C215.656 628.53 215.656 641.22 222.5 650.547V650.547C229.344 659.874 229.344 672.564 222.5 681.891V681.891C215.656 691.218 215.656 703.907 222.5 713.234V713.234C229.344 722.561 229.344 735.251 222.5 744.578V744.578C215.656 753.905 215.656 766.595 222.5 775.922V775.922C229.344 785.249 229.344 797.939 222.5 807.266V807.266C215.656 816.593 215.656 829.282 222.5 838.609V838.609C229.344 847.936 229.344 860.626 222.5 869.953V869.953C215.656 879.28 215.656 891.97 222.5 901.297V901.297C229.344 910.624 229.344 923.314 222.5 932.641V932.641C215.656 941.968 215.656 954.657 222.5 963.984V963.984C229.344 973.311 229.344 986.001 222.5 995.328L211 1011" stroke="#D5E2F3" stroke-width="24" stroke-miterlimit="10"/>
<path d="M253 8L265 23.6719C272.081 32.9199 272.081 45.7676 265 55.0156V55.0156C257.919 64.2637 257.919 77.1113 265 86.3594V86.3594C272.081 95.6074 272.081 108.455 265 117.703V117.703C257.919 126.951 257.919 139.799 265 149.047V149.047C272.081 158.295 272.081 171.143 265 180.391V180.391C257.919 189.639 257.919 202.486 265 211.734V211.734C272.081 220.982 272.081 233.83 265 243.078V243.078C257.919 252.326 257.919 265.174 265 274.422V274.422C272.081 283.67 272.081 296.518 265 305.766V305.766C257.919 315.014 257.919 327.861 265 337.109V337.109C272.081 346.358 272.081 359.205 265 368.453V368.453C257.919 377.701 257.919 390.549 265 399.797V399.797C272.081 409.045 272.081 421.893 265 431.141V431.141C257.919 440.389 257.919 453.236 265 462.484V462.484C272.081 471.733 272.081 484.58 265 493.828V493.828C257.919 503.076 257.919 515.924 265 525.172V525.172C272.081 534.42 272.081 547.268 265 556.516V556.516C257.919 565.764 257.919 578.611 265 587.859V587.859C272.081 597.107 272.081 609.955 265 619.203V619.203C257.919 628.451 257.919 641.299 265 650.547V650.547C272.081 659.795 272.081 672.643 265 681.891V681.891C257.919 691.139 257.919 703.986 265 713.234V713.234C272.081 722.482 272.081 735.33 265 744.578V744.578C257.919 753.826 257.919 766.674 265 775.922V775.922C272.081 785.17 272.081 798.018 265 807.266V807.266C257.919 816.514 257.919 829.361 265 838.609V838.609C272.081 847.857 272.081 860.705 265 869.953V869.953C257.919 879.201 257.919 892.049 265 901.297V901.297C272.081 910.545 272.081 923.393 265 932.641V932.641C257.919 941.889 257.919 954.736 265 963.984V963.984C272.081 973.232 272.081 986.08 265 995.328L253 1011" stroke="#D5E2F3" stroke-width="24" stroke-miterlimit="10"/>
<path d="M296 8L307.5 23.6719C314.344 32.9989 314.344 45.6886 307.5 55.0156V55.0156C300.656 64.3427 300.656 77.0323 307.5 86.3594V86.3594C314.344 95.6864 314.344 108.376 307.5 117.703V117.703C300.656 127.03 300.656 139.72 307.5 149.047V149.047C314.344 158.374 314.344 171.064 307.5 180.391V180.391C300.656 189.718 300.656 202.407 307.5 211.734V211.734C314.344 221.061 314.344 233.751 307.5 243.078V243.078C300.656 252.405 300.656 265.095 307.5 274.422V274.422C314.344 283.749 314.344 296.439 307.5 305.766V305.766C300.656 315.093 300.656 327.782 307.5 337.109V337.109C314.344 346.437 314.344 359.126 307.5 368.453V368.453C300.656 377.78 300.656 390.47 307.5 399.797V399.797C314.344 409.124 314.344 421.814 307.5 431.141V431.141C300.656 440.468 300.656 453.157 307.5 462.484V462.484C314.344 471.812 314.344 484.501 307.5 493.828V493.828C300.656 503.155 300.656 515.845 307.5 525.172V525.172C314.344 534.499 314.344 547.189 307.5 556.516V556.516C300.656 565.843 300.656 578.532 307.5 587.859V587.859C314.344 597.186 314.344 609.876 307.5 619.203V619.203C300.656 628.53 300.656 641.22 307.5 650.547V650.547C314.344 659.874 314.344 672.564 307.5 681.891V681.891C300.656 691.218 300.656 703.907 307.5 713.234V713.234C314.344 722.561 314.344 735.251 307.5 744.578V744.578C300.656 753.905 300.656 766.595 307.5 775.922V775.922C314.344 785.249 314.344 797.939 307.5 807.266V807.266C300.656 816.593 300.656 829.282 307.5 838.609V838.609C314.344 847.936 314.344 860.626 307.5 869.953V869.953C300.656 879.28 300.656 891.97 307.5 901.297V901.297C314.344 910.624 314.344 923.314 307.5 932.641V932.641C300.656 941.968 300.656 954.657 307.5 963.984V963.984C314.344 973.311 314.344 986.001 307.5 995.328L296 1011" stroke="#D5E2F3" stroke-width="24" stroke-miterlimit="10"/>
<path d="M338 8L349.5 23.6719C356.344 32.9989 356.344 45.6886 349.5 55.0156V55.0156C342.656 64.3427 342.656 77.0323 349.5 86.3594V86.3594C356.344 95.6864 356.344 108.376 349.5 117.703V117.703C342.656 127.03 342.656 139.72 349.5 149.047V149.047C356.344 158.374 356.344 171.064 349.5 180.391V180.391C342.656 189.718 342.656 202.407 349.5 211.734V211.734C356.344 221.061 356.344 233.751 349.5 243.078V243.078C342.656 252.405 342.656 265.095 349.5 274.422V274.422C356.344 283.749 356.344 296.439 349.5 305.766V305.766C342.656 315.093 342.656 327.782 349.5 337.109V337.109C356.344 346.437 356.344 359.126 349.5 368.453V368.453C342.656 377.78 342.656 390.47 349.5 399.797V399.797C356.344 409.124 356.344 421.814 349.5 431.141V431.141C342.656 440.468 342.656 453.157 349.5 462.484V462.484C356.344 471.812 356.344 484.501 349.5 493.828V493.828C342.656 503.155 342.656 515.845 349.5 525.172V525.172C356.344 534.499 356.344 547.189 349.5 556.516V556.516C342.656 565.843 342.656 578.532 349.5 587.859V587.859C356.344 597.186 356.344 609.876 349.5 619.203V619.203C342.656 628.53 342.656 641.22 349.5 650.547V650.547C356.344 659.874 356.344 672.564 349.5 681.891V681.891C342.656 691.218 342.656 703.907 349.5 713.234V713.234C356.344 722.561 356.344 735.251 349.5 744.578V744.578C342.656 753.905 342.656 766.595 349.5 775.922V775.922C356.344 785.249 356.344 797.939 349.5 807.266V807.266C342.656 816.593 342.656 829.282 349.5 838.609V838.609C356.344 847.936 356.344 860.626 349.5 869.953V869.953C342.656 879.28 342.656 891.97 349.5 901.297V901.297C356.344 910.624 356.344 923.314 349.5 932.641V932.641C342.656 941.968 342.656 954.657 349.5 963.984V963.984C356.344 973.311 356.344 986.001 349.5 995.328L338 1011" stroke="#D5E2F3" stroke-width="24" stroke-miterlimit="10"/>
<path d="M380 8L391.5 23.6719C398.344 32.9989 398.344 45.6886 391.5 55.0156V55.0156C384.656 64.3427 384.656 77.0323 391.5 86.3594V86.3594C398.344 95.6864 398.344 108.376 391.5 117.703V117.703C384.656 127.03 384.656 139.72 391.5 149.047V149.047C398.344 158.374 398.344 171.064 391.5 180.391V180.391C384.656 189.718 384.656 202.407 391.5 211.734V211.734C398.344 221.061 398.344 233.751 391.5 243.078V243.078C384.656 252.405 384.656 265.095 391.5 274.422V274.422C398.344 283.749 398.344 296.439 391.5 305.766V305.766C384.656 315.093 384.656 327.782 391.5 337.109V337.109C398.344 346.437 398.344 359.126 391.5 368.453V368.453C384.656 377.78 384.656 390.47 391.5 399.797V399.797C398.344 409.124 398.344 421.814 391.5 431.141V431.141C384.656 440.468 384.656 453.157 391.5 462.484V462.484C398.344 471.812 398.344 484.501 391.5 493.828V493.828C384.656 503.155 384.656 515.845 391.5 525.172V525.172C398.344 534.499 398.344 547.189 391.5 556.516V556.516C384.656 565.843 384.656 578.532 391.5 587.859V587.859C398.344 597.186 398.344 609.876 391.5 619.203V619.203C384.656 628.53 384.656 641.22 391.5 650.547V650.547C398.344 659.874 398.344 672.564 391.5 681.891V681.891C384.656 691.218 384.656 703.907 391.5 713.234V713.234C398.344 722.561 398.344 735.251 391.5 744.578V744.578C384.656 753.905 384.656 766.595 391.5 775.922V775.922C398.344 785.249 398.344 797.939 391.5 807.266V807.266C384.656 816.593 384.656 829.282 391.5 838.609V838.609C398.344 847.936 398.344 860.626 391.5 869.953V869.953C384.656 879.28 384.656 891.97 391.5 901.297V901.297C398.344 910.624 398.344 923.314 391.5 932.641V932.641C384.656 941.968 384.656 954.657 391.5 963.984V963.984C398.344 973.311 398.344 986.001 391.5 995.328L380 1011" stroke="#D5E2F3" stroke-width="24" stroke-miterlimit="10"/>
<path d="M422 8L433.5 23.6719C440.344 32.9989 440.344 45.6886 433.5 55.0156V55.0156C426.656 64.3427 426.656 77.0323 433.5 86.3594V86.3594C440.344 95.6864 440.344 108.376 433.5 117.703V117.703C426.656 127.03 426.656 139.72 433.5 149.047V149.047C440.344 158.374 440.344 171.064 433.5 180.391V180.391C426.656 189.718 426.656 202.407 433.5 211.734V211.734C440.344 221.061 440.344 233.751 433.5 243.078V243.078C426.656 252.405 426.656 265.095 433.5 274.422V274.422C440.344 283.749 440.344 296.439 433.5 305.766V305.766C426.656 315.093 426.656 327.782 433.5 337.109V337.109C440.344 346.437 440.344 359.126 433.5 368.453V368.453C426.656 377.78 426.656 390.47 433.5 399.797V399.797C440.344 409.124 440.344 421.814 433.5 431.141V431.141C426.656 440.468 426.656 453.157 433.5 462.484V462.484C440.344 471.812 440.344 484.501 433.5 493.828V493.828C426.656 503.155 426.656 515.845 433.5 525.172V525.172C440.344 534.499 440.344 547.189 433.5 556.516V556.516C426.656 565.843 426.656 578.532 433.5 587.859V587.859C440.344 597.186 440.344 609.876 433.5 619.203V619.203C426.656 628.53 426.656 641.22 433.5 650.547V650.547C440.344 659.874 440.344 672.564 433.5 681.891V681.891C426.656 691.218 426.656 703.907 433.5 713.234V713.234C440.344 722.561 440.344 735.251 433.5 744.578V744.578C426.656 753.905 426.656 766.595 433.5 775.922V775.922C440.344 785.249 440.344 797.939 433.5 807.266V807.266C426.656 816.593 426.656 829.282 433.5 838.609V838.609C440.344 847.936 440.344 860.626 433.5 869.953V869.953C426.656 879.28 426.656 891.97 433.5 901.297V901.297C440.344 910.624 440.344 923.314 433.5 932.641V932.641C426.656 941.968 426.656 954.657 433.5 963.984V963.984C440.344 973.311 440.344 986.001 433.5 995.328L422 1011" stroke="#D5E2F3" stroke-width="24" stroke-miterlimit="10"/>
</svg>
