<svg width="461" height="977" viewBox="0 0 461 977" fill="none" xmlns="http://www.w3.org/2000/svg">
<path d="M9.99996 7.99997L21.5 23.0156C28.2859 31.876 28.2859 44.1864 21.5 53.0468V53.0468C14.7141 61.9072 14.7141 74.2177 21.5 83.0781V83.0781C28.2859 91.9385 28.2859 104.249 21.5 113.109V113.109C14.7141 121.97 14.7141 134.28 21.5 143.141V143.141C28.2859 152.001 28.2859 164.311 21.5 173.172V173.172C14.7141 182.032 14.7141 194.343 21.5 203.203V203.203C28.2859 212.063 28.2859 224.374 21.5 233.234V233.234C14.7141 242.095 14.7141 254.405 21.5 263.266V263.266C28.2859 272.126 28.2859 284.436 21.5 293.297V293.297C14.7141 302.157 14.7141 314.468 21.5 323.328V323.328C28.2859 332.189 28.2859 344.499 21.5 353.359V353.359C14.7141 362.22 14.7141 374.53 21.5 383.391V383.391C28.2859 392.251 28.2859 404.562 21.5 413.422V413.422C14.7141 422.282 14.7141 434.593 21.5 443.453V443.453C28.2859 452.314 28.2859 464.624 21.5 473.484V473.484C14.7141 482.345 14.7141 494.655 21.5 503.516V503.516C28.2859 512.376 28.2859 524.687 21.5 533.547V533.547C14.7141 542.407 14.7141 554.718 21.5 563.578V563.578C28.2859 572.439 28.2859 584.749 21.5 593.609V593.609C14.7141 602.47 14.7141 614.78 21.5 623.641V623.641C28.2859 632.501 28.2859 644.812 21.5 653.672V653.672C14.7141 662.532 14.7141 674.843 21.5 683.703V683.703C28.2859 692.564 28.2859 704.874 21.5 713.734V713.734C14.7141 722.595 14.7141 734.905 21.5 743.766V743.766C28.2859 752.626 28.2859 764.937 21.5 773.797V773.797C14.7141 782.657 14.7141 794.968 21.5 803.828V803.828C28.2859 812.689 28.2859 824.999 21.5 833.859V833.859C14.7141 842.72 14.7141 855.03 21.5 863.891V863.891C28.2859 872.751 28.2859 885.061 21.5 893.922V893.922C14.7141 902.782 14.7141 915.093 21.5 923.953V923.953C28.2859 932.814 28.2859 945.124 21.5 953.984L10 969" stroke="#032349" stroke-width="24" stroke-miterlimit="10"/>
<path d="M52 7.99997L63.5 23.0156C70.2859 31.876 70.2859 44.1864 63.5 53.0468V53.0468C56.7141 61.9072 56.7141 74.2177 63.5 83.0781V83.0781C70.2859 91.9385 70.2859 104.249 63.5 113.109V113.109C56.7141 121.97 56.7141 134.28 63.5 143.141V143.141C70.2859 152.001 70.2859 164.311 63.5 173.172V173.172C56.7141 182.032 56.7141 194.343 63.5 203.203V203.203C70.2859 212.063 70.2859 224.374 63.5 233.234V233.234C56.7141 242.095 56.7141 254.405 63.5 263.266V263.266C70.2859 272.126 70.2859 284.436 63.5 293.297V293.297C56.7141 302.157 56.7141 314.468 63.5 323.328V323.328C70.2859 332.189 70.2859 344.499 63.5 353.359V353.359C56.7141 362.22 56.7141 374.53 63.5 383.391V383.391C70.2859 392.251 70.2859 404.562 63.5 413.422V413.422C56.7141 422.282 56.7141 434.593 63.5 443.453V443.453C70.2859 452.314 70.2859 464.624 63.5 473.484V473.484C56.7141 482.345 56.7141 494.655 63.5 503.516V503.516C70.2859 512.376 70.2859 524.687 63.5 533.547V533.547C56.7141 542.407 56.7141 554.718 63.5 563.578V563.578C70.2859 572.439 70.2859 584.749 63.5 593.609V593.609C56.7141 602.47 56.7141 614.78 63.5 623.641V623.641C70.2859 632.501 70.2859 644.812 63.5 653.672V653.672C56.7141 662.532 56.7141 674.843 63.5 683.703V683.703C70.2859 692.564 70.2859 704.874 63.5 713.734V713.734C56.7141 722.595 56.7141 734.905 63.5 743.766V743.766C70.2859 752.626 70.2859 764.937 63.5 773.797V773.797C56.7141 782.657 56.7141 794.968 63.5 803.828V803.828C70.2859 812.689 70.2859 824.999 63.5 833.859V833.859C56.7141 842.72 56.7141 855.03 63.5 863.891V863.891C70.2859 872.751 70.2859 885.061 63.5 893.922V893.922C56.7141 902.782 56.7141 915.093 63.5 923.953V923.953C70.2859 932.814 70.2859 945.124 63.5 953.984L52 969" stroke="#032349" stroke-width="24" stroke-miterlimit="10"/>
<path d="M94 7.99997L106 23.0156C113.017 31.7962 113.017 44.2662 106 53.0468V53.0468C98.9828 61.8275 98.9828 74.2974 106 83.0781V83.0781C113.017 91.8587 113.017 104.329 106 113.109V113.109C98.9828 121.89 98.9828 134.36 106 143.141V143.141C113.017 151.921 113.017 164.391 106 173.172V173.172C98.9828 181.952 98.9828 194.422 106 203.203V203.203C113.017 211.984 113.017 224.454 106 233.234V233.234C98.9828 242.015 98.9828 254.485 106 263.266V263.266C113.017 272.046 113.017 284.516 106 293.297V293.297C98.9828 302.078 98.9828 314.548 106 323.328V323.328C113.017 332.109 113.017 344.579 106 353.359V353.359C98.9828 362.14 98.9828 374.61 106 383.391V383.391C113.017 392.171 113.017 404.641 106 413.422V413.422C98.9828 422.203 98.9828 434.673 106 443.453V443.453C113.017 452.234 113.017 464.704 106 473.484V473.484C98.9828 482.265 98.9828 494.735 106 503.516V503.516C113.017 512.296 113.017 524.766 106 533.547V533.547C98.9828 542.328 98.9828 554.798 106 563.578V563.578C113.017 572.359 113.017 584.829 106 593.609V593.609C98.9828 602.39 98.9828 614.86 106 623.641V623.641C113.017 632.421 113.017 644.891 106 653.672V653.672C98.9828 662.453 98.9828 674.923 106 683.703V683.703C113.017 692.484 113.017 704.954 106 713.734V713.734C98.9828 722.515 98.9828 734.985 106 743.766V743.766C113.017 752.546 113.017 765.016 106 773.797V773.797C98.9828 782.578 98.9828 795.047 106 803.828V803.828C113.017 812.609 113.017 825.079 106 833.859V833.859C98.9828 842.64 98.9828 855.11 106 863.891V863.891C113.017 872.671 113.017 885.141 106 893.922V893.922C98.9828 902.703 98.9828 915.172 106 923.953V923.953C113.017 932.734 113.017 945.204 106 953.984L94 969" stroke="#032349" stroke-width="24" stroke-miterlimit="10"/>
<path d="M137 7.99997L148.5 23.0156C155.286 31.876 155.286 44.1864 148.5 53.0468V53.0468C141.714 61.9072 141.714 74.2177 148.5 83.0781V83.0781C155.286 91.9385 155.286 104.249 148.5 113.109V113.109C141.714 121.97 141.714 134.28 148.5 143.141V143.141C155.286 152.001 155.286 164.311 148.5 173.172V173.172C141.714 182.032 141.714 194.343 148.5 203.203V203.203C155.286 212.063 155.286 224.374 148.5 233.234V233.234C141.714 242.095 141.714 254.405 148.5 263.266V263.266C155.286 272.126 155.286 284.436 148.5 293.297V293.297C141.714 302.157 141.714 314.468 148.5 323.328V323.328C155.286 332.189 155.286 344.499 148.5 353.359V353.359C141.714 362.22 141.714 374.53 148.5 383.391V383.391C155.286 392.251 155.286 404.562 148.5 413.422V413.422C141.714 422.282 141.714 434.593 148.5 443.453V443.453C155.286 452.314 155.286 464.624 148.5 473.484V473.484C141.714 482.345 141.714 494.655 148.5 503.516V503.516C155.286 512.376 155.286 524.687 148.5 533.547V533.547C141.714 542.407 141.714 554.718 148.5 563.578V563.578C155.286 572.439 155.286 584.749 148.5 593.609V593.609C141.714 602.47 141.714 614.78 148.5 623.641V623.641C155.286 632.501 155.286 644.812 148.5 653.672V653.672C141.714 662.532 141.714 674.843 148.5 683.703V683.703C155.286 692.564 155.286 704.874 148.5 713.734V713.734C141.714 722.595 141.714 734.905 148.5 743.766V743.766C155.286 752.626 155.286 764.937 148.5 773.797V773.797C141.714 782.657 141.714 794.968 148.5 803.828V803.828C155.286 812.689 155.286 824.999 148.5 833.859V833.859C141.714 842.72 141.714 855.03 148.5 863.891V863.891C155.286 872.751 155.286 885.061 148.5 893.922V893.922C141.714 902.782 141.714 915.093 148.5 923.953V923.953C155.286 932.814 155.286 945.124 148.5 953.984L137 969" stroke="#032349" stroke-width="24" stroke-miterlimit="10"/>
<path d="M179 7.99997L190.5 23.0156C197.286 31.876 197.286 44.1864 190.5 53.0468V53.0468C183.714 61.9072 183.714 74.2177 190.5 83.0781V83.0781C197.286 91.9385 197.286 104.249 190.5 113.109V113.109C183.714 121.97 183.714 134.28 190.5 143.141V143.141C197.286 152.001 197.286 164.311 190.5 173.172V173.172C183.714 182.032 183.714 194.343 190.5 203.203V203.203C197.286 212.063 197.286 224.374 190.5 233.234V233.234C183.714 242.095 183.714 254.405 190.5 263.266V263.266C197.286 272.126 197.286 284.436 190.5 293.297V293.297C183.714 302.157 183.714 314.468 190.5 323.328V323.328C197.286 332.189 197.286 344.499 190.5 353.359V353.359C183.714 362.22 183.714 374.53 190.5 383.391V383.391C197.286 392.251 197.286 404.562 190.5 413.422V413.422C183.714 422.282 183.714 434.593 190.5 443.453V443.453C197.286 452.314 197.286 464.624 190.5 473.484V473.484C183.714 482.345 183.714 494.655 190.5 503.516V503.516C197.286 512.376 197.286 524.687 190.5 533.547V533.547C183.714 542.407 183.714 554.718 190.5 563.578V563.578C197.286 572.439 197.286 584.749 190.5 593.609V593.609C183.714 602.47 183.714 614.78 190.5 623.641V623.641C197.286 632.501 197.286 644.812 190.5 653.672V653.672C183.714 662.532 183.714 674.843 190.5 683.703V683.703C197.286 692.564 197.286 704.874 190.5 713.734V713.734C183.714 722.595 183.714 734.905 190.5 743.766V743.766C197.286 752.626 197.286 764.937 190.5 773.797V773.797C183.714 782.657 183.714 794.968 190.5 803.828V803.828C197.286 812.689 197.286 824.999 190.5 833.859V833.859C183.714 842.72 183.714 855.03 190.5 863.891V863.891C197.286 872.751 197.286 885.061 190.5 893.922V893.922C183.714 902.782 183.714 915.093 190.5 923.953V923.953C197.286 932.814 197.286 945.124 190.5 953.984L179 969" stroke="#032349" stroke-width="24" stroke-miterlimit="10"/>
<path d="M221 7.99997L232.5 23.0156C239.286 31.876 239.286 44.1864 232.5 53.0468V53.0468C225.714 61.9072 225.714 74.2177 232.5 83.0781V83.0781C239.286 91.9385 239.286 104.249 232.5 113.109V113.109C225.714 121.97 225.714 134.28 232.5 143.141V143.141C239.286 152.001 239.286 164.311 232.5 173.172V173.172C225.714 182.032 225.714 194.343 232.5 203.203V203.203C239.286 212.063 239.286 224.374 232.5 233.234V233.234C225.714 242.095 225.714 254.405 232.5 263.266V263.266C239.286 272.126 239.286 284.436 232.5 293.297V293.297C225.714 302.157 225.714 314.468 232.5 323.328V323.328C239.286 332.189 239.286 344.499 232.5 353.359V353.359C225.714 362.22 225.714 374.53 232.5 383.391V383.391C239.286 392.251 239.286 404.562 232.5 413.422V413.422C225.714 422.282 225.714 434.593 232.5 443.453V443.453C239.286 452.314 239.286 464.624 232.5 473.484V473.484C225.714 482.345 225.714 494.655 232.5 503.516V503.516C239.286 512.376 239.286 524.687 232.5 533.547V533.547C225.714 542.407 225.714 554.718 232.5 563.578V563.578C239.286 572.439 239.286 584.749 232.5 593.609V593.609C225.714 602.47 225.714 614.78 232.5 623.641V623.641C239.286 632.501 239.286 644.812 232.5 653.672V653.672C225.714 662.532 225.714 674.843 232.5 683.703V683.703C239.286 692.564 239.286 704.874 232.5 713.734V713.734C225.714 722.595 225.714 734.905 232.5 743.766V743.766C239.286 752.626 239.286 764.937 232.5 773.797V773.797C225.714 782.657 225.714 794.968 232.5 803.828V803.828C239.286 812.689 239.286 824.999 232.5 833.859V833.859C225.714 842.72 225.714 855.03 232.5 863.891V863.891C239.286 872.751 239.286 885.061 232.5 893.922V893.922C225.714 902.782 225.714 915.093 232.5 923.953V923.953C239.286 932.814 239.286 945.124 232.5 953.984L221 969" stroke="#032349" stroke-width="24" stroke-miterlimit="10"/>
<path d="M263 7.99997L275 23.0156C282.017 31.7962 282.017 44.2662 275 53.0468V53.0468C267.983 61.8275 267.983 74.2974 275 83.0781V83.0781C282.017 91.8587 282.017 104.329 275 113.109V113.109C267.983 121.89 267.983 134.36 275 143.141V143.141C282.017 151.921 282.017 164.391 275 173.172V173.172C267.983 181.952 267.983 194.422 275 203.203V203.203C282.017 211.984 282.017 224.454 275 233.234V233.234C267.983 242.015 267.983 254.485 275 263.266V263.266C282.017 272.046 282.017 284.516 275 293.297V293.297C267.983 302.078 267.983 314.548 275 323.328V323.328C282.017 332.109 282.017 344.579 275 353.359V353.359C267.983 362.14 267.983 374.61 275 383.391V383.391C282.017 392.171 282.017 404.641 275 413.422V413.422C267.983 422.203 267.983 434.673 275 443.453V443.453C282.017 452.234 282.017 464.704 275 473.484V473.484C267.983 482.265 267.983 494.735 275 503.516V503.516C282.017 512.296 282.017 524.766 275 533.547V533.547C267.983 542.328 267.983 554.798 275 563.578V563.578C282.017 572.359 282.017 584.829 275 593.609V593.609C267.983 602.39 267.983 614.86 275 623.641V623.641C282.017 632.421 282.017 644.891 275 653.672V653.672C267.983 662.453 267.983 674.923 275 683.703V683.703C282.017 692.484 282.017 704.954 275 713.734V713.734C267.983 722.515 267.983 734.985 275 743.766V743.766C282.017 752.546 282.017 765.016 275 773.797V773.797C267.983 782.578 267.983 795.047 275 803.828V803.828C282.017 812.609 282.017 825.079 275 833.859V833.859C267.983 842.64 267.983 855.11 275 863.891V863.891C282.017 872.671 282.017 885.141 275 893.922V893.922C267.983 902.703 267.983 915.172 275 923.953V923.953C282.017 932.734 282.017 945.204 275 953.984L263 969" stroke="#032349" stroke-width="24" stroke-miterlimit="10"/>
<path d="M306 7.99997L317.5 23.0156C324.286 31.876 324.286 44.1864 317.5 53.0468V53.0468C310.714 61.9072 310.714 74.2177 317.5 83.0781V83.0781C324.286 91.9385 324.286 104.249 317.5 113.109V113.109C310.714 121.97 310.714 134.28 317.5 143.141V143.141C324.286 152.001 324.286 164.311 317.5 173.172V173.172C310.714 182.032 310.714 194.343 317.5 203.203V203.203C324.286 212.063 324.286 224.374 317.5 233.234V233.234C310.714 242.095 310.714 254.405 317.5 263.266V263.266C324.286 272.126 324.286 284.436 317.5 293.297V293.297C310.714 302.157 310.714 314.468 317.5 323.328V323.328C324.286 332.189 324.286 344.499 317.5 353.359V353.359C310.714 362.22 310.714 374.53 317.5 383.391V383.391C324.286 392.251 324.286 404.562 317.5 413.422V413.422C310.714 422.282 310.714 434.593 317.5 443.453V443.453C324.286 452.314 324.286 464.624 317.5 473.484V473.484C310.714 482.345 310.714 494.655 317.5 503.516V503.516C324.286 512.376 324.286 524.687 317.5 533.547V533.547C310.714 542.407 310.714 554.718 317.5 563.578V563.578C324.286 572.439 324.286 584.749 317.5 593.609V593.609C310.714 602.47 310.714 614.78 317.5 623.641V623.641C324.286 632.501 324.286 644.812 317.5 653.672V653.672C310.714 662.532 310.714 674.843 317.5 683.703V683.703C324.286 692.564 324.286 704.874 317.5 713.734V713.734C310.714 722.595 310.714 734.905 317.5 743.766V743.766C324.286 752.626 324.286 764.937 317.5 773.797V773.797C310.714 782.657 310.714 794.968 317.5 803.828V803.828C324.286 812.689 324.286 824.999 317.5 833.859V833.859C310.714 842.72 310.714 855.03 317.5 863.891V863.891C324.286 872.751 324.286 885.061 317.5 893.922V893.922C310.714 902.782 310.714 915.093 317.5 923.953V923.953C324.286 932.814 324.286 945.124 317.5 953.984L306 969" stroke="#032349" stroke-width="24" stroke-miterlimit="10"/>
<path d="M348 7.99997L359.5 23.0156C366.286 31.876 366.286 44.1864 359.5 53.0468V53.0468C352.714 61.9072 352.714 74.2177 359.5 83.0781V83.0781C366.286 91.9385 366.286 104.249 359.5 113.109V113.109C352.714 121.97 352.714 134.28 359.5 143.141V143.141C366.286 152.001 366.286 164.311 359.5 173.172V173.172C352.714 182.032 352.714 194.343 359.5 203.203V203.203C366.286 212.063 366.286 224.374 359.5 233.234V233.234C352.714 242.095 352.714 254.405 359.5 263.266V263.266C366.286 272.126 366.286 284.436 359.5 293.297V293.297C352.714 302.157 352.714 314.468 359.5 323.328V323.328C366.286 332.189 366.286 344.499 359.5 353.359V353.359C352.714 362.22 352.714 374.53 359.5 383.391V383.391C366.286 392.251 366.286 404.562 359.5 413.422V413.422C352.714 422.282 352.714 434.593 359.5 443.453V443.453C366.286 452.314 366.286 464.624 359.5 473.484V473.484C352.714 482.345 352.714 494.655 359.5 503.516V503.516C366.286 512.376 366.286 524.687 359.5 533.547V533.547C352.714 542.407 352.714 554.718 359.5 563.578V563.578C366.286 572.439 366.286 584.749 359.5 593.609V593.609C352.714 602.47 352.714 614.78 359.5 623.641V623.641C366.286 632.501 366.286 644.812 359.5 653.672V653.672C352.714 662.532 352.714 674.843 359.5 683.703V683.703C366.286 692.564 366.286 704.874 359.5 713.734V713.734C352.714 722.595 352.714 734.905 359.5 743.766V743.766C366.286 752.626 366.286 764.937 359.5 773.797V773.797C352.714 782.657 352.714 794.968 359.5 803.828V803.828C366.286 812.689 366.286 824.999 359.5 833.859V833.859C352.714 842.72 352.714 855.03 359.5 863.891V863.891C366.286 872.751 366.286 885.061 359.5 893.922V893.922C352.714 902.782 352.714 915.093 359.5 923.953V923.953C366.286 932.814 366.286 945.124 359.5 953.984L348 969" stroke="#032349" stroke-width="24" stroke-miterlimit="10"/>
<path d="M390 7.99997L401.5 23.0156C408.286 31.876 408.286 44.1864 401.5 53.0468V53.0468C394.714 61.9072 394.714 74.2177 401.5 83.0781V83.0781C408.286 91.9385 408.286 104.249 401.5 113.109V113.109C394.714 121.97 394.714 134.28 401.5 143.141V143.141C408.286 152.001 408.286 164.311 401.5 173.172V173.172C394.714 182.032 394.714 194.343 401.5 203.203V203.203C408.286 212.063 408.286 224.374 401.5 233.234V233.234C394.714 242.095 394.714 254.405 401.5 263.266V263.266C408.286 272.126 408.286 284.436 401.5 293.297V293.297C394.714 302.157 394.714 314.468 401.5 323.328V323.328C408.286 332.189 408.286 344.499 401.5 353.359V353.359C394.714 362.22 394.714 374.53 401.5 383.391V383.391C408.286 392.251 408.286 404.562 401.5 413.422V413.422C394.714 422.282 394.714 434.593 401.5 443.453V443.453C408.286 452.314 408.286 464.624 401.5 473.484V473.484C394.714 482.345 394.714 494.655 401.5 503.516V503.516C408.286 512.376 408.286 524.687 401.5 533.547V533.547C394.714 542.407 394.714 554.718 401.5 563.578V563.578C408.286 572.439 408.286 584.749 401.5 593.609V593.609C394.714 602.47 394.714 614.78 401.5 623.641V623.641C408.286 632.501 408.286 644.812 401.5 653.672V653.672C394.714 662.532 394.714 674.843 401.5 683.703V683.703C408.286 692.564 408.286 704.874 401.5 713.734V713.734C394.714 722.595 394.714 734.905 401.5 743.766V743.766C408.286 752.626 408.286 764.937 401.5 773.797V773.797C394.714 782.657 394.714 794.968 401.5 803.828V803.828C408.286 812.689 408.286 824.999 401.5 833.859V833.859C394.714 842.72 394.714 855.03 401.5 863.891V863.891C408.286 872.751 408.286 885.061 401.5 893.922V893.922C394.714 902.782 394.714 915.093 401.5 923.953V923.953C408.286 932.814 408.286 945.124 401.5 953.984L390 969" stroke="#032349" stroke-width="24" stroke-miterlimit="10"/>
<path d="M432 7.99997L443.5 23.0156C450.286 31.876 450.286 44.1864 443.5 53.0468V53.0468C436.714 61.9072 436.714 74.2177 443.5 83.0781V83.0781C450.286 91.9385 450.286 104.249 443.5 113.109V113.109C436.714 121.97 436.714 134.28 443.5 143.141V143.141C450.286 152.001 450.286 164.311 443.5 173.172V173.172C436.714 182.032 436.714 194.343 443.5 203.203V203.203C450.286 212.063 450.286 224.374 443.5 233.234V233.234C436.714 242.095 436.714 254.405 443.5 263.266V263.266C450.286 272.126 450.286 284.436 443.5 293.297V293.297C436.714 302.157 436.714 314.468 443.5 323.328V323.328C450.286 332.189 450.286 344.499 443.5 353.359V353.359C436.714 362.22 436.714 374.53 443.5 383.391V383.391C450.286 392.251 450.286 404.562 443.5 413.422V413.422C436.714 422.282 436.714 434.593 443.5 443.453V443.453C450.286 452.314 450.286 464.624 443.5 473.484V473.484C436.714 482.345 436.714 494.655 443.5 503.516V503.516C450.286 512.376 450.286 524.687 443.5 533.547V533.547C436.714 542.407 436.714 554.718 443.5 563.578V563.578C450.286 572.439 450.286 584.749 443.5 593.609V593.609C436.714 602.47 436.714 614.78 443.5 623.641V623.641C450.286 632.501 450.286 644.812 443.5 653.672V653.672C436.714 662.532 436.714 674.843 443.5 683.703V683.703C450.286 692.564 450.286 704.874 443.5 713.734V713.734C436.714 722.595 436.714 734.905 443.5 743.766V743.766C450.286 752.626 450.286 764.937 443.5 773.797V773.797C436.714 782.657 436.714 794.968 443.5 803.828V803.828C450.286 812.689 450.286 824.999 443.5 833.859V833.859C436.714 842.72 436.714 855.03 443.5 863.891V863.891C450.286 872.751 450.286 885.061 443.5 893.922V893.922C436.714 902.782 436.714 915.093 443.5 923.953V923.953C450.286 932.814 450.286 945.124 443.5 953.984L432 969" stroke="#032349" stroke-width="24" stroke-miterlimit="10"/>
</svg>
