<svg width="423" height="1000" viewBox="0 0 423 1000" fill="none" xmlns="http://www.w3.org/2000/svg">
<path d="M415 0L399.375 13.029C390.325 20.5754 377.175 20.5754 368.125 13.029V13.029C359.075 5.48268 345.925 5.48268 336.875 13.029V13.029C327.825 20.5754 314.675 20.5754 305.625 13.029V13.029C296.575 5.48268 283.425 5.48268 274.375 13.029V13.029C265.325 20.5754 252.175 20.5754 243.125 13.029V13.029C234.075 5.48268 220.925 5.48268 211.875 13.029V13.029C202.825 20.5754 189.675 20.5754 180.625 13.029V13.029C171.575 5.48268 158.425 5.48269 149.375 13.029V13.029C140.325 20.5754 127.175 20.5754 118.125 13.029V13.029C109.075 5.48271 95.9248 5.48268 86.8749 13.029V13.029C77.8249 20.5754 64.6748 20.5754 55.6249 13.029V13.029C46.5749 5.48268 33.4248 5.48268 24.3749 13.029V13.029C15.3249 20.5754 2.1748 20.5754 -6.87512 13.029V13.029C-15.925 5.48268 -29.0752 5.48268 -38.1251 13.029V13.029C-47.175 20.5754 -60.3252 20.5754 -69.3751 13.029V13.029C-78.425 5.48268 -91.5752 5.48268 -100.625 13.029V13.029C-109.675 20.5754 -122.825 20.5754 -131.875 13.029V13.029C-140.925 5.48268 -154.075 5.48268 -163.125 13.029V13.029C-172.175 20.5754 -185.325 20.5754 -194.375 13.029V13.029C-203.425 5.48268 -216.575 5.48268 -225.625 13.029V13.029C-234.675 20.5754 -247.825 20.5754 -256.875 13.029V13.029C-265.925 5.48268 -279.075 5.48268 -288.125 13.029V13.029C-297.175 20.5754 -310.325 20.5754 -319.375 13.029V13.029C-328.425 5.48268 -341.575 5.48268 -350.625 13.029V13.029C-359.675 20.5754 -372.825 20.5754 -381.875 13.029V13.029C-390.925 5.48268 -404.075 5.48268 -413.125 13.029V13.029C-422.175 20.5754 -435.325 20.5754 -444.375 13.029V13.029C-453.425 5.48268 -466.575 5.48268 -475.625 13.029V13.029C-484.675 20.5754 -497.825 20.5754 -506.875 13.029V13.029C-515.925 5.48268 -529.075 5.48268 -538.125 13.029V13.029C-547.175 20.5754 -560.325 20.5754 -569.375 13.029L-585 0" stroke="#742A40" stroke-width="24" stroke-miterlimit="10"/>
<path d="M415 47.5171L399.375 60.5461C390.325 68.0925 377.175 68.0925 368.125 60.5461V60.5461C359.075 52.9998 345.925 52.9998 336.875 60.5461V60.5461C327.825 68.0925 314.675 68.0925 305.625 60.5461V60.5461C296.575 52.9998 283.425 52.9998 274.375 60.5461V60.5461C265.325 68.0925 252.175 68.0925 243.125 60.5461V60.5461C234.075 52.9998 220.925 52.9998 211.875 60.5461V60.5461C202.825 68.0925 189.675 68.0925 180.625 60.5461V60.5461C171.575 52.9998 158.425 52.9998 149.375 60.5461V60.5461C140.325 68.0925 127.175 68.0925 118.125 60.5461V60.5461C109.075 52.9998 95.9248 52.9998 86.8749 60.5461V60.5461C77.8249 68.0925 64.6748 68.0925 55.6249 60.5461V60.5461C46.5749 52.9998 33.4248 52.9998 24.3749 60.5461V60.5461C15.3249 68.0925 2.1748 68.0925 -6.87512 60.5461V60.5461C-15.925 52.9998 -29.0752 52.9998 -38.1251 60.5461V60.5461C-47.175 68.0925 -60.3252 68.0925 -69.3751 60.5461V60.5461C-78.425 52.9998 -91.5752 52.9998 -100.625 60.5461V60.5461C-109.675 68.0925 -122.825 68.0925 -131.875 60.5461V60.5461C-140.925 52.9998 -154.075 52.9998 -163.125 60.5461V60.5461C-172.175 68.0925 -185.325 68.0925 -194.375 60.5461V60.5461C-203.425 52.9998 -216.575 52.9998 -225.625 60.5461V60.5461C-234.675 68.0925 -247.825 68.0925 -256.875 60.5461V60.5461C-265.925 52.9998 -279.075 52.9998 -288.125 60.5461V60.5461C-297.175 68.0925 -310.325 68.0925 -319.375 60.5461V60.5461C-328.425 52.9998 -341.575 52.9998 -350.625 60.5461V60.5461C-359.675 68.0925 -372.825 68.0925 -381.875 60.5461V60.5461C-390.925 52.9998 -404.075 52.9998 -413.125 60.5461V60.5461C-422.175 68.0925 -435.325 68.0925 -444.375 60.5461V60.5461C-453.425 52.9998 -466.575 52.9998 -475.625 60.5461V60.5461C-484.675 68.0925 -497.825 68.0925 -506.875 60.5461V60.5461C-515.925 52.9998 -529.075 52.9998 -538.125 60.5461V60.5461C-547.175 68.0925 -560.325 68.0925 -569.375 60.5461L-585 47.5171" stroke="#742A40" stroke-width="24" stroke-miterlimit="10"/>
<path d="M415 95.0356L399.375 108.141C390.337 115.722 377.163 115.722 368.125 108.141V108.141C359.087 100.561 345.913 100.561 336.875 108.141V108.141C327.837 115.722 314.663 115.722 305.625 108.141V108.141C296.587 100.561 283.413 100.561 274.375 108.141V108.141C265.337 115.722 252.163 115.722 243.125 108.141V108.141C234.087 100.561 220.913 100.561 211.875 108.141V108.141C202.837 115.722 189.663 115.722 180.625 108.141V108.141C171.587 100.561 158.413 100.561 149.375 108.141V108.141C140.337 115.722 127.163 115.722 118.125 108.141V108.141C109.087 100.561 95.9124 100.561 86.8749 108.141V108.141C77.8373 115.722 64.6624 115.722 55.6249 108.141V108.141C46.5873 100.561 33.4124 100.561 24.3749 108.141V108.141C15.3373 115.722 2.16245 115.722 -6.87512 108.141V108.141C-15.9127 100.561 -29.0875 100.561 -38.1251 108.141V108.141C-47.1627 115.722 -60.3375 115.722 -69.3751 108.141V108.141C-78.4127 100.561 -91.5875 100.561 -100.625 108.141V108.141C-109.663 115.722 -122.838 115.722 -131.875 108.141V108.141C-140.913 100.561 -154.088 100.561 -163.125 108.141V108.141C-172.163 115.722 -185.338 115.722 -194.375 108.141V108.141C-203.413 100.561 -216.588 100.561 -225.625 108.141V108.141C-234.663 115.722 -247.837 115.722 -256.875 108.141V108.141C-265.913 100.561 -279.087 100.561 -288.125 108.141V108.141C-297.163 115.722 -310.337 115.722 -319.375 108.141V108.141C-328.413 100.561 -341.587 100.561 -350.625 108.141V108.141C-359.663 115.722 -372.837 115.722 -381.875 108.141V108.141C-390.913 100.561 -404.087 100.561 -413.125 108.141V108.141C-422.163 115.722 -435.337 115.722 -444.375 108.141V108.141C-453.413 100.561 -466.587 100.561 -475.625 108.141V108.141C-484.663 115.722 -497.837 115.722 -506.875 108.141V108.141C-515.913 100.561 -529.087 100.561 -538.125 108.141V108.141C-547.163 115.722 -560.337 115.722 -569.375 108.141L-585 95.0356" stroke="#742A40" stroke-width="24" stroke-miterlimit="10"/>
<path d="M415 142.706L399.375 155.735C390.325 163.281 377.175 163.281 368.125 155.735V155.735C359.075 148.189 345.925 148.189 336.875 155.735V155.735C327.825 163.281 314.675 163.281 305.625 155.735V155.735C296.575 148.189 283.425 148.189 274.375 155.735V155.735C265.325 163.281 252.175 163.281 243.125 155.735V155.735C234.075 148.189 220.925 148.189 211.875 155.735V155.735C202.825 163.281 189.675 163.281 180.625 155.735V155.735C171.575 148.189 158.425 148.189 149.375 155.735V155.735C140.325 163.281 127.175 163.281 118.125 155.735V155.735C109.075 148.189 95.9248 148.189 86.8749 155.735V155.735C77.8249 163.281 64.6748 163.281 55.6249 155.735V155.735C46.5749 148.189 33.4248 148.189 24.3749 155.735V155.735C15.3249 163.281 2.1748 163.281 -6.87512 155.735V155.735C-15.925 148.189 -29.0752 148.189 -38.1251 155.735V155.735C-47.175 163.281 -60.3252 163.281 -69.3751 155.735V155.735C-78.425 148.189 -91.5752 148.189 -100.625 155.735V155.735C-109.675 163.281 -122.825 163.281 -131.875 155.735V155.735C-140.925 148.189 -154.075 148.189 -163.125 155.735V155.735C-172.175 163.281 -185.325 163.281 -194.375 155.735V155.735C-203.425 148.189 -216.575 148.189 -225.625 155.735V155.735C-234.675 163.281 -247.825 163.281 -256.875 155.735V155.735C-265.925 148.189 -279.075 148.189 -288.125 155.735V155.735C-297.175 163.281 -310.325 163.281 -319.375 155.735V155.735C-328.425 148.189 -341.575 148.189 -350.625 155.735V155.735C-359.675 163.281 -372.825 163.281 -381.875 155.735V155.735C-390.925 148.189 -404.075 148.189 -413.125 155.735V155.735C-422.175 163.281 -435.325 163.281 -444.375 155.735V155.735C-453.425 148.189 -466.575 148.189 -475.625 155.735V155.735C-484.675 163.281 -497.825 163.281 -506.875 155.735V155.735C-515.925 148.189 -529.075 148.189 -538.125 155.735V155.735C-547.175 163.281 -560.325 163.281 -569.375 155.735L-585 142.706" stroke="#742A40" stroke-width="24" stroke-miterlimit="10"/>
<path d="M415 190.224L399.375 203.253C390.325 210.799 377.175 210.799 368.125 203.253V203.253C359.075 195.706 345.925 195.706 336.875 203.253V203.253C327.825 210.799 314.675 210.799 305.625 203.253V203.253C296.575 195.706 283.425 195.706 274.375 203.253V203.253C265.325 210.799 252.175 210.799 243.125 203.253V203.253C234.075 195.706 220.925 195.706 211.875 203.253V203.253C202.825 210.799 189.675 210.799 180.625 203.253V203.253C171.575 195.706 158.425 195.706 149.375 203.253V203.253C140.325 210.799 127.175 210.799 118.125 203.253V203.253C109.075 195.706 95.9248 195.706 86.8749 203.253V203.253C77.8249 210.799 64.6748 210.799 55.6249 203.253V203.253C46.5749 195.706 33.4248 195.706 24.3749 203.253V203.253C15.3249 210.799 2.1748 210.799 -6.87512 203.253V203.253C-15.925 195.706 -29.0752 195.706 -38.1251 203.253V203.253C-47.175 210.799 -60.3252 210.799 -69.3751 203.253V203.253C-78.425 195.706 -91.5752 195.706 -100.625 203.253V203.253C-109.675 210.799 -122.825 210.799 -131.875 203.253V203.253C-140.925 195.706 -154.075 195.706 -163.125 203.253V203.253C-172.175 210.799 -185.325 210.799 -194.375 203.253V203.253C-203.425 195.706 -216.575 195.706 -225.625 203.253V203.253C-234.675 210.799 -247.825 210.799 -256.875 203.253V203.253C-265.925 195.706 -279.075 195.706 -288.125 203.253V203.253C-297.175 210.799 -310.325 210.799 -319.375 203.253V203.253C-328.425 195.706 -341.575 195.706 -350.625 203.253V203.253C-359.675 210.799 -372.825 210.799 -381.875 203.253V203.253C-390.925 195.706 -404.075 195.706 -413.125 203.253V203.253C-422.175 210.799 -435.325 210.799 -444.375 203.253V203.253C-453.425 195.706 -466.575 195.706 -475.625 203.253V203.253C-484.675 210.799 -497.825 210.799 -506.875 203.253V203.253C-515.925 195.706 -529.075 195.706 -538.125 203.253V203.253C-547.175 210.799 -560.325 210.799 -569.375 203.253L-585 190.224" stroke="#742A40" stroke-width="24" stroke-miterlimit="10"/>
<path d="M415 237.742L399.375 250.847C390.337 258.428 377.163 258.428 368.125 250.847V250.847C359.087 243.267 345.913 243.267 336.875 250.847V250.847C327.837 258.428 314.663 258.428 305.625 250.847V250.847C296.587 243.267 283.413 243.267 274.375 250.847V250.847C265.337 258.428 252.163 258.428 243.125 250.847V250.847C234.087 243.267 220.913 243.267 211.875 250.847V250.847C202.837 258.428 189.663 258.428 180.625 250.847V250.847C171.587 243.267 158.413 243.267 149.375 250.847V250.847C140.337 258.428 127.163 258.428 118.125 250.847V250.847C109.087 243.267 95.9124 243.267 86.8749 250.847V250.847C77.8373 258.428 64.6624 258.428 55.6249 250.847V250.847C46.5873 243.267 33.4124 243.267 24.3749 250.847V250.847C15.3373 258.428 2.16245 258.428 -6.87512 250.847V250.847C-15.9127 243.267 -29.0875 243.267 -38.1251 250.847V250.847C-47.1627 258.428 -60.3375 258.428 -69.3751 250.847V250.847C-78.4127 243.267 -91.5875 243.267 -100.625 250.847V250.847C-109.663 258.428 -122.838 258.428 -131.875 250.847V250.847C-140.913 243.267 -154.088 243.267 -163.125 250.847V250.847C-172.163 258.428 -185.338 258.428 -194.375 250.847V250.847C-203.413 243.267 -216.588 243.267 -225.625 250.847V250.847C-234.663 258.428 -247.837 258.428 -256.875 250.847V250.847C-265.913 243.267 -279.087 243.267 -288.125 250.847V250.847C-297.163 258.428 -310.337 258.428 -319.375 250.847V250.847C-328.413 243.267 -341.587 243.267 -350.625 250.847V250.847C-359.663 258.428 -372.837 258.428 -381.875 250.847V250.847C-390.913 243.267 -404.087 243.267 -413.125 250.847V250.847C-422.163 258.428 -435.337 258.428 -444.375 250.847V250.847C-453.413 243.267 -466.587 243.267 -475.625 250.847V250.847C-484.663 258.428 -497.837 258.428 -506.875 250.847V250.847C-515.913 243.267 -529.087 243.267 -538.125 250.847V250.847C-547.163 258.428 -560.337 258.428 -569.375 250.847L-585 237.742" stroke="#742A40" stroke-width="24" stroke-miterlimit="10"/>
<path d="M415 285.412L399.375 298.441C390.325 305.987 377.175 305.987 368.125 298.441V298.441C359.075 290.894 345.925 290.894 336.875 298.441V298.441C327.825 305.987 314.675 305.987 305.625 298.441V298.441C296.575 290.894 283.425 290.894 274.375 298.441V298.441C265.325 305.987 252.175 305.987 243.125 298.441V298.441C234.075 290.894 220.925 290.894 211.875 298.441V298.441C202.825 305.987 189.675 305.987 180.625 298.441V298.441C171.575 290.894 158.425 290.894 149.375 298.441V298.441C140.325 305.987 127.175 305.987 118.125 298.441V298.441C109.075 290.894 95.9248 290.894 86.8749 298.441V298.441C77.8249 305.987 64.6748 305.987 55.6249 298.441V298.441C46.5749 290.894 33.4248 290.894 24.3749 298.441V298.441C15.3249 305.987 2.1748 305.987 -6.87512 298.441V298.441C-15.925 290.894 -29.0752 290.894 -38.1251 298.441V298.441C-47.175 305.987 -60.3252 305.987 -69.3751 298.441V298.441C-78.425 290.894 -91.5752 290.894 -100.625 298.441V298.441C-109.675 305.987 -122.825 305.987 -131.875 298.441V298.441C-140.925 290.894 -154.075 290.894 -163.125 298.441V298.441C-172.175 305.987 -185.325 305.987 -194.375 298.441V298.441C-203.425 290.894 -216.575 290.894 -225.625 298.441V298.441C-234.675 305.987 -247.825 305.987 -256.875 298.441V298.441C-265.925 290.894 -279.075 290.894 -288.125 298.441V298.441C-297.175 305.987 -310.325 305.987 -319.375 298.441V298.441C-328.425 290.894 -341.575 290.894 -350.625 298.441V298.441C-359.675 305.987 -372.825 305.987 -381.875 298.441V298.441C-390.925 290.894 -404.075 290.894 -413.125 298.441V298.441C-422.175 305.987 -435.325 305.987 -444.375 298.441V298.441C-453.425 290.894 -466.575 290.894 -475.625 298.441V298.441C-484.675 305.987 -497.825 305.987 -506.875 298.441V298.441C-515.925 290.894 -529.075 290.894 -538.125 298.441V298.441C-547.175 305.987 -560.325 305.987 -569.375 298.441L-585 285.412" stroke="#742A40" stroke-width="24" stroke-miterlimit="10"/>
<path d="M415 332.929L399.375 345.958C390.325 353.505 377.175 353.505 368.125 345.958V345.958C359.075 338.412 345.925 338.412 336.875 345.958V345.958C327.825 353.505 314.675 353.505 305.625 345.958V345.958C296.575 338.412 283.425 338.412 274.375 345.958V345.958C265.325 353.505 252.175 353.505 243.125 345.958V345.958C234.075 338.412 220.925 338.412 211.875 345.958V345.958C202.825 353.505 189.675 353.505 180.625 345.958V345.958C171.575 338.412 158.425 338.412 149.375 345.958V345.958C140.325 353.505 127.175 353.505 118.125 345.958V345.958C109.075 338.412 95.9248 338.412 86.8749 345.958V345.958C77.8249 353.505 64.6748 353.505 55.6249 345.958V345.958C46.5749 338.412 33.4248 338.412 24.3749 345.958V345.958C15.3249 353.505 2.1748 353.505 -6.87512 345.958V345.958C-15.925 338.412 -29.0752 338.412 -38.1251 345.958V345.958C-47.175 353.505 -60.3252 353.505 -69.3751 345.958V345.958C-78.425 338.412 -91.5752 338.412 -100.625 345.958V345.958C-109.675 353.505 -122.825 353.505 -131.875 345.958V345.958C-140.925 338.412 -154.075 338.412 -163.125 345.958V345.958C-172.175 353.505 -185.325 353.505 -194.375 345.958V345.958C-203.425 338.412 -216.575 338.412 -225.625 345.958V345.958C-234.675 353.505 -247.825 353.505 -256.875 345.958V345.958C-265.925 338.412 -279.075 338.412 -288.125 345.958V345.958C-297.175 353.505 -310.325 353.505 -319.375 345.958V345.958C-328.425 338.412 -341.575 338.412 -350.625 345.958V345.958C-359.675 353.505 -372.825 353.505 -381.875 345.958V345.958C-390.925 338.412 -404.075 338.412 -413.125 345.958V345.958C-422.175 353.505 -435.325 353.505 -444.375 345.958V345.958C-453.425 338.412 -466.575 338.412 -475.625 345.958V345.958C-484.675 353.505 -497.825 353.505 -506.875 345.958V345.958C-515.925 338.412 -529.075 338.412 -538.125 345.958V345.958C-547.175 353.505 -560.325 353.505 -569.375 345.958L-585 332.929" stroke="#742A40" stroke-width="24" stroke-miterlimit="10"/>
<path d="M415 380.447L399.375 393.553C390.337 401.133 377.163 401.133 368.125 393.553V393.553C359.087 385.973 345.913 385.973 336.875 393.553V393.553C327.837 401.133 314.663 401.133 305.625 393.553V393.553C296.587 385.973 283.413 385.973 274.375 393.553V393.553C265.337 401.133 252.163 401.133 243.125 393.553V393.553C234.087 385.973 220.913 385.973 211.875 393.553V393.553C202.837 401.133 189.663 401.133 180.625 393.553V393.553C171.587 385.973 158.413 385.973 149.375 393.553V393.553C140.337 401.133 127.163 401.133 118.125 393.553V393.553C109.087 385.973 95.9124 385.973 86.8749 393.553V393.553C77.8373 401.133 64.6624 401.133 55.6249 393.553V393.553C46.5873 385.973 33.4124 385.973 24.3749 393.553V393.553C15.3373 401.133 2.16244 401.133 -6.87512 393.553V393.553C-15.9127 385.973 -29.0876 385.973 -38.1251 393.553V393.553C-47.1627 401.133 -60.3375 401.133 -69.3751 393.553V393.553C-78.4127 385.973 -91.5875 385.973 -100.625 393.553V393.553C-109.663 401.133 -122.838 401.133 -131.875 393.553V393.553C-140.913 385.973 -154.088 385.973 -163.125 393.553V393.553C-172.163 401.133 -185.338 401.133 -194.375 393.553V393.553C-203.413 385.973 -216.588 385.973 -225.625 393.553V393.553C-234.663 401.133 -247.838 401.133 -256.875 393.553V393.553C-265.913 385.973 -279.088 385.973 -288.125 393.553V393.553C-297.163 401.133 -310.337 401.133 -319.375 393.553V393.553C-328.413 385.973 -341.587 385.973 -350.625 393.553V393.553C-359.663 401.133 -372.837 401.133 -381.875 393.553V393.553C-390.913 385.973 -404.087 385.973 -413.125 393.553V393.553C-422.163 401.133 -435.337 401.133 -444.375 393.553V393.553C-453.413 385.973 -466.587 385.973 -475.625 393.553V393.553C-484.663 401.133 -497.837 401.133 -506.875 393.553V393.553C-515.913 385.973 -529.087 385.973 -538.125 393.553V393.553C-547.163 401.133 -560.337 401.133 -569.375 393.553L-585 380.447" stroke="#742A40" stroke-width="24" stroke-miterlimit="10"/>
<path d="M415 428.119L399.375 441.148C390.325 448.694 377.175 448.694 368.125 441.148V441.148C359.075 433.601 345.925 433.601 336.875 441.148V441.148C327.825 448.694 314.675 448.694 305.625 441.148V441.148C296.575 433.601 283.425 433.601 274.375 441.148V441.148C265.325 448.694 252.175 448.694 243.125 441.148V441.148C234.075 433.601 220.925 433.601 211.875 441.148V441.148C202.825 448.694 189.675 448.694 180.625 441.148V441.148C171.575 433.601 158.425 433.601 149.375 441.148V441.148C140.325 448.694 127.175 448.694 118.125 441.148V441.148C109.075 433.601 95.9248 433.601 86.8749 441.148V441.148C77.8249 448.694 64.6748 448.694 55.6249 441.148V441.148C46.5749 433.601 33.4248 433.601 24.3749 441.148V441.148C15.3249 448.694 2.1748 448.694 -6.87512 441.148V441.148C-15.925 433.601 -29.0752 433.601 -38.1251 441.148V441.148C-47.175 448.694 -60.3252 448.694 -69.3751 441.148V441.148C-78.425 433.601 -91.5752 433.601 -100.625 441.148V441.148C-109.675 448.694 -122.825 448.694 -131.875 441.148V441.148C-140.925 433.601 -154.075 433.601 -163.125 441.148V441.148C-172.175 448.694 -185.325 448.694 -194.375 441.148V441.148C-203.425 433.601 -216.575 433.601 -225.625 441.148V441.148C-234.675 448.694 -247.825 448.694 -256.875 441.148V441.148C-265.925 433.601 -279.075 433.601 -288.125 441.148V441.148C-297.175 448.694 -310.325 448.694 -319.375 441.148V441.148C-328.425 433.601 -341.575 433.601 -350.625 441.148V441.148C-359.675 448.694 -372.825 448.694 -381.875 441.148V441.148C-390.925 433.601 -404.075 433.601 -413.125 441.148V441.148C-422.175 448.694 -435.325 448.694 -444.375 441.148V441.148C-453.425 433.601 -466.575 433.601 -475.625 441.148V441.148C-484.675 448.694 -497.825 448.694 -506.875 441.148V441.148C-515.925 433.601 -529.075 433.601 -538.125 441.148V441.148C-547.175 448.694 -560.325 448.694 -569.375 441.148L-585 428.119" stroke="#742A40" stroke-width="24" stroke-miterlimit="10"/>
<path d="M415 475.636L399.375 488.741C390.337 496.322 377.163 496.322 368.125 488.741V488.741C359.087 481.161 345.913 481.161 336.875 488.741V488.741C327.837 496.322 314.663 496.322 305.625 488.741V488.741C296.587 481.161 283.413 481.161 274.375 488.741V488.741C265.337 496.322 252.163 496.322 243.125 488.741V488.741C234.087 481.161 220.913 481.161 211.875 488.741V488.741C202.837 496.322 189.663 496.322 180.625 488.741V488.741C171.587 481.161 158.413 481.161 149.375 488.741V488.741C140.337 496.322 127.163 496.322 118.125 488.741V488.741C109.087 481.161 95.9124 481.161 86.8749 488.741V488.741C77.8373 496.322 64.6624 496.322 55.6249 488.741V488.741C46.5873 481.161 33.4124 481.161 24.3749 488.741V488.741C15.3373 496.322 2.16244 496.322 -6.87512 488.741V488.741C-15.9127 481.161 -29.0876 481.161 -38.1251 488.741V488.741C-47.1627 496.322 -60.3375 496.322 -69.3751 488.741V488.741C-78.4127 481.161 -91.5875 481.161 -100.625 488.741V488.741C-109.663 496.322 -122.838 496.322 -131.875 488.741V488.741C-140.913 481.161 -154.088 481.161 -163.125 488.741V488.741C-172.163 496.322 -185.338 496.322 -194.375 488.741V488.741C-203.413 481.161 -216.588 481.161 -225.625 488.741V488.741C-234.663 496.322 -247.838 496.322 -256.875 488.741V488.741C-265.913 481.161 -279.088 481.161 -288.125 488.741V488.741C-297.163 496.322 -310.337 496.322 -319.375 488.741V488.741C-328.413 481.161 -341.587 481.161 -350.625 488.741V488.741C-359.663 496.322 -372.837 496.322 -381.875 488.741V488.741C-390.913 481.161 -404.087 481.161 -413.125 488.741V488.741C-422.163 496.322 -435.337 496.322 -444.375 488.741V488.741C-453.413 481.161 -466.587 481.161 -475.625 488.741V488.741C-484.663 496.322 -497.837 496.322 -506.875 488.741V488.741C-515.913 481.161 -529.087 481.161 -538.125 488.741V488.741C-547.163 496.322 -560.337 496.322 -569.375 488.741L-585 475.636" stroke="#742A40" stroke-width="24" stroke-miterlimit="10"/>
<path d="M415 523.306L399.375 536.335C390.325 543.881 377.175 543.881 368.125 536.335V536.335C359.075 528.788 345.925 528.788 336.875 536.335V536.335C327.825 543.881 314.675 543.881 305.625 536.335V536.335C296.575 528.788 283.425 528.788 274.375 536.335V536.335C265.325 543.881 252.175 543.881 243.125 536.335V536.335C234.075 528.788 220.925 528.788 211.875 536.335V536.335C202.825 543.881 189.675 543.881 180.625 536.335V536.335C171.575 528.788 158.425 528.788 149.375 536.335V536.335C140.325 543.881 127.175 543.881 118.125 536.335V536.335C109.075 528.788 95.9248 528.788 86.8749 536.335V536.335C77.8249 543.881 64.6748 543.881 55.6249 536.335V536.335C46.5749 528.788 33.4248 528.788 24.3749 536.335V536.335C15.3249 543.881 2.1748 543.881 -6.87512 536.335V536.335C-15.925 528.788 -29.0752 528.788 -38.1251 536.335V536.335C-47.175 543.881 -60.3252 543.881 -69.3751 536.335V536.335C-78.425 528.788 -91.5752 528.788 -100.625 536.335V536.335C-109.675 543.881 -122.825 543.881 -131.875 536.335V536.335C-140.925 528.788 -154.075 528.788 -163.125 536.335V536.335C-172.175 543.881 -185.325 543.881 -194.375 536.335V536.335C-203.425 528.788 -216.575 528.788 -225.625 536.335V536.335C-234.675 543.881 -247.825 543.881 -256.875 536.335V536.335C-265.925 528.788 -279.075 528.788 -288.125 536.335V536.335C-297.175 543.881 -310.325 543.881 -319.375 536.335V536.335C-328.425 528.788 -341.575 528.788 -350.625 536.335V536.335C-359.675 543.881 -372.825 543.881 -381.875 536.335V536.335C-390.925 528.788 -404.075 528.788 -413.125 536.335V536.335C-422.175 543.881 -435.325 543.881 -444.375 536.335V536.335C-453.425 528.788 -466.575 528.788 -475.625 536.335V536.335C-484.675 543.881 -497.825 543.881 -506.875 536.335V536.335C-515.925 528.788 -529.075 528.788 -538.125 536.335V536.335C-547.175 543.881 -560.325 543.881 -569.375 536.335L-585 523.306" stroke="#742A40" stroke-width="24" stroke-miterlimit="10"/>
<path d="M415 570.824L399.375 583.853C390.325 591.4 377.175 591.4 368.125 583.853V583.853C359.075 576.307 345.925 576.307 336.875 583.853V583.853C327.825 591.4 314.675 591.4 305.625 583.853V583.853C296.575 576.307 283.425 576.307 274.375 583.853V583.853C265.325 591.4 252.175 591.4 243.125 583.853V583.853C234.075 576.307 220.925 576.307 211.875 583.853V583.853C202.825 591.4 189.675 591.4 180.625 583.853V583.853C171.575 576.307 158.425 576.307 149.375 583.853V583.853C140.325 591.4 127.175 591.4 118.125 583.853V583.853C109.075 576.307 95.9248 576.307 86.8749 583.853V583.853C77.8249 591.4 64.6748 591.4 55.6249 583.853V583.853C46.5749 576.307 33.4248 576.307 24.3749 583.853V583.853C15.3249 591.4 2.1748 591.4 -6.87512 583.853V583.853C-15.925 576.307 -29.0752 576.307 -38.1251 583.853V583.853C-47.175 591.4 -60.3252 591.4 -69.3751 583.853V583.853C-78.425 576.307 -91.5752 576.307 -100.625 583.853V583.853C-109.675 591.4 -122.825 591.4 -131.875 583.853V583.853C-140.925 576.307 -154.075 576.307 -163.125 583.853V583.853C-172.175 591.4 -185.325 591.4 -194.375 583.853V583.853C-203.425 576.307 -216.575 576.307 -225.625 583.853V583.853C-234.675 591.4 -247.825 591.4 -256.875 583.853V583.853C-265.925 576.307 -279.075 576.307 -288.125 583.853V583.853C-297.175 591.4 -310.325 591.4 -319.375 583.853V583.853C-328.425 576.307 -341.575 576.307 -350.625 583.853V583.853C-359.675 591.4 -372.825 591.4 -381.875 583.853V583.853C-390.925 576.307 -404.075 576.307 -413.125 583.853V583.853C-422.175 591.4 -435.325 591.4 -444.375 583.853V583.853C-453.425 576.307 -466.575 576.307 -475.625 583.853V583.853C-484.675 591.4 -497.825 591.4 -506.875 583.853V583.853C-515.925 576.307 -529.075 576.307 -538.125 583.853V583.853C-547.175 591.4 -560.325 591.4 -569.375 583.853L-585 570.824" stroke="#742A40" stroke-width="24" stroke-miterlimit="10"/>
<path d="M415 618.342L399.375 631.448C390.337 639.028 377.163 639.028 368.125 631.448V631.448C359.087 623.867 345.913 623.867 336.875 631.448V631.448C327.837 639.028 314.663 639.028 305.625 631.448V631.448C296.587 623.867 283.413 623.867 274.375 631.448V631.448C265.337 639.028 252.163 639.028 243.125 631.448V631.448C234.087 623.867 220.913 623.867 211.875 631.448V631.448C202.837 639.028 189.663 639.028 180.625 631.448V631.448C171.587 623.867 158.413 623.867 149.375 631.448V631.448C140.337 639.028 127.163 639.028 118.125 631.448V631.448C109.087 623.867 95.9124 623.867 86.8749 631.447V631.447C77.8373 639.028 64.6624 639.028 55.6249 631.448V631.448C46.5873 623.867 33.4124 623.867 24.3749 631.448V631.448C15.3373 639.028 2.16244 639.028 -6.87512 631.448V631.448C-15.9127 623.867 -29.0876 623.867 -38.1251 631.448V631.448C-47.1627 639.028 -60.3375 639.028 -69.3751 631.448V631.448C-78.4127 623.867 -91.5875 623.867 -100.625 631.448V631.448C-109.663 639.028 -122.838 639.028 -131.875 631.448V631.448C-140.913 623.867 -154.088 623.867 -163.125 631.448V631.448C-172.163 639.028 -185.338 639.028 -194.375 631.448V631.448C-203.413 623.867 -216.588 623.867 -225.625 631.448V631.448C-234.663 639.028 -247.838 639.028 -256.875 631.448V631.448C-265.913 623.867 -279.088 623.867 -288.125 631.448V631.448C-297.163 639.028 -310.337 639.028 -319.375 631.448V631.448C-328.413 623.867 -341.587 623.867 -350.625 631.448V631.448C-359.663 639.028 -372.837 639.028 -381.875 631.448V631.448C-390.913 623.867 -404.087 623.867 -413.125 631.448V631.448C-422.163 639.028 -435.337 639.028 -444.375 631.448V631.448C-453.413 623.867 -466.587 623.867 -475.625 631.448V631.448C-484.663 639.028 -497.837 639.028 -506.875 631.448V631.448C-515.913 623.867 -529.087 623.867 -538.125 631.448V631.448C-547.163 639.028 -560.337 639.028 -569.375 631.448L-585 618.342" stroke="#742A40" stroke-width="24" stroke-miterlimit="10"/>
<path d="M415 666.012L399.375 679.041C390.325 686.587 377.175 686.587 368.125 679.041V679.041C359.075 671.494 345.925 671.494 336.875 679.041V679.041C327.825 686.587 314.675 686.587 305.625 679.041V679.041C296.575 671.494 283.425 671.494 274.375 679.041V679.041C265.325 686.587 252.175 686.587 243.125 679.041V679.041C234.075 671.494 220.925 671.494 211.875 679.041V679.041C202.825 686.587 189.675 686.587 180.625 679.041V679.041C171.575 671.494 158.425 671.494 149.375 679.041V679.041C140.325 686.587 127.175 686.587 118.125 679.041V679.041C109.075 671.494 95.9248 671.494 86.8749 679.041V679.041C77.8249 686.587 64.6748 686.587 55.6249 679.041V679.041C46.5749 671.494 33.4248 671.494 24.3749 679.041V679.041C15.3249 686.587 2.1748 686.587 -6.87512 679.041V679.041C-15.925 671.494 -29.0752 671.494 -38.1251 679.041V679.041C-47.175 686.587 -60.3252 686.587 -69.3751 679.041V679.041C-78.425 671.494 -91.5752 671.494 -100.625 679.041V679.041C-109.675 686.587 -122.825 686.587 -131.875 679.041V679.041C-140.925 671.494 -154.075 671.494 -163.125 679.041V679.041C-172.175 686.587 -185.325 686.587 -194.375 679.041V679.041C-203.425 671.494 -216.575 671.494 -225.625 679.041V679.041C-234.675 686.587 -247.825 686.587 -256.875 679.041V679.041C-265.925 671.494 -279.075 671.494 -288.125 679.041V679.041C-297.175 686.587 -310.325 686.587 -319.375 679.041V679.041C-328.425 671.494 -341.575 671.494 -350.625 679.041V679.041C-359.675 686.587 -372.825 686.587 -381.875 679.041V679.041C-390.925 671.494 -404.075 671.494 -413.125 679.041V679.041C-422.175 686.587 -435.325 686.587 -444.375 679.041V679.041C-453.425 671.494 -466.575 671.494 -475.625 679.041V679.041C-484.675 686.587 -497.825 686.587 -506.875 679.041V679.041C-515.925 671.494 -529.075 671.494 -538.125 679.041V679.041C-547.175 686.587 -560.325 686.587 -569.375 679.041L-585 666.012" stroke="#742A40" stroke-width="24" stroke-miterlimit="10"/>
<path d="M415 713.53L399.375 726.559C390.325 734.106 377.175 734.106 368.125 726.559V726.559C359.075 719.013 345.925 719.013 336.875 726.559V726.559C327.825 734.106 314.675 734.106 305.625 726.559V726.559C296.575 719.013 283.425 719.013 274.375 726.559V726.559C265.325 734.106 252.175 734.106 243.125 726.559V726.559C234.075 719.013 220.925 719.013 211.875 726.559V726.559C202.825 734.106 189.675 734.106 180.625 726.559V726.559C171.575 719.013 158.425 719.013 149.375 726.559V726.559C140.325 734.106 127.175 734.106 118.125 726.559V726.559C109.075 719.013 95.9248 719.013 86.8749 726.559V726.559C77.8249 734.106 64.6748 734.106 55.6249 726.559V726.559C46.5749 719.013 33.4248 719.013 24.3749 726.559V726.559C15.3249 734.106 2.1748 734.106 -6.87512 726.559V726.559C-15.925 719.013 -29.0752 719.013 -38.1251 726.559V726.559C-47.175 734.106 -60.3252 734.106 -69.3751 726.559V726.559C-78.425 719.013 -91.5752 719.013 -100.625 726.559V726.559C-109.675 734.106 -122.825 734.106 -131.875 726.559V726.559C-140.925 719.013 -154.075 719.013 -163.125 726.559V726.559C-172.175 734.106 -185.325 734.106 -194.375 726.559V726.559C-203.425 719.013 -216.575 719.013 -225.625 726.559V726.559C-234.675 734.106 -247.825 734.106 -256.875 726.559V726.559C-265.925 719.013 -279.075 719.013 -288.125 726.559V726.559C-297.175 734.106 -310.325 734.106 -319.375 726.559V726.559C-328.425 719.013 -341.575 719.013 -350.625 726.559V726.559C-359.675 734.106 -372.825 734.106 -381.875 726.559V726.559C-390.925 719.013 -404.075 719.013 -413.125 726.559V726.559C-422.175 734.106 -435.325 734.106 -444.375 726.559V726.559C-453.425 719.013 -466.575 719.013 -475.625 726.559V726.559C-484.675 734.106 -497.825 734.106 -506.875 726.559V726.559C-515.925 719.013 -529.075 719.013 -538.125 726.559V726.559C-547.175 734.106 -560.325 734.106 -569.375 726.559L-585 713.53" stroke="#742A40" stroke-width="24" stroke-miterlimit="10"/>
<path d="M415 761.047L399.375 774.153C390.337 781.733 377.163 781.733 368.125 774.153V774.153C359.087 766.573 345.913 766.573 336.875 774.153V774.153C327.837 781.733 314.663 781.733 305.625 774.153V774.153C296.587 766.573 283.413 766.573 274.375 774.153V774.153C265.337 781.733 252.163 781.733 243.125 774.153V774.153C234.087 766.573 220.913 766.573 211.875 774.153V774.153C202.837 781.733 189.663 781.733 180.625 774.153V774.153C171.587 766.573 158.413 766.573 149.375 774.153V774.153C140.337 781.733 127.163 781.733 118.125 774.153V774.153C109.087 766.573 95.9124 766.573 86.8749 774.153V774.153C77.8373 781.733 64.6624 781.733 55.6249 774.153V774.153C46.5873 766.573 33.4124 766.573 24.3749 774.153V774.153C15.3373 781.733 2.16244 781.733 -6.87512 774.153V774.153C-15.9127 766.573 -29.0876 766.573 -38.1251 774.153V774.153C-47.1627 781.733 -60.3375 781.733 -69.3751 774.153V774.153C-78.4127 766.573 -91.5875 766.573 -100.625 774.153V774.153C-109.663 781.733 -122.838 781.733 -131.875 774.153V774.153C-140.913 766.573 -154.088 766.573 -163.125 774.153V774.153C-172.163 781.733 -185.338 781.733 -194.375 774.153V774.153C-203.413 766.573 -216.588 766.573 -225.625 774.153V774.153C-234.663 781.733 -247.838 781.733 -256.875 774.153V774.153C-265.913 766.573 -279.088 766.573 -288.125 774.153V774.153C-297.163 781.733 -310.337 781.733 -319.375 774.153V774.153C-328.413 766.573 -341.587 766.573 -350.625 774.153V774.153C-359.663 781.733 -372.837 781.733 -381.875 774.153V774.153C-390.913 766.573 -404.087 766.573 -413.125 774.153V774.153C-422.163 781.733 -435.337 781.733 -444.375 774.153V774.153C-453.413 766.573 -466.587 766.573 -475.625 774.153V774.153C-484.663 781.733 -497.837 781.733 -506.875 774.153V774.153C-515.913 766.573 -529.087 766.573 -538.125 774.153V774.153C-547.163 781.733 -560.337 781.733 -569.375 774.153L-585 761.047" stroke="#742A40" stroke-width="24" stroke-miterlimit="10"/>
<path d="M415 808.717L399.375 821.746C390.325 829.293 377.175 829.293 368.125 821.746V821.746C359.075 814.2 345.925 814.2 336.875 821.746V821.746C327.825 829.293 314.675 829.293 305.625 821.746V821.746C296.575 814.2 283.425 814.2 274.375 821.746V821.746C265.325 829.293 252.175 829.293 243.125 821.746V821.746C234.075 814.2 220.925 814.2 211.875 821.746V821.746C202.825 829.293 189.675 829.293 180.625 821.746V821.746C171.575 814.2 158.425 814.2 149.375 821.746V821.746C140.325 829.293 127.175 829.293 118.125 821.746V821.746C109.075 814.2 95.9248 814.2 86.8749 821.746V821.746C77.8249 829.293 64.6748 829.293 55.6249 821.746V821.746C46.5749 814.2 33.4248 814.2 24.3749 821.746V821.746C15.3249 829.293 2.1748 829.293 -6.87512 821.746V821.746C-15.925 814.2 -29.0752 814.2 -38.1251 821.746V821.746C-47.175 829.293 -60.3252 829.293 -69.3751 821.746V821.746C-78.425 814.2 -91.5752 814.2 -100.625 821.746V821.746C-109.675 829.293 -122.825 829.293 -131.875 821.746V821.746C-140.925 814.2 -154.075 814.2 -163.125 821.746V821.746C-172.175 829.293 -185.325 829.293 -194.375 821.746V821.746C-203.425 814.2 -216.575 814.2 -225.625 821.746V821.746C-234.675 829.293 -247.825 829.293 -256.875 821.746V821.746C-265.925 814.2 -279.075 814.2 -288.125 821.746V821.746C-297.175 829.293 -310.325 829.293 -319.375 821.746V821.746C-328.425 814.2 -341.575 814.2 -350.625 821.746V821.746C-359.675 829.293 -372.825 829.293 -381.875 821.746V821.746C-390.925 814.2 -404.075 814.2 -413.125 821.746V821.746C-422.175 829.293 -435.325 829.293 -444.375 821.746V821.746C-453.425 814.2 -466.575 814.2 -475.625 821.746V821.746C-484.675 829.293 -497.825 829.293 -506.875 821.746V821.746C-515.925 814.2 -529.075 814.2 -538.125 821.746V821.746C-547.175 829.293 -560.325 829.293 -569.375 821.746L-585 808.717" stroke="#742A40" stroke-width="24" stroke-miterlimit="10"/>
<path d="M415 856.235L399.375 869.264C390.325 876.811 377.175 876.811 368.125 869.264V869.264C359.075 861.718 345.925 861.718 336.875 869.264V869.264C327.825 876.811 314.675 876.811 305.625 869.264V869.264C296.575 861.718 283.425 861.718 274.375 869.264V869.264C265.325 876.811 252.175 876.811 243.125 869.264V869.264C234.075 861.718 220.925 861.718 211.875 869.264V869.264C202.825 876.811 189.675 876.811 180.625 869.264V869.264C171.575 861.718 158.425 861.718 149.375 869.264V869.264C140.325 876.811 127.175 876.811 118.125 869.264V869.264C109.075 861.718 95.9248 861.718 86.8749 869.264V869.264C77.8249 876.811 64.6748 876.811 55.6249 869.264V869.264C46.5749 861.718 33.4248 861.718 24.3749 869.264V869.264C15.3249 876.811 2.1748 876.811 -6.87512 869.264V869.264C-15.925 861.718 -29.0752 861.718 -38.1251 869.264V869.264C-47.175 876.811 -60.3252 876.811 -69.3751 869.264V869.264C-78.425 861.718 -91.5752 861.718 -100.625 869.264V869.264C-109.675 876.811 -122.825 876.811 -131.875 869.264V869.264C-140.925 861.718 -154.075 861.718 -163.125 869.264V869.264C-172.175 876.811 -185.325 876.811 -194.375 869.264V869.264C-203.425 861.718 -216.575 861.718 -225.625 869.264V869.264C-234.675 876.811 -247.825 876.811 -256.875 869.264V869.264C-265.925 861.718 -279.075 861.718 -288.125 869.264V869.264C-297.175 876.811 -310.325 876.811 -319.375 869.264V869.264C-328.425 861.718 -341.575 861.718 -350.625 869.264V869.264C-359.675 876.811 -372.825 876.811 -381.875 869.264V869.264C-390.925 861.718 -404.075 861.718 -413.125 869.264V869.264C-422.175 876.811 -435.325 876.811 -444.375 869.264V869.264C-453.425 861.718 -466.575 861.718 -475.625 869.264V869.264C-484.675 876.811 -497.825 876.811 -506.875 869.264V869.264C-515.925 861.718 -529.075 861.718 -538.125 869.264V869.264C-547.175 876.811 -560.325 876.811 -569.375 869.264L-585 856.235" stroke="#742A40" stroke-width="24" stroke-miterlimit="10"/>
<path d="M415 903.752L399.375 916.781C390.325 924.328 377.175 924.328 368.125 916.781V916.781C359.075 909.235 345.925 909.235 336.875 916.781V916.781C327.825 924.328 314.675 924.328 305.625 916.781V916.781C296.575 909.235 283.425 909.235 274.375 916.781V916.781C265.325 924.328 252.175 924.328 243.125 916.781V916.781C234.075 909.235 220.925 909.235 211.875 916.781V916.781C202.825 924.328 189.675 924.328 180.625 916.781V916.781C171.575 909.235 158.425 909.235 149.375 916.781V916.781C140.325 924.328 127.175 924.328 118.125 916.781V916.781C109.075 909.235 95.9248 909.235 86.8749 916.781V916.781C77.8249 924.328 64.6748 924.328 55.6249 916.781V916.781C46.5749 909.235 33.4248 909.235 24.3749 916.781V916.781C15.3249 924.328 2.1748 924.328 -6.87512 916.781V916.781C-15.925 909.235 -29.0752 909.235 -38.1251 916.781V916.781C-47.175 924.328 -60.3252 924.328 -69.3751 916.781V916.781C-78.425 909.235 -91.5752 909.235 -100.625 916.781V916.781C-109.675 924.328 -122.825 924.328 -131.875 916.781V916.781C-140.925 909.235 -154.075 909.235 -163.125 916.781V916.781C-172.175 924.328 -185.325 924.328 -194.375 916.781V916.781C-203.425 909.235 -216.575 909.235 -225.625 916.781V916.781C-234.675 924.328 -247.825 924.328 -256.875 916.781V916.781C-265.925 909.235 -279.075 909.235 -288.125 916.781V916.781C-297.175 924.328 -310.325 924.328 -319.375 916.781V916.781C-328.425 909.235 -341.575 909.235 -350.625 916.781V916.781C-359.675 924.328 -372.825 924.328 -381.875 916.781V916.781C-390.925 909.235 -404.075 909.235 -413.125 916.781V916.781C-422.175 924.328 -435.325 924.328 -444.375 916.781V916.781C-453.425 909.235 -466.575 909.235 -475.625 916.781V916.781C-484.675 924.328 -497.825 924.328 -506.875 916.781V916.781C-515.925 909.235 -529.075 909.235 -538.125 916.781V916.781C-547.175 924.328 -560.325 924.328 -569.375 916.781L-585 903.752" stroke="#742A40" stroke-width="24" stroke-miterlimit="10"/>
<path d="M415 951.271L399.375 964.301C390.325 971.847 377.175 971.847 368.125 964.301V964.301C359.075 956.754 345.925 956.754 336.875 964.301V964.301C327.825 971.847 314.675 971.847 305.625 964.301V964.301C296.575 956.754 283.425 956.754 274.375 964.301V964.301C265.325 971.847 252.175 971.847 243.125 964.301V964.301C234.075 956.754 220.925 956.754 211.875 964.301V964.301C202.825 971.847 189.675 971.847 180.625 964.301V964.301C171.575 956.754 158.425 956.754 149.375 964.301V964.301C140.325 971.847 127.175 971.847 118.125 964.301V964.301C109.075 956.754 95.9248 956.754 86.8749 964.301V964.301C77.8249 971.847 64.6748 971.847 55.6249 964.301V964.301C46.5749 956.754 33.4248 956.754 24.3749 964.301V964.301C15.3249 971.847 2.1748 971.847 -6.87512 964.301V964.301C-15.925 956.754 -29.0752 956.754 -38.1251 964.301V964.301C-47.175 971.847 -60.3252 971.847 -69.3751 964.301V964.301C-78.425 956.754 -91.5752 956.754 -100.625 964.301V964.301C-109.675 971.847 -122.825 971.847 -131.875 964.301V964.301C-140.925 956.754 -154.075 956.754 -163.125 964.301V964.301C-172.175 971.847 -185.325 971.847 -194.375 964.301V964.301C-203.425 956.754 -216.575 956.754 -225.625 964.301V964.301C-234.675 971.847 -247.825 971.847 -256.875 964.301V964.301C-265.925 956.754 -279.075 956.754 -288.125 964.301V964.301C-297.175 971.847 -310.325 971.847 -319.375 964.301V964.301C-328.425 956.754 -341.575 956.754 -350.625 964.301V964.301C-359.675 971.847 -372.825 971.847 -381.875 964.301V964.301C-390.925 956.754 -404.075 956.754 -413.125 964.301V964.301C-422.175 971.847 -435.325 971.847 -444.375 964.301V964.301C-453.425 956.754 -466.575 956.754 -475.625 964.301V964.301C-484.675 971.847 -497.825 971.847 -506.875 964.301V964.301C-515.925 956.754 -529.075 956.754 -538.125 964.301V964.301C-547.175 971.847 -560.325 971.847 -569.375 964.301L-585 951.271" stroke="#742A40" stroke-width="24" stroke-miterlimit="10"/>
<path d="M415 998.789L399.375 1011.89C390.337 1019.48 377.163 1019.48 368.125 1011.89V1011.89C359.087 1004.31 345.913 1004.31 336.875 1011.89V1011.89C327.837 1019.48 314.663 1019.48 305.625 1011.89V1011.89C296.587 1004.31 283.413 1004.31 274.375 1011.89V1011.89C265.337 1019.48 252.163 1019.48 243.125 1011.89V1011.89C234.087 1004.31 220.913 1004.31 211.875 1011.89V1011.89C202.837 1019.48 189.663 1019.48 180.625 1011.89V1011.89C171.587 1004.31 158.413 1004.31 149.375 1011.89V1011.89C140.337 1019.48 127.163 1019.48 118.125 1011.89V1011.89C109.087 1004.31 95.9124 1004.31 86.8749 1011.89V1011.89C77.8373 1019.48 64.6624 1019.48 55.6249 1011.89V1011.89C46.5873 1004.31 33.4124 1004.31 24.3749 1011.89V1011.89C15.3373 1019.48 2.16245 1019.48 -6.87512 1011.89V1011.89C-15.9127 1004.31 -29.0875 1004.31 -38.1251 1011.89V1011.89C-47.1627 1019.48 -60.3375 1019.48 -69.3751 1011.89V1011.89C-78.4127 1004.31 -91.5875 1004.31 -100.625 1011.89V1011.89C-109.663 1019.48 -122.838 1019.48 -131.875 1011.89V1011.89C-140.913 1004.31 -154.088 1004.31 -163.125 1011.89V1011.89C-172.163 1019.48 -185.338 1019.48 -194.375 1011.89V1011.89C-203.413 1004.31 -216.588 1004.31 -225.625 1011.89V1011.89C-234.663 1019.48 -247.837 1019.48 -256.875 1011.89V1011.89C-265.913 1004.31 -279.087 1004.31 -288.125 1011.89V1011.89C-297.163 1019.48 -310.337 1019.48 -319.375 1011.89V1011.89C-328.413 1004.31 -341.587 1004.31 -350.625 1011.89V1011.89C-359.663 1019.48 -372.837 1019.48 -381.875 1011.89V1011.89C-390.913 1004.31 -404.087 1004.31 -413.125 1011.89V1011.89C-422.163 1019.48 -435.337 1019.48 -444.375 1011.89V1011.89C-453.413 1004.31 -466.587 1004.31 -475.625 1011.89V1011.89C-484.663 1019.48 -497.837 1019.48 -506.875 1011.89V1011.89C-515.913 1004.31 -529.087 1004.31 -538.125 1011.89V1011.89C-547.163 1019.48 -560.337 1019.48 -569.375 1011.89L-585 998.789" stroke="#742A40" stroke-width="24" stroke-miterlimit="10"/>
</svg>
