<svg width="461" height="1019" viewBox="0 0 461 1019" fill="none" xmlns="http://www.w3.org/2000/svg">
<path d="M9.99996 8L21.5 23.6719C28.3442 32.9989 28.3442 45.6886 21.5 55.0156V55.0156C14.6558 64.3427 14.6558 77.0323 21.5 86.3594V86.3594C28.3442 95.6864 28.3442 108.376 21.5 117.703V117.703C14.6558 127.03 14.6558 139.72 21.5 149.047V149.047C28.3442 158.374 28.3442 171.064 21.5 180.391V180.391C14.6558 189.718 14.6558 202.407 21.5 211.734V211.734C28.3442 221.061 28.3442 233.751 21.5 243.078V243.078C14.6558 252.405 14.6558 265.095 21.5 274.422V274.422C28.3442 283.749 28.3442 296.439 21.5 305.766V305.766C14.6558 315.093 14.6558 327.782 21.5 337.109V337.109C28.3442 346.437 28.3442 359.126 21.5 368.453V368.453C14.6558 377.78 14.6558 390.47 21.5 399.797V399.797C28.3442 409.124 28.3442 421.814 21.5 431.141V431.141C14.6558 440.468 14.6558 453.157 21.5 462.484V462.484C28.3442 471.812 28.3442 484.501 21.5 493.828V493.828C14.6558 503.155 14.6558 515.845 21.5 525.172V525.172C28.3442 534.499 28.3442 547.189 21.5 556.516V556.516C14.6558 565.843 14.6558 578.532 21.5 587.859V587.859C28.3442 597.186 28.3442 609.876 21.5 619.203V619.203C14.6558 628.53 14.6558 641.22 21.5 650.547V650.547C28.3442 659.874 28.3442 672.564 21.5 681.891V681.891C14.6558 691.218 14.6558 703.907 21.5 713.234V713.234C28.3442 722.561 28.3442 735.251 21.5 744.578V744.578C14.6558 753.905 14.6558 766.595 21.5 775.922V775.922C28.3442 785.249 28.3442 797.939 21.5 807.266V807.266C14.6558 816.593 14.6558 829.282 21.5 838.609V838.609C28.3442 847.936 28.3442 860.626 21.5 869.953V869.953C14.6558 879.28 14.6558 891.97 21.5 901.297V901.297C28.3442 910.624 28.3442 923.314 21.5 932.641V932.641C14.6558 941.968 14.6558 954.657 21.5 963.984V963.984C28.3442 973.311 28.3442 986.001 21.5 995.328L10 1011" stroke="#FFD2A8" stroke-width="24" stroke-miterlimit="10"/>
<path d="M52 8L63.5 23.6719C70.3442 32.9989 70.3442 45.6886 63.5 55.0156V55.0156C56.6558 64.3427 56.6558 77.0323 63.5 86.3594V86.3594C70.3442 95.6864 70.3442 108.376 63.5 117.703V117.703C56.6558 127.03 56.6558 139.72 63.5 149.047V149.047C70.3442 158.374 70.3442 171.064 63.5 180.391V180.391C56.6558 189.718 56.6558 202.407 63.5 211.734V211.734C70.3442 221.061 70.3442 233.751 63.5 243.078V243.078C56.6558 252.405 56.6558 265.095 63.5 274.422V274.422C70.3442 283.749 70.3442 296.439 63.5 305.766V305.766C56.6558 315.093 56.6558 327.782 63.5 337.109V337.109C70.3442 346.437 70.3442 359.126 63.5 368.453V368.453C56.6558 377.78 56.6558 390.47 63.5 399.797V399.797C70.3442 409.124 70.3442 421.814 63.5 431.141V431.141C56.6558 440.468 56.6558 453.157 63.5 462.484V462.484C70.3442 471.812 70.3442 484.501 63.5 493.828V493.828C56.6558 503.155 56.6558 515.845 63.5 525.172V525.172C70.3442 534.499 70.3442 547.189 63.5 556.516V556.516C56.6558 565.843 56.6558 578.532 63.5 587.859V587.859C70.3442 597.186 70.3442 609.876 63.5 619.203V619.203C56.6558 628.53 56.6558 641.22 63.5 650.547V650.547C70.3442 659.874 70.3442 672.564 63.5 681.891V681.891C56.6558 691.218 56.6558 703.907 63.5 713.234V713.234C70.3442 722.561 70.3442 735.251 63.5 744.578V744.578C56.6558 753.905 56.6558 766.595 63.5 775.922V775.922C70.3442 785.249 70.3442 797.939 63.5 807.266V807.266C56.6558 816.593 56.6558 829.282 63.5 838.609V838.609C70.3442 847.936 70.3442 860.626 63.5 869.953V869.953C56.6558 879.28 56.6558 891.97 63.5 901.297V901.297C70.3442 910.624 70.3442 923.314 63.5 932.641V932.641C56.6558 941.968 56.6558 954.657 63.5 963.984V963.984C70.3442 973.311 70.3442 986.001 63.5 995.328L52 1011" stroke="#FFD2A8" stroke-width="24" stroke-miterlimit="10"/>
<path d="M94 8L106 23.6719C113.081 32.9199 113.081 45.7676 106 55.0156V55.0156C98.9187 64.2637 98.9187 77.1113 106 86.3594V86.3594C113.081 95.6074 113.081 108.455 106 117.703V117.703C98.9187 126.951 98.9187 139.799 106 149.047V149.047C113.081 158.295 113.081 171.143 106 180.391V180.391C98.9187 189.639 98.9187 202.486 106 211.734V211.734C113.081 220.982 113.081 233.83 106 243.078V243.078C98.9187 252.326 98.9187 265.174 106 274.422V274.422C113.081 283.67 113.081 296.518 106 305.766V305.766C98.9188 315.014 98.9187 327.861 106 337.109V337.109C113.081 346.358 113.081 359.205 106 368.453V368.453C98.9187 377.701 98.9187 390.549 106 399.797V399.797C113.081 409.045 113.081 421.893 106 431.141V431.141C98.9187 440.389 98.9187 453.236 106 462.484V462.484C113.081 471.733 113.081 484.58 106 493.828V493.828C98.9187 503.076 98.9187 515.924 106 525.172V525.172C113.081 534.42 113.081 547.268 106 556.516V556.516C98.9187 565.764 98.9187 578.611 106 587.859V587.859C113.081 597.107 113.081 609.955 106 619.203V619.203C98.9187 628.451 98.9187 641.299 106 650.547V650.547C113.081 659.795 113.081 672.643 106 681.891V681.891C98.9187 691.139 98.9187 703.986 106 713.234V713.234C113.081 722.482 113.081 735.33 106 744.578V744.578C98.9187 753.826 98.9187 766.674 106 775.922V775.922C113.081 785.17 113.081 798.018 106 807.266V807.266C98.9187 816.514 98.9187 829.361 106 838.609V838.609C113.081 847.857 113.081 860.705 106 869.953V869.953C98.9187 879.201 98.9187 892.049 106 901.297V901.297C113.081 910.545 113.081 923.393 106 932.641V932.641C98.9187 941.889 98.9187 954.736 106 963.984V963.984C113.081 973.232 113.081 986.08 106 995.328L94 1011" stroke="#FFD2A8" stroke-width="24" stroke-miterlimit="10"/>
<path d="M137 8L148.5 23.6719C155.344 32.9989 155.344 45.6886 148.5 55.0156V55.0156C141.656 64.3427 141.656 77.0323 148.5 86.3594V86.3594C155.344 95.6864 155.344 108.376 148.5 117.703V117.703C141.656 127.03 141.656 139.72 148.5 149.047V149.047C155.344 158.374 155.344 171.064 148.5 180.391V180.391C141.656 189.718 141.656 202.407 148.5 211.734V211.734C155.344 221.061 155.344 233.751 148.5 243.078V243.078C141.656 252.405 141.656 265.095 148.5 274.422V274.422C155.344 283.749 155.344 296.439 148.5 305.766V305.766C141.656 315.093 141.656 327.782 148.5 337.109V337.109C155.344 346.437 155.344 359.126 148.5 368.453V368.453C141.656 377.78 141.656 390.47 148.5 399.797V399.797C155.344 409.124 155.344 421.814 148.5 431.141V431.141C141.656 440.468 141.656 453.157 148.5 462.484V462.484C155.344 471.812 155.344 484.501 148.5 493.828V493.828C141.656 503.155 141.656 515.845 148.5 525.172V525.172C155.344 534.499 155.344 547.189 148.5 556.516V556.516C141.656 565.843 141.656 578.532 148.5 587.859V587.859C155.344 597.186 155.344 609.876 148.5 619.203V619.203C141.656 628.53 141.656 641.22 148.5 650.547V650.547C155.344 659.874 155.344 672.564 148.5 681.891V681.891C141.656 691.218 141.656 703.907 148.5 713.234V713.234C155.344 722.561 155.344 735.251 148.5 744.578V744.578C141.656 753.905 141.656 766.595 148.5 775.922V775.922C155.344 785.249 155.344 797.939 148.5 807.266V807.266C141.656 816.593 141.656 829.282 148.5 838.609V838.609C155.344 847.936 155.344 860.626 148.5 869.953V869.953C141.656 879.28 141.656 891.97 148.5 901.297V901.297C155.344 910.624 155.344 923.314 148.5 932.641V932.641C141.656 941.968 141.656 954.657 148.5 963.984V963.984C155.344 973.311 155.344 986.001 148.5 995.328L137 1011" stroke="#FFD2A8" stroke-width="24" stroke-miterlimit="10"/>
<path d="M179 8L190.5 23.6719C197.344 32.9989 197.344 45.6886 190.5 55.0156V55.0156C183.656 64.3427 183.656 77.0323 190.5 86.3594V86.3594C197.344 95.6864 197.344 108.376 190.5 117.703V117.703C183.656 127.03 183.656 139.72 190.5 149.047V149.047C197.344 158.374 197.344 171.064 190.5 180.391V180.391C183.656 189.718 183.656 202.407 190.5 211.734V211.734C197.344 221.061 197.344 233.751 190.5 243.078V243.078C183.656 252.405 183.656 265.095 190.5 274.422V274.422C197.344 283.749 197.344 296.439 190.5 305.766V305.766C183.656 315.093 183.656 327.782 190.5 337.109V337.109C197.344 346.437 197.344 359.126 190.5 368.453V368.453C183.656 377.78 183.656 390.47 190.5 399.797V399.797C197.344 409.124 197.344 421.814 190.5 431.141V431.141C183.656 440.468 183.656 453.157 190.5 462.484V462.484C197.344 471.812 197.344 484.501 190.5 493.828V493.828C183.656 503.155 183.656 515.845 190.5 525.172V525.172C197.344 534.499 197.344 547.189 190.5 556.516V556.516C183.656 565.843 183.656 578.532 190.5 587.859V587.859C197.344 597.186 197.344 609.876 190.5 619.203V619.203C183.656 628.53 183.656 641.22 190.5 650.547V650.547C197.344 659.874 197.344 672.564 190.5 681.891V681.891C183.656 691.218 183.656 703.907 190.5 713.234V713.234C197.344 722.561 197.344 735.251 190.5 744.578V744.578C183.656 753.905 183.656 766.595 190.5 775.922V775.922C197.344 785.249 197.344 797.939 190.5 807.266V807.266C183.656 816.593 183.656 829.282 190.5 838.609V838.609C197.344 847.936 197.344 860.626 190.5 869.953V869.953C183.656 879.28 183.656 891.97 190.5 901.297V901.297C197.344 910.624 197.344 923.314 190.5 932.641V932.641C183.656 941.968 183.656 954.657 190.5 963.984V963.984C197.344 973.311 197.344 986.001 190.5 995.328L179 1011" stroke="#FFD2A8" stroke-width="24" stroke-miterlimit="10"/>
<path d="M221 8L232.5 23.6719C239.344 32.9989 239.344 45.6886 232.5 55.0156V55.0156C225.656 64.3427 225.656 77.0323 232.5 86.3594V86.3594C239.344 95.6864 239.344 108.376 232.5 117.703V117.703C225.656 127.03 225.656 139.72 232.5 149.047V149.047C239.344 158.374 239.344 171.064 232.5 180.391V180.391C225.656 189.718 225.656 202.407 232.5 211.734V211.734C239.344 221.061 239.344 233.751 232.5 243.078V243.078C225.656 252.405 225.656 265.095 232.5 274.422V274.422C239.344 283.749 239.344 296.439 232.5 305.766V305.766C225.656 315.093 225.656 327.782 232.5 337.109V337.109C239.344 346.437 239.344 359.126 232.5 368.453V368.453C225.656 377.78 225.656 390.47 232.5 399.797V399.797C239.344 409.124 239.344 421.814 232.5 431.141V431.141C225.656 440.468 225.656 453.157 232.5 462.484V462.484C239.344 471.812 239.344 484.501 232.5 493.828V493.828C225.656 503.155 225.656 515.845 232.5 525.172V525.172C239.344 534.499 239.344 547.189 232.5 556.516V556.516C225.656 565.843 225.656 578.532 232.5 587.859V587.859C239.344 597.186 239.344 609.876 232.5 619.203V619.203C225.656 628.53 225.656 641.22 232.5 650.547V650.547C239.344 659.874 239.344 672.564 232.5 681.891V681.891C225.656 691.218 225.656 703.907 232.5 713.234V713.234C239.344 722.561 239.344 735.251 232.5 744.578V744.578C225.656 753.905 225.656 766.595 232.5 775.922V775.922C239.344 785.249 239.344 797.939 232.5 807.266V807.266C225.656 816.593 225.656 829.282 232.5 838.609V838.609C239.344 847.936 239.344 860.626 232.5 869.953V869.953C225.656 879.28 225.656 891.97 232.5 901.297V901.297C239.344 910.624 239.344 923.314 232.5 932.641V932.641C225.656 941.968 225.656 954.657 232.5 963.984V963.984C239.344 973.311 239.344 986.001 232.5 995.328L221 1011" stroke="#FFD2A8" stroke-width="24" stroke-miterlimit="10"/>
<path d="M263 8L275 23.6719C282.081 32.9199 282.081 45.7676 275 55.0156V55.0156C267.919 64.2637 267.919 77.1113 275 86.3594V86.3594C282.081 95.6074 282.081 108.455 275 117.703V117.703C267.919 126.951 267.919 139.799 275 149.047V149.047C282.081 158.295 282.081 171.143 275 180.391V180.391C267.919 189.639 267.919 202.486 275 211.734V211.734C282.081 220.982 282.081 233.83 275 243.078V243.078C267.919 252.326 267.919 265.174 275 274.422V274.422C282.081 283.67 282.081 296.518 275 305.766V305.766C267.919 315.014 267.919 327.861 275 337.109V337.109C282.081 346.358 282.081 359.205 275 368.453V368.453C267.919 377.701 267.919 390.549 275 399.797V399.797C282.081 409.045 282.081 421.893 275 431.141V431.141C267.919 440.389 267.919 453.236 275 462.484V462.484C282.081 471.733 282.081 484.58 275 493.828V493.828C267.919 503.076 267.919 515.924 275 525.172V525.172C282.081 534.42 282.081 547.268 275 556.516V556.516C267.919 565.764 267.919 578.611 275 587.859V587.859C282.081 597.107 282.081 609.955 275 619.203V619.203C267.919 628.451 267.919 641.299 275 650.547V650.547C282.081 659.795 282.081 672.643 275 681.891V681.891C267.919 691.139 267.919 703.986 275 713.234V713.234C282.081 722.482 282.081 735.33 275 744.578V744.578C267.919 753.826 267.919 766.674 275 775.922V775.922C282.081 785.17 282.081 798.018 275 807.266V807.266C267.919 816.514 267.919 829.361 275 838.609V838.609C282.081 847.857 282.081 860.705 275 869.953V869.953C267.919 879.201 267.919 892.049 275 901.297V901.297C282.081 910.545 282.081 923.393 275 932.641V932.641C267.919 941.889 267.919 954.736 275 963.984V963.984C282.081 973.232 282.081 986.08 275 995.328L263 1011" stroke="#FFD2A8" stroke-width="24" stroke-miterlimit="10"/>
<path d="M306 8L317.5 23.6719C324.344 32.9989 324.344 45.6886 317.5 55.0156V55.0156C310.656 64.3427 310.656 77.0323 317.5 86.3594V86.3594C324.344 95.6864 324.344 108.376 317.5 117.703V117.703C310.656 127.03 310.656 139.72 317.5 149.047V149.047C324.344 158.374 324.344 171.064 317.5 180.391V180.391C310.656 189.718 310.656 202.407 317.5 211.734V211.734C324.344 221.061 324.344 233.751 317.5 243.078V243.078C310.656 252.405 310.656 265.095 317.5 274.422V274.422C324.344 283.749 324.344 296.439 317.5 305.766V305.766C310.656 315.093 310.656 327.782 317.5 337.109V337.109C324.344 346.437 324.344 359.126 317.5 368.453V368.453C310.656 377.78 310.656 390.47 317.5 399.797V399.797C324.344 409.124 324.344 421.814 317.5 431.141V431.141C310.656 440.468 310.656 453.157 317.5 462.484V462.484C324.344 471.812 324.344 484.501 317.5 493.828V493.828C310.656 503.155 310.656 515.845 317.5 525.172V525.172C324.344 534.499 324.344 547.189 317.5 556.516V556.516C310.656 565.843 310.656 578.532 317.5 587.859V587.859C324.344 597.186 324.344 609.876 317.5 619.203V619.203C310.656 628.53 310.656 641.22 317.5 650.547V650.547C324.344 659.874 324.344 672.564 317.5 681.891V681.891C310.656 691.218 310.656 703.907 317.5 713.234V713.234C324.344 722.561 324.344 735.251 317.5 744.578V744.578C310.656 753.905 310.656 766.595 317.5 775.922V775.922C324.344 785.249 324.344 797.939 317.5 807.266V807.266C310.656 816.593 310.656 829.282 317.5 838.609V838.609C324.344 847.936 324.344 860.626 317.5 869.953V869.953C310.656 879.28 310.656 891.97 317.5 901.297V901.297C324.344 910.624 324.344 923.314 317.5 932.641V932.641C310.656 941.968 310.656 954.657 317.5 963.984V963.984C324.344 973.311 324.344 986.001 317.5 995.328L306 1011" stroke="#FFD2A8" stroke-width="24" stroke-miterlimit="10"/>
<path d="M348 8L359.5 23.6719C366.344 32.9989 366.344 45.6886 359.5 55.0156V55.0156C352.656 64.3427 352.656 77.0323 359.5 86.3594V86.3594C366.344 95.6864 366.344 108.376 359.5 117.703V117.703C352.656 127.03 352.656 139.72 359.5 149.047V149.047C366.344 158.374 366.344 171.064 359.5 180.391V180.391C352.656 189.718 352.656 202.407 359.5 211.734V211.734C366.344 221.061 366.344 233.751 359.5 243.078V243.078C352.656 252.405 352.656 265.095 359.5 274.422V274.422C366.344 283.749 366.344 296.439 359.5 305.766V305.766C352.656 315.093 352.656 327.782 359.5 337.109V337.109C366.344 346.437 366.344 359.126 359.5 368.453V368.453C352.656 377.78 352.656 390.47 359.5 399.797V399.797C366.344 409.124 366.344 421.814 359.5 431.141V431.141C352.656 440.468 352.656 453.157 359.5 462.484V462.484C366.344 471.812 366.344 484.501 359.5 493.828V493.828C352.656 503.155 352.656 515.845 359.5 525.172V525.172C366.344 534.499 366.344 547.189 359.5 556.516V556.516C352.656 565.843 352.656 578.532 359.5 587.859V587.859C366.344 597.186 366.344 609.876 359.5 619.203V619.203C352.656 628.53 352.656 641.22 359.5 650.547V650.547C366.344 659.874 366.344 672.564 359.5 681.891V681.891C352.656 691.218 352.656 703.907 359.5 713.234V713.234C366.344 722.561 366.344 735.251 359.5 744.578V744.578C352.656 753.905 352.656 766.595 359.5 775.922V775.922C366.344 785.249 366.344 797.939 359.5 807.266V807.266C352.656 816.593 352.656 829.282 359.5 838.609V838.609C366.344 847.936 366.344 860.626 359.5 869.953V869.953C352.656 879.28 352.656 891.97 359.5 901.297V901.297C366.344 910.624 366.344 923.314 359.5 932.641V932.641C352.656 941.968 352.656 954.657 359.5 963.984V963.984C366.344 973.311 366.344 986.001 359.5 995.328L348 1011" stroke="#FFD2A8" stroke-width="24" stroke-miterlimit="10"/>
<path d="M390 8L401.5 23.6719C408.344 32.9989 408.344 45.6886 401.5 55.0156V55.0156C394.656 64.3427 394.656 77.0323 401.5 86.3594V86.3594C408.344 95.6864 408.344 108.376 401.5 117.703V117.703C394.656 127.03 394.656 139.72 401.5 149.047V149.047C408.344 158.374 408.344 171.064 401.5 180.391V180.391C394.656 189.718 394.656 202.407 401.5 211.734V211.734C408.344 221.061 408.344 233.751 401.5 243.078V243.078C394.656 252.405 394.656 265.095 401.5 274.422V274.422C408.344 283.749 408.344 296.439 401.5 305.766V305.766C394.656 315.093 394.656 327.782 401.5 337.109V337.109C408.344 346.437 408.344 359.126 401.5 368.453V368.453C394.656 377.78 394.656 390.47 401.5 399.797V399.797C408.344 409.124 408.344 421.814 401.5 431.141V431.141C394.656 440.468 394.656 453.157 401.5 462.484V462.484C408.344 471.812 408.344 484.501 401.5 493.828V493.828C394.656 503.155 394.656 515.845 401.5 525.172V525.172C408.344 534.499 408.344 547.189 401.5 556.516V556.516C394.656 565.843 394.656 578.532 401.5 587.859V587.859C408.344 597.186 408.344 609.876 401.5 619.203V619.203C394.656 628.53 394.656 641.22 401.5 650.547V650.547C408.344 659.874 408.344 672.564 401.5 681.891V681.891C394.656 691.218 394.656 703.907 401.5 713.234V713.234C408.344 722.561 408.344 735.251 401.5 744.578V744.578C394.656 753.905 394.656 766.595 401.5 775.922V775.922C408.344 785.249 408.344 797.939 401.5 807.266V807.266C394.656 816.593 394.656 829.282 401.5 838.609V838.609C408.344 847.936 408.344 860.626 401.5 869.953V869.953C394.656 879.28 394.656 891.97 401.5 901.297V901.297C408.344 910.624 408.344 923.314 401.5 932.641V932.641C394.656 941.968 394.656 954.657 401.5 963.984V963.984C408.344 973.311 408.344 986.001 401.5 995.328L390 1011" stroke="#FFD2A8" stroke-width="24" stroke-miterlimit="10"/>
<path d="M432 8L443.5 23.6719C450.344 32.9989 450.344 45.6886 443.5 55.0156V55.0156C436.656 64.3427 436.656 77.0323 443.5 86.3594V86.3594C450.344 95.6864 450.344 108.376 443.5 117.703V117.703C436.656 127.03 436.656 139.72 443.5 149.047V149.047C450.344 158.374 450.344 171.064 443.5 180.391V180.391C436.656 189.718 436.656 202.407 443.5 211.734V211.734C450.344 221.061 450.344 233.751 443.5 243.078V243.078C436.656 252.405 436.656 265.095 443.5 274.422V274.422C450.344 283.749 450.344 296.439 443.5 305.766V305.766C436.656 315.093 436.656 327.782 443.5 337.109V337.109C450.344 346.437 450.344 359.126 443.5 368.453V368.453C436.656 377.78 436.656 390.47 443.5 399.797V399.797C450.344 409.124 450.344 421.814 443.5 431.141V431.141C436.656 440.468 436.656 453.157 443.5 462.484V462.484C450.344 471.812 450.344 484.501 443.5 493.828V493.828C436.656 503.155 436.656 515.845 443.5 525.172V525.172C450.344 534.499 450.344 547.189 443.5 556.516V556.516C436.656 565.843 436.656 578.532 443.5 587.859V587.859C450.344 597.186 450.344 609.876 443.5 619.203V619.203C436.656 628.53 436.656 641.22 443.5 650.547V650.547C450.344 659.874 450.344 672.564 443.5 681.891V681.891C436.656 691.218 436.656 703.907 443.5 713.234V713.234C450.344 722.561 450.344 735.251 443.5 744.578V744.578C436.656 753.905 436.656 766.595 443.5 775.922V775.922C450.344 785.249 450.344 797.939 443.5 807.266V807.266C436.656 816.593 436.656 829.282 443.5 838.609V838.609C450.344 847.936 450.344 860.626 443.5 869.953V869.953C436.656 879.28 436.656 891.97 443.5 901.297V901.297C450.344 910.624 450.344 923.314 443.5 932.641V932.641C436.656 941.968 436.656 954.657 443.5 963.984V963.984C450.344 973.311 450.344 986.001 443.5 995.328L432 1011" stroke="#FFD2A8" stroke-width="24" stroke-miterlimit="10"/>
</svg>
