<svg width="423" height="50" viewBox="0 0 423 31" fill="none" xmlns="http://www.w3.org/2000/svg">
<path d="M415 0L399.375 13.029C390.325 20.5754 377.175 20.5754 368.125 13.029V13.029C359.075 5.48268 345.925 5.48268 336.875 13.029V13.029C327.825 20.5754 314.675 20.5754 305.625 13.029V13.029C296.575 5.48268 283.425 5.48268 274.375 13.029V13.029C265.325 20.5754 252.175 20.5754 243.125 13.029V13.029C234.075 5.48268 220.925 5.48268 211.875 13.029V13.029C202.825 20.5754 189.675 20.5754 180.625 13.029V13.029C171.575 5.48268 158.425 5.48269 149.375 13.029V13.029C140.325 20.5754 127.175 20.5754 118.125 13.029V13.029C109.075 5.48271 95.9248 5.48268 86.8749 13.029V13.029C77.8249 20.5754 64.6748 20.5754 55.6249 13.029V13.029C46.5749 5.48268 33.4248 5.48268 24.3749 13.029V13.029C15.3249 20.5754 2.1748 20.5754 -6.87512 13.029V13.029C-15.925 5.48268 -29.0752 5.48268 -38.1251 13.029V13.029C-47.175 20.5754 -60.3252 20.5754 -69.3751 13.029V13.029C-78.425 5.48268 -91.5752 5.48268 -100.625 13.029V13.029C-109.675 20.5754 -122.825 20.5754 -131.875 13.029V13.029C-140.925 5.48268 -154.075 5.48268 -163.125 13.029V13.029C-172.175 20.5754 -185.325 20.5754 -194.375 13.029V13.029C-203.425 5.48268 -216.575 5.48268 -225.625 13.029V13.029C-234.675 20.5754 -247.825 20.5754 -256.875 13.029V13.029C-265.925 5.48268 -279.075 5.48268 -288.125 13.029V13.029C-297.175 20.5754 -310.325 20.5754 -319.375 13.029V13.029C-328.425 5.48268 -341.575 5.48268 -350.625 13.029V13.029C-359.675 20.5754 -372.825 20.5754 -381.875 13.029V13.029C-390.925 5.48268 -404.075 5.48268 -413.125 13.029V13.029C-422.175 20.5754 -435.325 20.5754 -444.375 13.029V13.029C-453.425 5.48268 -466.575 5.48268 -475.625 13.029V13.029C-484.675 20.5754 -497.825 20.5754 -506.875 13.029V13.029C-515.925 5.48268 -529.075 5.48268 -538.125 13.029V13.029C-547.175 20.5754 -560.325 20.5754 -569.375 13.029L-585 0" stroke="#032349" stroke-width="24" stroke-miterlimit="10"/>
</svg>
