<svg width="451" height="969" viewBox="0 0 451 969" fill="none" xmlns="http://www.w3.org/2000/svg">
<path d="M-3.97774e-05 7.99999L11.5 22.8906C18.2741 31.662 18.2741 43.9004 11.5 52.6719V52.6719C4.72582 61.4433 4.72582 73.6817 11.5 82.4531V82.4531C18.2742 91.2245 18.2742 103.463 11.5 112.234V112.234C4.72582 121.006 4.72582 133.244 11.5 142.016V142.016C18.2742 150.787 18.2742 163.025 11.5 171.797V171.797C4.72582 180.568 4.72582 192.807 11.5 201.578V201.578C18.2742 210.35 18.2742 222.588 11.5 231.359V231.359C4.72582 240.131 4.72583 252.369 11.5 261.141V261.141C18.2742 269.912 18.2741 282.15 11.5 290.922V290.922C4.72585 299.693 4.72582 311.932 11.5 320.703V320.703C18.2742 329.475 18.2742 341.713 11.5 350.484V350.484C4.72583 359.256 4.72583 371.494 11.5 380.266V380.266C18.2742 389.037 18.2742 401.276 11.5 410.047V410.047C4.72583 418.818 4.72583 431.057 11.5 439.828V439.828C18.2742 448.6 18.2742 460.838 11.5 469.609V469.609C4.72583 478.381 4.72583 490.619 11.5 499.391V499.391C18.2742 508.162 18.2742 520.401 11.5 529.172V529.172C4.72584 537.943 4.72584 550.182 11.5 558.953V558.953C18.2742 567.725 18.2742 579.963 11.5 588.734V588.734C4.72584 597.506 4.72584 609.744 11.5 618.516V618.516C18.2742 627.287 18.2742 639.525 11.5 648.297V648.297C4.72584 657.068 4.72584 669.307 11.5 678.078V678.078C18.2742 686.85 18.2742 699.088 11.5 707.859V707.859C4.72584 716.631 4.72584 728.869 11.5 737.641V737.641C18.2742 746.412 18.2742 758.65 11.5 767.422V767.422C4.72585 776.193 4.72585 788.432 11.5 797.203V797.203C18.2742 805.975 18.2742 818.213 11.5 826.984V826.984C4.72585 835.756 4.72585 847.994 11.5 856.766V856.766C18.2742 865.537 18.2742 877.775 11.5 886.547V886.547C4.72585 895.318 4.72585 907.557 11.5 916.328V916.328C18.2742 925.1 18.2742 937.338 11.5 946.109L0 961" stroke="#742A40" stroke-width="24" stroke-miterlimit="10"/>
<path d="M42 7.99999L53.5 22.8906C60.2741 31.662 60.2741 43.9004 53.5 52.6719V52.6719C46.7258 61.4433 46.7258 73.6817 53.5 82.4531V82.4531C60.2742 91.2245 60.2742 103.463 53.5 112.234V112.234C46.7258 121.006 46.7258 133.244 53.5 142.016V142.016C60.2742 150.787 60.2742 163.025 53.5 171.797V171.797C46.7258 180.568 46.7258 192.807 53.5 201.578V201.578C60.2742 210.35 60.2742 222.588 53.5 231.359V231.359C46.7258 240.131 46.7258 252.369 53.5 261.141V261.141C60.2742 269.912 60.2741 282.15 53.5 290.922V290.922C46.7259 299.693 46.7258 311.932 53.5 320.703V320.703C60.2742 329.475 60.2742 341.713 53.5 350.484V350.484C46.7258 359.256 46.7258 371.494 53.5 380.266V380.266C60.2742 389.037 60.2742 401.276 53.5 410.047V410.047C46.7258 418.818 46.7258 431.057 53.5 439.828V439.828C60.2742 448.6 60.2742 460.838 53.5 469.609V469.609C46.7258 478.381 46.7258 490.619 53.5 499.391V499.391C60.2742 508.162 60.2742 520.401 53.5 529.172V529.172C46.7258 537.943 46.7258 550.182 53.5 558.953V558.953C60.2742 567.725 60.2742 579.963 53.5 588.734V588.734C46.7258 597.506 46.7258 609.744 53.5 618.516V618.516C60.2742 627.287 60.2742 639.525 53.5 648.297V648.297C46.7258 657.068 46.7258 669.307 53.5 678.078V678.078C60.2742 686.85 60.2742 699.088 53.5 707.859V707.859C46.7258 716.631 46.7258 728.869 53.5 737.641V737.641C60.2742 746.412 60.2742 758.65 53.5 767.422V767.422C46.7258 776.193 46.7258 788.432 53.5 797.203V797.203C60.2742 805.975 60.2742 818.213 53.5 826.984V826.984C46.7258 835.756 46.7258 847.994 53.5 856.766V856.766C60.2742 865.537 60.2742 877.775 53.5 886.547V886.547C46.7259 895.318 46.7259 907.557 53.5 916.328V916.328C60.2742 925.1 60.2742 937.338 53.5 946.109L42 961" stroke="#742A40" stroke-width="24" stroke-miterlimit="10"/>
<path d="M84 7.99999L96 22.8906C103.004 31.5822 103.004 43.9803 96 52.6719V52.6719C88.9957 61.3634 88.9957 73.7615 96 82.4531V82.4531C103.004 91.1447 103.004 103.543 96 112.234V112.234C88.9957 120.926 88.9957 133.324 96 142.016V142.016C103.004 150.707 103.004 163.105 96 171.797V171.797C88.9957 180.488 88.9957 192.887 96 201.578V201.578C103.004 210.27 103.004 222.668 96 231.359V231.359C88.9957 240.051 88.9957 252.449 96 261.141V261.141C103.004 269.832 103.004 282.23 96 290.922V290.922C88.9957 299.613 88.9957 312.012 96 320.703V320.703C103.004 329.395 103.004 341.793 96 350.484V350.484C88.9957 359.176 88.9957 371.574 96 380.266V380.266C103.004 388.957 103.004 401.355 96 410.047V410.047C88.9957 418.739 88.9957 431.137 96 439.828V439.828C103.004 448.52 103.004 460.918 96 469.609V469.609C88.9957 478.301 88.9957 490.699 96 499.391V499.391C103.004 508.082 103.004 520.48 96 529.172V529.172C88.9957 537.863 88.9957 550.262 96 558.953V558.953C103.004 567.645 103.004 580.043 96 588.734V588.734C88.9957 597.426 88.9957 609.824 96 618.516V618.516C103.004 627.207 103.004 639.605 96 648.297V648.297C88.9957 656.988 88.9957 669.387 96 678.078V678.078C103.004 686.77 103.004 699.168 96 707.859V707.859C88.9957 716.551 88.9957 728.949 96 737.641V737.641C103.004 746.332 103.004 758.73 96 767.422V767.422C88.9957 776.113 88.9957 788.512 96 797.203V797.203C103.004 805.895 103.004 818.293 96 826.984V826.984C88.9957 835.676 88.9957 848.074 96 856.766V856.766C103.004 865.457 103.004 877.855 96 886.547V886.547C88.9957 895.238 88.9957 907.637 96 916.328V916.328C103.004 925.02 103.004 937.418 96 946.109L84 961" stroke="#742A40" stroke-width="24" stroke-miterlimit="10"/>
<path d="M127 7.99999L138.5 22.8906C145.274 31.662 145.274 43.9004 138.5 52.6719V52.6719C131.726 61.4433 131.726 73.6817 138.5 82.4531V82.4531C145.274 91.2245 145.274 103.463 138.5 112.234V112.234C131.726 121.006 131.726 133.244 138.5 142.016V142.016C145.274 150.787 145.274 163.025 138.5 171.797V171.797C131.726 180.568 131.726 192.807 138.5 201.578V201.578C145.274 210.35 145.274 222.588 138.5 231.359V231.359C131.726 240.131 131.726 252.369 138.5 261.141V261.141C145.274 269.912 145.274 282.15 138.5 290.922V290.922C131.726 299.693 131.726 311.932 138.5 320.703V320.703C145.274 329.475 145.274 341.713 138.5 350.484V350.484C131.726 359.256 131.726 371.494 138.5 380.266V380.266C145.274 389.037 145.274 401.276 138.5 410.047V410.047C131.726 418.818 131.726 431.057 138.5 439.828V439.828C145.274 448.6 145.274 460.838 138.5 469.609V469.609C131.726 478.381 131.726 490.619 138.5 499.391V499.391C145.274 508.162 145.274 520.401 138.5 529.172V529.172C131.726 537.943 131.726 550.182 138.5 558.953V558.953C145.274 567.725 145.274 579.963 138.5 588.734V588.734C131.726 597.506 131.726 609.744 138.5 618.516V618.516C145.274 627.287 145.274 639.525 138.5 648.297V648.297C131.726 657.068 131.726 669.307 138.5 678.078V678.078C145.274 686.85 145.274 699.088 138.5 707.859V707.859C131.726 716.631 131.726 728.869 138.5 737.641V737.641C145.274 746.412 145.274 758.65 138.5 767.422V767.422C131.726 776.193 131.726 788.432 138.5 797.203V797.203C145.274 805.975 145.274 818.213 138.5 826.984V826.984C131.726 835.756 131.726 847.994 138.5 856.766V856.766C145.274 865.537 145.274 877.775 138.5 886.547V886.547C131.726 895.318 131.726 907.557 138.5 916.328V916.328C145.274 925.1 145.274 937.338 138.5 946.109L127 961" stroke="#742A40" stroke-width="24" stroke-miterlimit="10"/>
<path d="M169 7.99999L180.5 22.8906C187.274 31.662 187.274 43.9004 180.5 52.6719V52.6719C173.726 61.4433 173.726 73.6817 180.5 82.4531V82.4531C187.274 91.2245 187.274 103.463 180.5 112.234V112.234C173.726 121.006 173.726 133.244 180.5 142.016V142.016C187.274 150.787 187.274 163.025 180.5 171.797V171.797C173.726 180.568 173.726 192.807 180.5 201.578V201.578C187.274 210.35 187.274 222.588 180.5 231.359V231.359C173.726 240.131 173.726 252.369 180.5 261.141V261.141C187.274 269.912 187.274 282.15 180.5 290.922V290.922C173.726 299.693 173.726 311.932 180.5 320.703V320.703C187.274 329.475 187.274 341.713 180.5 350.484V350.484C173.726 359.256 173.726 371.494 180.5 380.266V380.266C187.274 389.037 187.274 401.276 180.5 410.047V410.047C173.726 418.818 173.726 431.057 180.5 439.828V439.828C187.274 448.6 187.274 460.838 180.5 469.609V469.609C173.726 478.381 173.726 490.619 180.5 499.391V499.391C187.274 508.162 187.274 520.401 180.5 529.172V529.172C173.726 537.943 173.726 550.182 180.5 558.953V558.953C187.274 567.725 187.274 579.963 180.5 588.734V588.734C173.726 597.506 173.726 609.744 180.5 618.516V618.516C187.274 627.287 187.274 639.525 180.5 648.297V648.297C173.726 657.068 173.726 669.307 180.5 678.078V678.078C187.274 686.85 187.274 699.088 180.5 707.859V707.859C173.726 716.631 173.726 728.869 180.5 737.641V737.641C187.274 746.412 187.274 758.65 180.5 767.422V767.422C173.726 776.193 173.726 788.432 180.5 797.203V797.203C187.274 805.975 187.274 818.213 180.5 826.984V826.984C173.726 835.756 173.726 847.994 180.5 856.766V856.766C187.274 865.537 187.274 877.775 180.5 886.547V886.547C173.726 895.318 173.726 907.557 180.5 916.328V916.328C187.274 925.1 187.274 937.338 180.5 946.109L169 961" stroke="#742A40" stroke-width="24" stroke-miterlimit="10"/>
<path d="M211 7.99999L222.5 22.8906C229.274 31.662 229.274 43.9004 222.5 52.6719V52.6719C215.726 61.4433 215.726 73.6817 222.5 82.4531V82.4531C229.274 91.2245 229.274 103.463 222.5 112.234V112.234C215.726 121.006 215.726 133.244 222.5 142.016V142.016C229.274 150.787 229.274 163.025 222.5 171.797V171.797C215.726 180.568 215.726 192.807 222.5 201.578V201.578C229.274 210.35 229.274 222.588 222.5 231.359V231.359C215.726 240.131 215.726 252.369 222.5 261.141V261.141C229.274 269.912 229.274 282.15 222.5 290.922V290.922C215.726 299.693 215.726 311.932 222.5 320.703V320.703C229.274 329.475 229.274 341.713 222.5 350.484V350.484C215.726 359.256 215.726 371.494 222.5 380.266V380.266C229.274 389.037 229.274 401.276 222.5 410.047V410.047C215.726 418.818 215.726 431.057 222.5 439.828V439.828C229.274 448.6 229.274 460.838 222.5 469.609V469.609C215.726 478.381 215.726 490.619 222.5 499.391V499.391C229.274 508.162 229.274 520.401 222.5 529.172V529.172C215.726 537.943 215.726 550.182 222.5 558.953V558.953C229.274 567.725 229.274 579.963 222.5 588.734V588.734C215.726 597.506 215.726 609.744 222.5 618.516V618.516C229.274 627.287 229.274 639.526 222.5 648.297V648.297C215.726 657.068 215.726 669.307 222.5 678.078V678.078C229.274 686.85 229.274 699.088 222.5 707.859V707.859C215.726 716.631 215.726 728.869 222.5 737.641V737.641C229.274 746.412 229.274 758.65 222.5 767.422V767.422C215.726 776.193 215.726 788.432 222.5 797.203V797.203C229.274 805.975 229.274 818.213 222.5 826.984V826.984C215.726 835.756 215.726 847.994 222.5 856.766V856.766C229.274 865.537 229.274 877.775 222.5 886.547V886.547C215.726 895.318 215.726 907.557 222.5 916.328V916.328C229.274 925.1 229.274 937.338 222.5 946.109L211 961" stroke="#742A40" stroke-width="24" stroke-miterlimit="10"/>
<path d="M253 7.99999L265 22.8906C272.004 31.5822 272.004 43.9803 265 52.6719V52.6719C257.996 61.3634 257.996 73.7615 265 82.4531V82.4531C272.004 91.1447 272.004 103.543 265 112.234V112.234C257.996 120.926 257.996 133.324 265 142.016V142.016C272.004 150.707 272.004 163.105 265 171.797V171.797C257.996 180.488 257.996 192.887 265 201.578V201.578C272.004 210.27 272.004 222.668 265 231.359V231.359C257.996 240.051 257.996 252.449 265 261.141V261.141C272.004 269.832 272.004 282.23 265 290.922V290.922C257.996 299.613 257.996 312.012 265 320.703V320.703C272.004 329.395 272.004 341.793 265 350.484V350.484C257.996 359.176 257.996 371.574 265 380.266V380.266C272.004 388.957 272.004 401.355 265 410.047V410.047C257.996 418.739 257.996 431.137 265 439.828V439.828C272.004 448.52 272.004 460.918 265 469.609V469.609C257.996 478.301 257.996 490.699 265 499.391V499.391C272.004 508.082 272.004 520.48 265 529.172V529.172C257.996 537.863 257.996 550.262 265 558.953V558.953C272.004 567.645 272.004 580.043 265 588.734V588.734C257.996 597.426 257.996 609.824 265 618.516V618.516C272.004 627.207 272.004 639.605 265 648.297V648.297C257.996 656.988 257.996 669.387 265 678.078V678.078C272.004 686.77 272.004 699.168 265 707.859V707.859C257.996 716.551 257.996 728.949 265 737.641V737.641C272.004 746.332 272.004 758.73 265 767.422V767.422C257.996 776.113 257.996 788.512 265 797.203V797.203C272.004 805.895 272.004 818.293 265 826.984V826.984C257.996 835.676 257.996 848.074 265 856.766V856.766C272.004 865.457 272.004 877.855 265 886.547V886.547C257.996 895.238 257.996 907.637 265 916.328V916.328C272.004 925.02 272.004 937.418 265 946.109L253 961" stroke="#742A40" stroke-width="24" stroke-miterlimit="10"/>
<path d="M296 7.99999L307.5 22.8906C314.274 31.662 314.274 43.9004 307.5 52.6719V52.6719C300.726 61.4433 300.726 73.6817 307.5 82.4531V82.4531C314.274 91.2245 314.274 103.463 307.5 112.234V112.234C300.726 121.006 300.726 133.244 307.5 142.016V142.016C314.274 150.787 314.274 163.025 307.5 171.797V171.797C300.726 180.568 300.726 192.807 307.5 201.578V201.578C314.274 210.35 314.274 222.588 307.5 231.359V231.359C300.726 240.131 300.726 252.369 307.5 261.141V261.141C314.274 269.912 314.274 282.15 307.5 290.922V290.922C300.726 299.693 300.726 311.932 307.5 320.703V320.703C314.274 329.475 314.274 341.713 307.5 350.484V350.484C300.726 359.256 300.726 371.494 307.5 380.266V380.266C314.274 389.037 314.274 401.276 307.5 410.047V410.047C300.726 418.818 300.726 431.057 307.5 439.828V439.828C314.274 448.6 314.274 460.838 307.5 469.609V469.609C300.726 478.381 300.726 490.619 307.5 499.391V499.391C314.274 508.162 314.274 520.401 307.5 529.172V529.172C300.726 537.943 300.726 550.182 307.5 558.953V558.953C314.274 567.725 314.274 579.963 307.5 588.734V588.734C300.726 597.506 300.726 609.744 307.5 618.516V618.516C314.274 627.287 314.274 639.525 307.5 648.297V648.297C300.726 657.068 300.726 669.307 307.5 678.078V678.078C314.274 686.85 314.274 699.088 307.5 707.859V707.859C300.726 716.631 300.726 728.869 307.5 737.641V737.641C314.274 746.412 314.274 758.65 307.5 767.422V767.422C300.726 776.193 300.726 788.432 307.5 797.203V797.203C314.274 805.975 314.274 818.213 307.5 826.984V826.984C300.726 835.756 300.726 847.994 307.5 856.766V856.766C314.274 865.537 314.274 877.775 307.5 886.547V886.547C300.726 895.318 300.726 907.557 307.5 916.328V916.328C314.274 925.1 314.274 937.338 307.5 946.109L296 961" stroke="#742A40" stroke-width="24" stroke-miterlimit="10"/>
<path d="M338 7.99999L349.5 22.8906C356.274 31.662 356.274 43.9004 349.5 52.6719V52.6719C342.726 61.4433 342.726 73.6817 349.5 82.4531V82.4531C356.274 91.2245 356.274 103.463 349.5 112.234V112.234C342.726 121.006 342.726 133.244 349.5 142.016V142.016C356.274 150.787 356.274 163.025 349.5 171.797V171.797C342.726 180.568 342.726 192.807 349.5 201.578V201.578C356.274 210.35 356.274 222.588 349.5 231.359V231.359C342.726 240.131 342.726 252.369 349.5 261.141V261.141C356.274 269.912 356.274 282.15 349.5 290.922V290.922C342.726 299.693 342.726 311.932 349.5 320.703V320.703C356.274 329.475 356.274 341.713 349.5 350.484V350.484C342.726 359.256 342.726 371.494 349.5 380.266V380.266C356.274 389.037 356.274 401.276 349.5 410.047V410.047C342.726 418.818 342.726 431.057 349.5 439.828V439.828C356.274 448.6 356.274 460.838 349.5 469.609V469.609C342.726 478.381 342.726 490.619 349.5 499.391V499.391C356.274 508.162 356.274 520.401 349.5 529.172V529.172C342.726 537.943 342.726 550.182 349.5 558.953V558.953C356.274 567.725 356.274 579.963 349.5 588.734V588.734C342.726 597.506 342.726 609.744 349.5 618.516V618.516C356.274 627.287 356.274 639.525 349.5 648.297V648.297C342.726 657.068 342.726 669.307 349.5 678.078V678.078C356.274 686.85 356.274 699.088 349.5 707.859V707.859C342.726 716.631 342.726 728.869 349.5 737.641V737.641C356.274 746.412 356.274 758.65 349.5 767.422V767.422C342.726 776.193 342.726 788.432 349.5 797.203V797.203C356.274 805.975 356.274 818.213 349.5 826.984V826.984C342.726 835.756 342.726 847.994 349.5 856.766V856.766C356.274 865.537 356.274 877.775 349.5 886.547V886.547C342.726 895.318 342.726 907.557 349.5 916.328V916.328C356.274 925.1 356.274 937.338 349.5 946.109L338 961" stroke="#742A40" stroke-width="24" stroke-miterlimit="10"/>
<path d="M380 7.99999L391.5 22.8906C398.274 31.662 398.274 43.9004 391.5 52.6719V52.6719C384.726 61.4433 384.726 73.6817 391.5 82.4531V82.4531C398.274 91.2245 398.274 103.463 391.5 112.234V112.234C384.726 121.006 384.726 133.244 391.5 142.016V142.016C398.274 150.787 398.274 163.025 391.5 171.797V171.797C384.726 180.568 384.726 192.807 391.5 201.578V201.578C398.274 210.35 398.274 222.588 391.5 231.359V231.359C384.726 240.131 384.726 252.369 391.5 261.141V261.141C398.274 269.912 398.274 282.15 391.5 290.922V290.922C384.726 299.693 384.726 311.932 391.5 320.703V320.703C398.274 329.475 398.274 341.713 391.5 350.484V350.484C384.726 359.256 384.726 371.494 391.5 380.266V380.266C398.274 389.037 398.274 401.276 391.5 410.047V410.047C384.726 418.818 384.726 431.057 391.5 439.828V439.828C398.274 448.6 398.274 460.838 391.5 469.609V469.609C384.726 478.381 384.726 490.619 391.5 499.391V499.391C398.274 508.162 398.274 520.401 391.5 529.172V529.172C384.726 537.943 384.726 550.182 391.5 558.953V558.953C398.274 567.725 398.274 579.963 391.5 588.734V588.734C384.726 597.506 384.726 609.744 391.5 618.516V618.516C398.274 627.287 398.274 639.525 391.5 648.297V648.297C384.726 657.068 384.726 669.307 391.5 678.078V678.078C398.274 686.85 398.274 699.088 391.5 707.859V707.859C384.726 716.631 384.726 728.869 391.5 737.641V737.641C398.274 746.412 398.274 758.65 391.5 767.422V767.422C384.726 776.193 384.726 788.432 391.5 797.203V797.203C398.274 805.975 398.274 818.213 391.5 826.984V826.984C384.726 835.756 384.726 847.994 391.5 856.766V856.766C398.274 865.537 398.274 877.775 391.5 886.547V886.547C384.726 895.318 384.726 907.557 391.5 916.328V916.328C398.274 925.1 398.274 937.338 391.5 946.109L380 961" stroke="#742A40" stroke-width="24" stroke-miterlimit="10"/>
<path d="M422 7.99999L433.5 22.8906C440.274 31.662 440.274 43.9004 433.5 52.6719V52.6719C426.726 61.4433 426.726 73.6817 433.5 82.4531V82.4531C440.274 91.2245 440.274 103.463 433.5 112.234V112.234C426.726 121.006 426.726 133.244 433.5 142.016V142.016C440.274 150.787 440.274 163.025 433.5 171.797V171.797C426.726 180.568 426.726 192.807 433.5 201.578V201.578C440.274 210.35 440.274 222.588 433.5 231.359V231.359C426.726 240.131 426.726 252.369 433.5 261.141V261.141C440.274 269.912 440.274 282.15 433.5 290.922V290.922C426.726 299.693 426.726 311.932 433.5 320.703V320.703C440.274 329.475 440.274 341.713 433.5 350.484V350.484C426.726 359.256 426.726 371.494 433.5 380.266V380.266C440.274 389.037 440.274 401.276 433.5 410.047V410.047C426.726 418.818 426.726 431.057 433.5 439.828V439.828C440.274 448.6 440.274 460.838 433.5 469.609V469.609C426.726 478.381 426.726 490.619 433.5 499.391V499.391C440.274 508.162 440.274 520.401 433.5 529.172V529.172C426.726 537.943 426.726 550.182 433.5 558.953V558.953C440.274 567.725 440.274 579.963 433.5 588.734V588.734C426.726 597.506 426.726 609.744 433.5 618.516V618.516C440.274 627.287 440.274 639.525 433.5 648.297V648.297C426.726 657.068 426.726 669.307 433.5 678.078V678.078C440.274 686.85 440.274 699.088 433.5 707.859V707.859C426.726 716.631 426.726 728.869 433.5 737.641V737.641C440.274 746.412 440.274 758.65 433.5 767.422V767.422C426.726 776.193 426.726 788.432 433.5 797.203V797.203C440.274 805.975 440.274 818.213 433.5 826.984V826.984C426.726 835.756 426.726 847.994 433.5 856.766V856.766C440.274 865.537 440.274 877.775 433.5 886.547V886.547C426.726 895.318 426.726 907.557 433.5 916.328V916.328C440.274 925.1 440.274 937.338 433.5 946.109L422 961" stroke="#742A40" stroke-width="24" stroke-miterlimit="10"/>
</svg>
