<svg width="28" height="20" viewBox="0 0 28 20" fill="none" xmlns="http://www.w3.org/2000/svg">
<rect width="28" height="20" rx="2" fill="#153B67"/>
<path d="M14.4301 3.2955L15.1075 2.80056H14.2705L14.0112 2L13.7526 2.80056H12.9156L13.5931 3.2955L13.3337 4.09606L14.0112 3.60112L14.6886 4.09606L14.4301 3.2955ZM14.4301 17.1994L15.1075 16.7045H14.2705L14.0112 15.9039L13.7526 16.7045H12.9156L13.5931 17.1994L13.3337 18L14.0112 17.5051L14.6886 18L14.4301 17.1994ZM7.51526 10.2471L8.1927 9.75213H7.35488L7.09635 8.95157L6.83702 9.75213H6L6.67744 10.2471L6.41891 11.0476L7.09635 10.5527L7.77379 11.0476L7.51526 10.2471ZM8.39856 6.80979L9.076 6.31485H8.23818L7.97965 5.51429L7.72112 6.31485H6.8833L7.56074 6.80979L7.30221 7.61035L7.97965 7.11541L8.65709 7.61035L8.39856 6.80979ZM8.39856 13.7237L9.076 13.2287H8.23818L7.97965 12.4282L7.72112 13.2287H6.8833L7.56074 13.7237L7.30221 14.5242L7.97965 14.0293L8.65709 14.5242L8.39856 13.7237ZM10.9727 4.22681L11.6501 3.73188H10.8123L10.5538 2.93131L10.2952 3.73188H9.45741L10.1349 4.22681L9.87632 5.02737L10.5538 4.53244L11.2312 5.02737L10.9727 4.22681ZM10.9727 16.313L11.6501 15.8181H10.8123L10.5538 15.0175L10.2952 15.8181H9.45741L10.1349 16.313L9.87632 17.1136L10.5538 16.6195L11.2312 17.1136L10.9727 16.313ZM20.4847 10.2471L19.8073 9.75213H20.6451L20.9037 8.95157L21.163 9.75213H22L21.3226 10.2471L21.5811 11.0476L20.9037 10.5527L20.2262 11.0476L20.4847 10.2471ZM19.6014 6.80979L18.924 6.31485H19.7618L20.0203 5.51429L20.2789 6.31485H21.1167L20.4393 6.80979L20.6978 7.61035L20.0203 7.11541L19.3429 7.61035L19.6014 6.80979ZM19.6014 13.7237L18.924 13.2287H19.7618L20.0203 12.4282L20.2789 13.2287H21.1167L20.4393 13.7237L20.6978 14.5242L20.0203 14.0293L19.3429 14.5242L19.6014 13.7237ZM17.0273 4.22681L16.3499 3.73188H17.1877L17.4462 2.93131L17.7048 3.73188H18.5426L17.8652 4.22681L18.1237 5.02737L17.4462 4.53244L16.7688 5.02737L17.0273 4.22681ZM17.0273 16.313L16.3499 15.8181H17.1877L17.4462 15.0175L17.7048 15.8181H18.5426L17.8652 16.313L18.1237 17.1136L17.4462 16.6195L16.7688 17.1136L17.0273 16.313Z" fill="#FBC73B"/>
</svg>
