<svg width="24" height="24" viewBox="0 0 24 24" fill="none" xmlns="http://www.w3.org/2000/svg">
<path d="M19.3334 7.37333C19.3334 11.666 16 12.3327 16 16.3333C16 18.3987 13.918 18.5727 12.3334 18.5727C10.9647 18.5727 7.94269 18.0533 7.94269 16.332C7.94269 12.3333 4.66669 11.6667 4.66669 7.37333C4.66669 3.35266 8.19002 0.0933304 12.0554 0.0933304C15.922 0.0933304 19.3334 3.35266 19.3334 7.37333Z" fill="#FFD983"/>
<path d="M14.778 21.6667C14.778 22.2187 13.2887 23.3333 12 23.3333C10.7113 23.3333 9.22198 22.2187 9.22198 21.6667C9.22198 21.1147 10.7107 21.3333 12 21.3333C13.2887 21.3333 14.778 21.1147 14.778 21.6667Z" fill="#CCD6DD"/>
<path d="M15.1381 6.862C14.8774 6.60134 14.4561 6.60134 14.1954 6.862L12.0001 9.05734L9.80473 6.862C9.54406 6.60134 9.12273 6.60134 8.86206 6.862C8.6014 7.12267 8.6014 7.544 8.86206 7.80467L11.3334 10.276V17.3333C11.3334 17.702 11.6321 18 12.0001 18C12.3681 18 12.6667 17.702 12.6667 17.3333V10.276L15.1381 7.80467C15.3987 7.544 15.3987 7.12267 15.1381 6.862Z" fill="#FFCC4D"/>
<path d="M16 20.6667C16 21.4027 15.4027 22 14.6667 22H9.33333C8.59733 22 8 21.4027 8 20.6667V16.6667H16V20.6667Z" fill="#99AAB5"/>
<path d="M7.99938 21.3333C7.67938 21.3333 7.39671 21.102 7.34271 20.776C7.28204 20.4133 7.52738 20.0693 7.89071 20.0093L15.8907 18.676C16.2534 18.6107 16.5974 18.8607 16.6574 19.224C16.718 19.5867 16.4727 19.9307 16.1094 19.9907L8.10938 21.324C8.07271 21.3307 8.03538 21.3333 7.99938 21.3333ZM7.99938 18.6667C7.67938 18.6667 7.39671 18.4353 7.34271 18.1093C7.28204 17.7467 7.52738 17.4027 7.89071 17.3427L15.8907 16.0093C16.2534 15.9447 16.5974 16.194 16.6574 16.5573C16.718 16.92 16.4727 17.264 16.1094 17.324L8.10938 18.6573C8.07271 18.664 8.03538 18.6667 7.99938 18.6667Z" fill="#CCD6DD"/>
</svg>
