<svg width="244" height="77" viewBox="0 0 244 77" fill="none" xmlns="http://www.w3.org/2000/svg">
<path d="M13.152 36.376C10.688 36.376 8.48 35.976 6.528 35.176C4.576 34.376 3.008 33.192 1.824 31.624C0.672 30.056 0.064 28.168 0 25.96H8.736C8.864 27.208 9.296 28.168 10.032 28.84C10.768 29.48 11.728 29.8 12.912 29.8C14.128 29.8 15.088 29.528 15.792 28.984C16.496 28.408 16.848 27.624 16.848 26.632C16.848 25.8 16.56 25.112 15.984 24.568C15.44 24.024 14.752 23.576 13.92 23.224C13.12 22.872 11.968 22.472 10.464 22.024C8.288 21.352 6.512 20.68 5.136 20.008C3.76 19.336 2.576 18.344 1.584 17.032C0.592 15.72 0.096 14.008 0.096 11.896C0.096 8.76002 1.232 6.31202 3.504 4.55202C5.776 2.76002 8.736 1.86402 12.384 1.86402C16.096 1.86402 19.088 2.76002 21.36 4.55202C23.632 6.31202 24.848 8.77602 25.008 11.944H16.128C16.064 10.856 15.664 10.008 14.928 9.40002C14.192 8.76002 13.248 8.44002 12.096 8.44002C11.104 8.44002 10.304 8.71202 9.696 9.25602C9.088 9.76802 8.784 10.52 8.784 11.512C8.784 12.6 9.296 13.448 10.32 14.056C11.344 14.664 12.944 15.32 15.12 16.024C17.296 16.76 19.056 17.464 20.4 18.136C21.776 18.808 22.96 19.784 23.952 21.064C24.944 22.344 25.44 23.992 25.44 26.008C25.44 27.928 24.944 29.672 23.952 31.24C22.992 32.808 21.584 34.056 19.728 34.984C17.872 35.912 15.68 36.376 13.152 36.376Z" fill="white"/>
<path d="M28.8592 22.696C28.8592 20.04 29.4033 17.672 30.4913 15.592C31.6113 13.512 33.0993 11.896 34.9552 10.744C36.8433 9.56002 38.8913 8.96802 41.0993 8.96802C42.7952 8.96802 44.3153 9.27202 45.6593 9.88002C47.0033 10.456 48.0913 11.272 48.9233 12.328V9.25602H57.1313V48.808H48.9233V32.68C47.9953 33.8 46.8593 34.696 45.5153 35.368C44.2033 36.04 42.6992 36.376 41.0033 36.376C38.8273 36.376 36.8112 35.8 34.9552 34.648C33.0993 33.496 31.6113 31.88 30.4913 29.8C29.4033 27.72 28.8592 25.352 28.8592 22.696ZM48.9233 22.648C48.9233 21.208 48.6353 20.008 48.0593 19.048C47.5153 18.056 46.7953 17.32 45.8993 16.84C45.0033 16.328 44.0593 16.072 43.0673 16.072C42.1073 16.072 41.1793 16.328 40.2833 16.84C39.3873 17.32 38.6513 18.056 38.0753 19.048C37.4993 20.04 37.2113 21.256 37.2113 22.696C37.2113 24.136 37.4993 25.352 38.0753 26.344C38.6513 27.304 39.3873 28.04 40.2833 28.552C41.1793 29.032 42.1073 29.272 43.0673 29.272C44.0273 29.272 44.9553 29.032 45.8513 28.552C46.7793 28.04 47.5153 27.288 48.0593 26.296C48.6353 25.304 48.9233 24.088 48.9233 22.648Z" fill="white"/>
<path d="M89.5174 9.25602V36.04H81.3094V32.392C80.4774 33.576 79.3414 34.536 77.9014 35.272C76.4934 35.976 74.9254 36.328 73.1974 36.328C71.1494 36.328 69.3414 35.88 67.7734 34.984C66.2054 34.056 64.9894 32.728 64.1254 31C63.2614 29.272 62.8294 27.24 62.8294 24.904V9.25602H70.9894V23.8C70.9894 25.592 71.4534 26.984 72.3814 27.976C73.3094 28.968 74.5574 29.464 76.1254 29.464C77.7254 29.464 78.9894 28.968 79.9174 27.976C80.8454 26.984 81.3094 25.592 81.3094 23.8V9.25602H89.5174Z" fill="white"/>
<path d="M120.661 22.216C120.661 22.984 120.613 23.784 120.517 24.616H101.941C102.069 26.28 102.597 27.56 103.525 28.456C104.485 29.32 105.653 29.752 107.029 29.752C109.077 29.752 110.501 28.888 111.301 27.16H120.037C119.589 28.92 118.773 30.504 117.589 31.912C116.437 33.32 114.981 34.424 113.221 35.224C111.461 36.024 109.493 36.424 107.317 36.424C104.693 36.424 102.357 35.864 100.309 34.744C98.2611 33.624 96.6611 32.024 95.5091 29.944C94.3571 27.864 93.7811 25.432 93.7811 22.648C93.7811 19.864 94.3411 17.432 95.4611 15.352C96.6131 13.272 98.2131 11.672 100.261 10.552C102.309 9.43202 104.661 8.87202 107.317 8.87202C109.909 8.87202 112.213 9.41602 114.229 10.504C116.245 11.592 117.813 13.144 118.933 15.16C120.085 17.176 120.661 19.528 120.661 22.216ZM112.261 20.056C112.261 18.648 111.781 17.528 110.821 16.696C109.861 15.864 108.661 15.448 107.221 15.448C105.845 15.448 104.677 15.848 103.717 16.648C102.789 17.448 102.213 18.584 101.989 20.056H112.261Z" fill="white"/>
<path d="M123.359 22.6C123.359 19.848 123.871 17.432 124.895 15.352C125.951 13.272 127.375 11.672 129.167 10.552C130.959 9.43202 132.959 8.87202 135.167 8.87202C137.055 8.87202 138.703 9.25602 140.111 10.024C141.551 10.792 142.655 11.8 143.423 13.048V9.25602H151.631V36.04H143.423V32.248C142.623 33.496 141.503 34.504 140.063 35.272C138.655 36.04 137.007 36.424 135.119 36.424C132.943 36.424 130.959 35.864 129.167 34.744C127.375 33.592 125.951 31.976 124.895 29.896C123.871 27.784 123.359 25.352 123.359 22.6ZM143.423 22.648C143.423 20.6 142.847 18.984 141.695 17.8C140.575 16.616 139.199 16.024 137.567 16.024C135.935 16.024 134.543 16.616 133.391 17.8C132.271 18.952 131.711 20.552 131.711 22.6C131.711 24.648 132.271 26.28 133.391 27.496C134.543 28.68 135.935 29.272 137.567 29.272C139.199 29.272 140.575 28.68 141.695 27.496C142.847 26.312 143.423 24.696 143.423 22.648Z" fill="white"/>
<path d="M173.937 36.04L165.777 24.808V36.04H157.569V0.52002H165.777V20.152L173.889 9.25602H184.017L172.881 22.696L184.113 36.04H173.937Z" fill="white"/>
<path d="M214.601 9.25602L197.801 48.76H188.969L195.113 35.128L184.217 9.25602H193.385L199.577 26.008L205.721 9.25602H214.601Z" fill="white"/>
<path fill-rule="evenodd" clip-rule="evenodd" d="M227.386 65.6553L215 76.52V36.52L223.355 44.843C221.993 46.1938 221.15 48.0637 221.15 50.1298C221.15 54.2495 224.502 57.5892 228.638 57.5892C230.712 57.5892 232.589 56.7493 233.945 55.3922L244 65.4088L227.386 65.6553ZM231.827 53.2823L225.473 46.9528C224.653 47.7637 224.145 48.8876 224.145 50.1298C224.145 52.6016 226.156 54.6054 228.638 54.6054C229.885 54.6054 231.013 54.0994 231.827 53.2823Z" fill="#FBC73B"/>
<path d="M222.687 62.9494C222.687 64.2182 221.654 65.2467 220.381 65.2467C219.107 65.2467 218.075 64.2182 218.075 62.9494C218.075 61.6807 219.107 60.6522 220.381 60.6522C221.654 60.6522 222.687 61.6807 222.687 62.9494Z" fill="#FBC73B"/>
<path d="M221.149 50.1298C221.149 48.0637 221.993 46.1939 223.355 44.843L225.473 46.9529C224.653 47.7637 224.145 48.8877 224.145 50.1298C224.145 52.6017 226.156 54.6055 228.638 54.6055C229.884 54.6055 231.013 54.0995 231.827 53.2824L233.945 55.3923C232.589 56.7493 230.712 57.5893 228.638 57.5893C224.502 57.5893 221.149 54.2495 221.149 50.1298Z" fill="#001A39"/>
<path d="M222.687 62.9494C222.687 64.2182 221.654 65.2467 220.381 65.2467C219.107 65.2467 218.075 64.2182 218.075 62.9494C218.075 61.6807 219.107 60.6522 220.381 60.6522C221.654 60.6522 222.687 61.6807 222.687 62.9494Z" fill="#001A39"/>
</svg>
