<svg width="244" height="76" viewBox="0 0 244 76" fill="none" xmlns="http://www.w3.org/2000/svg">
<path d="M13.1681 35.856C10.7041 35.856 8.49611 35.456 6.54411 34.656C4.59211 33.856 3.02411 32.672 1.84011 31.104C0.688113 29.536 0.0801133 27.648 0.0161133 25.44H8.75211C8.88011 26.688 9.31211 27.648 10.0481 28.32C10.7841 28.96 11.7441 29.28 12.9281 29.28C14.1441 29.28 15.1041 29.008 15.8081 28.464C16.5121 27.888 16.8641 27.104 16.8641 26.112C16.8641 25.28 16.5761 24.592 16.0001 24.048C15.4561 23.504 14.7681 23.056 13.9361 22.704C13.1361 22.352 11.9841 21.952 10.4801 21.504C8.30411 20.832 6.52811 20.16 5.15211 19.488C3.77611 18.816 2.59211 17.824 1.60011 16.512C0.608113 15.2 0.112113 13.488 0.112113 11.376C0.112113 8.24 1.24811 5.792 3.52011 4.032C5.79211 2.24 8.75211 1.344 12.4001 1.344C16.1121 1.344 19.1041 2.24 21.3761 4.032C23.6481 5.792 24.8641 8.256 25.0241 11.424H16.1441C16.0801 10.336 15.6801 9.488 14.9441 8.88C14.2081 8.24 13.2641 7.92 12.1121 7.92C11.1201 7.92 10.3201 8.192 9.71211 8.736C9.10411 9.248 8.80011 10 8.80011 10.992C8.80011 12.08 9.31211 12.928 10.3361 13.536C11.3601 14.144 12.9601 14.8 15.1361 15.504C17.3121 16.24 19.0721 16.944 20.4161 17.616C21.7921 18.288 22.9761 19.264 23.9681 20.544C24.9601 21.824 25.4561 23.472 25.4561 25.488C25.4561 27.408 24.9601 29.152 23.9681 30.72C23.0081 32.288 21.6001 33.536 19.7441 34.464C17.8881 35.392 15.6961 35.856 13.1681 35.856Z" fill="#001A39"/>
<path d="M28.8754 22.176C28.8754 19.52 29.4194 17.152 30.5074 15.072C31.6274 12.992 33.1154 11.376 34.9714 10.224C36.8594 9.04 38.9074 8.448 41.1154 8.448C42.8114 8.448 44.3314 8.752 45.6754 9.36C47.0194 9.936 48.1074 10.752 48.9394 11.808V8.736H57.1474V48.288H48.9394V32.16C48.0114 33.28 46.8754 34.176 45.5314 34.848C44.2194 35.52 42.7154 35.856 41.0194 35.856C38.8434 35.856 36.8274 35.28 34.9714 34.128C33.1154 32.976 31.6274 31.36 30.5074 29.28C29.4194 27.2 28.8754 24.832 28.8754 22.176ZM48.9394 22.128C48.9394 20.688 48.6514 19.488 48.0754 18.528C47.5314 17.536 46.8114 16.8 45.9154 16.32C45.0194 15.808 44.0754 15.552 43.0834 15.552C42.1234 15.552 41.1954 15.808 40.2994 16.32C39.4034 16.8 38.6674 17.536 38.0914 18.528C37.5154 19.52 37.2274 20.736 37.2274 22.176C37.2274 23.616 37.5154 24.832 38.0914 25.824C38.6674 26.784 39.4034 27.52 40.2994 28.032C41.1954 28.512 42.1234 28.752 43.0834 28.752C44.0434 28.752 44.9714 28.512 45.8674 28.032C46.7954 27.52 47.5314 26.768 48.0754 25.776C48.6514 24.784 48.9394 23.568 48.9394 22.128Z" fill="#001A39"/>
<path d="M89.5335 8.736V35.52H81.3255V31.872C80.4935 33.056 79.3575 34.016 77.9175 34.752C76.5095 35.456 74.9415 35.808 73.2135 35.808C71.1655 35.808 69.3575 35.36 67.7895 34.464C66.2215 33.536 65.0055 32.208 64.1415 30.48C63.2775 28.752 62.8455 26.72 62.8455 24.384V8.736H71.0055V23.28C71.0055 25.072 71.4695 26.464 72.3975 27.456C73.3255 28.448 74.5735 28.944 76.1415 28.944C77.7415 28.944 79.0055 28.448 79.9335 27.456C80.8615 26.464 81.3255 25.072 81.3255 23.28V8.736H89.5335Z" fill="#001A39"/>
<path d="M120.677 21.696C120.677 22.464 120.629 23.264 120.533 24.096H101.957C102.085 25.76 102.613 27.04 103.541 27.936C104.501 28.8 105.669 29.232 107.045 29.232C109.093 29.232 110.517 28.368 111.317 26.64H120.053C119.605 28.4 118.789 29.984 117.605 31.392C116.453 32.8 114.997 33.904 113.237 34.704C111.477 35.504 109.509 35.904 107.333 35.904C104.709 35.904 102.373 35.344 100.325 34.224C98.2772 33.104 96.6772 31.504 95.5252 29.424C94.3732 27.344 93.7972 24.912 93.7972 22.128C93.7972 19.344 94.3572 16.912 95.4772 14.832C96.6292 12.752 98.2292 11.152 100.277 10.032C102.325 8.912 104.677 8.352 107.333 8.352C109.925 8.352 112.229 8.896 114.245 9.984C116.261 11.072 117.829 12.624 118.949 14.64C120.101 16.656 120.677 19.008 120.677 21.696ZM112.277 19.536C112.277 18.128 111.797 17.008 110.837 16.176C109.877 15.344 108.677 14.928 107.237 14.928C105.861 14.928 104.693 15.328 103.733 16.128C102.805 16.928 102.229 18.064 102.005 19.536H112.277Z" fill="#001A39"/>
<path d="M123.375 22.08C123.375 19.328 123.887 16.912 124.911 14.832C125.967 12.752 127.391 11.152 129.183 10.032C130.975 8.912 132.975 8.352 135.183 8.352C137.071 8.352 138.719 8.736 140.127 9.504C141.567 10.272 142.671 11.28 143.439 12.528V8.736H151.647V35.52H143.439V31.728C142.639 32.976 141.519 33.984 140.079 34.752C138.671 35.52 137.023 35.904 135.135 35.904C132.959 35.904 130.975 35.344 129.183 34.224C127.391 33.072 125.967 31.456 124.911 29.376C123.887 27.264 123.375 24.832 123.375 22.08ZM143.439 22.128C143.439 20.08 142.863 18.464 141.711 17.28C140.591 16.096 139.215 15.504 137.583 15.504C135.951 15.504 134.559 16.096 133.407 17.28C132.287 18.432 131.727 20.032 131.727 22.08C131.727 24.128 132.287 25.76 133.407 26.976C134.559 28.16 135.951 28.752 137.583 28.752C139.215 28.752 140.591 28.16 141.711 26.976C142.863 25.792 143.439 24.176 143.439 22.128Z" fill="#001A39"/>
<path d="M173.953 35.52L165.793 24.288V35.52H157.585V0H165.793V19.632L173.905 8.736H184.033L172.897 22.176L184.129 35.52H173.953Z" fill="#001A39"/>
<path d="M214.617 8.736L197.817 48.24H188.985L195.129 34.608L184.233 8.736H193.401L199.593 25.488L205.737 8.736H214.617Z" fill="#001A39"/>
<path d="M215 75.52V35.52L244 64.52L227.208 64.77L215 75.52Z" fill="#FBC73B"/>
<path fill-rule="evenodd" clip-rule="evenodd" d="M244 64.52L227.208 64.77L215 75.52V35.52L244 64.52ZM226.057 61.7868L218 68.8811V42.7627L223.435 48.1972C222.548 49.0793 222 50.3002 222 51.6493C222 54.3393 224.181 56.52 226.871 56.52C228.22 56.52 229.441 55.9716 230.323 55.0855L236.863 61.6259L226.057 61.7868ZM228.945 53.7078L224.812 49.5749C224.279 50.1044 223.948 50.8382 223.948 51.6493C223.948 53.2633 225.257 54.5717 226.871 54.5717C227.682 54.5717 228.416 54.2413 228.945 53.7078Z" fill="#001A39"/>
<path d="M223 60.02C223 60.8484 222.328 61.52 221.5 61.52C220.672 61.52 220 60.8484 220 60.02C220 59.1916 220.672 58.52 221.5 58.52C222.328 58.52 223 59.1916 223 60.02Z" fill="#001A39"/>
</svg>
