<svg width="36" height="36" viewBox="0 0 36 36" fill="none" xmlns="http://www.w3.org/2000/svg">
<path d="M18 36C27.9411 36 36 27.9411 36 18C36 8.05887 27.9411 0 18 0C8.05887 0 0 8.05887 0 18C0 27.9411 8.05887 36 18 36Z" fill="#FFCC4D"/>
<path d="M16.0001 16.958C15.5811 16.958 15.1911 16.693 15.0511 16.274C14.8481 15.675 14.0331 13.958 13.0001 13.958C11.9381 13.958 11.1121 15.785 10.9491 16.274C10.7741 16.797 10.2111 17.082 9.68408 16.906C9.16008 16.732 8.87708 16.165 9.05208 15.641C9.17708 15.264 10.3561 11.957 13.0011 11.957C15.6461 11.957 16.8241 15.264 16.9501 15.641C17.1251 16.165 16.8421 16.732 16.3181 16.906C16.2121 16.942 16.1051 16.958 16.0001 16.958ZM26.0001 16.958C25.5811 16.958 25.1911 16.693 25.0521 16.274C24.8491 15.675 24.0331 13.958 23.0001 13.958C21.9381 13.958 21.1111 15.785 20.9481 16.274C20.7731 16.797 20.2121 17.082 19.6831 16.906C19.1601 16.732 18.8761 16.165 19.0511 15.641C19.1761 15.264 20.3551 11.957 22.9991 11.957C25.6431 11.957 26.8221 15.264 26.9471 15.641C27.1221 16.165 26.8391 16.732 26.3151 16.906C26.2111 16.942 26.1051 16.958 26.0001 16.958ZM27.3351 20.691C27.1571 20.53 26.8911 20.52 26.7001 20.662C26.6611 20.691 22.7781 23.562 18.0001 23.562C13.2341 23.562 9.33808 20.691 9.30008 20.662C9.10908 20.52 8.84308 20.532 8.66508 20.691C8.48808 20.851 8.44808 21.115 8.57108 21.319C8.70008 21.534 11.7881 26.562 18.0001 26.562C24.2121 26.562 27.3011 21.534 27.4291 21.319C27.5521 21.114 27.5131 20.852 27.3351 20.691Z" fill="#664500"/>
<path d="M21.2292 3.94745C21.2292 4.18745 21.2592 4.41945 21.3112 4.64345C21.7362 7.28645 24.6752 10.0745 26.7812 10.8405C28.4462 10.2355 30.6272 8.36445 31.6792 6.30145C29.5902 3.86145 26.8602 1.98745 23.7502 0.939453C22.3182 1.19645 21.2292 2.44145 21.2292 3.94745ZM13.7432 29.0785C13.8002 28.8365 13.8332 28.5845 13.8332 28.3245C13.8332 26.4915 12.3472 25.0055 10.5142 25.0055C9.40123 25.0055 8.42023 25.5545 7.81723 26.3945C7.21523 25.5555 6.23323 25.0055 5.12023 25.0055C3.87923 25.0055 2.80923 25.6945 2.24023 26.7035C4.06423 29.9985 6.89023 32.6605 10.3082 34.2775C11.9452 32.9265 13.4392 30.9705 13.7432 29.0785ZM34.3012 25.6425C34.0192 24.6925 33.1492 23.9955 32.1072 23.9955C31.3362 23.9955 30.6562 24.3755 30.2392 24.9575C29.8222 24.3755 29.1422 23.9955 28.3712 23.9955C27.1012 23.9955 26.0722 25.0245 26.0722 26.2945C26.0722 26.4745 26.0952 26.6485 26.1342 26.8165C26.4412 28.7215 28.4822 30.7125 30.0432 31.3775C31.8192 29.7775 33.2742 27.8305 34.3012 25.6425Z" fill="#FFAC33"/>
<path d="M33.6248 3.26905C33.6248 1.57705 32.2528 0.206055 30.5618 0.206055C29.5348 0.206055 28.6288 0.713055 28.0728 1.48805C27.5168 0.713055 26.6108 0.206055 25.5838 0.206055C23.8918 0.206055 22.5208 1.57705 22.5208 3.26905C22.5208 3.50905 22.5508 3.74105 22.6028 3.96505C23.0288 6.60805 25.9668 9.39605 28.0728 10.1621C30.1788 9.39605 33.1168 6.60805 33.5418 3.96605C33.5948 3.74105 33.6248 3.50905 33.6248 3.26905ZM12.2078 28.4081C12.2078 26.5751 10.7218 25.0891 8.88878 25.0891C7.77578 25.0891 6.79478 25.6381 6.19178 26.4781C5.58978 25.6381 4.60778 25.0891 3.49478 25.0891C1.66178 25.0891 0.175781 26.5751 0.175781 28.4081C0.175781 28.6681 0.208781 28.9191 0.264781 29.1621C0.725781 32.0251 3.90878 35.0461 6.19078 35.8761C8.47278 35.0471 11.6558 32.0261 12.1168 29.1631C12.1748 28.9191 12.2078 28.6671 12.2078 28.4081ZM35.9478 26.1271C35.9478 24.8571 34.9188 23.8281 33.6488 23.8281C32.8778 23.8281 32.1978 24.2081 31.7808 24.7901C31.3638 24.2081 30.6838 23.8281 29.9128 23.8281C28.6428 23.8281 27.6138 24.8571 27.6138 26.1271C27.6138 26.3071 27.6368 26.4811 27.6758 26.6491C27.9948 28.6321 30.1998 30.7251 31.7808 31.2991C33.3608 30.7251 35.5668 28.6321 35.8848 26.6491C35.9248 26.4811 35.9478 26.3071 35.9478 26.1271Z" fill="#DD2E44"/>
</svg>
