<svg width="36" height="36" viewBox="0 0 36 36" fill="none" xmlns="http://www.w3.org/2000/svg">
<path d="M18 36C27.9411 36 36 27.9411 36 18C36 8.05887 27.9411 0 18 0C8.05887 0 0 8.05887 0 18C0 27.9411 8.05887 36 18 36Z" fill="#FFCC4D"/>
<path d="M25.4852 27.379C25.4402 27.2 24.3172 23 18.0002 23C11.6822 23 10.5602 27.2 10.5152 27.379C10.4602 27.596 10.5582 27.821 10.7522 27.933C10.9472 28.044 11.1912 28.011 11.3522 27.856C11.3712 27.837 13.3062 26 18.0002 26C22.6942 26 24.6302 27.837 24.6482 27.855C24.7442 27.95 24.8722 28 25.0002 28C25.0842 28 25.1692 27.979 25.2462 27.936C25.4422 27.824 25.5402 27.597 25.4852 27.379Z" fill="#664500"/>
<path d="M12 17C13.3807 17 14.5 15.433 14.5 13.5C14.5 11.567 13.3807 10 12 10C10.6193 10 9.5 11.567 9.5 13.5C9.5 15.433 10.6193 17 12 17Z" fill="#664500"/>
<path d="M24 17C25.3807 17 26.5 15.433 26.5 13.5C26.5 11.567 25.3807 10 24 10C22.6193 10 21.5 11.567 21.5 13.5C21.5 15.433 22.6193 17 24 17Z" fill="#664500"/>
</svg>
